<?xml version="1.0" encoding="UTF-8" standalone="no"?>
<!DOCTYPE svg PUBLIC "-//W3C//DTD SVG 1.1//EN"
 "http://www.w3.org/Graphics/SVG/1.1/DTD/svg11.dtd">
<!-- Generated by graphviz version 2.44.1 (20200629.0846)
 -->
<!-- Title: Microcontroller Abstraction Pages: 1 -->
<svg width="394pt" height="64pt"
 viewBox="0.00 0.00 394.00 64.00" xmlns="http://www.w3.org/2000/svg" xmlns:xlink="http://www.w3.org/1999/xlink">
<g id="graph0" class="graph" transform="scale(1 1) rotate(0) translate(4 60)">
<title>Microcontroller Abstraction</title>
<polygon fill="white" stroke="transparent" points="-4,4 -4,-60 390,-60 390,4 -4,4"/>
<!-- Node1 -->
<g id="node1" class="node">
<title>Node1</title>
<g id="a_node1"><a xlink:title="PWM peripheral output pins, control signals and register assignments.">
<polygon fill="#bfbfbf" stroke="black" points="249,-37 116,-37 116,-18 249,-18 249,-37"/>
<text text-anchor="middle" x="182.5" y="-25" font-family="Helvetica,sans-Serif" font-size="10.00">Microcontroller Abstraction</text>
</a>
</g>
</g>
<!-- Node3 -->
<g id="node2" class="node">
<title>Node3</title>
<g id="a_node2"><a xlink:href="a00384.html" target="_top" xlink:title=" ">
<polygon fill="white" stroke="black" points="386,-56 285,-56 285,-37 386,-37 386,-56"/>
<text text-anchor="middle" x="335.5" y="-44" font-family="Helvetica,sans-Serif" font-size="10.00">Converter Phase #1</text>
</a>
</g>
</g>
<!-- Node1&#45;&gt;Node3 -->
<g id="edge2" class="edge">
<title>Node1&#45;&gt;Node3</title>
<path fill="none" stroke="black" d="M259.4,-37.05C268.03,-38.14 276.66,-39.22 284.82,-40.25"/>
<polygon fill="black" stroke="black" points="259.65,-33.55 249.29,-35.78 258.78,-40.5 259.65,-33.55"/>
</g>
<!-- Node4 -->
<g id="node3" class="node">
<title>Node4</title>
<g id="a_node3"><a xlink:href="a00385.html" target="_top" xlink:title=" ">
<polygon fill="white" stroke="black" points="386,-19 285,-19 285,0 386,0 386,-19"/>
<text text-anchor="middle" x="335.5" y="-7" font-family="Helvetica,sans-Serif" font-size="10.00">Converter Phase #2</text>
</a>
</g>
</g>
<!-- Node1&#45;&gt;Node4 -->
<g id="edge3" class="edge">
<title>Node1&#45;&gt;Node4</title>
<path fill="none" stroke="black" d="M259.4,-18.45C268.03,-17.42 276.66,-16.4 284.82,-15.42"/>
<polygon fill="black" stroke="black" points="258.81,-15 249.29,-19.66 259.64,-21.95 258.81,-15"/>
</g>
<!-- Node2 -->
<g id="node4" class="node">
<title>Node2</title>
<g id="a_node4"><a xlink:href="a00380.html" target="_top" xlink:title="Declaration of fundamental PWM parameters.">
<polygon fill="white" stroke="black" points="80,-37 0,-37 0,-18 80,-18 80,-37"/>
<text text-anchor="middle" x="40" y="-25" font-family="Helvetica,sans-Serif" font-size="10.00">PWM Settings</text>
</a>
</g>
</g>
<!-- Node2&#45;&gt;Node1 -->
<g id="edge1" class="edge">
<title>Node2&#45;&gt;Node1</title>
<path fill="none" stroke="black" d="M90.35,-27.5C98.62,-27.5 107.32,-27.5 115.93,-27.5"/>
<polygon fill="black" stroke="black" points="90.14,-24 80.14,-27.5 90.14,-31 90.14,-24"/>
</g>
</g>
</svg>
