<?xml version="1.0" encoding="UTF-8" standalone="no"?>
<!DOCTYPE svg PUBLIC "-//W3C//DTD SVG 1.1//EN"
 "http://www.w3.org/Graphics/SVG/1.1/DTD/svg11.dtd">
<!-- Generated by graphviz version 2.44.1 (20200629.0846)
 -->
<!-- Title: Application Layer Pages: 1 -->
<svg width="264pt" height="86pt"
 viewBox="0.00 0.00 264.00 86.00" xmlns="http://www.w3.org/2000/svg" xmlns:xlink="http://www.w3.org/1999/xlink">
<g id="graph0" class="graph" transform="scale(1 1) rotate(0) translate(4 82)">
<title>Application Layer</title>
<polygon fill="white" stroke="transparent" points="-4,4 -4,-82 260,-82 260,4 -4,4"/>
<!-- Node3 -->
<g id="node1" class="node">
<title>Node3</title>
<g id="a_node1"><a xlink:href="a00417.html" target="_top" xlink:title=" ">
<polygon fill="white" stroke="black" points="256,-78 128,-78 128,-48 256,-48 256,-78"/>
<text text-anchor="start" x="136" y="-66" font-family="Helvetica,sans-Serif" font-size="10.00">Power Control Application</text>
<text text-anchor="middle" x="192" y="-55" font-family="Helvetica,sans-Serif" font-size="10.00"> Layer</text>
</a>
</g>
</g>
<!-- Node2 -->
<g id="node2" class="node">
<title>Node2</title>
<g id="a_node2"><a xlink:href="a00401.html" target="_top" xlink:title=" ">
<polygon fill="white" stroke="black" points="254.5,-30 129.5,-30 129.5,0 254.5,0 254.5,-30"/>
<text text-anchor="start" x="137.5" y="-18" font-family="Helvetica,sans-Serif" font-size="10.00">Fault Monitor Application</text>
<text text-anchor="middle" x="192" y="-7" font-family="Helvetica,sans-Serif" font-size="10.00"> Layer</text>
</a>
</g>
</g>
<!-- Node1 -->
<g id="node3" class="node">
<title>Node1</title>
<g id="a_node3"><a xlink:title="Task Layer.">
<polygon fill="#bfbfbf" stroke="black" points="92,-48.5 0,-48.5 0,-29.5 92,-29.5 92,-48.5"/>
<text text-anchor="middle" x="46" y="-36.5" font-family="Helvetica,sans-Serif" font-size="10.00">Application Layer</text>
</a>
</g>
</g>
<!-- Node1&#45;&gt;Node3 -->
<g id="edge2" class="edge">
<title>Node1&#45;&gt;Node3</title>
<path fill="none" stroke="black" d="M102.19,-48.2C110.57,-49.59 119.26,-51.04 127.79,-52.47"/>
<polygon fill="black" stroke="black" points="102.61,-44.72 92.17,-46.53 101.46,-51.62 102.61,-44.72"/>
</g>
<!-- Node1&#45;&gt;Node2 -->
<g id="edge1" class="edge">
<title>Node1&#45;&gt;Node2</title>
<path fill="none" stroke="black" d="M102.06,-29.82C110.99,-28.33 120.29,-26.78 129.37,-25.27"/>
<polygon fill="black" stroke="black" points="101.46,-26.38 92.17,-31.47 102.61,-33.28 101.46,-26.38"/>
</g>
</g>
</svg>
