<?xml version="1.0" encoding="UTF-8" standalone="no"?>
<!DOCTYPE svg PUBLIC "-//W3C//DTD SVG 1.1//EN"
 "http://www.w3.org/Graphics/SVG/1.1/DTD/svg11.dtd">
<!-- Generated by graphviz version 2.44.1 (20200629.0846)
 -->
<!-- Title: sysUserTasks_Initialize Pages: 1 -->
<!--zoomable 408 -->
<svg id="main" version="1.1" xmlns="http://www.w3.org/2000/svg" xmlns:xlink="http://www.w3.org/1999/xlink" xml:space="preserve" onload="init(evt)">
<style type="text/css"><![CDATA[
.edge:hover path { stroke: red; }
.edge:hover polygon { stroke: red; fill: red; }
]]></style>
<script type="text/javascript"><![CDATA[
var edges = document.getElementsByTagName('g');
if (edges && edges.length) {
  for (var i=0;i<edges.length;i++) {
    if (edges[i].id.substr(0,4)=='edge') {
      edges[i].setAttribute('class','edge');
    }
  }
}
]]></script>
        <defs>
                <circle id="rim" cx="0" cy="0" r="7"/>
                <circle id="rim2" cx="0" cy="0" r="3.5"/>
                <g id="zoomPlus">
                        <use xlink:href="#rim" fill="#404040">
                                <set attributeName="fill" to="#808080" begin="zoomplus.mouseover" end="zoomplus.mouseout"/>
                        </use>
                        <path d="M-4,0h8M0,-4v8" fill="none" stroke="white" stroke-width="1.5" pointer-events="none"/>
                </g>
                <g id="zoomMin">
                        <use xlink:href="#rim" fill="#404040">
                                <set attributeName="fill" to="#808080" begin="zoomminus.mouseover" end="zoomminus.mouseout"/>
                        </use>
                        <path d="M-4,0h8" fill="none" stroke="white" stroke-width="1.5" pointer-events="none"/>
                </g>
                <g id="dirArrow">
                        <path fill="none" stroke="white" stroke-width="1.5" d="M0,-3.0v7 M-2.5,-0.5L0,-3.0L2.5,-0.5"/>
                </g>
               <g id="resetDef">
                       <use xlink:href="#rim2" fill="#404040">
                               <set attributeName="fill" to="#808080" begin="reset.mouseover" end="reset.mouseout"/>
                       </use>
               </g>
        </defs>

<script type="text/javascript">
var viewWidth = 1366;
var viewHeight = 408;
var sectionId = 'dynsection-1';
</script>
<script xlink:href="svgpan.js"/>
<svg id="graph" class="graph">
<g id="viewport">
<title>sysUserTasks_Initialize</title>
<polygon fill="white" stroke="transparent" points="-4,4 -4,-404 1362,-404 1362,4 -4,4"/>
<!-- Node1 -->
<g id="node1" class="node">
<title>Node1</title>
<g id="a_node1"><a xlink:title="Initializes the user&#45;defined tasks.">
<polygon fill="#bfbfbf" stroke="black" points="0,-247.5 0,-266.5 119,-266.5 119,-247.5 0,-247.5"/>
<text text-anchor="middle" x="59.5" y="-254.5" font-family="Helvetica,sans-Serif" font-size="10.00">sysUserTasks_Initialize</text>
</a>
</g>
</g>
<!-- Node2 -->
<g id="node2" class="node">
<title>Node2</title>
<g id="a_node2"><a xlink:href="a00402.html#ga0f8fb0fadf90485a834e15ecdd93216e" target="_top" xlink:title="Initialization of user&#45;defined fault objects.">
<polygon fill="white" stroke="black" points="155,-304.5 155,-323.5 282,-323.5 282,-304.5 155,-304.5"/>
<text text-anchor="middle" x="218.5" y="-311.5" font-family="Helvetica,sans-Serif" font-size="10.00">appFaultMonitor_Initialize</text>
</a>
</g>
</g>
<!-- Node1&#45;&gt;Node2 -->
<g id="edge1" class="edge">
<title>Node1&#45;&gt;Node2</title>
<path fill="none" stroke="midnightblue" d="M86.78,-266.54C112.7,-275.95 152.53,-290.41 181.42,-300.9"/>
<polygon fill="midnightblue" stroke="midnightblue" points="180.54,-304.31 191.14,-304.43 182.93,-297.73 180.54,-304.31"/>
</g>
<!-- Node12 -->
<g id="node12" class="node">
<title>Node12</title>
<g id="a_node12"><a xlink:href="a00418.html#ga7a4cf6371d09457539f96a74b2809ca0" target="_top" xlink:title="Calls the application layer power controller initialization.">
<polygon fill="white" stroke="black" points="318,-228.5 318,-247.5 448,-247.5 448,-228.5 318,-228.5"/>
<text text-anchor="middle" x="383" y="-235.5" font-family="Helvetica,sans-Serif" font-size="10.00">appPowerSupply_Initialize</text>
</a>
</g>
</g>
<!-- Node1&#45;&gt;Node12 -->
<g id="edge14" class="edge">
<title>Node1&#45;&gt;Node12</title>
<path fill="none" stroke="midnightblue" d="M119.09,-253.54C172.06,-250.41 250.29,-245.78 307.65,-242.39"/>
<polygon fill="midnightblue" stroke="midnightblue" points="307.96,-245.88 317.74,-241.8 307.55,-238.89 307.96,-245.88"/>
</g>
<!-- Node39 -->
<g id="node39" class="node">
<title>Node39</title>
<g id="a_node39"><a xlink:href="a00482.html#ga8e89a1a4ee5bf8c794bd29163b92bf49" target="_top" xlink:title="Initializes the timer used as timebase for the task scheduler.">
<polygon fill="white" stroke="black" points="163.5,-209.5 163.5,-228.5 273.5,-228.5 273.5,-209.5 163.5,-209.5"/>
<text text-anchor="middle" x="218.5" y="-216.5" font-family="Helvetica,sans-Serif" font-size="10.00">sysOsTimer_Initialize</text>
</a>
</g>
</g>
<!-- Node1&#45;&gt;Node39 -->
<g id="edge46" class="edge">
<title>Node1&#45;&gt;Node39</title>
<path fill="none" stroke="midnightblue" d="M100.12,-247.41C120.84,-242.4 146.39,-236.21 168.36,-230.89"/>
<polygon fill="midnightblue" stroke="midnightblue" points="169.27,-234.27 178.17,-228.52 167.62,-227.47 169.27,-234.27"/>
</g>
<!-- Node3 -->
<g id="node3" class="node">
<title>Node3</title>
<g id="a_node3"><a xlink:href="a00404.html#gac53e3bdc6df0dbea20258fc53991185f" target="_top" xlink:title="Initializes the user&#45;defined fault objects for overcurrent protection.">
<polygon fill="white" stroke="black" points="335.5,-342.5 335.5,-361.5 430.5,-361.5 430.5,-342.5 335.5,-342.5"/>
<text text-anchor="middle" x="383" y="-349.5" font-family="Helvetica,sans-Serif" font-size="10.00">ocp_FaultInitialize</text>
</a>
</g>
</g>
<!-- Node2&#45;&gt;Node3 -->
<g id="edge2" class="edge">
<title>Node2&#45;&gt;Node3</title>
<path fill="none" stroke="midnightblue" d="M260.51,-323.59C282.05,-328.63 308.63,-334.84 331.44,-340.18"/>
<polygon fill="midnightblue" stroke="midnightblue" points="330.75,-343.61 341.29,-342.48 332.35,-336.79 330.75,-343.61"/>
</g>
<!-- Node9 -->
<g id="node9" class="node">
<title>Node9</title>
<g id="a_node9"><a xlink:href="a00404.html#ga1c1a8e73e88a0fc1b9fd6ebc6cf16524" target="_top" xlink:title="Initializes the user&#45;defined fault objects for overvoltage lockout.">
<polygon fill="white" stroke="black" points="335.5,-304.5 335.5,-323.5 430.5,-323.5 430.5,-304.5 335.5,-304.5"/>
<text text-anchor="middle" x="383" y="-311.5" font-family="Helvetica,sans-Serif" font-size="10.00">ovlo_FaultInitialize</text>
</a>
</g>
</g>
<!-- Node2&#45;&gt;Node9 -->
<g id="edge8" class="edge">
<title>Node2&#45;&gt;Node9</title>
<path fill="none" stroke="midnightblue" d="M282.33,-314C296.42,-314 311.29,-314 325.12,-314"/>
<polygon fill="midnightblue" stroke="midnightblue" points="325.47,-317.5 335.47,-314 325.47,-310.5 325.47,-317.5"/>
</g>
<!-- Node10 -->
<g id="node10" class="node">
<title>Node10</title>
<g id="a_node10"><a xlink:href="a00404.html#ga30112272eb63176a17614933e950688b" target="_top" xlink:title="Initializes the user&#45;defined fault objects for regulation error.">
<polygon fill="white" stroke="black" points="331,-266.5 331,-285.5 435,-285.5 435,-266.5 331,-266.5"/>
<text text-anchor="middle" x="383" y="-273.5" font-family="Helvetica,sans-Serif" font-size="10.00">regerr_FaultInitialize</text>
</a>
</g>
</g>
<!-- Node2&#45;&gt;Node10 -->
<g id="edge10" class="edge">
<title>Node2&#45;&gt;Node10</title>
<path fill="none" stroke="midnightblue" d="M260.51,-304.41C282.05,-299.37 308.63,-293.16 331.44,-287.82"/>
<polygon fill="midnightblue" stroke="midnightblue" points="332.35,-291.21 341.29,-285.52 330.75,-284.39 332.35,-291.21"/>
</g>
<!-- Node11 -->
<g id="node11" class="node">
<title>Node11</title>
<g id="a_node11"><a xlink:href="a00404.html#gab1c6de31b4c981fb3afdb301a00f6e96" target="_top" xlink:title="Initializes the user&#45;defined fault objects for under&#45;voltage lockout.">
<polygon fill="white" stroke="black" points="335.5,-380.5 335.5,-399.5 430.5,-399.5 430.5,-380.5 335.5,-380.5"/>
<text text-anchor="middle" x="383" y="-387.5" font-family="Helvetica,sans-Serif" font-size="10.00">uvlo_FaultInitialize</text>
</a>
</g>
</g>
<!-- Node2&#45;&gt;Node11 -->
<g id="edge12" class="edge">
<title>Node2&#45;&gt;Node11</title>
<path fill="none" stroke="midnightblue" d="M233.63,-323.61C252.27,-335.96 286.42,-357.4 318,-371 323.32,-373.29 329,-375.41 334.7,-377.34"/>
<polygon fill="midnightblue" stroke="midnightblue" points="333.66,-380.68 344.25,-380.4 335.79,-374.02 333.66,-380.68"/>
</g>
<!-- Node4 -->
<g id="node4" class="node">
<title>Node4</title>
<g id="a_node4"><a xlink:href="a00418.html#gafa4e90d260e60cf20f06acee067c39cd" target="_top" xlink:title="This function stops the power supply operation.">
<polygon fill="white" stroke="black" points="489,-342.5 489,-361.5 622,-361.5 622,-342.5 489,-342.5"/>
<text text-anchor="middle" x="555.5" y="-349.5" font-family="Helvetica,sans-Serif" font-size="10.00">appPowerSupply_Suspend</text>
</a>
</g>
</g>
<!-- Node3&#45;&gt;Node4 -->
<g id="edge3" class="edge">
<title>Node3&#45;&gt;Node4</title>
<path fill="none" stroke="midnightblue" d="M430.59,-352C445.45,-352 462.3,-352 478.68,-352"/>
<polygon fill="midnightblue" stroke="midnightblue" points="478.79,-355.5 488.79,-352 478.79,-348.5 478.79,-355.5"/>
</g>
<!-- Node5 -->
<g id="node5" class="node">
<title>Node5</title>
<g id="a_node5"><a xlink:href="a00425.html#ga0d68d132b52175c43503c9b5794bae64" target="_top" xlink:title="This function suspends the operation of the buck converter.">
<polygon fill="white" stroke="black" points="663,-342.5 663,-361.5 803,-361.5 803,-342.5 663,-342.5"/>
<text text-anchor="middle" x="733" y="-349.5" font-family="Helvetica,sans-Serif" font-size="10.00">drv_BuckConverter_Suspend</text>
</a>
</g>
</g>
<!-- Node4&#45;&gt;Node5 -->
<g id="edge4" class="edge">
<title>Node4&#45;&gt;Node5</title>
<path fill="none" stroke="midnightblue" d="M622.35,-352C632.27,-352 642.59,-352 652.76,-352"/>
<polygon fill="midnightblue" stroke="midnightblue" points="652.85,-355.5 662.85,-352 652.85,-348.5 652.85,-355.5"/>
</g>
<!-- Node6 -->
<g id="node6" class="node">
<title>Node6</title>
<g id="a_node6"><a xlink:href="a00425.html#gab9877f90ffb129964ae42ce2921b3fe1" target="_top" xlink:title="This function is the main buck converter state machine executing the most recent state.">
<polygon fill="white" stroke="black" points="839,-342.5 839,-361.5 977,-361.5 977,-342.5 839,-342.5"/>
<text text-anchor="middle" x="908" y="-349.5" font-family="Helvetica,sans-Serif" font-size="10.00">drv_BuckConverter_Execute</text>
</a>
</g>
</g>
<!-- Node5&#45;&gt;Node6 -->
<g id="edge5" class="edge">
<title>Node5&#45;&gt;Node6</title>
<path fill="none" stroke="midnightblue" d="M803.37,-352C811.66,-352 820.16,-352 828.56,-352"/>
<polygon fill="midnightblue" stroke="midnightblue" points="828.74,-355.5 838.74,-352 828.74,-348.5 828.74,-355.5"/>
</g>
<!-- Node7 -->
<g id="node7" class="node">
<title>Node7</title>
<g id="a_node7"><a xlink:href="a00448.html#ga8e2253c136f05033e774d09032b283a1" target="_top" xlink:title="This function gets the state of the selected pin.">
<polygon fill="white" stroke="black" points="1032,-335.5 1032,-354.5 1152,-354.5 1152,-335.5 1032,-335.5"/>
<text text-anchor="middle" x="1092" y="-342.5" font-family="Helvetica,sans-Serif" font-size="10.00">buckGPIO_GetPinState</text>
</a>
</g>
</g>
<!-- Node6&#45;&gt;Node7 -->
<g id="edge6" class="edge">
<title>Node6&#45;&gt;Node7</title>
<path fill="none" stroke="midnightblue" d="M977.03,-349.38C991.63,-348.82 1007.08,-348.23 1021.73,-347.66"/>
<polygon fill="midnightblue" stroke="midnightblue" points="1021.86,-351.16 1031.72,-347.28 1021.59,-344.17 1021.86,-351.16"/>
</g>
<!-- Node8 -->
<g id="node8" class="node">
<title>Node8</title>
<g id="a_node8"><a xlink:href="a00350.html#ga4d67af688d8f7f911d79107974e11e6b" target="_top" xlink:title="Gets pointer to GPIO Instance SFR set.">
<polygon fill="white" stroke="black" points="1207,-133.5 1207,-152.5 1358,-152.5 1358,-133.5 1207,-133.5"/>
<text text-anchor="middle" x="1282.5" y="-140.5" font-family="Helvetica,sans-Serif" font-size="10.00">p33c_GpioInstance_GetHandle</text>
</a>
</g>
</g>
<!-- Node7&#45;&gt;Node8 -->
<g id="edge7" class="edge">
<title>Node7&#45;&gt;Node8</title>
<path fill="none" stroke="midnightblue" d="M1140.99,-335.43C1151.59,-331.8 1162.25,-326.81 1171,-320 1226.16,-277.06 1260.94,-198.3 1274.73,-162.11"/>
<polygon fill="midnightblue" stroke="midnightblue" points="1278.02,-163.3 1278.2,-152.71 1271.45,-160.88 1278.02,-163.3"/>
</g>
<!-- Node9&#45;&gt;Node4 -->
<g id="edge9" class="edge">
<title>Node9&#45;&gt;Node4</title>
<path fill="none" stroke="midnightblue" d="M427.02,-323.59C449.73,-328.65 477.77,-334.9 501.77,-340.25"/>
<polygon fill="midnightblue" stroke="midnightblue" points="501.26,-343.72 511.79,-342.48 502.79,-336.89 501.26,-343.72"/>
</g>
<!-- Node10&#45;&gt;Node4 -->
<g id="edge11" class="edge">
<title>Node10&#45;&gt;Node4</title>
<path fill="none" stroke="midnightblue" d="M422.15,-285.56C430.81,-288.21 439.85,-291.37 448,-295 465.13,-302.62 467.59,-307.93 484,-317 497.15,-324.27 512.02,-331.75 524.69,-337.92"/>
<polygon fill="midnightblue" stroke="midnightblue" points="523.37,-341.17 533.89,-342.36 526.41,-334.86 523.37,-341.17"/>
</g>
<!-- Node11&#45;&gt;Node4 -->
<g id="edge13" class="edge">
<title>Node11&#45;&gt;Node4</title>
<path fill="none" stroke="midnightblue" d="M427.02,-380.41C449.73,-375.35 477.77,-369.1 501.77,-363.75"/>
<polygon fill="midnightblue" stroke="midnightblue" points="502.79,-367.11 511.79,-361.52 501.26,-360.28 502.79,-367.11"/>
</g>
<!-- Node13 -->
<g id="node13" class="node">
<title>Node13</title>
<g id="a_node13"><a xlink:href="a00421.html#ga0b4cabdb02c8c9ea94ea1dfa39de3764" target="_top" xlink:title="This function initializes the control system feedback loop objects.">
<polygon fill="white" stroke="black" points="487.5,-223 487.5,-253 623.5,-253 623.5,-223 487.5,-223"/>
<text text-anchor="start" x="495.5" y="-241" font-family="Helvetica,sans-Serif" font-size="10.00">appPowerSupply_Controller</text>
<text text-anchor="middle" x="555.5" y="-230" font-family="Helvetica,sans-Serif" font-size="10.00">Initialize</text>
</a>
</g>
</g>
<!-- Node12&#45;&gt;Node13 -->
<g id="edge15" class="edge">
<title>Node12&#45;&gt;Node13</title>
<path fill="none" stroke="midnightblue" d="M448.46,-238C457.91,-238 467.72,-238 477.39,-238"/>
<polygon fill="midnightblue" stroke="midnightblue" points="477.39,-241.5 487.39,-238 477.39,-234.5 477.39,-241.5"/>
</g>
<!-- Node18 -->
<g id="node18" class="node">
<title>Node18</title>
<g id="a_node18"><a xlink:href="a00421.html#gad0f6ff4894bf23722884c60bbcdcacd0" target="_top" xlink:title="This function initializes the buck converter device driver instance.">
<polygon fill="white" stroke="black" points="488,-174 488,-204 623,-204 623,-174 488,-174"/>
<text text-anchor="start" x="496" y="-192" font-family="Helvetica,sans-Serif" font-size="10.00">appPowerSupply_Converter</text>
<text text-anchor="middle" x="555.5" y="-181" font-family="Helvetica,sans-Serif" font-size="10.00">ObjectInitialize</text>
</a>
</g>
</g>
<!-- Node12&#45;&gt;Node18 -->
<g id="edge21" class="edge">
<title>Node12&#45;&gt;Node18</title>
<path fill="none" stroke="midnightblue" d="M417.28,-228.44C438.58,-222.31 466.89,-214.18 492.25,-206.89"/>
<polygon fill="midnightblue" stroke="midnightblue" points="493.53,-210.16 502.18,-204.04 491.6,-203.44 493.53,-210.16"/>
</g>
<!-- Node19 -->
<g id="node19" class="node">
<title>Node19</title>
<g id="a_node19"><a xlink:href="a00421.html#ga0b26acfec74d1804384b4ba1a3cffab4" target="_top" xlink:title="This function is used to load peripheral configuration templates from the power controller device dri...">
<polygon fill="white" stroke="black" points="484,-71 484,-101 627,-101 627,-71 484,-71"/>
<text text-anchor="start" x="492" y="-89" font-family="Helvetica,sans-Serif" font-size="10.00">appPowerSupply_Peripherals</text>
<text text-anchor="middle" x="555.5" y="-78" font-family="Helvetica,sans-Serif" font-size="10.00">Initialize</text>
</a>
</g>
</g>
<!-- Node12&#45;&gt;Node19 -->
<g id="edge22" class="edge">
<title>Node12&#45;&gt;Node19</title>
<path fill="none" stroke="midnightblue" d="M394.67,-228.49C421.48,-204.58 492.26,-141.48 530,-107.84"/>
<polygon fill="midnightblue" stroke="midnightblue" points="532.39,-110.4 537.52,-101.14 527.73,-105.18 532.39,-110.4"/>
</g>
<!-- Node35 -->
<g id="node35" class="node">
<title>Node35</title>
<g id="a_node35"><a xlink:href="a00418.html#ga9210070749c2ed49abd8a30b27f64151" target="_top" xlink:title="This function calls the buck converter device driver function starting the power supply.">
<polygon fill="white" stroke="black" points="497.5,-288.5 497.5,-307.5 613.5,-307.5 613.5,-288.5 497.5,-288.5"/>
<text text-anchor="middle" x="555.5" y="-295.5" font-family="Helvetica,sans-Serif" font-size="10.00">appPowerSupply_Start</text>
</a>
</g>
</g>
<!-- Node12&#45;&gt;Node35 -->
<g id="edge41" class="edge">
<title>Node12&#45;&gt;Node35</title>
<path fill="none" stroke="midnightblue" d="M418.04,-247.56C427.76,-250.44 438.34,-253.71 448,-257 472.94,-265.49 500.69,-276.22 521.62,-284.57"/>
<polygon fill="midnightblue" stroke="midnightblue" points="520.42,-287.86 531.01,-288.34 523.03,-281.37 520.42,-287.86"/>
</g>
<!-- Node14 -->
<g id="node14" class="node">
<title>Node14</title>
<g id="a_node14"><a xlink:href="a00460.html#ga62d45a18f3dd47fa691fbb463f90e051" target="_top" xlink:title="Initializes controller coefficient arrays and normalization factors.">
<polygon fill="white" stroke="black" points="691,-228.5 691,-247.5 775,-247.5 775,-228.5 691,-228.5"/>
<text text-anchor="middle" x="733" y="-235.5" font-family="Helvetica,sans-Serif" font-size="10.00">v_loop_Initialize</text>
</a>
</g>
</g>
<!-- Node13&#45;&gt;Node14 -->
<g id="edge16" class="edge">
<title>Node13&#45;&gt;Node14</title>
<path fill="none" stroke="midnightblue" d="M623.6,-238C642.53,-238 662.82,-238 680.66,-238"/>
<polygon fill="midnightblue" stroke="midnightblue" points="680.86,-241.5 690.86,-238 680.86,-234.5 680.86,-241.5"/>
</g>
<!-- Node15 -->
<g id="node15" class="node">
<title>Node15</title>
<g id="a_node15"><a xlink:href="a00460.html#gabb35e824b8586b680f54d59975ada3c7" target="_top" xlink:title="Prototype of the Assembly routine &#39;_v_loop_Reset&#39; clearing the NPNZ16b controller output and error hi...">
<polygon fill="white" stroke="black" points="871,-228.5 871,-247.5 945,-247.5 945,-228.5 871,-228.5"/>
<text text-anchor="middle" x="908" y="-235.5" font-family="Helvetica,sans-Serif" font-size="10.00">v_loop_Reset</text>
</a>
</g>
</g>
<!-- Node13&#45;&gt;Node15 -->
<g id="edge19" class="edge">
<title>Node13&#45;&gt;Node15</title>
<path fill="none" stroke="midnightblue" d="M623.58,-224.18C636.6,-222.02 650.18,-220.13 663,-219 724.98,-213.51 741.03,-213.39 803,-219 822.04,-220.72 842.8,-224.19 860.73,-227.7"/>
<polygon fill="midnightblue" stroke="midnightblue" points="860.15,-231.15 870.64,-229.69 861.53,-224.29 860.15,-231.15"/>
</g>
<!-- Node16 -->
<g id="node16" class="node">
<title>Node16</title>
<g id="a_node16"><a xlink:href="a00460.html#ga3cdf7d86ab440015768706f04bd588e9" target="_top" xlink:title="Prototype of the Assembly routine &#39;_v_loop_Precharge&#39; loading user&#45;defined values into the NPNZ16b co...">
<polygon fill="white" stroke="black" points="686.5,-152.5 686.5,-171.5 779.5,-171.5 779.5,-152.5 686.5,-152.5"/>
<text text-anchor="middle" x="733" y="-159.5" font-family="Helvetica,sans-Serif" font-size="10.00">v_loop_Precharge</text>
</a>
</g>
</g>
<!-- Node13&#45;&gt;Node16 -->
<g id="edge18" class="edge">
<title>Node13&#45;&gt;Node16</title>
<path fill="none" stroke="midnightblue" d="M605.12,-222.95C612.61,-220.01 620.13,-216.68 627,-213 644.63,-203.55 645.35,-195.4 663,-186 670.89,-181.8 679.67,-178.09 688.24,-174.93"/>
<polygon fill="midnightblue" stroke="midnightblue" points="689.5,-178.2 697.78,-171.58 687.19,-171.59 689.5,-178.2"/>
</g>
<!-- Node17 -->
<g id="node17" class="node">
<title>Node17</title>
<g id="a_node17"><a xlink:href="a00460.html#gab8180f1cb973d694be5caffaec3ce940" target="_top" xlink:title="Prototype of the Assembly feedback control loop routine helping to call the v_loop controller from C&#45;...">
<polygon fill="white" stroke="black" points="693,-266.5 693,-285.5 773,-285.5 773,-266.5 693,-266.5"/>
<text text-anchor="middle" x="733" y="-273.5" font-family="Helvetica,sans-Serif" font-size="10.00">v_loop_Update</text>
</a>
</g>
</g>
<!-- Node13&#45;&gt;Node17 -->
<g id="edge20" class="edge">
<title>Node13&#45;&gt;Node17</title>
<path fill="none" stroke="midnightblue" d="M623.6,-252.53C643.36,-256.81 664.6,-261.41 682.99,-265.39"/>
<polygon fill="midnightblue" stroke="midnightblue" points="682.38,-268.84 692.9,-267.53 683.86,-262 682.38,-268.84"/>
</g>
<!-- Node14&#45;&gt;Node15 -->
<g id="edge17" class="edge">
<title>Node14&#45;&gt;Node15</title>
<path fill="none" stroke="midnightblue" d="M775.44,-238C801.12,-238 834.15,-238 860.69,-238"/>
<polygon fill="midnightblue" stroke="midnightblue" points="860.88,-241.5 870.88,-238 860.88,-234.5 860.88,-241.5"/>
</g>
<!-- Node20 -->
<g id="node20" class="node">
<title>Node20</title>
<g id="a_node20"><a xlink:href="a00425.html#gaf3c64772d6dfd473d6924fb8893bd180" target="_top" xlink:title="This function initializes all peripheral modules and their instances used by the power controller.">
<polygon fill="white" stroke="black" points="664.5,-76.5 664.5,-95.5 801.5,-95.5 801.5,-76.5 664.5,-76.5"/>
<text text-anchor="middle" x="733" y="-83.5" font-family="Helvetica,sans-Serif" font-size="10.00">drv_BuckConverter_Initialize</text>
</a>
</g>
</g>
<!-- Node19&#45;&gt;Node20 -->
<g id="edge23" class="edge">
<title>Node19&#45;&gt;Node20</title>
<path fill="none" stroke="midnightblue" d="M627.12,-86C636.05,-86 645.22,-86 654.25,-86"/>
<polygon fill="midnightblue" stroke="midnightblue" points="654.37,-89.5 664.37,-86 654.37,-82.5 654.37,-89.5"/>
</g>
<!-- Node32 -->
<g id="node32" class="node">
<title>Node32</title>
<g id="a_node32"><a xlink:href="a00353.html#gaa09c4349fd01cc9b6b01d435bd022b56" target="_top" xlink:title="Locks the Peripheral Pin Select Configuration registers against accidental changes.">
<polygon fill="white" stroke="black" points="696.5,-38.5 696.5,-57.5 769.5,-57.5 769.5,-38.5 696.5,-38.5"/>
<text text-anchor="middle" x="733" y="-45.5" font-family="Helvetica,sans-Serif" font-size="10.00">PPS_LockIO</text>
</a>
</g>
</g>
<!-- Node19&#45;&gt;Node32 -->
<g id="edge38" class="edge">
<title>Node19&#45;&gt;Node32</title>
<path fill="none" stroke="midnightblue" d="M625.86,-70.98C646.23,-66.57 667.99,-61.86 686.47,-57.86"/>
<polygon fill="midnightblue" stroke="midnightblue" points="687.33,-61.25 696.37,-55.72 685.85,-54.41 687.33,-61.25"/>
</g>
<!-- Node33 -->
<g id="node33" class="node">
<title>Node33</title>
<g id="a_node33"><a xlink:href="a00353.html#ga592e485a9574eeebc2e1dc6993de1f55" target="_top" xlink:title="Assigns a digital function output to a pin.">
<polygon fill="white" stroke="black" points="682,-0.5 682,-19.5 784,-19.5 784,-0.5 682,-0.5"/>
<text text-anchor="middle" x="733" y="-7.5" font-family="Helvetica,sans-Serif" font-size="10.00">PPS_RemapOutput</text>
</a>
</g>
</g>
<!-- Node19&#45;&gt;Node33 -->
<g id="edge39" class="edge">
<title>Node19&#45;&gt;Node33</title>
<path fill="none" stroke="midnightblue" d="M581.13,-70.78C602.24,-58.23 633.79,-40.67 663,-29 668.91,-26.64 675.21,-24.47 681.51,-22.49"/>
<polygon fill="midnightblue" stroke="midnightblue" points="682.78,-25.77 691.37,-19.57 680.78,-19.06 682.78,-25.77"/>
</g>
<!-- Node34 -->
<g id="node34" class="node">
<title>Node34</title>
<g id="a_node34"><a xlink:href="a00353.html#ga64624ae359fb9dd170bb9a3f85dd81f2" target="_top" xlink:title="Unlocks the Peripheral Pin Select Configuration registers to enable changes.">
<polygon fill="white" stroke="black" points="692,-114.5 692,-133.5 774,-133.5 774,-114.5 692,-114.5"/>
<text text-anchor="middle" x="733" y="-121.5" font-family="Helvetica,sans-Serif" font-size="10.00">PPS_UnlockIO</text>
</a>
</g>
</g>
<!-- Node19&#45;&gt;Node34 -->
<g id="edge40" class="edge">
<title>Node19&#45;&gt;Node34</title>
<path fill="none" stroke="midnightblue" d="M625.86,-101.02C644.6,-105.08 664.52,-109.39 681.97,-113.17"/>
<polygon fill="midnightblue" stroke="midnightblue" points="681.42,-116.63 691.94,-115.33 682.9,-109.79 681.42,-116.63"/>
</g>
<!-- Node21 -->
<g id="node21" class="node">
<title>Node21</title>
<g id="a_node21"><a xlink:href="a00448.html#gac2bfd6c3ccd9ec11b8e91322ea9354d2" target="_top" xlink:title="This function initializes the settings for the ADC channel.">
<polygon fill="white" stroke="black" points="841,-114.5 841,-133.5 975,-133.5 975,-114.5 841,-114.5"/>
<text text-anchor="middle" x="908" y="-121.5" font-family="Helvetica,sans-Serif" font-size="10.00">buckADC_ChannelInitialize</text>
</a>
</g>
</g>
<!-- Node20&#45;&gt;Node21 -->
<g id="edge24" class="edge">
<title>Node20&#45;&gt;Node21</title>
<path fill="none" stroke="midnightblue" d="M777.66,-95.59C800.79,-100.67 829.4,-106.96 853.83,-112.32"/>
<polygon fill="midnightblue" stroke="midnightblue" points="853.14,-115.75 863.66,-114.48 854.64,-108.92 853.14,-115.75"/>
</g>
<!-- Node22 -->
<g id="node22" class="node">
<title>Node22</title>
<g id="a_node22"><a xlink:href="a00448.html#ga44f537d9ad5dcb0e744480802cfbf170" target="_top" xlink:title="This fucntion initializes the buck by resetting all its registers to default.">
<polygon fill="white" stroke="black" points="843,-76.5 843,-95.5 973,-95.5 973,-76.5 843,-76.5"/>
<text text-anchor="middle" x="908" y="-83.5" font-family="Helvetica,sans-Serif" font-size="10.00">buckADC_ModuleInitialize</text>
</a>
</g>
</g>
<!-- Node20&#45;&gt;Node22 -->
<g id="edge25" class="edge">
<title>Node20&#45;&gt;Node22</title>
<path fill="none" stroke="midnightblue" d="M801.88,-86C812.03,-86 822.54,-86 832.82,-86"/>
<polygon fill="midnightblue" stroke="midnightblue" points="832.99,-89.5 842.99,-86 832.99,-82.5 832.99,-89.5"/>
</g>
<!-- Node23 -->
<g id="node23" class="node">
<title>Node23</title>
<g id="a_node23"><a xlink:href="a00448.html#gac7e5924475733c189b2318844ae01844" target="_top" xlink:title="This function initializes the buck input pins.">
<polygon fill="white" stroke="black" points="857,-38.5 857,-57.5 959,-57.5 959,-38.5 857,-38.5"/>
<text text-anchor="middle" x="908" y="-45.5" font-family="Helvetica,sans-Serif" font-size="10.00">buckGPIO_Initialize</text>
</a>
</g>
</g>
<!-- Node20&#45;&gt;Node23 -->
<g id="edge26" class="edge">
<title>Node20&#45;&gt;Node23</title>
<path fill="none" stroke="midnightblue" d="M777.66,-76.41C800.79,-71.33 829.4,-65.04 853.83,-59.68"/>
<polygon fill="midnightblue" stroke="midnightblue" points="854.64,-63.08 863.66,-57.52 853.14,-56.25 854.64,-63.08"/>
</g>
<!-- Node26 -->
<g id="node26" class="node">
<title>Node26</title>
<g id="a_node26"><a xlink:href="a00448.html#ga45a54def97cc67eb8d36e22a3867d95f" target="_top" xlink:title="This function initializes the output pins for the PWM output and the default buck PWM settings.">
<polygon fill="white" stroke="black" points="839,-190.5 839,-209.5 977,-209.5 977,-190.5 839,-190.5"/>
<text text-anchor="middle" x="908" y="-197.5" font-family="Helvetica,sans-Serif" font-size="10.00">buckPWM_ChannelInitialize</text>
</a>
</g>
</g>
<!-- Node20&#45;&gt;Node26 -->
<g id="edge31" class="edge">
<title>Node20&#45;&gt;Node26</title>
<path fill="none" stroke="midnightblue" d="M787.59,-95.65C793.15,-98.1 798.43,-101.16 803,-105 831.62,-129.04 810.42,-156.91 839,-181 841.01,-182.69 843.16,-184.24 845.41,-185.64"/>
<polygon fill="midnightblue" stroke="midnightblue" points="844.04,-188.88 854.53,-190.42 847.29,-182.68 844.04,-188.88"/>
</g>
<!-- Node29 -->
<g id="node29" class="node">
<title>Node29</title>
<g id="a_node29"><a xlink:href="a00448.html#ga6d12fd9e2f1d4f01ec6db21454693863" target="_top" xlink:title="Initializes the buck PWM module by resetting its registers to default.">
<polygon fill="white" stroke="black" points="841,-152.5 841,-171.5 975,-171.5 975,-152.5 841,-152.5"/>
<text text-anchor="middle" x="908" y="-159.5" font-family="Helvetica,sans-Serif" font-size="10.00">buckPWM_ModuleInitialize</text>
</a>
</g>
</g>
<!-- Node20&#45;&gt;Node29 -->
<g id="edge35" class="edge">
<title>Node20&#45;&gt;Node29</title>
<path fill="none" stroke="midnightblue" d="M782.17,-95.61C789.42,-98.08 796.61,-101.16 803,-105 822.95,-116.97 819.08,-130.99 839,-143 842.6,-145.17 846.46,-147.1 850.44,-148.82"/>
<polygon fill="midnightblue" stroke="midnightblue" points="849.3,-152.13 859.89,-152.44 851.81,-145.59 849.3,-152.13"/>
</g>
<!-- Node24 -->
<g id="node24" class="node">
<title>Node24</title>
<g id="a_node24"><a xlink:href="a00448.html#ga7f1d554e08d756b8677b572216908a3a" target="_top" xlink:title="This function clears the selected general purpose input/output pin.">
<polygon fill="white" stroke="black" points="1047.5,-38.5 1047.5,-57.5 1136.5,-57.5 1136.5,-38.5 1047.5,-38.5"/>
<text text-anchor="middle" x="1092" y="-45.5" font-family="Helvetica,sans-Serif" font-size="10.00">buckGPIO_Clear</text>
</a>
</g>
</g>
<!-- Node23&#45;&gt;Node24 -->
<g id="edge27" class="edge">
<title>Node23&#45;&gt;Node24</title>
<path fill="none" stroke="midnightblue" d="M959.21,-48C983.43,-48 1012.5,-48 1037.17,-48"/>
<polygon fill="midnightblue" stroke="midnightblue" points="1037.44,-51.5 1047.44,-48 1037.44,-44.5 1037.44,-51.5"/>
</g>
<!-- Node25 -->
<g id="node25" class="node">
<title>Node25</title>
<g id="a_node25"><a xlink:href="a00448.html#ga3d3f91c0e40884874e7df3a67fff23f3" target="_top" xlink:title="This function sets the pin as input or output.">
<polygon fill="white" stroke="black" points="1026.5,-76.5 1026.5,-95.5 1157.5,-95.5 1157.5,-76.5 1026.5,-76.5"/>
<text text-anchor="middle" x="1092" y="-83.5" font-family="Helvetica,sans-Serif" font-size="10.00">buckGPIO_PrivateInitialize</text>
</a>
</g>
</g>
<!-- Node23&#45;&gt;Node25 -->
<g id="edge29" class="edge">
<title>Node23&#45;&gt;Node25</title>
<path fill="none" stroke="midnightblue" d="M954.93,-57.59C979.38,-62.69 1009.63,-69.01 1035.4,-74.39"/>
<polygon fill="midnightblue" stroke="midnightblue" points="1034.9,-77.86 1045.4,-76.48 1036.33,-71.01 1034.9,-77.86"/>
</g>
<!-- Node24&#45;&gt;Node8 -->
<g id="edge28" class="edge">
<title>Node24&#45;&gt;Node8</title>
<path fill="none" stroke="midnightblue" d="M1136.84,-55.73C1148.24,-58.53 1160.31,-62.22 1171,-67 1205.93,-82.63 1241.56,-109.52 1262.59,-126.76"/>
<polygon fill="midnightblue" stroke="midnightblue" points="1260.49,-129.57 1270.41,-133.29 1264.97,-124.19 1260.49,-129.57"/>
</g>
<!-- Node25&#45;&gt;Node8 -->
<g id="edge30" class="edge">
<title>Node25&#45;&gt;Node8</title>
<path fill="none" stroke="midnightblue" d="M1135.29,-95.55C1146.92,-98.38 1159.5,-101.63 1171,-105 1196.49,-112.47 1224.82,-122.24 1246.41,-130"/>
<polygon fill="midnightblue" stroke="midnightblue" points="1245.22,-133.3 1255.82,-133.41 1247.61,-126.72 1245.22,-133.3"/>
</g>
<!-- Node26&#45;&gt;Node8 -->
<g id="edge32" class="edge">
<title>Node26&#45;&gt;Node8</title>
<path fill="none" stroke="midnightblue" d="M977.24,-199.86C1030.5,-198.6 1106.1,-194.28 1171,-181 1198.23,-175.43 1227.97,-164.94 1249.73,-156.39"/>
<polygon fill="midnightblue" stroke="midnightblue" points="1251.14,-159.59 1259.12,-152.62 1248.54,-153.09 1251.14,-159.59"/>
</g>
<!-- Node27 -->
<g id="node27" class="node">
<title>Node27</title>
<g id="a_node27"><a xlink:href="a00354.html#gab66f225bac6b132d1418a4c808e3babb" target="_top" xlink:title="Disposes a given PWM generator by resetting all its registers to default.">
<polygon fill="white" stroke="black" points="1022,-229 1022,-259 1162,-259 1162,-229 1022,-229"/>
<text text-anchor="start" x="1030" y="-247" font-family="Helvetica,sans-Serif" font-size="10.00">p33c_PwmGenerator_Config</text>
<text text-anchor="middle" x="1092" y="-236" font-family="Helvetica,sans-Serif" font-size="10.00">Write</text>
</a>
</g>
</g>
<!-- Node26&#45;&gt;Node27 -->
<g id="edge33" class="edge">
<title>Node26&#45;&gt;Node27</title>
<path fill="none" stroke="midnightblue" d="M948.49,-209.55C969.07,-214.52 994.9,-220.77 1018.89,-226.57"/>
<polygon fill="midnightblue" stroke="midnightblue" points="1018.14,-229.99 1028.68,-228.93 1019.79,-223.18 1018.14,-229.99"/>
</g>
<!-- Node28 -->
<g id="node28" class="node">
<title>Node28</title>
<g id="a_node28"><a xlink:href="a00354.html#ga55e525c7ac54a365ab6dad558ec17f0b" target="_top" xlink:title="Returns the PWM generator index.">
<polygon fill="white" stroke="black" points="1013,-291.5 1013,-310.5 1171,-310.5 1171,-291.5 1013,-291.5"/>
<text text-anchor="middle" x="1092" y="-298.5" font-family="Helvetica,sans-Serif" font-size="10.00">p33c_PwmGenerator_GetHandle</text>
</a>
</g>
</g>
<!-- Node26&#45;&gt;Node28 -->
<g id="edge34" class="edge">
<title>Node26&#45;&gt;Node28</title>
<path fill="none" stroke="midnightblue" d="M958.71,-209.61C965.18,-212.06 971.47,-215.14 977,-219 999.45,-234.68 991.5,-252.04 1013,-269 1022.87,-276.79 1034.91,-282.96 1046.54,-287.71"/>
<polygon fill="midnightblue" stroke="midnightblue" points="1045.57,-291.09 1056.16,-291.38 1048.06,-284.55 1045.57,-291.09"/>
</g>
<!-- Node30 -->
<g id="node30" class="node">
<title>Node30</title>
<g id="a_node30"><a xlink:href="a00354.html#ga8075fd40f867be8f42bb806622bd91bd" target="_top" xlink:title="Writes a user&#45;defined configuration to the PWM base module registers.">
<polygon fill="white" stroke="black" points="1016,-152.5 1016,-171.5 1168,-171.5 1168,-152.5 1016,-152.5"/>
<text text-anchor="middle" x="1092" y="-159.5" font-family="Helvetica,sans-Serif" font-size="10.00">p33c_PwmModule_ConfigWrite</text>
</a>
</g>
</g>
<!-- Node29&#45;&gt;Node30 -->
<g id="edge36" class="edge">
<title>Node29&#45;&gt;Node30</title>
<path fill="none" stroke="midnightblue" d="M975.22,-162C985.13,-162 995.46,-162 1005.7,-162"/>
<polygon fill="midnightblue" stroke="midnightblue" points="1005.89,-165.5 1015.89,-162 1005.89,-158.5 1005.89,-165.5"/>
</g>
<!-- Node31 -->
<g id="node31" class="node">
<title>Node31</title>
<g id="a_node31"><a xlink:href="a00354.html#ga3ed5f08051a70f5cb426b8254119845f" target="_top" xlink:title="Gets pointer to PWM module SFR set.">
<polygon fill="white" stroke="black" points="1018.5,-114.5 1018.5,-133.5 1165.5,-133.5 1165.5,-114.5 1018.5,-114.5"/>
<text text-anchor="middle" x="1092" y="-121.5" font-family="Helvetica,sans-Serif" font-size="10.00">p33c_PwmModule_GetHandle</text>
</a>
</g>
</g>
<!-- Node29&#45;&gt;Node31 -->
<g id="edge37" class="edge">
<title>Node29&#45;&gt;Node31</title>
<path fill="none" stroke="midnightblue" d="M954.93,-152.41C979.38,-147.31 1009.63,-140.99 1035.4,-135.61"/>
<polygon fill="midnightblue" stroke="midnightblue" points="1036.33,-138.99 1045.4,-133.52 1034.9,-132.14 1036.33,-138.99"/>
</g>
<!-- Node36 -->
<g id="node36" class="node">
<title>Node36</title>
<g id="a_node36"><a xlink:href="a00425.html#ga86289c82938655142075e84ac90aa603" target="_top" xlink:title="This function starts the buck converter.">
<polygon fill="white" stroke="black" points="671.5,-304.5 671.5,-323.5 794.5,-323.5 794.5,-304.5 671.5,-304.5"/>
<text text-anchor="middle" x="733" y="-311.5" font-family="Helvetica,sans-Serif" font-size="10.00">drv_BuckConverter_Start</text>
</a>
</g>
</g>
<!-- Node35&#45;&gt;Node36 -->
<g id="edge42" class="edge">
<title>Node35&#45;&gt;Node36</title>
<path fill="none" stroke="midnightblue" d="M613.97,-303.24C629.05,-304.61 645.5,-306.11 661.2,-307.55"/>
<polygon fill="midnightblue" stroke="midnightblue" points="661.11,-311.05 671.39,-308.47 661.75,-304.08 661.11,-311.05"/>
</g>
<!-- Node37 -->
<g id="node37" class="node">
<title>Node37</title>
<g id="a_node37"><a xlink:href="a00448.html#gab089e35bcd5d68072aa53298ee276959" target="_top" xlink:title="This function enables the ADC module and starts the ADC cores analog inputs for the required input si...">
<polygon fill="white" stroke="black" points="866,-266.5 866,-285.5 950,-285.5 950,-266.5 866,-266.5"/>
<text text-anchor="middle" x="908" y="-273.5" font-family="Helvetica,sans-Serif" font-size="10.00">buckADC_Start</text>
</a>
</g>
</g>
<!-- Node36&#45;&gt;Node37 -->
<g id="edge43" class="edge">
<title>Node36&#45;&gt;Node37</title>
<path fill="none" stroke="midnightblue" d="M777.66,-304.41C801.41,-299.19 830.93,-292.71 855.77,-287.25"/>
<polygon fill="midnightblue" stroke="midnightblue" points="856.72,-290.63 865.74,-285.06 855.22,-283.79 856.72,-290.63"/>
</g>
<!-- Node38 -->
<g id="node38" class="node">
<title>Node38</title>
<g id="a_node38"><a xlink:href="a00448.html#gac63073d04bc35c0cce5df47ea0d33165" target="_top" xlink:title="This function enables the buck PWM operation.">
<polygon fill="white" stroke="black" points="863.5,-304.5 863.5,-323.5 952.5,-323.5 952.5,-304.5 863.5,-304.5"/>
<text text-anchor="middle" x="908" y="-311.5" font-family="Helvetica,sans-Serif" font-size="10.00">buckPWM_Start</text>
</a>
</g>
</g>
<!-- Node36&#45;&gt;Node38 -->
<g id="edge44" class="edge">
<title>Node36&#45;&gt;Node38</title>
<path fill="none" stroke="midnightblue" d="M794.51,-314C813.66,-314 834.69,-314 853.33,-314"/>
<polygon fill="midnightblue" stroke="midnightblue" points="853.42,-317.5 863.42,-314 853.42,-310.5 853.42,-317.5"/>
</g>
<!-- Node38&#45;&gt;Node28 -->
<g id="edge45" class="edge">
<title>Node38&#45;&gt;Node28</title>
<path fill="none" stroke="midnightblue" d="M952.59,-310.89C967.71,-309.81 985.26,-308.55 1002.67,-307.31"/>
<polygon fill="midnightblue" stroke="midnightblue" points="1003.16,-310.78 1012.89,-306.58 1002.66,-303.8 1003.16,-310.78"/>
</g>
</g>
</svg>
        <g id="navigator" transform="translate(0 0)" fill="#404254">
                <rect fill="#f2f5e9" fill-opacity="0.5" stroke="#606060" stroke-width=".5" x="0" y="0" width="60" height="60"/>
                <use id="zoomplus" xlink:href="#zoomPlus" x="17" y="9" onmousedown="handleZoom(evt,'in')"/>
                <use id="zoomminus" xlink:href="#zoomMin" x="42" y="9" onmousedown="handleZoom(evt,'out')"/>
                <use id="reset" xlink:href="#resetDef" x="30" y="36" onmousedown="handleReset()"/>
                <g id="arrowUp" xlink:href="#dirArrow" transform="translate(30 24)" onmousedown="handlePan(0,-1)">
                  <use xlink:href="#rim" fill="#404040">
                        <set attributeName="fill" to="#808080" begin="arrowUp.mouseover" end="arrowUp.mouseout"/>
                  </use>
                  <path fill="none" stroke="white" stroke-width="1.5" d="M0,-3.0v7 M-2.5,-0.5L0,-3.0L2.5,-0.5"/>
                </g>
                <g id="arrowRight" xlink:href="#dirArrow" transform="rotate(90) translate(36 -43)" onmousedown="handlePan(1,0)">
                  <use xlink:href="#rim" fill="#404040">
                        <set attributeName="fill" to="#808080" begin="arrowRight.mouseover" end="arrowRight.mouseout"/>
                  </use>
                  <path fill="none" stroke="white" stroke-width="1.5" d="M0,-3.0v7 M-2.5,-0.5L0,-3.0L2.5,-0.5"/>
                </g>
                <g id="arrowDown" xlink:href="#dirArrow" transform="rotate(180) translate(-30 -48)" onmousedown="handlePan(0,1)">
                  <use xlink:href="#rim" fill="#404040">
                        <set attributeName="fill" to="#808080" begin="arrowDown.mouseover" end="arrowDown.mouseout"/>
                  </use>
                  <path fill="none" stroke="white" stroke-width="1.5" d="M0,-3.0v7 M-2.5,-0.5L0,-3.0L2.5,-0.5"/>
                </g>
                <g id="arrowLeft" xlink:href="#dirArrow" transform="rotate(270) translate(-36 17)" onmousedown="handlePan(-1,0)">
                  <use xlink:href="#rim" fill="#404040">
                        <set attributeName="fill" to="#808080" begin="arrowLeft.mouseover" end="arrowLeft.mouseout"/>
                  </use>
                  <path fill="none" stroke="white" stroke-width="1.5" d="M0,-3.0v7 M-2.5,-0.5L0,-3.0L2.5,-0.5"/>
                </g>
        </g>
        <svg viewBox="0 0 15 15" width="100%" height="30px" preserveAspectRatio="xMaxYMin meet">
         <g id="arrow_out" transform="scale(0.3 0.3)">
          <a xlink:href="a00483_ga2be64f5f0b9a2c0c6713f5a69d793e05_cgraph_org.svg" target="_base">
           <rect id="button" ry="5" rx="5" y="6" x="6" height="38" width="38"
                fill="#f2f5e9" fill-opacity="0.5" stroke="#606060" stroke-width="1.0"/>
           <path id="arrow"
             d="M 11.500037,31.436501 C 11.940474,20.09759 22.043105,11.32322 32.158766,21.979434 L 37.068811,17.246167 C 37.068811,17.246167 37.088388,32 37.088388,32 L 22.160133,31.978069 C 22.160133,31.978069 26.997745,27.140456 26.997745,27.140456 C 18.528582,18.264221 13.291696,25.230495 11.500037,31.436501 z"
             style="fill:#404040;"/>
          </a>
         </g>
        </svg>
</svg>
