<?xml version="1.0" encoding="UTF-8" standalone="no"?>
<!DOCTYPE svg PUBLIC "-//W3C//DTD SVG 1.1//EN"
 "http://www.w3.org/Graphics/SVG/1.1/DTD/svg11.dtd">
<!-- Generated by graphviz version 2.44.1 (20200629.0846)
 -->
<!-- Title: appPowerSupply_ControllerInitialize Pages: 1 -->
<svg width="383pt" height="142pt"
 viewBox="0.00 0.00 383.00 142.00" xmlns="http://www.w3.org/2000/svg" xmlns:xlink="http://www.w3.org/1999/xlink">
<g id="graph0" class="graph" transform="scale(1 1) rotate(0) translate(4 138)">
<title>appPowerSupply_ControllerInitialize</title>
<polygon fill="white" stroke="transparent" points="-4,4 -4,-138 379,-138 379,4 -4,4"/>
<!-- Node1 -->
<g id="node1" class="node">
<title>Node1</title>
<g id="a_node1"><a xlink:title="This function initializes the control system feedback loop objects.">
<polygon fill="#bfbfbf" stroke="black" points="0,-52 0,-82 136,-82 136,-52 0,-52"/>
<text text-anchor="start" x="8" y="-70" font-family="Helvetica,sans-Serif" font-size="10.00">appPowerSupply_Controller</text>
<text text-anchor="middle" x="68" y="-59" font-family="Helvetica,sans-Serif" font-size="10.00">Initialize</text>
</a>
</g>
</g>
<!-- Node2 -->
<g id="node2" class="node">
<title>Node2</title>
<g id="a_node2"><a xlink:href="a00460.html#ga62d45a18f3dd47fa691fbb463f90e051" target="_top" xlink:title="Initializes controller coefficient arrays and normalization factors.">
<polygon fill="white" stroke="black" points="176.5,-114.5 176.5,-133.5 260.5,-133.5 260.5,-114.5 176.5,-114.5"/>
<text text-anchor="middle" x="218.5" y="-121.5" font-family="Helvetica,sans-Serif" font-size="10.00">v_loop_Initialize</text>
</a>
</g>
</g>
<!-- Node1&#45;&gt;Node2 -->
<g id="edge1" class="edge">
<title>Node1&#45;&gt;Node2</title>
<path fill="none" stroke="midnightblue" d="M108.41,-82.13C131.61,-91.03 160.68,-102.19 182.98,-110.75"/>
<polygon fill="midnightblue" stroke="midnightblue" points="181.8,-114.05 192.39,-114.36 184.31,-107.51 181.8,-114.05"/>
</g>
<!-- Node3 -->
<g id="node3" class="node">
<title>Node3</title>
<g id="a_node3"><a xlink:href="a00460.html#gabb35e824b8586b680f54d59975ada3c7" target="_top" xlink:title="Prototype of the Assembly routine &#39;_v_loop_Reset&#39; clearing the NPNZ16b controller output and error hi...">
<polygon fill="white" stroke="black" points="301,-95.5 301,-114.5 375,-114.5 375,-95.5 301,-95.5"/>
<text text-anchor="middle" x="338" y="-102.5" font-family="Helvetica,sans-Serif" font-size="10.00">v_loop_Reset</text>
</a>
</g>
</g>
<!-- Node1&#45;&gt;Node3 -->
<g id="edge4" class="edge">
<title>Node1&#45;&gt;Node3</title>
<path fill="none" stroke="midnightblue" d="M136.28,-76.54C184.55,-83.38 248.34,-92.43 290.92,-98.47"/>
<polygon fill="midnightblue" stroke="midnightblue" points="290.6,-101.96 301,-99.89 291.59,-95.03 290.6,-101.96"/>
</g>
<!-- Node4 -->
<g id="node4" class="node">
<title>Node4</title>
<g id="a_node4"><a xlink:href="a00460.html#ga3cdf7d86ab440015768706f04bd588e9" target="_top" xlink:title="Prototype of the Assembly routine &#39;_v_loop_Precharge&#39; loading user&#45;defined values into the NPNZ16b co...">
<polygon fill="white" stroke="black" points="172,-38.5 172,-57.5 265,-57.5 265,-38.5 172,-38.5"/>
<text text-anchor="middle" x="218.5" y="-45.5" font-family="Helvetica,sans-Serif" font-size="10.00">v_loop_Precharge</text>
</a>
</g>
</g>
<!-- Node1&#45;&gt;Node4 -->
<g id="edge3" class="edge">
<title>Node1&#45;&gt;Node4</title>
<path fill="none" stroke="midnightblue" d="M136.3,-58.39C144.81,-57.3 153.44,-56.2 161.75,-55.13"/>
<polygon fill="midnightblue" stroke="midnightblue" points="162.21,-58.6 171.68,-53.86 161.32,-51.66 162.21,-58.6"/>
</g>
<!-- Node5 -->
<g id="node5" class="node">
<title>Node5</title>
<g id="a_node5"><a xlink:href="a00460.html#gab8180f1cb973d694be5caffaec3ce940" target="_top" xlink:title="Prototype of the Assembly feedback control loop routine helping to call the v_loop controller from C&#45;...">
<polygon fill="white" stroke="black" points="178.5,-0.5 178.5,-19.5 258.5,-19.5 258.5,-0.5 178.5,-0.5"/>
<text text-anchor="middle" x="218.5" y="-7.5" font-family="Helvetica,sans-Serif" font-size="10.00">v_loop_Update</text>
</a>
</g>
</g>
<!-- Node1&#45;&gt;Node5 -->
<g id="edge5" class="edge">
<title>Node1&#45;&gt;Node5</title>
<path fill="none" stroke="midnightblue" d="M108.41,-51.87C131.61,-42.97 160.68,-31.81 182.98,-23.25"/>
<polygon fill="midnightblue" stroke="midnightblue" points="184.31,-26.49 192.39,-19.64 181.8,-19.95 184.31,-26.49"/>
</g>
<!-- Node2&#45;&gt;Node3 -->
<g id="edge2" class="edge">
<title>Node2&#45;&gt;Node3</title>
<path fill="none" stroke="midnightblue" d="M260.6,-117.35C270.32,-115.78 280.76,-114.09 290.7,-112.49"/>
<polygon fill="midnightblue" stroke="midnightblue" points="291.51,-115.9 300.82,-110.85 290.39,-108.99 291.51,-115.9"/>
</g>
</g>
</svg>
