<?xml version="1.0" encoding="UTF-8" standalone="no"?>
<!DOCTYPE svg PUBLIC "-//W3C//DTD SVG 1.1//EN"
 "http://www.w3.org/Graphics/SVG/1.1/DTD/svg11.dtd">
<!-- Generated by graphviz version 2.44.1 (20200629.0846)
 -->
<!-- Title: appPowerSupply_Initialize Pages: 1 -->
<svg width="1045pt" height="422pt"
 viewBox="0.00 0.00 1045.00 422.00" xmlns="http://www.w3.org/2000/svg" xmlns:xlink="http://www.w3.org/1999/xlink">
<g id="graph0" class="graph" transform="scale(1 1) rotate(0) translate(4 418)">
<title>appPowerSupply_Initialize</title>
<polygon fill="white" stroke="transparent" points="-4,4 -4,-418 1041,-418 1041,4 -4,4"/>
<!-- Node1 -->
<g id="node1" class="node">
<title>Node1</title>
<g id="a_node1"><a xlink:title="Calls the application layer power controller initialization.">
<polygon fill="#bfbfbf" stroke="black" points="0,-251.5 0,-270.5 130,-270.5 130,-251.5 0,-251.5"/>
<text text-anchor="middle" x="65" y="-258.5" font-family="Helvetica,sans-Serif" font-size="10.00">appPowerSupply_Initialize</text>
</a>
</g>
</g>
<!-- Node2 -->
<g id="node2" class="node">
<title>Node2</title>
<g id="a_node2"><a xlink:href="a00421.html#ga0b4cabdb02c8c9ea94ea1dfa39de3764" target="_top" xlink:title="This function initializes the control system feedback loop objects.">
<polygon fill="white" stroke="black" points="169.5,-317 169.5,-347 305.5,-347 305.5,-317 169.5,-317"/>
<text text-anchor="start" x="177.5" y="-335" font-family="Helvetica,sans-Serif" font-size="10.00">appPowerSupply_Controller</text>
<text text-anchor="middle" x="237.5" y="-324" font-family="Helvetica,sans-Serif" font-size="10.00">Initialize</text>
</a>
</g>
</g>
<!-- Node1&#45;&gt;Node2 -->
<g id="edge1" class="edge">
<title>Node1&#45;&gt;Node2</title>
<path fill="none" stroke="midnightblue" d="M84.89,-270.65C104.79,-280.63 137.18,-296.37 166,-308 170.68,-309.89 175.56,-311.76 180.49,-313.57"/>
<polygon fill="midnightblue" stroke="midnightblue" points="179.37,-316.89 189.96,-316.98 181.74,-310.3 179.37,-316.89"/>
</g>
<!-- Node7 -->
<g id="node7" class="node">
<title>Node7</title>
<g id="a_node7"><a xlink:href="a00421.html#gad0f6ff4894bf23722884c60bbcdcacd0" target="_top" xlink:title="This function initializes the buck converter device driver instance.">
<polygon fill="white" stroke="black" points="170,-268 170,-298 305,-298 305,-268 170,-268"/>
<text text-anchor="start" x="178" y="-286" font-family="Helvetica,sans-Serif" font-size="10.00">appPowerSupply_Converter</text>
<text text-anchor="middle" x="237.5" y="-275" font-family="Helvetica,sans-Serif" font-size="10.00">ObjectInitialize</text>
</a>
</g>
</g>
<!-- Node1&#45;&gt;Node7 -->
<g id="edge7" class="edge">
<title>Node1&#45;&gt;Node7</title>
<path fill="none" stroke="midnightblue" d="M130.46,-269.32C140.05,-270.55 150.01,-271.84 159.82,-273.11"/>
<polygon fill="midnightblue" stroke="midnightblue" points="159.6,-276.61 169.96,-274.41 160.49,-269.66 159.6,-276.61"/>
</g>
<!-- Node8 -->
<g id="node8" class="node">
<title>Node8</title>
<g id="a_node8"><a xlink:href="a00421.html#ga0b26acfec74d1804384b4ba1a3cffab4" target="_top" xlink:title="This function is used to load peripheral configuration templates from the power controller device dri...">
<polygon fill="white" stroke="black" points="166,-128 166,-158 309,-158 309,-128 166,-128"/>
<text text-anchor="start" x="174" y="-146" font-family="Helvetica,sans-Serif" font-size="10.00">appPowerSupply_Peripherals</text>
<text text-anchor="middle" x="237.5" y="-135" font-family="Helvetica,sans-Serif" font-size="10.00">Initialize</text>
</a>
</g>
</g>
<!-- Node1&#45;&gt;Node8 -->
<g id="edge8" class="edge">
<title>Node1&#45;&gt;Node8</title>
<path fill="none" stroke="midnightblue" d="M79.95,-251.34C107.42,-232.34 169.04,-189.68 206.26,-163.93"/>
<polygon fill="midnightblue" stroke="midnightblue" points="208.48,-166.65 214.71,-158.08 204.5,-160.89 208.48,-166.65"/>
</g>
<!-- Node25 -->
<g id="node25" class="node">
<title>Node25</title>
<g id="a_node25"><a xlink:href="a00418.html#ga9210070749c2ed49abd8a30b27f64151" target="_top" xlink:title="This function calls the buck converter device driver function starting the power supply.">
<polygon fill="white" stroke="black" points="179.5,-229.5 179.5,-248.5 295.5,-248.5 295.5,-229.5 179.5,-229.5"/>
<text text-anchor="middle" x="237.5" y="-236.5" font-family="Helvetica,sans-Serif" font-size="10.00">appPowerSupply_Start</text>
</a>
</g>
</g>
<!-- Node1&#45;&gt;Node25 -->
<g id="edge27" class="edge">
<title>Node1&#45;&gt;Node25</title>
<path fill="none" stroke="midnightblue" d="M130.46,-252.68C143.11,-251.05 156.41,-249.33 169.15,-247.69"/>
<polygon fill="midnightblue" stroke="midnightblue" points="169.76,-251.14 179.23,-246.39 168.86,-244.2 169.76,-251.14"/>
</g>
<!-- Node3 -->
<g id="node3" class="node">
<title>Node3</title>
<g id="a_node3"><a xlink:href="a00460.html#ga62d45a18f3dd47fa691fbb463f90e051" target="_top" xlink:title="Initializes controller coefficient arrays and normalization factors.">
<polygon fill="white" stroke="black" points="371.5,-318.5 371.5,-337.5 455.5,-337.5 455.5,-318.5 371.5,-318.5"/>
<text text-anchor="middle" x="413.5" y="-325.5" font-family="Helvetica,sans-Serif" font-size="10.00">v_loop_Initialize</text>
</a>
</g>
</g>
<!-- Node2&#45;&gt;Node3 -->
<g id="edge2" class="edge">
<title>Node2&#45;&gt;Node3</title>
<path fill="none" stroke="midnightblue" d="M305.77,-330.45C324.07,-330.03 343.59,-329.58 360.87,-329.19"/>
<polygon fill="midnightblue" stroke="midnightblue" points="361.39,-332.68 371.31,-328.95 361.23,-325.68 361.39,-332.68"/>
</g>
<!-- Node4 -->
<g id="node4" class="node">
<title>Node4</title>
<g id="a_node4"><a xlink:href="a00460.html#gabb35e824b8586b680f54d59975ada3c7" target="_top" xlink:title="Prototype of the Assembly routine &#39;_v_loop_Reset&#39; clearing the NPNZ16b controller output and error hi...">
<polygon fill="white" stroke="black" points="550,-314.5 550,-333.5 624,-333.5 624,-314.5 550,-314.5"/>
<text text-anchor="middle" x="587" y="-321.5" font-family="Helvetica,sans-Serif" font-size="10.00">v_loop_Reset</text>
</a>
</g>
</g>
<!-- Node2&#45;&gt;Node4 -->
<g id="edge5" class="edge">
<title>Node2&#45;&gt;Node4</title>
<path fill="none" stroke="midnightblue" d="M297.29,-316.97C312.71,-313.67 329.39,-310.67 345,-309 405.54,-302.54 421.27,-304.64 482,-309 500.95,-310.36 521.69,-313.1 539.63,-315.86"/>
<polygon fill="midnightblue" stroke="midnightblue" points="539.13,-319.33 549.56,-317.44 540.23,-312.41 539.13,-319.33"/>
</g>
<!-- Node5 -->
<g id="node5" class="node">
<title>Node5</title>
<g id="a_node5"><a xlink:href="a00460.html#ga3cdf7d86ab440015768706f04bd588e9" target="_top" xlink:title="Prototype of the Assembly routine &#39;_v_loop_Precharge&#39; loading user&#45;defined values into the NPNZ16b co...">
<polygon fill="white" stroke="black" points="367,-394.5 367,-413.5 460,-413.5 460,-394.5 367,-394.5"/>
<text text-anchor="middle" x="413.5" y="-401.5" font-family="Helvetica,sans-Serif" font-size="10.00">v_loop_Precharge</text>
</a>
</g>
</g>
<!-- Node2&#45;&gt;Node5 -->
<g id="edge4" class="edge">
<title>Node2&#45;&gt;Node5</title>
<path fill="none" stroke="midnightblue" d="M265.45,-347.17C286.6,-358.65 317.06,-374.22 345,-385 351.04,-387.33 357.48,-389.51 363.89,-391.5"/>
<polygon fill="midnightblue" stroke="midnightblue" points="363.31,-394.98 373.89,-394.48 365.31,-388.27 363.31,-394.98"/>
</g>
<!-- Node6 -->
<g id="node6" class="node">
<title>Node6</title>
<g id="a_node6"><a xlink:href="a00460.html#gab8180f1cb973d694be5caffaec3ce940" target="_top" xlink:title="Prototype of the Assembly feedback control loop routine helping to call the v_loop controller from C&#45;...">
<polygon fill="white" stroke="black" points="373.5,-356.5 373.5,-375.5 453.5,-375.5 453.5,-356.5 373.5,-356.5"/>
<text text-anchor="middle" x="413.5" y="-363.5" font-family="Helvetica,sans-Serif" font-size="10.00">v_loop_Update</text>
</a>
</g>
</g>
<!-- Node2&#45;&gt;Node6 -->
<g id="edge6" class="edge">
<title>Node2&#45;&gt;Node6</title>
<path fill="none" stroke="midnightblue" d="M305.77,-345.15C324.97,-348.9 345.52,-352.91 363.41,-356.41"/>
<polygon fill="midnightblue" stroke="midnightblue" points="362.84,-359.86 373.32,-358.34 364.18,-352.99 362.84,-359.86"/>
</g>
<!-- Node3&#45;&gt;Node4 -->
<g id="edge3" class="edge">
<title>Node3&#45;&gt;Node4</title>
<path fill="none" stroke="midnightblue" d="M455.58,-327.04C480.95,-326.45 513.56,-325.69 539.82,-325.08"/>
<polygon fill="midnightblue" stroke="midnightblue" points="540,-328.57 549.91,-324.84 539.83,-321.58 540,-328.57"/>
</g>
<!-- Node9 -->
<g id="node9" class="node">
<title>Node9</title>
<g id="a_node9"><a xlink:href="a00425.html#gaf3c64772d6dfd473d6924fb8893bd180" target="_top" xlink:title="This function initializes all peripheral modules and their instances used by the power controller.">
<polygon fill="white" stroke="black" points="345,-133.5 345,-152.5 482,-152.5 482,-133.5 345,-133.5"/>
<text text-anchor="middle" x="413.5" y="-140.5" font-family="Helvetica,sans-Serif" font-size="10.00">drv_BuckConverter_Initialize</text>
</a>
</g>
</g>
<!-- Node8&#45;&gt;Node9 -->
<g id="edge9" class="edge">
<title>Node8&#45;&gt;Node9</title>
<path fill="none" stroke="midnightblue" d="M309.02,-143C317.55,-143 326.3,-143 334.93,-143"/>
<polygon fill="midnightblue" stroke="midnightblue" points="334.98,-146.5 344.98,-143 334.98,-139.5 334.98,-146.5"/>
</g>
<!-- Node22 -->
<g id="node22" class="node">
<title>Node22</title>
<g id="a_node22"><a xlink:href="a00353.html#gaa09c4349fd01cc9b6b01d435bd022b56" target="_top" xlink:title="Locks the Peripheral Pin Select Configuration registers against accidental changes.">
<polygon fill="white" stroke="black" points="377,-57.5 377,-76.5 450,-76.5 450,-57.5 377,-57.5"/>
<text text-anchor="middle" x="413.5" y="-64.5" font-family="Helvetica,sans-Serif" font-size="10.00">PPS_LockIO</text>
</a>
</g>
</g>
<!-- Node8&#45;&gt;Node22 -->
<g id="edge24" class="edge">
<title>Node8&#45;&gt;Node22</title>
<path fill="none" stroke="midnightblue" d="M263.15,-127.82C284.27,-115.3 315.82,-97.75 345,-86 352.07,-83.15 359.71,-80.56 367.23,-78.27"/>
<polygon fill="midnightblue" stroke="midnightblue" points="368.36,-81.59 376.98,-75.44 366.4,-74.87 368.36,-81.59"/>
</g>
<!-- Node23 -->
<g id="node23" class="node">
<title>Node23</title>
<g id="a_node23"><a xlink:href="a00353.html#ga592e485a9574eeebc2e1dc6993de1f55" target="_top" xlink:title="Assigns a digital function output to a pin.">
<polygon fill="white" stroke="black" points="362.5,-171.5 362.5,-190.5 464.5,-190.5 464.5,-171.5 362.5,-171.5"/>
<text text-anchor="middle" x="413.5" y="-178.5" font-family="Helvetica,sans-Serif" font-size="10.00">PPS_RemapOutput</text>
</a>
</g>
</g>
<!-- Node8&#45;&gt;Node23 -->
<g id="edge25" class="edge">
<title>Node8&#45;&gt;Node23</title>
<path fill="none" stroke="midnightblue" d="M307.27,-158.02C324.5,-161.78 342.72,-165.76 359.08,-169.33"/>
<polygon fill="midnightblue" stroke="midnightblue" points="358.48,-172.78 369,-171.5 359.97,-165.95 358.48,-172.78"/>
</g>
<!-- Node24 -->
<g id="node24" class="node">
<title>Node24</title>
<g id="a_node24"><a xlink:href="a00353.html#ga64624ae359fb9dd170bb9a3f85dd81f2" target="_top" xlink:title="Unlocks the Peripheral Pin Select Configuration registers to enable changes.">
<polygon fill="white" stroke="black" points="372.5,-95.5 372.5,-114.5 454.5,-114.5 454.5,-95.5 372.5,-95.5"/>
<text text-anchor="middle" x="413.5" y="-102.5" font-family="Helvetica,sans-Serif" font-size="10.00">PPS_UnlockIO</text>
</a>
</g>
</g>
<!-- Node8&#45;&gt;Node24 -->
<g id="edge26" class="edge">
<title>Node8&#45;&gt;Node24</title>
<path fill="none" stroke="midnightblue" d="M307.27,-127.98C325.69,-123.96 345.26,-119.69 362.45,-115.93"/>
<polygon fill="midnightblue" stroke="midnightblue" points="363.26,-119.34 372.28,-113.78 361.76,-112.5 363.26,-119.34"/>
</g>
<!-- Node10 -->
<g id="node10" class="node">
<title>Node10</title>
<g id="a_node10"><a xlink:href="a00448.html#gac2bfd6c3ccd9ec11b8e91322ea9354d2" target="_top" xlink:title="This function initializes the settings for the ADC channel.">
<polygon fill="white" stroke="black" points="520,-19.5 520,-38.5 654,-38.5 654,-19.5 520,-19.5"/>
<text text-anchor="middle" x="587" y="-26.5" font-family="Helvetica,sans-Serif" font-size="10.00">buckADC_ChannelInitialize</text>
</a>
</g>
</g>
<!-- Node9&#45;&gt;Node10 -->
<g id="edge10" class="edge">
<title>Node9&#45;&gt;Node10</title>
<path fill="none" stroke="midnightblue" d="M466.59,-133.37C472.16,-130.92 477.44,-127.85 482,-124 510.55,-99.88 489.42,-72.09 518,-48 520.01,-46.31 522.16,-44.76 524.41,-43.36"/>
<polygon fill="midnightblue" stroke="midnightblue" points="526.29,-46.32 533.53,-38.58 523.04,-40.12 526.29,-46.32"/>
</g>
<!-- Node11 -->
<g id="node11" class="node">
<title>Node11</title>
<g id="a_node11"><a xlink:href="a00448.html#ga44f537d9ad5dcb0e744480802cfbf170" target="_top" xlink:title="This fucntion initializes the buck by resetting all its registers to default.">
<polygon fill="white" stroke="black" points="522,-190.5 522,-209.5 652,-209.5 652,-190.5 522,-190.5"/>
<text text-anchor="middle" x="587" y="-197.5" font-family="Helvetica,sans-Serif" font-size="10.00">buckADC_ModuleInitialize</text>
</a>
</g>
</g>
<!-- Node9&#45;&gt;Node11 -->
<g id="edge11" class="edge">
<title>Node9&#45;&gt;Node11</title>
<path fill="none" stroke="midnightblue" d="M453.87,-152.57C463.22,-155.26 473.07,-158.43 482,-162 498.8,-168.71 501.19,-174.31 518,-181 523.9,-183.35 530.21,-185.53 536.5,-187.51"/>
<polygon fill="midnightblue" stroke="midnightblue" points="535.75,-190.94 546.33,-190.45 537.76,-184.23 535.75,-190.94"/>
</g>
<!-- Node12 -->
<g id="node12" class="node">
<title>Node12</title>
<g id="a_node12"><a xlink:href="a00448.html#gac7e5924475733c189b2318844ae01844" target="_top" xlink:title="This function initializes the buck input pins.">
<polygon fill="white" stroke="black" points="536,-57.5 536,-76.5 638,-76.5 638,-57.5 536,-57.5"/>
<text text-anchor="middle" x="587" y="-64.5" font-family="Helvetica,sans-Serif" font-size="10.00">buckGPIO_Initialize</text>
</a>
</g>
</g>
<!-- Node9&#45;&gt;Node12 -->
<g id="edge12" class="edge">
<title>Node9&#45;&gt;Node12</title>
<path fill="none" stroke="midnightblue" d="M454.27,-133.43C463.51,-130.76 473.21,-127.59 482,-124 486.04,-122.35 530.39,-97.86 559.86,-81.52"/>
<polygon fill="midnightblue" stroke="midnightblue" points="561.79,-84.45 568.83,-76.54 558.39,-78.33 561.79,-84.45"/>
</g>
<!-- Node16 -->
<g id="node16" class="node">
<title>Node16</title>
<g id="a_node16"><a xlink:href="a00448.html#ga45a54def97cc67eb8d36e22a3867d95f" target="_top" xlink:title="This function initializes the output pins for the PWM output and the default buck PWM settings.">
<polygon fill="white" stroke="black" points="518,-152.5 518,-171.5 656,-171.5 656,-152.5 518,-152.5"/>
<text text-anchor="middle" x="587" y="-159.5" font-family="Helvetica,sans-Serif" font-size="10.00">buckPWM_ChannelInitialize</text>
</a>
</g>
</g>
<!-- Node9&#45;&gt;Node16 -->
<g id="edge17" class="edge">
<title>Node9&#45;&gt;Node16</title>
<path fill="none" stroke="midnightblue" d="M482.28,-150.51C490.69,-151.44 499.35,-152.4 507.9,-153.35"/>
<polygon fill="midnightblue" stroke="midnightblue" points="507.54,-156.83 517.87,-154.45 508.31,-149.87 507.54,-156.83"/>
</g>
<!-- Node19 -->
<g id="node19" class="node">
<title>Node19</title>
<g id="a_node19"><a xlink:href="a00448.html#ga6d12fd9e2f1d4f01ec6db21454693863" target="_top" xlink:title="Initializes the buck PWM module by resetting its registers to default.">
<polygon fill="white" stroke="black" points="520,-114.5 520,-133.5 654,-133.5 654,-114.5 520,-114.5"/>
<text text-anchor="middle" x="587" y="-121.5" font-family="Helvetica,sans-Serif" font-size="10.00">buckPWM_ModuleInitialize</text>
</a>
</g>
</g>
<!-- Node9&#45;&gt;Node19 -->
<g id="edge21" class="edge">
<title>Node9&#45;&gt;Node19</title>
<path fill="none" stroke="midnightblue" d="M482.28,-135.49C491.26,-134.5 500.52,-133.47 509.63,-132.46"/>
<polygon fill="midnightblue" stroke="midnightblue" points="510.28,-135.91 519.83,-131.33 509.51,-128.95 510.28,-135.91"/>
</g>
<!-- Node13 -->
<g id="node13" class="node">
<title>Node13</title>
<g id="a_node13"><a xlink:href="a00448.html#ga7f1d554e08d756b8677b572216908a3a" target="_top" xlink:title="This function clears the selected general purpose input/output pin.">
<polygon fill="white" stroke="black" points="726.5,-0.5 726.5,-19.5 815.5,-19.5 815.5,-0.5 726.5,-0.5"/>
<text text-anchor="middle" x="771" y="-7.5" font-family="Helvetica,sans-Serif" font-size="10.00">buckGPIO_Clear</text>
</a>
</g>
</g>
<!-- Node12&#45;&gt;Node13 -->
<g id="edge13" class="edge">
<title>Node12&#45;&gt;Node13</title>
<path fill="none" stroke="midnightblue" d="M627.67,-57.45C637.08,-54.76 647,-51.58 656,-48 672.81,-41.31 675.08,-35.41 692,-29 699.69,-26.09 707.98,-23.5 716.18,-21.26"/>
<polygon fill="midnightblue" stroke="midnightblue" points="717.3,-24.59 726.1,-18.69 715.54,-17.81 717.3,-24.59"/>
</g>
<!-- Node15 -->
<g id="node15" class="node">
<title>Node15</title>
<g id="a_node15"><a xlink:href="a00448.html#ga3d3f91c0e40884874e7df3a67fff23f3" target="_top" xlink:title="This function sets the pin as input or output.">
<polygon fill="white" stroke="black" points="705.5,-38.5 705.5,-57.5 836.5,-57.5 836.5,-38.5 705.5,-38.5"/>
<text text-anchor="middle" x="771" y="-45.5" font-family="Helvetica,sans-Serif" font-size="10.00">buckGPIO_PrivateInitialize</text>
</a>
</g>
</g>
<!-- Node12&#45;&gt;Node15 -->
<g id="edge15" class="edge">
<title>Node12&#45;&gt;Node15</title>
<path fill="none" stroke="midnightblue" d="M638.21,-61.76C655.78,-59.92 675.91,-57.82 695.06,-55.82"/>
<polygon fill="midnightblue" stroke="midnightblue" points="695.69,-59.28 705.27,-54.76 694.96,-52.32 695.69,-59.28"/>
</g>
<!-- Node14 -->
<g id="node14" class="node">
<title>Node14</title>
<g id="a_node14"><a xlink:href="a00350.html#ga4d67af688d8f7f911d79107974e11e6b" target="_top" xlink:title="Gets pointer to GPIO Instance SFR set.">
<polygon fill="white" stroke="black" points="886,-38.5 886,-57.5 1037,-57.5 1037,-38.5 886,-38.5"/>
<text text-anchor="middle" x="961.5" y="-45.5" font-family="Helvetica,sans-Serif" font-size="10.00">p33c_GpioInstance_GetHandle</text>
</a>
</g>
</g>
<!-- Node13&#45;&gt;Node14 -->
<g id="edge14" class="edge">
<title>Node13&#45;&gt;Node14</title>
<path fill="none" stroke="midnightblue" d="M815.72,-18.81C841.68,-24.05 874.9,-30.74 902.97,-36.4"/>
<polygon fill="midnightblue" stroke="midnightblue" points="902.56,-39.89 913.06,-38.44 903.94,-33.03 902.56,-39.89"/>
</g>
<!-- Node15&#45;&gt;Node14 -->
<g id="edge16" class="edge">
<title>Node15&#45;&gt;Node14</title>
<path fill="none" stroke="midnightblue" d="M836.61,-48C849.26,-48 862.71,-48 875.9,-48"/>
<polygon fill="midnightblue" stroke="midnightblue" points="875.92,-51.5 885.92,-48 875.92,-44.5 875.92,-51.5"/>
</g>
<!-- Node16&#45;&gt;Node14 -->
<g id="edge18" class="edge">
<title>Node16&#45;&gt;Node14</title>
<path fill="none" stroke="midnightblue" d="M656.06,-168.49C710.57,-171.04 787.92,-168.61 850,-143 890.85,-126.15 927.4,-88.06 946.5,-65.56"/>
<polygon fill="midnightblue" stroke="midnightblue" points="949.26,-67.72 952.94,-57.78 943.87,-63.26 949.26,-67.72"/>
</g>
<!-- Node17 -->
<g id="node17" class="node">
<title>Node17</title>
<g id="a_node17"><a xlink:href="a00354.html#gab66f225bac6b132d1418a4c808e3babb" target="_top" xlink:title="Disposes a given PWM generator by resetting all its registers to default.">
<polygon fill="white" stroke="black" points="701,-191 701,-221 841,-221 841,-191 701,-191"/>
<text text-anchor="start" x="709" y="-209" font-family="Helvetica,sans-Serif" font-size="10.00">p33c_PwmGenerator_Config</text>
<text text-anchor="middle" x="771" y="-198" font-family="Helvetica,sans-Serif" font-size="10.00">Write</text>
</a>
</g>
</g>
<!-- Node16&#45;&gt;Node17 -->
<g id="edge19" class="edge">
<title>Node16&#45;&gt;Node17</title>
<path fill="none" stroke="midnightblue" d="M627.49,-171.55C648.07,-176.52 673.9,-182.77 697.89,-188.57"/>
<polygon fill="midnightblue" stroke="midnightblue" points="697.14,-191.99 707.68,-190.93 698.79,-185.18 697.14,-191.99"/>
</g>
<!-- Node18 -->
<g id="node18" class="node">
<title>Node18</title>
<g id="a_node18"><a xlink:href="a00354.html#ga55e525c7ac54a365ab6dad558ec17f0b" target="_top" xlink:title="Returns the PWM generator index.">
<polygon fill="white" stroke="black" points="692,-240.5 692,-259.5 850,-259.5 850,-240.5 692,-240.5"/>
<text text-anchor="middle" x="771" y="-247.5" font-family="Helvetica,sans-Serif" font-size="10.00">p33c_PwmGenerator_GetHandle</text>
</a>
</g>
</g>
<!-- Node16&#45;&gt;Node18 -->
<g id="edge20" class="edge">
<title>Node16&#45;&gt;Node18</title>
<path fill="none" stroke="midnightblue" d="M637.71,-171.61C644.18,-174.06 650.47,-177.14 656,-181 678.45,-196.68 669.29,-215.7 692,-231 695.07,-233.07 698.34,-234.91 701.74,-236.56"/>
<polygon fill="midnightblue" stroke="midnightblue" points="700.42,-239.79 710.99,-240.46 703.14,-233.34 700.42,-239.79"/>
</g>
<!-- Node20 -->
<g id="node20" class="node">
<title>Node20</title>
<g id="a_node20"><a xlink:href="a00354.html#ga8075fd40f867be8f42bb806622bd91bd" target="_top" xlink:title="Writes a user&#45;defined configuration to the PWM base module registers.">
<polygon fill="white" stroke="black" points="695,-76.5 695,-95.5 847,-95.5 847,-76.5 695,-76.5"/>
<text text-anchor="middle" x="771" y="-83.5" font-family="Helvetica,sans-Serif" font-size="10.00">p33c_PwmModule_ConfigWrite</text>
</a>
</g>
</g>
<!-- Node19&#45;&gt;Node20 -->
<g id="edge22" class="edge">
<title>Node19&#45;&gt;Node20</title>
<path fill="none" stroke="midnightblue" d="M633.93,-114.41C658.38,-109.31 688.63,-102.99 714.4,-97.61"/>
<polygon fill="midnightblue" stroke="midnightblue" points="715.33,-100.99 724.4,-95.52 713.9,-94.14 715.33,-100.99"/>
</g>
<!-- Node21 -->
<g id="node21" class="node">
<title>Node21</title>
<g id="a_node21"><a xlink:href="a00354.html#ga3ed5f08051a70f5cb426b8254119845f" target="_top" xlink:title="Gets pointer to PWM module SFR set.">
<polygon fill="white" stroke="black" points="697.5,-114.5 697.5,-133.5 844.5,-133.5 844.5,-114.5 697.5,-114.5"/>
<text text-anchor="middle" x="771" y="-121.5" font-family="Helvetica,sans-Serif" font-size="10.00">p33c_PwmModule_GetHandle</text>
</a>
</g>
</g>
<!-- Node19&#45;&gt;Node21 -->
<g id="edge23" class="edge">
<title>Node19&#45;&gt;Node21</title>
<path fill="none" stroke="midnightblue" d="M654.22,-124C664.96,-124 676.2,-124 687.27,-124"/>
<polygon fill="midnightblue" stroke="midnightblue" points="687.37,-127.5 697.37,-124 687.37,-120.5 687.37,-127.5"/>
</g>
<!-- Node26 -->
<g id="node26" class="node">
<title>Node26</title>
<g id="a_node26"><a xlink:href="a00425.html#ga86289c82938655142075e84ac90aa603" target="_top" xlink:title="This function starts the buck converter.">
<polygon fill="white" stroke="black" points="352,-234.5 352,-253.5 475,-253.5 475,-234.5 352,-234.5"/>
<text text-anchor="middle" x="413.5" y="-241.5" font-family="Helvetica,sans-Serif" font-size="10.00">drv_BuckConverter_Start</text>
</a>
</g>
</g>
<!-- Node25&#45;&gt;Node26 -->
<g id="edge28" class="edge">
<title>Node25&#45;&gt;Node26</title>
<path fill="none" stroke="midnightblue" d="M295.96,-240.65C310.51,-241.07 326.32,-241.52 341.47,-241.96"/>
<polygon fill="midnightblue" stroke="midnightblue" points="341.72,-245.47 351.82,-242.26 341.92,-238.47 341.72,-245.47"/>
</g>
<!-- Node27 -->
<g id="node27" class="node">
<title>Node27</title>
<g id="a_node27"><a xlink:href="a00448.html#gab089e35bcd5d68072aa53298ee276959" target="_top" xlink:title="This function enables the ADC module and starts the ADC cores analog inputs for the required input si...">
<polygon fill="white" stroke="black" points="545,-272.5 545,-291.5 629,-291.5 629,-272.5 545,-272.5"/>
<text text-anchor="middle" x="587" y="-279.5" font-family="Helvetica,sans-Serif" font-size="10.00">buckADC_Start</text>
</a>
</g>
</g>
<!-- Node26&#45;&gt;Node27 -->
<g id="edge29" class="edge">
<title>Node26&#45;&gt;Node27</title>
<path fill="none" stroke="midnightblue" d="M457.78,-253.59C481.24,-258.79 510.37,-265.24 534.94,-270.69"/>
<polygon fill="midnightblue" stroke="midnightblue" points="534.29,-274.13 544.81,-272.87 535.8,-267.29 534.29,-274.13"/>
</g>
<!-- Node28 -->
<g id="node28" class="node">
<title>Node28</title>
<g id="a_node28"><a xlink:href="a00448.html#gac63073d04bc35c0cce5df47ea0d33165" target="_top" xlink:title="This function enables the buck PWM operation.">
<polygon fill="white" stroke="black" points="542.5,-234.5 542.5,-253.5 631.5,-253.5 631.5,-234.5 542.5,-234.5"/>
<text text-anchor="middle" x="587" y="-241.5" font-family="Helvetica,sans-Serif" font-size="10.00">buckPWM_Start</text>
</a>
</g>
</g>
<!-- Node26&#45;&gt;Node28 -->
<g id="edge30" class="edge">
<title>Node26&#45;&gt;Node28</title>
<path fill="none" stroke="midnightblue" d="M475.45,-244C494.04,-244 514.35,-244 532.42,-244"/>
<polygon fill="midnightblue" stroke="midnightblue" points="532.48,-247.5 542.48,-244 532.48,-240.5 532.48,-247.5"/>
</g>
<!-- Node28&#45;&gt;Node18 -->
<g id="edge31" class="edge">
<title>Node28&#45;&gt;Node18</title>
<path fill="none" stroke="midnightblue" d="M631.59,-245.44C646.71,-245.94 664.26,-246.51 681.67,-247.09"/>
<polygon fill="midnightblue" stroke="midnightblue" points="681.78,-250.59 691.89,-247.42 682.01,-243.6 681.78,-250.59"/>
</g>
</g>
</svg>
