<?xml version="1.0" encoding="UTF-8" standalone="no"?>
<!DOCTYPE svg PUBLIC "-//W3C//DTD SVG 1.1//EN"
 "http://www.w3.org/Graphics/SVG/1.1/DTD/svg11.dtd">
<!-- Generated by graphviz version 2.44.1 (20200629.0846)
 -->
<!-- Title: drv_BuckConverter_Start Pages: 1 -->
<svg width="604pt" height="28pt"
 viewBox="0.00 0.00 604.00 28.00" xmlns="http://www.w3.org/2000/svg" xmlns:xlink="http://www.w3.org/1999/xlink">
<g id="graph0" class="graph" transform="scale(1 1) rotate(0) translate(4 24)">
<title>drv_BuckConverter_Start</title>
<polygon fill="white" stroke="transparent" points="-4,4 -4,-24 600,-24 600,4 -4,4"/>
<!-- Node1 -->
<g id="node1" class="node">
<title>Node1</title>
<g id="a_node1"><a xlink:title="This function starts the buck converter.">
<polygon fill="#bfbfbf" stroke="black" points="473,-0.5 473,-19.5 596,-19.5 596,-0.5 473,-0.5"/>
<text text-anchor="middle" x="534.5" y="-7.5" font-family="Helvetica,sans-Serif" font-size="10.00">drv_BuckConverter_Start</text>
</a>
</g>
</g>
<!-- Node2 -->
<g id="node2" class="node">
<title>Node2</title>
<g id="a_node2"><a xlink:href="a00418.html#ga9210070749c2ed49abd8a30b27f64151" target="_top" xlink:title="This function calls the buck converter device driver function starting the power supply.">
<polygon fill="white" stroke="black" points="321,-0.5 321,-19.5 437,-19.5 437,-0.5 321,-0.5"/>
<text text-anchor="middle" x="379" y="-7.5" font-family="Helvetica,sans-Serif" font-size="10.00">appPowerSupply_Start</text>
</a>
</g>
</g>
<!-- Node1&#45;&gt;Node2 -->
<g id="edge1" class="edge">
<title>Node1&#45;&gt;Node2</title>
<path fill="none" stroke="midnightblue" d="M462.56,-10C454.07,-10 445.49,-10 437.23,-10"/>
<polygon fill="midnightblue" stroke="midnightblue" points="462.83,-13.5 472.83,-10 462.83,-6.5 462.83,-13.5"/>
</g>
<!-- Node3 -->
<g id="node3" class="node">
<title>Node3</title>
<g id="a_node3"><a xlink:href="a00418.html#ga7a4cf6371d09457539f96a74b2809ca0" target="_top" xlink:title="Calls the application layer power controller initialization.">
<polygon fill="white" stroke="black" points="155,-0.5 155,-19.5 285,-19.5 285,-0.5 155,-0.5"/>
<text text-anchor="middle" x="220" y="-7.5" font-family="Helvetica,sans-Serif" font-size="10.00">appPowerSupply_Initialize</text>
</a>
</g>
</g>
<!-- Node2&#45;&gt;Node3 -->
<g id="edge2" class="edge">
<title>Node2&#45;&gt;Node3</title>
<path fill="none" stroke="midnightblue" d="M310.7,-10C302.26,-10 293.65,-10 285.26,-10"/>
<polygon fill="midnightblue" stroke="midnightblue" points="310.88,-13.5 320.88,-10 310.88,-6.5 310.88,-13.5"/>
</g>
<!-- Node4 -->
<g id="node4" class="node">
<title>Node4</title>
<g id="a_node4"><a xlink:href="a00483.html#ga2be64f5f0b9a2c0c6713f5a69d793e05" target="_top" xlink:title="Initializes the user&#45;defined tasks.">
<polygon fill="white" stroke="black" points="0,-0.5 0,-19.5 119,-19.5 119,-0.5 0,-0.5"/>
<text text-anchor="middle" x="59.5" y="-7.5" font-family="Helvetica,sans-Serif" font-size="10.00">sysUserTasks_Initialize</text>
</a>
</g>
</g>
<!-- Node3&#45;&gt;Node4 -->
<g id="edge3" class="edge">
<title>Node3&#45;&gt;Node4</title>
<path fill="none" stroke="midnightblue" d="M144.9,-10C136.25,-10 127.52,-10 119.12,-10"/>
<polygon fill="midnightblue" stroke="midnightblue" points="144.99,-13.5 154.99,-10 144.99,-6.5 144.99,-13.5"/>
</g>
</g>
</svg>
