<?xml version="1.0" encoding="UTF-8" standalone="no"?>
<!DOCTYPE svg PUBLIC "-//W3C//DTD SVG 1.1//EN"
 "http://www.w3.org/Graphics/SVG/1.1/DTD/svg11.dtd">
<!-- Generated by graphviz version 2.44.1 (20200629.0846)
 -->
<!-- Title: Device Driver Library Layer Pages: 1 -->
<svg width="263pt" height="64pt"
 viewBox="0.00 0.00 263.00 64.00" xmlns="http://www.w3.org/2000/svg" xmlns:xlink="http://www.w3.org/1999/xlink">
<g id="graph0" class="graph" transform="scale(1 1) rotate(0) translate(4 60)">
<title>Device Driver Library Layer</title>
<polygon fill="white" stroke="transparent" points="-4,4 -4,-60 259,-60 259,4 -4,4"/>
<!-- Node2 -->
<g id="node1" class="node">
<title>Node2</title>
<g id="a_node1"><a xlink:href="a00406.html" target="_top" xlink:title=" ">
<polygon fill="white" stroke="black" points="251,-56 144,-56 144,-37 251,-37 251,-56"/>
<text text-anchor="middle" x="197.5" y="-44" font-family="Helvetica,sans-Serif" font-size="10.00">Fault Handler Library</text>
</a>
</g>
</g>
<!-- Node3 -->
<g id="node2" class="node">
<title>Node3</title>
<g id="a_node2"><a xlink:href="a00423.html" target="_top" xlink:title=" ">
<polygon fill="white" stroke="black" points="255,-19 140,-19 140,0 255,0 255,-19"/>
<text text-anchor="middle" x="197.5" y="-7" font-family="Helvetica,sans-Serif" font-size="10.00">Buck Converter Library</text>
</a>
</g>
</g>
<!-- Node1 -->
<g id="node3" class="node">
<title>Node1</title>
<g id="a_node3"><a xlink:title="Generic Device Driver Layer.">
<polygon fill="#bfbfbf" stroke="black" points="104,-42.5 0,-42.5 0,-12.5 104,-12.5 104,-42.5"/>
<text text-anchor="start" x="8" y="-30.5" font-family="Helvetica,sans-Serif" font-size="10.00">Device Driver Library</text>
<text text-anchor="middle" x="52" y="-19.5" font-family="Helvetica,sans-Serif" font-size="10.00"> Layer</text>
</a>
</g>
</g>
<!-- Node1&#45;&gt;Node2 -->
<g id="edge1" class="edge">
<title>Node1&#45;&gt;Node2</title>
<path fill="none" stroke="black" d="M114.38,-35.63C124.08,-36.91 134.04,-38.23 143.52,-39.49"/>
<polygon fill="black" stroke="black" points="114.77,-32.15 104.4,-34.31 113.86,-39.09 114.77,-32.15"/>
</g>
<!-- Node1&#45;&gt;Node3 -->
<g id="edge2" class="edge">
<title>Node1&#45;&gt;Node3</title>
<path fill="none" stroke="black" d="M114.46,-19.79C122.81,-18.74 131.35,-17.67 139.62,-16.64"/>
<polygon fill="black" stroke="black" points="113.89,-16.33 104.4,-21.05 114.76,-23.28 113.89,-16.33"/>
</g>
</g>
</svg>
