<?xml version="1.0" encoding="UTF-8" standalone="no"?>
<!DOCTYPE svg PUBLIC "-//W3C//DTD SVG 1.1//EN"
 "http://www.w3.org/Graphics/SVG/1.1/DTD/svg11.dtd">
<!-- Generated by graphviz version 2.44.1 (20200629.0846)
 -->
<!-- Title: Library Driver Layer Pages: 1 -->
<svg width="265pt" height="98pt"
 viewBox="0.00 0.00 265.00 97.50" xmlns="http://www.w3.org/2000/svg" xmlns:xlink="http://www.w3.org/1999/xlink">
<g id="graph0" class="graph" transform="scale(1 1) rotate(0) translate(4 93.5)">
<title>Library Driver Layer</title>
<polygon fill="white" stroke="transparent" points="-4,4 -4,-93.5 261,-93.5 261,4 -4,4"/>
<!-- Node3 -->
<g id="node1" class="node">
<title>Node3</title>
<g id="a_node1"><a xlink:href="a00459.html" target="_top" xlink:title=" ">
<polygon fill="white" stroke="black" points="257,-89.5 136,-89.5 136,-59.5 257,-59.5 257,-89.5"/>
<text text-anchor="start" x="144" y="-77.5" font-family="Helvetica,sans-Serif" font-size="10.00">Power Converter Control</text>
<text text-anchor="middle" x="196.5" y="-66.5" font-family="Helvetica,sans-Serif" font-size="10.00"> Driver</text>
</a>
</g>
</g>
<!-- Node1 -->
<g id="node2" class="node">
<title>Node1</title>
<g id="a_node2"><a xlink:title="Generic Library Driver Layer.">
<polygon fill="#bfbfbf" stroke="black" points="100,-57 0,-57 0,-38 100,-38 100,-57"/>
<text text-anchor="middle" x="50" y="-45" font-family="Helvetica,sans-Serif" font-size="10.00">Library Driver Layer</text>
</a>
</g>
</g>
<!-- Node1&#45;&gt;Node3 -->
<g id="edge2" class="edge">
<title>Node1&#45;&gt;Node3</title>
<path fill="none" stroke="black" d="M110.16,-58.55C118.65,-60.14 127.4,-61.78 135.91,-63.37"/>
<polygon fill="black" stroke="black" points="110.8,-55.11 100.32,-56.72 109.51,-61.99 110.8,-55.11"/>
</g>
<!-- Node2 -->
<g id="node3" class="node">
<title>Node2</title>
<g id="a_node3"><a xlink:href="a00338.html" target="_top" xlink:title=" ">
<polygon fill="white" stroke="black" points="246,-41 147,-41 147,0 246,0 246,-41"/>
<text text-anchor="start" x="155" y="-29" font-family="Helvetica,sans-Serif" font-size="10.00">Peripheral Register</text>
<text text-anchor="start" x="155" y="-18" font-family="Helvetica,sans-Serif" font-size="10.00"> Abstraction Layer </text>
<text text-anchor="middle" x="196.5" y="-7" font-family="Helvetica,sans-Serif" font-size="10.00">(PRAL) Library</text>
</a>
</g>
</g>
<!-- Node1&#45;&gt;Node2 -->
<g id="edge1" class="edge">
<title>Node1&#45;&gt;Node2</title>
<path fill="none" stroke="black" d="M110.38,-36.41C122.52,-34.14 135.17,-31.77 146.89,-29.58"/>
<polygon fill="black" stroke="black" points="109.51,-33.01 100.32,-38.28 110.8,-39.89 109.51,-33.01"/>
</g>
</g>
</svg>
