<?xml version="1.0" encoding="UTF-8" standalone="no"?>
<!DOCTYPE svg PUBLIC "-//W3C//DTD SVG 1.1//EN"
 "http://www.w3.org/Graphics/SVG/1.1/DTD/svg11.dtd">
<!-- Generated by graphviz version 2.44.1 (20200629.0846)
 -->
<!-- Title: NPNZ_USER_DATA_BUFFER_s Pages: 1 -->
<svg width="1209pt" height="667pt"
 viewBox="0.00 0.00 1209.00 667.00" xmlns="http://www.w3.org/2000/svg" xmlns:xlink="http://www.w3.org/1999/xlink">
<g id="graph0" class="graph" transform="scale(1 1) rotate(0) translate(4 663)">
<title>NPNZ_USER_DATA_BUFFER_s</title>
<polygon fill="white" stroke="transparent" points="-4,4 -4,-663 1205,-663 1205,4 -4,4"/>
<!-- Node1 -->
<g id="node1" class="node">
<title>Node1</title>
<g id="a_node1"><a xlink:title="User Data Space for Advanced Control Functions.">
<polygon fill="#bfbfbf" stroke="black" points="455.5,-524.5 455.5,-658.5 615.5,-658.5 615.5,-524.5 455.5,-524.5"/>
<text text-anchor="middle" x="535.5" y="-646.5" font-family="Helvetica,sans-Serif" font-size="10.00">NPNZ_USER_DATA_BUFFER_s</text>
<polyline fill="none" stroke="black" points="455.5,-639.5 615.5,-639.5 "/>
<text text-anchor="start" x="463.5" y="-627.5" font-family="Helvetica,sans-Serif" font-size="10.00">+ usrParam0</text>
<text text-anchor="start" x="463.5" y="-616.5" font-family="Helvetica,sans-Serif" font-size="10.00">+ usrParam1</text>
<text text-anchor="start" x="463.5" y="-605.5" font-family="Helvetica,sans-Serif" font-size="10.00">+ usrParam2</text>
<text text-anchor="start" x="463.5" y="-594.5" font-family="Helvetica,sans-Serif" font-size="10.00">+ usrParam3</text>
<text text-anchor="start" x="463.5" y="-583.5" font-family="Helvetica,sans-Serif" font-size="10.00">+ usrParam4</text>
<text text-anchor="start" x="463.5" y="-572.5" font-family="Helvetica,sans-Serif" font-size="10.00">+ usrParam5</text>
<text text-anchor="start" x="463.5" y="-561.5" font-family="Helvetica,sans-Serif" font-size="10.00">+ usrParam6</text>
<text text-anchor="start" x="463.5" y="-550.5" font-family="Helvetica,sans-Serif" font-size="10.00">+ usrParam7</text>
<polyline fill="none" stroke="black" points="455.5,-543.5 615.5,-543.5 "/>
<text text-anchor="middle" x="535.5" y="-531.5" font-family="Helvetica,sans-Serif" font-size="10.00"> </text>
</a>
</g>
</g>
<!-- Node2 -->
<g id="node2" class="node">
<title>Node2</title>
<g id="a_node2"><a xlink:href="a01559.html" target="_top" xlink:title="Global NPNZ controller data object.">
<polygon fill="white" stroke="black" points="501.5,-419.5 501.5,-476.5 569.5,-476.5 569.5,-419.5 501.5,-419.5"/>
<text text-anchor="middle" x="535.5" y="-464.5" font-family="Helvetica,sans-Serif" font-size="10.00">NPNZ16b_s</text>
<polyline fill="none" stroke="black" points="501.5,-457.5 569.5,-457.5 "/>
<text text-anchor="middle" x="535.5" y="-445.5" font-family="Helvetica,sans-Serif" font-size="10.00"> </text>
<polyline fill="none" stroke="black" points="501.5,-438.5 569.5,-438.5 "/>
<text text-anchor="middle" x="535.5" y="-426.5" font-family="Helvetica,sans-Serif" font-size="10.00"> </text>
</a>
</g>
</g>
<!-- Node1&#45;&gt;Node2 -->
<g id="edge8" class="edge">
<title>Node1&#45;&gt;Node2</title>
<path fill="none" stroke="#404040" d="M498.09,-524.4C496.17,-514.58 496.21,-504.55 499.5,-495 500.43,-492.29 501.6,-489.62 502.94,-487.01"/>
<polygon fill="none" stroke="#404040" points="502.98,-486.94 502.69,-479.73 509.23,-476.69 509.52,-483.9 502.98,-486.94"/>
<text text-anchor="middle" x="525.5" y="-498" font-family="Helvetica,sans-Serif" font-size="10.00"> +Advanced</text>
</g>
<!-- Node2&#45;&gt;Node1 -->
<g id="edge1" class="edge">
<title>Node2&#45;&gt;Node1</title>
<path fill="none" stroke="midnightblue" d="M553.1,-486.02C554.06,-489.01 554.88,-492.03 555.5,-495 557.48,-504.54 557.57,-514.61 556.5,-524.49"/>
<polygon fill="none" stroke="midnightblue" points="556.39,-484.81 549.67,-476.62 549.81,-487.21 556.39,-484.81"/>
</g>
<!-- Node3 -->
<g id="node3" class="node">
<title>Node3</title>
<g id="a_node3"><a xlink:href="a01543.html" target="_top" xlink:title="Automated ADC Trigger handling.">
<polygon fill="white" stroke="black" points="0,-226.5 0,-316.5 129,-316.5 129,-226.5 0,-226.5"/>
<text text-anchor="middle" x="64.5" y="-304.5" font-family="Helvetica,sans-Serif" font-size="10.00">NPNZ_ADC_TRGCTRL_s</text>
<polyline fill="none" stroke="black" points="0,-297.5 129,-297.5 "/>
<text text-anchor="start" x="8" y="-285.5" font-family="Helvetica,sans-Serif" font-size="10.00">+ ptrADCTriggerARegister</text>
<text text-anchor="start" x="8" y="-274.5" font-family="Helvetica,sans-Serif" font-size="10.00">+ ADCTriggerAOffset</text>
<text text-anchor="start" x="8" y="-263.5" font-family="Helvetica,sans-Serif" font-size="10.00">+ ptrADCTriggerBRegister</text>
<text text-anchor="start" x="8" y="-252.5" font-family="Helvetica,sans-Serif" font-size="10.00">+ ADCTriggerBOffset</text>
<polyline fill="none" stroke="black" points="0,-245.5 129,-245.5 "/>
<text text-anchor="middle" x="64.5" y="-233.5" font-family="Helvetica,sans-Serif" font-size="10.00"> </text>
</a>
</g>
</g>
<!-- Node2&#45;&gt;Node3 -->
<g id="edge3" class="edge">
<title>Node2&#45;&gt;Node3</title>
<path fill="none" stroke="midnightblue" d="M491.1,-445.37C405.33,-441.59 220.41,-430.22 164.5,-401 129.55,-382.73 103,-346.22 86.07,-316.77"/>
<polygon fill="none" stroke="midnightblue" points="491.15,-448.87 501.29,-445.8 491.45,-441.88 491.15,-448.87"/>
</g>
<!-- Node4 -->
<g id="node4" class="node">
<title>Node4</title>
<g id="a_node4"><a xlink:href="a01535.html" target="_top" xlink:title="Adaptive Gain Control Modulation Parameters.">
<polygon fill="white" stroke="black" points="147.5,-226.5 147.5,-316.5 279.5,-316.5 279.5,-226.5 147.5,-226.5"/>
<text text-anchor="middle" x="213.5" y="-304.5" font-family="Helvetica,sans-Serif" font-size="10.00">NPNZ_GAIN_CONTROL_s</text>
<polyline fill="none" stroke="black" points="147.5,-297.5 279.5,-297.5 "/>
<text text-anchor="start" x="155.5" y="-285.5" font-family="Helvetica,sans-Serif" font-size="10.00">+ AgcScaler</text>
<text text-anchor="start" x="155.5" y="-274.5" font-family="Helvetica,sans-Serif" font-size="10.00">+ AgcFactor</text>
<text text-anchor="start" x="155.5" y="-263.5" font-family="Helvetica,sans-Serif" font-size="10.00">+ AgcMedian</text>
<text text-anchor="start" x="155.5" y="-252.5" font-family="Helvetica,sans-Serif" font-size="10.00">+ ptrAgcObserverFunction</text>
<polyline fill="none" stroke="black" points="147.5,-245.5 279.5,-245.5 "/>
<text text-anchor="middle" x="213.5" y="-233.5" font-family="Helvetica,sans-Serif" font-size="10.00"> </text>
</a>
</g>
</g>
<!-- Node2&#45;&gt;Node4 -->
<g id="edge5" class="edge">
<title>Node2&#45;&gt;Node4</title>
<path fill="none" stroke="midnightblue" d="M491,-446.38C443.6,-443.85 367.93,-434.34 312.5,-401 279.32,-381.04 253.22,-345.45 236.17,-316.78"/>
<polygon fill="none" stroke="midnightblue" points="491.1,-449.88 501.25,-446.84 491.41,-442.89 491.1,-449.88"/>
</g>
<!-- Node5 -->
<g id="node5" class="node">
<title>Node5</title>
<g id="a_node5"><a xlink:href="a01539.html" target="_top" xlink:title="System Anti&#45;Windup (Output Clamping) Thresholds.">
<polygon fill="white" stroke="black" points="297.5,-226.5 297.5,-316.5 385.5,-316.5 385.5,-226.5 297.5,-226.5"/>
<text text-anchor="middle" x="341.5" y="-304.5" font-family="Helvetica,sans-Serif" font-size="10.00">NPNZ_LIMITS_s</text>
<polyline fill="none" stroke="black" points="297.5,-297.5 385.5,-297.5 "/>
<text text-anchor="start" x="305.5" y="-285.5" font-family="Helvetica,sans-Serif" font-size="10.00">+ MinOutput</text>
<text text-anchor="start" x="305.5" y="-274.5" font-family="Helvetica,sans-Serif" font-size="10.00">+ MaxOutput</text>
<text text-anchor="start" x="305.5" y="-263.5" font-family="Helvetica,sans-Serif" font-size="10.00">+ AltMinOutput</text>
<text text-anchor="start" x="305.5" y="-252.5" font-family="Helvetica,sans-Serif" font-size="10.00">+ AltMaxOutput</text>
<polyline fill="none" stroke="black" points="297.5,-245.5 385.5,-245.5 "/>
<text text-anchor="middle" x="341.5" y="-233.5" font-family="Helvetica,sans-Serif" font-size="10.00"> </text>
</a>
</g>
</g>
<!-- Node2&#45;&gt;Node5 -->
<g id="edge7" class="edge">
<title>Node2&#45;&gt;Node5</title>
<path fill="none" stroke="midnightblue" d="M491.65,-437.22C467.12,-430.15 437.03,-418.68 414.5,-401 387.04,-379.46 368.16,-344.54 356.48,-316.54"/>
<polygon fill="none" stroke="midnightblue" points="490.87,-440.64 501.44,-439.9 492.72,-433.89 490.87,-440.64"/>
</g>
<!-- Node6 -->
<g id="node6" class="node">
<title>Node6</title>
<g id="a_node6"><a xlink:href="a01527.html" target="_top" xlink:title="Filter Coefficient Arrays, Number Format Handling and Input/Output History Parameters.">
<polygon fill="white" stroke="black" points="404,-243 404,-300 515,-300 515,-243 404,-243"/>
<text text-anchor="middle" x="459.5" y="-288" font-family="Helvetica,sans-Serif" font-size="10.00">NPNZ_PORTS_s</text>
<polyline fill="none" stroke="black" points="404,-281 515,-281 "/>
<text text-anchor="start" x="412" y="-269" font-family="Helvetica,sans-Serif" font-size="10.00">+ ptrControlReference</text>
<polyline fill="none" stroke="black" points="404,-262 515,-262 "/>
<text text-anchor="middle" x="459.5" y="-250" font-family="Helvetica,sans-Serif" font-size="10.00"> </text>
</a>
</g>
</g>
<!-- Node2&#45;&gt;Node6 -->
<g id="edge10" class="edge">
<title>Node2&#45;&gt;Node6</title>
<path fill="none" stroke="midnightblue" d="M512.42,-410.47C510.68,-407.31 509.02,-404.12 507.5,-401 491.17,-367.37 476.81,-326.66 468.15,-300.2"/>
<polygon fill="none" stroke="midnightblue" points="509.45,-412.32 517.46,-419.25 515.52,-408.84 509.45,-412.32"/>
</g>
<!-- Node8 -->
<g id="node8" class="node">
<title>Node8</title>
<g id="a_node8"><a xlink:href="a01531.html" target="_top" xlink:title="Filter Coefficient Arrays, Number Format Handling and Input/Output History Parameters.">
<polygon fill="white" stroke="black" points="533,-171.5 533,-371.5 670,-371.5 670,-171.5 533,-171.5"/>
<text text-anchor="middle" x="601.5" y="-359.5" font-family="Helvetica,sans-Serif" font-size="10.00">NPNZ_FILTER_PARAMS_s</text>
<polyline fill="none" stroke="black" points="533,-352.5 670,-352.5 "/>
<text text-anchor="start" x="541" y="-340.5" font-family="Helvetica,sans-Serif" font-size="10.00">+ ptrACoefficients</text>
<text text-anchor="start" x="541" y="-329.5" font-family="Helvetica,sans-Serif" font-size="10.00">+ ptrBCoefficients</text>
<text text-anchor="start" x="541" y="-318.5" font-family="Helvetica,sans-Serif" font-size="10.00">+ ptrControlHistory</text>
<text text-anchor="start" x="541" y="-307.5" font-family="Helvetica,sans-Serif" font-size="10.00">+ ptrErrorHistory</text>
<text text-anchor="start" x="541" y="-296.5" font-family="Helvetica,sans-Serif" font-size="10.00">+ ACoefficientsArraySize</text>
<text text-anchor="start" x="541" y="-285.5" font-family="Helvetica,sans-Serif" font-size="10.00">+ BCoefficientsArraySize</text>
<text text-anchor="start" x="541" y="-274.5" font-family="Helvetica,sans-Serif" font-size="10.00">+ ControlHistoryArraySize</text>
<text text-anchor="start" x="541" y="-263.5" font-family="Helvetica,sans-Serif" font-size="10.00">+ ErrorHistoryArraySize</text>
<text text-anchor="start" x="541" y="-252.5" font-family="Helvetica,sans-Serif" font-size="10.00">+ normPreShift</text>
<text text-anchor="start" x="541" y="-241.5" font-family="Helvetica,sans-Serif" font-size="10.00">+ normPostShiftA</text>
<text text-anchor="start" x="541" y="-230.5" font-family="Helvetica,sans-Serif" font-size="10.00">+ normPostShiftB</text>
<text text-anchor="start" x="541" y="-219.5" font-family="Helvetica,sans-Serif" font-size="10.00">+ normPostScaler</text>
<text text-anchor="start" x="541" y="-208.5" font-family="Helvetica,sans-Serif" font-size="10.00">+ PTermScaler</text>
<text text-anchor="start" x="541" y="-197.5" font-family="Helvetica,sans-Serif" font-size="10.00">+ PTermFactor</text>
<polyline fill="none" stroke="black" points="533,-190.5 670,-190.5 "/>
<text text-anchor="middle" x="601.5" y="-178.5" font-family="Helvetica,sans-Serif" font-size="10.00"> </text>
</a>
</g>
</g>
<!-- Node2&#45;&gt;Node8 -->
<g id="edge14" class="edge">
<title>Node2&#45;&gt;Node8</title>
<path fill="none" stroke="midnightblue" d="M549.56,-409.83C553.86,-398.45 558.82,-385.36 563.92,-371.87"/>
<polygon fill="none" stroke="midnightblue" points="546.22,-408.76 545.96,-419.35 552.77,-411.23 546.22,-408.76"/>
</g>
<!-- Node9 -->
<g id="node9" class="node">
<title>Node9</title>
<g id="a_node9"><a xlink:href="a01547.html" target="_top" xlink:title="Data Provider Target Memory Addresses.">
<polygon fill="white" stroke="black" points="688.5,-226.5 688.5,-316.5 862.5,-316.5 862.5,-226.5 688.5,-226.5"/>
<text text-anchor="middle" x="775.5" y="-304.5" font-family="Helvetica,sans-Serif" font-size="10.00">NPNZ_DATA_PROVIDERS_s</text>
<polyline fill="none" stroke="black" points="688.5,-297.5 862.5,-297.5 "/>
<text text-anchor="start" x="696.5" y="-285.5" font-family="Helvetica,sans-Serif" font-size="10.00">+ ptrDProvControlInput</text>
<text text-anchor="start" x="696.5" y="-274.5" font-family="Helvetica,sans-Serif" font-size="10.00">+ ptrDProvControlInputCompensated</text>
<text text-anchor="start" x="696.5" y="-263.5" font-family="Helvetica,sans-Serif" font-size="10.00">+ ptrDProvControlError</text>
<text text-anchor="start" x="696.5" y="-252.5" font-family="Helvetica,sans-Serif" font-size="10.00">+ ptrDProvControlOutput</text>
<polyline fill="none" stroke="black" points="688.5,-245.5 862.5,-245.5 "/>
<text text-anchor="middle" x="775.5" y="-233.5" font-family="Helvetica,sans-Serif" font-size="10.00"> </text>
</a>
</g>
</g>
<!-- Node2&#45;&gt;Node9 -->
<g id="edge16" class="edge">
<title>Node2&#45;&gt;Node9</title>
<path fill="none" stroke="midnightblue" d="M578.83,-428.64C608.32,-415.13 647.47,-395.13 678.5,-372 699.97,-356 721.06,-335.16 738.06,-316.7"/>
<polygon fill="none" stroke="midnightblue" points="577.29,-425.49 569.62,-432.8 580.17,-431.87 577.29,-425.49"/>
</g>
<!-- Node10 -->
<g id="node10" class="node">
<title>Node10</title>
<g id="a_node10"><a xlink:href="a01551.html" target="_top" xlink:title="User Extension Function Call Parameters.">
<polygon fill="white" stroke="black" points="881,-177 881,-366 1058,-366 1058,-177 881,-177"/>
<text text-anchor="middle" x="969.5" y="-354" font-family="Helvetica,sans-Serif" font-size="10.00">NPNZ_EXTENSION_HOOKS_s</text>
<polyline fill="none" stroke="black" points="881,-347 1058,-347 "/>
<text text-anchor="start" x="889" y="-335" font-family="Helvetica,sans-Serif" font-size="10.00">+ ptrExtHookStartFunction</text>
<text text-anchor="start" x="889" y="-324" font-family="Helvetica,sans-Serif" font-size="10.00">+ ExtHookStartFunctionParam</text>
<text text-anchor="start" x="889" y="-313" font-family="Helvetica,sans-Serif" font-size="10.00">+ ptrExtHookSourceFunction</text>
<text text-anchor="start" x="889" y="-302" font-family="Helvetica,sans-Serif" font-size="10.00">+ ExtHookSourceFunctionParam</text>
<text text-anchor="start" x="889" y="-291" font-family="Helvetica,sans-Serif" font-size="10.00">+ ptrExtHookPreAntiWindupFunction</text>
<text text-anchor="start" x="889" y="-280" font-family="Helvetica,sans-Serif" font-size="10.00">+ ExtHookPreAntiWindupFunction</text>
<text text-anchor="start" x="889" y="-269" font-family="Helvetica,sans-Serif" font-size="10.00">Param</text>
<text text-anchor="start" x="889" y="-258" font-family="Helvetica,sans-Serif" font-size="10.00">+ ptrExtHookTargetFunction</text>
<text text-anchor="start" x="889" y="-247" font-family="Helvetica,sans-Serif" font-size="10.00">+ ExtHookTargetFunctionParam</text>
<text text-anchor="start" x="889" y="-236" font-family="Helvetica,sans-Serif" font-size="10.00">+ ptrExtHookStopFunction</text>
<text text-anchor="start" x="889" y="-225" font-family="Helvetica,sans-Serif" font-size="10.00">+ ExtHookStopFunctionParam</text>
<text text-anchor="start" x="889" y="-214" font-family="Helvetica,sans-Serif" font-size="10.00">+ ptrExtHookEndFunction</text>
<text text-anchor="start" x="889" y="-203" font-family="Helvetica,sans-Serif" font-size="10.00">+ ExtHookEndFunctionParam</text>
<polyline fill="none" stroke="black" points="881,-196 1058,-196 "/>
<text text-anchor="middle" x="969.5" y="-184" font-family="Helvetica,sans-Serif" font-size="10.00"> </text>
</a>
</g>
</g>
<!-- Node2&#45;&gt;Node10 -->
<g id="edge18" class="edge">
<title>Node2&#45;&gt;Node10</title>
<path fill="none" stroke="midnightblue" d="M580.35,-446.7C648.59,-444.23 780.18,-431.38 871.5,-372 874.65,-369.95 877.78,-367.79 880.88,-365.53"/>
<polygon fill="none" stroke="midnightblue" points="579.85,-443.21 569.96,-447.01 580.06,-450.21 579.85,-443.21"/>
</g>
<!-- Node11 -->
<g id="node11" class="node">
<title>Node11</title>
<g id="a_node11"><a xlink:href="a01507.html" target="_top" xlink:title="NPNZ16b controller object status and control word.">
<polygon fill="white" stroke="black" points="1076,-199 1076,-344 1201,-344 1201,-199 1076,-199"/>
<text text-anchor="middle" x="1138.5" y="-332" font-family="Helvetica,sans-Serif" font-size="10.00">NPNZ_STATUS_s</text>
<polyline fill="none" stroke="black" points="1076,-325 1201,-325 "/>
<text text-anchor="start" x="1084" y="-313" font-family="Helvetica,sans-Serif" font-size="10.00">+ lower_saturation_event</text>
<text text-anchor="start" x="1084" y="-302" font-family="Helvetica,sans-Serif" font-size="10.00">+ upper_saturation_event</text>
<text text-anchor="start" x="1084" y="-291" font-family="Helvetica,sans-Serif" font-size="10.00">+ unsigned</text>
<text text-anchor="start" x="1084" y="-280" font-family="Helvetica,sans-Serif" font-size="10.00">+ agc_enabled</text>
<text text-anchor="start" x="1084" y="-269" font-family="Helvetica,sans-Serif" font-size="10.00">+ swap_target</text>
<text text-anchor="start" x="1084" y="-258" font-family="Helvetica,sans-Serif" font-size="10.00">+ swap_source</text>
<text text-anchor="start" x="1084" y="-247" font-family="Helvetica,sans-Serif" font-size="10.00">+ invert_input</text>
<text text-anchor="start" x="1084" y="-236" font-family="Helvetica,sans-Serif" font-size="10.00">+ enabled</text>
<text text-anchor="start" x="1084" y="-225" font-family="Helvetica,sans-Serif" font-size="10.00">+ value</text>
<polyline fill="none" stroke="black" points="1076,-218 1201,-218 "/>
<text text-anchor="middle" x="1138.5" y="-206" font-family="Helvetica,sans-Serif" font-size="10.00"> </text>
</a>
</g>
</g>
<!-- Node2&#45;&gt;Node11 -->
<g id="edge20" class="edge">
<title>Node2&#45;&gt;Node11</title>
<path fill="none" stroke="midnightblue" d="M579.74,-447.13C663.2,-446.38 849.02,-440.01 999.5,-401 1030.91,-392.86 1041.2,-392.31 1066.5,-372 1076.48,-363.99 1085.73,-354.27 1094.06,-344.08"/>
<polygon fill="none" stroke="midnightblue" points="579.58,-443.63 569.61,-447.19 579.63,-450.63 579.58,-443.63"/>
</g>
<!-- Node3&#45;&gt;Node2 -->
<g id="edge2" class="edge">
<title>Node3&#45;&gt;Node2</title>
<path fill="none" stroke="#404040" d="M90,-316.52C102.68,-335.49 119.39,-356.78 138.5,-372 163.56,-391.96 173.67,-392.27 204.5,-401 303.41,-429.02 423.97,-440.29 488.82,-444.57"/>
<polygon fill="none" stroke="#404040" points="489.05,-444.59 495.29,-440.97 501.03,-445.34 494.79,-448.95 489.05,-444.59"/>
<text text-anchor="middle" x="249.5" y="-393" font-family="Helvetica,sans-Serif" font-size="10.00"> +ADCTriggerControl</text>
</g>
<!-- Node4&#45;&gt;Node2 -->
<g id="edge4" class="edge">
<title>Node4&#45;&gt;Node2</title>
<path fill="none" stroke="#404040" d="M241.13,-316.77C254.04,-335.25 270.53,-356.07 288.5,-372 345.28,-422.33 435,-438.89 489.25,-444.34"/>
<polygon fill="none" stroke="#404040" points="489.29,-444.34 495.63,-440.9 501.25,-445.42 494.91,-448.86 489.29,-444.34"/>
<text text-anchor="middle" x="359" y="-393" font-family="Helvetica,sans-Serif" font-size="10.00"> +GainControl</text>
</g>
<!-- Node5&#45;&gt;Node2 -->
<g id="edge6" class="edge">
<title>Node5&#45;&gt;Node2</title>
<path fill="none" stroke="#404040" d="M358.23,-316.82C366.91,-335.52 379,-356.5 394.5,-372 421.42,-398.91 460.02,-418.52 490.02,-430.93"/>
<polygon fill="none" stroke="#404040" points="490.32,-431.05 497.38,-429.55 501.47,-435.49 494.42,-436.99 490.32,-431.05"/>
<text text-anchor="middle" x="446.5" y="-393" font-family="Helvetica,sans-Serif" font-size="10.00"> +Limits</text>
</g>
<!-- Node6&#45;&gt;Node2 -->
<g id="edge9" class="edge">
<title>Node6&#45;&gt;Node2</title>
<path fill="none" stroke="#404040" d="M471.49,-300.02C484.14,-329.07 504.19,-375.11 518.48,-407.92"/>
<polygon fill="none" stroke="#404040" points="518.67,-408.35 524.73,-412.25 523.46,-419.35 517.39,-415.45 518.67,-408.35"/>
<text text-anchor="middle" x="532" y="-393" font-family="Helvetica,sans-Serif" font-size="10.00"> +Ports</text>
</g>
<!-- Node7 -->
<g id="node7" class="node">
<title>Node7</title>
<g id="a_node7"><a xlink:href="a01523.html" target="_top" xlink:title="Data Input/Output Port declaration of memory addresses, signal offsets and normalization settings.">
<polygon fill="white" stroke="black" points="416.5,-0.5 416.5,-90.5 500.5,-90.5 500.5,-0.5 416.5,-0.5"/>
<text text-anchor="middle" x="458.5" y="-78.5" font-family="Helvetica,sans-Serif" font-size="10.00">NPNZ_PORT_s</text>
<polyline fill="none" stroke="black" points="416.5,-71.5 500.5,-71.5 "/>
<text text-anchor="start" x="424.5" y="-59.5" font-family="Helvetica,sans-Serif" font-size="10.00">+ ptrAddress</text>
<text text-anchor="start" x="424.5" y="-48.5" font-family="Helvetica,sans-Serif" font-size="10.00">+ NormScaler</text>
<text text-anchor="start" x="424.5" y="-37.5" font-family="Helvetica,sans-Serif" font-size="10.00">+ NormFactor</text>
<text text-anchor="start" x="424.5" y="-26.5" font-family="Helvetica,sans-Serif" font-size="10.00">+ Offset</text>
<polyline fill="none" stroke="black" points="416.5,-19.5 500.5,-19.5 "/>
<text text-anchor="middle" x="458.5" y="-7.5" font-family="Helvetica,sans-Serif" font-size="10.00"> </text>
</a>
</g>
</g>
<!-- Node6&#45;&gt;Node7 -->
<g id="edge12" class="edge">
<title>Node6&#45;&gt;Node7</title>
<path fill="none" stroke="midnightblue" d="M458.06,-232.74C456.99,-200.01 455.82,-151.38 456.5,-109 456.6,-103.03 456.74,-96.74 456.91,-90.54"/>
<polygon fill="none" stroke="midnightblue" points="454.56,-232.91 458.4,-242.78 461.56,-232.67 454.56,-232.91"/>
</g>
<!-- Node7&#45;&gt;Node6 -->
<g id="edge11" class="edge">
<title>Node7&#45;&gt;Node6</title>
<path fill="none" stroke="#404040" d="M458.7,-90.61C458.88,-131.24 459.15,-191.01 459.32,-230.34"/>
<polygon fill="none" stroke="#404040" points="459.32,-230.58 463.35,-236.57 459.38,-242.58 455.35,-236.6 459.32,-230.58"/>
<text text-anchor="middle" x="485.5" y="-145" font-family="Helvetica,sans-Serif" font-size="10.00"> +AltSource</text>
<text text-anchor="middle" x="485.5" y="-134" font-family="Helvetica,sans-Serif" font-size="10.00">+AltTarget</text>
<text text-anchor="middle" x="485.5" y="-123" font-family="Helvetica,sans-Serif" font-size="10.00">+Source</text>
<text text-anchor="middle" x="485.5" y="-112" font-family="Helvetica,sans-Serif" font-size="10.00">+Target</text>
</g>
<!-- Node8&#45;&gt;Node2 -->
<g id="edge13" class="edge">
<title>Node8&#45;&gt;Node2</title>
<path fill="none" stroke="#404040" d="M588.85,-371.52C585.83,-381.74 582.11,-391.76 577.5,-401 576.04,-403.94 574.33,-406.83 572.46,-409.64"/>
<polygon fill="none" stroke="#404040" points="572.31,-409.82 571.9,-417.02 565.09,-419.41 565.51,-412.21 572.31,-409.82"/>
<text text-anchor="middle" x="598" y="-393" font-family="Helvetica,sans-Serif" font-size="10.00"> +Filter</text>
</g>
<!-- Node9&#45;&gt;Node2 -->
<g id="edge15" class="edge">
<title>Node9&#45;&gt;Node2</title>
<path fill="none" stroke="#404040" d="M762.74,-316.64C752.45,-344.69 735.21,-379.62 708.5,-401 672.31,-429.97 619.57,-440.79 581.85,-444.79"/>
<polygon fill="none" stroke="#404040" points="581.63,-444.81 576.02,-449.33 569.68,-445.9 575.29,-441.37 581.63,-444.81"/>
<text text-anchor="middle" x="755.5" y="-393" font-family="Helvetica,sans-Serif" font-size="10.00"> +DataProviders</text>
</g>
<!-- Node10&#45;&gt;Node2 -->
<g id="edge17" class="edge">
<title>Node10&#45;&gt;Node2</title>
<path fill="none" stroke="#404040" d="M934.14,-366.07C925.34,-379.59 914.58,-391.96 901.5,-401 850.65,-436.13 668.43,-444.43 581.84,-446.4"/>
<polygon fill="none" stroke="#404040" points="581.78,-446.4 575.86,-450.52 569.78,-446.64 575.7,-442.52 581.78,-446.4"/>
<text text-anchor="middle" x="955" y="-393" font-family="Helvetica,sans-Serif" font-size="10.00"> +ExtensionHooks</text>
</g>
<!-- Node11&#45;&gt;Node2 -->
<g id="edge19" class="edge">
<title>Node11&#45;&gt;Node2</title>
<path fill="none" stroke="#404040" d="M1125.9,-344.23C1118.55,-365.74 1106.91,-387.25 1088.5,-401 1048.29,-431.02 707.25,-442.65 581.67,-445.93"/>
<polygon fill="none" stroke="#404040" points="581.52,-445.94 575.62,-450.09 569.52,-446.24 575.42,-442.09 581.52,-445.94"/>
<text text-anchor="middle" x="1118" y="-393" font-family="Helvetica,sans-Serif" font-size="10.00"> +status</text>
</g>
</g>
</svg>
