<?xml version="1.0" encoding="UTF-8" standalone="no"?>
<!DOCTYPE svg PUBLIC "-//W3C//DTD SVG 1.1//EN"
 "http://www.w3.org/Graphics/SVG/1.1/DTD/svg11.dtd">
<!-- Generated by graphviz version 2.44.1 (20200629.0846)
 -->
<!-- Title: NPNZ_PORT_s Pages: 1 -->
<!--zoomable 590 -->
<svg id="main" version="1.1" xmlns="http://www.w3.org/2000/svg" xmlns:xlink="http://www.w3.org/1999/xlink" xml:space="preserve" onload="init(evt)">
<style type="text/css"><![CDATA[
.edge:hover path { stroke: red; }
.edge:hover polygon { stroke: red; fill: red; }
]]></style>
<script type="text/javascript"><![CDATA[
var edges = document.getElementsByTagName('g');
if (edges && edges.length) {
  for (var i=0;i<edges.length;i++) {
    if (edges[i].id.substr(0,4)=='edge') {
      edges[i].setAttribute('class','edge');
    }
  }
}
]]></script>
        <defs>
                <circle id="rim" cx="0" cy="0" r="7"/>
                <circle id="rim2" cx="0" cy="0" r="3.5"/>
                <g id="zoomPlus">
                        <use xlink:href="#rim" fill="#404040">
                                <set attributeName="fill" to="#808080" begin="zoomplus.mouseover" end="zoomplus.mouseout"/>
                        </use>
                        <path d="M-4,0h8M0,-4v8" fill="none" stroke="white" stroke-width="1.5" pointer-events="none"/>
                </g>
                <g id="zoomMin">
                        <use xlink:href="#rim" fill="#404040">
                                <set attributeName="fill" to="#808080" begin="zoomminus.mouseover" end="zoomminus.mouseout"/>
                        </use>
                        <path d="M-4,0h8" fill="none" stroke="white" stroke-width="1.5" pointer-events="none"/>
                </g>
                <g id="dirArrow">
                        <path fill="none" stroke="white" stroke-width="1.5" d="M0,-3.0v7 M-2.5,-0.5L0,-3.0L2.5,-0.5"/>
                </g>
               <g id="resetDef">
                       <use xlink:href="#rim2" fill="#404040">
                               <set attributeName="fill" to="#808080" begin="reset.mouseover" end="reset.mouseout"/>
                       </use>
               </g>
        </defs>

<script type="text/javascript">
var viewWidth = 1258;
var viewHeight = 590;
var sectionId = 'dynsection-1';
</script>
<script xlink:href="svgpan.js"/>
<svg id="graph" class="graph">
<g id="viewport">
<title>NPNZ_PORT_s</title>
<polygon fill="white" stroke="transparent" points="-4,4 -4,-586 1254,-586 1254,4 -4,4"/>
<!-- Node1 -->
<g id="node1" class="node">
<title>Node1</title>
<g id="a_node1"><a xlink:title="Data Input/Output Port declaration of memory addresses, signal offsets and normalization settings.">
<polygon fill="#bfbfbf" stroke="black" points="530.5,-491.5 530.5,-581.5 614.5,-581.5 614.5,-491.5 530.5,-491.5"/>
<text text-anchor="middle" x="572.5" y="-569.5" font-family="Helvetica,sans-Serif" font-size="10.00">NPNZ_PORT_s</text>
<polyline fill="none" stroke="black" points="530.5,-562.5 614.5,-562.5 "/>
<text text-anchor="start" x="538.5" y="-550.5" font-family="Helvetica,sans-Serif" font-size="10.00">+ ptrAddress</text>
<text text-anchor="start" x="538.5" y="-539.5" font-family="Helvetica,sans-Serif" font-size="10.00">+ NormScaler</text>
<text text-anchor="start" x="538.5" y="-528.5" font-family="Helvetica,sans-Serif" font-size="10.00">+ NormFactor</text>
<text text-anchor="start" x="538.5" y="-517.5" font-family="Helvetica,sans-Serif" font-size="10.00">+ Offset</text>
<polyline fill="none" stroke="black" points="530.5,-510.5 614.5,-510.5 "/>
<text text-anchor="middle" x="572.5" y="-498.5" font-family="Helvetica,sans-Serif" font-size="10.00"> </text>
</a>
</g>
</g>
<!-- Node2 -->
<g id="node2" class="node">
<title>Node2</title>
<g id="a_node2"><a xlink:href="a01527.html" target="_top" xlink:title="Filter Coefficient Arrays, Number Format Handling and Input/Output History Parameters.">
<polygon fill="white" stroke="black" points="517,-353.5 517,-410.5 628,-410.5 628,-353.5 517,-353.5"/>
<text text-anchor="middle" x="572.5" y="-398.5" font-family="Helvetica,sans-Serif" font-size="10.00">NPNZ_PORTS_s</text>
<polyline fill="none" stroke="black" points="517,-391.5 628,-391.5 "/>
<text text-anchor="start" x="525" y="-379.5" font-family="Helvetica,sans-Serif" font-size="10.00">+ ptrControlReference</text>
<polyline fill="none" stroke="black" points="517,-372.5 628,-372.5 "/>
<text text-anchor="middle" x="572.5" y="-360.5" font-family="Helvetica,sans-Serif" font-size="10.00"> </text>
</a>
</g>
</g>
<!-- Node1&#45;&gt;Node2 -->
<g id="edge20" class="edge">
<title>Node1&#45;&gt;Node2</title>
<path fill="none" stroke="#404040" d="M543.39,-491.32C540.57,-485.36 538.15,-479.17 536.5,-473 531.45,-454.11 530.13,-447.49 536.5,-429 537.43,-426.29 538.6,-423.62 539.94,-421.01"/>
<polygon fill="none" stroke="#404040" points="539.98,-420.94 539.69,-413.73 546.23,-410.69 546.52,-417.9 539.98,-420.94"/>
<text text-anchor="middle" x="562.5" y="-465" font-family="Helvetica,sans-Serif" font-size="10.00"> +AltSource</text>
<text text-anchor="middle" x="562.5" y="-454" font-family="Helvetica,sans-Serif" font-size="10.00">+AltTarget</text>
<text text-anchor="middle" x="562.5" y="-443" font-family="Helvetica,sans-Serif" font-size="10.00">+Source</text>
<text text-anchor="middle" x="562.5" y="-432" font-family="Helvetica,sans-Serif" font-size="10.00">+Target</text>
</g>
<!-- Node2&#45;&gt;Node1 -->
<g id="edge1" class="edge">
<title>Node2&#45;&gt;Node1</title>
<path fill="none" stroke="midnightblue" d="M590.1,-420.02C591.06,-423.01 591.88,-426.03 592.5,-429 596.48,-448.15 595.52,-453.68 592.5,-473 591.57,-478.97 590.17,-485.14 588.53,-491.18"/>
<polygon fill="none" stroke="midnightblue" points="593.39,-418.81 586.67,-410.62 586.81,-421.21 593.39,-418.81"/>
</g>
<!-- Node3 -->
<g id="node3" class="node">
<title>Node3</title>
<g id="a_node3"><a xlink:href="a01559.html" target="_top" xlink:title="Global NPNZ controller data object.">
<polygon fill="white" stroke="black" points="538.5,-248.5 538.5,-305.5 606.5,-305.5 606.5,-248.5 538.5,-248.5"/>
<text text-anchor="middle" x="572.5" y="-293.5" font-family="Helvetica,sans-Serif" font-size="10.00">NPNZ16b_s</text>
<polyline fill="none" stroke="black" points="538.5,-286.5 606.5,-286.5 "/>
<text text-anchor="middle" x="572.5" y="-274.5" font-family="Helvetica,sans-Serif" font-size="10.00"> </text>
<polyline fill="none" stroke="black" points="538.5,-267.5 606.5,-267.5 "/>
<text text-anchor="middle" x="572.5" y="-255.5" font-family="Helvetica,sans-Serif" font-size="10.00"> </text>
</a>
</g>
</g>
<!-- Node2&#45;&gt;Node3 -->
<g id="edge11" class="edge">
<title>Node2&#45;&gt;Node3</title>
<path fill="none" stroke="#404040" d="M553.14,-353.34C549.99,-347.53 547.2,-341.26 545.5,-335 543.85,-328.95 544.3,-322.75 545.98,-316.77"/>
<polygon fill="none" stroke="#404040" points="545.98,-316.77 544.54,-309.7 550.5,-305.66 551.95,-312.72 545.98,-316.77"/>
<text text-anchor="middle" x="562" y="-327" font-family="Helvetica,sans-Serif" font-size="10.00"> +Ports</text>
</g>
<!-- Node3&#45;&gt;Node2 -->
<g id="edge2" class="edge">
<title>Node3&#45;&gt;Node2</title>
<path fill="none" stroke="midnightblue" d="M582.13,-315.61C582.91,-322.06 583.18,-328.71 582.5,-335 581.85,-341.01 580.75,-347.39 579.5,-353.43"/>
<polygon fill="none" stroke="midnightblue" points="585.59,-315.04 580.54,-305.73 578.68,-316.16 585.59,-315.04"/>
</g>
<!-- Node4 -->
<g id="node4" class="node">
<title>Node4</title>
<g id="a_node4"><a xlink:href="a01543.html" target="_top" xlink:title="Automated ADC Trigger handling.">
<polygon fill="white" stroke="black" points="0,-55.5 0,-145.5 129,-145.5 129,-55.5 0,-55.5"/>
<text text-anchor="middle" x="64.5" y="-133.5" font-family="Helvetica,sans-Serif" font-size="10.00">NPNZ_ADC_TRGCTRL_s</text>
<polyline fill="none" stroke="black" points="0,-126.5 129,-126.5 "/>
<text text-anchor="start" x="8" y="-114.5" font-family="Helvetica,sans-Serif" font-size="10.00">+ ptrADCTriggerARegister</text>
<text text-anchor="start" x="8" y="-103.5" font-family="Helvetica,sans-Serif" font-size="10.00">+ ADCTriggerAOffset</text>
<text text-anchor="start" x="8" y="-92.5" font-family="Helvetica,sans-Serif" font-size="10.00">+ ptrADCTriggerBRegister</text>
<text text-anchor="start" x="8" y="-81.5" font-family="Helvetica,sans-Serif" font-size="10.00">+ ADCTriggerBOffset</text>
<polyline fill="none" stroke="black" points="0,-74.5 129,-74.5 "/>
<text text-anchor="middle" x="64.5" y="-62.5" font-family="Helvetica,sans-Serif" font-size="10.00"> </text>
</a>
</g>
</g>
<!-- Node3&#45;&gt;Node4 -->
<g id="edge4" class="edge">
<title>Node3&#45;&gt;Node4</title>
<path fill="none" stroke="midnightblue" d="M528.15,-275.06C435.73,-272.45 225.94,-262.96 163.5,-230 128.76,-211.66 102.48,-175.15 85.76,-145.72"/>
<polygon fill="none" stroke="midnightblue" points="528.21,-278.56 538.3,-275.33 528.4,-271.56 528.21,-278.56"/>
</g>
<!-- Node5 -->
<g id="node5" class="node">
<title>Node5</title>
<g id="a_node5"><a xlink:href="a01535.html" target="_top" xlink:title="Adaptive Gain Control Modulation Parameters.">
<polygon fill="white" stroke="black" points="147.5,-55.5 147.5,-145.5 279.5,-145.5 279.5,-55.5 147.5,-55.5"/>
<text text-anchor="middle" x="213.5" y="-133.5" font-family="Helvetica,sans-Serif" font-size="10.00">NPNZ_GAIN_CONTROL_s</text>
<polyline fill="none" stroke="black" points="147.5,-126.5 279.5,-126.5 "/>
<text text-anchor="start" x="155.5" y="-114.5" font-family="Helvetica,sans-Serif" font-size="10.00">+ AgcScaler</text>
<text text-anchor="start" x="155.5" y="-103.5" font-family="Helvetica,sans-Serif" font-size="10.00">+ AgcFactor</text>
<text text-anchor="start" x="155.5" y="-92.5" font-family="Helvetica,sans-Serif" font-size="10.00">+ AgcMedian</text>
<text text-anchor="start" x="155.5" y="-81.5" font-family="Helvetica,sans-Serif" font-size="10.00">+ ptrAgcObserverFunction</text>
<polyline fill="none" stroke="black" points="147.5,-74.5 279.5,-74.5 "/>
<text text-anchor="middle" x="213.5" y="-62.5" font-family="Helvetica,sans-Serif" font-size="10.00"> </text>
</a>
</g>
</g>
<!-- Node3&#45;&gt;Node5 -->
<g id="edge6" class="edge">
<title>Node3&#45;&gt;Node5</title>
<path fill="none" stroke="midnightblue" d="M527.83,-272.12C462.89,-265.81 346.26,-251.82 310.5,-230 277.69,-209.98 252.14,-174.4 235.52,-145.74"/>
<polygon fill="none" stroke="midnightblue" points="527.89,-275.64 538.17,-273.1 528.55,-268.67 527.89,-275.64"/>
</g>
<!-- Node6 -->
<g id="node6" class="node">
<title>Node6</title>
<g id="a_node6"><a xlink:href="a01539.html" target="_top" xlink:title="System Anti&#45;Windup (Output Clamping) Thresholds.">
<polygon fill="white" stroke="black" points="297.5,-55.5 297.5,-145.5 385.5,-145.5 385.5,-55.5 297.5,-55.5"/>
<text text-anchor="middle" x="341.5" y="-133.5" font-family="Helvetica,sans-Serif" font-size="10.00">NPNZ_LIMITS_s</text>
<polyline fill="none" stroke="black" points="297.5,-126.5 385.5,-126.5 "/>
<text text-anchor="start" x="305.5" y="-114.5" font-family="Helvetica,sans-Serif" font-size="10.00">+ MinOutput</text>
<text text-anchor="start" x="305.5" y="-103.5" font-family="Helvetica,sans-Serif" font-size="10.00">+ MaxOutput</text>
<text text-anchor="start" x="305.5" y="-92.5" font-family="Helvetica,sans-Serif" font-size="10.00">+ AltMinOutput</text>
<text text-anchor="start" x="305.5" y="-81.5" font-family="Helvetica,sans-Serif" font-size="10.00">+ AltMaxOutput</text>
<polyline fill="none" stroke="black" points="297.5,-74.5 385.5,-74.5 "/>
<text text-anchor="middle" x="341.5" y="-62.5" font-family="Helvetica,sans-Serif" font-size="10.00"> </text>
</a>
</g>
</g>
<!-- Node3&#45;&gt;Node6 -->
<g id="edge8" class="edge">
<title>Node3&#45;&gt;Node6</title>
<path fill="none" stroke="midnightblue" d="M528.53,-270.95C495.05,-265.35 449.15,-253.75 415.5,-230 386.68,-209.66 367.52,-174.29 355.92,-145.8"/>
<polygon fill="none" stroke="midnightblue" points="528.07,-274.42 538.49,-272.5 529.15,-267.5 528.07,-274.42"/>
</g>
<!-- Node7 -->
<g id="node7" class="node">
<title>Node7</title>
<g id="a_node7"><a xlink:href="a01555.html" target="_top" xlink:title="User Data Space for Advanced Control Functions.">
<polygon fill="white" stroke="black" points="403.5,-33.5 403.5,-167.5 563.5,-167.5 563.5,-33.5 403.5,-33.5"/>
<text text-anchor="middle" x="483.5" y="-155.5" font-family="Helvetica,sans-Serif" font-size="10.00">NPNZ_USER_DATA_BUFFER_s</text>
<polyline fill="none" stroke="black" points="403.5,-148.5 563.5,-148.5 "/>
<text text-anchor="start" x="411.5" y="-136.5" font-family="Helvetica,sans-Serif" font-size="10.00">+ usrParam0</text>
<text text-anchor="start" x="411.5" y="-125.5" font-family="Helvetica,sans-Serif" font-size="10.00">+ usrParam1</text>
<text text-anchor="start" x="411.5" y="-114.5" font-family="Helvetica,sans-Serif" font-size="10.00">+ usrParam2</text>
<text text-anchor="start" x="411.5" y="-103.5" font-family="Helvetica,sans-Serif" font-size="10.00">+ usrParam3</text>
<text text-anchor="start" x="411.5" y="-92.5" font-family="Helvetica,sans-Serif" font-size="10.00">+ usrParam4</text>
<text text-anchor="start" x="411.5" y="-81.5" font-family="Helvetica,sans-Serif" font-size="10.00">+ usrParam5</text>
<text text-anchor="start" x="411.5" y="-70.5" font-family="Helvetica,sans-Serif" font-size="10.00">+ usrParam6</text>
<text text-anchor="start" x="411.5" y="-59.5" font-family="Helvetica,sans-Serif" font-size="10.00">+ usrParam7</text>
<polyline fill="none" stroke="black" points="403.5,-52.5 563.5,-52.5 "/>
<text text-anchor="middle" x="483.5" y="-40.5" font-family="Helvetica,sans-Serif" font-size="10.00"> </text>
</a>
</g>
</g>
<!-- Node3&#45;&gt;Node7 -->
<g id="edge10" class="edge">
<title>Node3&#45;&gt;Node7</title>
<path fill="none" stroke="midnightblue" d="M535.95,-240.6C533.24,-237.16 530.71,-233.6 528.5,-230 516.82,-210.96 507.64,-188.46 500.69,-167.66"/>
<polygon fill="none" stroke="midnightblue" points="533.39,-242.99 542.52,-248.38 538.74,-238.48 533.39,-242.99"/>
</g>
<!-- Node8 -->
<g id="node8" class="node">
<title>Node8</title>
<g id="a_node8"><a xlink:href="a01531.html" target="_top" xlink:title="Filter Coefficient Arrays, Number Format Handling and Input/Output History Parameters.">
<polygon fill="white" stroke="black" points="582,-0.5 582,-200.5 719,-200.5 719,-0.5 582,-0.5"/>
<text text-anchor="middle" x="650.5" y="-188.5" font-family="Helvetica,sans-Serif" font-size="10.00">NPNZ_FILTER_PARAMS_s</text>
<polyline fill="none" stroke="black" points="582,-181.5 719,-181.5 "/>
<text text-anchor="start" x="590" y="-169.5" font-family="Helvetica,sans-Serif" font-size="10.00">+ ptrACoefficients</text>
<text text-anchor="start" x="590" y="-158.5" font-family="Helvetica,sans-Serif" font-size="10.00">+ ptrBCoefficients</text>
<text text-anchor="start" x="590" y="-147.5" font-family="Helvetica,sans-Serif" font-size="10.00">+ ptrControlHistory</text>
<text text-anchor="start" x="590" y="-136.5" font-family="Helvetica,sans-Serif" font-size="10.00">+ ptrErrorHistory</text>
<text text-anchor="start" x="590" y="-125.5" font-family="Helvetica,sans-Serif" font-size="10.00">+ ACoefficientsArraySize</text>
<text text-anchor="start" x="590" y="-114.5" font-family="Helvetica,sans-Serif" font-size="10.00">+ BCoefficientsArraySize</text>
<text text-anchor="start" x="590" y="-103.5" font-family="Helvetica,sans-Serif" font-size="10.00">+ ControlHistoryArraySize</text>
<text text-anchor="start" x="590" y="-92.5" font-family="Helvetica,sans-Serif" font-size="10.00">+ ErrorHistoryArraySize</text>
<text text-anchor="start" x="590" y="-81.5" font-family="Helvetica,sans-Serif" font-size="10.00">+ normPreShift</text>
<text text-anchor="start" x="590" y="-70.5" font-family="Helvetica,sans-Serif" font-size="10.00">+ normPostShiftA</text>
<text text-anchor="start" x="590" y="-59.5" font-family="Helvetica,sans-Serif" font-size="10.00">+ normPostShiftB</text>
<text text-anchor="start" x="590" y="-48.5" font-family="Helvetica,sans-Serif" font-size="10.00">+ normPostScaler</text>
<text text-anchor="start" x="590" y="-37.5" font-family="Helvetica,sans-Serif" font-size="10.00">+ PTermScaler</text>
<text text-anchor="start" x="590" y="-26.5" font-family="Helvetica,sans-Serif" font-size="10.00">+ PTermFactor</text>
<polyline fill="none" stroke="black" points="582,-19.5 719,-19.5 "/>
<text text-anchor="middle" x="650.5" y="-7.5" font-family="Helvetica,sans-Serif" font-size="10.00"> </text>
</a>
</g>
</g>
<!-- Node3&#45;&gt;Node8 -->
<g id="edge13" class="edge">
<title>Node3&#45;&gt;Node8</title>
<path fill="none" stroke="midnightblue" d="M588.96,-239.17C594.08,-227.71 599.99,-214.49 606.08,-200.87"/>
<polygon fill="none" stroke="midnightblue" points="585.74,-237.79 584.86,-248.35 592.14,-240.65 585.74,-237.79"/>
</g>
<!-- Node9 -->
<g id="node9" class="node">
<title>Node9</title>
<g id="a_node9"><a xlink:href="a01547.html" target="_top" xlink:title="Data Provider Target Memory Addresses.">
<polygon fill="white" stroke="black" points="737.5,-55.5 737.5,-145.5 911.5,-145.5 911.5,-55.5 737.5,-55.5"/>
<text text-anchor="middle" x="824.5" y="-133.5" font-family="Helvetica,sans-Serif" font-size="10.00">NPNZ_DATA_PROVIDERS_s</text>
<polyline fill="none" stroke="black" points="737.5,-126.5 911.5,-126.5 "/>
<text text-anchor="start" x="745.5" y="-114.5" font-family="Helvetica,sans-Serif" font-size="10.00">+ ptrDProvControlInput</text>
<text text-anchor="start" x="745.5" y="-103.5" font-family="Helvetica,sans-Serif" font-size="10.00">+ ptrDProvControlInputCompensated</text>
<text text-anchor="start" x="745.5" y="-92.5" font-family="Helvetica,sans-Serif" font-size="10.00">+ ptrDProvControlError</text>
<text text-anchor="start" x="745.5" y="-81.5" font-family="Helvetica,sans-Serif" font-size="10.00">+ ptrDProvControlOutput</text>
<polyline fill="none" stroke="black" points="737.5,-74.5 911.5,-74.5 "/>
<text text-anchor="middle" x="824.5" y="-62.5" font-family="Helvetica,sans-Serif" font-size="10.00"> </text>
</a>
</g>
</g>
<!-- Node3&#45;&gt;Node9 -->
<g id="edge15" class="edge">
<title>Node3&#45;&gt;Node9</title>
<path fill="none" stroke="midnightblue" d="M616.35,-259.6C648.68,-246.39 692.88,-225.94 727.5,-201 749.42,-185.2 770.73,-164.18 787.76,-145.54"/>
<polygon fill="none" stroke="midnightblue" points="614.69,-256.49 606.72,-263.46 617.3,-262.98 614.69,-256.49"/>
</g>
<!-- Node10 -->
<g id="node10" class="node">
<title>Node10</title>
<g id="a_node10"><a xlink:href="a01551.html" target="_top" xlink:title="User Extension Function Call Parameters.">
<polygon fill="white" stroke="black" points="930,-6 930,-195 1107,-195 1107,-6 930,-6"/>
<text text-anchor="middle" x="1018.5" y="-183" font-family="Helvetica,sans-Serif" font-size="10.00">NPNZ_EXTENSION_HOOKS_s</text>
<polyline fill="none" stroke="black" points="930,-176 1107,-176 "/>
<text text-anchor="start" x="938" y="-164" font-family="Helvetica,sans-Serif" font-size="10.00">+ ptrExtHookStartFunction</text>
<text text-anchor="start" x="938" y="-153" font-family="Helvetica,sans-Serif" font-size="10.00">+ ExtHookStartFunctionParam</text>
<text text-anchor="start" x="938" y="-142" font-family="Helvetica,sans-Serif" font-size="10.00">+ ptrExtHookSourceFunction</text>
<text text-anchor="start" x="938" y="-131" font-family="Helvetica,sans-Serif" font-size="10.00">+ ExtHookSourceFunctionParam</text>
<text text-anchor="start" x="938" y="-120" font-family="Helvetica,sans-Serif" font-size="10.00">+ ptrExtHookPreAntiWindupFunction</text>
<text text-anchor="start" x="938" y="-109" font-family="Helvetica,sans-Serif" font-size="10.00">+ ExtHookPreAntiWindupFunction</text>
<text text-anchor="start" x="938" y="-98" font-family="Helvetica,sans-Serif" font-size="10.00">Param</text>
<text text-anchor="start" x="938" y="-87" font-family="Helvetica,sans-Serif" font-size="10.00">+ ptrExtHookTargetFunction</text>
<text text-anchor="start" x="938" y="-76" font-family="Helvetica,sans-Serif" font-size="10.00">+ ExtHookTargetFunctionParam</text>
<text text-anchor="start" x="938" y="-65" font-family="Helvetica,sans-Serif" font-size="10.00">+ ptrExtHookStopFunction</text>
<text text-anchor="start" x="938" y="-54" font-family="Helvetica,sans-Serif" font-size="10.00">+ ExtHookStopFunctionParam</text>
<text text-anchor="start" x="938" y="-43" font-family="Helvetica,sans-Serif" font-size="10.00">+ ptrExtHookEndFunction</text>
<text text-anchor="start" x="938" y="-32" font-family="Helvetica,sans-Serif" font-size="10.00">+ ExtHookEndFunctionParam</text>
<polyline fill="none" stroke="black" points="930,-25 1107,-25 "/>
<text text-anchor="middle" x="1018.5" y="-13" font-family="Helvetica,sans-Serif" font-size="10.00"> </text>
</a>
</g>
</g>
<!-- Node3&#45;&gt;Node10 -->
<g id="edge17" class="edge">
<title>Node3&#45;&gt;Node10</title>
<path fill="none" stroke="midnightblue" d="M616.92,-276.25C687.02,-274.62 825.14,-263.01 920.5,-201 923.65,-198.95 926.78,-196.79 929.88,-194.53"/>
<polygon fill="none" stroke="midnightblue" points="616.61,-272.76 606.67,-276.43 616.73,-279.76 616.61,-272.76"/>
</g>
<!-- Node11 -->
<g id="node11" class="node">
<title>Node11</title>
<g id="a_node11"><a xlink:href="a01507.html" target="_top" xlink:title="NPNZ16b controller object status and control word.">
<polygon fill="white" stroke="black" points="1125,-28 1125,-173 1250,-173 1250,-28 1125,-28"/>
<text text-anchor="middle" x="1187.5" y="-161" font-family="Helvetica,sans-Serif" font-size="10.00">NPNZ_STATUS_s</text>
<polyline fill="none" stroke="black" points="1125,-154 1250,-154 "/>
<text text-anchor="start" x="1133" y="-142" font-family="Helvetica,sans-Serif" font-size="10.00">+ lower_saturation_event</text>
<text text-anchor="start" x="1133" y="-131" font-family="Helvetica,sans-Serif" font-size="10.00">+ upper_saturation_event</text>
<text text-anchor="start" x="1133" y="-120" font-family="Helvetica,sans-Serif" font-size="10.00">+ unsigned</text>
<text text-anchor="start" x="1133" y="-109" font-family="Helvetica,sans-Serif" font-size="10.00">+ agc_enabled</text>
<text text-anchor="start" x="1133" y="-98" font-family="Helvetica,sans-Serif" font-size="10.00">+ swap_target</text>
<text text-anchor="start" x="1133" y="-87" font-family="Helvetica,sans-Serif" font-size="10.00">+ swap_source</text>
<text text-anchor="start" x="1133" y="-76" font-family="Helvetica,sans-Serif" font-size="10.00">+ invert_input</text>
<text text-anchor="start" x="1133" y="-65" font-family="Helvetica,sans-Serif" font-size="10.00">+ enabled</text>
<text text-anchor="start" x="1133" y="-54" font-family="Helvetica,sans-Serif" font-size="10.00">+ value</text>
<polyline fill="none" stroke="black" points="1125,-47 1250,-47 "/>
<text text-anchor="middle" x="1187.5" y="-35" font-family="Helvetica,sans-Serif" font-size="10.00"> </text>
</a>
</g>
</g>
<!-- Node3&#45;&gt;Node11 -->
<g id="edge19" class="edge">
<title>Node3&#45;&gt;Node11</title>
<path fill="none" stroke="midnightblue" d="M616.67,-276.28C701.68,-275.84 893.38,-270.01 1048.5,-230 1079.92,-221.9 1090.2,-221.31 1115.5,-201 1125.48,-192.99 1134.73,-183.27 1143.06,-173.08"/>
<polygon fill="none" stroke="midnightblue" points="616.59,-272.78 606.6,-276.31 616.61,-279.78 616.59,-272.78"/>
</g>
<!-- Node4&#45;&gt;Node3 -->
<g id="edge3" class="edge">
<title>Node4&#45;&gt;Node3</title>
<path fill="none" stroke="#404040" d="M90.24,-145.66C102.92,-164.56 119.56,-185.73 138.5,-201 162.81,-220.6 172.44,-221.53 202.5,-230 316.09,-262 455.53,-271.75 526.41,-274.71"/>
<polygon fill="none" stroke="#404040" points="526.42,-274.71 532.57,-270.95 538.41,-275.18 532.26,-278.94 526.42,-274.71"/>
<text text-anchor="middle" x="247.5" y="-222" font-family="Helvetica,sans-Serif" font-size="10.00"> +ADCTriggerControl</text>
</g>
<!-- Node5&#45;&gt;Node3 -->
<g id="edge5" class="edge">
<title>Node5&#45;&gt;Node3</title>
<path fill="none" stroke="#404040" d="M241.13,-145.77C254.04,-164.25 270.53,-185.07 288.5,-201 355.62,-260.49 464.57,-273.64 526.19,-276.04"/>
<polygon fill="none" stroke="#404040" points="526.22,-276.04 532.34,-272.22 538.22,-276.4 532.1,-280.22 526.22,-276.04"/>
<text text-anchor="middle" x="358" y="-222" font-family="Helvetica,sans-Serif" font-size="10.00"> +GainControl</text>
</g>
<!-- Node6&#45;&gt;Node3 -->
<g id="edge7" class="edge">
<title>Node6&#45;&gt;Node3</title>
<path fill="none" stroke="#404040" d="M357.24,-145.74C365.82,-164.76 378.1,-186.02 394.5,-201 432.01,-235.25 487.44,-255.23 526.46,-265.83"/>
<polygon fill="none" stroke="#404040" points="526.64,-265.88 533.46,-263.51 538.26,-268.89 531.45,-271.25 526.64,-265.88"/>
<text text-anchor="middle" x="451.5" y="-222" font-family="Helvetica,sans-Serif" font-size="10.00"> +Limits</text>
</g>
<!-- Node7&#45;&gt;Node3 -->
<g id="edge9" class="edge">
<title>Node7&#45;&gt;Node3</title>
<path fill="none" stroke="#404040" d="M507.6,-167.75C516.03,-188.23 526.24,-210.52 537.5,-230 539.04,-232.66 540.71,-235.34 542.46,-238"/>
<polygon fill="none" stroke="#404040" points="542.62,-238.23 549.33,-240.86 549.49,-248.07 542.77,-245.44 542.62,-238.23"/>
<text text-anchor="middle" x="563.5" y="-222" font-family="Helvetica,sans-Serif" font-size="10.00"> +Advanced</text>
</g>
<!-- Node8&#45;&gt;Node3 -->
<g id="edge12" class="edge">
<title>Node8&#45;&gt;Node3</title>
<path fill="none" stroke="#404040" d="M637.28,-200.73C633.92,-210.97 629.73,-220.93 624.5,-230 621.93,-234.46 618.76,-238.72 615.28,-242.71"/>
<polygon fill="none" stroke="#404040" points="615.06,-242.93 613.74,-250.02 606.68,-251.52 608.01,-244.44 615.06,-242.93"/>
<text text-anchor="middle" x="645" y="-222" font-family="Helvetica,sans-Serif" font-size="10.00"> +Filter</text>
</g>
<!-- Node9&#45;&gt;Node3 -->
<g id="edge14" class="edge">
<title>Node9&#45;&gt;Node3</title>
<path fill="none" stroke="#404040" d="M811.86,-145.78C801.61,-173.89 784.38,-208.83 757.5,-230 717.76,-261.29 659.54,-271.61 619.06,-274.85"/>
<polygon fill="none" stroke="#404040" points="618.82,-274.87 613.1,-279.26 606.85,-275.66 612.57,-271.27 618.82,-274.87"/>
<text text-anchor="middle" x="804.5" y="-222" font-family="Helvetica,sans-Serif" font-size="10.00"> +DataProviders</text>
</g>
<!-- Node10&#45;&gt;Node3 -->
<g id="edge16" class="edge">
<title>Node10&#45;&gt;Node3</title>
<path fill="none" stroke="#404040" d="M983.17,-195.12C974.37,-208.63 963.6,-220.99 950.5,-230 897.62,-266.37 707.52,-274.03 618.76,-275.61"/>
<polygon fill="none" stroke="#404040" points="618.68,-275.61 612.74,-279.71 606.68,-275.8 612.62,-271.71 618.68,-275.61"/>
<text text-anchor="middle" x="1004" y="-222" font-family="Helvetica,sans-Serif" font-size="10.00"> +ExtensionHooks</text>
</g>
<!-- Node11&#45;&gt;Node3 -->
<g id="edge18" class="edge">
<title>Node11&#45;&gt;Node3</title>
<path fill="none" stroke="#404040" d="M1174.91,-173.25C1167.56,-194.76 1155.93,-216.27 1137.5,-230 1096.35,-260.67 747.16,-271.9 619.23,-275.01"/>
<polygon fill="none" stroke="#404040" points="618.85,-275.02 612.95,-279.16 606.85,-275.3 612.76,-271.16 618.85,-275.02"/>
<text text-anchor="middle" x="1167" y="-222" font-family="Helvetica,sans-Serif" font-size="10.00"> +status</text>
</g>
</g>
</svg>
        <g id="navigator" transform="translate(0 0)" fill="#404254">
                <rect fill="#f2f5e9" fill-opacity="0.5" stroke="#606060" stroke-width=".5" x="0" y="0" width="60" height="60"/>
                <use id="zoomplus" xlink:href="#zoomPlus" x="17" y="9" onmousedown="handleZoom(evt,'in')"/>
                <use id="zoomminus" xlink:href="#zoomMin" x="42" y="9" onmousedown="handleZoom(evt,'out')"/>
                <use id="reset" xlink:href="#resetDef" x="30" y="36" onmousedown="handleReset()"/>
                <g id="arrowUp" xlink:href="#dirArrow" transform="translate(30 24)" onmousedown="handlePan(0,-1)">
                  <use xlink:href="#rim" fill="#404040">
                        <set attributeName="fill" to="#808080" begin="arrowUp.mouseover" end="arrowUp.mouseout"/>
                  </use>
                  <path fill="none" stroke="white" stroke-width="1.5" d="M0,-3.0v7 M-2.5,-0.5L0,-3.0L2.5,-0.5"/>
                </g>
                <g id="arrowRight" xlink:href="#dirArrow" transform="rotate(90) translate(36 -43)" onmousedown="handlePan(1,0)">
                  <use xlink:href="#rim" fill="#404040">
                        <set attributeName="fill" to="#808080" begin="arrowRight.mouseover" end="arrowRight.mouseout"/>
                  </use>
                  <path fill="none" stroke="white" stroke-width="1.5" d="M0,-3.0v7 M-2.5,-0.5L0,-3.0L2.5,-0.5"/>
                </g>
                <g id="arrowDown" xlink:href="#dirArrow" transform="rotate(180) translate(-30 -48)" onmousedown="handlePan(0,1)">
                  <use xlink:href="#rim" fill="#404040">
                        <set attributeName="fill" to="#808080" begin="arrowDown.mouseover" end="arrowDown.mouseout"/>
                  </use>
                  <path fill="none" stroke="white" stroke-width="1.5" d="M0,-3.0v7 M-2.5,-0.5L0,-3.0L2.5,-0.5"/>
                </g>
                <g id="arrowLeft" xlink:href="#dirArrow" transform="rotate(270) translate(-36 17)" onmousedown="handlePan(-1,0)">
                  <use xlink:href="#rim" fill="#404040">
                        <set attributeName="fill" to="#808080" begin="arrowLeft.mouseover" end="arrowLeft.mouseout"/>
                  </use>
                  <path fill="none" stroke="white" stroke-width="1.5" d="M0,-3.0v7 M-2.5,-0.5L0,-3.0L2.5,-0.5"/>
                </g>
        </g>
        <svg viewBox="0 0 15 15" width="100%" height="30px" preserveAspectRatio="xMaxYMin meet">
         <g id="arrow_out" transform="scale(0.3 0.3)">
          <a xlink:href="a01521_org.svg" target="_base">
           <rect id="button" ry="5" rx="5" y="6" x="6" height="38" width="38"
                fill="#f2f5e9" fill-opacity="0.5" stroke="#606060" stroke-width="1.0"/>
           <path id="arrow"
             d="M 11.500037,31.436501 C 11.940474,20.09759 22.043105,11.32322 32.158766,21.979434 L 37.068811,17.246167 C 37.068811,17.246167 37.088388,32 37.088388,32 L 22.160133,31.978069 C 22.160133,31.978069 26.997745,27.140456 26.997745,27.140456 C 18.528582,18.264221 13.291696,25.230495 11.500037,31.436501 z"
             style="fill:#404040;"/>
          </a>
         </g>
        </svg>
</svg>
