<?xml version="1.0" encoding="UTF-8" standalone="no"?>
<!DOCTYPE svg PUBLIC "-//W3C//DTD SVG 1.1//EN"
 "http://www.w3.org/Graphics/SVG/1.1/DTD/svg11.dtd">
<!-- Generated by graphviz version 2.44.1 (20200629.0846)
 -->
<!-- Title: NPNZ_ADC_TRGCTRL_s Pages: 1 -->
<!--zoomable 623 -->
<svg id="main" version="1.1" xmlns="http://www.w3.org/2000/svg" xmlns:xlink="http://www.w3.org/1999/xlink" xml:space="preserve" onload="init(evt)">
<style type="text/css"><![CDATA[
.edge:hover path { stroke: red; }
.edge:hover polygon { stroke: red; fill: red; }
]]></style>
<script type="text/javascript"><![CDATA[
var edges = document.getElementsByTagName('g');
if (edges && edges.length) {
  for (var i=0;i<edges.length;i++) {
    if (edges[i].id.substr(0,4)=='edge') {
      edges[i].setAttribute('class','edge');
    }
  }
}
]]></script>
        <defs>
                <circle id="rim" cx="0" cy="0" r="7"/>
                <circle id="rim2" cx="0" cy="0" r="3.5"/>
                <g id="zoomPlus">
                        <use xlink:href="#rim" fill="#404040">
                                <set attributeName="fill" to="#808080" begin="zoomplus.mouseover" end="zoomplus.mouseout"/>
                        </use>
                        <path d="M-4,0h8M0,-4v8" fill="none" stroke="white" stroke-width="1.5" pointer-events="none"/>
                </g>
                <g id="zoomMin">
                        <use xlink:href="#rim" fill="#404040">
                                <set attributeName="fill" to="#808080" begin="zoomminus.mouseover" end="zoomminus.mouseout"/>
                        </use>
                        <path d="M-4,0h8" fill="none" stroke="white" stroke-width="1.5" pointer-events="none"/>
                </g>
                <g id="dirArrow">
                        <path fill="none" stroke="white" stroke-width="1.5" d="M0,-3.0v7 M-2.5,-0.5L0,-3.0L2.5,-0.5"/>
                </g>
               <g id="resetDef">
                       <use xlink:href="#rim2" fill="#404040">
                               <set attributeName="fill" to="#808080" begin="reset.mouseover" end="reset.mouseout"/>
                       </use>
               </g>
        </defs>

<script type="text/javascript">
var viewWidth = 1240;
var viewHeight = 623;
var sectionId = 'dynsection-1';
</script>
<script xlink:href="svgpan.js"/>
<svg id="graph" class="graph">
<g id="viewport">
<title>NPNZ_ADC_TRGCTRL_s</title>
<polygon fill="white" stroke="transparent" points="-4,4 -4,-619 1235.5,-619 1235.5,4 -4,4"/>
<!-- Node1 -->
<g id="node1" class="node">
<title>Node1</title>
<g id="a_node1"><a xlink:title="Automated ADC Trigger handling.">
<polygon fill="#bfbfbf" stroke="black" points="501.5,-524.5 501.5,-614.5 630.5,-614.5 630.5,-524.5 501.5,-524.5"/>
<text text-anchor="middle" x="566" y="-602.5" font-family="Helvetica,sans-Serif" font-size="10.00">NPNZ_ADC_TRGCTRL_s</text>
<polyline fill="none" stroke="black" points="501.5,-595.5 630.5,-595.5 "/>
<text text-anchor="start" x="509.5" y="-583.5" font-family="Helvetica,sans-Serif" font-size="10.00">+ ptrADCTriggerARegister</text>
<text text-anchor="start" x="509.5" y="-572.5" font-family="Helvetica,sans-Serif" font-size="10.00">+ ADCTriggerAOffset</text>
<text text-anchor="start" x="509.5" y="-561.5" font-family="Helvetica,sans-Serif" font-size="10.00">+ ptrADCTriggerBRegister</text>
<text text-anchor="start" x="509.5" y="-550.5" font-family="Helvetica,sans-Serif" font-size="10.00">+ ADCTriggerBOffset</text>
<polyline fill="none" stroke="black" points="501.5,-543.5 630.5,-543.5 "/>
<text text-anchor="middle" x="566" y="-531.5" font-family="Helvetica,sans-Serif" font-size="10.00"> </text>
</a>
</g>
</g>
<!-- Node2 -->
<g id="node2" class="node">
<title>Node2</title>
<g id="a_node2"><a xlink:href="a01559.html" target="_top" xlink:title="Global NPNZ controller data object.">
<polygon fill="white" stroke="black" points="532,-419.5 532,-476.5 600,-476.5 600,-419.5 532,-419.5"/>
<text text-anchor="middle" x="566" y="-464.5" font-family="Helvetica,sans-Serif" font-size="10.00">NPNZ16b_s</text>
<polyline fill="none" stroke="black" points="532,-457.5 600,-457.5 "/>
<text text-anchor="middle" x="566" y="-445.5" font-family="Helvetica,sans-Serif" font-size="10.00"> </text>
<polyline fill="none" stroke="black" points="532,-438.5 600,-438.5 "/>
<text text-anchor="middle" x="566" y="-426.5" font-family="Helvetica,sans-Serif" font-size="10.00"> </text>
</a>
</g>
</g>
<!-- Node1&#45;&gt;Node2 -->
<g id="edge2" class="edge">
<title>Node1&#45;&gt;Node2</title>
<path fill="none" stroke="#404040" d="M520.68,-524.26C516.77,-518.48 513.4,-512.36 511,-506 506.47,-493.98 512.56,-483.15 522.14,-474.23"/>
<polygon fill="none" stroke="#404040" points="522.32,-474.08 524.51,-467.21 531.7,-466.6 529.5,-473.47 522.32,-474.08"/>
<text text-anchor="middle" x="556" y="-498" font-family="Helvetica,sans-Serif" font-size="10.00"> +ADCTriggerControl</text>
</g>
<!-- Node2&#45;&gt;Node1 -->
<g id="edge1" class="edge">
<title>Node2&#45;&gt;Node1</title>
<path fill="none" stroke="midnightblue" d="M602.99,-485.76C605.87,-492.17 607,-499.03 605,-506 603.24,-512.15 600.68,-518.28 597.7,-524.16"/>
<polygon fill="none" stroke="midnightblue" points="605.77,-483.57 597.68,-476.73 599.73,-487.13 605.77,-483.57"/>
</g>
<!-- Node3 -->
<g id="node3" class="node">
<title>Node3</title>
<g id="a_node3"><a xlink:href="a01535.html" target="_top" xlink:title="Adaptive Gain Control Modulation Parameters.">
<polygon fill="white" stroke="black" points="0,-226.5 0,-316.5 132,-316.5 132,-226.5 0,-226.5"/>
<text text-anchor="middle" x="66" y="-304.5" font-family="Helvetica,sans-Serif" font-size="10.00">NPNZ_GAIN_CONTROL_s</text>
<polyline fill="none" stroke="black" points="0,-297.5 132,-297.5 "/>
<text text-anchor="start" x="8" y="-285.5" font-family="Helvetica,sans-Serif" font-size="10.00">+ AgcScaler</text>
<text text-anchor="start" x="8" y="-274.5" font-family="Helvetica,sans-Serif" font-size="10.00">+ AgcFactor</text>
<text text-anchor="start" x="8" y="-263.5" font-family="Helvetica,sans-Serif" font-size="10.00">+ AgcMedian</text>
<text text-anchor="start" x="8" y="-252.5" font-family="Helvetica,sans-Serif" font-size="10.00">+ ptrAgcObserverFunction</text>
<polyline fill="none" stroke="black" points="0,-245.5 132,-245.5 "/>
<text text-anchor="middle" x="66" y="-233.5" font-family="Helvetica,sans-Serif" font-size="10.00"> </text>
</a>
</g>
</g>
<!-- Node2&#45;&gt;Node3 -->
<g id="edge4" class="edge">
<title>Node2&#45;&gt;Node3</title>
<path fill="none" stroke="midnightblue" d="M521.8,-446.28C430.25,-444.1 223.39,-435.4 163,-401 129.36,-381.84 103.73,-345.8 87.29,-316.75"/>
<polygon fill="none" stroke="midnightblue" points="521.78,-449.78 531.86,-446.5 521.94,-442.78 521.78,-449.78"/>
</g>
<!-- Node4 -->
<g id="node4" class="node">
<title>Node4</title>
<g id="a_node4"><a xlink:href="a01539.html" target="_top" xlink:title="System Anti&#45;Windup (Output Clamping) Thresholds.">
<polygon fill="white" stroke="black" points="150,-226.5 150,-316.5 238,-316.5 238,-226.5 150,-226.5"/>
<text text-anchor="middle" x="194" y="-304.5" font-family="Helvetica,sans-Serif" font-size="10.00">NPNZ_LIMITS_s</text>
<polyline fill="none" stroke="black" points="150,-297.5 238,-297.5 "/>
<text text-anchor="start" x="158" y="-285.5" font-family="Helvetica,sans-Serif" font-size="10.00">+ MinOutput</text>
<text text-anchor="start" x="158" y="-274.5" font-family="Helvetica,sans-Serif" font-size="10.00">+ MaxOutput</text>
<text text-anchor="start" x="158" y="-263.5" font-family="Helvetica,sans-Serif" font-size="10.00">+ AltMinOutput</text>
<text text-anchor="start" x="158" y="-252.5" font-family="Helvetica,sans-Serif" font-size="10.00">+ AltMaxOutput</text>
<polyline fill="none" stroke="black" points="150,-245.5 238,-245.5 "/>
<text text-anchor="middle" x="194" y="-233.5" font-family="Helvetica,sans-Serif" font-size="10.00"> </text>
</a>
</g>
</g>
<!-- Node2&#45;&gt;Node4 -->
<g id="edge6" class="edge">
<title>Node2&#45;&gt;Node4</title>
<path fill="none" stroke="midnightblue" d="M521.81,-443.7C450.82,-437.8 315.1,-423.88 273,-401 240.67,-383.43 220.03,-346.44 207.99,-316.64"/>
<polygon fill="none" stroke="midnightblue" points="521.54,-447.19 531.79,-444.51 522.11,-440.21 521.54,-447.19"/>
</g>
<!-- Node5 -->
<g id="node5" class="node">
<title>Node5</title>
<g id="a_node5"><a xlink:href="a01555.html" target="_top" xlink:title="User Data Space for Advanced Control Functions.">
<polygon fill="white" stroke="black" points="256,-204.5 256,-338.5 416,-338.5 416,-204.5 256,-204.5"/>
<text text-anchor="middle" x="336" y="-326.5" font-family="Helvetica,sans-Serif" font-size="10.00">NPNZ_USER_DATA_BUFFER_s</text>
<polyline fill="none" stroke="black" points="256,-319.5 416,-319.5 "/>
<text text-anchor="start" x="264" y="-307.5" font-family="Helvetica,sans-Serif" font-size="10.00">+ usrParam0</text>
<text text-anchor="start" x="264" y="-296.5" font-family="Helvetica,sans-Serif" font-size="10.00">+ usrParam1</text>
<text text-anchor="start" x="264" y="-285.5" font-family="Helvetica,sans-Serif" font-size="10.00">+ usrParam2</text>
<text text-anchor="start" x="264" y="-274.5" font-family="Helvetica,sans-Serif" font-size="10.00">+ usrParam3</text>
<text text-anchor="start" x="264" y="-263.5" font-family="Helvetica,sans-Serif" font-size="10.00">+ usrParam4</text>
<text text-anchor="start" x="264" y="-252.5" font-family="Helvetica,sans-Serif" font-size="10.00">+ usrParam5</text>
<text text-anchor="start" x="264" y="-241.5" font-family="Helvetica,sans-Serif" font-size="10.00">+ usrParam6</text>
<text text-anchor="start" x="264" y="-230.5" font-family="Helvetica,sans-Serif" font-size="10.00">+ usrParam7</text>
<polyline fill="none" stroke="black" points="256,-223.5 416,-223.5 "/>
<text text-anchor="middle" x="336" y="-211.5" font-family="Helvetica,sans-Serif" font-size="10.00"> </text>
</a>
</g>
</g>
<!-- Node2&#45;&gt;Node5 -->
<g id="edge8" class="edge">
<title>Node2&#45;&gt;Node5</title>
<path fill="none" stroke="midnightblue" d="M522.37,-434.42C500.14,-426.8 473.37,-415.69 452,-401 427.23,-383.97 404.12,-360.64 385.14,-338.53"/>
<polygon fill="none" stroke="midnightblue" points="521.31,-437.76 531.9,-437.57 523.51,-431.11 521.31,-437.76"/>
</g>
<!-- Node6 -->
<g id="node6" class="node">
<title>Node6</title>
<g id="a_node6"><a xlink:href="a01527.html" target="_top" xlink:title="Filter Coefficient Arrays, Number Format Handling and Input/Output History Parameters.">
<polygon fill="white" stroke="black" points="434.5,-243 434.5,-300 545.5,-300 545.5,-243 434.5,-243"/>
<text text-anchor="middle" x="490" y="-288" font-family="Helvetica,sans-Serif" font-size="10.00">NPNZ_PORTS_s</text>
<polyline fill="none" stroke="black" points="434.5,-281 545.5,-281 "/>
<text text-anchor="start" x="442.5" y="-269" font-family="Helvetica,sans-Serif" font-size="10.00">+ ptrControlReference</text>
<polyline fill="none" stroke="black" points="434.5,-262 545.5,-262 "/>
<text text-anchor="middle" x="490" y="-250" font-family="Helvetica,sans-Serif" font-size="10.00"> </text>
</a>
</g>
</g>
<!-- Node2&#45;&gt;Node6 -->
<g id="edge10" class="edge">
<title>Node2&#45;&gt;Node6</title>
<path fill="none" stroke="midnightblue" d="M542.92,-410.47C541.18,-407.31 539.52,-404.12 538,-401 521.67,-367.37 507.31,-326.66 498.65,-300.2"/>
<polygon fill="none" stroke="midnightblue" points="539.95,-412.32 547.96,-419.25 546.02,-408.84 539.95,-412.32"/>
</g>
<!-- Node8 -->
<g id="node8" class="node">
<title>Node8</title>
<g id="a_node8"><a xlink:href="a01531.html" target="_top" xlink:title="Filter Coefficient Arrays, Number Format Handling and Input/Output History Parameters.">
<polygon fill="white" stroke="black" points="563.5,-171.5 563.5,-371.5 700.5,-371.5 700.5,-171.5 563.5,-171.5"/>
<text text-anchor="middle" x="632" y="-359.5" font-family="Helvetica,sans-Serif" font-size="10.00">NPNZ_FILTER_PARAMS_s</text>
<polyline fill="none" stroke="black" points="563.5,-352.5 700.5,-352.5 "/>
<text text-anchor="start" x="571.5" y="-340.5" font-family="Helvetica,sans-Serif" font-size="10.00">+ ptrACoefficients</text>
<text text-anchor="start" x="571.5" y="-329.5" font-family="Helvetica,sans-Serif" font-size="10.00">+ ptrBCoefficients</text>
<text text-anchor="start" x="571.5" y="-318.5" font-family="Helvetica,sans-Serif" font-size="10.00">+ ptrControlHistory</text>
<text text-anchor="start" x="571.5" y="-307.5" font-family="Helvetica,sans-Serif" font-size="10.00">+ ptrErrorHistory</text>
<text text-anchor="start" x="571.5" y="-296.5" font-family="Helvetica,sans-Serif" font-size="10.00">+ ACoefficientsArraySize</text>
<text text-anchor="start" x="571.5" y="-285.5" font-family="Helvetica,sans-Serif" font-size="10.00">+ BCoefficientsArraySize</text>
<text text-anchor="start" x="571.5" y="-274.5" font-family="Helvetica,sans-Serif" font-size="10.00">+ ControlHistoryArraySize</text>
<text text-anchor="start" x="571.5" y="-263.5" font-family="Helvetica,sans-Serif" font-size="10.00">+ ErrorHistoryArraySize</text>
<text text-anchor="start" x="571.5" y="-252.5" font-family="Helvetica,sans-Serif" font-size="10.00">+ normPreShift</text>
<text text-anchor="start" x="571.5" y="-241.5" font-family="Helvetica,sans-Serif" font-size="10.00">+ normPostShiftA</text>
<text text-anchor="start" x="571.5" y="-230.5" font-family="Helvetica,sans-Serif" font-size="10.00">+ normPostShiftB</text>
<text text-anchor="start" x="571.5" y="-219.5" font-family="Helvetica,sans-Serif" font-size="10.00">+ normPostScaler</text>
<text text-anchor="start" x="571.5" y="-208.5" font-family="Helvetica,sans-Serif" font-size="10.00">+ PTermScaler</text>
<text text-anchor="start" x="571.5" y="-197.5" font-family="Helvetica,sans-Serif" font-size="10.00">+ PTermFactor</text>
<polyline fill="none" stroke="black" points="563.5,-190.5 700.5,-190.5 "/>
<text text-anchor="middle" x="632" y="-178.5" font-family="Helvetica,sans-Serif" font-size="10.00"> </text>
</a>
</g>
</g>
<!-- Node2&#45;&gt;Node8 -->
<g id="edge14" class="edge">
<title>Node2&#45;&gt;Node8</title>
<path fill="none" stroke="midnightblue" d="M580.06,-409.83C584.36,-398.45 589.32,-385.36 594.42,-371.87"/>
<polygon fill="none" stroke="midnightblue" points="576.72,-408.76 576.46,-419.35 583.27,-411.23 576.72,-408.76"/>
</g>
<!-- Node9 -->
<g id="node9" class="node">
<title>Node9</title>
<g id="a_node9"><a xlink:href="a01547.html" target="_top" xlink:title="Data Provider Target Memory Addresses.">
<polygon fill="white" stroke="black" points="719,-226.5 719,-316.5 893,-316.5 893,-226.5 719,-226.5"/>
<text text-anchor="middle" x="806" y="-304.5" font-family="Helvetica,sans-Serif" font-size="10.00">NPNZ_DATA_PROVIDERS_s</text>
<polyline fill="none" stroke="black" points="719,-297.5 893,-297.5 "/>
<text text-anchor="start" x="727" y="-285.5" font-family="Helvetica,sans-Serif" font-size="10.00">+ ptrDProvControlInput</text>
<text text-anchor="start" x="727" y="-274.5" font-family="Helvetica,sans-Serif" font-size="10.00">+ ptrDProvControlInputCompensated</text>
<text text-anchor="start" x="727" y="-263.5" font-family="Helvetica,sans-Serif" font-size="10.00">+ ptrDProvControlError</text>
<text text-anchor="start" x="727" y="-252.5" font-family="Helvetica,sans-Serif" font-size="10.00">+ ptrDProvControlOutput</text>
<polyline fill="none" stroke="black" points="719,-245.5 893,-245.5 "/>
<text text-anchor="middle" x="806" y="-233.5" font-family="Helvetica,sans-Serif" font-size="10.00"> </text>
</a>
</g>
</g>
<!-- Node2&#45;&gt;Node9 -->
<g id="edge16" class="edge">
<title>Node2&#45;&gt;Node9</title>
<path fill="none" stroke="midnightblue" d="M609.33,-428.64C638.82,-415.13 677.97,-395.13 709,-372 730.47,-356 751.56,-335.16 768.56,-316.7"/>
<polygon fill="none" stroke="midnightblue" points="607.79,-425.49 600.12,-432.8 610.67,-431.87 607.79,-425.49"/>
</g>
<!-- Node10 -->
<g id="node10" class="node">
<title>Node10</title>
<g id="a_node10"><a xlink:href="a01551.html" target="_top" xlink:title="User Extension Function Call Parameters.">
<polygon fill="white" stroke="black" points="911.5,-177 911.5,-366 1088.5,-366 1088.5,-177 911.5,-177"/>
<text text-anchor="middle" x="1000" y="-354" font-family="Helvetica,sans-Serif" font-size="10.00">NPNZ_EXTENSION_HOOKS_s</text>
<polyline fill="none" stroke="black" points="911.5,-347 1088.5,-347 "/>
<text text-anchor="start" x="919.5" y="-335" font-family="Helvetica,sans-Serif" font-size="10.00">+ ptrExtHookStartFunction</text>
<text text-anchor="start" x="919.5" y="-324" font-family="Helvetica,sans-Serif" font-size="10.00">+ ExtHookStartFunctionParam</text>
<text text-anchor="start" x="919.5" y="-313" font-family="Helvetica,sans-Serif" font-size="10.00">+ ptrExtHookSourceFunction</text>
<text text-anchor="start" x="919.5" y="-302" font-family="Helvetica,sans-Serif" font-size="10.00">+ ExtHookSourceFunctionParam</text>
<text text-anchor="start" x="919.5" y="-291" font-family="Helvetica,sans-Serif" font-size="10.00">+ ptrExtHookPreAntiWindupFunction</text>
<text text-anchor="start" x="919.5" y="-280" font-family="Helvetica,sans-Serif" font-size="10.00">+ ExtHookPreAntiWindupFunction</text>
<text text-anchor="start" x="919.5" y="-269" font-family="Helvetica,sans-Serif" font-size="10.00">Param</text>
<text text-anchor="start" x="919.5" y="-258" font-family="Helvetica,sans-Serif" font-size="10.00">+ ptrExtHookTargetFunction</text>
<text text-anchor="start" x="919.5" y="-247" font-family="Helvetica,sans-Serif" font-size="10.00">+ ExtHookTargetFunctionParam</text>
<text text-anchor="start" x="919.5" y="-236" font-family="Helvetica,sans-Serif" font-size="10.00">+ ptrExtHookStopFunction</text>
<text text-anchor="start" x="919.5" y="-225" font-family="Helvetica,sans-Serif" font-size="10.00">+ ExtHookStopFunctionParam</text>
<text text-anchor="start" x="919.5" y="-214" font-family="Helvetica,sans-Serif" font-size="10.00">+ ptrExtHookEndFunction</text>
<text text-anchor="start" x="919.5" y="-203" font-family="Helvetica,sans-Serif" font-size="10.00">+ ExtHookEndFunctionParam</text>
<polyline fill="none" stroke="black" points="911.5,-196 1088.5,-196 "/>
<text text-anchor="middle" x="1000" y="-184" font-family="Helvetica,sans-Serif" font-size="10.00"> </text>
</a>
</g>
</g>
<!-- Node2&#45;&gt;Node10 -->
<g id="edge18" class="edge">
<title>Node2&#45;&gt;Node10</title>
<path fill="none" stroke="midnightblue" d="M610.85,-446.7C679.09,-444.23 810.68,-431.38 902,-372 905.15,-369.95 908.28,-367.79 911.38,-365.53"/>
<polygon fill="none" stroke="midnightblue" points="610.35,-443.21 600.46,-447.01 610.56,-450.21 610.35,-443.21"/>
</g>
<!-- Node11 -->
<g id="node11" class="node">
<title>Node11</title>
<g id="a_node11"><a xlink:href="a01507.html" target="_top" xlink:title="NPNZ16b controller object status and control word.">
<polygon fill="white" stroke="black" points="1106.5,-199 1106.5,-344 1231.5,-344 1231.5,-199 1106.5,-199"/>
<text text-anchor="middle" x="1169" y="-332" font-family="Helvetica,sans-Serif" font-size="10.00">NPNZ_STATUS_s</text>
<polyline fill="none" stroke="black" points="1106.5,-325 1231.5,-325 "/>
<text text-anchor="start" x="1114.5" y="-313" font-family="Helvetica,sans-Serif" font-size="10.00">+ lower_saturation_event</text>
<text text-anchor="start" x="1114.5" y="-302" font-family="Helvetica,sans-Serif" font-size="10.00">+ upper_saturation_event</text>
<text text-anchor="start" x="1114.5" y="-291" font-family="Helvetica,sans-Serif" font-size="10.00">+ unsigned</text>
<text text-anchor="start" x="1114.5" y="-280" font-family="Helvetica,sans-Serif" font-size="10.00">+ agc_enabled</text>
<text text-anchor="start" x="1114.5" y="-269" font-family="Helvetica,sans-Serif" font-size="10.00">+ swap_target</text>
<text text-anchor="start" x="1114.5" y="-258" font-family="Helvetica,sans-Serif" font-size="10.00">+ swap_source</text>
<text text-anchor="start" x="1114.5" y="-247" font-family="Helvetica,sans-Serif" font-size="10.00">+ invert_input</text>
<text text-anchor="start" x="1114.5" y="-236" font-family="Helvetica,sans-Serif" font-size="10.00">+ enabled</text>
<text text-anchor="start" x="1114.5" y="-225" font-family="Helvetica,sans-Serif" font-size="10.00">+ value</text>
<polyline fill="none" stroke="black" points="1106.5,-218 1231.5,-218 "/>
<text text-anchor="middle" x="1169" y="-206" font-family="Helvetica,sans-Serif" font-size="10.00"> </text>
</a>
</g>
</g>
<!-- Node2&#45;&gt;Node11 -->
<g id="edge20" class="edge">
<title>Node2&#45;&gt;Node11</title>
<path fill="none" stroke="midnightblue" d="M610.24,-447.13C693.7,-446.38 879.52,-440.01 1030,-401 1061.41,-392.86 1071.7,-392.31 1097,-372 1106.98,-363.99 1116.23,-354.27 1124.56,-344.08"/>
<polygon fill="none" stroke="midnightblue" points="610.08,-443.63 600.11,-447.19 610.13,-450.63 610.08,-443.63"/>
</g>
<!-- Node3&#45;&gt;Node2 -->
<g id="edge3" class="edge">
<title>Node3&#45;&gt;Node2</title>
<path fill="none" stroke="#404040" d="M93.04,-316.56C105.95,-335.21 122.61,-356.23 141,-372 161.68,-389.73 169.04,-392.74 195,-401 307.9,-436.93 448.42,-445.01 519.77,-446.69"/>
<polygon fill="none" stroke="#404040" points="519.86,-446.69 525.94,-442.81 531.86,-446.92 525.78,-450.8 519.86,-446.69"/>
<text text-anchor="middle" x="225.5" y="-393" font-family="Helvetica,sans-Serif" font-size="10.00"> +GainControl</text>
</g>
<!-- Node4&#45;&gt;Node2 -->
<g id="edge5" class="edge">
<title>Node4&#45;&gt;Node2</title>
<path fill="none" stroke="#404040" d="M207.97,-316.54C216.33,-336.23 228.93,-358.09 247,-372 328.1,-434.44 452.76,-446.16 519.7,-447.61"/>
<polygon fill="none" stroke="#404040" points="519.89,-447.61 525.95,-443.69 531.89,-447.77 525.84,-451.69 519.89,-447.61"/>
<text text-anchor="middle" x="310" y="-393" font-family="Helvetica,sans-Serif" font-size="10.00"> +Limits</text>
</g>
<!-- Node5&#45;&gt;Node2 -->
<g id="edge7" class="edge">
<title>Node5&#45;&gt;Node2</title>
<path fill="none" stroke="#404040" d="M389.28,-338.56C400.41,-350.42 412.56,-362.13 425,-372 446.03,-388.69 454.32,-388.34 478,-401 491.91,-408.44 507.13,-416.44 520.93,-423.65"/>
<polygon fill="none" stroke="#404040" points="521.01,-423.69 528.18,-422.92 531.65,-429.24 524.48,-430.01 521.01,-423.69"/>
<text text-anchor="middle" x="504" y="-393" font-family="Helvetica,sans-Serif" font-size="10.00"> +Advanced</text>
</g>
<!-- Node6&#45;&gt;Node2 -->
<g id="edge9" class="edge">
<title>Node6&#45;&gt;Node2</title>
<path fill="none" stroke="#404040" d="M501.99,-300.02C514.64,-329.07 534.69,-375.11 548.98,-407.92"/>
<polygon fill="none" stroke="#404040" points="549.17,-408.35 555.23,-412.25 553.96,-419.35 547.89,-415.45 549.17,-408.35"/>
<text text-anchor="middle" x="562.5" y="-393" font-family="Helvetica,sans-Serif" font-size="10.00"> +Ports</text>
</g>
<!-- Node7 -->
<g id="node7" class="node">
<title>Node7</title>
<g id="a_node7"><a xlink:href="a01523.html" target="_top" xlink:title="Data Input/Output Port declaration of memory addresses, signal offsets and normalization settings.">
<polygon fill="white" stroke="black" points="447,-0.5 447,-90.5 531,-90.5 531,-0.5 447,-0.5"/>
<text text-anchor="middle" x="489" y="-78.5" font-family="Helvetica,sans-Serif" font-size="10.00">NPNZ_PORT_s</text>
<polyline fill="none" stroke="black" points="447,-71.5 531,-71.5 "/>
<text text-anchor="start" x="455" y="-59.5" font-family="Helvetica,sans-Serif" font-size="10.00">+ ptrAddress</text>
<text text-anchor="start" x="455" y="-48.5" font-family="Helvetica,sans-Serif" font-size="10.00">+ NormScaler</text>
<text text-anchor="start" x="455" y="-37.5" font-family="Helvetica,sans-Serif" font-size="10.00">+ NormFactor</text>
<text text-anchor="start" x="455" y="-26.5" font-family="Helvetica,sans-Serif" font-size="10.00">+ Offset</text>
<polyline fill="none" stroke="black" points="447,-19.5 531,-19.5 "/>
<text text-anchor="middle" x="489" y="-7.5" font-family="Helvetica,sans-Serif" font-size="10.00"> </text>
</a>
</g>
</g>
<!-- Node6&#45;&gt;Node7 -->
<g id="edge12" class="edge">
<title>Node6&#45;&gt;Node7</title>
<path fill="none" stroke="midnightblue" d="M488.56,-232.74C487.49,-200.01 486.32,-151.38 487,-109 487.1,-103.03 487.24,-96.74 487.41,-90.54"/>
<polygon fill="none" stroke="midnightblue" points="485.06,-232.91 488.9,-242.78 492.06,-232.67 485.06,-232.91"/>
</g>
<!-- Node7&#45;&gt;Node6 -->
<g id="edge11" class="edge">
<title>Node7&#45;&gt;Node6</title>
<path fill="none" stroke="#404040" d="M489.2,-90.61C489.38,-131.24 489.65,-191.01 489.82,-230.34"/>
<polygon fill="none" stroke="#404040" points="489.82,-230.58 493.85,-236.57 489.88,-242.58 485.85,-236.6 489.82,-230.58"/>
<text text-anchor="middle" x="516" y="-145" font-family="Helvetica,sans-Serif" font-size="10.00"> +AltSource</text>
<text text-anchor="middle" x="516" y="-134" font-family="Helvetica,sans-Serif" font-size="10.00">+AltTarget</text>
<text text-anchor="middle" x="516" y="-123" font-family="Helvetica,sans-Serif" font-size="10.00">+Source</text>
<text text-anchor="middle" x="516" y="-112" font-family="Helvetica,sans-Serif" font-size="10.00">+Target</text>
</g>
<!-- Node8&#45;&gt;Node2 -->
<g id="edge13" class="edge">
<title>Node8&#45;&gt;Node2</title>
<path fill="none" stroke="#404040" d="M619.35,-371.52C616.33,-381.74 612.61,-391.76 608,-401 606.54,-403.94 604.83,-406.83 602.96,-409.64"/>
<polygon fill="none" stroke="#404040" points="602.81,-409.82 602.4,-417.02 595.59,-419.41 596.01,-412.21 602.81,-409.82"/>
<text text-anchor="middle" x="628.5" y="-393" font-family="Helvetica,sans-Serif" font-size="10.00"> +Filter</text>
</g>
<!-- Node9&#45;&gt;Node2 -->
<g id="edge15" class="edge">
<title>Node9&#45;&gt;Node2</title>
<path fill="none" stroke="#404040" d="M793.24,-316.64C782.95,-344.69 765.71,-379.62 739,-401 702.81,-429.97 650.07,-440.79 612.35,-444.79"/>
<polygon fill="none" stroke="#404040" points="612.13,-444.81 606.52,-449.33 600.18,-445.9 605.79,-441.37 612.13,-444.81"/>
<text text-anchor="middle" x="786" y="-393" font-family="Helvetica,sans-Serif" font-size="10.00"> +DataProviders</text>
</g>
<!-- Node10&#45;&gt;Node2 -->
<g id="edge17" class="edge">
<title>Node10&#45;&gt;Node2</title>
<path fill="none" stroke="#404040" d="M964.64,-366.07C955.84,-379.59 945.08,-391.96 932,-401 881.15,-436.13 698.93,-444.43 612.34,-446.4"/>
<polygon fill="none" stroke="#404040" points="612.28,-446.4 606.36,-450.52 600.28,-446.64 606.2,-442.52 612.28,-446.4"/>
<text text-anchor="middle" x="985.5" y="-393" font-family="Helvetica,sans-Serif" font-size="10.00"> +ExtensionHooks</text>
</g>
<!-- Node11&#45;&gt;Node2 -->
<g id="edge19" class="edge">
<title>Node11&#45;&gt;Node2</title>
<path fill="none" stroke="#404040" d="M1156.4,-344.23C1149.05,-365.74 1137.41,-387.25 1119,-401 1078.79,-431.02 737.75,-442.65 612.17,-445.93"/>
<polygon fill="none" stroke="#404040" points="612.02,-445.94 606.12,-450.09 600.02,-446.24 605.92,-442.09 612.02,-445.94"/>
<text text-anchor="middle" x="1148.5" y="-393" font-family="Helvetica,sans-Serif" font-size="10.00"> +status</text>
</g>
</g>
</svg>
        <g id="navigator" transform="translate(0 0)" fill="#404254">
                <rect fill="#f2f5e9" fill-opacity="0.5" stroke="#606060" stroke-width=".5" x="0" y="0" width="60" height="60"/>
                <use id="zoomplus" xlink:href="#zoomPlus" x="17" y="9" onmousedown="handleZoom(evt,'in')"/>
                <use id="zoomminus" xlink:href="#zoomMin" x="42" y="9" onmousedown="handleZoom(evt,'out')"/>
                <use id="reset" xlink:href="#resetDef" x="30" y="36" onmousedown="handleReset()"/>
                <g id="arrowUp" xlink:href="#dirArrow" transform="translate(30 24)" onmousedown="handlePan(0,-1)">
                  <use xlink:href="#rim" fill="#404040">
                        <set attributeName="fill" to="#808080" begin="arrowUp.mouseover" end="arrowUp.mouseout"/>
                  </use>
                  <path fill="none" stroke="white" stroke-width="1.5" d="M0,-3.0v7 M-2.5,-0.5L0,-3.0L2.5,-0.5"/>
                </g>
                <g id="arrowRight" xlink:href="#dirArrow" transform="rotate(90) translate(36 -43)" onmousedown="handlePan(1,0)">
                  <use xlink:href="#rim" fill="#404040">
                        <set attributeName="fill" to="#808080" begin="arrowRight.mouseover" end="arrowRight.mouseout"/>
                  </use>
                  <path fill="none" stroke="white" stroke-width="1.5" d="M0,-3.0v7 M-2.5,-0.5L0,-3.0L2.5,-0.5"/>
                </g>
                <g id="arrowDown" xlink:href="#dirArrow" transform="rotate(180) translate(-30 -48)" onmousedown="handlePan(0,1)">
                  <use xlink:href="#rim" fill="#404040">
                        <set attributeName="fill" to="#808080" begin="arrowDown.mouseover" end="arrowDown.mouseout"/>
                  </use>
                  <path fill="none" stroke="white" stroke-width="1.5" d="M0,-3.0v7 M-2.5,-0.5L0,-3.0L2.5,-0.5"/>
                </g>
                <g id="arrowLeft" xlink:href="#dirArrow" transform="rotate(270) translate(-36 17)" onmousedown="handlePan(-1,0)">
                  <use xlink:href="#rim" fill="#404040">
                        <set attributeName="fill" to="#808080" begin="arrowLeft.mouseover" end="arrowLeft.mouseout"/>
                  </use>
                  <path fill="none" stroke="white" stroke-width="1.5" d="M0,-3.0v7 M-2.5,-0.5L0,-3.0L2.5,-0.5"/>
                </g>
        </g>
        <svg viewBox="0 0 15 15" width="100%" height="30px" preserveAspectRatio="xMaxYMin meet">
         <g id="arrow_out" transform="scale(0.3 0.3)">
          <a xlink:href="a01541_org.svg" target="_base">
           <rect id="button" ry="5" rx="5" y="6" x="6" height="38" width="38"
                fill="#f2f5e9" fill-opacity="0.5" stroke="#606060" stroke-width="1.0"/>
           <path id="arrow"
             d="M 11.500037,31.436501 C 11.940474,20.09759 22.043105,11.32322 32.158766,21.979434 L 37.068811,17.246167 C 37.068811,17.246167 37.088388,32 37.088388,32 L 22.160133,31.978069 C 22.160133,31.978069 26.997745,27.140456 26.997745,27.140456 C 18.528582,18.264221 13.291696,25.230495 11.500037,31.436501 z"
             style="fill:#404040;"/>
          </a>
         </g>
        </svg>
</svg>
