<?xml version="1.0" encoding="UTF-8" standalone="no"?>
<!DOCTYPE svg PUBLIC "-//W3C//DTD SVG 1.1//EN"
 "http://www.w3.org/Graphics/SVG/1.1/DTD/svg11.dtd">
<!-- Generated by graphviz version 2.44.1 (20200629.0846)
 -->
<!-- Title: NPNZ16b_s Pages: 1 -->
<!--zoomable 485 -->
<svg id="main" version="1.1" xmlns="http://www.w3.org/2000/svg" xmlns:xlink="http://www.w3.org/1999/xlink" xml:space="preserve" onload="init(evt)">
<style type="text/css"><![CDATA[
.edge:hover path { stroke: red; }
.edge:hover polygon { stroke: red; fill: red; }
]]></style>
<script type="text/javascript"><![CDATA[
var edges = document.getElementsByTagName('g');
if (edges && edges.length) {
  for (var i=0;i<edges.length;i++) {
    if (edges[i].id.substr(0,4)=='edge') {
      edges[i].setAttribute('class','edge');
    }
  }
}
]]></script>
        <defs>
                <circle id="rim" cx="0" cy="0" r="7"/>
                <circle id="rim2" cx="0" cy="0" r="3.5"/>
                <g id="zoomPlus">
                        <use xlink:href="#rim" fill="#404040">
                                <set attributeName="fill" to="#808080" begin="zoomplus.mouseover" end="zoomplus.mouseout"/>
                        </use>
                        <path d="M-4,0h8M0,-4v8" fill="none" stroke="white" stroke-width="1.5" pointer-events="none"/>
                </g>
                <g id="zoomMin">
                        <use xlink:href="#rim" fill="#404040">
                                <set attributeName="fill" to="#808080" begin="zoomminus.mouseover" end="zoomminus.mouseout"/>
                        </use>
                        <path d="M-4,0h8" fill="none" stroke="white" stroke-width="1.5" pointer-events="none"/>
                </g>
                <g id="dirArrow">
                        <path fill="none" stroke="white" stroke-width="1.5" d="M0,-3.0v7 M-2.5,-0.5L0,-3.0L2.5,-0.5"/>
                </g>
               <g id="resetDef">
                       <use xlink:href="#rim2" fill="#404040">
                               <set attributeName="fill" to="#808080" begin="reset.mouseover" end="reset.mouseout"/>
                       </use>
               </g>
        </defs>

<script type="text/javascript">
var viewWidth = 1387;
var viewHeight = 485;
var sectionId = 'dynsection-1';
</script>
<script xlink:href="svgpan.js"/>
<svg id="graph" class="graph">
<g id="viewport">
<title>NPNZ16b_s</title>
<polygon fill="white" stroke="transparent" points="-4,4 -4,-481 1383,-481 1383,4 -4,4"/>
<!-- Node1 -->
<g id="node1" class="node">
<title>Node1</title>
<g id="a_node1"><a xlink:title="Global NPNZ controller data object.">
<polygon fill="#bfbfbf" stroke="black" points="594.5,-419.5 594.5,-476.5 662.5,-476.5 662.5,-419.5 594.5,-419.5"/>
<text text-anchor="middle" x="628.5" y="-464.5" font-family="Helvetica,sans-Serif" font-size="10.00">NPNZ16b_s</text>
<polyline fill="none" stroke="black" points="594.5,-457.5 662.5,-457.5 "/>
<text text-anchor="middle" x="628.5" y="-445.5" font-family="Helvetica,sans-Serif" font-size="10.00"> </text>
<polyline fill="none" stroke="black" points="594.5,-438.5 662.5,-438.5 "/>
<text text-anchor="middle" x="628.5" y="-426.5" font-family="Helvetica,sans-Serif" font-size="10.00"> </text>
</a>
</g>
</g>
<!-- Node2 -->
<g id="node2" class="node">
<title>Node2</title>
<g id="a_node2"><a xlink:href="a01543.html" target="_top" xlink:title="Automated ADC Trigger handling.">
<polygon fill="white" stroke="black" points="0,-226.5 0,-316.5 129,-316.5 129,-226.5 0,-226.5"/>
<text text-anchor="middle" x="64.5" y="-304.5" font-family="Helvetica,sans-Serif" font-size="10.00">NPNZ_ADC_TRGCTRL_s</text>
<polyline fill="none" stroke="black" points="0,-297.5 129,-297.5 "/>
<text text-anchor="start" x="8" y="-285.5" font-family="Helvetica,sans-Serif" font-size="10.00">+ ptrADCTriggerARegister</text>
<text text-anchor="start" x="8" y="-274.5" font-family="Helvetica,sans-Serif" font-size="10.00">+ ADCTriggerAOffset</text>
<text text-anchor="start" x="8" y="-263.5" font-family="Helvetica,sans-Serif" font-size="10.00">+ ptrADCTriggerBRegister</text>
<text text-anchor="start" x="8" y="-252.5" font-family="Helvetica,sans-Serif" font-size="10.00">+ ADCTriggerBOffset</text>
<polyline fill="none" stroke="black" points="0,-245.5 129,-245.5 "/>
<text text-anchor="middle" x="64.5" y="-233.5" font-family="Helvetica,sans-Serif" font-size="10.00"> </text>
</a>
</g>
</g>
<!-- Node1&#45;&gt;Node2 -->
<g id="edge2" class="edge">
<title>Node1&#45;&gt;Node2</title>
<path fill="none" stroke="midnightblue" d="M583.92,-446.75C482.16,-445.53 235.99,-438.64 163.5,-401 128.51,-382.83 102.18,-346.1 85.51,-316.55"/>
<polygon fill="none" stroke="midnightblue" points="584.13,-450.25 594.17,-446.86 584.2,-443.26 584.13,-450.25"/>
</g>
<!-- Node3 -->
<g id="node3" class="node">
<title>Node3</title>
<g id="a_node3"><a xlink:href="a01535.html" target="_top" xlink:title="Adaptive Gain Control Modulation Parameters.">
<polygon fill="white" stroke="black" points="147.5,-226.5 147.5,-316.5 279.5,-316.5 279.5,-226.5 147.5,-226.5"/>
<text text-anchor="middle" x="213.5" y="-304.5" font-family="Helvetica,sans-Serif" font-size="10.00">NPNZ_GAIN_CONTROL_s</text>
<polyline fill="none" stroke="black" points="147.5,-297.5 279.5,-297.5 "/>
<text text-anchor="start" x="155.5" y="-285.5" font-family="Helvetica,sans-Serif" font-size="10.00">+ AgcScaler</text>
<text text-anchor="start" x="155.5" y="-274.5" font-family="Helvetica,sans-Serif" font-size="10.00">+ AgcFactor</text>
<text text-anchor="start" x="155.5" y="-263.5" font-family="Helvetica,sans-Serif" font-size="10.00">+ AgcMedian</text>
<text text-anchor="start" x="155.5" y="-252.5" font-family="Helvetica,sans-Serif" font-size="10.00">+ ptrAgcObserverFunction</text>
<polyline fill="none" stroke="black" points="147.5,-245.5 279.5,-245.5 "/>
<text text-anchor="middle" x="213.5" y="-233.5" font-family="Helvetica,sans-Serif" font-size="10.00"> </text>
</a>
</g>
</g>
<!-- Node1&#45;&gt;Node3 -->
<g id="edge4" class="edge">
<title>Node1&#45;&gt;Node3</title>
<path fill="none" stroke="midnightblue" d="M584.14,-444.77C507.72,-440.26 355.04,-428.06 309.5,-401 276.46,-381.37 251.15,-345.56 234.83,-316.72"/>
<polygon fill="none" stroke="midnightblue" points="584.22,-448.28 594.4,-445.36 584.62,-441.29 584.22,-448.28"/>
</g>
<!-- Node4 -->
<g id="node4" class="node">
<title>Node4</title>
<g id="a_node4"><a xlink:href="a01539.html" target="_top" xlink:title="System Anti&#45;Windup (Output Clamping) Thresholds.">
<polygon fill="white" stroke="black" points="297.5,-226.5 297.5,-316.5 385.5,-316.5 385.5,-226.5 297.5,-226.5"/>
<text text-anchor="middle" x="341.5" y="-304.5" font-family="Helvetica,sans-Serif" font-size="10.00">NPNZ_LIMITS_s</text>
<polyline fill="none" stroke="black" points="297.5,-297.5 385.5,-297.5 "/>
<text text-anchor="start" x="305.5" y="-285.5" font-family="Helvetica,sans-Serif" font-size="10.00">+ MinOutput</text>
<text text-anchor="start" x="305.5" y="-274.5" font-family="Helvetica,sans-Serif" font-size="10.00">+ MaxOutput</text>
<text text-anchor="start" x="305.5" y="-263.5" font-family="Helvetica,sans-Serif" font-size="10.00">+ AltMinOutput</text>
<text text-anchor="start" x="305.5" y="-252.5" font-family="Helvetica,sans-Serif" font-size="10.00">+ AltMaxOutput</text>
<polyline fill="none" stroke="black" points="297.5,-245.5 385.5,-245.5 "/>
<text text-anchor="middle" x="341.5" y="-233.5" font-family="Helvetica,sans-Serif" font-size="10.00"> </text>
</a>
</g>
</g>
<!-- Node1&#45;&gt;Node4 -->
<g id="edge6" class="edge">
<title>Node1&#45;&gt;Node4</title>
<path fill="none" stroke="midnightblue" d="M584.41,-445.91C539.34,-442.95 468.86,-433.02 417.5,-401 386.93,-381.94 367.15,-345.69 355.46,-316.54"/>
<polygon fill="none" stroke="midnightblue" points="584.28,-449.41 594.46,-446.49 584.68,-442.42 584.28,-449.41"/>
</g>
<!-- Node5 -->
<g id="node5" class="node">
<title>Node5</title>
<g id="a_node5"><a xlink:href="a01555.html" target="_top" xlink:title="User Data Space for Advanced Control Functions.">
<polygon fill="white" stroke="black" points="403.5,-204.5 403.5,-338.5 563.5,-338.5 563.5,-204.5 403.5,-204.5"/>
<text text-anchor="middle" x="483.5" y="-326.5" font-family="Helvetica,sans-Serif" font-size="10.00">NPNZ_USER_DATA_BUFFER_s</text>
<polyline fill="none" stroke="black" points="403.5,-319.5 563.5,-319.5 "/>
<text text-anchor="start" x="411.5" y="-307.5" font-family="Helvetica,sans-Serif" font-size="10.00">+ usrParam0</text>
<text text-anchor="start" x="411.5" y="-296.5" font-family="Helvetica,sans-Serif" font-size="10.00">+ usrParam1</text>
<text text-anchor="start" x="411.5" y="-285.5" font-family="Helvetica,sans-Serif" font-size="10.00">+ usrParam2</text>
<text text-anchor="start" x="411.5" y="-274.5" font-family="Helvetica,sans-Serif" font-size="10.00">+ usrParam3</text>
<text text-anchor="start" x="411.5" y="-263.5" font-family="Helvetica,sans-Serif" font-size="10.00">+ usrParam4</text>
<text text-anchor="start" x="411.5" y="-252.5" font-family="Helvetica,sans-Serif" font-size="10.00">+ usrParam5</text>
<text text-anchor="start" x="411.5" y="-241.5" font-family="Helvetica,sans-Serif" font-size="10.00">+ usrParam6</text>
<text text-anchor="start" x="411.5" y="-230.5" font-family="Helvetica,sans-Serif" font-size="10.00">+ usrParam7</text>
<polyline fill="none" stroke="black" points="403.5,-223.5 563.5,-223.5 "/>
<text text-anchor="middle" x="483.5" y="-211.5" font-family="Helvetica,sans-Serif" font-size="10.00"> </text>
</a>
</g>
</g>
<!-- Node1&#45;&gt;Node5 -->
<g id="edge8" class="edge">
<title>Node1&#45;&gt;Node5</title>
<path fill="none" stroke="midnightblue" d="M585.77,-422.87C576.48,-416.48 567.16,-409.08 559.5,-401 542.21,-382.75 527.11,-359.88 515.02,-338.51"/>
<polygon fill="none" stroke="midnightblue" points="583.97,-425.87 594.25,-428.44 587.81,-420.02 583.97,-425.87"/>
</g>
<!-- Node6 -->
<g id="node6" class="node">
<title>Node6</title>
<g id="a_node6"><a xlink:href="a01527.html" target="_top" xlink:title="Filter Coefficient Arrays, Number Format Handling and Input/Output History Parameters.">
<polygon fill="white" stroke="black" points="582,-243 582,-300 693,-300 693,-243 582,-243"/>
<text text-anchor="middle" x="637.5" y="-288" font-family="Helvetica,sans-Serif" font-size="10.00">NPNZ_PORTS_s</text>
<polyline fill="none" stroke="black" points="582,-281 693,-281 "/>
<text text-anchor="start" x="590" y="-269" font-family="Helvetica,sans-Serif" font-size="10.00">+ ptrControlReference</text>
<polyline fill="none" stroke="black" points="582,-262 693,-262 "/>
<text text-anchor="middle" x="637.5" y="-250" font-family="Helvetica,sans-Serif" font-size="10.00"> </text>
</a>
</g>
</g>
<!-- Node1&#45;&gt;Node6 -->
<g id="edge10" class="edge">
<title>Node1&#45;&gt;Node6</title>
<path fill="none" stroke="midnightblue" d="M627.61,-409.23C627.57,-406.44 627.53,-403.68 627.5,-401 627.45,-396.11 627.29,-394.88 627.5,-390 628.8,-359.32 632.01,-324.25 634.45,-300.47"/>
<polygon fill="none" stroke="midnightblue" points="624.11,-409.34 627.8,-419.27 631.11,-409.21 624.11,-409.34"/>
</g>
<!-- Node8 -->
<g id="node8" class="node">
<title>Node8</title>
<g id="a_node8"><a xlink:href="a01531.html" target="_top" xlink:title="Filter Coefficient Arrays, Number Format Handling and Input/Output History Parameters.">
<polygon fill="white" stroke="black" points="711,-171.5 711,-371.5 848,-371.5 848,-171.5 711,-171.5"/>
<text text-anchor="middle" x="779.5" y="-359.5" font-family="Helvetica,sans-Serif" font-size="10.00">NPNZ_FILTER_PARAMS_s</text>
<polyline fill="none" stroke="black" points="711,-352.5 848,-352.5 "/>
<text text-anchor="start" x="719" y="-340.5" font-family="Helvetica,sans-Serif" font-size="10.00">+ ptrACoefficients</text>
<text text-anchor="start" x="719" y="-329.5" font-family="Helvetica,sans-Serif" font-size="10.00">+ ptrBCoefficients</text>
<text text-anchor="start" x="719" y="-318.5" font-family="Helvetica,sans-Serif" font-size="10.00">+ ptrControlHistory</text>
<text text-anchor="start" x="719" y="-307.5" font-family="Helvetica,sans-Serif" font-size="10.00">+ ptrErrorHistory</text>
<text text-anchor="start" x="719" y="-296.5" font-family="Helvetica,sans-Serif" font-size="10.00">+ ACoefficientsArraySize</text>
<text text-anchor="start" x="719" y="-285.5" font-family="Helvetica,sans-Serif" font-size="10.00">+ BCoefficientsArraySize</text>
<text text-anchor="start" x="719" y="-274.5" font-family="Helvetica,sans-Serif" font-size="10.00">+ ControlHistoryArraySize</text>
<text text-anchor="start" x="719" y="-263.5" font-family="Helvetica,sans-Serif" font-size="10.00">+ ErrorHistoryArraySize</text>
<text text-anchor="start" x="719" y="-252.5" font-family="Helvetica,sans-Serif" font-size="10.00">+ normPreShift</text>
<text text-anchor="start" x="719" y="-241.5" font-family="Helvetica,sans-Serif" font-size="10.00">+ normPostShiftA</text>
<text text-anchor="start" x="719" y="-230.5" font-family="Helvetica,sans-Serif" font-size="10.00">+ normPostShiftB</text>
<text text-anchor="start" x="719" y="-219.5" font-family="Helvetica,sans-Serif" font-size="10.00">+ normPostScaler</text>
<text text-anchor="start" x="719" y="-208.5" font-family="Helvetica,sans-Serif" font-size="10.00">+ PTermScaler</text>
<text text-anchor="start" x="719" y="-197.5" font-family="Helvetica,sans-Serif" font-size="10.00">+ PTermFactor</text>
<polyline fill="none" stroke="black" points="711,-190.5 848,-190.5 "/>
<text text-anchor="middle" x="779.5" y="-178.5" font-family="Helvetica,sans-Serif" font-size="10.00"> </text>
</a>
</g>
</g>
<!-- Node1&#45;&gt;Node8 -->
<g id="edge14" class="edge">
<title>Node1&#45;&gt;Node8</title>
<path fill="none" stroke="midnightblue" d="M664.31,-411.77C676.41,-399.46 689.81,-385.37 701.5,-372 704.61,-368.45 707.74,-364.79 710.88,-361.07"/>
<polygon fill="none" stroke="midnightblue" points="661.52,-409.62 656.97,-419.19 666.49,-414.54 661.52,-409.62"/>
</g>
<!-- Node9 -->
<g id="node9" class="node">
<title>Node9</title>
<g id="a_node9"><a xlink:href="a01547.html" target="_top" xlink:title="Data Provider Target Memory Addresses.">
<polygon fill="white" stroke="black" points="866.5,-226.5 866.5,-316.5 1040.5,-316.5 1040.5,-226.5 866.5,-226.5"/>
<text text-anchor="middle" x="953.5" y="-304.5" font-family="Helvetica,sans-Serif" font-size="10.00">NPNZ_DATA_PROVIDERS_s</text>
<polyline fill="none" stroke="black" points="866.5,-297.5 1040.5,-297.5 "/>
<text text-anchor="start" x="874.5" y="-285.5" font-family="Helvetica,sans-Serif" font-size="10.00">+ ptrDProvControlInput</text>
<text text-anchor="start" x="874.5" y="-274.5" font-family="Helvetica,sans-Serif" font-size="10.00">+ ptrDProvControlInputCompensated</text>
<text text-anchor="start" x="874.5" y="-263.5" font-family="Helvetica,sans-Serif" font-size="10.00">+ ptrDProvControlError</text>
<text text-anchor="start" x="874.5" y="-252.5" font-family="Helvetica,sans-Serif" font-size="10.00">+ ptrDProvControlOutput</text>
<polyline fill="none" stroke="black" points="866.5,-245.5 1040.5,-245.5 "/>
<text text-anchor="middle" x="953.5" y="-233.5" font-family="Helvetica,sans-Serif" font-size="10.00"> </text>
</a>
</g>
</g>
<!-- Node1&#45;&gt;Node9 -->
<g id="edge16" class="edge">
<title>Node1&#45;&gt;Node9</title>
<path fill="none" stroke="midnightblue" d="M672.72,-439.55C720.97,-429.89 798.99,-409.61 856.5,-372 879.42,-357.01 901.08,-335.76 918.1,-316.74"/>
<polygon fill="none" stroke="midnightblue" points="671.75,-436.18 662.6,-441.51 673.08,-443.05 671.75,-436.18"/>
</g>
<!-- Node10 -->
<g id="node10" class="node">
<title>Node10</title>
<g id="a_node10"><a xlink:href="a01551.html" target="_top" xlink:title="User Extension Function Call Parameters.">
<polygon fill="white" stroke="black" points="1059,-177 1059,-366 1236,-366 1236,-177 1059,-177"/>
<text text-anchor="middle" x="1147.5" y="-354" font-family="Helvetica,sans-Serif" font-size="10.00">NPNZ_EXTENSION_HOOKS_s</text>
<polyline fill="none" stroke="black" points="1059,-347 1236,-347 "/>
<text text-anchor="start" x="1067" y="-335" font-family="Helvetica,sans-Serif" font-size="10.00">+ ptrExtHookStartFunction</text>
<text text-anchor="start" x="1067" y="-324" font-family="Helvetica,sans-Serif" font-size="10.00">+ ExtHookStartFunctionParam</text>
<text text-anchor="start" x="1067" y="-313" font-family="Helvetica,sans-Serif" font-size="10.00">+ ptrExtHookSourceFunction</text>
<text text-anchor="start" x="1067" y="-302" font-family="Helvetica,sans-Serif" font-size="10.00">+ ExtHookSourceFunctionParam</text>
<text text-anchor="start" x="1067" y="-291" font-family="Helvetica,sans-Serif" font-size="10.00">+ ptrExtHookPreAntiWindupFunction</text>
<text text-anchor="start" x="1067" y="-280" font-family="Helvetica,sans-Serif" font-size="10.00">+ ExtHookPreAntiWindupFunction</text>
<text text-anchor="start" x="1067" y="-269" font-family="Helvetica,sans-Serif" font-size="10.00">Param</text>
<text text-anchor="start" x="1067" y="-258" font-family="Helvetica,sans-Serif" font-size="10.00">+ ptrExtHookTargetFunction</text>
<text text-anchor="start" x="1067" y="-247" font-family="Helvetica,sans-Serif" font-size="10.00">+ ExtHookTargetFunctionParam</text>
<text text-anchor="start" x="1067" y="-236" font-family="Helvetica,sans-Serif" font-size="10.00">+ ptrExtHookStopFunction</text>
<text text-anchor="start" x="1067" y="-225" font-family="Helvetica,sans-Serif" font-size="10.00">+ ExtHookStopFunctionParam</text>
<text text-anchor="start" x="1067" y="-214" font-family="Helvetica,sans-Serif" font-size="10.00">+ ptrExtHookEndFunction</text>
<text text-anchor="start" x="1067" y="-203" font-family="Helvetica,sans-Serif" font-size="10.00">+ ExtHookEndFunctionParam</text>
<polyline fill="none" stroke="black" points="1059,-196 1236,-196 "/>
<text text-anchor="middle" x="1147.5" y="-184" font-family="Helvetica,sans-Serif" font-size="10.00"> </text>
</a>
</g>
</g>
<!-- Node1&#45;&gt;Node10 -->
<g id="edge18" class="edge">
<title>Node1&#45;&gt;Node10</title>
<path fill="none" stroke="midnightblue" d="M672.73,-444.31C738.81,-439.57 866.84,-427.59 972.5,-401 1007.96,-392.07 1018.84,-391.94 1049.5,-372 1052.65,-369.95 1055.78,-367.79 1058.88,-365.53"/>
<polygon fill="none" stroke="midnightblue" points="672.41,-440.82 662.67,-445.01 672.89,-447.81 672.41,-440.82"/>
</g>
<!-- Node11 -->
<g id="node11" class="node">
<title>Node11</title>
<g id="a_node11"><a xlink:href="a01507.html" target="_top" xlink:title="NPNZ16b controller object status and control word.">
<polygon fill="white" stroke="black" points="1254,-199 1254,-344 1379,-344 1379,-199 1254,-199"/>
<text text-anchor="middle" x="1316.5" y="-332" font-family="Helvetica,sans-Serif" font-size="10.00">NPNZ_STATUS_s</text>
<polyline fill="none" stroke="black" points="1254,-325 1379,-325 "/>
<text text-anchor="start" x="1262" y="-313" font-family="Helvetica,sans-Serif" font-size="10.00">+ lower_saturation_event</text>
<text text-anchor="start" x="1262" y="-302" font-family="Helvetica,sans-Serif" font-size="10.00">+ upper_saturation_event</text>
<text text-anchor="start" x="1262" y="-291" font-family="Helvetica,sans-Serif" font-size="10.00">+ unsigned</text>
<text text-anchor="start" x="1262" y="-280" font-family="Helvetica,sans-Serif" font-size="10.00">+ agc_enabled</text>
<text text-anchor="start" x="1262" y="-269" font-family="Helvetica,sans-Serif" font-size="10.00">+ swap_target</text>
<text text-anchor="start" x="1262" y="-258" font-family="Helvetica,sans-Serif" font-size="10.00">+ swap_source</text>
<text text-anchor="start" x="1262" y="-247" font-family="Helvetica,sans-Serif" font-size="10.00">+ invert_input</text>
<text text-anchor="start" x="1262" y="-236" font-family="Helvetica,sans-Serif" font-size="10.00">+ enabled</text>
<text text-anchor="start" x="1262" y="-225" font-family="Helvetica,sans-Serif" font-size="10.00">+ value</text>
<polyline fill="none" stroke="black" points="1254,-218 1379,-218 "/>
<text text-anchor="middle" x="1316.5" y="-206" font-family="Helvetica,sans-Serif" font-size="10.00"> </text>
</a>
</g>
</g>
<!-- Node1&#45;&gt;Node11 -->
<g id="edge20" class="edge">
<title>Node1&#45;&gt;Node11</title>
<path fill="none" stroke="midnightblue" d="M672.85,-445.3C786.44,-440.62 1085.62,-426.22 1181.5,-401 1211.31,-393.16 1220.69,-391.57 1244.5,-372 1254.3,-363.94 1263.44,-354.26 1271.69,-344.14"/>
<polygon fill="none" stroke="midnightblue" points="672.62,-441.8 662.77,-445.71 672.9,-448.8 672.62,-441.8"/>
</g>
<!-- Node2&#45;&gt;Node1 -->
<g id="edge1" class="edge">
<title>Node2&#45;&gt;Node1</title>
<path fill="none" stroke="#404040" d="M90.29,-316.61C102.97,-335.5 119.61,-356.68 138.5,-372 162.44,-391.41 171.79,-392.8 201.5,-401 336.13,-438.17 502.36,-445.57 581.86,-446.87"/>
<polygon fill="none" stroke="#404040" points="582.31,-446.88 588.37,-442.95 594.31,-447.03 588.26,-450.95 582.31,-446.88"/>
<text text-anchor="middle" x="246.5" y="-393" font-family="Helvetica,sans-Serif" font-size="10.00"> +ADCTriggerControl</text>
</g>
<!-- Node3&#45;&gt;Node1 -->
<g id="edge3" class="edge">
<title>Node3&#45;&gt;Node1</title>
<path fill="none" stroke="#404040" d="M240.83,-316.67C253.74,-335.24 270.32,-356.15 288.5,-372 308.45,-389.39 315.5,-392.34 340.5,-401 422.74,-429.5 524.38,-440.46 582.29,-444.59"/>
<polygon fill="none" stroke="#404040" points="582.34,-444.6 588.59,-441.01 594.31,-445.4 588.06,-448.99 582.34,-444.6"/>
<text text-anchor="middle" x="371" y="-393" font-family="Helvetica,sans-Serif" font-size="10.00"> +GainControl</text>
</g>
<!-- Node4&#45;&gt;Node1 -->
<g id="edge5" class="edge">
<title>Node4&#45;&gt;Node1</title>
<path fill="none" stroke="#404040" d="M356.3,-316.67C364.77,-336.03 377.22,-357.57 394.5,-372 448.95,-417.47 531.4,-435.51 582.49,-442.58"/>
<polygon fill="none" stroke="#404040" points="582.56,-442.58 589.02,-439.38 594.46,-444.11 588,-447.31 582.56,-442.58"/>
<text text-anchor="middle" x="457.5" y="-393" font-family="Helvetica,sans-Serif" font-size="10.00"> +Limits</text>
</g>
<!-- Node5&#45;&gt;Node1 -->
<g id="edge7" class="edge">
<title>Node5&#45;&gt;Node1</title>
<path fill="none" stroke="#404040" d="M523.45,-338.66C537.45,-359.58 554.06,-382.14 571.5,-401 575.66,-405.5 580.26,-409.93 585.01,-414.16"/>
<polygon fill="none" stroke="#404040" points="585.09,-414.23 592.25,-415.08 594.21,-422.02 587.05,-421.16 585.09,-414.23"/>
<text text-anchor="middle" x="597.5" y="-393" font-family="Helvetica,sans-Serif" font-size="10.00"> +Advanced</text>
</g>
<!-- Node6&#45;&gt;Node1 -->
<g id="edge9" class="edge">
<title>Node6&#45;&gt;Node1</title>
<path fill="none" stroke="#404040" d="M636.08,-300.02C634.6,-328.82 632.25,-374.3 630.56,-407.05"/>
<polygon fill="none" stroke="#404040" points="630.54,-407.37 634.23,-413.56 629.93,-419.35 626.24,-413.15 630.54,-407.37"/>
<text text-anchor="middle" x="648" y="-393" font-family="Helvetica,sans-Serif" font-size="10.00"> +Ports</text>
</g>
<!-- Node7 -->
<g id="node7" class="node">
<title>Node7</title>
<g id="a_node7"><a xlink:href="a01523.html" target="_top" xlink:title="Data Input/Output Port declaration of memory addresses, signal offsets and normalization settings.">
<polygon fill="white" stroke="black" points="594.5,-0.5 594.5,-90.5 678.5,-90.5 678.5,-0.5 594.5,-0.5"/>
<text text-anchor="middle" x="636.5" y="-78.5" font-family="Helvetica,sans-Serif" font-size="10.00">NPNZ_PORT_s</text>
<polyline fill="none" stroke="black" points="594.5,-71.5 678.5,-71.5 "/>
<text text-anchor="start" x="602.5" y="-59.5" font-family="Helvetica,sans-Serif" font-size="10.00">+ ptrAddress</text>
<text text-anchor="start" x="602.5" y="-48.5" font-family="Helvetica,sans-Serif" font-size="10.00">+ NormScaler</text>
<text text-anchor="start" x="602.5" y="-37.5" font-family="Helvetica,sans-Serif" font-size="10.00">+ NormFactor</text>
<text text-anchor="start" x="602.5" y="-26.5" font-family="Helvetica,sans-Serif" font-size="10.00">+ Offset</text>
<polyline fill="none" stroke="black" points="594.5,-19.5 678.5,-19.5 "/>
<text text-anchor="middle" x="636.5" y="-7.5" font-family="Helvetica,sans-Serif" font-size="10.00"> </text>
</a>
</g>
</g>
<!-- Node6&#45;&gt;Node7 -->
<g id="edge12" class="edge">
<title>Node6&#45;&gt;Node7</title>
<path fill="none" stroke="midnightblue" d="M636.06,-232.74C634.99,-200.01 633.82,-151.38 634.5,-109 634.6,-103.03 634.74,-96.74 634.91,-90.54"/>
<polygon fill="none" stroke="midnightblue" points="632.56,-232.91 636.4,-242.78 639.56,-232.67 632.56,-232.91"/>
</g>
<!-- Node7&#45;&gt;Node6 -->
<g id="edge11" class="edge">
<title>Node7&#45;&gt;Node6</title>
<path fill="none" stroke="#404040" d="M636.7,-90.61C636.88,-131.24 637.15,-191.01 637.32,-230.34"/>
<polygon fill="none" stroke="#404040" points="637.32,-230.58 641.35,-236.57 637.38,-242.58 633.35,-236.6 637.32,-230.58"/>
<text text-anchor="middle" x="663.5" y="-145" font-family="Helvetica,sans-Serif" font-size="10.00"> +AltSource</text>
<text text-anchor="middle" x="663.5" y="-134" font-family="Helvetica,sans-Serif" font-size="10.00">+AltTarget</text>
<text text-anchor="middle" x="663.5" y="-123" font-family="Helvetica,sans-Serif" font-size="10.00">+Source</text>
<text text-anchor="middle" x="663.5" y="-112" font-family="Helvetica,sans-Serif" font-size="10.00">+Target</text>
</g>
<!-- Node8&#45;&gt;Node1 -->
<g id="edge13" class="edge">
<title>Node8&#45;&gt;Node1</title>
<path fill="none" stroke="#404040" d="M756.96,-371.75C751.76,-382.4 745.37,-392.45 737.5,-401 720.9,-419.05 696.07,-430.27 674.31,-437.1"/>
<polygon fill="none" stroke="#404040" points="674.14,-437.15 669.47,-442.65 662.6,-440.46 667.26,-434.96 674.14,-437.15"/>
<text text-anchor="middle" x="760" y="-393" font-family="Helvetica,sans-Serif" font-size="10.00"> +Filter</text>
</g>
<!-- Node9&#45;&gt;Node1 -->
<g id="edge15" class="edge">
<title>Node9&#45;&gt;Node1</title>
<path fill="none" stroke="#404040" d="M941.54,-316.76C931.52,-345.23 914.28,-380.6 886.5,-401 853.58,-425.17 739.94,-438.06 675,-443.61"/>
<polygon fill="none" stroke="#404040" points="674.65,-443.64 669,-448.12 662.69,-444.62 668.35,-440.14 674.65,-443.64"/>
<text text-anchor="middle" x="933.5" y="-393" font-family="Helvetica,sans-Serif" font-size="10.00"> +DataProviders</text>
</g>
<!-- Node10&#45;&gt;Node1 -->
<g id="edge17" class="edge">
<title>Node10&#45;&gt;Node1</title>
<path fill="none" stroke="#404040" d="M1115.98,-366.24C1107.69,-379.74 1097.35,-392.06 1084.5,-401 1051.36,-424.05 784.14,-439.47 674.84,-444.86"/>
<polygon fill="none" stroke="#404040" points="674.61,-444.87 668.81,-449.16 662.62,-445.46 668.42,-441.17 674.61,-444.87"/>
<text text-anchor="middle" x="1137" y="-393" font-family="Helvetica,sans-Serif" font-size="10.00"> +ExtensionHooks</text>
</g>
<!-- Node11&#45;&gt;Node1 -->
<g id="edge19" class="edge">
<title>Node11&#45;&gt;Node1</title>
<path fill="none" stroke="#404040" d="M1307.44,-344.16C1301.11,-365.67 1290.44,-387.19 1272.5,-401 1225.45,-437.22 815.11,-445 675.09,-446.6"/>
<polygon fill="none" stroke="#404040" points="674.78,-446.6 668.83,-450.67 662.78,-446.73 668.74,-442.67 674.78,-446.6"/>
<text text-anchor="middle" x="1301" y="-393" font-family="Helvetica,sans-Serif" font-size="10.00"> +status</text>
</g>
</g>
</svg>
        <g id="navigator" transform="translate(0 0)" fill="#404254">
                <rect fill="#f2f5e9" fill-opacity="0.5" stroke="#606060" stroke-width=".5" x="0" y="0" width="60" height="60"/>
                <use id="zoomplus" xlink:href="#zoomPlus" x="17" y="9" onmousedown="handleZoom(evt,'in')"/>
                <use id="zoomminus" xlink:href="#zoomMin" x="42" y="9" onmousedown="handleZoom(evt,'out')"/>
                <use id="reset" xlink:href="#resetDef" x="30" y="36" onmousedown="handleReset()"/>
                <g id="arrowUp" xlink:href="#dirArrow" transform="translate(30 24)" onmousedown="handlePan(0,-1)">
                  <use xlink:href="#rim" fill="#404040">
                        <set attributeName="fill" to="#808080" begin="arrowUp.mouseover" end="arrowUp.mouseout"/>
                  </use>
                  <path fill="none" stroke="white" stroke-width="1.5" d="M0,-3.0v7 M-2.5,-0.5L0,-3.0L2.5,-0.5"/>
                </g>
                <g id="arrowRight" xlink:href="#dirArrow" transform="rotate(90) translate(36 -43)" onmousedown="handlePan(1,0)">
                  <use xlink:href="#rim" fill="#404040">
                        <set attributeName="fill" to="#808080" begin="arrowRight.mouseover" end="arrowRight.mouseout"/>
                  </use>
                  <path fill="none" stroke="white" stroke-width="1.5" d="M0,-3.0v7 M-2.5,-0.5L0,-3.0L2.5,-0.5"/>
                </g>
                <g id="arrowDown" xlink:href="#dirArrow" transform="rotate(180) translate(-30 -48)" onmousedown="handlePan(0,1)">
                  <use xlink:href="#rim" fill="#404040">
                        <set attributeName="fill" to="#808080" begin="arrowDown.mouseover" end="arrowDown.mouseout"/>
                  </use>
                  <path fill="none" stroke="white" stroke-width="1.5" d="M0,-3.0v7 M-2.5,-0.5L0,-3.0L2.5,-0.5"/>
                </g>
                <g id="arrowLeft" xlink:href="#dirArrow" transform="rotate(270) translate(-36 17)" onmousedown="handlePan(-1,0)">
                  <use xlink:href="#rim" fill="#404040">
                        <set attributeName="fill" to="#808080" begin="arrowLeft.mouseover" end="arrowLeft.mouseout"/>
                  </use>
                  <path fill="none" stroke="white" stroke-width="1.5" d="M0,-3.0v7 M-2.5,-0.5L0,-3.0L2.5,-0.5"/>
                </g>
        </g>
        <svg viewBox="0 0 15 15" width="100%" height="30px" preserveAspectRatio="xMaxYMin meet">
         <g id="arrow_out" transform="scale(0.3 0.3)">
          <a xlink:href="a01557_org.svg" target="_base">
           <rect id="button" ry="5" rx="5" y="6" x="6" height="38" width="38"
                fill="#f2f5e9" fill-opacity="0.5" stroke="#606060" stroke-width="1.0"/>
           <path id="arrow"
             d="M 11.500037,31.436501 C 11.940474,20.09759 22.043105,11.32322 32.158766,21.979434 L 37.068811,17.246167 C 37.068811,17.246167 37.088388,32 37.088388,32 L 22.160133,31.978069 C 22.160133,31.978069 26.997745,27.140456 26.997745,27.140456 C 18.528582,18.264221 13.291696,25.230495 11.500037,31.436501 z"
             style="fill:#404040;"/>
          </a>
         </g>
        </svg>
</svg>
