<?xml version="1.0" encoding="UTF-8" standalone="no"?>
<!DOCTYPE svg PUBLIC "-//W3C//DTD SVG 1.1//EN"
 "http://www.w3.org/Graphics/SVG/1.1/DTD/svg11.dtd">
<!-- Generated by graphviz version 2.44.1 (20200629.0846)
 -->
<!-- Title: NPNZ_PORTS_s Pages: 1 -->
<svg width="1258pt" height="485pt"
 viewBox="0.00 0.00 1258.00 485.00" xmlns="http://www.w3.org/2000/svg" xmlns:xlink="http://www.w3.org/1999/xlink">
<g id="graph0" class="graph" transform="scale(1 1) rotate(0) translate(4 481)">
<title>NPNZ_PORTS_s</title>
<polygon fill="white" stroke="transparent" points="-4,4 -4,-481 1254,-481 1254,4 -4,4"/>
<!-- Node1 -->
<g id="node1" class="node">
<title>Node1</title>
<g id="a_node1"><a xlink:title="Filter Coefficient Arrays, Number Format Handling and Input/Output History Parameters.">
<polygon fill="#bfbfbf" stroke="black" points="571,-419.5 571,-476.5 682,-476.5 682,-419.5 571,-419.5"/>
<text text-anchor="middle" x="626.5" y="-464.5" font-family="Helvetica,sans-Serif" font-size="10.00">NPNZ_PORTS_s</text>
<polyline fill="none" stroke="black" points="571,-457.5 682,-457.5 "/>
<text text-anchor="start" x="579" y="-445.5" font-family="Helvetica,sans-Serif" font-size="10.00">+ ptrControlReference</text>
<polyline fill="none" stroke="black" points="571,-438.5 682,-438.5 "/>
<text text-anchor="middle" x="626.5" y="-426.5" font-family="Helvetica,sans-Serif" font-size="10.00"> </text>
</a>
</g>
</g>
<!-- Node2 -->
<g id="node2" class="node">
<title>Node2</title>
<g id="a_node2"><a xlink:href="a01559.html" target="_top" xlink:title="Global NPNZ controller data object.">
<polygon fill="white" stroke="black" points="538.5,-265 538.5,-322 606.5,-322 606.5,-265 538.5,-265"/>
<text text-anchor="middle" x="572.5" y="-310" font-family="Helvetica,sans-Serif" font-size="10.00">NPNZ16b_s</text>
<polyline fill="none" stroke="black" points="538.5,-303 606.5,-303 "/>
<text text-anchor="middle" x="572.5" y="-291" font-family="Helvetica,sans-Serif" font-size="10.00"> </text>
<polyline fill="none" stroke="black" points="538.5,-284 606.5,-284 "/>
<text text-anchor="middle" x="572.5" y="-272" font-family="Helvetica,sans-Serif" font-size="10.00"> </text>
</a>
</g>
</g>
<!-- Node1&#45;&gt;Node2 -->
<g id="edge10" class="edge">
<title>Node1&#45;&gt;Node2</title>
<path fill="none" stroke="#404040" d="M577.82,-419.3C572.06,-413.98 567,-407.88 563.5,-401 553.1,-380.53 554.86,-354.97 559.45,-334.03"/>
<polygon fill="none" stroke="#404040" points="559.47,-333.93 557.06,-327.14 562.4,-322.3 564.82,-329.09 559.47,-333.93"/>
<text text-anchor="middle" x="580" y="-376.5" font-family="Helvetica,sans-Serif" font-size="10.00"> +Ports</text>
</g>
<!-- Node11 -->
<g id="node11" class="node">
<title>Node11</title>
<g id="a_node11"><a xlink:href="a01523.html" target="_top" xlink:title="Data Input/Output Port declaration of memory addresses, signal offsets and normalization settings.">
<polygon fill="white" stroke="black" points="627.5,-248.5 627.5,-338.5 711.5,-338.5 711.5,-248.5 627.5,-248.5"/>
<text text-anchor="middle" x="669.5" y="-326.5" font-family="Helvetica,sans-Serif" font-size="10.00">NPNZ_PORT_s</text>
<polyline fill="none" stroke="black" points="627.5,-319.5 711.5,-319.5 "/>
<text text-anchor="start" x="635.5" y="-307.5" font-family="Helvetica,sans-Serif" font-size="10.00">+ ptrAddress</text>
<text text-anchor="start" x="635.5" y="-296.5" font-family="Helvetica,sans-Serif" font-size="10.00">+ NormScaler</text>
<text text-anchor="start" x="635.5" y="-285.5" font-family="Helvetica,sans-Serif" font-size="10.00">+ NormFactor</text>
<text text-anchor="start" x="635.5" y="-274.5" font-family="Helvetica,sans-Serif" font-size="10.00">+ Offset</text>
<polyline fill="none" stroke="black" points="627.5,-267.5 711.5,-267.5 "/>
<text text-anchor="middle" x="669.5" y="-255.5" font-family="Helvetica,sans-Serif" font-size="10.00"> </text>
</a>
</g>
</g>
<!-- Node1&#45;&gt;Node11 -->
<g id="edge20" class="edge">
<title>Node1&#45;&gt;Node11</title>
<path fill="none" stroke="midnightblue" d="M637.03,-409.66C643.08,-388.21 650.7,-361.16 657.05,-338.66"/>
<polygon fill="none" stroke="midnightblue" points="633.63,-408.81 634.29,-419.38 640.37,-410.71 633.63,-408.81"/>
</g>
<!-- Node2&#45;&gt;Node1 -->
<g id="edge1" class="edge">
<title>Node2&#45;&gt;Node1</title>
<path fill="none" stroke="midnightblue" d="M590.02,-331.31C593.7,-339.66 597.41,-348.56 600.5,-357 608,-377.46 614.77,-401.16 619.52,-419.1"/>
<polygon fill="none" stroke="midnightblue" points="593.19,-329.84 585.89,-322.16 586.81,-332.71 593.19,-329.84"/>
</g>
<!-- Node3 -->
<g id="node3" class="node">
<title>Node3</title>
<g id="a_node3"><a xlink:href="a01543.html" target="_top" xlink:title="Automated ADC Trigger handling.">
<polygon fill="white" stroke="black" points="0,-55.5 0,-145.5 129,-145.5 129,-55.5 0,-55.5"/>
<text text-anchor="middle" x="64.5" y="-133.5" font-family="Helvetica,sans-Serif" font-size="10.00">NPNZ_ADC_TRGCTRL_s</text>
<polyline fill="none" stroke="black" points="0,-126.5 129,-126.5 "/>
<text text-anchor="start" x="8" y="-114.5" font-family="Helvetica,sans-Serif" font-size="10.00">+ ptrADCTriggerARegister</text>
<text text-anchor="start" x="8" y="-103.5" font-family="Helvetica,sans-Serif" font-size="10.00">+ ADCTriggerAOffset</text>
<text text-anchor="start" x="8" y="-92.5" font-family="Helvetica,sans-Serif" font-size="10.00">+ ptrADCTriggerBRegister</text>
<text text-anchor="start" x="8" y="-81.5" font-family="Helvetica,sans-Serif" font-size="10.00">+ ADCTriggerBOffset</text>
<polyline fill="none" stroke="black" points="0,-74.5 129,-74.5 "/>
<text text-anchor="middle" x="64.5" y="-62.5" font-family="Helvetica,sans-Serif" font-size="10.00"> </text>
</a>
</g>
</g>
<!-- Node2&#45;&gt;Node3 -->
<g id="edge3" class="edge">
<title>Node2&#45;&gt;Node3</title>
<path fill="none" stroke="midnightblue" d="M528.33,-293.08C452.37,-292.49 293.61,-284.16 173.5,-230 135.9,-213.04 106.65,-175.78 87.96,-145.73"/>
<polygon fill="none" stroke="midnightblue" points="528.47,-296.58 538.48,-293.12 528.5,-289.58 528.47,-296.58"/>
</g>
<!-- Node4 -->
<g id="node4" class="node">
<title>Node4</title>
<g id="a_node4"><a xlink:href="a01535.html" target="_top" xlink:title="Adaptive Gain Control Modulation Parameters.">
<polygon fill="white" stroke="black" points="147.5,-55.5 147.5,-145.5 279.5,-145.5 279.5,-55.5 147.5,-55.5"/>
<text text-anchor="middle" x="213.5" y="-133.5" font-family="Helvetica,sans-Serif" font-size="10.00">NPNZ_GAIN_CONTROL_s</text>
<polyline fill="none" stroke="black" points="147.5,-126.5 279.5,-126.5 "/>
<text text-anchor="start" x="155.5" y="-114.5" font-family="Helvetica,sans-Serif" font-size="10.00">+ AgcScaler</text>
<text text-anchor="start" x="155.5" y="-103.5" font-family="Helvetica,sans-Serif" font-size="10.00">+ AgcFactor</text>
<text text-anchor="start" x="155.5" y="-92.5" font-family="Helvetica,sans-Serif" font-size="10.00">+ AgcMedian</text>
<text text-anchor="start" x="155.5" y="-81.5" font-family="Helvetica,sans-Serif" font-size="10.00">+ ptrAgcObserverFunction</text>
<polyline fill="none" stroke="black" points="147.5,-74.5 279.5,-74.5 "/>
<text text-anchor="middle" x="213.5" y="-62.5" font-family="Helvetica,sans-Serif" font-size="10.00"> </text>
</a>
</g>
</g>
<!-- Node2&#45;&gt;Node4 -->
<g id="edge5" class="edge">
<title>Node2&#45;&gt;Node4</title>
<path fill="none" stroke="midnightblue" d="M528.07,-290.92C472.89,-287.04 377.84,-273.92 310.5,-230 278.54,-209.16 253.09,-174.01 236.29,-145.73"/>
<polygon fill="none" stroke="midnightblue" points="528.02,-294.42 538.22,-291.56 528.46,-287.43 528.02,-294.42"/>
</g>
<!-- Node5 -->
<g id="node5" class="node">
<title>Node5</title>
<g id="a_node5"><a xlink:href="a01539.html" target="_top" xlink:title="System Anti&#45;Windup (Output Clamping) Thresholds.">
<polygon fill="white" stroke="black" points="297.5,-55.5 297.5,-145.5 385.5,-145.5 385.5,-55.5 297.5,-55.5"/>
<text text-anchor="middle" x="341.5" y="-133.5" font-family="Helvetica,sans-Serif" font-size="10.00">NPNZ_LIMITS_s</text>
<polyline fill="none" stroke="black" points="297.5,-126.5 385.5,-126.5 "/>
<text text-anchor="start" x="305.5" y="-114.5" font-family="Helvetica,sans-Serif" font-size="10.00">+ MinOutput</text>
<text text-anchor="start" x="305.5" y="-103.5" font-family="Helvetica,sans-Serif" font-size="10.00">+ MaxOutput</text>
<text text-anchor="start" x="305.5" y="-92.5" font-family="Helvetica,sans-Serif" font-size="10.00">+ AltMinOutput</text>
<text text-anchor="start" x="305.5" y="-81.5" font-family="Helvetica,sans-Serif" font-size="10.00">+ AltMaxOutput</text>
<polyline fill="none" stroke="black" points="297.5,-74.5 385.5,-74.5 "/>
<text text-anchor="middle" x="341.5" y="-62.5" font-family="Helvetica,sans-Serif" font-size="10.00"> </text>
</a>
</g>
</g>
<!-- Node2&#45;&gt;Node5 -->
<g id="edge7" class="edge">
<title>Node2&#45;&gt;Node5</title>
<path fill="none" stroke="midnightblue" d="M528.48,-282.18C494.98,-272.71 449.07,-256.13 415.5,-230 387.87,-208.49 368.71,-173.57 356.82,-145.56"/>
<polygon fill="none" stroke="midnightblue" points="527.88,-285.64 538.45,-284.89 529.72,-278.89 527.88,-285.64"/>
</g>
<!-- Node6 -->
<g id="node6" class="node">
<title>Node6</title>
<g id="a_node6"><a xlink:href="a01555.html" target="_top" xlink:title="User Data Space for Advanced Control Functions.">
<polygon fill="white" stroke="black" points="403.5,-33.5 403.5,-167.5 563.5,-167.5 563.5,-33.5 403.5,-33.5"/>
<text text-anchor="middle" x="483.5" y="-155.5" font-family="Helvetica,sans-Serif" font-size="10.00">NPNZ_USER_DATA_BUFFER_s</text>
<polyline fill="none" stroke="black" points="403.5,-148.5 563.5,-148.5 "/>
<text text-anchor="start" x="411.5" y="-136.5" font-family="Helvetica,sans-Serif" font-size="10.00">+ usrParam0</text>
<text text-anchor="start" x="411.5" y="-125.5" font-family="Helvetica,sans-Serif" font-size="10.00">+ usrParam1</text>
<text text-anchor="start" x="411.5" y="-114.5" font-family="Helvetica,sans-Serif" font-size="10.00">+ usrParam2</text>
<text text-anchor="start" x="411.5" y="-103.5" font-family="Helvetica,sans-Serif" font-size="10.00">+ usrParam3</text>
<text text-anchor="start" x="411.5" y="-92.5" font-family="Helvetica,sans-Serif" font-size="10.00">+ usrParam4</text>
<text text-anchor="start" x="411.5" y="-81.5" font-family="Helvetica,sans-Serif" font-size="10.00">+ usrParam5</text>
<text text-anchor="start" x="411.5" y="-70.5" font-family="Helvetica,sans-Serif" font-size="10.00">+ usrParam6</text>
<text text-anchor="start" x="411.5" y="-59.5" font-family="Helvetica,sans-Serif" font-size="10.00">+ usrParam7</text>
<polyline fill="none" stroke="black" points="403.5,-52.5 563.5,-52.5 "/>
<text text-anchor="middle" x="483.5" y="-40.5" font-family="Helvetica,sans-Serif" font-size="10.00"> </text>
</a>
</g>
</g>
<!-- Node2&#45;&gt;Node6 -->
<g id="edge9" class="edge">
<title>Node2&#45;&gt;Node6</title>
<path fill="none" stroke="midnightblue" d="M549.88,-256.39C544.89,-247.87 539.82,-238.72 535.5,-230 525.68,-210.16 516.2,-187.98 508.09,-167.71"/>
<polygon fill="none" stroke="midnightblue" points="546.88,-258.2 555.01,-264.99 552.9,-254.61 546.88,-258.2"/>
</g>
<!-- Node7 -->
<g id="node7" class="node">
<title>Node7</title>
<g id="a_node7"><a xlink:href="a01531.html" target="_top" xlink:title="Filter Coefficient Arrays, Number Format Handling and Input/Output History Parameters.">
<polygon fill="white" stroke="black" points="582,-0.5 582,-200.5 719,-200.5 719,-0.5 582,-0.5"/>
<text text-anchor="middle" x="650.5" y="-188.5" font-family="Helvetica,sans-Serif" font-size="10.00">NPNZ_FILTER_PARAMS_s</text>
<polyline fill="none" stroke="black" points="582,-181.5 719,-181.5 "/>
<text text-anchor="start" x="590" y="-169.5" font-family="Helvetica,sans-Serif" font-size="10.00">+ ptrACoefficients</text>
<text text-anchor="start" x="590" y="-158.5" font-family="Helvetica,sans-Serif" font-size="10.00">+ ptrBCoefficients</text>
<text text-anchor="start" x="590" y="-147.5" font-family="Helvetica,sans-Serif" font-size="10.00">+ ptrControlHistory</text>
<text text-anchor="start" x="590" y="-136.5" font-family="Helvetica,sans-Serif" font-size="10.00">+ ptrErrorHistory</text>
<text text-anchor="start" x="590" y="-125.5" font-family="Helvetica,sans-Serif" font-size="10.00">+ ACoefficientsArraySize</text>
<text text-anchor="start" x="590" y="-114.5" font-family="Helvetica,sans-Serif" font-size="10.00">+ BCoefficientsArraySize</text>
<text text-anchor="start" x="590" y="-103.5" font-family="Helvetica,sans-Serif" font-size="10.00">+ ControlHistoryArraySize</text>
<text text-anchor="start" x="590" y="-92.5" font-family="Helvetica,sans-Serif" font-size="10.00">+ ErrorHistoryArraySize</text>
<text text-anchor="start" x="590" y="-81.5" font-family="Helvetica,sans-Serif" font-size="10.00">+ normPreShift</text>
<text text-anchor="start" x="590" y="-70.5" font-family="Helvetica,sans-Serif" font-size="10.00">+ normPostShiftA</text>
<text text-anchor="start" x="590" y="-59.5" font-family="Helvetica,sans-Serif" font-size="10.00">+ normPostShiftB</text>
<text text-anchor="start" x="590" y="-48.5" font-family="Helvetica,sans-Serif" font-size="10.00">+ normPostScaler</text>
<text text-anchor="start" x="590" y="-37.5" font-family="Helvetica,sans-Serif" font-size="10.00">+ PTermScaler</text>
<text text-anchor="start" x="590" y="-26.5" font-family="Helvetica,sans-Serif" font-size="10.00">+ PTermFactor</text>
<polyline fill="none" stroke="black" points="582,-19.5 719,-19.5 "/>
<text text-anchor="middle" x="650.5" y="-7.5" font-family="Helvetica,sans-Serif" font-size="10.00"> </text>
</a>
</g>
</g>
<!-- Node2&#45;&gt;Node7 -->
<g id="edge12" class="edge">
<title>Node2&#45;&gt;Node7</title>
<path fill="none" stroke="midnightblue" d="M587.66,-255.37C594.12,-239.57 601.98,-220.32 609.93,-200.85"/>
<polygon fill="none" stroke="midnightblue" points="584.38,-254.15 583.84,-264.73 590.86,-256.79 584.38,-254.15"/>
</g>
<!-- Node8 -->
<g id="node8" class="node">
<title>Node8</title>
<g id="a_node8"><a xlink:href="a01547.html" target="_top" xlink:title="Data Provider Target Memory Addresses.">
<polygon fill="white" stroke="black" points="737.5,-55.5 737.5,-145.5 911.5,-145.5 911.5,-55.5 737.5,-55.5"/>
<text text-anchor="middle" x="824.5" y="-133.5" font-family="Helvetica,sans-Serif" font-size="10.00">NPNZ_DATA_PROVIDERS_s</text>
<polyline fill="none" stroke="black" points="737.5,-126.5 911.5,-126.5 "/>
<text text-anchor="start" x="745.5" y="-114.5" font-family="Helvetica,sans-Serif" font-size="10.00">+ ptrDProvControlInput</text>
<text text-anchor="start" x="745.5" y="-103.5" font-family="Helvetica,sans-Serif" font-size="10.00">+ ptrDProvControlInputCompensated</text>
<text text-anchor="start" x="745.5" y="-92.5" font-family="Helvetica,sans-Serif" font-size="10.00">+ ptrDProvControlError</text>
<text text-anchor="start" x="745.5" y="-81.5" font-family="Helvetica,sans-Serif" font-size="10.00">+ ptrDProvControlOutput</text>
<polyline fill="none" stroke="black" points="737.5,-74.5 911.5,-74.5 "/>
<text text-anchor="middle" x="824.5" y="-62.5" font-family="Helvetica,sans-Serif" font-size="10.00"> </text>
</a>
</g>
</g>
<!-- Node2&#45;&gt;Node8 -->
<g id="edge14" class="edge">
<title>Node2&#45;&gt;Node8</title>
<path fill="none" stroke="midnightblue" d="M605.17,-257.98C609.45,-254.35 613.94,-250.93 618.5,-248 636.97,-236.14 644.27,-238.53 664.5,-230 693.27,-217.86 702.98,-219 728.5,-201 750.47,-185.5 771.59,-164.52 788.4,-145.82"/>
<polygon fill="none" stroke="midnightblue" points="602.82,-255.39 597.71,-264.67 607.5,-260.6 602.82,-255.39"/>
</g>
<!-- Node9 -->
<g id="node9" class="node">
<title>Node9</title>
<g id="a_node9"><a xlink:href="a01551.html" target="_top" xlink:title="User Extension Function Call Parameters.">
<polygon fill="white" stroke="black" points="930,-6 930,-195 1107,-195 1107,-6 930,-6"/>
<text text-anchor="middle" x="1018.5" y="-183" font-family="Helvetica,sans-Serif" font-size="10.00">NPNZ_EXTENSION_HOOKS_s</text>
<polyline fill="none" stroke="black" points="930,-176 1107,-176 "/>
<text text-anchor="start" x="938" y="-164" font-family="Helvetica,sans-Serif" font-size="10.00">+ ptrExtHookStartFunction</text>
<text text-anchor="start" x="938" y="-153" font-family="Helvetica,sans-Serif" font-size="10.00">+ ExtHookStartFunctionParam</text>
<text text-anchor="start" x="938" y="-142" font-family="Helvetica,sans-Serif" font-size="10.00">+ ptrExtHookSourceFunction</text>
<text text-anchor="start" x="938" y="-131" font-family="Helvetica,sans-Serif" font-size="10.00">+ ExtHookSourceFunctionParam</text>
<text text-anchor="start" x="938" y="-120" font-family="Helvetica,sans-Serif" font-size="10.00">+ ptrExtHookPreAntiWindupFunction</text>
<text text-anchor="start" x="938" y="-109" font-family="Helvetica,sans-Serif" font-size="10.00">+ ExtHookPreAntiWindupFunction</text>
<text text-anchor="start" x="938" y="-98" font-family="Helvetica,sans-Serif" font-size="10.00">Param</text>
<text text-anchor="start" x="938" y="-87" font-family="Helvetica,sans-Serif" font-size="10.00">+ ptrExtHookTargetFunction</text>
<text text-anchor="start" x="938" y="-76" font-family="Helvetica,sans-Serif" font-size="10.00">+ ExtHookTargetFunctionParam</text>
<text text-anchor="start" x="938" y="-65" font-family="Helvetica,sans-Serif" font-size="10.00">+ ptrExtHookStopFunction</text>
<text text-anchor="start" x="938" y="-54" font-family="Helvetica,sans-Serif" font-size="10.00">+ ExtHookStopFunctionParam</text>
<text text-anchor="start" x="938" y="-43" font-family="Helvetica,sans-Serif" font-size="10.00">+ ptrExtHookEndFunction</text>
<text text-anchor="start" x="938" y="-32" font-family="Helvetica,sans-Serif" font-size="10.00">+ ExtHookEndFunctionParam</text>
<polyline fill="none" stroke="black" points="930,-25 1107,-25 "/>
<text text-anchor="middle" x="1018.5" y="-13" font-family="Helvetica,sans-Serif" font-size="10.00"> </text>
</a>
</g>
</g>
<!-- Node2&#45;&gt;Node9 -->
<g id="edge16" class="edge">
<title>Node2&#45;&gt;Node9</title>
<path fill="none" stroke="midnightblue" d="M602.36,-258.24C607.36,-254.19 612.79,-250.58 618.5,-248 664.01,-227.43 793.74,-240.8 842.5,-230 878.61,-222 889.45,-221.1 920.5,-201 923.65,-198.96 926.79,-196.8 929.89,-194.54"/>
<polygon fill="none" stroke="midnightblue" points="600.03,-255.63 594.89,-264.9 604.69,-260.86 600.03,-255.63"/>
</g>
<!-- Node10 -->
<g id="node10" class="node">
<title>Node10</title>
<g id="a_node10"><a xlink:href="a01507.html" target="_top" xlink:title="NPNZ16b controller object status and control word.">
<polygon fill="white" stroke="black" points="1125,-28 1125,-173 1250,-173 1250,-28 1125,-28"/>
<text text-anchor="middle" x="1187.5" y="-161" font-family="Helvetica,sans-Serif" font-size="10.00">NPNZ_STATUS_s</text>
<polyline fill="none" stroke="black" points="1125,-154 1250,-154 "/>
<text text-anchor="start" x="1133" y="-142" font-family="Helvetica,sans-Serif" font-size="10.00">+ lower_saturation_event</text>
<text text-anchor="start" x="1133" y="-131" font-family="Helvetica,sans-Serif" font-size="10.00">+ upper_saturation_event</text>
<text text-anchor="start" x="1133" y="-120" font-family="Helvetica,sans-Serif" font-size="10.00">+ unsigned</text>
<text text-anchor="start" x="1133" y="-109" font-family="Helvetica,sans-Serif" font-size="10.00">+ agc_enabled</text>
<text text-anchor="start" x="1133" y="-98" font-family="Helvetica,sans-Serif" font-size="10.00">+ swap_target</text>
<text text-anchor="start" x="1133" y="-87" font-family="Helvetica,sans-Serif" font-size="10.00">+ swap_source</text>
<text text-anchor="start" x="1133" y="-76" font-family="Helvetica,sans-Serif" font-size="10.00">+ invert_input</text>
<text text-anchor="start" x="1133" y="-65" font-family="Helvetica,sans-Serif" font-size="10.00">+ enabled</text>
<text text-anchor="start" x="1133" y="-54" font-family="Helvetica,sans-Serif" font-size="10.00">+ value</text>
<polyline fill="none" stroke="black" points="1125,-47 1250,-47 "/>
<text text-anchor="middle" x="1187.5" y="-35" font-family="Helvetica,sans-Serif" font-size="10.00"> </text>
</a>
</g>
</g>
<!-- Node2&#45;&gt;Node10 -->
<g id="edge18" class="edge">
<title>Node2&#45;&gt;Node10</title>
<path fill="none" stroke="midnightblue" d="M602.63,-257.76C607.54,-253.85 612.87,-250.41 618.5,-248 706.18,-210.37 954.38,-250.81 1047.5,-230 1079.96,-222.74 1090.52,-221.77 1116.5,-201 1126.44,-193.05 1135.63,-183.36 1143.86,-173.18"/>
<polygon fill="none" stroke="midnightblue" points="599.97,-255.43 594.8,-264.68 604.61,-260.68 599.97,-255.43"/>
</g>
<!-- Node3&#45;&gt;Node2 -->
<g id="edge2" class="edge">
<title>Node3&#45;&gt;Node2</title>
<path fill="none" stroke="#404040" d="M90.2,-145.72C102.87,-164.62 119.52,-185.79 138.5,-201 198.29,-248.91 427.35,-277.62 526.41,-288.04"/>
<polygon fill="none" stroke="#404040" points="526.45,-288.04 532.83,-284.68 538.38,-289.27 532,-292.63 526.45,-288.04"/>
<text text-anchor="middle" x="239.5" y="-222" font-family="Helvetica,sans-Serif" font-size="10.00"> +ADCTriggerControl</text>
</g>
<!-- Node4&#45;&gt;Node2 -->
<g id="edge4" class="edge">
<title>Node4&#45;&gt;Node2</title>
<path fill="none" stroke="#404040" d="M240.89,-145.6C253.82,-164.15 270.38,-185.08 288.5,-201 356.76,-260.98 464.82,-281.72 526.08,-288.84"/>
<polygon fill="none" stroke="#404040" points="526.12,-288.84 532.51,-285.51 538.05,-290.12 531.66,-293.46 526.12,-288.84"/>
<text text-anchor="middle" x="359" y="-222" font-family="Helvetica,sans-Serif" font-size="10.00"> +GainControl</text>
</g>
<!-- Node5&#45;&gt;Node2 -->
<g id="edge6" class="edge">
<title>Node5&#45;&gt;Node2</title>
<path fill="none" stroke="#404040" d="M358.12,-145.92C366.79,-164.65 378.89,-185.61 394.5,-201 432.07,-238.02 487.67,-263.31 526.71,-277.76"/>
<polygon fill="none" stroke="#404040" points="526.96,-277.85 533.95,-276.11 538.25,-281.9 531.25,-283.64 526.96,-277.85"/>
<text text-anchor="middle" x="446.5" y="-222" font-family="Helvetica,sans-Serif" font-size="10.00"> +Limits</text>
</g>
<!-- Node6&#45;&gt;Node2 -->
<g id="edge8" class="edge">
<title>Node6&#45;&gt;Node2</title>
<path fill="none" stroke="#404040" d="M514.34,-167.69C527.71,-196.37 542.89,-228.96 554.39,-253.64"/>
<polygon fill="none" stroke="#404040" points="554.49,-253.85 560.65,-257.6 559.56,-264.73 553.4,-260.98 554.49,-253.85"/>
<text text-anchor="middle" x="567.5" y="-222" font-family="Helvetica,sans-Serif" font-size="10.00"> +Advanced</text>
</g>
<!-- Node7&#45;&gt;Node2 -->
<g id="edge11" class="edge">
<title>Node7&#45;&gt;Node2</title>
<path fill="none" stroke="#404040" d="M635.65,-200.66C632.6,-210.8 628.93,-220.76 624.5,-230 620.25,-238.87 614.46,-247.54 608.29,-255.46"/>
<polygon fill="none" stroke="#404040" points="608.28,-255.47 607.55,-262.64 600.64,-264.72 601.38,-257.55 608.28,-255.47"/>
<text text-anchor="middle" x="645" y="-222" font-family="Helvetica,sans-Serif" font-size="10.00"> +Filter</text>
</g>
<!-- Node8&#45;&gt;Node2 -->
<g id="edge13" class="edge">
<title>Node8&#45;&gt;Node2</title>
<path fill="none" stroke="#404040" d="M813.06,-145.57C803.21,-174.34 785.97,-210.12 757.5,-230 706.42,-265.66 674.62,-220.97 618.5,-248 613.64,-250.34 608.97,-253.4 604.59,-256.81"/>
<polygon fill="none" stroke="#404040" points="604.56,-256.83 602.66,-263.79 595.5,-264.71 597.4,-257.76 604.56,-256.83"/>
<text text-anchor="middle" x="803.5" y="-222" font-family="Helvetica,sans-Serif" font-size="10.00"> +DataProviders</text>
</g>
<!-- Node9&#45;&gt;Node2 -->
<g id="edge15" class="edge">
<title>Node9&#45;&gt;Node2</title>
<path fill="none" stroke="#404040" d="M984.09,-195.23C975.16,-208.91 964.11,-221.29 950.5,-230 888.26,-269.82 686.22,-218.45 618.5,-248 613.44,-250.21 608.61,-253.24 604.11,-256.69"/>
<polygon fill="none" stroke="#404040" points="603.89,-256.88 601.98,-263.83 594.83,-264.75 596.73,-257.79 603.89,-256.88"/>
<text text-anchor="middle" x="1003" y="-222" font-family="Helvetica,sans-Serif" font-size="10.00"> +ExtensionHooks</text>
</g>
<!-- Node10&#45;&gt;Node2 -->
<g id="edge17" class="edge">
<title>Node10&#45;&gt;Node2</title>
<path fill="none" stroke="#404040" d="M1175.51,-173.08C1168.2,-194.86 1156.44,-216.56 1137.5,-230 1090.44,-263.39 671.61,-225.44 618.5,-248 613.42,-250.16 608.57,-253.16 604.06,-256.59"/>
<polygon fill="none" stroke="#404040" points="603.85,-256.78 601.93,-263.73 594.78,-264.64 596.69,-257.68 603.85,-256.78"/>
<text text-anchor="middle" x="1167" y="-222" font-family="Helvetica,sans-Serif" font-size="10.00"> +status</text>
</g>
<!-- Node11&#45;&gt;Node1 -->
<g id="edge19" class="edge">
<title>Node11&#45;&gt;Node1</title>
<path fill="none" stroke="#404040" d="M664.71,-338.52C661.82,-358.01 657.32,-381 650.5,-401 649.68,-403.4 648.75,-405.82 647.75,-408.24"/>
<polygon fill="none" stroke="#404040" points="647.64,-408.48 648.77,-415.6 642.63,-419.38 641.5,-412.26 647.64,-408.48"/>
<text text-anchor="middle" x="686.5" y="-393" font-family="Helvetica,sans-Serif" font-size="10.00"> +AltSource</text>
<text text-anchor="middle" x="686.5" y="-382" font-family="Helvetica,sans-Serif" font-size="10.00">+AltTarget</text>
<text text-anchor="middle" x="686.5" y="-371" font-family="Helvetica,sans-Serif" font-size="10.00">+Source</text>
<text text-anchor="middle" x="686.5" y="-360" font-family="Helvetica,sans-Serif" font-size="10.00">+Target</text>
</g>
</g>
</svg>
