<?xml version="1.0" encoding="UTF-8" standalone="no"?>
<!DOCTYPE svg PUBLIC "-//W3C//DTD SVG 1.1//EN"
 "http://www.w3.org/Graphics/SVG/1.1/DTD/svg11.dtd">
<!-- Generated by graphviz version 2.44.1 (20200629.0846)
 -->
<!-- Title: NPNZ_FILTER_PARAMS_s Pages: 1 -->
<svg width="1232pt" height="722pt"
 viewBox="0.00 0.00 1232.00 722.00" xmlns="http://www.w3.org/2000/svg" xmlns:xlink="http://www.w3.org/1999/xlink">
<g id="graph0" class="graph" transform="scale(1 1) rotate(0) translate(4 718)">
<title>NPNZ_FILTER_PARAMS_s</title>
<polygon fill="white" stroke="transparent" points="-4,4 -4,-718 1228,-718 1228,4 -4,4"/>
<!-- Node1 -->
<g id="node1" class="node">
<title>Node1</title>
<g id="a_node1"><a xlink:title="Filter Coefficient Arrays, Number Format Handling and Input/Output History Parameters.">
<polygon fill="#bfbfbf" stroke="black" points="495,-513.5 495,-713.5 632,-713.5 632,-513.5 495,-513.5"/>
<text text-anchor="middle" x="563.5" y="-701.5" font-family="Helvetica,sans-Serif" font-size="10.00">NPNZ_FILTER_PARAMS_s</text>
<polyline fill="none" stroke="black" points="495,-694.5 632,-694.5 "/>
<text text-anchor="start" x="503" y="-682.5" font-family="Helvetica,sans-Serif" font-size="10.00">+ ptrACoefficients</text>
<text text-anchor="start" x="503" y="-671.5" font-family="Helvetica,sans-Serif" font-size="10.00">+ ptrBCoefficients</text>
<text text-anchor="start" x="503" y="-660.5" font-family="Helvetica,sans-Serif" font-size="10.00">+ ptrControlHistory</text>
<text text-anchor="start" x="503" y="-649.5" font-family="Helvetica,sans-Serif" font-size="10.00">+ ptrErrorHistory</text>
<text text-anchor="start" x="503" y="-638.5" font-family="Helvetica,sans-Serif" font-size="10.00">+ ACoefficientsArraySize</text>
<text text-anchor="start" x="503" y="-627.5" font-family="Helvetica,sans-Serif" font-size="10.00">+ BCoefficientsArraySize</text>
<text text-anchor="start" x="503" y="-616.5" font-family="Helvetica,sans-Serif" font-size="10.00">+ ControlHistoryArraySize</text>
<text text-anchor="start" x="503" y="-605.5" font-family="Helvetica,sans-Serif" font-size="10.00">+ ErrorHistoryArraySize</text>
<text text-anchor="start" x="503" y="-594.5" font-family="Helvetica,sans-Serif" font-size="10.00">+ normPreShift</text>
<text text-anchor="start" x="503" y="-583.5" font-family="Helvetica,sans-Serif" font-size="10.00">+ normPostShiftA</text>
<text text-anchor="start" x="503" y="-572.5" font-family="Helvetica,sans-Serif" font-size="10.00">+ normPostShiftB</text>
<text text-anchor="start" x="503" y="-561.5" font-family="Helvetica,sans-Serif" font-size="10.00">+ normPostScaler</text>
<text text-anchor="start" x="503" y="-550.5" font-family="Helvetica,sans-Serif" font-size="10.00">+ PTermScaler</text>
<text text-anchor="start" x="503" y="-539.5" font-family="Helvetica,sans-Serif" font-size="10.00">+ PTermFactor</text>
<polyline fill="none" stroke="black" points="495,-532.5 632,-532.5 "/>
<text text-anchor="middle" x="563.5" y="-520.5" font-family="Helvetica,sans-Serif" font-size="10.00"> </text>
</a>
</g>
</g>
<!-- Node2 -->
<g id="node2" class="node">
<title>Node2</title>
<g id="a_node2"><a xlink:href="a01559.html" target="_top" xlink:title="Global NPNZ controller data object.">
<polygon fill="white" stroke="black" points="529.5,-408.5 529.5,-465.5 597.5,-465.5 597.5,-408.5 529.5,-408.5"/>
<text text-anchor="middle" x="563.5" y="-453.5" font-family="Helvetica,sans-Serif" font-size="10.00">NPNZ16b_s</text>
<polyline fill="none" stroke="black" points="529.5,-446.5 597.5,-446.5 "/>
<text text-anchor="middle" x="563.5" y="-434.5" font-family="Helvetica,sans-Serif" font-size="10.00"> </text>
<polyline fill="none" stroke="black" points="529.5,-427.5 597.5,-427.5 "/>
<text text-anchor="middle" x="563.5" y="-415.5" font-family="Helvetica,sans-Serif" font-size="10.00"> </text>
</a>
</g>
</g>
<!-- Node1&#45;&gt;Node2 -->
<g id="edge14" class="edge">
<title>Node1&#45;&gt;Node2</title>
<path fill="none" stroke="#404040" d="M534.28,-513.32C534.09,-503.38 535.01,-493.47 537.5,-484 538.14,-481.57 538.94,-479.14 539.85,-476.73"/>
<polygon fill="none" stroke="#404040" points="539.89,-476.65 538.73,-469.53 544.86,-465.73 546.01,-472.85 539.89,-476.65"/>
<text text-anchor="middle" x="553" y="-487" font-family="Helvetica,sans-Serif" font-size="10.00"> +Filter</text>
</g>
<!-- Node2&#45;&gt;Node1 -->
<g id="edge1" class="edge">
<title>Node2&#45;&gt;Node1</title>
<path fill="none" stroke="midnightblue" d="M571.48,-475.69C571.89,-478.49 572.24,-481.28 572.5,-484 573.42,-493.46 573.78,-503.32 573.75,-513.19"/>
<polygon fill="none" stroke="midnightblue" points="574.9,-474.89 569.8,-465.6 567.99,-476.04 574.9,-474.89"/>
</g>
<!-- Node3 -->
<g id="node3" class="node">
<title>Node3</title>
<g id="a_node3"><a xlink:href="a01543.html" target="_top" xlink:title="Automated ADC Trigger handling.">
<polygon fill="white" stroke="black" points="0,-221 0,-311 129,-311 129,-221 0,-221"/>
<text text-anchor="middle" x="64.5" y="-299" font-family="Helvetica,sans-Serif" font-size="10.00">NPNZ_ADC_TRGCTRL_s</text>
<polyline fill="none" stroke="black" points="0,-292 129,-292 "/>
<text text-anchor="start" x="8" y="-280" font-family="Helvetica,sans-Serif" font-size="10.00">+ ptrADCTriggerARegister</text>
<text text-anchor="start" x="8" y="-269" font-family="Helvetica,sans-Serif" font-size="10.00">+ ADCTriggerAOffset</text>
<text text-anchor="start" x="8" y="-258" font-family="Helvetica,sans-Serif" font-size="10.00">+ ptrADCTriggerBRegister</text>
<text text-anchor="start" x="8" y="-247" font-family="Helvetica,sans-Serif" font-size="10.00">+ ADCTriggerBOffset</text>
<polyline fill="none" stroke="black" points="0,-240 129,-240 "/>
<text text-anchor="middle" x="64.5" y="-228" font-family="Helvetica,sans-Serif" font-size="10.00"> </text>
</a>
</g>
</g>
<!-- Node2&#45;&gt;Node3 -->
<g id="edge3" class="edge">
<title>Node2&#45;&gt;Node3</title>
<path fill="none" stroke="midnightblue" d="M519.18,-434.93C428.32,-432.09 224.34,-422.21 163.5,-390 130.55,-372.56 104.67,-338.93 87.65,-311.24"/>
<polygon fill="none" stroke="midnightblue" points="519.33,-438.43 529.43,-435.23 519.54,-431.44 519.33,-438.43"/>
</g>
<!-- Node4 -->
<g id="node4" class="node">
<title>Node4</title>
<g id="a_node4"><a xlink:href="a01535.html" target="_top" xlink:title="Adaptive Gain Control Modulation Parameters.">
<polygon fill="white" stroke="black" points="147.5,-221 147.5,-311 279.5,-311 279.5,-221 147.5,-221"/>
<text text-anchor="middle" x="213.5" y="-299" font-family="Helvetica,sans-Serif" font-size="10.00">NPNZ_GAIN_CONTROL_s</text>
<polyline fill="none" stroke="black" points="147.5,-292 279.5,-292 "/>
<text text-anchor="start" x="155.5" y="-280" font-family="Helvetica,sans-Serif" font-size="10.00">+ AgcScaler</text>
<text text-anchor="start" x="155.5" y="-269" font-family="Helvetica,sans-Serif" font-size="10.00">+ AgcFactor</text>
<text text-anchor="start" x="155.5" y="-258" font-family="Helvetica,sans-Serif" font-size="10.00">+ AgcMedian</text>
<text text-anchor="start" x="155.5" y="-247" font-family="Helvetica,sans-Serif" font-size="10.00">+ ptrAgcObserverFunction</text>
<polyline fill="none" stroke="black" points="147.5,-240 279.5,-240 "/>
<text text-anchor="middle" x="213.5" y="-228" font-family="Helvetica,sans-Serif" font-size="10.00"> </text>
</a>
</g>
</g>
<!-- Node2&#45;&gt;Node4 -->
<g id="edge5" class="edge">
<title>Node2&#45;&gt;Node4</title>
<path fill="none" stroke="midnightblue" d="M519.24,-431.81C456.13,-425.2 344.11,-410.91 309.5,-390 278.32,-371.16 253.4,-338.16 236.78,-311.08"/>
<polygon fill="none" stroke="midnightblue" points="518.99,-435.3 529.3,-432.84 519.71,-428.34 518.99,-435.3"/>
</g>
<!-- Node5 -->
<g id="node5" class="node">
<title>Node5</title>
<g id="a_node5"><a xlink:href="a01539.html" target="_top" xlink:title="System Anti&#45;Windup (Output Clamping) Thresholds.">
<polygon fill="white" stroke="black" points="297.5,-221 297.5,-311 385.5,-311 385.5,-221 297.5,-221"/>
<text text-anchor="middle" x="341.5" y="-299" font-family="Helvetica,sans-Serif" font-size="10.00">NPNZ_LIMITS_s</text>
<polyline fill="none" stroke="black" points="297.5,-292 385.5,-292 "/>
<text text-anchor="start" x="305.5" y="-280" font-family="Helvetica,sans-Serif" font-size="10.00">+ MinOutput</text>
<text text-anchor="start" x="305.5" y="-269" font-family="Helvetica,sans-Serif" font-size="10.00">+ MaxOutput</text>
<text text-anchor="start" x="305.5" y="-258" font-family="Helvetica,sans-Serif" font-size="10.00">+ AltMinOutput</text>
<text text-anchor="start" x="305.5" y="-247" font-family="Helvetica,sans-Serif" font-size="10.00">+ AltMaxOutput</text>
<polyline fill="none" stroke="black" points="297.5,-240 385.5,-240 "/>
<text text-anchor="middle" x="341.5" y="-228" font-family="Helvetica,sans-Serif" font-size="10.00"> </text>
</a>
</g>
</g>
<!-- Node2&#45;&gt;Node5 -->
<g id="edge7" class="edge">
<title>Node2&#45;&gt;Node5</title>
<path fill="none" stroke="midnightblue" d="M519.39,-430.25C487.75,-424.36 445.42,-412.7 414.5,-390 387.78,-370.38 369.07,-337.78 357.29,-311.06"/>
<polygon fill="none" stroke="midnightblue" points="518.81,-433.7 529.26,-431.97 520.01,-426.81 518.81,-433.7"/>
</g>
<!-- Node6 -->
<g id="node6" class="node">
<title>Node6</title>
<g id="a_node6"><a xlink:href="a01555.html" target="_top" xlink:title="User Data Space for Advanced Control Functions.">
<polygon fill="white" stroke="black" points="403.5,-199 403.5,-333 563.5,-333 563.5,-199 403.5,-199"/>
<text text-anchor="middle" x="483.5" y="-321" font-family="Helvetica,sans-Serif" font-size="10.00">NPNZ_USER_DATA_BUFFER_s</text>
<polyline fill="none" stroke="black" points="403.5,-314 563.5,-314 "/>
<text text-anchor="start" x="411.5" y="-302" font-family="Helvetica,sans-Serif" font-size="10.00">+ usrParam0</text>
<text text-anchor="start" x="411.5" y="-291" font-family="Helvetica,sans-Serif" font-size="10.00">+ usrParam1</text>
<text text-anchor="start" x="411.5" y="-280" font-family="Helvetica,sans-Serif" font-size="10.00">+ usrParam2</text>
<text text-anchor="start" x="411.5" y="-269" font-family="Helvetica,sans-Serif" font-size="10.00">+ usrParam3</text>
<text text-anchor="start" x="411.5" y="-258" font-family="Helvetica,sans-Serif" font-size="10.00">+ usrParam4</text>
<text text-anchor="start" x="411.5" y="-247" font-family="Helvetica,sans-Serif" font-size="10.00">+ usrParam5</text>
<text text-anchor="start" x="411.5" y="-236" font-family="Helvetica,sans-Serif" font-size="10.00">+ usrParam6</text>
<text text-anchor="start" x="411.5" y="-225" font-family="Helvetica,sans-Serif" font-size="10.00">+ usrParam7</text>
<polyline fill="none" stroke="black" points="403.5,-218 563.5,-218 "/>
<text text-anchor="middle" x="483.5" y="-206" font-family="Helvetica,sans-Serif" font-size="10.00"> </text>
</a>
</g>
</g>
<!-- Node2&#45;&gt;Node6 -->
<g id="edge9" class="edge">
<title>Node2&#45;&gt;Node6</title>
<path fill="none" stroke="midnightblue" d="M528.28,-400.28C525.8,-396.94 523.5,-393.49 521.5,-390 511.51,-372.54 503.85,-352.16 498.11,-333.06"/>
<polygon fill="none" stroke="midnightblue" points="525.75,-402.72 534.73,-408.34 531.21,-398.34 525.75,-402.72"/>
</g>
<!-- Node7 -->
<g id="node7" class="node">
<title>Node7</title>
<g id="a_node7"><a xlink:href="a01527.html" target="_top" xlink:title="Filter Coefficient Arrays, Number Format Handling and Input/Output History Parameters.">
<polygon fill="white" stroke="black" points="582,-237.5 582,-294.5 693,-294.5 693,-237.5 582,-237.5"/>
<text text-anchor="middle" x="637.5" y="-282.5" font-family="Helvetica,sans-Serif" font-size="10.00">NPNZ_PORTS_s</text>
<polyline fill="none" stroke="black" points="582,-275.5 693,-275.5 "/>
<text text-anchor="start" x="590" y="-263.5" font-family="Helvetica,sans-Serif" font-size="10.00">+ ptrControlReference</text>
<polyline fill="none" stroke="black" points="582,-256.5 693,-256.5 "/>
<text text-anchor="middle" x="637.5" y="-244.5" font-family="Helvetica,sans-Serif" font-size="10.00"> </text>
</a>
</g>
</g>
<!-- Node2&#45;&gt;Node7 -->
<g id="edge11" class="edge">
<title>Node2&#45;&gt;Node7</title>
<path fill="none" stroke="midnightblue" d="M579.64,-399.15C593.43,-367.64 612.98,-322.99 625.45,-294.52"/>
<polygon fill="none" stroke="midnightblue" points="576.36,-397.91 575.55,-408.47 582.77,-400.71 576.36,-397.91"/>
</g>
<!-- Node9 -->
<g id="node9" class="node">
<title>Node9</title>
<g id="a_node9"><a xlink:href="a01547.html" target="_top" xlink:title="Data Provider Target Memory Addresses.">
<polygon fill="white" stroke="black" points="711.5,-221 711.5,-311 885.5,-311 885.5,-221 711.5,-221"/>
<text text-anchor="middle" x="798.5" y="-299" font-family="Helvetica,sans-Serif" font-size="10.00">NPNZ_DATA_PROVIDERS_s</text>
<polyline fill="none" stroke="black" points="711.5,-292 885.5,-292 "/>
<text text-anchor="start" x="719.5" y="-280" font-family="Helvetica,sans-Serif" font-size="10.00">+ ptrDProvControlInput</text>
<text text-anchor="start" x="719.5" y="-269" font-family="Helvetica,sans-Serif" font-size="10.00">+ ptrDProvControlInputCompensated</text>
<text text-anchor="start" x="719.5" y="-258" font-family="Helvetica,sans-Serif" font-size="10.00">+ ptrDProvControlError</text>
<text text-anchor="start" x="719.5" y="-247" font-family="Helvetica,sans-Serif" font-size="10.00">+ ptrDProvControlOutput</text>
<polyline fill="none" stroke="black" points="711.5,-240 885.5,-240 "/>
<text text-anchor="middle" x="798.5" y="-228" font-family="Helvetica,sans-Serif" font-size="10.00"> </text>
</a>
</g>
</g>
<!-- Node2&#45;&gt;Node9 -->
<g id="edge16" class="edge">
<title>Node2&#45;&gt;Node9</title>
<path fill="none" stroke="midnightblue" d="M606.93,-415.38C622.43,-407.74 639.91,-398.78 655.5,-390 676.56,-378.14 682.5,-375.93 701.5,-361 720.68,-345.93 740.28,-327.59 756.8,-311.13"/>
<polygon fill="none" stroke="midnightblue" points="605.01,-412.43 597.56,-419.96 608.09,-418.71 605.01,-412.43"/>
</g>
<!-- Node10 -->
<g id="node10" class="node">
<title>Node10</title>
<g id="a_node10"><a xlink:href="a01551.html" target="_top" xlink:title="User Extension Function Call Parameters.">
<polygon fill="white" stroke="black" points="904,-171.5 904,-360.5 1081,-360.5 1081,-171.5 904,-171.5"/>
<text text-anchor="middle" x="992.5" y="-348.5" font-family="Helvetica,sans-Serif" font-size="10.00">NPNZ_EXTENSION_HOOKS_s</text>
<polyline fill="none" stroke="black" points="904,-341.5 1081,-341.5 "/>
<text text-anchor="start" x="912" y="-329.5" font-family="Helvetica,sans-Serif" font-size="10.00">+ ptrExtHookStartFunction</text>
<text text-anchor="start" x="912" y="-318.5" font-family="Helvetica,sans-Serif" font-size="10.00">+ ExtHookStartFunctionParam</text>
<text text-anchor="start" x="912" y="-307.5" font-family="Helvetica,sans-Serif" font-size="10.00">+ ptrExtHookSourceFunction</text>
<text text-anchor="start" x="912" y="-296.5" font-family="Helvetica,sans-Serif" font-size="10.00">+ ExtHookSourceFunctionParam</text>
<text text-anchor="start" x="912" y="-285.5" font-family="Helvetica,sans-Serif" font-size="10.00">+ ptrExtHookPreAntiWindupFunction</text>
<text text-anchor="start" x="912" y="-274.5" font-family="Helvetica,sans-Serif" font-size="10.00">+ ExtHookPreAntiWindupFunction</text>
<text text-anchor="start" x="912" y="-263.5" font-family="Helvetica,sans-Serif" font-size="10.00">Param</text>
<text text-anchor="start" x="912" y="-252.5" font-family="Helvetica,sans-Serif" font-size="10.00">+ ptrExtHookTargetFunction</text>
<text text-anchor="start" x="912" y="-241.5" font-family="Helvetica,sans-Serif" font-size="10.00">+ ExtHookTargetFunctionParam</text>
<text text-anchor="start" x="912" y="-230.5" font-family="Helvetica,sans-Serif" font-size="10.00">+ ptrExtHookStopFunction</text>
<text text-anchor="start" x="912" y="-219.5" font-family="Helvetica,sans-Serif" font-size="10.00">+ ExtHookStopFunctionParam</text>
<text text-anchor="start" x="912" y="-208.5" font-family="Helvetica,sans-Serif" font-size="10.00">+ ptrExtHookEndFunction</text>
<text text-anchor="start" x="912" y="-197.5" font-family="Helvetica,sans-Serif" font-size="10.00">+ ExtHookEndFunctionParam</text>
<polyline fill="none" stroke="black" points="904,-190.5 1081,-190.5 "/>
<text text-anchor="middle" x="992.5" y="-178.5" font-family="Helvetica,sans-Serif" font-size="10.00"> </text>
</a>
</g>
</g>
<!-- Node2&#45;&gt;Node10 -->
<g id="edge18" class="edge">
<title>Node2&#45;&gt;Node10</title>
<path fill="none" stroke="midnightblue" d="M607.93,-435.47C675.2,-432.69 804.57,-419.43 894.5,-361 897.66,-358.94 900.81,-356.78 903.94,-354.53"/>
<polygon fill="none" stroke="midnightblue" points="607.55,-431.98 597.68,-435.83 607.8,-438.98 607.55,-431.98"/>
</g>
<!-- Node11 -->
<g id="node11" class="node">
<title>Node11</title>
<g id="a_node11"><a xlink:href="a01507.html" target="_top" xlink:title="NPNZ16b controller object status and control word.">
<polygon fill="white" stroke="black" points="1099,-193.5 1099,-338.5 1224,-338.5 1224,-193.5 1099,-193.5"/>
<text text-anchor="middle" x="1161.5" y="-326.5" font-family="Helvetica,sans-Serif" font-size="10.00">NPNZ_STATUS_s</text>
<polyline fill="none" stroke="black" points="1099,-319.5 1224,-319.5 "/>
<text text-anchor="start" x="1107" y="-307.5" font-family="Helvetica,sans-Serif" font-size="10.00">+ lower_saturation_event</text>
<text text-anchor="start" x="1107" y="-296.5" font-family="Helvetica,sans-Serif" font-size="10.00">+ upper_saturation_event</text>
<text text-anchor="start" x="1107" y="-285.5" font-family="Helvetica,sans-Serif" font-size="10.00">+ unsigned</text>
<text text-anchor="start" x="1107" y="-274.5" font-family="Helvetica,sans-Serif" font-size="10.00">+ agc_enabled</text>
<text text-anchor="start" x="1107" y="-263.5" font-family="Helvetica,sans-Serif" font-size="10.00">+ swap_target</text>
<text text-anchor="start" x="1107" y="-252.5" font-family="Helvetica,sans-Serif" font-size="10.00">+ swap_source</text>
<text text-anchor="start" x="1107" y="-241.5" font-family="Helvetica,sans-Serif" font-size="10.00">+ invert_input</text>
<text text-anchor="start" x="1107" y="-230.5" font-family="Helvetica,sans-Serif" font-size="10.00">+ enabled</text>
<text text-anchor="start" x="1107" y="-219.5" font-family="Helvetica,sans-Serif" font-size="10.00">+ value</text>
<polyline fill="none" stroke="black" points="1099,-212.5 1224,-212.5 "/>
<text text-anchor="middle" x="1161.5" y="-200.5" font-family="Helvetica,sans-Serif" font-size="10.00"> </text>
</a>
</g>
</g>
<!-- Node2&#45;&gt;Node11 -->
<g id="edge20" class="edge">
<title>Node2&#45;&gt;Node11</title>
<path fill="none" stroke="midnightblue" d="M607.58,-436.06C690.29,-435.19 873.83,-428.62 1022.5,-390 1053.9,-381.84 1063.92,-380.97 1089.5,-361 1097.76,-354.55 1105.59,-346.94 1112.83,-338.88"/>
<polygon fill="none" stroke="midnightblue" points="607.5,-432.56 597.53,-436.14 607.56,-439.56 607.5,-432.56"/>
</g>
<!-- Node3&#45;&gt;Node2 -->
<g id="edge2" class="edge">
<title>Node3&#45;&gt;Node2</title>
<path fill="none" stroke="#404040" d="M92.4,-311.05C104.91,-328.27 120.84,-347.16 138.5,-361 163.08,-380.26 172.45,-381.49 202.5,-390 312.66,-421.21 447.76,-431.29 517.29,-434.51"/>
<polygon fill="none" stroke="#404040" points="517.5,-434.52 523.66,-430.78 529.48,-435.03 523.32,-438.77 517.5,-434.52"/>
<text text-anchor="middle" x="247.5" y="-382" font-family="Helvetica,sans-Serif" font-size="10.00"> +ADCTriggerControl</text>
</g>
<!-- Node4&#45;&gt;Node2 -->
<g id="edge4" class="edge">
<title>Node4&#45;&gt;Node2</title>
<path fill="none" stroke="#404040" d="M243.31,-311.12C256,-327.95 271.74,-346.55 288.5,-361 353.76,-417.26 457.46,-431.69 517.12,-435.16"/>
<polygon fill="none" stroke="#404040" points="517.17,-435.16 523.36,-431.46 529.16,-435.74 522.97,-439.45 517.17,-435.16"/>
<text text-anchor="middle" x="357" y="-382" font-family="Helvetica,sans-Serif" font-size="10.00"> +GainControl</text>
</g>
<!-- Node5&#45;&gt;Node2 -->
<g id="edge6" class="edge">
<title>Node5&#45;&gt;Node2</title>
<path fill="none" stroke="#404040" d="M359.14,-311.28C367.75,-328.54 379.52,-347.39 394.5,-361 429.72,-393 480.82,-413.09 517.6,-424.33"/>
<polygon fill="none" stroke="#404040" points="517.96,-424.44 524.84,-422.28 529.48,-427.81 522.6,-429.96 517.96,-424.44"/>
<text text-anchor="middle" x="449.5" y="-382" font-family="Helvetica,sans-Serif" font-size="10.00"> +Limits</text>
</g>
<!-- Node6&#45;&gt;Node2 -->
<g id="edge8" class="edge">
<title>Node6&#45;&gt;Node2</title>
<path fill="none" stroke="#404040" d="M504.45,-333.29C511.41,-352.09 519.88,-372.27 529.5,-390 530.95,-392.67 532.54,-395.36 534.22,-398.03"/>
<polygon fill="none" stroke="#404040" points="534.3,-398.15 540.96,-400.9 540.99,-408.11 534.32,-405.36 534.3,-398.15"/>
<text text-anchor="middle" x="555.5" y="-382" font-family="Helvetica,sans-Serif" font-size="10.00"> +Advanced</text>
</g>
<!-- Node7&#45;&gt;Node2 -->
<g id="edge10" class="edge">
<title>Node7&#45;&gt;Node2</title>
<path fill="none" stroke="#404040" d="M636.99,-294.58C635.42,-320.68 630.17,-360.19 613.5,-390 611.33,-393.88 608.71,-397.62 605.83,-401.17"/>
<polygon fill="none" stroke="#404040" points="605.77,-401.23 604.69,-408.36 597.69,-410.1 598.77,-402.97 605.77,-401.23"/>
<text text-anchor="middle" x="635" y="-382" font-family="Helvetica,sans-Serif" font-size="10.00"> +Ports</text>
</g>
<!-- Node8 -->
<g id="node8" class="node">
<title>Node8</title>
<g id="a_node8"><a xlink:href="a01523.html" target="_top" xlink:title="Data Input/Output Port declaration of memory addresses, signal offsets and normalization settings.">
<polygon fill="white" stroke="black" points="594.5,-0.5 594.5,-90.5 678.5,-90.5 678.5,-0.5 594.5,-0.5"/>
<text text-anchor="middle" x="636.5" y="-78.5" font-family="Helvetica,sans-Serif" font-size="10.00">NPNZ_PORT_s</text>
<polyline fill="none" stroke="black" points="594.5,-71.5 678.5,-71.5 "/>
<text text-anchor="start" x="602.5" y="-59.5" font-family="Helvetica,sans-Serif" font-size="10.00">+ ptrAddress</text>
<text text-anchor="start" x="602.5" y="-48.5" font-family="Helvetica,sans-Serif" font-size="10.00">+ NormScaler</text>
<text text-anchor="start" x="602.5" y="-37.5" font-family="Helvetica,sans-Serif" font-size="10.00">+ NormFactor</text>
<text text-anchor="start" x="602.5" y="-26.5" font-family="Helvetica,sans-Serif" font-size="10.00">+ Offset</text>
<polyline fill="none" stroke="black" points="594.5,-19.5 678.5,-19.5 "/>
<text text-anchor="middle" x="636.5" y="-7.5" font-family="Helvetica,sans-Serif" font-size="10.00"> </text>
</a>
</g>
</g>
<!-- Node7&#45;&gt;Node8 -->
<g id="edge13" class="edge">
<title>Node7&#45;&gt;Node8</title>
<path fill="none" stroke="midnightblue" d="M636.03,-227.26C634.98,-195.67 633.85,-149.39 634.5,-109 634.6,-103.03 634.74,-96.74 634.91,-90.54"/>
<polygon fill="none" stroke="midnightblue" points="632.54,-227.51 636.38,-237.38 639.53,-227.27 632.54,-227.51"/>
</g>
<!-- Node8&#45;&gt;Node7 -->
<g id="edge12" class="edge">
<title>Node8&#45;&gt;Node7</title>
<path fill="none" stroke="#404040" d="M636.7,-90.56C636.88,-129.95 637.14,-187.18 637.32,-225.22"/>
<polygon fill="none" stroke="#404040" points="637.32,-225.33 641.35,-231.31 637.37,-237.33 633.35,-231.35 637.32,-225.33"/>
<text text-anchor="middle" x="663.5" y="-145" font-family="Helvetica,sans-Serif" font-size="10.00"> +AltSource</text>
<text text-anchor="middle" x="663.5" y="-134" font-family="Helvetica,sans-Serif" font-size="10.00">+AltTarget</text>
<text text-anchor="middle" x="663.5" y="-123" font-family="Helvetica,sans-Serif" font-size="10.00">+Source</text>
<text text-anchor="middle" x="663.5" y="-112" font-family="Helvetica,sans-Serif" font-size="10.00">+Target</text>
</g>
<!-- Node9&#45;&gt;Node2 -->
<g id="edge15" class="edge">
<title>Node9&#45;&gt;Node2</title>
<path fill="none" stroke="#404040" d="M787.18,-311.02C778.17,-337.54 762.93,-369.96 738.5,-390 702.06,-419.89 648.22,-430.55 609.9,-434.25"/>
<polygon fill="none" stroke="#404040" points="609.5,-434.28 603.84,-438.75 597.54,-435.25 603.2,-430.78 609.5,-434.28"/>
<text text-anchor="middle" x="784.5" y="-382" font-family="Helvetica,sans-Serif" font-size="10.00"> +DataProviders</text>
</g>
<!-- Node10&#45;&gt;Node2 -->
<g id="edge17" class="edge">
<title>Node10&#45;&gt;Node2</title>
<path fill="none" stroke="#404040" d="M954.52,-360.55C946.45,-371.93 936.85,-382.25 925.5,-390 875.13,-424.4 695.7,-433.08 609.88,-435.26"/>
<polygon fill="none" stroke="#404040" points="609.67,-435.27 603.77,-439.41 597.68,-435.55 603.58,-431.41 609.67,-435.27"/>
<text text-anchor="middle" x="978" y="-382" font-family="Helvetica,sans-Serif" font-size="10.00"> +ExtensionHooks</text>
</g>
<!-- Node11&#45;&gt;Node2 -->
<g id="edge19" class="edge">
<title>Node11&#45;&gt;Node2</title>
<path fill="none" stroke="#404040" d="M1146.55,-338.64C1138.97,-358.25 1127.58,-377.52 1110.5,-390 1070.46,-419.24 734.05,-431.34 609.57,-434.84"/>
<polygon fill="none" stroke="#404040" points="609.51,-434.84 603.63,-439.01 597.52,-435.17 603.41,-431.01 609.51,-434.84"/>
<text text-anchor="middle" x="1140" y="-382" font-family="Helvetica,sans-Serif" font-size="10.00"> +status</text>
</g>
</g>
</svg>
