<?xml version="1.0" encoding="UTF-8" standalone="no"?>
<!DOCTYPE svg PUBLIC "-//W3C//DTD SVG 1.1//EN"
 "http://www.w3.org/Graphics/SVG/1.1/DTD/svg11.dtd">
<!-- Generated by graphviz version 2.44.1 (20200629.0846)
 -->
<!-- Title: NPNZ_LIMITS_s Pages: 1 -->
<svg width="1281pt" height="623pt"
 viewBox="0.00 0.00 1281.00 623.00" xmlns="http://www.w3.org/2000/svg" xmlns:xlink="http://www.w3.org/1999/xlink">
<g id="graph0" class="graph" transform="scale(1 1) rotate(0) translate(4 619)">
<title>NPNZ_LIMITS_s</title>
<polygon fill="white" stroke="transparent" points="-4,4 -4,-619 1277,-619 1277,4 -4,4"/>
<!-- Node1 -->
<g id="node1" class="node">
<title>Node1</title>
<g id="a_node1"><a xlink:title="System Anti&#45;Windup (Output Clamping) Thresholds.">
<polygon fill="#bfbfbf" stroke="black" points="563.5,-524.5 563.5,-614.5 651.5,-614.5 651.5,-524.5 563.5,-524.5"/>
<text text-anchor="middle" x="607.5" y="-602.5" font-family="Helvetica,sans-Serif" font-size="10.00">NPNZ_LIMITS_s</text>
<polyline fill="none" stroke="black" points="563.5,-595.5 651.5,-595.5 "/>
<text text-anchor="start" x="571.5" y="-583.5" font-family="Helvetica,sans-Serif" font-size="10.00">+ MinOutput</text>
<text text-anchor="start" x="571.5" y="-572.5" font-family="Helvetica,sans-Serif" font-size="10.00">+ MaxOutput</text>
<text text-anchor="start" x="571.5" y="-561.5" font-family="Helvetica,sans-Serif" font-size="10.00">+ AltMinOutput</text>
<text text-anchor="start" x="571.5" y="-550.5" font-family="Helvetica,sans-Serif" font-size="10.00">+ AltMaxOutput</text>
<polyline fill="none" stroke="black" points="563.5,-543.5 651.5,-543.5 "/>
<text text-anchor="middle" x="607.5" y="-531.5" font-family="Helvetica,sans-Serif" font-size="10.00"> </text>
</a>
</g>
</g>
<!-- Node2 -->
<g id="node2" class="node">
<title>Node2</title>
<g id="a_node2"><a xlink:href="a01559.html" target="_top" xlink:title="Global NPNZ controller data object.">
<polygon fill="white" stroke="black" points="573.5,-419.5 573.5,-476.5 641.5,-476.5 641.5,-419.5 573.5,-419.5"/>
<text text-anchor="middle" x="607.5" y="-464.5" font-family="Helvetica,sans-Serif" font-size="10.00">NPNZ16b_s</text>
<polyline fill="none" stroke="black" points="573.5,-457.5 641.5,-457.5 "/>
<text text-anchor="middle" x="607.5" y="-445.5" font-family="Helvetica,sans-Serif" font-size="10.00"> </text>
<polyline fill="none" stroke="black" points="573.5,-438.5 641.5,-438.5 "/>
<text text-anchor="middle" x="607.5" y="-426.5" font-family="Helvetica,sans-Serif" font-size="10.00"> </text>
</a>
</g>
</g>
<!-- Node1&#45;&gt;Node2 -->
<g id="edge6" class="edge">
<title>Node1&#45;&gt;Node2</title>
<path fill="none" stroke="#404040" d="M580.91,-524.23C577.93,-514.7 576.81,-504.6 579.5,-495 580.19,-492.54 581.05,-490.08 582.04,-487.65"/>
<polygon fill="none" stroke="#404040" points="582.18,-487.37 581.21,-480.22 587.43,-476.58 588.4,-483.73 582.18,-487.37"/>
<text text-anchor="middle" x="597.5" y="-498" font-family="Helvetica,sans-Serif" font-size="10.00"> +Limits</text>
</g>
<!-- Node2&#45;&gt;Node1 -->
<g id="edge1" class="edge">
<title>Node2&#45;&gt;Node1</title>
<path fill="none" stroke="midnightblue" d="M618.08,-486.33C618.65,-489.25 619.14,-492.16 619.5,-495 620.72,-504.49 620.23,-514.63 618.92,-524.26"/>
<polygon fill="none" stroke="midnightblue" points="621.48,-485.51 615.89,-476.51 614.65,-487.03 621.48,-485.51"/>
</g>
<!-- Node3 -->
<g id="node3" class="node">
<title>Node3</title>
<g id="a_node3"><a xlink:href="a01543.html" target="_top" xlink:title="Automated ADC Trigger handling.">
<polygon fill="white" stroke="black" points="0,-226.5 0,-316.5 129,-316.5 129,-226.5 0,-226.5"/>
<text text-anchor="middle" x="64.5" y="-304.5" font-family="Helvetica,sans-Serif" font-size="10.00">NPNZ_ADC_TRGCTRL_s</text>
<polyline fill="none" stroke="black" points="0,-297.5 129,-297.5 "/>
<text text-anchor="start" x="8" y="-285.5" font-family="Helvetica,sans-Serif" font-size="10.00">+ ptrADCTriggerARegister</text>
<text text-anchor="start" x="8" y="-274.5" font-family="Helvetica,sans-Serif" font-size="10.00">+ ADCTriggerAOffset</text>
<text text-anchor="start" x="8" y="-263.5" font-family="Helvetica,sans-Serif" font-size="10.00">+ ptrADCTriggerBRegister</text>
<text text-anchor="start" x="8" y="-252.5" font-family="Helvetica,sans-Serif" font-size="10.00">+ ADCTriggerBOffset</text>
<polyline fill="none" stroke="black" points="0,-245.5 129,-245.5 "/>
<text text-anchor="middle" x="64.5" y="-233.5" font-family="Helvetica,sans-Serif" font-size="10.00"> </text>
</a>
</g>
</g>
<!-- Node2&#45;&gt;Node3 -->
<g id="edge3" class="edge">
<title>Node2&#45;&gt;Node3</title>
<path fill="none" stroke="midnightblue" d="M563.1,-445.21C467.86,-440.89 247,-428.19 177.5,-401 138.08,-385.57 107.53,-347.51 88.19,-316.78"/>
<polygon fill="none" stroke="midnightblue" points="563.12,-448.71 573.26,-445.66 563.43,-441.72 563.12,-448.71"/>
</g>
<!-- Node4 -->
<g id="node4" class="node">
<title>Node4</title>
<g id="a_node4"><a xlink:href="a01535.html" target="_top" xlink:title="Adaptive Gain Control Modulation Parameters.">
<polygon fill="white" stroke="black" points="147.5,-226.5 147.5,-316.5 279.5,-316.5 279.5,-226.5 147.5,-226.5"/>
<text text-anchor="middle" x="213.5" y="-304.5" font-family="Helvetica,sans-Serif" font-size="10.00">NPNZ_GAIN_CONTROL_s</text>
<polyline fill="none" stroke="black" points="147.5,-297.5 279.5,-297.5 "/>
<text text-anchor="start" x="155.5" y="-285.5" font-family="Helvetica,sans-Serif" font-size="10.00">+ AgcScaler</text>
<text text-anchor="start" x="155.5" y="-274.5" font-family="Helvetica,sans-Serif" font-size="10.00">+ AgcFactor</text>
<text text-anchor="start" x="155.5" y="-263.5" font-family="Helvetica,sans-Serif" font-size="10.00">+ AgcMedian</text>
<text text-anchor="start" x="155.5" y="-252.5" font-family="Helvetica,sans-Serif" font-size="10.00">+ ptrAgcObserverFunction</text>
<polyline fill="none" stroke="black" points="147.5,-245.5 279.5,-245.5 "/>
<text text-anchor="middle" x="213.5" y="-233.5" font-family="Helvetica,sans-Serif" font-size="10.00"> </text>
</a>
</g>
</g>
<!-- Node2&#45;&gt;Node4 -->
<g id="edge5" class="edge">
<title>Node2&#45;&gt;Node4</title>
<path fill="none" stroke="midnightblue" d="M563.27,-446.93C505.58,-445.29 402.71,-436.97 323.5,-401 285.8,-383.88 256.26,-346.64 237.33,-316.63"/>
<polygon fill="none" stroke="midnightblue" points="563.42,-450.43 573.5,-447.16 563.58,-443.44 563.42,-450.43"/>
</g>
<!-- Node5 -->
<g id="node5" class="node">
<title>Node5</title>
<g id="a_node5"><a xlink:href="a01555.html" target="_top" xlink:title="User Data Space for Advanced Control Functions.">
<polygon fill="white" stroke="black" points="297.5,-204.5 297.5,-338.5 457.5,-338.5 457.5,-204.5 297.5,-204.5"/>
<text text-anchor="middle" x="377.5" y="-326.5" font-family="Helvetica,sans-Serif" font-size="10.00">NPNZ_USER_DATA_BUFFER_s</text>
<polyline fill="none" stroke="black" points="297.5,-319.5 457.5,-319.5 "/>
<text text-anchor="start" x="305.5" y="-307.5" font-family="Helvetica,sans-Serif" font-size="10.00">+ usrParam0</text>
<text text-anchor="start" x="305.5" y="-296.5" font-family="Helvetica,sans-Serif" font-size="10.00">+ usrParam1</text>
<text text-anchor="start" x="305.5" y="-285.5" font-family="Helvetica,sans-Serif" font-size="10.00">+ usrParam2</text>
<text text-anchor="start" x="305.5" y="-274.5" font-family="Helvetica,sans-Serif" font-size="10.00">+ usrParam3</text>
<text text-anchor="start" x="305.5" y="-263.5" font-family="Helvetica,sans-Serif" font-size="10.00">+ usrParam4</text>
<text text-anchor="start" x="305.5" y="-252.5" font-family="Helvetica,sans-Serif" font-size="10.00">+ usrParam5</text>
<text text-anchor="start" x="305.5" y="-241.5" font-family="Helvetica,sans-Serif" font-size="10.00">+ usrParam6</text>
<text text-anchor="start" x="305.5" y="-230.5" font-family="Helvetica,sans-Serif" font-size="10.00">+ usrParam7</text>
<polyline fill="none" stroke="black" points="297.5,-223.5 457.5,-223.5 "/>
<text text-anchor="middle" x="377.5" y="-211.5" font-family="Helvetica,sans-Serif" font-size="10.00"> </text>
</a>
</g>
</g>
<!-- Node2&#45;&gt;Node5 -->
<g id="edge8" class="edge">
<title>Node2&#45;&gt;Node5</title>
<path fill="none" stroke="midnightblue" d="M563.87,-434.42C541.64,-426.8 514.87,-415.69 493.5,-401 468.73,-383.97 445.62,-360.64 426.64,-338.53"/>
<polygon fill="none" stroke="midnightblue" points="562.81,-437.76 573.4,-437.57 565.01,-431.11 562.81,-437.76"/>
</g>
<!-- Node6 -->
<g id="node6" class="node">
<title>Node6</title>
<g id="a_node6"><a xlink:href="a01527.html" target="_top" xlink:title="Filter Coefficient Arrays, Number Format Handling and Input/Output History Parameters.">
<polygon fill="white" stroke="black" points="476,-243 476,-300 587,-300 587,-243 476,-243"/>
<text text-anchor="middle" x="531.5" y="-288" font-family="Helvetica,sans-Serif" font-size="10.00">NPNZ_PORTS_s</text>
<polyline fill="none" stroke="black" points="476,-281 587,-281 "/>
<text text-anchor="start" x="484" y="-269" font-family="Helvetica,sans-Serif" font-size="10.00">+ ptrControlReference</text>
<polyline fill="none" stroke="black" points="476,-262 587,-262 "/>
<text text-anchor="middle" x="531.5" y="-250" font-family="Helvetica,sans-Serif" font-size="10.00"> </text>
</a>
</g>
</g>
<!-- Node2&#45;&gt;Node6 -->
<g id="edge10" class="edge">
<title>Node2&#45;&gt;Node6</title>
<path fill="none" stroke="midnightblue" d="M584.42,-410.47C582.68,-407.31 581.02,-404.12 579.5,-401 563.17,-367.37 548.81,-326.66 540.15,-300.2"/>
<polygon fill="none" stroke="midnightblue" points="581.45,-412.32 589.46,-419.25 587.52,-408.84 581.45,-412.32"/>
</g>
<!-- Node8 -->
<g id="node8" class="node">
<title>Node8</title>
<g id="a_node8"><a xlink:href="a01531.html" target="_top" xlink:title="Filter Coefficient Arrays, Number Format Handling and Input/Output History Parameters.">
<polygon fill="white" stroke="black" points="605,-171.5 605,-371.5 742,-371.5 742,-171.5 605,-171.5"/>
<text text-anchor="middle" x="673.5" y="-359.5" font-family="Helvetica,sans-Serif" font-size="10.00">NPNZ_FILTER_PARAMS_s</text>
<polyline fill="none" stroke="black" points="605,-352.5 742,-352.5 "/>
<text text-anchor="start" x="613" y="-340.5" font-family="Helvetica,sans-Serif" font-size="10.00">+ ptrACoefficients</text>
<text text-anchor="start" x="613" y="-329.5" font-family="Helvetica,sans-Serif" font-size="10.00">+ ptrBCoefficients</text>
<text text-anchor="start" x="613" y="-318.5" font-family="Helvetica,sans-Serif" font-size="10.00">+ ptrControlHistory</text>
<text text-anchor="start" x="613" y="-307.5" font-family="Helvetica,sans-Serif" font-size="10.00">+ ptrErrorHistory</text>
<text text-anchor="start" x="613" y="-296.5" font-family="Helvetica,sans-Serif" font-size="10.00">+ ACoefficientsArraySize</text>
<text text-anchor="start" x="613" y="-285.5" font-family="Helvetica,sans-Serif" font-size="10.00">+ BCoefficientsArraySize</text>
<text text-anchor="start" x="613" y="-274.5" font-family="Helvetica,sans-Serif" font-size="10.00">+ ControlHistoryArraySize</text>
<text text-anchor="start" x="613" y="-263.5" font-family="Helvetica,sans-Serif" font-size="10.00">+ ErrorHistoryArraySize</text>
<text text-anchor="start" x="613" y="-252.5" font-family="Helvetica,sans-Serif" font-size="10.00">+ normPreShift</text>
<text text-anchor="start" x="613" y="-241.5" font-family="Helvetica,sans-Serif" font-size="10.00">+ normPostShiftA</text>
<text text-anchor="start" x="613" y="-230.5" font-family="Helvetica,sans-Serif" font-size="10.00">+ normPostShiftB</text>
<text text-anchor="start" x="613" y="-219.5" font-family="Helvetica,sans-Serif" font-size="10.00">+ normPostScaler</text>
<text text-anchor="start" x="613" y="-208.5" font-family="Helvetica,sans-Serif" font-size="10.00">+ PTermScaler</text>
<text text-anchor="start" x="613" y="-197.5" font-family="Helvetica,sans-Serif" font-size="10.00">+ PTermFactor</text>
<polyline fill="none" stroke="black" points="605,-190.5 742,-190.5 "/>
<text text-anchor="middle" x="673.5" y="-178.5" font-family="Helvetica,sans-Serif" font-size="10.00"> </text>
</a>
</g>
</g>
<!-- Node2&#45;&gt;Node8 -->
<g id="edge14" class="edge">
<title>Node2&#45;&gt;Node8</title>
<path fill="none" stroke="midnightblue" d="M621.56,-409.83C625.86,-398.45 630.82,-385.36 635.92,-371.87"/>
<polygon fill="none" stroke="midnightblue" points="618.22,-408.76 617.96,-419.35 624.77,-411.23 618.22,-408.76"/>
</g>
<!-- Node9 -->
<g id="node9" class="node">
<title>Node9</title>
<g id="a_node9"><a xlink:href="a01547.html" target="_top" xlink:title="Data Provider Target Memory Addresses.">
<polygon fill="white" stroke="black" points="760.5,-226.5 760.5,-316.5 934.5,-316.5 934.5,-226.5 760.5,-226.5"/>
<text text-anchor="middle" x="847.5" y="-304.5" font-family="Helvetica,sans-Serif" font-size="10.00">NPNZ_DATA_PROVIDERS_s</text>
<polyline fill="none" stroke="black" points="760.5,-297.5 934.5,-297.5 "/>
<text text-anchor="start" x="768.5" y="-285.5" font-family="Helvetica,sans-Serif" font-size="10.00">+ ptrDProvControlInput</text>
<text text-anchor="start" x="768.5" y="-274.5" font-family="Helvetica,sans-Serif" font-size="10.00">+ ptrDProvControlInputCompensated</text>
<text text-anchor="start" x="768.5" y="-263.5" font-family="Helvetica,sans-Serif" font-size="10.00">+ ptrDProvControlError</text>
<text text-anchor="start" x="768.5" y="-252.5" font-family="Helvetica,sans-Serif" font-size="10.00">+ ptrDProvControlOutput</text>
<polyline fill="none" stroke="black" points="760.5,-245.5 934.5,-245.5 "/>
<text text-anchor="middle" x="847.5" y="-233.5" font-family="Helvetica,sans-Serif" font-size="10.00"> </text>
</a>
</g>
</g>
<!-- Node2&#45;&gt;Node9 -->
<g id="edge16" class="edge">
<title>Node2&#45;&gt;Node9</title>
<path fill="none" stroke="midnightblue" d="M650.83,-428.64C680.32,-415.13 719.47,-395.13 750.5,-372 771.97,-356 793.06,-335.16 810.06,-316.7"/>
<polygon fill="none" stroke="midnightblue" points="649.29,-425.49 641.62,-432.8 652.17,-431.87 649.29,-425.49"/>
</g>
<!-- Node10 -->
<g id="node10" class="node">
<title>Node10</title>
<g id="a_node10"><a xlink:href="a01551.html" target="_top" xlink:title="User Extension Function Call Parameters.">
<polygon fill="white" stroke="black" points="953,-177 953,-366 1130,-366 1130,-177 953,-177"/>
<text text-anchor="middle" x="1041.5" y="-354" font-family="Helvetica,sans-Serif" font-size="10.00">NPNZ_EXTENSION_HOOKS_s</text>
<polyline fill="none" stroke="black" points="953,-347 1130,-347 "/>
<text text-anchor="start" x="961" y="-335" font-family="Helvetica,sans-Serif" font-size="10.00">+ ptrExtHookStartFunction</text>
<text text-anchor="start" x="961" y="-324" font-family="Helvetica,sans-Serif" font-size="10.00">+ ExtHookStartFunctionParam</text>
<text text-anchor="start" x="961" y="-313" font-family="Helvetica,sans-Serif" font-size="10.00">+ ptrExtHookSourceFunction</text>
<text text-anchor="start" x="961" y="-302" font-family="Helvetica,sans-Serif" font-size="10.00">+ ExtHookSourceFunctionParam</text>
<text text-anchor="start" x="961" y="-291" font-family="Helvetica,sans-Serif" font-size="10.00">+ ptrExtHookPreAntiWindupFunction</text>
<text text-anchor="start" x="961" y="-280" font-family="Helvetica,sans-Serif" font-size="10.00">+ ExtHookPreAntiWindupFunction</text>
<text text-anchor="start" x="961" y="-269" font-family="Helvetica,sans-Serif" font-size="10.00">Param</text>
<text text-anchor="start" x="961" y="-258" font-family="Helvetica,sans-Serif" font-size="10.00">+ ptrExtHookTargetFunction</text>
<text text-anchor="start" x="961" y="-247" font-family="Helvetica,sans-Serif" font-size="10.00">+ ExtHookTargetFunctionParam</text>
<text text-anchor="start" x="961" y="-236" font-family="Helvetica,sans-Serif" font-size="10.00">+ ptrExtHookStopFunction</text>
<text text-anchor="start" x="961" y="-225" font-family="Helvetica,sans-Serif" font-size="10.00">+ ExtHookStopFunctionParam</text>
<text text-anchor="start" x="961" y="-214" font-family="Helvetica,sans-Serif" font-size="10.00">+ ptrExtHookEndFunction</text>
<text text-anchor="start" x="961" y="-203" font-family="Helvetica,sans-Serif" font-size="10.00">+ ExtHookEndFunctionParam</text>
<polyline fill="none" stroke="black" points="953,-196 1130,-196 "/>
<text text-anchor="middle" x="1041.5" y="-184" font-family="Helvetica,sans-Serif" font-size="10.00"> </text>
</a>
</g>
</g>
<!-- Node2&#45;&gt;Node10 -->
<g id="edge18" class="edge">
<title>Node2&#45;&gt;Node10</title>
<path fill="none" stroke="midnightblue" d="M652.35,-446.7C720.59,-444.23 852.18,-431.38 943.5,-372 946.65,-369.95 949.78,-367.79 952.88,-365.53"/>
<polygon fill="none" stroke="midnightblue" points="651.85,-443.21 641.96,-447.01 652.06,-450.21 651.85,-443.21"/>
</g>
<!-- Node11 -->
<g id="node11" class="node">
<title>Node11</title>
<g id="a_node11"><a xlink:href="a01507.html" target="_top" xlink:title="NPNZ16b controller object status and control word.">
<polygon fill="white" stroke="black" points="1148,-199 1148,-344 1273,-344 1273,-199 1148,-199"/>
<text text-anchor="middle" x="1210.5" y="-332" font-family="Helvetica,sans-Serif" font-size="10.00">NPNZ_STATUS_s</text>
<polyline fill="none" stroke="black" points="1148,-325 1273,-325 "/>
<text text-anchor="start" x="1156" y="-313" font-family="Helvetica,sans-Serif" font-size="10.00">+ lower_saturation_event</text>
<text text-anchor="start" x="1156" y="-302" font-family="Helvetica,sans-Serif" font-size="10.00">+ upper_saturation_event</text>
<text text-anchor="start" x="1156" y="-291" font-family="Helvetica,sans-Serif" font-size="10.00">+ unsigned</text>
<text text-anchor="start" x="1156" y="-280" font-family="Helvetica,sans-Serif" font-size="10.00">+ agc_enabled</text>
<text text-anchor="start" x="1156" y="-269" font-family="Helvetica,sans-Serif" font-size="10.00">+ swap_target</text>
<text text-anchor="start" x="1156" y="-258" font-family="Helvetica,sans-Serif" font-size="10.00">+ swap_source</text>
<text text-anchor="start" x="1156" y="-247" font-family="Helvetica,sans-Serif" font-size="10.00">+ invert_input</text>
<text text-anchor="start" x="1156" y="-236" font-family="Helvetica,sans-Serif" font-size="10.00">+ enabled</text>
<text text-anchor="start" x="1156" y="-225" font-family="Helvetica,sans-Serif" font-size="10.00">+ value</text>
<polyline fill="none" stroke="black" points="1148,-218 1273,-218 "/>
<text text-anchor="middle" x="1210.5" y="-206" font-family="Helvetica,sans-Serif" font-size="10.00"> </text>
</a>
</g>
</g>
<!-- Node2&#45;&gt;Node11 -->
<g id="edge20" class="edge">
<title>Node2&#45;&gt;Node11</title>
<path fill="none" stroke="midnightblue" d="M651.74,-447.13C735.2,-446.38 921.02,-440.01 1071.5,-401 1102.91,-392.86 1113.2,-392.31 1138.5,-372 1148.48,-363.99 1157.73,-354.27 1166.06,-344.08"/>
<polygon fill="none" stroke="midnightblue" points="651.58,-443.63 641.61,-447.19 651.63,-450.63 651.58,-443.63"/>
</g>
<!-- Node3&#45;&gt;Node2 -->
<g id="edge2" class="edge">
<title>Node3&#45;&gt;Node2</title>
<path fill="none" stroke="#404040" d="M89.48,-316.71C102.12,-335.84 118.93,-357.19 138.5,-372 204.6,-422.03 456.21,-439.74 561.13,-445.03"/>
<polygon fill="none" stroke="#404040" points="561.19,-445.04 567.37,-441.33 573.17,-445.62 566.99,-449.32 561.19,-445.04"/>
<text text-anchor="middle" x="244.5" y="-393" font-family="Helvetica,sans-Serif" font-size="10.00"> +ADCTriggerControl</text>
</g>
<!-- Node4&#45;&gt;Node2 -->
<g id="edge4" class="edge">
<title>Node4&#45;&gt;Node2</title>
<path fill="none" stroke="#404040" d="M237.24,-316.67C249.96,-336.39 267.39,-358.23 288.5,-372 373.61,-427.5 495.22,-442.07 560.98,-445.8"/>
<polygon fill="none" stroke="#404040" points="561.38,-445.82 567.57,-442.12 573.37,-446.41 567.18,-450.11 561.38,-445.82"/>
<text text-anchor="middle" x="374" y="-393" font-family="Helvetica,sans-Serif" font-size="10.00"> +GainControl</text>
</g>
<!-- Node5&#45;&gt;Node2 -->
<g id="edge7" class="edge">
<title>Node5&#45;&gt;Node2</title>
<path fill="none" stroke="#404040" d="M430.78,-338.56C441.91,-350.42 454.06,-362.13 466.5,-372 487.53,-388.69 495.82,-388.34 519.5,-401 533.41,-408.44 548.63,-416.44 562.43,-423.65"/>
<polygon fill="none" stroke="#404040" points="562.51,-423.69 569.68,-422.92 573.15,-429.24 565.98,-430.01 562.51,-423.69"/>
<text text-anchor="middle" x="545.5" y="-393" font-family="Helvetica,sans-Serif" font-size="10.00"> +Advanced</text>
</g>
<!-- Node6&#45;&gt;Node2 -->
<g id="edge9" class="edge">
<title>Node6&#45;&gt;Node2</title>
<path fill="none" stroke="#404040" d="M543.49,-300.02C556.14,-329.07 576.19,-375.11 590.48,-407.92"/>
<polygon fill="none" stroke="#404040" points="590.67,-408.35 596.73,-412.25 595.46,-419.35 589.39,-415.45 590.67,-408.35"/>
<text text-anchor="middle" x="604" y="-393" font-family="Helvetica,sans-Serif" font-size="10.00"> +Ports</text>
</g>
<!-- Node7 -->
<g id="node7" class="node">
<title>Node7</title>
<g id="a_node7"><a xlink:href="a01523.html" target="_top" xlink:title="Data Input/Output Port declaration of memory addresses, signal offsets and normalization settings.">
<polygon fill="white" stroke="black" points="488.5,-0.5 488.5,-90.5 572.5,-90.5 572.5,-0.5 488.5,-0.5"/>
<text text-anchor="middle" x="530.5" y="-78.5" font-family="Helvetica,sans-Serif" font-size="10.00">NPNZ_PORT_s</text>
<polyline fill="none" stroke="black" points="488.5,-71.5 572.5,-71.5 "/>
<text text-anchor="start" x="496.5" y="-59.5" font-family="Helvetica,sans-Serif" font-size="10.00">+ ptrAddress</text>
<text text-anchor="start" x="496.5" y="-48.5" font-family="Helvetica,sans-Serif" font-size="10.00">+ NormScaler</text>
<text text-anchor="start" x="496.5" y="-37.5" font-family="Helvetica,sans-Serif" font-size="10.00">+ NormFactor</text>
<text text-anchor="start" x="496.5" y="-26.5" font-family="Helvetica,sans-Serif" font-size="10.00">+ Offset</text>
<polyline fill="none" stroke="black" points="488.5,-19.5 572.5,-19.5 "/>
<text text-anchor="middle" x="530.5" y="-7.5" font-family="Helvetica,sans-Serif" font-size="10.00"> </text>
</a>
</g>
</g>
<!-- Node6&#45;&gt;Node7 -->
<g id="edge12" class="edge">
<title>Node6&#45;&gt;Node7</title>
<path fill="none" stroke="midnightblue" d="M530.06,-232.74C528.99,-200.01 527.82,-151.38 528.5,-109 528.6,-103.03 528.74,-96.74 528.91,-90.54"/>
<polygon fill="none" stroke="midnightblue" points="526.56,-232.91 530.4,-242.78 533.56,-232.67 526.56,-232.91"/>
</g>
<!-- Node7&#45;&gt;Node6 -->
<g id="edge11" class="edge">
<title>Node7&#45;&gt;Node6</title>
<path fill="none" stroke="#404040" d="M530.7,-90.61C530.88,-131.24 531.15,-191.01 531.32,-230.34"/>
<polygon fill="none" stroke="#404040" points="531.32,-230.58 535.35,-236.57 531.38,-242.58 527.35,-236.6 531.32,-230.58"/>
<text text-anchor="middle" x="557.5" y="-145" font-family="Helvetica,sans-Serif" font-size="10.00"> +AltSource</text>
<text text-anchor="middle" x="557.5" y="-134" font-family="Helvetica,sans-Serif" font-size="10.00">+AltTarget</text>
<text text-anchor="middle" x="557.5" y="-123" font-family="Helvetica,sans-Serif" font-size="10.00">+Source</text>
<text text-anchor="middle" x="557.5" y="-112" font-family="Helvetica,sans-Serif" font-size="10.00">+Target</text>
</g>
<!-- Node8&#45;&gt;Node2 -->
<g id="edge13" class="edge">
<title>Node8&#45;&gt;Node2</title>
<path fill="none" stroke="#404040" d="M660.85,-371.52C657.83,-381.74 654.11,-391.76 649.5,-401 648.04,-403.94 646.33,-406.83 644.46,-409.64"/>
<polygon fill="none" stroke="#404040" points="644.31,-409.82 643.9,-417.02 637.09,-419.41 637.51,-412.21 644.31,-409.82"/>
<text text-anchor="middle" x="670" y="-393" font-family="Helvetica,sans-Serif" font-size="10.00"> +Filter</text>
</g>
<!-- Node9&#45;&gt;Node2 -->
<g id="edge15" class="edge">
<title>Node9&#45;&gt;Node2</title>
<path fill="none" stroke="#404040" d="M834.74,-316.64C824.45,-344.69 807.21,-379.62 780.5,-401 744.31,-429.97 691.57,-440.79 653.85,-444.79"/>
<polygon fill="none" stroke="#404040" points="653.63,-444.81 648.02,-449.33 641.68,-445.9 647.29,-441.37 653.63,-444.81"/>
<text text-anchor="middle" x="827.5" y="-393" font-family="Helvetica,sans-Serif" font-size="10.00"> +DataProviders</text>
</g>
<!-- Node10&#45;&gt;Node2 -->
<g id="edge17" class="edge">
<title>Node10&#45;&gt;Node2</title>
<path fill="none" stroke="#404040" d="M1006.14,-366.07C997.34,-379.59 986.58,-391.96 973.5,-401 922.65,-436.13 740.43,-444.43 653.84,-446.4"/>
<polygon fill="none" stroke="#404040" points="653.78,-446.4 647.86,-450.52 641.78,-446.64 647.7,-442.52 653.78,-446.4"/>
<text text-anchor="middle" x="1027" y="-393" font-family="Helvetica,sans-Serif" font-size="10.00"> +ExtensionHooks</text>
</g>
<!-- Node11&#45;&gt;Node2 -->
<g id="edge19" class="edge">
<title>Node11&#45;&gt;Node2</title>
<path fill="none" stroke="#404040" d="M1197.9,-344.23C1190.55,-365.74 1178.91,-387.25 1160.5,-401 1120.29,-431.02 779.25,-442.65 653.67,-445.93"/>
<polygon fill="none" stroke="#404040" points="653.52,-445.94 647.62,-450.09 641.52,-446.24 647.42,-442.09 653.52,-445.94"/>
<text text-anchor="middle" x="1190" y="-393" font-family="Helvetica,sans-Serif" font-size="10.00"> +status</text>
</g>
</g>
</svg>
