<?xml version="1.0" encoding="UTF-8" standalone="no"?>
<!DOCTYPE svg PUBLIC "-//W3C//DTD SVG 1.1//EN"
 "http://www.w3.org/Graphics/SVG/1.1/DTD/svg11.dtd">
<!-- Generated by graphviz version 2.44.1 (20200629.0846)
 -->
<!-- Title: D:/Firmware/MCU16ASMPS_FirmwareProjects/epc9143&#45;power&#45;advanced&#45;voltage&#45;mode&#45;control/epc9143&#45;avmc.X/sources/pwr_control/devices/templates Pages: 1 -->
<svg width="100pt" height="151pt"
 viewBox="0.00 0.00 100.00 151.00" xmlns="http://www.w3.org/2000/svg" xmlns:xlink="http://www.w3.org/1999/xlink">
<g id="graph0" class="graph" transform="scale(1 1) rotate(0) translate(4 147)">
<title>D:/Firmware/MCU16ASMPS_FirmwareProjects/epc9143&#45;power&#45;advanced&#45;voltage&#45;mode&#45;control/epc9143&#45;avmc.X/sources/pwr_control/devices/templates</title>
<polygon fill="white" stroke="transparent" points="-4,4 -4,-147 96,-147 96,4 -4,4"/>
<g id="clust1" class="cluster">
<title>clusterdir_2f6f7b7240dac53ae060c1c1fa2db7e6</title>
<g id="a_clust1"><a xlink:href="dir_2f6f7b7240dac53ae060c1c1fa2db7e6.html" target="_top" xlink:title="devices">
<polygon fill="#ddddee" stroke="black" points="8,-64 8,-135 84,-135 84,-64 8,-64"/>
<text text-anchor="middle" x="46" y="-123" font-family="Helvetica,sans-Serif" font-size="10.00">devices</text>
</a>
</g>
</g>
<!-- dir_aaf99938b6284052d54f826294880e6c -->
<g id="node1" class="node">
<title>dir_aaf99938b6284052d54f826294880e6c</title>
<g id="a_node1"><a xlink:href="dir_aaf99938b6284052d54f826294880e6c.html" target="_top" xlink:title="templates">
<polygon fill="#eeeeff" stroke="black" points="75.5,-108 16.5,-108 16.5,-72 75.5,-72 75.5,-108"/>
<text text-anchor="middle" x="46" y="-87.5" font-family="Helvetica,sans-Serif" font-size="10.00">templates</text>
</a>
</g>
</g>
<!-- dir_c2b4516fed08213e2fdff6418b3529d5 -->
<g id="node2" class="node">
<title>dir_c2b4516fed08213e2fdff6418b3529d5</title>
<g id="a_node2"><a xlink:href="dir_c2b4516fed08213e2fdff6418b3529d5.html" target="_top" xlink:title="common">
<polygon fill="white" stroke="red" points="73,-36 19,-36 19,0 73,0 73,-36"/>
<text text-anchor="middle" x="46" y="-15.5" font-family="Helvetica,sans-Serif" font-size="10.00">common</text>
</a>
</g>
</g>
<!-- dir_aaf99938b6284052d54f826294880e6c&#45;&gt;dir_c2b4516fed08213e2fdff6418b3529d5 -->
<g id="edge1" class="edge">
<title>dir_aaf99938b6284052d54f826294880e6c&#45;&gt;dir_c2b4516fed08213e2fdff6418b3529d5</title>
<path fill="none" stroke="black" d="M46,-71.7C46,-63.98 46,-54.71 46,-46.11"/>
<polygon fill="black" stroke="black" points="49.5,-46.1 46,-36.1 42.5,-46.1 49.5,-46.1"/>
<g id="a_edge1&#45;headlabel"><a xlink:href="dir_000012_000003.html" target="_top" xlink:title="3">
<text text-anchor="middle" x="52.34" y="-47.2" font-family="Helvetica,sans-Serif" font-size="10.00">3</text>
</a>
</g>
</g>
</g>
</svg>
