<?xml version="1.0" encoding="UTF-8" standalone="no"?>
<!DOCTYPE svg PUBLIC "-//W3C//DTD SVG 1.1//EN"
 "http://www.w3.org/Graphics/SVG/1.1/DTD/svg11.dtd">
<!-- Generated by graphviz version 2.44.1 (20200629.0846)
 -->
<!-- Title: D:/Firmware/MCU16ASMPS_FirmwareProjects/epc9143&#45;power&#45;advanced&#45;voltage&#45;mode&#45;control/epc9143&#45;avmc.X/sources Pages: 1 -->
<svg width="356pt" height="183pt"
 viewBox="0.00 0.00 356.00 183.00" xmlns="http://www.w3.org/2000/svg" xmlns:xlink="http://www.w3.org/1999/xlink">
<g id="graph0" class="graph" transform="scale(1 1) rotate(0) translate(4 179)">
<title>D:/Firmware/MCU16ASMPS_FirmwareProjects/epc9143&#45;power&#45;advanced&#45;voltage&#45;mode&#45;control/epc9143&#45;avmc.X/sources</title>
<polygon fill="white" stroke="transparent" points="-4,4 -4,-179 352,-179 352,4 -4,4"/>
<g id="clust1" class="cluster">
<title>clusterdir_488b9d04ee693d5b67418d8843ae5fee</title>
<g id="a_clust1"><a xlink:href="dir_488b9d04ee693d5b67418d8843ae5fee.html" target="_top" xlink:title="epc9143&#45;avmc.X">
<polygon fill="#ddddee" stroke="black" points="8,-8 8,-167 340,-167 340,-8 8,-8"/>
<text text-anchor="middle" x="174" y="-155" font-family="Helvetica,sans-Serif" font-size="10.00">epc9143&#45;avmc.X</text>
</a>
</g>
</g>
<g id="clust2" class="cluster">
<title>clusterdir_a7f935963e35749abab8dd916753f311</title>
<g id="a_clust2"><a xlink:href="dir_a7f935963e35749abab8dd916753f311.html" target="_top">
<polygon fill="#eeeeff" stroke="black" points="16,-16 16,-140 332,-140 332,-16 16,-16"/>
</a>
</g>
</g>
<!-- dir_a7f935963e35749abab8dd916753f311 -->
<g id="node1" class="node">
<title>dir_a7f935963e35749abab8dd916753f311</title>
<text text-anchor="middle" x="297" y="-111.5" font-family="Helvetica,sans-Serif" font-size="10.00">sources</text>
</g>
<!-- dir_c2b4516fed08213e2fdff6418b3529d5 -->
<g id="node2" class="node">
<title>dir_c2b4516fed08213e2fdff6418b3529d5</title>
<g id="a_node2"><a xlink:href="dir_c2b4516fed08213e2fdff6418b3529d5.html" target="_top" xlink:title="common">
<polygon fill="white" stroke="red" points="168,-60 114,-60 114,-24 168,-24 168,-60"/>
<text text-anchor="middle" x="141" y="-39.5" font-family="Helvetica,sans-Serif" font-size="10.00">common</text>
</a>
</g>
</g>
<!-- dir_2e86c3eb5b899cbd862eefbf580e3bb8 -->
<g id="node3" class="node">
<title>dir_2e86c3eb5b899cbd862eefbf580e3bb8</title>
<g id="a_node3"><a xlink:href="dir_2e86c3eb5b899cbd862eefbf580e3bb8.html" target="_top" xlink:title="config">
<polygon fill="white" stroke="red" points="252,-132 198,-132 198,-96 252,-96 252,-132"/>
<text text-anchor="middle" x="225" y="-111.5" font-family="Helvetica,sans-Serif" font-size="10.00">config</text>
</a>
</g>
</g>
<!-- dir_2e86c3eb5b899cbd862eefbf580e3bb8&#45;&gt;dir_c2b4516fed08213e2fdff6418b3529d5 -->
<g id="edge2" class="edge">
<title>dir_2e86c3eb5b899cbd862eefbf580e3bb8&#45;&gt;dir_c2b4516fed08213e2fdff6418b3529d5</title>
<path fill="none" stroke="black" d="M204.24,-95.7C193.76,-86.97 180.89,-76.24 169.5,-66.75"/>
<polygon fill="black" stroke="black" points="171.45,-63.82 161.53,-60.1 166.97,-69.19 171.45,-63.82"/>
<g id="a_edge2&#45;headlabel"><a xlink:href="dir_000005_000003.html" target="_top" xlink:title="1">
<text text-anchor="middle" x="176.03" y="-61.44" font-family="Helvetica,sans-Serif" font-size="10.00">1</text>
</a>
</g>
</g>
<!-- dir_394a87f7e4fcdc2a1751b0ff61dd3b47 -->
<g id="node4" class="node">
<title>dir_394a87f7e4fcdc2a1751b0ff61dd3b47</title>
<g id="a_node4"><a xlink:href="dir_394a87f7e4fcdc2a1751b0ff61dd3b47.html" target="_top" xlink:title="fault_handler">
<polygon fill="white" stroke="red" points="179.5,-132 108.5,-132 108.5,-96 179.5,-96 179.5,-132"/>
<text text-anchor="middle" x="144" y="-111.5" font-family="Helvetica,sans-Serif" font-size="10.00">fault_handler</text>
</a>
</g>
</g>
<!-- dir_693765e5ccde707b6624cad542d34564 -->
<g id="node5" class="node">
<title>dir_693765e5ccde707b6624cad542d34564</title>
<g id="a_node5"><a xlink:href="dir_693765e5ccde707b6624cad542d34564.html" target="_top" xlink:title="pwr_control">
<polygon fill="white" stroke="red" points="90,-132 24,-132 24,-96 90,-96 90,-132"/>
<text text-anchor="middle" x="57" y="-111.5" font-family="Helvetica,sans-Serif" font-size="10.00">pwr_control</text>
</a>
</g>
</g>
<!-- dir_693765e5ccde707b6624cad542d34564&#45;&gt;dir_c2b4516fed08213e2fdff6418b3529d5 -->
<g id="edge1" class="edge">
<title>dir_693765e5ccde707b6624cad542d34564&#45;&gt;dir_c2b4516fed08213e2fdff6418b3529d5</title>
<path fill="none" stroke="black" d="M77.76,-95.7C88.24,-86.97 101.11,-76.24 112.5,-66.75"/>
<polygon fill="black" stroke="black" points="115.03,-69.19 120.47,-60.1 110.55,-63.82 115.03,-69.19"/>
<g id="a_edge1&#45;headlabel"><a xlink:href="dir_000010_000003.html" target="_top" xlink:title="4">
<text text-anchor="middle" x="114.09" y="-71.18" font-family="Helvetica,sans-Serif" font-size="10.00">4</text>
</a>
</g>
</g>
</g>
</svg>
