<?xml version="1.0" encoding="UTF-8" standalone="no"?>
<!DOCTYPE svg PUBLIC "-//W3C//DTD SVG 1.1//EN"
 "http://www.w3.org/Graphics/SVG/1.1/DTD/svg11.dtd">
<!-- Generated by graphviz version 2.44.1 (20200629.0846)
 -->
<!-- Title: D:/Firmware/MCU16ASMPS_FirmwareProjects/epc9143&#45;power&#45;advanced&#45;voltage&#45;mode&#45;control/epc9143&#45;avmc.X/sources/pwr_control Pages: 1 -->
<svg width="266pt" height="159pt"
 viewBox="0.00 0.00 266.00 159.00" xmlns="http://www.w3.org/2000/svg" xmlns:xlink="http://www.w3.org/1999/xlink">
<g id="graph0" class="graph" transform="scale(1 1) rotate(0) translate(4 155)">
<title>D:/Firmware/MCU16ASMPS_FirmwareProjects/epc9143&#45;power&#45;advanced&#45;voltage&#45;mode&#45;control/epc9143&#45;avmc.X/sources/pwr_control</title>
<polygon fill="white" stroke="transparent" points="-4,4 -4,-155 262,-155 262,4 -4,4"/>
<g id="clust1" class="cluster">
<title>clusterdir_a7f935963e35749abab8dd916753f311</title>
<g id="a_clust1"><a xlink:href="dir_a7f935963e35749abab8dd916753f311.html" target="_top" xlink:title="sources">
<polygon fill="#ddddee" stroke="black" points="8,-56 8,-143 250,-143 250,-56 8,-56"/>
<text text-anchor="middle" x="129" y="-131" font-family="Helvetica,sans-Serif" font-size="10.00">sources</text>
</a>
</g>
</g>
<g id="clust2" class="cluster">
<title>clusterdir_693765e5ccde707b6624cad542d34564</title>
<g id="a_clust2"><a xlink:href="dir_693765e5ccde707b6624cad542d34564.html" target="_top">
<polygon fill="#eeeeff" stroke="black" points="16,-64 16,-116 242,-116 242,-64 16,-64"/>
</a>
</g>
</g>
<!-- dir_693765e5ccde707b6624cad542d34564 -->
<g id="node1" class="node">
<title>dir_693765e5ccde707b6624cad542d34564</title>
<text text-anchor="middle" x="201" y="-87.5" font-family="Helvetica,sans-Serif" font-size="10.00">pwr_control</text>
</g>
<!-- dir_2f6f7b7240dac53ae060c1c1fa2db7e6 -->
<g id="node2" class="node">
<title>dir_2f6f7b7240dac53ae060c1c1fa2db7e6</title>
<g id="a_node2"><a xlink:href="dir_2f6f7b7240dac53ae060c1c1fa2db7e6.html" target="_top" xlink:title="devices">
<polygon fill="white" stroke="red" points="150,-108 96,-108 96,-72 150,-72 150,-108"/>
<text text-anchor="middle" x="123" y="-87.5" font-family="Helvetica,sans-Serif" font-size="10.00">devices</text>
</a>
</g>
</g>
<!-- dir_c2b4516fed08213e2fdff6418b3529d5 -->
<g id="node4" class="node">
<title>dir_c2b4516fed08213e2fdff6418b3529d5</title>
<g id="a_node4"><a xlink:href="dir_c2b4516fed08213e2fdff6418b3529d5.html" target="_top" xlink:title="common">
<polygon fill="white" stroke="red" points="150,-36 96,-36 96,0 150,0 150,-36"/>
<text text-anchor="middle" x="123" y="-15.5" font-family="Helvetica,sans-Serif" font-size="10.00">common</text>
</a>
</g>
</g>
<!-- dir_2f6f7b7240dac53ae060c1c1fa2db7e6&#45;&gt;dir_c2b4516fed08213e2fdff6418b3529d5 -->
<g id="edge1" class="edge">
<title>dir_2f6f7b7240dac53ae060c1c1fa2db7e6&#45;&gt;dir_c2b4516fed08213e2fdff6418b3529d5</title>
<path fill="none" stroke="black" d="M123,-71.7C123,-63.98 123,-54.71 123,-46.11"/>
<polygon fill="black" stroke="black" points="126.5,-46.1 123,-36.1 119.5,-46.1 126.5,-46.1"/>
<g id="a_edge1&#45;headlabel"><a xlink:href="dir_000011_000003.html" target="_top" xlink:title="4">
<text text-anchor="middle" x="129.34" y="-47.2" font-family="Helvetica,sans-Serif" font-size="10.00">4</text>
</a>
</g>
</g>
<!-- dir_34bc0f8a02630fc6b6fdee7879f4be33 -->
<g id="node3" class="node">
<title>dir_34bc0f8a02630fc6b6fdee7879f4be33</title>
<g id="a_node3"><a xlink:href="dir_34bc0f8a02630fc6b6fdee7879f4be33.html" target="_top" xlink:title="drivers">
<polygon fill="white" stroke="black" points="78,-108 24,-108 24,-72 78,-72 78,-108"/>
<text text-anchor="middle" x="51" y="-87.5" font-family="Helvetica,sans-Serif" font-size="10.00">drivers</text>
</a>
</g>
</g>
</g>
</svg>
