<?xml version="1.0" encoding="UTF-8" standalone="no"?>
<!DOCTYPE svg PUBLIC "-//W3C//DTD SVG 1.1//EN"
 "http://www.w3.org/Graphics/SVG/1.1/DTD/svg11.dtd">
<!-- Generated by graphviz version 2.44.1 (20200629.0846)
 -->
<!-- Title: D:/Firmware/MCU16ASMPS_FirmwareProjects/epc9143&#45;power&#45;advanced&#45;voltage&#45;mode&#45;control/epc9143&#45;avmc.X/sources/config Pages: 1 -->
<svg width="254pt" height="159pt"
 viewBox="0.00 0.00 254.00 159.00" xmlns="http://www.w3.org/2000/svg" xmlns:xlink="http://www.w3.org/1999/xlink">
<g id="graph0" class="graph" transform="scale(1 1) rotate(0) translate(4 155)">
<title>D:/Firmware/MCU16ASMPS_FirmwareProjects/epc9143&#45;power&#45;advanced&#45;voltage&#45;mode&#45;control/epc9143&#45;avmc.X/sources/config</title>
<polygon fill="white" stroke="transparent" points="-4,4 -4,-155 250,-155 250,4 -4,4"/>
<g id="clust1" class="cluster">
<title>clusterdir_a7f935963e35749abab8dd916753f311</title>
<g id="a_clust1"><a xlink:href="dir_a7f935963e35749abab8dd916753f311.html" target="_top" xlink:title="sources">
<polygon fill="#ddddee" stroke="black" points="8,-56 8,-143 238,-143 238,-56 8,-56"/>
<text text-anchor="middle" x="123" y="-131" font-family="Helvetica,sans-Serif" font-size="10.00">sources</text>
</a>
</g>
</g>
<g id="clust2" class="cluster">
<title>clusterdir_2e86c3eb5b899cbd862eefbf580e3bb8</title>
<g id="a_clust2"><a xlink:href="dir_2e86c3eb5b899cbd862eefbf580e3bb8.html" target="_top">
<polygon fill="#eeeeff" stroke="black" points="16,-64 16,-116 230,-116 230,-64 16,-64"/>
</a>
</g>
</g>
<!-- dir_2e86c3eb5b899cbd862eefbf580e3bb8 -->
<g id="node1" class="node">
<title>dir_2e86c3eb5b899cbd862eefbf580e3bb8</title>
<text text-anchor="middle" x="195" y="-87.5" font-family="Helvetica,sans-Serif" font-size="10.00">config</text>
</g>
<!-- dir_c2b4516fed08213e2fdff6418b3529d5 -->
<g id="node4" class="node">
<title>dir_c2b4516fed08213e2fdff6418b3529d5</title>
<g id="a_node4"><a xlink:href="dir_c2b4516fed08213e2fdff6418b3529d5.html" target="_top" xlink:title="common">
<polygon fill="white" stroke="red" points="222,-36 168,-36 168,0 222,0 222,-36"/>
<text text-anchor="middle" x="195" y="-15.5" font-family="Helvetica,sans-Serif" font-size="10.00">common</text>
</a>
</g>
</g>
<!-- dir_2e86c3eb5b899cbd862eefbf580e3bb8&#45;&gt;dir_c2b4516fed08213e2fdff6418b3529d5 -->
<g id="edge1" class="edge">
<title>dir_2e86c3eb5b899cbd862eefbf580e3bb8&#45;&gt;dir_c2b4516fed08213e2fdff6418b3529d5</title>
<path fill="none" stroke="black" d="M195,-71.7C195,-63.98 195,-54.71 195,-46.11"/>
<polygon fill="black" stroke="black" points="198.5,-46.1 195,-36.1 191.5,-46.1 198.5,-46.1"/>
<g id="a_edge1&#45;headlabel"><a xlink:href="dir_000005_000003.html" target="_top" xlink:title="1">
<text text-anchor="middle" x="201.34" y="-47.2" font-family="Helvetica,sans-Serif" font-size="10.00">1</text>
</a>
</g>
</g>
<!-- dir_cb53b5b77ec14ad96b965f979f7d3894 -->
<g id="node2" class="node">
<title>dir_cb53b5b77ec14ad96b965f979f7d3894</title>
<g id="a_node2"><a xlink:href="dir_cb53b5b77ec14ad96b965f979f7d3894.html" target="_top" xlink:title="hal">
<polygon fill="white" stroke="black" points="150,-108 96,-108 96,-72 150,-72 150,-108"/>
<text text-anchor="middle" x="123" y="-87.5" font-family="Helvetica,sans-Serif" font-size="10.00">hal</text>
</a>
</g>
</g>
<!-- dir_cab62c6a6d8d723ad28e54c62d287e58 -->
<g id="node3" class="node">
<title>dir_cab62c6a6d8d723ad28e54c62d287e58</title>
<g id="a_node3"><a xlink:href="dir_cab62c6a6d8d723ad28e54c62d287e58.html" target="_top" xlink:title="init">
<polygon fill="white" stroke="black" points="78,-108 24,-108 24,-72 78,-72 78,-108"/>
<text text-anchor="middle" x="51" y="-87.5" font-family="Helvetica,sans-Serif" font-size="10.00">init</text>
</a>
</g>
</g>
</g>
</svg>
