<?xml version="1.0" encoding="UTF-8" standalone="no"?>
<!DOCTYPE svg PUBLIC "-//W3C//DTD SVG 1.1//EN"
 "http://www.w3.org/Graphics/SVG/1.1/DTD/svg11.dtd">
<!-- Generated by graphviz version 2.44.1 (20200629.0846)
 -->
<!-- Title: D:/Firmware/MCU16ASMPS_FirmwareProjects/epc9143&#45;power&#45;advanced&#45;voltage&#45;mode&#45;control/epc9143&#45;avmc.X/sources/pwr_control/devices Pages: 1 -->
<svg width="188pt" height="159pt"
 viewBox="0.00 0.00 188.00 159.00" xmlns="http://www.w3.org/2000/svg" xmlns:xlink="http://www.w3.org/1999/xlink">
<g id="graph0" class="graph" transform="scale(1 1) rotate(0) translate(4 155)">
<title>D:/Firmware/MCU16ASMPS_FirmwareProjects/epc9143&#45;power&#45;advanced&#45;voltage&#45;mode&#45;control/epc9143&#45;avmc.X/sources/pwr_control/devices</title>
<polygon fill="white" stroke="transparent" points="-4,4 -4,-155 184,-155 184,4 -4,4"/>
<g id="clust1" class="cluster">
<title>clusterdir_693765e5ccde707b6624cad542d34564</title>
<g id="a_clust1"><a xlink:href="dir_693765e5ccde707b6624cad542d34564.html" target="_top" xlink:title="pwr_control">
<polygon fill="#ddddee" stroke="black" points="8,-56 8,-143 172,-143 172,-56 8,-56"/>
<text text-anchor="middle" x="90" y="-131" font-family="Helvetica,sans-Serif" font-size="10.00">pwr_control</text>
</a>
</g>
</g>
<g id="clust2" class="cluster">
<title>clusterdir_2f6f7b7240dac53ae060c1c1fa2db7e6</title>
<g id="a_clust2"><a xlink:href="dir_2f6f7b7240dac53ae060c1c1fa2db7e6.html" target="_top">
<polygon fill="#eeeeff" stroke="black" points="16,-64 16,-116 164,-116 164,-64 16,-64"/>
</a>
</g>
</g>
<!-- dir_2f6f7b7240dac53ae060c1c1fa2db7e6 -->
<g id="node1" class="node">
<title>dir_2f6f7b7240dac53ae060c1c1fa2db7e6</title>
<text text-anchor="middle" x="129" y="-87.5" font-family="Helvetica,sans-Serif" font-size="10.00">devices</text>
</g>
<!-- dir_c2b4516fed08213e2fdff6418b3529d5 -->
<g id="node3" class="node">
<title>dir_c2b4516fed08213e2fdff6418b3529d5</title>
<g id="a_node3"><a xlink:href="dir_c2b4516fed08213e2fdff6418b3529d5.html" target="_top" xlink:title="common">
<polygon fill="white" stroke="red" points="118,-36 64,-36 64,0 118,0 118,-36"/>
<text text-anchor="middle" x="91" y="-15.5" font-family="Helvetica,sans-Serif" font-size="10.00">common</text>
</a>
</g>
</g>
<!-- dir_2f6f7b7240dac53ae060c1c1fa2db7e6&#45;&gt;dir_c2b4516fed08213e2fdff6418b3529d5 -->
<g id="edge2" class="edge">
<title>dir_2f6f7b7240dac53ae060c1c1fa2db7e6&#45;&gt;dir_c2b4516fed08213e2fdff6418b3529d5</title>
<path fill="none" stroke="black" d="M119.61,-71.7C115.24,-63.64 109.94,-53.89 105.1,-44.98"/>
<polygon fill="black" stroke="black" points="108.13,-43.22 100.29,-36.1 101.98,-46.56 108.13,-43.22"/>
<g id="a_edge2&#45;headlabel"><a xlink:href="dir_000011_000003.html" target="_top" xlink:title="4">
<text text-anchor="middle" x="112.34" y="-42.53" font-family="Helvetica,sans-Serif" font-size="10.00">4</text>
</a>
</g>
</g>
<!-- dir_aaf99938b6284052d54f826294880e6c -->
<g id="node2" class="node">
<title>dir_aaf99938b6284052d54f826294880e6c</title>
<g id="a_node2"><a xlink:href="dir_aaf99938b6284052d54f826294880e6c.html" target="_top" xlink:title="templates">
<polygon fill="white" stroke="black" points="83.5,-108 24.5,-108 24.5,-72 83.5,-72 83.5,-108"/>
<text text-anchor="middle" x="54" y="-87.5" font-family="Helvetica,sans-Serif" font-size="10.00">templates</text>
</a>
</g>
</g>
<!-- dir_aaf99938b6284052d54f826294880e6c&#45;&gt;dir_c2b4516fed08213e2fdff6418b3529d5 -->
<g id="edge1" class="edge">
<title>dir_aaf99938b6284052d54f826294880e6c&#45;&gt;dir_c2b4516fed08213e2fdff6418b3529d5</title>
<path fill="none" stroke="black" d="M63.15,-71.7C67.4,-63.64 72.56,-53.89 77.27,-44.98"/>
<polygon fill="black" stroke="black" points="80.38,-46.58 81.96,-36.1 74.19,-43.31 80.38,-46.58"/>
<g id="a_edge1&#45;headlabel"><a xlink:href="dir_000012_000003.html" target="_top" xlink:title="3">
<text text-anchor="middle" x="81.21" y="-48.59" font-family="Helvetica,sans-Serif" font-size="10.00">3</text>
</a>
</g>
</g>
</g>
</svg>
