<?xml version="1.0" encoding="UTF-8" standalone="no"?>
<!DOCTYPE svg PUBLIC "-//W3C//DTD SVG 1.1//EN"
 "http://www.w3.org/Graphics/SVG/1.1/DTD/svg11.dtd">
<!-- Generated by graphviz version 2.44.1 (20200629.0846)
 -->
<!-- Title: power_control_flowchart Pages: 1 -->
<svg width="1034pt" height="752pt"
 viewBox="0.00 0.00 1034.16 752.00" xmlns="http://www.w3.org/2000/svg" xmlns:xlink="http://www.w3.org/1999/xlink">
<g id="graph0" class="graph" transform="scale(1 1) rotate(0) translate(4 748)">
<title>power_control_flowchart</title>
<polygon fill="white" stroke="transparent" points="-4,4 -4,-748 1030.16,-748 1030.16,4 -4,4"/>
<g id="clust7" class="cluster">
<title>cluster2</title>
<polygon fill="none" stroke="black" points="79.5,-8 79.5,-599 259.5,-599 259.5,-8 79.5,-8"/>
<text text-anchor="middle" x="169.5" y="-583.8" font-family="Times New Roman,serif" font-size="14.00">my Driver Layer</text>
</g>
<g id="clust8" class="cluster">
<title>cluster20</title>
<polygon fill="none" stroke="black" points="161.5,-16 161.5,-126 251.5,-126 251.5,-16 161.5,-16"/>
</g>
<g id="clust1" class="cluster">
<title>cluster_loop</title>
<polygon fill="none" stroke="black" points="779.5,-331 779.5,-697 949.5,-697 949.5,-331 779.5,-331"/>
<text text-anchor="middle" x="864.5" y="-681.8" font-family="Times New Roman,serif" font-size="14.00">main() loop</text>
</g>
<g id="clust2" class="cluster">
<title>cluster0</title>
<polygon fill="none" stroke="black" points="499.5,-16 499.5,-622 771.5,-622 771.5,-16 499.5,-16"/>
<text text-anchor="middle" x="635.5" y="-606.8" font-family="Times New Roman,serif" font-size="14.00">Application Layer</text>
</g>
<g id="clust3" class="cluster">
<title>cluster00</title>
<polygon fill="none" stroke="black" points="507.5,-157 507.5,-591 763.5,-591 763.5,-157 507.5,-157"/>
<text text-anchor="middle" x="635.5" y="-575.8" font-family="Times New Roman,serif" font-size="14.00">Power Supply State Machine</text>
</g>
<g id="clust4" class="cluster">
<title>cluster1</title>
<polygon fill="none" stroke="black" points="267.5,-8 267.5,-622 471.5,-622 471.5,-8 267.5,-8"/>
<text text-anchor="middle" x="369.5" y="-606.8" font-family="Times New Roman,serif" font-size="14.00">Device Layer</text>
</g>
<g id="clust5" class="cluster">
<title>cluster10</title>
<polygon fill="none" stroke="black" points="275.5,-157 275.5,-591 463.5,-591 463.5,-157 275.5,-157"/>
<text text-anchor="middle" x="369.5" y="-575.8" font-family="Times New Roman,serif" font-size="14.00">Buck Converter State Machine</text>
</g>
<g id="clust6" class="cluster">
<title>cluster11</title>
<polygon fill="none" stroke="black" points="278.5,-16 278.5,-149 430.5,-149 430.5,-16 278.5,-16"/>
<text text-anchor="middle" x="354.5" y="-133.8" font-family="Times New Roman,serif" font-size="14.00">Buck Controller Control</text>
</g>
<!-- call_PWR_SM -->
<g id="node1" class="node">
<title>call_PWR_SM</title>
<g id="a_node1"><a xlink:href="group__main-loop.html#ga13094235dd6cc123d9299925359ca178" target="_top" xlink:title="Call PWR State Machine">
<polygon fill="none" stroke="black" points="919.5,-666 787.5,-666 787.5,-630 919.5,-630 919.5,-666"/>
<text text-anchor="middle" x="853.5" y="-645.5" font-family="Consolas, 'Courier New', Courier, Sans-Serif" font-size="10.00">Call PWR State Machine</text>
</a>
</g>
</g>
<!-- FB_data -->
<g id="node4" class="node">
<title>FB_data</title>
<g id="a_node4"><a xlink:href="group__main-loop.html#ga13094235dd6cc123d9299925359ca178" target="_top" xlink:title="Publish FeedBack Data">
<polygon fill="none" stroke="black" points="699,-560 572,-560 572,-524 699,-524 699,-560"/>
<text text-anchor="middle" x="635.5" y="-539.5" font-family="Consolas, 'Courier New', Courier, Sans-Serif" font-size="10.00">Publish FeedBack Data</text>
</a>
</g>
</g>
<!-- call_PWR_SM&#45;&gt;FB_data -->
<g id="edge9" class="edge">
<title>call_PWR_SM&#45;&gt;FB_data</title>
<path fill="none" stroke="black" d="M787.41,-633.74C766.2,-628.85 747.04,-624.02 742.5,-622 726.97,-615.08 711.28,-606.06 696.87,-596.61"/>
<polygon fill="black" stroke="black" points="698.79,-593.68 688.54,-591 694.88,-599.49 698.79,-593.68"/>
</g>
<!-- call_PWR_SM&#45;&gt;FB_data -->
<!-- fault_test -->
<g id="node5" class="node">
<title>fault_test</title>
<polygon fill="none" stroke="black" points="656,-494 587,-494 587,-458 656,-458 656,-494"/>
<text text-anchor="middle" x="621.5" y="-473.5" font-family="Consolas, 'Courier New', Courier, Sans-Serif" font-size="10.00">Fault Test</text>
</g>
<!-- call_PWR_SM&#45;&gt;fault_test -->
<!-- Fault_detected -->
<g id="node25" class="node">
<title>Fault_detected</title>
<g id="a_node25"><a xlink:href="group__main-loop.html#ga8842f6a41fe23f932a8864fc140c4b5b" target="_top" xlink:title="{Call Fault Handler |{&lt;f0&gt; NO|&lt;f1&gt; Fault Detected?|&lt;f2&gt; YES}}">
<polygon fill="none" stroke="black" points="787.5,-339.5 787.5,-377.5 941.5,-377.5 941.5,-339.5 787.5,-339.5"/>
<text text-anchor="middle" x="864.5" y="-365.5" font-family="Consolas, 'Courier New', Courier, Sans-Serif" font-size="10.00">Call Fault Handler</text>
<polyline fill="none" stroke="black" points="787.5,-358.5 941.5,-358.5 "/>
<text text-anchor="middle" x="801" y="-346.5" font-family="Consolas, 'Courier New', Courier, Sans-Serif" font-size="10.00">NO</text>
<polyline fill="none" stroke="black" points="814.5,-339.5 814.5,-358.5 "/>
<text text-anchor="middle" x="862" y="-346.5" font-family="Consolas, 'Courier New', Courier, Sans-Serif" font-size="10.00">Fault Detected?</text>
<polyline fill="none" stroke="black" points="909.5,-339.5 909.5,-358.5 "/>
<text text-anchor="middle" x="925.5" y="-346.5" font-family="Consolas, 'Courier New', Courier, Sans-Serif" font-size="10.00">YES</text>
</a>
</g>
</g>
<!-- call_PWR_SM&#45;&gt;Fault_detected -->
<g id="edge4" class="edge">
<title>call_PWR_SM&#45;&gt;Fault_detected</title>
<path fill="none" stroke="black" d="M854.16,-629.62C855.12,-604.54 856.94,-556.71 858.5,-516 860.21,-471.28 862.2,-419.37 863.41,-388"/>
<polygon fill="black" stroke="black" points="866.91,-387.94 863.8,-377.81 859.92,-387.67 866.91,-387.94"/>
</g>
<!-- Init -->
<g id="node2" class="node">
<title>Init</title>
<polygon fill="none" stroke="black" points="709.5,-376.5 655.5,-376.5 655.5,-340.5 709.5,-340.5 709.5,-376.5"/>
<text text-anchor="middle" x="682.5" y="-356" font-family="Consolas, 'Courier New', Courier, Sans-Serif" font-size="10.00">Init</text>
</g>
<!-- current_cal -->
<g id="node7" class="node">
<title>current_cal</title>
<g id="a_node7"><a xlink:href="group__power-handler-function.html#gab80ac65aae45f7f9d9fd4ef6f8c56111" target="_top" xlink:title="Current Calibration">
<polygon fill="none" stroke="black" points="755.5,-317 639.5,-317 639.5,-281 755.5,-281 755.5,-317"/>
<text text-anchor="middle" x="697.5" y="-296.5" font-family="Consolas, 'Courier New', Courier, Sans-Serif" font-size="10.00">Current Calibration</text>
</a>
</g>
</g>
<!-- Init&#45;&gt;current_cal -->
<g id="edge13" class="edge">
<title>Init&#45;&gt;current_cal</title>
<path fill="none" stroke="black" d="M687,-340.25C688.07,-336.15 689.23,-331.69 690.39,-327.27"/>
<polygon fill="black" stroke="black" points="693.87,-327.8 693,-317.24 687.09,-326.03 693.87,-327.8"/>
</g>
<!-- Run -->
<g id="node3" class="node">
<title>Run</title>
<polygon fill="none" stroke="black" points="609.5,-376.5 555.5,-376.5 555.5,-340.5 609.5,-340.5 609.5,-376.5"/>
<text text-anchor="middle" x="582.5" y="-356" font-family="Consolas, 'Courier New', Courier, Sans-Serif" font-size="10.00">Run</text>
</g>
<!-- current_bal -->
<g id="node8" class="node">
<title>current_bal</title>
<g id="a_node8"><a xlink:href="group__power-handler-function.html#ga213716a49f67b0e46a7fbb7665214e4f" target="_top" xlink:title="Current Balancing">
<polygon fill="none" stroke="black" points="621.5,-317 515.5,-317 515.5,-281 621.5,-281 621.5,-317"/>
<text text-anchor="middle" x="568.5" y="-296.5" font-family="Consolas, 'Courier New', Courier, Sans-Serif" font-size="10.00">Current Balancing</text>
</a>
</g>
</g>
<!-- Run&#45;&gt;current_bal -->
<g id="edge16" class="edge">
<title>Run&#45;&gt;current_bal</title>
<path fill="none" stroke="black" d="M578.3,-340.25C577.3,-336.15 576.22,-331.69 575.14,-327.27"/>
<polygon fill="black" stroke="black" points="578.46,-326.13 572.7,-317.24 571.66,-327.78 578.46,-326.13"/>
</g>
<!-- FB_data&#45;&gt;fault_test -->
<g id="edge10" class="edge">
<title>FB_data&#45;&gt;fault_test</title>
<path fill="none" stroke="black" d="M631.75,-523.85C630.43,-517.82 628.91,-510.89 627.46,-504.25"/>
<polygon fill="black" stroke="black" points="630.82,-503.22 625.26,-494.2 623.98,-504.72 630.82,-503.22"/>
</g>
<!-- State_machine -->
<g id="node14" class="node">
<title>State_machine</title>
<g id="a_node14"><a xlink:href="" target="_top" xlink:title="State Machine">
<polygon fill="none" stroke="black" points="423,-436 338,-436 338,-400 423,-400 423,-436"/>
<text text-anchor="middle" x="380.5" y="-415.5" font-family="Consolas, 'Courier New', Courier, Sans-Serif" font-size="10.00">State Machine</text>
</a>
</g>
</g>
<!-- FB_data&#45;&gt;State_machine -->
<!-- exec_State_Machine -->
<g id="node6" class="node">
<title>exec_State_Machine</title>
<g id="a_node6"><a xlink:href="group__power-handler-function.html#ga75498c59a10db0738113104a547d8d0d" target="_top" xlink:title="Execute State Machine">
<polygon fill="none" stroke="black" points="671,-436 544,-436 544,-400 671,-400 671,-436"/>
<text text-anchor="middle" x="607.5" y="-415.5" font-family="Consolas, 'Courier New', Courier, Sans-Serif" font-size="10.00">Execute State Machine</text>
</a>
</g>
</g>
<!-- fault_test&#45;&gt;exec_State_Machine -->
<g id="edge11" class="edge">
<title>fault_test&#45;&gt;exec_State_Machine</title>
<path fill="none" stroke="black" d="M617.22,-457.89C616.27,-454.09 615.24,-449.98 614.22,-445.89"/>
<polygon fill="black" stroke="black" points="617.57,-444.85 611.75,-436 610.78,-446.55 617.57,-444.85"/>
</g>
<!-- fault_test&#45;&gt;State_machine -->
<!-- exec_State_Machine&#45;&gt;Init -->
<g id="edge12" class="edge">
<title>exec_State_Machine&#45;&gt;Init</title>
<path fill="none" stroke="black" d="M630,-399.75C636.89,-394.47 644.58,-388.57 651.91,-382.95"/>
<polygon fill="black" stroke="black" points="654.47,-385.4 660.27,-376.54 650.21,-379.85 654.47,-385.4"/>
</g>
<!-- exec_State_Machine&#45;&gt;Run -->
<g id="edge15" class="edge">
<title>exec_State_Machine&#45;&gt;Run</title>
<path fill="none" stroke="black" d="M600,-399.75C598.12,-395.43 596.06,-390.69 594.04,-386.03"/>
<polygon fill="black" stroke="black" points="597.19,-384.51 590,-376.74 590.77,-387.31 597.19,-384.51"/>
</g>
<!-- exec_State_Machine&#45;&gt;State_machine -->
<g id="edge19" class="edge">
<title>exec_State_Machine&#45;&gt;State_machine</title>
<path fill="none" stroke="black" d="M543.74,-418C520.34,-418 496.93,-418 473.53,-418"/>
<polygon fill="black" stroke="black" points="473.5,-414.5 463.5,-418 473.5,-421.5 473.5,-414.5"/>
</g>
<!-- exit -->
<g id="node10" class="node">
<title>exit</title>
<polygon fill="none" stroke="black" points="610.5,-201 556.5,-201 556.5,-165 610.5,-165 610.5,-201"/>
<text text-anchor="middle" x="583.5" y="-180.5" font-family="Consolas, 'Courier New', Courier, Sans-Serif" font-size="10.00">Exit</text>
</g>
<!-- current_cal&#45;&gt;exit -->
<g id="edge14" class="edge">
<title>current_cal&#45;&gt;exit</title>
<path fill="none" stroke="black" d="M697.41,-280.8C696.44,-264.16 692.5,-239.13 678.5,-223 663.71,-205.95 640.31,-196.23 620.44,-190.75"/>
<polygon fill="black" stroke="black" points="621.27,-187.35 610.72,-188.33 619.58,-194.14 621.27,-187.35"/>
</g>
<!-- reg_test -->
<g id="node9" class="node">
<title>reg_test</title>
<polygon fill="none" stroke="black" points="649.5,-259 517.5,-259 517.5,-223 649.5,-223 649.5,-259"/>
<text text-anchor="middle" x="583.5" y="-238.5" font-family="Consolas, 'Courier New', Courier, Sans-Serif" font-size="10.00">Regulation Test ON/OFF</text>
</g>
<!-- current_bal&#45;&gt;reg_test -->
<g id="edge17" class="edge">
<title>current_bal&#45;&gt;reg_test</title>
<path fill="none" stroke="black" d="M573.08,-280.89C574.1,-277.09 575.2,-272.98 576.3,-268.89"/>
<polygon fill="black" stroke="black" points="579.74,-269.57 578.95,-259 572.98,-267.76 579.74,-269.57"/>
</g>
<!-- reg_test&#45;&gt;exit -->
<g id="edge18" class="edge">
<title>reg_test&#45;&gt;exit</title>
<path fill="none" stroke="black" d="M583.5,-222.89C583.5,-219.2 583.5,-215.21 583.5,-211.24"/>
<polygon fill="black" stroke="black" points="587,-211 583.5,-201 580,-211 587,-211"/>
</g>
<!-- exit&#45;&gt;call_PWR_SM -->
<g id="edge20" class="edge">
<title>exit&#45;&gt;call_PWR_SM</title>
<path fill="none" stroke="black" d="M610.74,-185C692.25,-188.26 930.24,-199.68 955.5,-223 980.42,-246 969.5,-264.09 969.5,-298 969.5,-477 969.5,-477 969.5,-477 969.5,-537.86 918.14,-593 883.77,-623.08"/>
<polygon fill="black" stroke="black" points="881.2,-620.67 875.87,-629.82 885.75,-626 881.2,-620.67"/>
</g>
<!-- PWR_suspend -->
<g id="node11" class="node">
<title>PWR_suspend</title>
<polygon fill="none" stroke="black" points="606.5,-118 532.5,-118 532.5,-82 606.5,-82 606.5,-118"/>
<text text-anchor="middle" x="569.5" y="-97.5" font-family="Consolas, 'Courier New', Courier, Sans-Serif" font-size="10.00">PWR Suspend</text>
</g>
<!-- exit&#45;&gt;PWR_suspend -->
<!-- exit1 -->
<g id="node15" class="node">
<title>exit1</title>
<polygon fill="none" stroke="black" points="361.5,-201 307.5,-201 307.5,-165 361.5,-165 361.5,-201"/>
<text text-anchor="middle" x="334.5" y="-180.5" font-family="Consolas, 'Courier New', Courier, Sans-Serif" font-size="10.00">Exit</text>
</g>
<!-- exit&#45;&gt;exit1 -->
<!-- PWR_resume -->
<g id="node12" class="node">
<title>PWR_resume</title>
<polygon fill="none" stroke="black" points="577,-60 508,-60 508,-24 577,-24 577,-60"/>
<text text-anchor="middle" x="542.5" y="-39.5" font-family="Consolas, 'Courier New', Courier, Sans-Serif" font-size="10.00">PWM Resume</text>
</g>
<!-- PWR_suspend&#45;&gt;PWR_resume -->
<!-- Buck_suspend -->
<g id="node16" class="node">
<title>Buck_suspend</title>
<polygon fill="none" stroke="black" points="381.5,-118 301.5,-118 301.5,-82 381.5,-82 381.5,-118"/>
<text text-anchor="middle" x="341.5" y="-97.5" font-family="Consolas, 'Courier New', Courier, Sans-Serif" font-size="10.00">Buck Suspend</text>
</g>
<!-- PWR_suspend&#45;&gt;Buck_suspend -->
<g id="edge6" class="edge">
<title>PWR_suspend&#45;&gt;Buck_suspend</title>
<path fill="none" stroke="black" d="M532.43,-100C485.48,-100 438.54,-100 391.6,-100"/>
<polygon fill="black" stroke="black" points="391.58,-96.5 381.58,-100 391.58,-103.5 391.58,-96.5"/>
</g>
<!-- enabled -->
<g id="node13" class="node">
<title>enabled</title>
<polygon fill="none" stroke="black" points="433,-560 374,-560 374,-524 433,-524 433,-560"/>
<text text-anchor="middle" x="403.5" y="-539.5" font-family="Consolas, 'Courier New', Courier, Sans-Serif" font-size="10.00">Enabled?</text>
</g>
<!-- PWR_resume&#45;&gt;enabled -->
<g id="edge24" class="edge">
<title>PWR_resume&#45;&gt;enabled</title>
<path fill="none" stroke="black" d="M521.39,-60.37C500.84,-78.88 470.85,-110.52 457.87,-147.09"/>
<polygon fill="black" stroke="black" points="454.42,-146.41 454.82,-157 461.11,-148.47 454.42,-146.41"/>
</g>
<!-- enabled&#45;&gt;State_machine -->
<g id="edge26" class="edge">
<title>enabled&#45;&gt;State_machine</title>
<path fill="none" stroke="black" d="M400.25,-523.78C396.45,-503.62 390.11,-469.96 385.64,-446.25"/>
<polygon fill="black" stroke="black" points="389.02,-445.31 383.73,-436.13 382.14,-446.61 389.02,-445.31"/>
</g>
<!-- State_machine&#45;&gt;exit1 -->
<g id="edge27" class="edge">
<title>State_machine&#45;&gt;exit1</title>
<path fill="none" stroke="black" d="M377.2,-399.86C370.66,-366.03 355.59,-288.28 342.5,-223 341.73,-219.18 340.92,-215.16 340.11,-211.2"/>
<polygon fill="black" stroke="black" points="343.47,-210.17 338.04,-201.08 336.62,-211.58 343.47,-210.17"/>
</g>
<!-- NPNZ_control -->
<g id="node18" class="node">
<title>NPNZ_control</title>
<g id="a_node18"><a xlink:href="npnz16b_8h_source.html" target="_top" xlink:title="Independent NPNZ Real Time \nControl Driver/Library \n \nCycle&#45;by&#45;cycle PWM interrupt">
<polygon fill="none" stroke="black" points="251.5,-568 87.5,-568 87.5,-516 251.5,-516 251.5,-568"/>
<text text-anchor="middle" x="169.5" y="-556" font-family="Consolas, 'Courier New', Courier, Sans-Serif" font-size="10.00">Independent NPNZ Real Time </text>
<text text-anchor="middle" x="169.5" y="-545" font-family="Consolas, 'Courier New', Courier, Sans-Serif" font-size="10.00">Control Driver/Library </text>
<text text-anchor="middle" x="169.5" y="-534" font-family="Consolas, 'Courier New', Courier, Sans-Serif" font-size="10.00"> </text>
<text text-anchor="middle" x="169.5" y="-523" font-family="Consolas, 'Courier New', Courier, Sans-Serif" font-size="10.00">Cycle&#45;by&#45;cycle PWM interrupt</text>
</a>
</g>
</g>
<!-- State_machine&#45;&gt;NPNZ_control -->
<!-- Buck_suspend&#45;&gt;State_machine -->
<g id="edge21" class="edge">
<title>Buck_suspend&#45;&gt;State_machine</title>
<path fill="none" stroke="black" d="M354.9,-118.09C362.39,-128.67 371.09,-142.89 375.5,-157 386.52,-192.27 380.5,-203.04 380.5,-240 380.5,-300 380.5,-300 380.5,-300 380.5,-330.83 380.5,-366.22 380.5,-389.93"/>
<polygon fill="black" stroke="black" points="377,-389.95 380.5,-399.95 384,-389.95 377,-389.95"/>
</g>
<!-- Suspend_PWM -->
<g id="node19" class="node">
<title>Suspend_PWM</title>
<polygon fill="none" stroke="black" points="243.5,-118 169.5,-118 169.5,-82 243.5,-82 243.5,-118"/>
<text text-anchor="middle" x="206.5" y="-97.5" font-family="Consolas, 'Courier New', Courier, Sans-Serif" font-size="10.00">Suspend PWM</text>
</g>
<!-- Buck_suspend&#45;&gt;Suspend_PWM -->
<g id="edge7" class="edge">
<title>Buck_suspend&#45;&gt;Suspend_PWM</title>
<path fill="none" stroke="black" d="M301.38,-100C285.6,-100 269.82,-100 254.05,-100"/>
<polygon fill="black" stroke="black" points="253.68,-96.5 243.68,-100 253.68,-103.5 253.68,-96.5"/>
</g>
<!-- Buck_resume -->
<g id="node17" class="node">
<title>Buck_resume</title>
<polygon fill="none" stroke="black" points="391.5,-60 317.5,-60 317.5,-24 391.5,-24 391.5,-60"/>
<text text-anchor="middle" x="354.5" y="-39.5" font-family="Consolas, 'Courier New', Courier, Sans-Serif" font-size="10.00">Buck Resume</text>
</g>
<!-- Buck_resume&#45;&gt;State_machine -->
<g id="edge22" class="edge">
<title>Buck_resume&#45;&gt;State_machine</title>
<path fill="none" stroke="black" d="M374.86,-60.21C380.9,-66.43 386.87,-73.93 390.5,-82 408.82,-122.74 400.5,-137.33 400.5,-182 400.5,-300 400.5,-300 400.5,-300 400.5,-334.74 402.93,-344.07 395.5,-378 394.62,-382.03 393.39,-386.19 392.01,-390.24"/>
<polygon fill="black" stroke="black" points="388.62,-389.28 388.38,-399.87 395.18,-391.75 388.62,-389.28"/>
</g>
<!-- Resume_PWM -->
<g id="node20" class="node">
<title>Resume_PWM</title>
<polygon fill="none" stroke="black" points="243,-60 174,-60 174,-24 243,-24 243,-60"/>
<text text-anchor="middle" x="208.5" y="-39.5" font-family="Consolas, 'Courier New', Courier, Sans-Serif" font-size="10.00">Resume PWM</text>
</g>
<!-- Buck_resume&#45;&gt;Resume_PWM -->
<g id="edge25" class="edge">
<title>Buck_resume&#45;&gt;Resume_PWM</title>
<path fill="none" stroke="black" d="M317.48,-42C296.05,-42 274.62,-42 253.19,-42"/>
<polygon fill="black" stroke="black" points="253,-38.5 243,-42 253,-45.5 253,-38.5"/>
</g>
<!-- PWM -->
<g id="node21" class="node">
<title>PWM</title>
<polygon fill="none" stroke="black" points="71.5,-436 17.5,-436 17.5,-400 71.5,-400 71.5,-436"/>
<text text-anchor="middle" x="44.5" y="-415.5" font-family="Consolas, 'Courier New', Courier, Sans-Serif" font-size="10.00">PWM</text>
</g>
<!-- PWM&#45;&gt;NPNZ_control -->
<g id="edge28" class="edge">
<title>PWM&#45;&gt;NPNZ_control</title>
<path fill="none" stroke="black" d="M61.93,-436.01C81.15,-454.77 112.52,-485.39 136.44,-508.73"/>
<polygon fill="black" stroke="black" points="134,-511.24 143.6,-515.72 138.89,-506.23 134,-511.24"/>
</g>
<!-- ADC -->
<g id="node22" class="node">
<title>ADC</title>
<polygon fill="none" stroke="black" points="71.5,-494 17.5,-494 17.5,-458 71.5,-458 71.5,-494"/>
<text text-anchor="middle" x="44.5" y="-473.5" font-family="Consolas, 'Courier New', Courier, Sans-Serif" font-size="10.00">ADC</text>
</g>
<!-- ADC&#45;&gt;NPNZ_control -->
<g id="edge29" class="edge">
<title>ADC&#45;&gt;NPNZ_control</title>
<path fill="none" stroke="black" d="M71.52,-491.9C72.86,-492.61 74.2,-493.32 75.5,-494 86.47,-499.75 98.23,-505.75 109.58,-511.47"/>
<polygon fill="black" stroke="black" points="108.08,-514.63 118.58,-515.98 111.22,-508.37 108.08,-514.63"/>
</g>
<!-- ADC&#45;&gt;PWM -->
<!-- cNPNZ -->
<g id="node23" class="node">
<title>cNPNZ</title>
<polygon fill="none" stroke="black" points="69,-560 0,-560 0,-524 69,-524 69,-560"/>
<text text-anchor="middle" x="34.5" y="-539.5" font-family="Consolas, 'Courier New', Courier, Sans-Serif" font-size="10.00">cNPNZ16b_t</text>
</g>
<!-- cNPNZ&#45;&gt;NPNZ_control -->
<g id="edge30" class="edge">
<title>cNPNZ&#45;&gt;NPNZ_control</title>
<path fill="none" stroke="black" d="M69.04,-542C71.83,-542 74.61,-542 77.4,-542"/>
<polygon fill="black" stroke="black" points="77.48,-545.5 87.48,-542 77.48,-538.5 77.48,-545.5"/>
</g>
<!-- cNPNZ&#45;&gt;ADC -->
<!-- Success -->
<g id="node24" class="node">
<title>Success</title>
<polygon fill="none" stroke="black" points="720,-705.5 720,-743.5 853,-743.5 853,-705.5 720,-705.5"/>
<text text-anchor="middle" x="786.5" y="-731.5" font-family="Consolas, 'Courier New', Courier, Sans-Serif" font-size="10.00">Main Function</text>
<polyline fill="none" stroke="black" points="720,-724.5 853,-724.5 "/>
<text text-anchor="middle" x="733.5" y="-712.5" font-family="Consolas, 'Courier New', Courier, Sans-Serif" font-size="10.00">NO</text>
<polyline fill="none" stroke="black" points="747,-705.5 747,-724.5 "/>
<text text-anchor="middle" x="784" y="-712.5" font-family="Consolas, 'Courier New', Courier, Sans-Serif" font-size="10.00">Successful?</text>
<polyline fill="none" stroke="black" points="821,-705.5 821,-724.5 "/>
<text text-anchor="middle" x="837" y="-712.5" font-family="Consolas, 'Courier New', Courier, Sans-Serif" font-size="10.00">YES</text>
</g>
<!-- Success&#45;&gt;call_PWR_SM -->
<g id="edge3" class="edge">
<title>Success:f2&#45;&gt;call_PWR_SM</title>
<path fill="none" stroke="black" d="M837.5,-705C837.5,-695.3 839.75,-685.01 842.55,-675.93"/>
<polygon fill="black" stroke="black" points="845.93,-676.89 845.87,-666.29 839.31,-674.61 845.93,-676.89"/>
</g>
<!-- Reset -->
<g id="node26" class="node">
<title>Reset</title>
<polygon fill="none" stroke="black" points="733.5,-666 697.9,-648 733.5,-630 769.1,-648 733.5,-666"/>
<text text-anchor="middle" x="733.5" y="-645.5" font-family="Consolas, 'Courier New', Courier, Sans-Serif" font-size="10.00">Reset</text>
</g>
<!-- Success&#45;&gt;Reset -->
<g id="edge2" class="edge">
<title>Success:f0&#45;&gt;Reset</title>
<path fill="none" stroke="black" d="M733.5,-705C729.72,-694.55 727.53,-682.99 726.92,-673.11"/>
<polygon fill="black" stroke="black" points="730.42,-672.81 726.91,-662.81 723.42,-672.81 730.42,-672.81"/>
</g>
<!-- Fault_detected&#45;&gt;call_PWR_SM -->
<g id="edge8" class="edge">
<title>Fault_detected:f0&#45;&gt;call_PWR_SM</title>
<path fill="none" stroke="black" d="M800.5,-338.5C800.5,-332.71 791.44,-335.25 787.5,-339.5 781.69,-345.78 782.42,-371.11 787.5,-378 807.1,-404.59 838.9,-373.41 858.5,-400 907.2,-466.08 880.29,-571.41 863.6,-620.37"/>
<polygon fill="black" stroke="black" points="860.26,-619.33 860.23,-629.92 866.86,-621.66 860.26,-619.33"/>
</g>
<!-- Fault_detected&#45;&gt;current_cal -->
<!-- Fault_detected&#45;&gt;PWR_suspend -->
<g id="edge5" class="edge">
<title>Fault_detected:f2&#45;&gt;PWR_suspend</title>
<path fill="none" stroke="black" d="M942.5,-348.5C1030.58,-348.5 1051.56,-223.23 993.5,-157 968.93,-128.97 722.01,-110.46 616.69,-103.78"/>
<polygon fill="black" stroke="black" points="616.85,-100.28 606.65,-103.15 616.42,-107.27 616.85,-100.28"/>
</g>
<!-- Fault_detected&#45;&gt;PWR_resume -->
<g id="edge23" class="edge">
<title>Fault_detected:f0&#45;&gt;PWR_resume</title>
<path fill="none" stroke="black" d="M800.5,-338.5C800.5,-226.23 598.21,-273.88 523.5,-149 508.95,-124.68 518.29,-92 528.33,-69.39"/>
<polygon fill="black" stroke="black" points="531.63,-70.6 532.76,-60.07 525.31,-67.6 531.63,-70.6"/>
</g>
<!-- Reset&#45;&gt;Success -->
<g id="edge1" class="edge">
<title>Reset&#45;&gt;Success</title>
<path fill="none" stroke="black" d="M740.08,-662.71C740.72,-671.51 739.55,-683.43 736.55,-695.07"/>
<polygon fill="black" stroke="black" points="733.18,-694.12 733.61,-704.71 739.88,-696.17 733.18,-694.12"/>
</g>
</g>
</svg>
