<?xml version="1.0" encoding="UTF-8" standalone="no"?>
<!DOCTYPE svg PUBLIC "-//W3C//DTD SVG 1.1//EN"
 "http://www.w3.org/Graphics/SVG/1.1/DTD/svg11.dtd">
<!-- Generated by graphviz version 2.44.1 (20200629.0846)
 -->
<!-- Title: State_Machine Pages: 1 -->
<svg width="655pt" height="912pt"
 viewBox="0.00 0.00 655.10 912.00" xmlns="http://www.w3.org/2000/svg" xmlns:xlink="http://www.w3.org/1999/xlink">
<g id="graph0" class="graph" transform="scale(1 1) rotate(0) translate(4 908)">
<title>State_Machine</title>
<polygon fill="white" stroke="transparent" points="-4,4 -4,-908 651.1,-908 651.1,4 -4,4"/>
<!-- efs_clear -->
<g id="node1" class="node">
<title>efs_clear</title>
<polygon fill="none" stroke="black" points="152.75,-736.44 321.37,-724 489.99,-736.44 489.83,-756.56 152.91,-756.56 152.75,-736.44"/>
<text text-anchor="middle" x="321.37" y="-739.5" font-family="Consolas, 'Courier New', Courier, Sans-Serif" font-size="10.00">Enabled, Fault&#45; and Suspend Flag cleared?</text>
</g>
<!-- yes1 -->
<g id="node7" class="node">
<title>yes1</title>
<polygon fill="none" stroke="black" points="278.37,-650 316.22,-678.5 240.52,-678.5 278.37,-650"/>
<text text-anchor="middle" x="278.37" y="-666.5" font-family="Consolas, 'Courier New', Courier, Sans-Serif" font-size="10.00">YES</text>
</g>
<!-- efs_clear&#45;&gt;yes1 -->
<g id="edge13" class="edge">
<title>efs_clear&#45;&gt;yes1</title>
<path fill="none" stroke="black" d="M311.4,-724.53C304.65,-713.4 295.76,-698.71 288.9,-687.38"/>
<polygon fill="black" stroke="black" points="291.88,-685.55 283.71,-678.81 285.9,-689.18 291.88,-685.55"/>
</g>
<!-- no1 -->
<g id="node8" class="node">
<title>no1</title>
<polygon fill="none" stroke="black" points="377.37,-650 408.95,-678.5 345.79,-678.5 377.37,-650"/>
<text text-anchor="middle" x="377.37" y="-666.5" font-family="Consolas, 'Courier New', Courier, Sans-Serif" font-size="10.00">NO</text>
</g>
<!-- efs_clear&#45;&gt;no1 -->
<g id="edge5" class="edge">
<title>efs_clear&#45;&gt;no1</title>
<path fill="none" stroke="black" d="M334.08,-724.89C343.13,-713.41 355.26,-698.04 364.37,-686.48"/>
<polygon fill="black" stroke="black" points="367.21,-688.53 370.66,-678.51 361.72,-684.2 367.21,-688.53"/>
</g>
<!-- conv_run -->
<g id="node2" class="node">
<title>conv_run</title>
<polygon fill="none" stroke="black" points="309.84,-590.44 390.37,-578 470.91,-590.44 470.83,-610.56 309.91,-610.56 309.84,-590.44"/>
<text text-anchor="middle" x="390.37" y="-593.5" font-family="Consolas, 'Courier New', Courier, Sans-Serif" font-size="10.00">Converter Running?</text>
</g>
<!-- yes2 -->
<g id="node9" class="node">
<title>yes2</title>
<polygon fill="none" stroke="black" points="361.37,-504 399.22,-532.5 323.52,-532.5 361.37,-504"/>
<text text-anchor="middle" x="361.37" y="-520.5" font-family="Consolas, 'Courier New', Courier, Sans-Serif" font-size="10.00">YES</text>
</g>
<!-- conv_run&#45;&gt;yes2 -->
<g id="edge10" class="edge">
<title>conv_run&#45;&gt;yes2</title>
<path fill="none" stroke="black" d="M383.79,-578.89C379.29,-567.86 373.31,-553.24 368.66,-541.86"/>
<polygon fill="black" stroke="black" points="371.87,-540.45 364.85,-532.51 365.39,-543.09 371.87,-540.45"/>
</g>
<!-- no2 -->
<g id="node10" class="node">
<title>no2</title>
<polygon fill="none" stroke="black" points="453.37,-504 484.95,-532.5 421.79,-532.5 453.37,-504"/>
<text text-anchor="middle" x="453.37" y="-520.5" font-family="Consolas, 'Courier New', Courier, Sans-Serif" font-size="10.00">NO</text>
</g>
<!-- conv_run&#45;&gt;no2 -->
<g id="edge7" class="edge">
<title>conv_run&#45;&gt;no2</title>
<path fill="none" stroke="black" d="M403.73,-579.94C414.06,-568.3 428.34,-552.21 438.93,-540.27"/>
<polygon fill="black" stroke="black" points="441.56,-542.58 445.58,-532.78 436.33,-537.93 441.56,-542.58"/>
</g>
<!-- en_pin -->
<g id="node3" class="node">
<title>en_pin</title>
<g id="a_node3"><a xlink:href="struct_b_u_c_k___g_p_i_o___s_e_t_t_i_n_g_s__s.html" target="_top" xlink:title="Enable pin set? (optional)">
<polygon fill="none" stroke="black" points="127.37,-904 0.13,-886 127.37,-868 254.62,-886 127.37,-904"/>
<text text-anchor="middle" x="127.37" y="-883.5" font-family="Consolas, 'Courier New', Courier, Sans-Serif" font-size="10.00">Enable pin set? (optional)</text>
</a>
</g>
</g>
<!-- en_set -->
<g id="node4" class="node">
<title>en_set</title>
<g id="a_node4"><a xlink:href="struct_b_u_c_k___c_o_n_v_e_r_t_e_r___s_t_a_t_u_s__s.html" target="_top" xlink:title="Enable bit set?">
<polygon fill="none" stroke="black" points="127.37,-832 48.2,-814 127.37,-796 206.55,-814 127.37,-832"/>
<text text-anchor="middle" x="127.37" y="-811.5" font-family="Consolas, 'Courier New', Courier, Sans-Serif" font-size="10.00">Enable bit set?</text>
</a>
</g>
</g>
<!-- en_pin&#45;&gt;en_set -->
<g id="edge1" class="edge">
<title>en_pin&#45;&gt;en_set</title>
<path fill="none" stroke="black" d="M127.37,-867.7C127.37,-859.98 127.37,-850.71 127.37,-842.11"/>
<polygon fill="black" stroke="black" points="130.87,-842.1 127.37,-832.1 123.87,-842.1 130.87,-842.1"/>
</g>
<!-- en_set&#45;&gt;efs_clear -->
<g id="edge2" class="edge">
<title>en_set&#45;&gt;efs_clear</title>
<path fill="none" stroke="black" d="M156.42,-802.52C187.47,-791.32 237.18,-773.38 273.93,-760.12"/>
<polygon fill="black" stroke="black" points="275.23,-763.37 283.45,-756.68 272.85,-756.79 275.23,-763.37"/>
</g>
<!-- flt_clear -->
<g id="node5" class="node">
<title>flt_clear</title>
<g id="a_node5"><a xlink:href="struct_b_u_c_k___c_o_n_v_e_r_t_e_r___s_t_a_t_u_s__s.html" target="_top" xlink:title="Fault Flag cleared?">
<polygon fill="none" stroke="black" points="321.37,-832 224.73,-814 321.37,-796 418.01,-814 321.37,-832"/>
<text text-anchor="middle" x="321.37" y="-811.5" font-family="Consolas, 'Courier New', Courier, Sans-Serif" font-size="10.00">Fault Flag cleared?</text>
</a>
</g>
</g>
<!-- flt_clear&#45;&gt;efs_clear -->
<g id="edge3" class="edge">
<title>flt_clear&#45;&gt;efs_clear</title>
<path fill="none" stroke="black" d="M321.37,-795.7C321.37,-786.99 321.37,-776.3 321.37,-766.83"/>
<polygon fill="black" stroke="black" points="324.87,-766.82 321.37,-756.82 317.87,-766.82 324.87,-766.82"/>
</g>
<!-- sf_clear -->
<g id="node6" class="node">
<title>sf_clear</title>
<g id="a_node6"><a xlink:href="struct_b_u_c_k___c_o_n_v_e_r_t_e_r___s_t_a_t_u_s__s.html" target="_top" xlink:title="Suspend Flag cleared?">
<polygon fill="none" stroke="black" points="541.37,-832 435.42,-814 541.37,-796 647.33,-814 541.37,-832"/>
<text text-anchor="middle" x="541.37" y="-811.5" font-family="Consolas, 'Courier New', Courier, Sans-Serif" font-size="10.00">Suspend Flag cleared?</text>
</a>
</g>
</g>
<!-- sf_clear&#45;&gt;efs_clear -->
<g id="edge4" class="edge">
<title>sf_clear&#45;&gt;efs_clear</title>
<path fill="none" stroke="black" d="M506.51,-801.91C470.84,-790.56 414.98,-772.78 373.94,-759.73"/>
<polygon fill="black" stroke="black" points="374.97,-756.38 364.38,-756.68 372.84,-763.05 374.97,-756.38"/>
</g>
<!-- State_Reset -->
<g id="node14" class="node">
<title>State_Reset</title>
<g id="a_node14"><a xlink:href="group__buck-state-machine-function.html#ga295e97e4e4330b73f398e98d889d229d" target="_top" xlink:title="State Reset">
<polygon fill="none" stroke="black" points="291.37,-614 217.37,-614 217.37,-578 291.37,-578 291.37,-614"/>
<text text-anchor="middle" x="254.37" y="-593.5" font-family="Consolas, 'Courier New', Courier, Sans-Serif" font-size="10.00">State Reset</text>
</a>
</g>
</g>
<!-- yes1&#45;&gt;State_Reset -->
<g id="edge14" class="edge">
<title>yes1&#45;&gt;State_Reset</title>
<path fill="none" stroke="black" d="M273.51,-653.63C270.62,-645.06 266.85,-633.91 263.42,-623.77"/>
<polygon fill="black" stroke="black" points="266.67,-622.45 260.15,-614.1 260.04,-624.69 266.67,-622.45"/>
</g>
<!-- no1&#45;&gt;conv_run -->
<g id="edge6" class="edge">
<title>no1&#45;&gt;conv_run</title>
<path fill="none" stroke="black" d="M380.26,-652.24C381.94,-643.03 384.11,-631.2 386,-620.86"/>
<polygon fill="black" stroke="black" points="389.49,-621.26 387.85,-610.79 382.6,-620 389.49,-621.26"/>
</g>
<!-- PreState_Reset -->
<g id="node13" class="node">
<title>PreState_Reset</title>
<g id="a_node13"><a xlink:href="group__buck-state-machine-function.html#ga295e97e4e4330b73f398e98d889d229d" target="_top" xlink:title="State Reset">
<polygon fill="none" stroke="black" points="389.37,-468 315.37,-468 315.37,-432 389.37,-432 389.37,-468"/>
<text text-anchor="middle" x="352.37" y="-447.5" font-family="Consolas, 'Courier New', Courier, Sans-Serif" font-size="10.00">State Reset</text>
</a>
</g>
</g>
<!-- yes2&#45;&gt;PreState_Reset -->
<g id="edge11" class="edge">
<title>yes2&#45;&gt;PreState_Reset</title>
<path fill="none" stroke="black" d="M359.28,-505.53C358.27,-497.52 357.02,-487.68 355.87,-478.57"/>
<polygon fill="black" stroke="black" points="359.3,-477.85 354.57,-468.37 352.36,-478.73 359.3,-477.85"/>
</g>
<!-- PreState_Initialize -->
<g id="node12" class="node">
<title>PreState_Initialize</title>
<g id="a_node12"><a xlink:href="group__buck-state-machine-function.html#ga33c46f2d0713382476afa8ba44faa7ae" target="_top" xlink:title="State Initialize">
<polygon fill="none" stroke="black" points="508.87,-468 407.87,-468 407.87,-432 508.87,-432 508.87,-468"/>
<text text-anchor="middle" x="458.37" y="-447.5" font-family="Consolas, 'Courier New', Courier, Sans-Serif" font-size="10.00">State Initialize</text>
</a>
</g>
</g>
<!-- no2&#45;&gt;PreState_Initialize -->
<g id="edge8" class="edge">
<title>no2&#45;&gt;PreState_Initialize</title>
<path fill="none" stroke="black" d="M454.58,-504.81C455.15,-496.79 455.83,-487.05 456.47,-478.07"/>
<polygon fill="black" stroke="black" points="459.96,-478.25 457.17,-468.03 452.98,-477.76 459.96,-478.25"/>
</g>
<!-- exit -->
<g id="node11" class="node">
<title>exit</title>
<polygon fill="none" stroke="black" points="420.37,-390 378.37,-390 378.37,-366 420.37,-366 432.37,-378 420.37,-390"/>
<text text-anchor="middle" x="405.37" y="-375.5" font-family="Consolas, 'Courier New', Courier, Sans-Serif" font-size="10.00">Exit</text>
</g>
<!-- PreState_Initialize&#45;&gt;exit -->
<g id="edge9" class="edge">
<title>PreState_Initialize&#45;&gt;exit</title>
<path fill="none" stroke="black" d="M445.27,-431.7C438.98,-423.39 431.32,-413.28 424.41,-404.14"/>
<polygon fill="black" stroke="black" points="427.15,-401.96 418.32,-396.1 421.57,-406.19 427.15,-401.96"/>
</g>
<!-- PreState_Reset&#45;&gt;exit -->
<g id="edge12" class="edge">
<title>PreState_Reset&#45;&gt;exit</title>
<path fill="none" stroke="black" d="M365.47,-431.7C371.76,-423.39 379.42,-413.28 386.34,-404.14"/>
<polygon fill="black" stroke="black" points="389.18,-406.19 392.42,-396.1 383.59,-401.96 389.18,-406.19"/>
</g>
<!-- State_Standby -->
<g id="node15" class="node">
<title>State_Standby</title>
<g id="a_node15"><a xlink:href="group__buck-state-machine-function.html#ga86f5f9d38aea68451e443a8b6ae9cf9b" target="_top" xlink:title="State Standby">
<polygon fill="none" stroke="black" points="296.87,-541 211.87,-541 211.87,-505 296.87,-505 296.87,-541"/>
<text text-anchor="middle" x="254.37" y="-520.5" font-family="Consolas, 'Courier New', Courier, Sans-Serif" font-size="10.00">State Standby</text>
</a>
</g>
</g>
<!-- State_Reset&#45;&gt;State_Standby -->
<g id="edge15" class="edge">
<title>State_Reset&#45;&gt;State_Standby</title>
<path fill="none" stroke="black" d="M254.37,-577.81C254.37,-569.79 254.37,-560.05 254.37,-551.07"/>
<polygon fill="black" stroke="black" points="257.87,-551.03 254.37,-541.03 250.87,-551.03 257.87,-551.03"/>
</g>
<!-- State_RampUp -->
<g id="node16" class="node">
<title>State_RampUp</title>
<g id="a_node16"><a xlink:href="group__buck-state-machine-function.html#ga3a607678272d7f0b771a3db30e12dbbe" target="_top" xlink:title="State Ramp Up">
<polygon fill="none" stroke="black" points="296.87,-468 211.87,-468 211.87,-432 296.87,-432 296.87,-468"/>
<text text-anchor="middle" x="254.37" y="-447.5" font-family="Consolas, 'Courier New', Courier, Sans-Serif" font-size="10.00">State Ramp Up</text>
</a>
</g>
</g>
<!-- State_Standby&#45;&gt;State_RampUp -->
<g id="edge16" class="edge">
<title>State_Standby&#45;&gt;State_RampUp</title>
<path fill="none" stroke="black" d="M254.37,-504.81C254.37,-496.79 254.37,-487.05 254.37,-478.07"/>
<polygon fill="black" stroke="black" points="257.87,-478.03 254.37,-468.03 250.87,-478.03 257.87,-478.03"/>
</g>
<!-- SubState_PowerOnDelay -->
<g id="node18" class="node">
<title>SubState_PowerOnDelay</title>
<g id="a_node18"><a xlink:href="group__buck-state-machine-function.html#ga5e8eb99be9c174e5df73c60ffe567de9" target="_top" xlink:title="Power On Delay">
<ellipse fill="none" stroke="black" cx="254.37" cy="-378" rx="52.96" ry="18"/>
<text text-anchor="middle" x="254.37" y="-375.5" font-family="Consolas, 'Courier New', Courier, Sans-Serif" font-size="10.00">Power On Delay</text>
</a>
</g>
</g>
<!-- State_RampUp&#45;&gt;SubState_PowerOnDelay -->
<g id="edge17" class="edge">
<title>State_RampUp&#45;&gt;SubState_PowerOnDelay</title>
<path fill="none" stroke="black" d="M254.37,-431.7C254.37,-423.98 254.37,-414.71 254.37,-406.11"/>
<polygon fill="black" stroke="black" points="257.87,-406.1 254.37,-396.1 250.87,-406.1 257.87,-406.1"/>
</g>
<!-- State_Online -->
<g id="node17" class="node">
<title>State_Online</title>
<g id="a_node17"><a xlink:href="group__buck-state-machine-function.html#ga6319cad3980d2669e7e804252e99f281" target="_top" xlink:title="State Online">
<polygon fill="none" stroke="black" points="294.37,-36 214.37,-36 214.37,0 294.37,0 294.37,-36"/>
<text text-anchor="middle" x="254.37" y="-15.5" font-family="Consolas, 'Courier New', Courier, Sans-Serif" font-size="10.00">State Online</text>
</a>
</g>
</g>
<!-- SubState_PrepareVRampUp -->
<g id="node19" class="node">
<title>SubState_PrepareVRampUp</title>
<g id="a_node19"><a xlink:href="group__buck-state-machine-function.html#gabb4f7f04fa96a0683831f79cd0076660" target="_top" xlink:title="Prepare Voltage Ramp Up">
<ellipse fill="none" stroke="black" cx="254.37" cy="-306" rx="80.79" ry="18"/>
<text text-anchor="middle" x="254.37" y="-303.5" font-family="Consolas, 'Courier New', Courier, Sans-Serif" font-size="10.00">Prepare Voltage Ramp Up</text>
</a>
</g>
</g>
<!-- SubState_PowerOnDelay&#45;&gt;SubState_PrepareVRampUp -->
<g id="edge18" class="edge">
<title>SubState_PowerOnDelay&#45;&gt;SubState_PrepareVRampUp</title>
<path fill="none" stroke="black" d="M254.37,-359.7C254.37,-351.98 254.37,-342.71 254.37,-334.11"/>
<polygon fill="black" stroke="black" points="257.87,-334.1 254.37,-324.1 250.87,-334.1 257.87,-334.1"/>
</g>
<!-- SubState_VRampUp -->
<g id="node20" class="node">
<title>SubState_VRampUp</title>
<g id="a_node20"><a xlink:href="group__buck-state-machine-function.html#ga132e8fe1f0e549608e16efb026cc8124" target="_top" xlink:title="Voltage Ramp Up">
<ellipse fill="none" stroke="black" cx="254.37" cy="-234" rx="55.85" ry="18"/>
<text text-anchor="middle" x="254.37" y="-231.5" font-family="Consolas, 'Courier New', Courier, Sans-Serif" font-size="10.00">Voltage Ramp Up</text>
</a>
</g>
</g>
<!-- SubState_PrepareVRampUp&#45;&gt;SubState_VRampUp -->
<g id="edge19" class="edge">
<title>SubState_PrepareVRampUp&#45;&gt;SubState_VRampUp</title>
<path fill="none" stroke="black" d="M254.37,-287.7C254.37,-279.98 254.37,-270.71 254.37,-262.11"/>
<polygon fill="black" stroke="black" points="257.87,-262.1 254.37,-252.1 250.87,-262.1 257.87,-262.1"/>
</g>
<!-- SubState_IRampUp -->
<g id="node21" class="node">
<title>SubState_IRampUp</title>
<g id="a_node21"><a xlink:href="group__buck-state-machine-function.html#gacd595d9322d1c13b26be51ca541c77d9" target="_top" xlink:title="Current Ramp Up">
<ellipse fill="none" stroke="black" cx="254.37" cy="-162" rx="55.85" ry="18"/>
<text text-anchor="middle" x="254.37" y="-159.5" font-family="Consolas, 'Courier New', Courier, Sans-Serif" font-size="10.00">Current Ramp Up</text>
</a>
</g>
</g>
<!-- SubState_VRampUp&#45;&gt;SubState_IRampUp -->
<g id="edge20" class="edge">
<title>SubState_VRampUp&#45;&gt;SubState_IRampUp</title>
<path fill="none" stroke="black" d="M254.37,-215.7C254.37,-207.98 254.37,-198.71 254.37,-190.11"/>
<polygon fill="black" stroke="black" points="257.87,-190.1 254.37,-180.1 250.87,-190.1 257.87,-190.1"/>
</g>
<!-- SubState_PowerGoodDelay -->
<g id="node22" class="node">
<title>SubState_PowerGoodDelay</title>
<g id="a_node22"><a xlink:href="group__buck-state-machine-function.html#ga63e41c37a567ac87b4630db7320842d0" target="_top" xlink:title="Power Good Delay">
<ellipse fill="none" stroke="black" cx="254.37" cy="-90" rx="59.41" ry="18"/>
<text text-anchor="middle" x="254.37" y="-87.5" font-family="Consolas, 'Courier New', Courier, Sans-Serif" font-size="10.00">Power Good Delay</text>
</a>
</g>
</g>
<!-- SubState_IRampUp&#45;&gt;SubState_PowerGoodDelay -->
<g id="edge21" class="edge">
<title>SubState_IRampUp&#45;&gt;SubState_PowerGoodDelay</title>
<path fill="none" stroke="black" d="M254.37,-143.7C254.37,-135.98 254.37,-126.71 254.37,-118.11"/>
<polygon fill="black" stroke="black" points="257.87,-118.1 254.37,-108.1 250.87,-118.1 257.87,-118.1"/>
</g>
<!-- SubState_PowerGoodDelay&#45;&gt;State_Online -->
<g id="edge22" class="edge">
<title>SubState_PowerGoodDelay&#45;&gt;State_Online</title>
<path fill="none" stroke="black" d="M254.37,-71.7C254.37,-63.98 254.37,-54.71 254.37,-46.11"/>
<polygon fill="black" stroke="black" points="257.87,-46.1 254.37,-36.1 250.87,-46.1 257.87,-46.1"/>
</g>
</g>
</svg>
