<?xml version="1.0" encoding="UTF-8" standalone="no"?>
<!DOCTYPE svg PUBLIC "-//W3C//DTD SVG 1.1//EN"
 "http://www.w3.org/Graphics/SVG/1.1/DTD/svg11.dtd">
<!-- Generated by graphviz version 2.44.1 (20200629.0846)
 -->
<!-- Title: power_control_flowchart Pages: 1 -->
<!--zoomable 752 -->
<svg id="main" version="1.1" xmlns="http://www.w3.org/2000/svg" xmlns:xlink="http://www.w3.org/1999/xlink" xml:space="preserve" onload="init(evt)">
<style type="text/css"><![CDATA[
.edge:hover path { stroke: red; }
.edge:hover polygon { stroke: red; fill: red; }
]]></style>
<script type="text/javascript"><![CDATA[
var edges = document.getElementsByTagName('g');
if (edges && edges.length) {
  for (var i=0;i<edges.length;i++) {
    if (edges[i].id.substr(0,4)=='edge') {
      edges[i].setAttribute('class','edge');
    }
  }
}
]]></script>
        <defs>
                <circle id="rim" cx="0" cy="0" r="7"/>
                <circle id="rim2" cx="0" cy="0" r="3.5"/>
                <g id="zoomPlus">
                        <use xlink:href="#rim" fill="#404040">
                                <set attributeName="fill" to="#808080" begin="zoomplus.mouseover" end="zoomplus.mouseout"/>
                        </use>
                        <path d="M-4,0h8M0,-4v8" fill="none" stroke="white" stroke-width="1.5" pointer-events="none"/>
                </g>
                <g id="zoomMin">
                        <use xlink:href="#rim" fill="#404040">
                                <set attributeName="fill" to="#808080" begin="zoomminus.mouseover" end="zoomminus.mouseout"/>
                        </use>
                        <path d="M-4,0h8" fill="none" stroke="white" stroke-width="1.5" pointer-events="none"/>
                </g>
                <g id="dirArrow">
                        <path fill="none" stroke="white" stroke-width="1.5" d="M0,-3.0v7 M-2.5,-0.5L0,-3.0L2.5,-0.5"/>
                </g>
               <g id="resetDef">
                       <use xlink:href="#rim2" fill="#404040">
                               <set attributeName="fill" to="#808080" begin="reset.mouseover" end="reset.mouseout"/>
                       </use>
               </g>
        </defs>

<script type="text/javascript">
var viewWidth = 1017;
var viewHeight = 752;
</script>
<script xlink:href="svgpan.js"/>
<svg id="graph" class="graph">
<g id="viewport">
<title>power_control_flowchart</title>
<polygon fill="white" stroke="transparent" points="-4,4 -4,-748 1013.3,-748 1013.3,4 -4,4"/>
<g id="clust4" class="cluster">
<title>cluster1</title>
<polygon fill="none" stroke="black" points="537.8,-8 537.8,-622 741.8,-622 741.8,-8 537.8,-8"/>
<text text-anchor="middle" x="639.8" y="-606.8" font-family="Times New Roman,serif" font-size="14.00">Device Layer</text>
</g>
<g id="clust5" class="cluster">
<title>cluster10</title>
<polygon fill="none" stroke="black" points="545.8,-157 545.8,-591 733.8,-591 733.8,-157 545.8,-157"/>
<text text-anchor="middle" x="639.8" y="-575.8" font-family="Times New Roman,serif" font-size="14.00">Buck Converter State Machine</text>
</g>
<g id="clust6" class="cluster">
<title>cluster11</title>
<polygon fill="none" stroke="black" points="581.8,-16 581.8,-149 733.8,-149 733.8,-16 581.8,-16"/>
<text text-anchor="middle" x="657.8" y="-133.8" font-family="Times New Roman,serif" font-size="14.00">Buck Controller Control</text>
</g>
<g id="clust7" class="cluster">
<title>cluster2</title>
<polygon fill="none" stroke="black" points="749.8,-8 749.8,-599 929.8,-599 929.8,-8 749.8,-8"/>
<text text-anchor="middle" x="839.8" y="-583.8" font-family="Times New Roman,serif" font-size="14.00">my Driver Layer</text>
</g>
<g id="clust8" class="cluster">
<title>cluster20</title>
<polygon fill="none" stroke="black" points="757.8,-16 757.8,-126 847.8,-126 847.8,-16 757.8,-16"/>
</g>
<g id="clust2" class="cluster">
<title>cluster0</title>
<polygon fill="none" stroke="black" points="257.8,-16 257.8,-622 529.8,-622 529.8,-16 257.8,-16"/>
<text text-anchor="middle" x="393.8" y="-606.8" font-family="Times New Roman,serif" font-size="14.00">My Application Layer</text>
</g>
<g id="clust3" class="cluster">
<title>cluster00</title>
<polygon fill="none" stroke="black" points="265.8,-157 265.8,-591 521.8,-591 521.8,-157 265.8,-157"/>
<text text-anchor="middle" x="393.8" y="-575.8" font-family="Times New Roman,serif" font-size="14.00">Power Supply State Machine</text>
</g>
<g id="clust1" class="cluster">
<title>cluster_loop</title>
<polygon fill="none" stroke="black" points="79.8,-331 79.8,-697 249.8,-697 249.8,-331 79.8,-331"/>
<text text-anchor="middle" x="164.8" y="-681.8" font-family="Times New Roman,serif" font-size="14.00">main() loop</text>
</g>
<!-- call_PWR_SM -->
<g id="node1" class="node">
<title>call_PWR_SM</title>
<g id="a_node1"><a xlink:href="group__main-loop.html#ga13094235dd6cc123d9299925359ca178" target="_top" xlink:title="Call PWR State Machine">
<polygon fill="none" stroke="black" points="241.8,-666 109.8,-666 109.8,-630 241.8,-630 241.8,-666"/>
<text text-anchor="middle" x="175.8" y="-645.5" font-family="Consolas, 'Courier New', Courier, Sans-Serif" font-size="10.00">Call PWR State Machine</text>
</a>
</g>
</g>
<!-- FB_data -->
<g id="node4" class="node">
<title>FB_data</title>
<g id="a_node4"><a xlink:href="group__main-loop.html#ga13094235dd6cc123d9299925359ca178" target="_top" xlink:title="Publish FeedBack Data">
<polygon fill="none" stroke="black" points="434.3,-560 307.3,-560 307.3,-524 434.3,-524 434.3,-560"/>
<text text-anchor="middle" x="370.8" y="-539.5" font-family="Consolas, 'Courier New', Courier, Sans-Serif" font-size="10.00">Publish FeedBack Data</text>
</a>
</g>
</g>
<!-- call_PWR_SM&#45;&gt;FB_data -->
<g id="edge9" class="edge">
<title>call_PWR_SM&#45;&gt;FB_data</title>
<path fill="none" stroke="black" d="M226.32,-629.9C232.62,-627.49 238.91,-624.86 244.8,-622 259.78,-614.72 275.06,-605.74 289.58,-596.48"/>
<polygon fill="black" stroke="black" points="291.55,-599.37 298.03,-591 287.74,-593.5 291.55,-599.37"/>
</g>
<!-- call_PWR_SM&#45;&gt;FB_data -->
<!-- fault_test -->
<g id="node5" class="node">
<title>fault_test</title>
<polygon fill="none" stroke="black" points="422.3,-494 353.3,-494 353.3,-458 422.3,-458 422.3,-494"/>
<text text-anchor="middle" x="387.8" y="-473.5" font-family="Consolas, 'Courier New', Courier, Sans-Serif" font-size="10.00">Fault Test</text>
</g>
<!-- call_PWR_SM&#45;&gt;fault_test -->
<!-- Fault_detected -->
<g id="node25" class="node">
<title>Fault_detected</title>
<g id="a_node25"><a xlink:href="group__main-loop.html#ga8842f6a41fe23f932a8864fc140c4b5b" target="_top" xlink:title="{Call Fault Handler |{&lt;f0&gt; NO|&lt;f1&gt; Fault Detected?|&lt;f2&gt; YES}}">
<polygon fill="none" stroke="black" points="87.8,-339.5 87.8,-377.5 241.8,-377.5 241.8,-339.5 87.8,-339.5"/>
<text text-anchor="middle" x="164.8" y="-365.5" font-family="Consolas, 'Courier New', Courier, Sans-Serif" font-size="10.00">Call Fault Handler</text>
<polyline fill="none" stroke="black" points="87.8,-358.5 241.8,-358.5 "/>
<text text-anchor="middle" x="101.3" y="-346.5" font-family="Consolas, 'Courier New', Courier, Sans-Serif" font-size="10.00">NO</text>
<polyline fill="none" stroke="black" points="114.8,-339.5 114.8,-358.5 "/>
<text text-anchor="middle" x="162.3" y="-346.5" font-family="Consolas, 'Courier New', Courier, Sans-Serif" font-size="10.00">Fault Detected?</text>
<polyline fill="none" stroke="black" points="209.8,-339.5 209.8,-358.5 "/>
<text text-anchor="middle" x="225.8" y="-346.5" font-family="Consolas, 'Courier New', Courier, Sans-Serif" font-size="10.00">YES</text>
</a>
</g>
</g>
<!-- call_PWR_SM&#45;&gt;Fault_detected -->
<g id="edge4" class="edge">
<title>call_PWR_SM&#45;&gt;Fault_detected</title>
<path fill="none" stroke="black" d="M175.14,-629.88C173.31,-582.08 168.14,-446.86 165.88,-387.75"/>
<polygon fill="black" stroke="black" points="169.37,-387.49 165.49,-377.63 162.38,-387.76 169.37,-387.49"/>
</g>
<!-- Init -->
<g id="node2" class="node">
<title>Init</title>
<polygon fill="none" stroke="black" points="372.8,-376.5 318.8,-376.5 318.8,-340.5 372.8,-340.5 372.8,-376.5"/>
<text text-anchor="middle" x="345.8" y="-356" font-family="Consolas, 'Courier New', Courier, Sans-Serif" font-size="10.00">Init</text>
</g>
<!-- current_cal -->
<g id="node7" class="node">
<title>current_cal</title>
<g id="a_node7"><a xlink:href="group__power-handler-function.html#gab80ac65aae45f7f9d9fd4ef6f8c56111" target="_top" xlink:title="Current Calibration">
<polygon fill="none" stroke="black" points="389.8,-317 273.8,-317 273.8,-281 389.8,-281 389.8,-317"/>
<text text-anchor="middle" x="331.8" y="-296.5" font-family="Consolas, 'Courier New', Courier, Sans-Serif" font-size="10.00">Current Calibration</text>
</a>
</g>
</g>
<!-- Init&#45;&gt;current_cal -->
<g id="edge13" class="edge">
<title>Init&#45;&gt;current_cal</title>
<path fill="none" stroke="black" d="M341.6,-340.25C340.6,-336.15 339.51,-331.69 338.44,-327.27"/>
<polygon fill="black" stroke="black" points="341.76,-326.13 335.99,-317.24 334.96,-327.78 341.76,-326.13"/>
</g>
<!-- Run -->
<g id="node3" class="node">
<title>Run</title>
<polygon fill="none" stroke="black" points="472.8,-376.5 418.8,-376.5 418.8,-340.5 472.8,-340.5 472.8,-376.5"/>
<text text-anchor="middle" x="445.8" y="-356" font-family="Consolas, 'Courier New', Courier, Sans-Serif" font-size="10.00">Run</text>
</g>
<!-- current_bal -->
<g id="node8" class="node">
<title>current_bal</title>
<g id="a_node8"><a xlink:href="group__power-handler-function.html#ga213716a49f67b0e46a7fbb7665214e4f" target="_top" xlink:title="Current Balancing">
<polygon fill="none" stroke="black" points="513.8,-317 407.8,-317 407.8,-281 513.8,-281 513.8,-317"/>
<text text-anchor="middle" x="460.8" y="-296.5" font-family="Consolas, 'Courier New', Courier, Sans-Serif" font-size="10.00">Current Balancing</text>
</a>
</g>
</g>
<!-- Run&#45;&gt;current_bal -->
<g id="edge16" class="edge">
<title>Run&#45;&gt;current_bal</title>
<path fill="none" stroke="black" d="M450.3,-340.25C451.37,-336.15 452.53,-331.69 453.68,-327.27"/>
<polygon fill="black" stroke="black" points="457.16,-327.8 456.3,-317.24 450.39,-326.03 457.16,-327.8"/>
</g>
<!-- FB_data&#45;&gt;fault_test -->
<g id="edge10" class="edge">
<title>FB_data&#45;&gt;fault_test</title>
<path fill="none" stroke="black" d="M375.35,-523.85C376.95,-517.82 378.79,-510.89 380.56,-504.25"/>
<polygon fill="black" stroke="black" points="384.04,-504.76 383.23,-494.2 377.28,-502.96 384.04,-504.76"/>
</g>
<!-- State_machine -->
<g id="node14" class="node">
<title>State_machine</title>
<g id="a_node14"><a xlink:href="" target="_top" xlink:title="State Machine">
<polygon fill="none" stroke="black" points="655.3,-436 570.3,-436 570.3,-400 655.3,-400 655.3,-436"/>
<text text-anchor="middle" x="612.8" y="-415.5" font-family="Consolas, 'Courier New', Courier, Sans-Serif" font-size="10.00">State Machine</text>
</a>
</g>
</g>
<!-- FB_data&#45;&gt;State_machine -->
<!-- exec_State_Machine -->
<g id="node6" class="node">
<title>exec_State_Machine</title>
<g id="a_node6"><a xlink:href="group__power-handler-function.html#ga75498c59a10db0738113104a547d8d0d" target="_top" xlink:title="Execute State Machine">
<polygon fill="none" stroke="black" points="467.3,-436 340.3,-436 340.3,-400 467.3,-400 467.3,-436"/>
<text text-anchor="middle" x="403.8" y="-415.5" font-family="Consolas, 'Courier New', Courier, Sans-Serif" font-size="10.00">Execute State Machine</text>
</a>
</g>
</g>
<!-- fault_test&#45;&gt;exec_State_Machine -->
<g id="edge11" class="edge">
<title>fault_test&#45;&gt;exec_State_Machine</title>
<path fill="none" stroke="black" d="M392.68,-457.89C393.77,-454.09 394.95,-449.98 396.11,-445.89"/>
<polygon fill="black" stroke="black" points="399.56,-446.58 398.94,-436 392.83,-444.66 399.56,-446.58"/>
</g>
<!-- fault_test&#45;&gt;State_machine -->
<!-- exec_State_Machine&#45;&gt;Init -->
<g id="edge12" class="edge">
<title>exec_State_Machine&#45;&gt;Init</title>
<path fill="none" stroke="black" d="M386.4,-399.75C381.35,-394.74 375.74,-389.19 370.34,-383.83"/>
<polygon fill="black" stroke="black" points="372.75,-381.29 363.19,-376.74 367.82,-386.27 372.75,-381.29"/>
</g>
<!-- exec_State_Machine&#45;&gt;Run -->
<g id="edge15" class="edge">
<title>exec_State_Machine&#45;&gt;Run</title>
<path fill="none" stroke="black" d="M416.4,-399.75C419.8,-395.09 423.56,-389.94 427.22,-384.93"/>
<polygon fill="black" stroke="black" points="430.13,-386.88 433.2,-376.74 424.48,-382.75 430.13,-386.88"/>
</g>
<!-- exec_State_Machine&#45;&gt;State_machine -->
<g id="edge19" class="edge">
<title>exec_State_Machine&#45;&gt;State_machine</title>
<path fill="none" stroke="black" d="M467.48,-418C490.22,-418 512.96,-418 535.7,-418"/>
<polygon fill="black" stroke="black" points="535.8,-421.5 545.8,-418 535.8,-414.5 535.8,-421.5"/>
</g>
<!-- exit -->
<g id="node10" class="node">
<title>exit</title>
<polygon fill="none" stroke="black" points="408.8,-201 354.8,-201 354.8,-165 408.8,-165 408.8,-201"/>
<text text-anchor="middle" x="381.8" y="-180.5" font-family="Consolas, 'Courier New', Courier, Sans-Serif" font-size="10.00">Exit</text>
</g>
<!-- current_cal&#45;&gt;exit -->
<g id="edge14" class="edge">
<title>current_cal&#45;&gt;exit</title>
<path fill="none" stroke="black" d="M339.39,-280.69C347.59,-262 360.74,-232.01 370.23,-210.38"/>
<polygon fill="black" stroke="black" points="373.48,-211.67 374.3,-201.1 367.07,-208.86 373.48,-211.67"/>
</g>
<!-- reg_test -->
<g id="node9" class="node">
<title>reg_test</title>
<polygon fill="none" stroke="black" points="505.8,-259 373.8,-259 373.8,-223 505.8,-223 505.8,-259"/>
<text text-anchor="middle" x="439.8" y="-238.5" font-family="Consolas, 'Courier New', Courier, Sans-Serif" font-size="10.00">Regulation Test ON/OFF</text>
</g>
<!-- current_bal&#45;&gt;reg_test -->
<g id="edge17" class="edge">
<title>current_bal&#45;&gt;reg_test</title>
<path fill="none" stroke="black" d="M454.38,-280.89C452.92,-276.99 451.33,-272.74 449.75,-268.54"/>
<polygon fill="black" stroke="black" points="452.96,-267.14 446.17,-259 446.41,-269.59 452.96,-267.14"/>
</g>
<!-- reg_test&#45;&gt;exit -->
<g id="edge18" class="edge">
<title>reg_test&#45;&gt;exit</title>
<path fill="none" stroke="black" d="M422.08,-222.89C417.25,-218.23 411.92,-213.08 406.76,-208.1"/>
<polygon fill="black" stroke="black" points="409.03,-205.43 399.41,-201 404.17,-210.47 409.03,-205.43"/>
</g>
<!-- exit&#45;&gt;call_PWR_SM -->
<g id="edge20" class="edge">
<title>exit&#45;&gt;call_PWR_SM</title>
<path fill="none" stroke="black" d="M354.62,-187.65C276.99,-198.82 59.8,-235.66 59.8,-298 59.8,-477 59.8,-477 59.8,-477 59.8,-537.86 111.16,-593 145.53,-623.08"/>
<polygon fill="black" stroke="black" points="143.55,-626 153.43,-629.82 148.09,-620.67 143.55,-626"/>
</g>
<!-- PWR_suspend -->
<g id="node11" class="node">
<title>PWR_suspend</title>
<polygon fill="none" stroke="black" points="418.8,-118 344.8,-118 344.8,-82 418.8,-82 418.8,-118"/>
<text text-anchor="middle" x="381.8" y="-97.5" font-family="Consolas, 'Courier New', Courier, Sans-Serif" font-size="10.00">PWR Suspend</text>
</g>
<!-- exit&#45;&gt;PWR_suspend -->
<!-- exit1 -->
<g id="node15" class="node">
<title>exit1</title>
<polygon fill="none" stroke="black" points="623.8,-201 569.8,-201 569.8,-165 623.8,-165 623.8,-201"/>
<text text-anchor="middle" x="596.8" y="-180.5" font-family="Consolas, 'Courier New', Courier, Sans-Serif" font-size="10.00">Exit</text>
</g>
<!-- exit&#45;&gt;exit1 -->
<!-- PWR_resume -->
<g id="node12" class="node">
<title>PWR_resume</title>
<polygon fill="none" stroke="black" points="416.3,-60 347.3,-60 347.3,-24 416.3,-24 416.3,-60"/>
<text text-anchor="middle" x="381.8" y="-39.5" font-family="Consolas, 'Courier New', Courier, Sans-Serif" font-size="10.00">PWM Resume</text>
</g>
<!-- PWR_suspend&#45;&gt;PWR_resume -->
<!-- Buck_suspend -->
<g id="node16" class="node">
<title>Buck_suspend</title>
<polygon fill="none" stroke="black" points="669.8,-118 589.8,-118 589.8,-82 669.8,-82 669.8,-118"/>
<text text-anchor="middle" x="629.8" y="-97.5" font-family="Consolas, 'Courier New', Courier, Sans-Serif" font-size="10.00">Buck Suspend</text>
</g>
<!-- PWR_suspend&#45;&gt;Buck_suspend -->
<g id="edge6" class="edge">
<title>PWR_suspend&#45;&gt;Buck_suspend</title>
<path fill="none" stroke="black" d="M419.09,-100C472.45,-100 525.8,-100 579.15,-100"/>
<polygon fill="black" stroke="black" points="579.47,-103.5 589.47,-100 579.47,-96.5 579.47,-103.5"/>
</g>
<!-- enabled -->
<g id="node13" class="node">
<title>enabled</title>
<polygon fill="none" stroke="black" points="627.3,-560 568.3,-560 568.3,-524 627.3,-524 627.3,-560"/>
<text text-anchor="middle" x="597.8" y="-539.5" font-family="Consolas, 'Courier New', Courier, Sans-Serif" font-size="10.00">Enabled?</text>
</g>
<!-- PWR_resume&#45;&gt;enabled -->
<g id="edge24" class="edge">
<title>PWR_resume&#45;&gt;enabled</title>
<path fill="none" stroke="black" d="M416.51,-55.28C463.57,-74.42 541.8,-116.13 541.8,-182 541.8,-419 541.8,-419 541.8,-419 541.8,-425.4 542.44,-431.83 543.59,-438.21"/>
<polygon fill="black" stroke="black" points="540.22,-439.18 545.8,-448.19 547.06,-437.67 540.22,-439.18"/>
</g>
<!-- enabled&#45;&gt;State_machine -->
<g id="edge26" class="edge">
<title>enabled&#45;&gt;State_machine</title>
<path fill="none" stroke="black" d="M599.91,-523.78C602.39,-503.62 606.53,-469.96 609.45,-446.25"/>
<polygon fill="black" stroke="black" points="612.94,-446.49 610.69,-436.13 606,-445.63 612.94,-446.49"/>
</g>
<!-- State_machine&#45;&gt;exit1 -->
<g id="edge27" class="edge">
<title>State_machine&#45;&gt;exit1</title>
<path fill="none" stroke="black" d="M611.62,-399.87C608.87,-359.81 602,-259.75 598.67,-211.23"/>
<polygon fill="black" stroke="black" points="602.15,-210.89 597.98,-201.16 595.17,-211.37 602.15,-210.89"/>
</g>
<!-- NPNZ_control -->
<g id="node18" class="node">
<title>NPNZ_control</title>
<g id="a_node18"><a xlink:href="npnz16b_8h_source.html" target="_top" xlink:title="Independent NPNZ Real Time \nControl Driver/Library \n \nCycle&#45;by&#45;cycle PWM interrupt">
<polygon fill="none" stroke="black" points="921.8,-568 757.8,-568 757.8,-516 921.8,-516 921.8,-568"/>
<text text-anchor="middle" x="839.8" y="-556" font-family="Consolas, 'Courier New', Courier, Sans-Serif" font-size="10.00">Independent NPNZ Real Time </text>
<text text-anchor="middle" x="839.8" y="-545" font-family="Consolas, 'Courier New', Courier, Sans-Serif" font-size="10.00">Control Driver/Library </text>
<text text-anchor="middle" x="839.8" y="-534" font-family="Consolas, 'Courier New', Courier, Sans-Serif" font-size="10.00"> </text>
<text text-anchor="middle" x="839.8" y="-523" font-family="Consolas, 'Courier New', Courier, Sans-Serif" font-size="10.00">Cycle&#45;by&#45;cycle PWM interrupt</text>
</a>
</g>
</g>
<!-- State_machine&#45;&gt;NPNZ_control -->
<!-- Buck_suspend&#45;&gt;State_machine -->
<g id="edge21" class="edge">
<title>Buck_suspend&#45;&gt;State_machine</title>
<path fill="none" stroke="black" d="M632.43,-118.07C636.23,-144.24 642.8,-195.89 642.8,-240 642.8,-300 642.8,-300 642.8,-300 642.8,-331.78 632.28,-366.95 623.7,-390.34"/>
<polygon fill="black" stroke="black" points="620.35,-389.32 620.06,-399.91 626.89,-391.81 620.35,-389.32"/>
</g>
<!-- Suspend_PWM -->
<g id="node19" class="node">
<title>Suspend_PWM</title>
<polygon fill="none" stroke="black" points="839.8,-118 765.8,-118 765.8,-82 839.8,-82 839.8,-118"/>
<text text-anchor="middle" x="802.8" y="-97.5" font-family="Consolas, 'Courier New', Courier, Sans-Serif" font-size="10.00">Suspend PWM</text>
</g>
<!-- Buck_suspend&#45;&gt;Suspend_PWM -->
<g id="edge7" class="edge">
<title>Buck_suspend&#45;&gt;Suspend_PWM</title>
<path fill="none" stroke="black" d="M670.01,-100C698.54,-100 727.08,-100 755.62,-100"/>
<polygon fill="black" stroke="black" points="755.71,-103.5 765.71,-100 755.71,-96.5 755.71,-103.5"/>
</g>
<!-- Buck_resume -->
<g id="node17" class="node">
<title>Buck_resume</title>
<polygon fill="none" stroke="black" points="725.8,-60 651.8,-60 651.8,-24 725.8,-24 725.8,-60"/>
<text text-anchor="middle" x="688.8" y="-39.5" font-family="Consolas, 'Courier New', Courier, Sans-Serif" font-size="10.00">Buck Resume</text>
</g>
<!-- Buck_resume&#45;&gt;State_machine -->
<g id="edge22" class="edge">
<title>Buck_resume&#45;&gt;State_machine</title>
<path fill="none" stroke="black" d="M688.8,-60.12C688.8,-86.35 688.8,-138.08 688.8,-182 688.8,-300 688.8,-300 688.8,-300 688.8,-336.62 662.29,-370.79 640.59,-392.63"/>
<polygon fill="black" stroke="black" points="637.91,-390.36 633.16,-399.83 642.78,-395.38 637.91,-390.36"/>
</g>
<!-- Resume_PWM -->
<g id="node20" class="node">
<title>Resume_PWM</title>
<polygon fill="none" stroke="black" points="835.3,-60 766.3,-60 766.3,-24 835.3,-24 835.3,-60"/>
<text text-anchor="middle" x="800.8" y="-39.5" font-family="Consolas, 'Courier New', Courier, Sans-Serif" font-size="10.00">Resume PWM</text>
</g>
<!-- Buck_resume&#45;&gt;Resume_PWM -->
<g id="edge25" class="edge">
<title>Buck_resume&#45;&gt;Resume_PWM</title>
<path fill="none" stroke="black" d="M725.98,-42C735.99,-42 746,-42 756.01,-42"/>
<polygon fill="black" stroke="black" points="756.02,-45.5 766.02,-42 756.02,-38.5 756.02,-45.5"/>
</g>
<!-- PWM -->
<g id="node21" class="node">
<title>PWM</title>
<polygon fill="none" stroke="black" points="1001.8,-436 947.8,-436 947.8,-400 1001.8,-400 1001.8,-436"/>
<text text-anchor="middle" x="974.8" y="-415.5" font-family="Consolas, 'Courier New', Courier, Sans-Serif" font-size="10.00">PWM</text>
</g>
<!-- ADC -->
<g id="node22" class="node">
<title>ADC</title>
<polygon fill="none" stroke="black" points="1001.8,-494 947.8,-494 947.8,-458 1001.8,-458 1001.8,-494"/>
<text text-anchor="middle" x="974.8" y="-473.5" font-family="Consolas, 'Courier New', Courier, Sans-Serif" font-size="10.00">ADC</text>
</g>
<!-- ADC&#45;&gt;PWM -->
<!-- cNPNZ -->
<g id="node23" class="node">
<title>cNPNZ</title>
<polygon fill="none" stroke="black" points="1009.3,-560 940.3,-560 940.3,-524 1009.3,-524 1009.3,-560"/>
<text text-anchor="middle" x="974.8" y="-539.5" font-family="Consolas, 'Courier New', Courier, Sans-Serif" font-size="10.00">cNPNZ16b_t</text>
</g>
<!-- cNPNZ&#45;&gt;ADC -->
<!-- Success -->
<g id="node24" class="node">
<title>Success</title>
<polygon fill="none" stroke="black" points="22.3,-705.5 22.3,-743.5 155.3,-743.5 155.3,-705.5 22.3,-705.5"/>
<text text-anchor="middle" x="88.8" y="-731.5" font-family="Consolas, 'Courier New', Courier, Sans-Serif" font-size="10.00">Main Function</text>
<polyline fill="none" stroke="black" points="22.3,-724.5 155.3,-724.5 "/>
<text text-anchor="middle" x="35.8" y="-712.5" font-family="Consolas, 'Courier New', Courier, Sans-Serif" font-size="10.00">NO</text>
<polyline fill="none" stroke="black" points="49.3,-705.5 49.3,-724.5 "/>
<text text-anchor="middle" x="86.3" y="-712.5" font-family="Consolas, 'Courier New', Courier, Sans-Serif" font-size="10.00">Successful?</text>
<polyline fill="none" stroke="black" points="123.3,-705.5 123.3,-724.5 "/>
<text text-anchor="middle" x="139.3" y="-712.5" font-family="Consolas, 'Courier New', Courier, Sans-Serif" font-size="10.00">YES</text>
</g>
<!-- Success&#45;&gt;call_PWR_SM -->
<g id="edge3" class="edge">
<title>Success:f2&#45;&gt;call_PWR_SM</title>
<path fill="none" stroke="black" d="M139.8,-705C139.8,-693.96 144.81,-683.37 151.09,-674.42"/>
<polygon fill="black" stroke="black" points="153.97,-676.42 157.38,-666.39 148.46,-672.11 153.97,-676.42"/>
</g>
<!-- Reset -->
<g id="node26" class="node">
<title>Reset</title>
<polygon fill="none" stroke="black" points="35.8,-666 0.2,-648 35.8,-630 71.39,-648 35.8,-666"/>
<text text-anchor="middle" x="35.8" y="-645.5" font-family="Consolas, 'Courier New', Courier, Sans-Serif" font-size="10.00">Reset</text>
</g>
<!-- Success&#45;&gt;Reset -->
<g id="edge2" class="edge">
<title>Success:f0&#45;&gt;Reset</title>
<path fill="none" stroke="black" d="M35.8,-705C32.02,-694.55 29.82,-682.99 29.22,-673.11"/>
<polygon fill="black" stroke="black" points="32.72,-672.81 29.21,-662.81 25.72,-672.81 32.72,-672.81"/>
</g>
<!-- Fault_detected&#45;&gt;call_PWR_SM -->
<g id="edge8" class="edge">
<title>Fault_detected:f0&#45;&gt;call_PWR_SM</title>
<path fill="none" stroke="black" d="M86.8,-348.5C58.58,-348.5 135.51,-546.86 164.91,-620.18"/>
<polygon fill="black" stroke="black" points="161.74,-621.69 168.73,-629.66 168.24,-619.08 161.74,-621.69"/>
</g>
<!-- Fault_detected&#45;&gt;current_cal -->
<!-- Fault_detected&#45;&gt;PWR_suspend -->
<g id="edge5" class="edge">
<title>Fault_detected:f2&#45;&gt;PWR_suspend</title>
<path fill="none" stroke="black" d="M225.8,-338.5C225.8,-256.26 211.05,-221.72 261.8,-157 279.83,-134 309.55,-120.03 334.89,-111.8"/>
<polygon fill="black" stroke="black" points="336.17,-115.07 344.72,-108.82 334.13,-108.37 336.17,-115.07"/>
</g>
<!-- Fault_detected&#45;&gt;PWR_resume -->
<g id="edge23" class="edge">
<title>Fault_detected:f0&#45;&gt;PWR_resume</title>
<path fill="none" stroke="black" d="M86.8,-348.5C31.34,-348.5 21.8,-297.45 21.8,-242 21.8,-242 21.8,-242 21.8,-182 21.8,-115.1 240.91,-67.98 337.25,-50.5"/>
<polygon fill="black" stroke="black" points="338.05,-53.91 347.28,-48.71 336.82,-47.02 338.05,-53.91"/>
</g>
<!-- Reset&#45;&gt;Success -->
<g id="edge1" class="edge">
<title>Reset&#45;&gt;Success</title>
<path fill="none" stroke="black" d="M42.38,-662.71C43.02,-671.51 41.85,-683.43 38.85,-695.07"/>
<polygon fill="black" stroke="black" points="35.48,-694.12 35.9,-704.71 42.17,-696.17 35.48,-694.12"/>
</g>
<!-- &#45; -->
<g id="node27" class="node">
<title>&#45;</title>
<polygon fill="none" stroke="black" points="200.8,-742.5 173.8,-724.5 200.8,-706.5 227.8,-724.5 200.8,-742.5"/>
<text text-anchor="middle" x="200.8" y="-722" font-family="Consolas, 'Courier New', Courier, Sans-Serif" font-size="10.00">&#45;</text>
</g>
</g>
</svg>
        <g id="navigator" transform="translate(0 0)" fill="#404254">
                <rect fill="#f2f5e9" fill-opacity="0.5" stroke="#606060" stroke-width=".5" x="0" y="0" width="60" height="60"/>
                <use id="zoomplus" xlink:href="#zoomPlus" x="17" y="9" onmousedown="handleZoom(evt,'in')"/>
                <use id="zoomminus" xlink:href="#zoomMin" x="42" y="9" onmousedown="handleZoom(evt,'out')"/>
                <use id="reset" xlink:href="#resetDef" x="30" y="36" onmousedown="handleReset()"/>
                <g id="arrowUp" xlink:href="#dirArrow" transform="translate(30 24)" onmousedown="handlePan(0,-1)">
                  <use xlink:href="#rim" fill="#404040">
                        <set attributeName="fill" to="#808080" begin="arrowUp.mouseover" end="arrowUp.mouseout"/>
                  </use>
                  <path fill="none" stroke="white" stroke-width="1.5" d="M0,-3.0v7 M-2.5,-0.5L0,-3.0L2.5,-0.5"/>
                </g>
                <g id="arrowRight" xlink:href="#dirArrow" transform="rotate(90) translate(36 -43)" onmousedown="handlePan(1,0)">
                  <use xlink:href="#rim" fill="#404040">
                        <set attributeName="fill" to="#808080" begin="arrowRight.mouseover" end="arrowRight.mouseout"/>
                  </use>
                  <path fill="none" stroke="white" stroke-width="1.5" d="M0,-3.0v7 M-2.5,-0.5L0,-3.0L2.5,-0.5"/>
                </g>
                <g id="arrowDown" xlink:href="#dirArrow" transform="rotate(180) translate(-30 -48)" onmousedown="handlePan(0,1)">
                  <use xlink:href="#rim" fill="#404040">
                        <set attributeName="fill" to="#808080" begin="arrowDown.mouseover" end="arrowDown.mouseout"/>
                  </use>
                  <path fill="none" stroke="white" stroke-width="1.5" d="M0,-3.0v7 M-2.5,-0.5L0,-3.0L2.5,-0.5"/>
                </g>
                <g id="arrowLeft" xlink:href="#dirArrow" transform="rotate(270) translate(-36 17)" onmousedown="handlePan(-1,0)">
                  <use xlink:href="#rim" fill="#404040">
                        <set attributeName="fill" to="#808080" begin="arrowLeft.mouseover" end="arrowLeft.mouseout"/>
                  </use>
                  <path fill="none" stroke="white" stroke-width="1.5" d="M0,-3.0v7 M-2.5,-0.5L0,-3.0L2.5,-0.5"/>
                </g>
        </g>
        <svg viewBox="0 0 15 15" width="100%" height="30px" preserveAspectRatio="xMaxYMin meet">
         <g id="arrow_out" transform="scale(0.3 0.3)">
          <a xlink:href="dot_flowchart_org.svg" target="_base">
           <rect id="button" ry="5" rx="5" y="6" x="6" height="38" width="38"
                fill="#f2f5e9" fill-opacity="0.5" stroke="#606060" stroke-width="1.0"/>
           <path id="arrow"
             d="M 11.500037,31.436501 C 11.940474,20.09759 22.043105,11.32322 32.158766,21.979434 L 37.068811,17.246167 C 37.068811,17.246167 37.088388,32 37.088388,32 L 22.160133,31.978069 C 22.160133,31.978069 26.997745,27.140456 26.997745,27.140456 C 18.528582,18.264221 13.291696,25.230495 11.500037,31.436501 z"
             style="fill:#404040;"/>
          </a>
         </g>
        </svg>
</svg>
