<?xml version="1.0" encoding="UTF-8" standalone="no"?>
<!DOCTYPE svg PUBLIC "-//W3C//DTD SVG 1.1//EN"
 "http://www.w3.org/Graphics/SVG/1.1/DTD/svg11.dtd">
<!-- Generated by graphviz version 2.44.1 (20200629.0846)
 -->
<!-- Title: power_control_flowchart Pages: 1 -->
<svg width="1043pt" height="850pt"
 viewBox="0.00 0.00 1043.30 850.00" xmlns="http://www.w3.org/2000/svg" xmlns:xlink="http://www.w3.org/1999/xlink">
<g id="graph0" class="graph" transform="scale(1 1) rotate(0) translate(4 846)">
<title>power_control_flowchart</title>
<polygon fill="white" stroke="transparent" points="-4,4 -4,-846 1039.3,-846 1039.3,4 -4,4"/>
<g id="clust7" class="cluster">
<title>cluster2</title>
<polygon fill="none" stroke="black" points="775.8,-8 775.8,-697 955.8,-697 955.8,-8 775.8,-8"/>
<text text-anchor="middle" x="865.8" y="-681.8" font-family="Times New Roman,serif" font-size="14.00">my Driver Layer</text>
</g>
<g id="clust8" class="cluster">
<title>cluster20</title>
<polygon fill="none" stroke="black" points="783.8,-16 783.8,-140 873.8,-140 873.8,-16 783.8,-16"/>
</g>
<g id="clust1" class="cluster">
<title>cluster_loop</title>
<polygon fill="none" stroke="black" points="79.8,-171 79.8,-795 249.8,-795 249.8,-171 79.8,-171"/>
<text text-anchor="middle" x="164.8" y="-779.8" font-family="Times New Roman,serif" font-size="14.00">main() loop</text>
</g>
<g id="clust2" class="cluster">
<title>cluster0</title>
<polygon fill="none" stroke="black" points="257.8,-16 257.8,-720 555.8,-720 555.8,-16 257.8,-16"/>
<text text-anchor="middle" x="406.8" y="-704.8" font-family="Times New Roman,serif" font-size="14.00">Application Layer</text>
</g>
<g id="clust3" class="cluster">
<title>cluster00</title>
<polygon fill="none" stroke="black" points="265.8,-172.5 265.8,-689 547.8,-689 547.8,-172.5 265.8,-172.5"/>
<text text-anchor="middle" x="406.8" y="-673.8" font-family="Times New Roman,serif" font-size="14.00">Power Supply State Machine</text>
</g>
<g id="clust4" class="cluster">
<title>cluster1</title>
<polygon fill="none" stroke="black" points="563.8,-8 563.8,-720 767.8,-720 767.8,-8 563.8,-8"/>
<text text-anchor="middle" x="665.8" y="-704.8" font-family="Times New Roman,serif" font-size="14.00">Device Layer</text>
</g>
<g id="clust6" class="cluster">
<title>cluster11</title>
<polygon fill="none" stroke="black" points="607.8,-16 607.8,-163 759.8,-163 759.8,-16 607.8,-16"/>
<text text-anchor="middle" x="683.8" y="-147.8" font-family="Times New Roman,serif" font-size="14.00">Buck Controller Control</text>
</g>
<g id="clust5" class="cluster">
<title>cluster10</title>
<polygon fill="none" stroke="black" points="571.8,-172.5 571.8,-689 759.8,-689 759.8,-172.5 571.8,-172.5"/>
<text text-anchor="middle" x="665.8" y="-673.8" font-family="Times New Roman,serif" font-size="14.00">Buck Converter State Machine</text>
</g>
<!-- call_PWR_SM -->
<g id="node1" class="node">
<title>call_PWR_SM</title>
<g id="a_node1"><a xlink:href="group__power-control-app-layer-public.html#ga13094235dd6cc123d9299925359ca178" target="_top" xlink:title="Call PWR State Machine">
<polygon fill="none" stroke="black" points="238.8,-764 106.8,-764 106.8,-728 238.8,-728 238.8,-764"/>
<text text-anchor="middle" x="172.8" y="-743.5" font-family="Consolas, 'Courier New', Courier, Sans-Serif" font-size="10.00">Call PWR State Machine</text>
</a>
</g>
</g>
<!-- FB_data -->
<g id="node4" class="node">
<title>FB_data</title>
<g id="a_node4"><a xlink:href="group__power-control-app-layer-public.html#ga13094235dd6cc123d9299925359ca178" target="_top" xlink:title="Publish FeedBack Data">
<polygon fill="none" stroke="black" points="434.3,-658 307.3,-658 307.3,-622 434.3,-622 434.3,-658"/>
<text text-anchor="middle" x="370.8" y="-637.5" font-family="Consolas, 'Courier New', Courier, Sans-Serif" font-size="10.00">Publish FeedBack Data</text>
</a>
</g>
</g>
<!-- call_PWR_SM&#45;&gt;FB_data -->
<g id="edge9" class="edge">
<title>call_PWR_SM&#45;&gt;FB_data</title>
<path fill="none" stroke="black" d="M238.85,-755C303.38,-755 391.96,-755 391.96,-755 391.96,-755 391.96,-744.15 391.96,-730.12"/>
<polygon fill="black" stroke="black" points="395.46,-730 391.96,-720 388.46,-730 395.46,-730"/>
</g>
<!-- call_PWR_SM&#45;&gt;FB_data -->
<!-- fault_test -->
<g id="node5" class="node">
<title>fault_test</title>
<polygon fill="none" stroke="black" points="430.3,-578 361.3,-578 361.3,-542 430.3,-542 430.3,-578"/>
<text text-anchor="middle" x="395.8" y="-557.5" font-family="Consolas, 'Courier New', Courier, Sans-Serif" font-size="10.00">Fault Test</text>
</g>
<!-- call_PWR_SM&#45;&gt;fault_test -->
<!-- Fault_detected -->
<g id="node25" class="node">
<title>Fault_detected</title>
<g id="a_node25"><a xlink:href="group__fault-handler-functions.html#ga8842f6a41fe23f932a8864fc140c4b5b" target="_top" xlink:title="{Call Fault Handler |{&lt;f0&gt; NO|&lt;f1&gt; Fault Detected?|&lt;f2&gt; YES}}">
<polygon fill="none" stroke="black" points="87.8,-179.5 87.8,-217.5 241.8,-217.5 241.8,-179.5 87.8,-179.5"/>
<text text-anchor="middle" x="164.8" y="-205.5" font-family="Consolas, 'Courier New', Courier, Sans-Serif" font-size="10.00">Call Fault Handler</text>
<polyline fill="none" stroke="black" points="87.8,-198.5 241.8,-198.5 "/>
<text text-anchor="middle" x="101.3" y="-186.5" font-family="Consolas, 'Courier New', Courier, Sans-Serif" font-size="10.00">NO</text>
<polyline fill="none" stroke="black" points="114.8,-179.5 114.8,-198.5 "/>
<text text-anchor="middle" x="162.3" y="-186.5" font-family="Consolas, 'Courier New', Courier, Sans-Serif" font-size="10.00">Fault Detected?</text>
<polyline fill="none" stroke="black" points="209.8,-179.5 209.8,-198.5 "/>
<text text-anchor="middle" x="225.8" y="-186.5" font-family="Consolas, 'Courier New', Courier, Sans-Serif" font-size="10.00">YES</text>
</a>
</g>
</g>
<!-- call_PWR_SM&#45;&gt;Fault_detected -->
<g id="edge4" class="edge">
<title>call_PWR_SM&#45;&gt;Fault_detected</title>
<path fill="none" stroke="black" d="M172.8,-727.78C172.8,-727.78 172.8,-227.63 172.8,-227.63"/>
<polygon fill="black" stroke="black" points="176.3,-227.63 172.8,-217.63 169.3,-227.63 176.3,-227.63"/>
</g>
<!-- Init -->
<g id="node2" class="node">
<title>Init</title>
<polygon fill="none" stroke="black" points="392.8,-434 338.8,-434 338.8,-398 392.8,-398 392.8,-434"/>
<text text-anchor="middle" x="365.8" y="-413.5" font-family="Consolas, 'Courier New', Courier, Sans-Serif" font-size="10.00">Init</text>
</g>
<!-- current_cal -->
<g id="node7" class="node">
<title>current_cal</title>
<g id="a_node7"><a xlink:href="group__power-control-app-layer-private.html#gab80ac65aae45f7f9d9fd4ef6f8c56111" target="_top" xlink:title="Current Calibration">
<polygon fill="none" stroke="black" points="389.8,-290 273.8,-290 273.8,-254 389.8,-254 389.8,-290"/>
<text text-anchor="middle" x="331.8" y="-269.5" font-family="Consolas, 'Courier New', Courier, Sans-Serif" font-size="10.00">Current Calibration</text>
</a>
</g>
</g>
<!-- Init&#45;&gt;current_cal -->
<g id="edge13" class="edge">
<title>Init&#45;&gt;current_cal</title>
<path fill="none" stroke="black" d="M364.3,-397.76C364.3,-397.76 364.3,-300.09 364.3,-300.09"/>
<polygon fill="black" stroke="black" points="367.8,-300.09 364.3,-290.09 360.8,-300.09 367.8,-300.09"/>
</g>
<!-- Run -->
<g id="node3" class="node">
<title>Run</title>
<polygon fill="none" stroke="black" points="464.8,-434 410.8,-434 410.8,-398 464.8,-398 464.8,-434"/>
<text text-anchor="middle" x="437.8" y="-413.5" font-family="Consolas, 'Courier New', Courier, Sans-Serif" font-size="10.00">Run</text>
</g>
<!-- current_bal -->
<g id="node8" class="node">
<title>current_bal</title>
<g id="a_node8"><a xlink:href="group__power-control-app-layer-private.html#ga213716a49f67b0e46a7fbb7665214e4f" target="_top" xlink:title="Current Balancing">
<polygon fill="none" stroke="black" points="508.8,-362 402.8,-362 402.8,-326 508.8,-326 508.8,-362"/>
<text text-anchor="middle" x="455.8" y="-341.5" font-family="Consolas, 'Courier New', Courier, Sans-Serif" font-size="10.00">Current Balancing</text>
</a>
</g>
</g>
<!-- Run&#45;&gt;current_bal -->
<g id="edge16" class="edge">
<title>Run&#45;&gt;current_bal</title>
<path fill="none" stroke="black" d="M437.8,-397.83C437.8,-397.83 437.8,-372.41 437.8,-372.41"/>
<polygon fill="black" stroke="black" points="441.3,-372.41 437.8,-362.41 434.3,-372.41 441.3,-372.41"/>
</g>
<!-- FB_data&#45;&gt;fault_test -->
<g id="edge10" class="edge">
<title>FB_data&#45;&gt;fault_test</title>
<path fill="none" stroke="black" d="M395.8,-621.85C395.8,-621.85 395.8,-588.08 395.8,-588.08"/>
<polygon fill="black" stroke="black" points="399.3,-588.08 395.8,-578.08 392.3,-588.08 399.3,-588.08"/>
</g>
<!-- enabled -->
<g id="node13" class="node">
<title>enabled</title>
<polygon fill="none" stroke="black" points="639.3,-658 580.3,-658 580.3,-622 639.3,-622 639.3,-658"/>
<text text-anchor="middle" x="609.8" y="-637.5" font-family="Consolas, 'Courier New', Courier, Sans-Serif" font-size="10.00">Enabled?</text>
</g>
<!-- FB_data&#45;&gt;enabled -->
<!-- exec_State_Machine -->
<g id="node6" class="node">
<title>exec_State_Machine</title>
<g id="a_node6"><a xlink:href="group__power-handler-functions.html#ga75498c59a10db0738113104a547d8d0d" target="_top" xlink:title="Execute State Machine">
<polygon fill="none" stroke="black" points="475.3,-506 348.3,-506 348.3,-470 475.3,-470 475.3,-506"/>
<text text-anchor="middle" x="411.8" y="-485.5" font-family="Consolas, 'Courier New', Courier, Sans-Serif" font-size="10.00">Execute State Machine</text>
</a>
</g>
</g>
<!-- fault_test&#45;&gt;exec_State_Machine -->
<g id="edge11" class="edge">
<title>fault_test&#45;&gt;exec_State_Machine</title>
<path fill="none" stroke="black" d="M395.8,-541.83C395.8,-541.83 395.8,-516.41 395.8,-516.41"/>
<polygon fill="black" stroke="black" points="399.3,-516.41 395.8,-506.41 392.3,-516.41 399.3,-516.41"/>
</g>
<!-- State_machine -->
<g id="node14" class="node">
<title>State_machine</title>
<g id="a_node14"><a xlink:href="" target="_top" xlink:title="State Machine">
<polygon fill="none" stroke="black" points="681.3,-506 596.3,-506 596.3,-470 681.3,-470 681.3,-506"/>
<text text-anchor="middle" x="638.8" y="-485.5" font-family="Consolas, 'Courier New', Courier, Sans-Serif" font-size="10.00">State Machine</text>
</a>
</g>
</g>
<!-- fault_test&#45;&gt;State_machine -->
<!-- exec_State_Machine&#45;&gt;Init -->
<g id="edge12" class="edge">
<title>exec_State_Machine&#45;&gt;Init</title>
<path fill="none" stroke="black" d="M370.55,-469.83C370.55,-469.83 370.55,-444.41 370.55,-444.41"/>
<polygon fill="black" stroke="black" points="374.05,-444.41 370.55,-434.41 367.05,-444.41 374.05,-444.41"/>
</g>
<!-- exec_State_Machine&#45;&gt;Run -->
<g id="edge15" class="edge">
<title>exec_State_Machine&#45;&gt;Run</title>
<path fill="none" stroke="black" d="M437.8,-469.83C437.8,-469.83 437.8,-444.41 437.8,-444.41"/>
<polygon fill="black" stroke="black" points="441.3,-444.41 437.8,-434.41 434.3,-444.41 441.3,-444.41"/>
</g>
<!-- exec_State_Machine&#45;&gt;State_machine -->
<g id="edge19" class="edge">
<title>exec_State_Machine&#45;&gt;State_machine</title>
<path fill="none" stroke="black" d="M475.33,-488C475.33,-488 529.03,-488 561.65,-488"/>
<polygon fill="black" stroke="black" points="561.8,-491.5 571.8,-488 561.8,-484.5 561.8,-491.5"/>
</g>
<!-- exit -->
<g id="node10" class="node">
<title>exit</title>
<polygon fill="none" stroke="black" points="429.8,-216.5 375.8,-216.5 375.8,-180.5 429.8,-180.5 429.8,-216.5"/>
<text text-anchor="middle" x="402.8" y="-196" font-family="Consolas, 'Courier New', Courier, Sans-Serif" font-size="10.00">Exit</text>
</g>
<!-- current_cal&#45;&gt;exit -->
<g id="edge14" class="edge">
<title>current_cal&#45;&gt;exit</title>
<path fill="none" stroke="black" d="M382.8,-253.83C382.8,-253.83 382.8,-226.71 382.8,-226.71"/>
<polygon fill="black" stroke="black" points="386.3,-226.71 382.8,-216.71 379.3,-226.71 386.3,-226.71"/>
</g>
<!-- reg_test -->
<g id="node9" class="node">
<title>reg_test</title>
<polygon fill="none" stroke="black" points="539.8,-290 407.8,-290 407.8,-254 539.8,-254 539.8,-290"/>
<text text-anchor="middle" x="473.8" y="-269.5" font-family="Consolas, 'Courier New', Courier, Sans-Serif" font-size="10.00">Regulation Test ON/OFF</text>
</g>
<!-- current_bal&#45;&gt;reg_test -->
<g id="edge17" class="edge">
<title>current_bal&#45;&gt;reg_test</title>
<path fill="none" stroke="black" d="M458.3,-325.83C458.3,-325.83 458.3,-300.41 458.3,-300.41"/>
<polygon fill="black" stroke="black" points="461.8,-300.41 458.3,-290.41 454.8,-300.41 461.8,-300.41"/>
</g>
<!-- reg_test&#45;&gt;exit -->
<g id="edge18" class="edge">
<title>reg_test&#45;&gt;exit</title>
<path fill="none" stroke="black" d="M418.8,-253.83C418.8,-253.83 418.8,-226.71 418.8,-226.71"/>
<polygon fill="black" stroke="black" points="422.3,-226.71 418.8,-216.71 415.3,-226.71 422.3,-226.71"/>
</g>
<!-- exit&#45;&gt;call_PWR_SM -->
<g id="edge20" class="edge">
<title>exit&#45;&gt;call_PWR_SM</title>
<path fill="none" stroke="black" d="M375.52,-204C333.52,-204 257.8,-204 257.8,-204 257.8,-204 257.8,-737 257.8,-737 257.8,-737 248.93,-737 248.93,-737"/>
<polygon fill="black" stroke="black" points="248.93,-733.5 238.93,-737 248.93,-740.5 248.93,-733.5"/>
</g>
<!-- PWR_suspend -->
<g id="node11" class="node">
<title>PWR_suspend</title>
<polygon fill="none" stroke="black" points="439.8,-132 365.8,-132 365.8,-96 439.8,-96 439.8,-132"/>
<text text-anchor="middle" x="402.8" y="-111.5" font-family="Consolas, 'Courier New', Courier, Sans-Serif" font-size="10.00">PWR Suspend</text>
</g>
<!-- exit&#45;&gt;PWR_suspend -->
<!-- exit1 -->
<g id="node15" class="node">
<title>exit1</title>
<polygon fill="none" stroke="black" points="649.8,-216.5 595.8,-216.5 595.8,-180.5 649.8,-180.5 649.8,-216.5"/>
<text text-anchor="middle" x="622.8" y="-196" font-family="Consolas, 'Courier New', Courier, Sans-Serif" font-size="10.00">Exit</text>
</g>
<!-- exit&#45;&gt;exit1 -->
<!-- PWR_resume -->
<g id="node12" class="node">
<title>PWR_resume</title>
<polygon fill="none" stroke="black" points="437.3,-60 368.3,-60 368.3,-24 437.3,-24 437.3,-60"/>
<text text-anchor="middle" x="402.8" y="-39.5" font-family="Consolas, 'Courier New', Courier, Sans-Serif" font-size="10.00">PWM Resume</text>
</g>
<!-- PWR_suspend&#45;&gt;PWR_resume -->
<!-- Buck_suspend -->
<g id="node16" class="node">
<title>Buck_suspend</title>
<polygon fill="none" stroke="black" points="695.8,-132 615.8,-132 615.8,-96 695.8,-96 695.8,-132"/>
<text text-anchor="middle" x="655.8" y="-111.5" font-family="Consolas, 'Courier New', Courier, Sans-Serif" font-size="10.00">Buck Suspend</text>
</g>
<!-- PWR_suspend&#45;&gt;Buck_suspend -->
<g id="edge6" class="edge">
<title>PWR_suspend&#45;&gt;Buck_suspend</title>
<path fill="none" stroke="black" d="M439.86,-114C439.86,-114 605.71,-114 605.71,-114"/>
<polygon fill="black" stroke="black" points="605.71,-117.5 615.71,-114 605.71,-110.5 605.71,-117.5"/>
</g>
<!-- PWR_resume&#45;&gt;enabled -->
<g id="edge24" class="edge">
<title>PWR_resume&#45;&gt;enabled</title>
<path fill="none" stroke="black" d="M437.64,-42C491.3,-42 588.05,-42 588.05,-42 588.05,-42 588.05,-92.03 588.05,-162.43"/>
<polygon fill="black" stroke="black" points="584.55,-162.5 588.05,-172.5 591.55,-162.5 584.55,-162.5"/>
</g>
<!-- enabled&#45;&gt;State_machine -->
<g id="edge26" class="edge">
<title>enabled&#45;&gt;State_machine</title>
<path fill="none" stroke="black" d="M624.96,-621.97C624.96,-621.97 624.96,-516.01 624.96,-516.01"/>
<polygon fill="black" stroke="black" points="628.46,-516.01 624.96,-506.01 621.46,-516.01 628.46,-516.01"/>
</g>
<!-- State_machine&#45;&gt;exit1 -->
<g id="edge27" class="edge">
<title>State_machine&#45;&gt;exit1</title>
<path fill="none" stroke="black" d="M623.05,-469.89C623.05,-469.89 623.05,-226.6 623.05,-226.6"/>
<polygon fill="black" stroke="black" points="626.55,-226.6 623.05,-216.6 619.55,-226.6 626.55,-226.6"/>
</g>
<!-- NPNZ_control -->
<g id="node18" class="node">
<title>NPNZ_control</title>
<g id="a_node18"><a xlink:href="npnz16b_8h_source.html" target="_top" xlink:title="Independent NPNZ Real Time \nControl Driver/Library \n \nCycle&#45;by&#45;cycle PWM interrupt">
<polygon fill="none" stroke="black" points="947.8,-666 783.8,-666 783.8,-614 947.8,-614 947.8,-666"/>
<text text-anchor="middle" x="865.8" y="-654" font-family="Consolas, 'Courier New', Courier, Sans-Serif" font-size="10.00">Independent NPNZ Real Time </text>
<text text-anchor="middle" x="865.8" y="-643" font-family="Consolas, 'Courier New', Courier, Sans-Serif" font-size="10.00">Control Driver/Library </text>
<text text-anchor="middle" x="865.8" y="-632" font-family="Consolas, 'Courier New', Courier, Sans-Serif" font-size="10.00"> </text>
<text text-anchor="middle" x="865.8" y="-621" font-family="Consolas, 'Courier New', Courier, Sans-Serif" font-size="10.00">Cycle&#45;by&#45;cycle PWM interrupt</text>
</a>
</g>
</g>
<!-- State_machine&#45;&gt;NPNZ_control -->
<!-- Buck_suspend&#45;&gt;State_machine -->
<g id="edge21" class="edge">
<title>Buck_suspend&#45;&gt;State_machine</title>
<path fill="none" stroke="black" d="M665.55,-132.04C665.55,-132.04 665.55,-459.7 665.55,-459.7"/>
<polygon fill="black" stroke="black" points="662.05,-459.7 665.55,-469.7 669.05,-459.7 662.05,-459.7"/>
</g>
<!-- Suspend_PWM -->
<g id="node19" class="node">
<title>Suspend_PWM</title>
<polygon fill="none" stroke="black" points="865.8,-132 791.8,-132 791.8,-96 865.8,-96 865.8,-132"/>
<text text-anchor="middle" x="828.8" y="-111.5" font-family="Consolas, 'Courier New', Courier, Sans-Serif" font-size="10.00">Suspend PWM</text>
</g>
<!-- Buck_suspend&#45;&gt;Suspend_PWM -->
<g id="edge7" class="edge">
<title>Buck_suspend&#45;&gt;Suspend_PWM</title>
<path fill="none" stroke="black" d="M695.92,-114C695.92,-114 781.55,-114 781.55,-114"/>
<polygon fill="black" stroke="black" points="781.55,-117.5 791.55,-114 781.55,-110.5 781.55,-117.5"/>
</g>
<!-- Buck_resume -->
<g id="node17" class="node">
<title>Buck_resume</title>
<polygon fill="none" stroke="black" points="751.8,-60 677.8,-60 677.8,-24 751.8,-24 751.8,-60"/>
<text text-anchor="middle" x="714.8" y="-39.5" font-family="Consolas, 'Courier New', Courier, Sans-Serif" font-size="10.00">Buck Resume</text>
</g>
<!-- Buck_resume&#45;&gt;State_machine -->
<g id="edge22" class="edge">
<title>Buck_resume&#45;&gt;State_machine</title>
<path fill="none" stroke="black" d="M723.8,-60.04C723.8,-143.48 723.8,-488 723.8,-488 723.8,-488 691.8,-488 691.8,-488"/>
<polygon fill="black" stroke="black" points="691.8,-484.5 681.8,-488 691.8,-491.5 691.8,-484.5"/>
</g>
<!-- Resume_PWM -->
<g id="node20" class="node">
<title>Resume_PWM</title>
<polygon fill="none" stroke="black" points="861.3,-60 792.3,-60 792.3,-24 861.3,-24 861.3,-60"/>
<text text-anchor="middle" x="826.8" y="-39.5" font-family="Consolas, 'Courier New', Courier, Sans-Serif" font-size="10.00">Resume PWM</text>
</g>
<!-- Buck_resume&#45;&gt;Resume_PWM -->
<g id="edge25" class="edge">
<title>Buck_resume&#45;&gt;Resume_PWM</title>
<path fill="none" stroke="black" d="M752.09,-42C752.09,-42 781.94,-42 781.94,-42"/>
<polygon fill="black" stroke="black" points="781.94,-45.5 791.94,-42 781.94,-38.5 781.94,-45.5"/>
</g>
<!-- PWM -->
<g id="node21" class="node">
<title>PWM</title>
<polygon fill="none" stroke="black" points="1017.8,-506 963.8,-506 963.8,-470 1017.8,-470 1017.8,-506"/>
<text text-anchor="middle" x="990.8" y="-485.5" font-family="Consolas, 'Courier New', Courier, Sans-Serif" font-size="10.00">PWM</text>
</g>
<!-- PWM&#45;&gt;NPNZ_control -->
<g id="edge28" class="edge">
<title>PWM&#45;&gt;NPNZ_control</title>
<path fill="none" stroke="black" d="M963.76,-479C939.2,-479 906.8,-479 906.8,-479 906.8,-479 906.8,-603.77 906.8,-603.77"/>
<polygon fill="black" stroke="black" points="903.3,-603.77 906.8,-613.77 910.3,-603.77 903.3,-603.77"/>
</g>
<!-- ADC -->
<g id="node22" class="node">
<title>ADC</title>
<polygon fill="none" stroke="black" points="1017.8,-578 963.8,-578 963.8,-542 1017.8,-542 1017.8,-578"/>
<text text-anchor="middle" x="990.8" y="-557.5" font-family="Consolas, 'Courier New', Courier, Sans-Serif" font-size="10.00">ADC</text>
</g>
<!-- ADC&#45;&gt;NPNZ_control -->
<g id="edge29" class="edge">
<title>ADC&#45;&gt;NPNZ_control</title>
<path fill="none" stroke="black" d="M983.46,-578.03C983.46,-595.06 983.46,-618 983.46,-618 983.46,-618 957.84,-618 957.84,-618"/>
<polygon fill="black" stroke="black" points="957.84,-614.5 947.84,-618 957.84,-621.5 957.84,-614.5"/>
</g>
<!-- ADC&#45;&gt;PWM -->
<!-- cNPNZ -->
<g id="node23" class="node">
<title>cNPNZ</title>
<polygon fill="none" stroke="black" points="1035.3,-658 966.3,-658 966.3,-622 1035.3,-622 1035.3,-658"/>
<text text-anchor="middle" x="1000.8" y="-637.5" font-family="Consolas, 'Courier New', Courier, Sans-Serif" font-size="10.00">cNPNZ16b_t</text>
</g>
<!-- cNPNZ&#45;&gt;NPNZ_control -->
<g id="edge30" class="edge">
<title>cNPNZ&#45;&gt;NPNZ_control</title>
<path fill="none" stroke="black" d="M966.03,-640C966.03,-640 957.92,-640 957.92,-640"/>
<polygon fill="black" stroke="black" points="957.92,-636.5 947.92,-640 957.92,-643.5 957.92,-636.5"/>
</g>
<!-- cNPNZ&#45;&gt;ADC -->
<!-- Success -->
<g id="node24" class="node">
<title>Success</title>
<polygon fill="none" stroke="black" points="22.3,-803.5 22.3,-841.5 155.3,-841.5 155.3,-803.5 22.3,-803.5"/>
<text text-anchor="middle" x="88.8" y="-829.5" font-family="Consolas, 'Courier New', Courier, Sans-Serif" font-size="10.00">Main Function</text>
<polyline fill="none" stroke="black" points="22.3,-822.5 155.3,-822.5 "/>
<text text-anchor="middle" x="35.8" y="-810.5" font-family="Consolas, 'Courier New', Courier, Sans-Serif" font-size="10.00">NO</text>
<polyline fill="none" stroke="black" points="49.3,-803.5 49.3,-822.5 "/>
<text text-anchor="middle" x="86.3" y="-810.5" font-family="Consolas, 'Courier New', Courier, Sans-Serif" font-size="10.00">Successful?</text>
<polyline fill="none" stroke="black" points="123.3,-803.5 123.3,-822.5 "/>
<text text-anchor="middle" x="139.3" y="-810.5" font-family="Consolas, 'Courier New', Courier, Sans-Serif" font-size="10.00">YES</text>
</g>
<!-- Success&#45;&gt;call_PWR_SM -->
<g id="edge3" class="edge">
<title>Success:f2&#45;&gt;call_PWR_SM</title>
<path fill="none" stroke="black" d="M131.05,-803.25C131.05,-803.25 131.05,-803.2 131.05,-803.09"/>
<polygon fill="black" stroke="black" points="134.55,-805 131.05,-795 127.55,-805 134.55,-805"/>
</g>
<!-- Reset -->
<g id="node26" class="node">
<title>Reset</title>
<polygon fill="none" stroke="black" points="35.8,-764 0.2,-746 35.8,-728 71.39,-746 35.8,-764"/>
<text text-anchor="middle" x="35.8" y="-743.5" font-family="Consolas, 'Courier New', Courier, Sans-Serif" font-size="10.00">Reset</text>
</g>
<!-- Success&#45;&gt;Reset -->
<g id="edge2" class="edge">
<title>Success:f0&#45;&gt;Reset</title>
<path fill="none" stroke="black" d="M38.73,-803.25C38.73,-803.25 38.73,-772.59 38.73,-772.59"/>
<polygon fill="black" stroke="black" points="42.23,-772.59 38.73,-762.59 35.23,-772.59 42.23,-772.59"/>
</g>
<!-- Fault_detected&#45;&gt;call_PWR_SM -->
<g id="edge8" class="edge">
<title>Fault_detected:f0&#45;&gt;call_PWR_SM</title>
<path fill="none" stroke="black" d="M139.8,-188.6C139.8,-188.6 139.8,-717.73 139.8,-717.73"/>
<polygon fill="black" stroke="black" points="136.3,-717.73 139.8,-727.73 143.3,-717.73 136.3,-717.73"/>
</g>
<!-- Fault_detected&#45;&gt;PWR_suspend -->
<g id="edge5" class="edge">
<title>Fault_detected:f2&#45;&gt;PWR_suspend</title>
<path fill="none" stroke="black" d="M241.87,-192C279.62,-192 370.8,-192 370.8,-192 370.8,-192 370.8,-142.09 370.8,-142.09"/>
<polygon fill="black" stroke="black" points="374.3,-142.09 370.8,-132.09 367.3,-142.09 374.3,-142.09"/>
</g>
<!-- Fault_detected&#45;&gt;PWR_resume -->
<g id="edge23" class="edge">
<title>Fault_detected:f0&#45;&gt;PWR_resume</title>
<path fill="none" stroke="black" d="M164.8,-188.39C164.8,-183.96 164.8,-42 164.8,-42 164.8,-42 358.19,-42 358.19,-42"/>
<polygon fill="black" stroke="black" points="358.19,-45.5 368.19,-42 358.19,-38.5 358.19,-45.5"/>
</g>
<!-- Reset&#45;&gt;call_PWR_SM -->
<!-- Reset&#45;&gt;Success -->
<g id="edge1" class="edge">
<title>Reset&#45;&gt;Success</title>
<path fill="none" stroke="black" d="M55.16,-754.48C55.16,-754.48 55.16,-793.49 55.16,-793.49"/>
<polygon fill="black" stroke="black" points="51.66,-793.49 55.16,-803.49 58.66,-793.49 51.66,-793.49"/>
</g>
</g>
</svg>
