<?xml version="1.0" encoding="UTF-8" standalone="no"?>
<!DOCTYPE svg PUBLIC "-//W3C//DTD SVG 1.1//EN"
 "http://www.w3.org/Graphics/SVG/1.1/DTD/svg11.dtd">
<!-- Generated by graphviz version 2.44.1 (20200629.0846)
 -->
<!-- Title: Private Properties Pages: 1 -->
<svg width="396pt" height="101pt"
 viewBox="0.00 0.00 396.00 101.00" xmlns="http://www.w3.org/2000/svg" xmlns:xlink="http://www.w3.org/1999/xlink">
<g id="graph0" class="graph" transform="scale(1 1) rotate(0) translate(4 97)">
<title>Private Properties</title>
<polygon fill="white" stroke="transparent" points="-4,4 -4,-97 392,-97 392,4 -4,4"/>
<!-- Node4 -->
<g id="node1" class="node">
<title>Node4</title>
<g id="a_node1"><a xlink:href="group__lib-layer-buck-specialfn-properties-private-data-types.html" target="_top" xlink:title=" ">
<polygon fill="white" stroke="black" points="369.5,-93 303.5,-93 303.5,-74 369.5,-74 369.5,-93"/>
<text text-anchor="middle" x="336.5" y="-81" font-family="Helvetica,sans-Serif" font-size="10.00">Data Types</text>
</a>
</g>
</g>
<!-- Node2 -->
<g id="node2" class="node">
<title>Node2</title>
<g id="a_node2"><a xlink:href="group__lib-layer-buck-specialfn.html" target="_top" xlink:title=" ">
<polygon fill="white" stroke="black" points="120,-56 0,-56 0,-37 120,-37 120,-56"/>
<text text-anchor="middle" x="60" y="-44" font-family="Helvetica,sans-Serif" font-size="10.00">Buck Special Functions</text>
</a>
</g>
</g>
<!-- Node1 -->
<g id="node5" class="node">
<title>Node1</title>
<g id="a_node5"><a xlink:title="Public properties of the second library layer.">
<polygon fill="#bfbfbf" stroke="black" points="249,-56 156,-56 156,-37 249,-37 249,-56"/>
<text text-anchor="middle" x="202.5" y="-44" font-family="Helvetica,sans-Serif" font-size="10.00">Private Properties</text>
</a>
</g>
</g>
<!-- Node2&#45;&gt;Node1 -->
<g id="edge1" class="edge">
<title>Node2&#45;&gt;Node1</title>
<path fill="none" stroke="black" d="M130.25,-46.5C138.86,-46.5 147.49,-46.5 155.62,-46.5"/>
<polygon fill="black" stroke="black" points="130.18,-43 120.18,-46.5 130.18,-50 130.18,-43"/>
</g>
<!-- Node5 -->
<g id="node3" class="node">
<title>Node5</title>
<g id="a_node3"><a xlink:href="group__lib-layer-buck-specialfn-properties-private-defines.html" target="_top" xlink:title=" ">
<polygon fill="white" stroke="black" points="388,-56 285,-56 285,-37 388,-37 388,-56"/>
<text text-anchor="middle" x="336.5" y="-44" font-family="Helvetica,sans-Serif" font-size="10.00">Defines and Macros</text>
</a>
</g>
</g>
<!-- Node3 -->
<g id="node4" class="node">
<title>Node3</title>
<g id="a_node4"><a xlink:href="group__lib-layer-buck-specialfn-properties-private-variables.html" target="_top" xlink:title=" ">
<polygon fill="white" stroke="black" points="365,-19 308,-19 308,0 365,0 365,-19"/>
<text text-anchor="middle" x="336.5" y="-7" font-family="Helvetica,sans-Serif" font-size="10.00">Variables</text>
</a>
</g>
</g>
<!-- Node1&#45;&gt;Node4 -->
<g id="edge3" class="edge">
<title>Node1&#45;&gt;Node4</title>
<path fill="none" stroke="black" d="M247.37,-58.8C265.69,-63.93 286.59,-69.79 303.44,-74.51"/>
<polygon fill="black" stroke="black" points="248.07,-55.36 237.49,-56.03 246.18,-62.1 248.07,-55.36"/>
</g>
<!-- Node1&#45;&gt;Node5 -->
<g id="edge4" class="edge">
<title>Node1&#45;&gt;Node5</title>
<path fill="none" stroke="black" d="M259.43,-46.5C267.86,-46.5 276.51,-46.5 284.82,-46.5"/>
<polygon fill="black" stroke="black" points="259.3,-43 249.3,-46.5 259.3,-50 259.3,-43"/>
</g>
<!-- Node1&#45;&gt;Node3 -->
<g id="edge2" class="edge">
<title>Node1&#45;&gt;Node3</title>
<path fill="none" stroke="black" d="M247.31,-34.22C267.28,-28.62 290.32,-22.16 307.84,-17.25"/>
<polygon fill="black" stroke="black" points="246.18,-30.9 237.49,-36.97 248.07,-37.64 246.18,-30.9"/>
</g>
</g>
</svg>
