<?xml version="1.0" encoding="UTF-8" standalone="no"?>
<!DOCTYPE svg PUBLIC "-//W3C//DTD SVG 1.1//EN"
 "http://www.w3.org/Graphics/SVG/1.1/DTD/svg11.dtd">
<!-- Generated by graphviz version 2.44.1 (20200629.0846)
 -->
<!-- Title: Public Properties Pages: 1 -->
<svg width="408pt" height="101pt"
 viewBox="0.00 0.00 408.00 101.00" xmlns="http://www.w3.org/2000/svg" xmlns:xlink="http://www.w3.org/1999/xlink">
<g id="graph0" class="graph" transform="scale(1 1) rotate(0) translate(4 97)">
<title>Public Properties</title>
<polygon fill="white" stroke="transparent" points="-4,4 -4,-97 404,-97 404,4 -4,4"/>
<!-- Node5 -->
<g id="node1" class="node">
<title>Node5</title>
<g id="a_node1"><a xlink:href="group__lib-layer-buck-ptemplate-properties-public-defines.html" target="_top" xlink:title=" ">
<polygon fill="white" stroke="black" points="400,-93 297,-93 297,-74 400,-74 400,-93"/>
<text text-anchor="middle" x="348.5" y="-81" font-family="Helvetica,sans-Serif" font-size="10.00">Defines and Macros</text>
</a>
</g>
</g>
<!-- Node3 -->
<g id="node2" class="node">
<title>Node3</title>
<g id="a_node2"><a xlink:href="group__lib-layer-buck-ptemplate-properties-public-variables.html" target="_top" xlink:title=" ">
<polygon fill="white" stroke="black" points="377,-56 320,-56 320,-37 377,-37 377,-56"/>
<text text-anchor="middle" x="348.5" y="-44" font-family="Helvetica,sans-Serif" font-size="10.00">Variables</text>
</a>
</g>
</g>
<!-- Node1 -->
<g id="node3" class="node">
<title>Node1</title>
<g id="a_node3"><a xlink:title="Public properties of the second library layer.">
<polygon fill="#bfbfbf" stroke="black" points="261,-56 170,-56 170,-37 261,-37 261,-56"/>
<text text-anchor="middle" x="215.5" y="-44" font-family="Helvetica,sans-Serif" font-size="10.00">Public Properties</text>
</a>
</g>
</g>
<!-- Node1&#45;&gt;Node5 -->
<g id="edge4" class="edge">
<title>Node1&#45;&gt;Node5</title>
<path fill="none" stroke="black" d="M260.14,-58.83C277.49,-63.73 297.15,-69.28 313.42,-73.88"/>
<polygon fill="black" stroke="black" points="260.81,-55.38 250.24,-56.03 258.91,-62.11 260.81,-55.38"/>
</g>
<!-- Node1&#45;&gt;Node3 -->
<g id="edge2" class="edge">
<title>Node1&#45;&gt;Node3</title>
<path fill="none" stroke="black" d="M271.43,-46.5C288.09,-46.5 305.69,-46.5 319.76,-46.5"/>
<polygon fill="black" stroke="black" points="271.22,-43 261.22,-46.5 271.22,-50 271.22,-43"/>
</g>
<!-- Node4 -->
<g id="node4" class="node">
<title>Node4</title>
<g id="a_node4"><a xlink:href="group__lib-layer-buck-ptemplate-properties-public-data-types.html" target="_top" xlink:title=" ">
<polygon fill="white" stroke="black" points="381.5,-19 315.5,-19 315.5,0 381.5,0 381.5,-19"/>
<text text-anchor="middle" x="348.5" y="-7" font-family="Helvetica,sans-Serif" font-size="10.00">Data Types</text>
</a>
</g>
</g>
<!-- Node1&#45;&gt;Node4 -->
<g id="edge3" class="edge">
<title>Node1&#45;&gt;Node4</title>
<path fill="none" stroke="black" d="M259.96,-34.23C278,-29.13 298.57,-23.32 315.23,-18.61"/>
<polygon fill="black" stroke="black" points="258.91,-30.89 250.24,-36.97 260.81,-37.62 258.91,-30.89"/>
</g>
<!-- Node2 -->
<g id="node5" class="node">
<title>Node2</title>
<g id="a_node5"><a xlink:href="group__lib-layer-buck-ptemplate.html" target="_top" xlink:title=" ">
<polygon fill="white" stroke="black" points="134,-56 0,-56 0,-37 134,-37 134,-56"/>
<text text-anchor="middle" x="67" y="-44" font-family="Helvetica,sans-Serif" font-size="10.00">Buck Peripheral Templates</text>
</a>
</g>
</g>
<!-- Node2&#45;&gt;Node1 -->
<g id="edge1" class="edge">
<title>Node2&#45;&gt;Node1</title>
<path fill="none" stroke="black" d="M144.51,-46.5C153.14,-46.5 161.7,-46.5 169.72,-46.5"/>
<polygon fill="black" stroke="black" points="144.39,-43 134.39,-46.5 144.39,-50 144.39,-43"/>
</g>
</g>
</svg>
