<?xml version="1.0" encoding="UTF-8" standalone="no"?>
<!DOCTYPE svg PUBLIC "-//W3C//DTD SVG 1.1//EN"
 "http://www.w3.org/Graphics/SVG/1.1/DTD/svg11.dtd">
<!-- Generated by graphviz version 2.44.1 (20200629.0846)
 -->
<!-- Title: sysUserPeriperhals_Initialize Pages: 1 -->
<svg width="649pt" height="199pt"
 viewBox="0.00 0.00 649.00 199.00" xmlns="http://www.w3.org/2000/svg" xmlns:xlink="http://www.w3.org/1999/xlink">
<g id="graph0" class="graph" transform="scale(1 1) rotate(0) translate(4 195)">
<title>sysUserPeriperhals_Initialize</title>
<polygon fill="white" stroke="transparent" points="-4,4 -4,-195 645,-195 645,4 -4,4"/>
<!-- Node1 -->
<g id="node1" class="node">
<title>Node1</title>
<g id="a_node1"><a xlink:title="Initializes the user&#45;defined chip resources.">
<polygon fill="#bfbfbf" stroke="black" points="0,-71 0,-101 101,-101 101,-71 0,-71"/>
<text text-anchor="start" x="8" y="-89" font-family="Helvetica,sans-Serif" font-size="10.00">sysUserPeriperhals</text>
<text text-anchor="middle" x="50.5" y="-78" font-family="Helvetica,sans-Serif" font-size="10.00">_Initialize</text>
</a>
</g>
</g>
<!-- Node2 -->
<g id="node2" class="node">
<title>Node2</title>
<g id="a_node2"><a xlink:href="group__dac-initialization.html#gab420e63336f317e197b1cb8861561c3f" target="_top" xlink:title="DAC Module Base Register Initialization.">
<polygon fill="white" stroke="black" points="142,-152.5 142,-171.5 264,-171.5 264,-152.5 142,-152.5"/>
<text text-anchor="middle" x="203" y="-159.5" font-family="Helvetica,sans-Serif" font-size="10.00">sysDacModule_Initialize</text>
</a>
</g>
</g>
<!-- Node1&#45;&gt;Node2 -->
<g id="edge1" class="edge">
<title>Node1&#45;&gt;Node2</title>
<path fill="none" stroke="midnightblue" d="M70.53,-101.16C87.22,-113.83 112.58,-131.62 137,-143 141.93,-145.3 147.2,-147.38 152.52,-149.26"/>
<polygon fill="midnightblue" stroke="midnightblue" points="151.52,-152.62 162.11,-152.42 153.71,-145.97 151.52,-152.62"/>
</g>
<!-- Node6 -->
<g id="node6" class="node">
<title>Node6</title>
<g id="a_node6"><a xlink:href="group__dac-initialization.html#ga2f97c3082e0d6f724cea482c10c2d08f" target="_top" xlink:title=" ">
<polygon fill="white" stroke="black" points="146,-114.5 146,-133.5 260,-133.5 260,-114.5 146,-114.5"/>
<text text-anchor="middle" x="203" y="-121.5" font-family="Helvetica,sans-Serif" font-size="10.00">sysDacOutput_Enable</text>
</a>
</g>
</g>
<!-- Node1&#45;&gt;Node6 -->
<g id="edge6" class="edge">
<title>Node1&#45;&gt;Node6</title>
<path fill="none" stroke="midnightblue" d="M101.2,-98.55C118.37,-102.89 137.57,-107.73 154.56,-112.02"/>
<polygon fill="midnightblue" stroke="midnightblue" points="153.72,-115.42 164.28,-114.48 155.44,-108.63 153.72,-115.42"/>
</g>
<!-- Node8 -->
<g id="node8" class="node">
<title>Node8</title>
<g id="a_node8"><a xlink:href="group__dac-initialization.html#gab022a57f46162ce2bb840b556261133d" target="_top" xlink:title=" ">
<polygon fill="white" stroke="black" points="143.5,-76.5 143.5,-95.5 262.5,-95.5 262.5,-76.5 143.5,-76.5"/>
<text text-anchor="middle" x="203" y="-83.5" font-family="Helvetica,sans-Serif" font-size="10.00">sysDacOutput_Initialize</text>
</a>
</g>
</g>
<!-- Node1&#45;&gt;Node8 -->
<g id="edge9" class="edge">
<title>Node1&#45;&gt;Node8</title>
<path fill="none" stroke="midnightblue" d="M101.2,-86C111.45,-86 122.42,-86 133.21,-86"/>
<polygon fill="midnightblue" stroke="midnightblue" points="133.47,-89.5 143.47,-86 133.47,-82.5 133.47,-89.5"/>
</g>
<!-- Node11 -->
<g id="node11" class="node">
<title>Node11</title>
<g id="a_node11"><a xlink:href="group__op-amp-initialization.html#gabd454dd5908ee930957e91e5c5bf42ff" target="_top" xlink:title=" ">
<polygon fill="white" stroke="black" points="150,-38.5 150,-57.5 256,-57.5 256,-38.5 150,-38.5"/>
<text text-anchor="middle" x="203" y="-45.5" font-family="Helvetica,sans-Serif" font-size="10.00">sysOpAmp_Initialize</text>
</a>
</g>
</g>
<!-- Node1&#45;&gt;Node11 -->
<g id="edge13" class="edge">
<title>Node1&#45;&gt;Node11</title>
<path fill="none" stroke="midnightblue" d="M101.2,-73.45C118.37,-69.11 137.57,-64.27 154.56,-59.98"/>
<polygon fill="midnightblue" stroke="midnightblue" points="155.44,-63.37 164.28,-57.52 153.72,-56.58 155.44,-63.37"/>
</g>
<!-- Node13 -->
<g id="node13" class="node">
<title>Node13</title>
<g id="a_node13"><a xlink:href="group__op-amp-initialization.html#ga3cd080c9a48a5d74d8b2f89fdec161da" target="_top" xlink:title="Enables the on&#45;chip operational amplifier module.">
<polygon fill="white" stroke="black" points="137,-0.5 137,-19.5 269,-19.5 269,-0.5 137,-0.5"/>
<text text-anchor="middle" x="203" y="-7.5" font-family="Helvetica,sans-Serif" font-size="10.00">sysOpAmp_ModuleEnable</text>
</a>
</g>
</g>
<!-- Node1&#45;&gt;Node13 -->
<g id="edge15" class="edge">
<title>Node1&#45;&gt;Node13</title>
<path fill="none" stroke="midnightblue" d="M70.53,-70.84C87.22,-58.17 112.58,-40.38 137,-29 141.93,-26.7 147.2,-24.62 152.52,-22.74"/>
<polygon fill="midnightblue" stroke="midnightblue" points="153.71,-26.03 162.11,-19.58 151.52,-19.38 153.71,-26.03"/>
</g>
<!-- Node3 -->
<g id="node3" class="node">
<title>Node3</title>
<g id="a_node3"><a xlink:href="group__dac.html#gaddf7b491a947c7f557b89235588c0219" target="_top" xlink:title="Writes a user&#45;defined configuration to the DAC module base registers.">
<polygon fill="white" stroke="black" points="491.5,-171.5 491.5,-190.5 638.5,-190.5 638.5,-171.5 491.5,-171.5"/>
<text text-anchor="middle" x="565" y="-178.5" font-family="Helvetica,sans-Serif" font-size="10.00">p33c_DacModule_ConfigWrite</text>
</a>
</g>
</g>
<!-- Node2&#45;&gt;Node3 -->
<g id="edge2" class="edge">
<title>Node2&#45;&gt;Node3</title>
<path fill="none" stroke="midnightblue" d="M245.03,-171.51C263.28,-175.28 285.1,-179.14 305,-181 363.64,-186.47 430.07,-186.34 480.97,-184.91"/>
<polygon fill="midnightblue" stroke="midnightblue" points="481.38,-188.4 491.27,-184.6 481.16,-181.4 481.38,-188.4"/>
</g>
<!-- Node4 -->
<g id="node4" class="node">
<title>Node4</title>
<g id="a_node4"><a xlink:href="group__dac.html#gaf0ea62728fde73f2119e47f67baf2ff0" target="_top" xlink:title="Resets all DAC Module registers to their RESET default values.">
<polygon fill="white" stroke="black" points="313,-152.5 313,-171.5 445,-171.5 445,-152.5 313,-152.5"/>
<text text-anchor="middle" x="379" y="-159.5" font-family="Helvetica,sans-Serif" font-size="10.00">p33c_DacModule_Dispose</text>
</a>
</g>
</g>
<!-- Node2&#45;&gt;Node4 -->
<g id="edge3" class="edge">
<title>Node2&#45;&gt;Node4</title>
<path fill="none" stroke="midnightblue" d="M264.37,-162C276.76,-162 289.95,-162 302.79,-162"/>
<polygon fill="midnightblue" stroke="midnightblue" points="302.99,-165.5 312.99,-162 302.99,-158.5 302.99,-165.5"/>
</g>
<!-- Node5 -->
<g id="node5" class="node">
<title>Node5</title>
<g id="a_node5"><a xlink:href="group__dac.html#ga72e7cdf4177d0403e8ff925314ec1bc7" target="_top" xlink:title="Gets pointer to DAC Module SFR set.">
<polygon fill="white" stroke="black" points="307.5,-114.5 307.5,-133.5 450.5,-133.5 450.5,-114.5 307.5,-114.5"/>
<text text-anchor="middle" x="379" y="-121.5" font-family="Helvetica,sans-Serif" font-size="10.00">p33c_DacModule_GetHandle</text>
</a>
</g>
</g>
<!-- Node2&#45;&gt;Node5 -->
<g id="edge5" class="edge">
<title>Node2&#45;&gt;Node5</title>
<path fill="none" stroke="midnightblue" d="M247.91,-152.41C271.18,-147.33 299.95,-141.04 324.52,-135.68"/>
<polygon fill="midnightblue" stroke="midnightblue" points="325.39,-139.07 334.41,-133.52 323.89,-132.23 325.39,-139.07"/>
</g>
<!-- Node4&#45;&gt;Node3 -->
<g id="edge4" class="edge">
<title>Node4&#45;&gt;Node3</title>
<path fill="none" stroke="midnightblue" d="M445.13,-168.73C456.84,-169.93 469.19,-171.21 481.32,-172.46"/>
<polygon fill="midnightblue" stroke="midnightblue" points="481.13,-175.96 491.44,-173.51 481.85,-169 481.13,-175.96"/>
</g>
<!-- Node6&#45;&gt;Node5 -->
<g id="edge8" class="edge">
<title>Node6&#45;&gt;Node5</title>
<path fill="none" stroke="midnightblue" d="M260.01,-124C271.93,-124 284.74,-124 297.36,-124"/>
<polygon fill="midnightblue" stroke="midnightblue" points="297.43,-127.5 307.43,-124 297.43,-120.5 297.43,-127.5"/>
</g>
<!-- Node7 -->
<g id="node7" class="node">
<title>Node7</title>
<g id="a_node7"><a xlink:href="group__dac.html#gae0c4b7f47cf9b4cdae91ff2e317961bf" target="_top" xlink:title="Gets pointer to DAC Instance SFR set.">
<polygon fill="white" stroke="black" points="305,-76.5 305,-95.5 453,-95.5 453,-76.5 305,-76.5"/>
<text text-anchor="middle" x="379" y="-83.5" font-family="Helvetica,sans-Serif" font-size="10.00">p33c_DacInstance_GetHandle</text>
</a>
</g>
</g>
<!-- Node6&#45;&gt;Node7 -->
<g id="edge7" class="edge">
<title>Node6&#45;&gt;Node7</title>
<path fill="none" stroke="midnightblue" d="M247.91,-114.41C271.18,-109.33 299.95,-103.04 324.52,-97.68"/>
<polygon fill="midnightblue" stroke="midnightblue" points="325.39,-101.07 334.41,-95.52 323.89,-94.23 325.39,-101.07"/>
</g>
<!-- Node8&#45;&gt;Node7 -->
<g id="edge12" class="edge">
<title>Node8&#45;&gt;Node7</title>
<path fill="none" stroke="midnightblue" d="M262.91,-86C273.14,-86 283.96,-86 294.7,-86"/>
<polygon fill="midnightblue" stroke="midnightblue" points="294.96,-89.5 304.96,-86 294.96,-82.5 294.96,-89.5"/>
</g>
<!-- Node9 -->
<g id="node9" class="node">
<title>Node9</title>
<g id="a_node9"><a xlink:href="group__dac.html#ga39037bccfba783fdd8c9a52cbe651ca4" target="_top" xlink:title="Resets all DAC Instance registers to their RESET default values.">
<polygon fill="white" stroke="black" points="310.5,-38.5 310.5,-57.5 447.5,-57.5 447.5,-38.5 310.5,-38.5"/>
<text text-anchor="middle" x="379" y="-45.5" font-family="Helvetica,sans-Serif" font-size="10.00">p33c_DacInstance_Dispose</text>
</a>
</g>
</g>
<!-- Node8&#45;&gt;Node9 -->
<g id="edge10" class="edge">
<title>Node8&#45;&gt;Node9</title>
<path fill="none" stroke="midnightblue" d="M247.91,-76.41C271.18,-71.33 299.95,-65.04 324.52,-59.68"/>
<polygon fill="midnightblue" stroke="midnightblue" points="325.39,-63.07 334.41,-57.52 323.89,-56.23 325.39,-63.07"/>
</g>
<!-- Node10 -->
<g id="node10" class="node">
<title>Node10</title>
<g id="a_node10"><a xlink:href="group__dac.html#gac471660aeec8e8329369435914c5befa" target="_top" xlink:title="Writes a user&#45;defined configuration to the DAC instance registers.">
<polygon fill="white" stroke="black" points="489,-38.5 489,-57.5 641,-57.5 641,-38.5 489,-38.5"/>
<text text-anchor="middle" x="565" y="-45.5" font-family="Helvetica,sans-Serif" font-size="10.00">p33c_DacInstance_ConfigWrite</text>
</a>
</g>
</g>
<!-- Node9&#45;&gt;Node10 -->
<g id="edge11" class="edge">
<title>Node9&#45;&gt;Node10</title>
<path fill="none" stroke="midnightblue" d="M447.73,-48C457.8,-48 468.28,-48 478.66,-48"/>
<polygon fill="midnightblue" stroke="midnightblue" points="478.97,-51.5 488.97,-48 478.97,-44.5 478.97,-51.5"/>
</g>
<!-- Node12 -->
<g id="node12" class="node">
<title>Node12</title>
<g id="a_node12"><a xlink:href="group__p33c-opa-pral.html#gabd9cfd420bfce742a354ce84fb682bcc" target="_top" xlink:title="Gets pointer to op&#45;amp Module SFR set.">
<polygon fill="white" stroke="black" points="307.5,-0.5 307.5,-19.5 450.5,-19.5 450.5,-0.5 307.5,-0.5"/>
<text text-anchor="middle" x="379" y="-7.5" font-family="Helvetica,sans-Serif" font-size="10.00">p33c_OpaModule_GetHandle</text>
</a>
</g>
</g>
<!-- Node11&#45;&gt;Node12 -->
<g id="edge14" class="edge">
<title>Node11&#45;&gt;Node12</title>
<path fill="none" stroke="midnightblue" d="M247.91,-38.41C271.18,-33.33 299.95,-27.04 324.52,-21.68"/>
<polygon fill="midnightblue" stroke="midnightblue" points="325.39,-25.07 334.41,-19.52 323.89,-18.23 325.39,-25.07"/>
</g>
<!-- Node13&#45;&gt;Node12 -->
<g id="edge16" class="edge">
<title>Node13&#45;&gt;Node12</title>
<path fill="none" stroke="midnightblue" d="M269.29,-10C278.42,-10 287.9,-10 297.28,-10"/>
<polygon fill="midnightblue" stroke="midnightblue" points="297.4,-13.5 307.4,-10 297.4,-6.5 297.4,-13.5"/>
</g>
</g>
</svg>
