<?xml version="1.0" encoding="UTF-8" standalone="no"?>
<!DOCTYPE svg PUBLIC "-//W3C//DTD SVG 1.1//EN"
 "http://www.w3.org/Graphics/SVG/1.1/DTD/svg11.dtd">
<!-- Generated by graphviz version 2.44.1 (20200629.0846)
 -->
<!-- Title: Hardware Abstraction Layer Pages: 1 -->
<svg width="282pt" height="518pt"
 viewBox="0.00 0.00 282.00 518.00" xmlns="http://www.w3.org/2000/svg" xmlns:xlink="http://www.w3.org/1999/xlink">
<g id="graph0" class="graph" transform="scale(1 1) rotate(0) translate(4 514)">
<title>Hardware Abstraction Layer</title>
<polygon fill="white" stroke="transparent" points="-4,4 -4,-514 278,-514 278,4 -4,4"/>
<!-- Node5 -->
<g id="node1" class="node">
<title>Node5</title>
<g id="a_node1"><a xlink:href="group__startup-timing.html" target="_top" xlink:title="Declaration of startup timing periods.">
<polygon fill="white" stroke="black" points="269.5,-510 150.5,-510 150.5,-491 269.5,-491 269.5,-510"/>
<text text-anchor="middle" x="210" y="-498" font-family="Helvetica,sans-Serif" font-size="10.00">Startup Timing Settings</text>
</a>
</g>
</g>
<!-- Node1 -->
<g id="node2" class="node">
<title>Node1</title>
<g id="a_node2"><a xlink:title="Hardware Abstraction Layer Declarations.">
<polygon fill="#bfbfbf" stroke="black" points="110,-281.5 0,-281.5 0,-251.5 110,-251.5 110,-281.5"/>
<text text-anchor="start" x="8" y="-269.5" font-family="Helvetica,sans-Serif" font-size="10.00">Hardware Abstraction</text>
<text text-anchor="middle" x="55" y="-258.5" font-family="Helvetica,sans-Serif" font-size="10.00"> Layer</text>
</a>
</g>
</g>
<!-- Node1&#45;&gt;Node5 -->
<g id="edge4" class="edge">
<title>Node1&#45;&gt;Node5</title>
<path fill="none" stroke="black" d="M59.44,-291.52C66.91,-336.22 88.8,-429.94 146,-481.5 150.33,-485.4 155.43,-488.5 160.83,-490.97"/>
<polygon fill="black" stroke="black" points="62.88,-290.85 57.87,-281.51 55.96,-291.93 62.88,-290.85"/>
</g>
<!-- Node7 -->
<g id="node3" class="node">
<title>Node7</title>
<g id="a_node3"><a xlink:href="group__circuit-peripherals.html" target="_top" xlink:title=" ">
<polygon fill="white" stroke="black" points="265,-472.5 155,-472.5 155,-442.5 265,-442.5 265,-472.5"/>
<text text-anchor="start" x="163" y="-460.5" font-family="Helvetica,sans-Serif" font-size="10.00">Circuit Special Circuit</text>
<text text-anchor="middle" x="210" y="-449.5" font-family="Helvetica,sans-Serif" font-size="10.00"> Signals</text>
</a>
</g>
</g>
<!-- Node1&#45;&gt;Node7 -->
<g id="edge6" class="edge">
<title>Node1&#45;&gt;Node7</title>
<path fill="none" stroke="black" d="M63.26,-291.45C74.99,-327.57 101.39,-394.35 146,-433.5 149.87,-436.9 154.27,-439.83 158.91,-442.37"/>
<polygon fill="black" stroke="black" points="66.54,-290.21 60.22,-281.71 59.86,-292.3 66.54,-290.21"/>
</g>
<!-- Node9 -->
<g id="node4" class="node">
<title>Node9</title>
<g id="a_node4"><a xlink:href="group__input-voltage-feedback.html" target="_top" xlink:title="Declaration of input voltage feedback parameters.">
<polygon fill="white" stroke="black" points="269.5,-424 150.5,-424 150.5,-405 269.5,-405 269.5,-424"/>
<text text-anchor="middle" x="210" y="-412" font-family="Helvetica,sans-Serif" font-size="10.00">Input Voltage Feedback</text>
</a>
</g>
</g>
<!-- Node1&#45;&gt;Node9 -->
<g id="edge8" class="edge">
<title>Node1&#45;&gt;Node9</title>
<path fill="none" stroke="black" d="M66.63,-291.09C80.6,-320.51 107.91,-369.21 146,-396.5 150.81,-399.95 156.26,-402.73 161.9,-404.99"/>
<polygon fill="black" stroke="black" points="69.77,-289.53 62.41,-281.91 63.41,-292.46 69.77,-289.53"/>
</g>
<!-- Node4 -->
<g id="node5" class="node">
<title>Node4</title>
<g id="a_node5"><a xlink:href="group__state-machine.html" target="_top" xlink:title="Declaration of global state&#45;machine parameters.">
<polygon fill="white" stroke="black" points="269.5,-387 150.5,-387 150.5,-368 269.5,-368 269.5,-387"/>
<text text-anchor="middle" x="210" y="-375" font-family="Helvetica,sans-Serif" font-size="10.00">State Machine Settings</text>
</a>
</g>
</g>
<!-- Node1&#45;&gt;Node4 -->
<g id="edge3" class="edge">
<title>Node1&#45;&gt;Node4</title>
<path fill="none" stroke="black" d="M72.85,-289.91C89.24,-311.06 116.02,-341.53 146,-359.5 151.66,-362.89 157.99,-365.67 164.39,-367.94"/>
<polygon fill="black" stroke="black" points="75.5,-287.62 66.68,-281.76 69.92,-291.85 75.5,-287.62"/>
</g>
<!-- Node11 -->
<g id="node6" class="node">
<title>Node11</title>
<g id="a_node6"><a xlink:href="group__phase-current-feedback.html" target="_top" xlink:title="Declaration of phase current feedback parameters.">
<polygon fill="white" stroke="black" points="272.5,-350 147.5,-350 147.5,-331 272.5,-331 272.5,-350"/>
<text text-anchor="middle" x="210" y="-338" font-family="Helvetica,sans-Serif" font-size="10.00">Phase Current Feedback</text>
</a>
</g>
</g>
<!-- Node1&#45;&gt;Node11 -->
<g id="edge10" class="edge">
<title>Node1&#45;&gt;Node11</title>
<path fill="none" stroke="black" d="M84.96,-287.41C102.06,-299.01 124.51,-312.97 146,-322.5 153.28,-325.73 161.29,-328.54 169.08,-330.91"/>
<polygon fill="black" stroke="black" points="86.75,-284.4 76.53,-281.6 82.78,-290.16 86.75,-284.4"/>
</g>
<!-- Node6 -->
<g id="node7" class="node">
<title>Node6</title>
<g id="a_node7"><a xlink:href="group__fault-response.html" target="_top" xlink:title="Declaration of fault object trip and recovery delays.">
<polygon fill="white" stroke="black" points="272,-313 148,-313 148,-294 272,-294 272,-313"/>
<text text-anchor="middle" x="210" y="-301" font-family="Helvetica,sans-Serif" font-size="10.00">Fault Response Settings</text>
</a>
</g>
</g>
<!-- Node1&#45;&gt;Node6 -->
<g id="edge5" class="edge">
<title>Node1&#45;&gt;Node6</title>
<path fill="none" stroke="black" d="M120.16,-282.02C136.98,-286.08 154.62,-290.35 169.7,-294"/>
<polygon fill="black" stroke="black" points="120.92,-278.6 110.37,-279.65 119.27,-285.4 120.92,-278.6"/>
</g>
<!-- Node14 -->
<g id="node8" class="node">
<title>Node14</title>
<g id="a_node8"><a xlink:href="group__special-options.html" target="_top" xlink:title=" ">
<polygon fill="white" stroke="black" points="274,-276 146,-276 146,-257 274,-257 274,-276"/>
<text text-anchor="middle" x="210" y="-264" font-family="Helvetica,sans-Serif" font-size="10.00">Special Firmware Options</text>
</a>
</g>
</g>
<!-- Node1&#45;&gt;Node14 -->
<g id="edge13" class="edge">
<title>Node1&#45;&gt;Node14</title>
<path fill="none" stroke="black" d="M120.51,-266.5C128.92,-266.5 137.53,-266.5 145.92,-266.5"/>
<polygon fill="black" stroke="black" points="120.37,-263 110.37,-266.5 120.37,-270 120.37,-263"/>
</g>
<!-- Node3 -->
<g id="node9" class="node">
<title>Node3</title>
<g id="a_node9"><a xlink:href="group__device-abstraction.html" target="_top" xlink:title="Declarations of fundamental microcontroller device parameters.">
<polygon fill="white" stroke="black" points="266,-238.5 154,-238.5 154,-208.5 266,-208.5 266,-238.5"/>
<text text-anchor="start" x="162" y="-226.5" font-family="Helvetica,sans-Serif" font-size="10.00">Microcontroller Device</text>
<text text-anchor="middle" x="210" y="-215.5" font-family="Helvetica,sans-Serif" font-size="10.00"> Abstraction</text>
</a>
</g>
</g>
<!-- Node1&#45;&gt;Node3 -->
<g id="edge2" class="edge">
<title>Node1&#45;&gt;Node3</title>
<path fill="none" stroke="black" d="M119.45,-248.67C131.44,-245.3 143.87,-241.8 155.52,-238.53"/>
<polygon fill="black" stroke="black" points="118.19,-245.39 109.51,-251.46 120.09,-252.12 118.19,-245.39"/>
</g>
<!-- Node2 -->
<g id="node10" class="node">
<title>Node2</title>
<g id="a_node10"><a xlink:href="group__hardware-id-macro.html" target="_top" xlink:title="Global identified to the hardware version used.">
<polygon fill="white" stroke="black" points="262.5,-190 157.5,-190 157.5,-171 262.5,-171 262.5,-190"/>
<text text-anchor="middle" x="210" y="-178" font-family="Helvetica,sans-Serif" font-size="10.00">Hardware Version ID</text>
</a>
</g>
</g>
<!-- Node1&#45;&gt;Node2 -->
<g id="edge1" class="edge">
<title>Node1&#45;&gt;Node2</title>
<path fill="none" stroke="black" d="M80.3,-244.74C97.59,-230.21 121.93,-211.62 146,-199.5 153.35,-195.8 161.54,-192.68 169.53,-190.1"/>
<polygon fill="black" stroke="black" points="77.73,-242.33 72.41,-251.49 82.28,-247.65 77.73,-242.33"/>
</g>
<!-- Node12 -->
<g id="node11" class="node">
<title>Node12</title>
<g id="a_node11"><a xlink:href="group__adaptive-control.html" target="_top" xlink:title="Declaration of macros calculating additional parameters for Adaptive Gain Modulation.">
<polygon fill="white" stroke="black" points="265,-152.5 155,-152.5 155,-122.5 265,-122.5 265,-152.5"/>
<text text-anchor="start" x="163" y="-140.5" font-family="Helvetica,sans-Serif" font-size="10.00">Adaptive Gain Control</text>
<text text-anchor="middle" x="210" y="-129.5" font-family="Helvetica,sans-Serif" font-size="10.00"> Feed Forward</text>
</a>
</g>
</g>
<!-- Node1&#45;&gt;Node12 -->
<g id="edge11" class="edge">
<title>Node1&#45;&gt;Node12</title>
<path fill="none" stroke="black" d="M71.4,-242.84C87.56,-219.63 114.89,-184.59 146,-162.5 151.28,-158.75 157.19,-155.46 163.23,-152.6"/>
<polygon fill="black" stroke="black" points="68.31,-241.16 65.58,-251.4 74.09,-245.1 68.31,-241.16"/>
</g>
<!-- Node13 -->
<g id="node12" class="node">
<title>Node13</title>
<g id="a_node12"><a xlink:href="group__control-interrupt-vector-declarations.html" target="_top" xlink:title=" ">
<polygon fill="white" stroke="black" points="268.5,-104.5 151.5,-104.5 151.5,-74.5 268.5,-74.5 268.5,-104.5"/>
<text text-anchor="start" x="159.5" y="-92.5" font-family="Helvetica,sans-Serif" font-size="10.00">Control Interrupt Vector</text>
<text text-anchor="middle" x="210" y="-81.5" font-family="Helvetica,sans-Serif" font-size="10.00"> Declarations</text>
</a>
</g>
</g>
<!-- Node1&#45;&gt;Node13 -->
<g id="edge12" class="edge">
<title>Node1&#45;&gt;Node13</title>
<path fill="none" stroke="black" d="M64.58,-241.68C77.35,-208.18 104.4,-148.65 146,-113.5 150.02,-110.1 154.58,-107.16 159.35,-104.61"/>
<polygon fill="black" stroke="black" points="61.25,-240.59 61.08,-251.18 67.82,-243.01 61.25,-240.59"/>
</g>
<!-- Node8 -->
<g id="node13" class="node">
<title>Node8</title>
<g id="a_node13"><a xlink:href="group__pwm-fundamentals.html" target="_top" xlink:title="Declaration of fundamental PWM parameters.">
<polygon fill="white" stroke="black" points="250,-56 170,-56 170,-37 250,-37 250,-56"/>
<text text-anchor="middle" x="210" y="-44" font-family="Helvetica,sans-Serif" font-size="10.00">PWM Settings</text>
</a>
</g>
</g>
<!-- Node1&#45;&gt;Node8 -->
<g id="edge7" class="edge">
<title>Node1&#45;&gt;Node8</title>
<path fill="none" stroke="black" d="M60.3,-241.31C68.87,-198.81 92.12,-112.89 146,-65.5 152.69,-59.62 161.15,-55.55 169.69,-52.75"/>
<polygon fill="black" stroke="black" points="56.82,-240.89 58.38,-251.37 63.69,-242.2 56.82,-240.89"/>
</g>
<!-- Node10 -->
<g id="node14" class="node">
<title>Node10</title>
<g id="a_node14"><a xlink:href="group__output-voltage-feedback.html" target="_top" xlink:title="Declaration of output voltage feedback parameters.">
<polygon fill="white" stroke="black" points="274,-19 146,-19 146,0 274,0 274,-19"/>
<text text-anchor="middle" x="210" y="-7" font-family="Helvetica,sans-Serif" font-size="10.00">Output Voltage Feedback</text>
</a>
</g>
</g>
<!-- Node1&#45;&gt;Node10 -->
<g id="edge9" class="edge">
<title>Node1&#45;&gt;Node10</title>
<path fill="none" stroke="black" d="M58.31,-241.25C64.09,-192.88 83.54,-86.81 146,-28.5 150.18,-24.6 155.12,-21.5 160.38,-19.04"/>
<polygon fill="black" stroke="black" points="54.8,-241.13 57.19,-251.45 61.76,-241.89 54.8,-241.13"/>
</g>
</g>
</svg>
