<?xml version="1.0" encoding="UTF-8" standalone="no"?>
<!DOCTYPE svg PUBLIC "-//W3C//DTD SVG 1.1//EN"
 "http://www.w3.org/Graphics/SVG/1.1/DTD/svg11.dtd">
<!-- Generated by graphviz version 2.44.1 (20200629.0846)
 -->
<!-- Title: Public Properties Pages: 1 -->
<svg width="424pt" height="101pt"
 viewBox="0.00 0.00 424.00 101.00" xmlns="http://www.w3.org/2000/svg" xmlns:xlink="http://www.w3.org/1999/xlink">
<g id="graph0" class="graph" transform="scale(1 1) rotate(0) translate(4 97)">
<title>Public Properties</title>
<polygon fill="white" stroke="transparent" points="-4,4 -4,-97 420,-97 420,4 -4,4"/>
<!-- Node4 -->
<g id="node1" class="node">
<title>Node4</title>
<g id="a_node1"><a xlink:href="group__lib-layer-buck-config-properties-public-data-types.html" target="_top" xlink:title=" ">
<polygon fill="white" stroke="black" points="397.5,-93 331.5,-93 331.5,-74 397.5,-74 397.5,-93"/>
<text text-anchor="middle" x="364.5" y="-81" font-family="Helvetica,sans-Serif" font-size="10.00">Data Types</text>
</a>
</g>
</g>
<!-- Node2 -->
<g id="node2" class="node">
<title>Node2</title>
<g id="a_node2"><a xlink:href="group__lib-layer-buck-config.html" target="_top" xlink:title=" ">
<polygon fill="white" stroke="black" points="150,-56 0,-56 0,-37 150,-37 150,-56"/>
<text text-anchor="middle" x="75" y="-44" font-family="Helvetica,sans-Serif" font-size="10.00">Buck Peripheral Configurations</text>
</a>
</g>
</g>
<!-- Node1 -->
<g id="node3" class="node">
<title>Node1</title>
<g id="a_node3"><a xlink:title="Public properties of the second library layer.">
<polygon fill="#bfbfbf" stroke="black" points="277,-56 186,-56 186,-37 277,-37 277,-56"/>
<text text-anchor="middle" x="231.5" y="-44" font-family="Helvetica,sans-Serif" font-size="10.00">Public Properties</text>
</a>
</g>
</g>
<!-- Node2&#45;&gt;Node1 -->
<g id="edge1" class="edge">
<title>Node2&#45;&gt;Node1</title>
<path fill="none" stroke="black" d="M160.12,-46.5C168.98,-46.5 177.73,-46.5 185.88,-46.5"/>
<polygon fill="black" stroke="black" points="160.08,-43 150.08,-46.5 160.08,-50 160.08,-43"/>
</g>
<!-- Node1&#45;&gt;Node4 -->
<g id="edge3" class="edge">
<title>Node1&#45;&gt;Node4</title>
<path fill="none" stroke="black" d="M275.96,-58.77C294,-63.87 314.57,-69.68 331.23,-74.39"/>
<polygon fill="black" stroke="black" points="276.81,-55.38 266.24,-56.03 274.91,-62.11 276.81,-55.38"/>
</g>
<!-- Node5 -->
<g id="node4" class="node">
<title>Node5</title>
<g id="a_node4"><a xlink:href="group__lib-layer-buck-config-properties-public-defines.html" target="_top" xlink:title=" ">
<polygon fill="white" stroke="black" points="416,-56 313,-56 313,-37 416,-37 416,-56"/>
<text text-anchor="middle" x="364.5" y="-44" font-family="Helvetica,sans-Serif" font-size="10.00">Defines and Macros</text>
</a>
</g>
</g>
<!-- Node1&#45;&gt;Node5 -->
<g id="edge4" class="edge">
<title>Node1&#45;&gt;Node5</title>
<path fill="none" stroke="black" d="M287.31,-46.5C295.72,-46.5 304.37,-46.5 312.68,-46.5"/>
<polygon fill="black" stroke="black" points="287.22,-43 277.22,-46.5 287.22,-50 287.22,-43"/>
</g>
<!-- Node3 -->
<g id="node5" class="node">
<title>Node3</title>
<g id="a_node5"><a xlink:href="group__lib-layer-buck-config-properties-public-variables.html" target="_top" xlink:title=" ">
<polygon fill="white" stroke="black" points="393,-19 336,-19 336,0 393,0 393,-19"/>
<text text-anchor="middle" x="364.5" y="-7" font-family="Helvetica,sans-Serif" font-size="10.00">Variables</text>
</a>
</g>
</g>
<!-- Node1&#45;&gt;Node3 -->
<g id="edge2" class="edge">
<title>Node1&#45;&gt;Node3</title>
<path fill="none" stroke="black" d="M275.91,-34.24C295.58,-28.68 318.27,-22.28 335.62,-17.37"/>
<polygon fill="black" stroke="black" points="274.91,-30.89 266.24,-36.97 276.81,-37.62 274.91,-30.89"/>
</g>
</g>
</svg>
