<?xml version="1.0" encoding="UTF-8" standalone="no"?>
<!DOCTYPE svg PUBLIC "-//W3C//DTD SVG 1.1//EN"
 "http://www.w3.org/Graphics/SVG/1.1/DTD/svg11.dtd">
<!-- Generated by graphviz version 2.44.1 (20200629.0846)
 -->
<!-- Title: buckADC_Start Pages: 1 -->
<svg width="798pt" height="28pt"
 viewBox="0.00 0.00 798.00 28.00" xmlns="http://www.w3.org/2000/svg" xmlns:xlink="http://www.w3.org/1999/xlink">
<g id="graph0" class="graph" transform="scale(1 1) rotate(0) translate(4 24)">
<title>buckADC_Start</title>
<polygon fill="white" stroke="transparent" points="-4,4 -4,-24 794,-24 794,4 -4,4"/>
<!-- Node1 -->
<g id="node1" class="node">
<title>Node1</title>
<g id="a_node1"><a xlink:title=" ">
<polygon fill="#bfbfbf" stroke="black" points="706,-0.5 706,-19.5 790,-19.5 790,-0.5 706,-0.5"/>
<text text-anchor="middle" x="748" y="-7.5" font-family="Helvetica,sans-Serif" font-size="10.00">buckADC_Start</text>
</a>
</g>
</g>
<!-- Node2 -->
<g id="node2" class="node">
<title>Node2</title>
<g id="a_node2"><a xlink:href="group__power-handler-functions.html#ga8c05ea0ee077172e4025d8b7a36f5c9f" target="_top" xlink:title=" ">
<polygon fill="white" stroke="black" points="547,-0.5 547,-19.5 670,-19.5 670,-0.5 547,-0.5"/>
<text text-anchor="middle" x="608.5" y="-7.5" font-family="Helvetica,sans-Serif" font-size="10.00">drv_BuckConverter_Start</text>
</a>
</g>
</g>
<!-- Node1&#45;&gt;Node2 -->
<g id="edge1" class="edge">
<title>Node1&#45;&gt;Node2</title>
<path fill="none" stroke="midnightblue" d="M695.47,-10C687.18,-10 678.53,-10 670.04,-10"/>
<polygon fill="midnightblue" stroke="midnightblue" points="695.75,-13.5 705.75,-10 695.75,-6.5 695.75,-13.5"/>
</g>
<!-- Node3 -->
<g id="node3" class="node">
<title>Node3</title>
<g id="a_node3"><a xlink:href="group__power-control-app-layer-public.html#ga9210070749c2ed49abd8a30b27f64151" target="_top" xlink:title="This function calls the buck converter device driver function starting the power supply.">
<polygon fill="white" stroke="black" points="395,-0.5 395,-19.5 511,-19.5 511,-0.5 395,-0.5"/>
<text text-anchor="middle" x="453" y="-7.5" font-family="Helvetica,sans-Serif" font-size="10.00">appPowerSupply_Start</text>
</a>
</g>
</g>
<!-- Node2&#45;&gt;Node3 -->
<g id="edge2" class="edge">
<title>Node2&#45;&gt;Node3</title>
<path fill="none" stroke="midnightblue" d="M536.56,-10C528.07,-10 519.49,-10 511.23,-10"/>
<polygon fill="midnightblue" stroke="midnightblue" points="536.83,-13.5 546.83,-10 536.83,-6.5 536.83,-13.5"/>
</g>
<!-- Node4 -->
<g id="node4" class="node">
<title>Node4</title>
<g id="a_node4"><a xlink:href="group__power-control-app-layer-public.html#ga7a4cf6371d09457539f96a74b2809ca0" target="_top" xlink:title="Calls the application layer power controller initialization.">
<polygon fill="white" stroke="black" points="229,-0.5 229,-19.5 359,-19.5 359,-0.5 229,-0.5"/>
<text text-anchor="middle" x="294" y="-7.5" font-family="Helvetica,sans-Serif" font-size="10.00">appPowerSupply_Initialize</text>
</a>
</g>
</g>
<!-- Node3&#45;&gt;Node4 -->
<g id="edge3" class="edge">
<title>Node3&#45;&gt;Node4</title>
<path fill="none" stroke="midnightblue" d="M384.7,-10C376.26,-10 367.65,-10 359.26,-10"/>
<polygon fill="midnightblue" stroke="midnightblue" points="384.88,-13.5 394.88,-10 384.88,-6.5 384.88,-13.5"/>
</g>
<!-- Node5 -->
<g id="node5" class="node">
<title>Node5</title>
<g id="a_node5"><a xlink:href="group__system-initialization-user-tasks.html#ga2be64f5f0b9a2c0c6713f5a69d793e05" target="_top" xlink:title="Initializes the user&#45;defined tasks.">
<polygon fill="white" stroke="black" points="74,-0.5 74,-19.5 193,-19.5 193,-0.5 74,-0.5"/>
<text text-anchor="middle" x="133.5" y="-7.5" font-family="Helvetica,sans-Serif" font-size="10.00">sysUserTasks_Initialize</text>
</a>
</g>
</g>
<!-- Node4&#45;&gt;Node5 -->
<g id="edge4" class="edge">
<title>Node4&#45;&gt;Node5</title>
<path fill="none" stroke="midnightblue" d="M218.9,-10C210.25,-10 201.52,-10 193.12,-10"/>
<polygon fill="midnightblue" stroke="midnightblue" points="218.99,-13.5 228.99,-10 218.99,-6.5 218.99,-13.5"/>
</g>
<!-- Node6 -->
<g id="node6" class="node">
<title>Node6</title>
<g id="a_node6"><a xlink:href="group__firmware-flow.html#ga840291bc02cba5474a4cb46a9b9566fe" target="_top" xlink:title="Application main function executed after device comes out of RESET.">
<polygon fill="white" stroke="black" points="0,-0.5 0,-19.5 38,-19.5 38,-0.5 0,-0.5"/>
<text text-anchor="middle" x="19" y="-7.5" font-family="Helvetica,sans-Serif" font-size="10.00">main</text>
</a>
</g>
</g>
<!-- Node5&#45;&gt;Node6 -->
<g id="edge5" class="edge">
<title>Node5&#45;&gt;Node6</title>
<path fill="none" stroke="midnightblue" d="M63.65,-10C54.29,-10 45.43,-10 38.16,-10"/>
<polygon fill="midnightblue" stroke="midnightblue" points="63.94,-13.5 73.94,-10 63.94,-6.5 63.94,-13.5"/>
</g>
</g>
</svg>
