<?xml version="1.0" encoding="UTF-8" standalone="no"?>
<!DOCTYPE svg PUBLIC "-//W3C//DTD SVG 1.1//EN"
 "http://www.w3.org/Graphics/SVG/1.1/DTD/svg11.dtd">
<!-- Generated by graphviz version 2.44.1 (20200629.0846)
 -->
<!-- Title: Microcontroller Device Abstraction Pages: 1 -->
<svg width="451pt" height="123pt"
 viewBox="0.00 0.00 451.00 123.00" xmlns="http://www.w3.org/2000/svg" xmlns:xlink="http://www.w3.org/1999/xlink">
<g id="graph0" class="graph" transform="scale(1 1) rotate(0) translate(4 119)">
<title>Microcontroller Device Abstraction</title>
<polygon fill="white" stroke="transparent" points="-4,4 -4,-119 447,-119 447,4 -4,4"/>
<!-- Node2 -->
<g id="node1" class="node">
<title>Node2</title>
<g id="a_node1"><a xlink:href="group__abstraction-layer.html" target="_top" xlink:title="Hardware Abstraction Layer Declarations.">
<polygon fill="white" stroke="black" points="110,-83.5 0,-83.5 0,-53.5 110,-53.5 110,-83.5"/>
<text text-anchor="start" x="8" y="-71.5" font-family="Helvetica,sans-Serif" font-size="10.00">Hardware Abstraction</text>
<text text-anchor="middle" x="55" y="-60.5" font-family="Helvetica,sans-Serif" font-size="10.00"> Layer</text>
</a>
</g>
</g>
<!-- Node1 -->
<g id="node4" class="node">
<title>Node1</title>
<g id="a_node4"><a xlink:title="Declarations of fundamental microcontroller device parameters.">
<polygon fill="#bfbfbf" stroke="black" points="258,-83.5 146,-83.5 146,-53.5 258,-53.5 258,-83.5"/>
<text text-anchor="start" x="154" y="-71.5" font-family="Helvetica,sans-Serif" font-size="10.00">Microcontroller Device</text>
<text text-anchor="middle" x="202" y="-60.5" font-family="Helvetica,sans-Serif" font-size="10.00"> Abstraction</text>
</a>
</g>
</g>
<!-- Node2&#45;&gt;Node1 -->
<g id="edge1" class="edge">
<title>Node2&#45;&gt;Node1</title>
<path fill="none" stroke="black" d="M120.57,-68.5C128.99,-68.5 137.56,-68.5 145.81,-68.5"/>
<polygon fill="black" stroke="black" points="120.41,-65 110.41,-68.5 120.41,-72 120.41,-65"/>
</g>
<!-- Node4 -->
<g id="node2" class="node">
<title>Node4</title>
<g id="a_node2"><a xlink:href="group__device-abstraction-macros.html" target="_top" xlink:title="Conversion macros of fundamental microcontroller device settings.">
<polygon fill="white" stroke="black" points="418,-115 319,-115 319,-96 418,-96 418,-115"/>
<text text-anchor="middle" x="368.5" y="-103" font-family="Helvetica,sans-Serif" font-size="10.00">Conversion Macros</text>
</a>
</g>
</g>
<!-- Node3 -->
<g id="node3" class="node">
<title>Node3</title>
<g id="a_node3"><a xlink:href="group__device-abstraction-settings.html" target="_top" xlink:title="Fundamental microcontroller device settings.">
<polygon fill="white" stroke="black" points="406.5,-78 330.5,-78 330.5,-59 406.5,-59 406.5,-78"/>
<text text-anchor="middle" x="368.5" y="-66" font-family="Helvetica,sans-Serif" font-size="10.00">User Settings</text>
</a>
</g>
</g>
<!-- Node1&#45;&gt;Node4 -->
<g id="edge3" class="edge">
<title>Node1&#45;&gt;Node4</title>
<path fill="none" stroke="black" d="M268.13,-83.15C287.31,-87.46 307.8,-92.07 325.16,-95.98"/>
<polygon fill="black" stroke="black" points="268.76,-79.7 258.23,-80.92 267.22,-86.53 268.76,-79.7"/>
</g>
<!-- Node1&#45;&gt;Node3 -->
<g id="edge2" class="edge">
<title>Node1&#45;&gt;Node3</title>
<path fill="none" stroke="black" d="M268.41,-68.5C289.44,-68.5 312.01,-68.5 330.29,-68.5"/>
<polygon fill="black" stroke="black" points="268.23,-65 258.23,-68.5 268.23,-72 268.23,-65"/>
</g>
<!-- Node5 -->
<g id="node5" class="node">
<title>Node5</title>
<g id="a_node5"><a xlink:href="group__device-abstraction-pral.html" target="_top" xlink:title=" ">
<polygon fill="white" stroke="black" points="443,-41 294,-41 294,0 443,0 443,-41"/>
<text text-anchor="start" x="302" y="-29" font-family="Helvetica,sans-Serif" font-size="10.00">Peripheral Special</text>
<text text-anchor="start" x="302" y="-18" font-family="Helvetica,sans-Serif" font-size="10.00"> Function Register Abstraction</text>
<text text-anchor="middle" x="368.5" y="-7" font-family="Helvetica,sans-Serif" font-size="10.00"> Drivers</text>
</a>
</g>
</g>
<!-- Node1&#45;&gt;Node5 -->
<g id="edge4" class="edge">
<title>Node1&#45;&gt;Node5</title>
<path fill="none" stroke="black" d="M264.26,-50.62C274.96,-47.5 286.17,-44.23 297.1,-41.04"/>
<polygon fill="black" stroke="black" points="263.22,-47.28 254.6,-53.44 265.18,-54 263.22,-47.28"/>
</g>
</g>
</svg>
