<?xml version="1.0" encoding="UTF-8" standalone="no"?>
<!DOCTYPE svg PUBLIC "-//W3C//DTD SVG 1.1//EN"
 "http://www.w3.org/Graphics/SVG/1.1/DTD/svg11.dtd">
<!-- Generated by graphviz version 2.44.1 (20200629.0846)
 -->
<!-- Title: buckGPIO_Clear Pages: 1 -->
<svg width="986pt" height="153pt"
 viewBox="0.00 0.00 986.00 152.50" xmlns="http://www.w3.org/2000/svg" xmlns:xlink="http://www.w3.org/1999/xlink">
<g id="graph0" class="graph" transform="scale(1 1) rotate(0) translate(4 148.5)">
<title>buckGPIO_Clear</title>
<polygon fill="white" stroke="transparent" points="-4,4 -4,-148.5 982,-148.5 982,4 -4,4"/>
<!-- Node1 -->
<g id="node1" class="node">
<title>Node1</title>
<g id="a_node1"><a xlink:title=" ">
<polygon fill="#bfbfbf" stroke="black" points="889,-76.5 889,-95.5 978,-95.5 978,-76.5 889,-76.5"/>
<text text-anchor="middle" x="933.5" y="-83.5" font-family="Helvetica,sans-Serif" font-size="10.00">buckGPIO_Clear</text>
</a>
</g>
</g>
<!-- Node2 -->
<g id="node2" class="node">
<title>Node2</title>
<g id="a_node2"><a xlink:href="group__power-handler-functions.html#ga984f623275f9e1da2e11be2e9ff8221c" target="_top" xlink:title=" ">
<polygon fill="white" stroke="black" points="749,-115.5 749,-134.5 851,-134.5 851,-115.5 749,-115.5"/>
<text text-anchor="middle" x="800" y="-122.5" font-family="Helvetica,sans-Serif" font-size="10.00">buckGPIO_Initialize</text>
</a>
</g>
</g>
<!-- Node1&#45;&gt;Node2 -->
<g id="edge1" class="edge">
<title>Node1&#45;&gt;Node2</title>
<path fill="none" stroke="midnightblue" d="M890.65,-98.41C872.09,-103.92 850.59,-110.29 833.29,-115.42"/>
<polygon fill="midnightblue" stroke="midnightblue" points="891.74,-101.74 900.33,-95.54 889.75,-95.03 891.74,-101.74"/>
</g>
<!-- Node8 -->
<g id="node8" class="node">
<title>Node8</title>
<g id="a_node8"><a xlink:href="group__power-handler-functions.html#gaf5c603256fc12118fe63eb285676d95f" target="_top" xlink:title=" ">
<polygon fill="white" stroke="black" points="756,-76.5 756,-95.5 844,-95.5 844,-76.5 756,-76.5"/>
<text text-anchor="middle" x="800" y="-83.5" font-family="Helvetica,sans-Serif" font-size="10.00">buckPWM_Stop</text>
</a>
</g>
</g>
<!-- Node1&#45;&gt;Node8 -->
<g id="edge7" class="edge">
<title>Node1&#45;&gt;Node8</title>
<path fill="none" stroke="midnightblue" d="M878.41,-86C866.99,-86 855.1,-86 844.15,-86"/>
<polygon fill="midnightblue" stroke="midnightblue" points="878.71,-89.5 888.71,-86 878.71,-82.5 878.71,-89.5"/>
</g>
<!-- Node11 -->
<g id="node11" class="node">
<title>Node11</title>
<g id="a_node11"><a xlink:href="group__power-handler-functions.html#gadd0533ee810246f6b84c7c31d9372835" target="_top" xlink:title=" ">
<polygon fill="white" stroke="black" points="747,-38.5 747,-57.5 853,-57.5 853,-38.5 747,-38.5"/>
<text text-anchor="middle" x="800" y="-45.5" font-family="Helvetica,sans-Serif" font-size="10.00">buckPWM_Suspend</text>
</a>
</g>
</g>
<!-- Node1&#45;&gt;Node11 -->
<g id="edge10" class="edge">
<title>Node1&#45;&gt;Node11</title>
<path fill="none" stroke="midnightblue" d="M889.62,-73.61C871.61,-68.41 850.99,-62.45 834.17,-57.59"/>
<polygon fill="midnightblue" stroke="midnightblue" points="888.74,-77 899.32,-76.41 890.68,-70.27 888.74,-77"/>
</g>
<!-- Node3 -->
<g id="node3" class="node">
<title>Node3</title>
<g id="a_node3"><a xlink:href="group__power-handler-functions.html#ga97eb8bdd17b9c2e169f0634ebabb5d19" target="_top" xlink:title="This function initializes all peripheral modules and their instances used by the power controller.">
<polygon fill="white" stroke="black" points="574,-118.5 574,-137.5 711,-137.5 711,-118.5 574,-118.5"/>
<text text-anchor="middle" x="642.5" y="-125.5" font-family="Helvetica,sans-Serif" font-size="10.00">drv_BuckConverter_Initialize</text>
</a>
</g>
</g>
<!-- Node2&#45;&gt;Node3 -->
<g id="edge2" class="edge">
<title>Node2&#45;&gt;Node3</title>
<path fill="none" stroke="midnightblue" d="M738.84,-126.16C729.73,-126.34 720.29,-126.52 711.04,-126.7"/>
<polygon fill="midnightblue" stroke="midnightblue" points="739.01,-129.66 748.94,-125.97 738.88,-122.66 739.01,-129.66"/>
</g>
<!-- Node4 -->
<g id="node4" class="node">
<title>Node4</title>
<g id="a_node4"><a xlink:href="group__power-control-app-layer-private.html#ga0b26acfec74d1804384b4ba1a3cffab4" target="_top" xlink:title="This function is used to load peripheral configuration templates from the power controller device dri...">
<polygon fill="white" stroke="black" points="395,-114 395,-144 538,-144 538,-114 395,-114"/>
<text text-anchor="start" x="403" y="-132" font-family="Helvetica,sans-Serif" font-size="10.00">appPowerSupply_Peripherals</text>
<text text-anchor="middle" x="466.5" y="-121" font-family="Helvetica,sans-Serif" font-size="10.00">Initialize</text>
</a>
</g>
</g>
<!-- Node3&#45;&gt;Node4 -->
<g id="edge3" class="edge">
<title>Node3&#45;&gt;Node4</title>
<path fill="none" stroke="midnightblue" d="M563.53,-128.45C555.11,-128.5 546.58,-128.55 538.25,-128.59"/>
<polygon fill="midnightblue" stroke="midnightblue" points="563.75,-131.95 573.73,-128.39 563.71,-124.95 563.75,-131.95"/>
</g>
<!-- Node5 -->
<g id="node5" class="node">
<title>Node5</title>
<g id="a_node5"><a xlink:href="group__power-control-app-layer-public.html#ga7a4cf6371d09457539f96a74b2809ca0" target="_top" xlink:title="Calls the application layer power controller initialization.">
<polygon fill="white" stroke="black" points="229,-119.5 229,-138.5 359,-138.5 359,-119.5 229,-119.5"/>
<text text-anchor="middle" x="294" y="-126.5" font-family="Helvetica,sans-Serif" font-size="10.00">appPowerSupply_Initialize</text>
</a>
</g>
</g>
<!-- Node4&#45;&gt;Node5 -->
<g id="edge4" class="edge">
<title>Node4&#45;&gt;Node5</title>
<path fill="none" stroke="midnightblue" d="M384.65,-129C376.06,-129 367.42,-129 359.07,-129"/>
<polygon fill="midnightblue" stroke="midnightblue" points="384.67,-132.5 394.67,-129 384.67,-125.5 384.67,-132.5"/>
</g>
<!-- Node6 -->
<g id="node6" class="node">
<title>Node6</title>
<g id="a_node6"><a xlink:href="group__system-initialization-user-tasks.html#ga2be64f5f0b9a2c0c6713f5a69d793e05" target="_top" xlink:title="Initializes the user&#45;defined tasks.">
<polygon fill="white" stroke="black" points="74,-119.5 74,-138.5 193,-138.5 193,-119.5 74,-119.5"/>
<text text-anchor="middle" x="133.5" y="-126.5" font-family="Helvetica,sans-Serif" font-size="10.00">sysUserTasks_Initialize</text>
</a>
</g>
</g>
<!-- Node5&#45;&gt;Node6 -->
<g id="edge5" class="edge">
<title>Node5&#45;&gt;Node6</title>
<path fill="none" stroke="midnightblue" d="M218.9,-129C210.25,-129 201.52,-129 193.12,-129"/>
<polygon fill="midnightblue" stroke="midnightblue" points="218.99,-132.5 228.99,-129 218.99,-125.5 218.99,-132.5"/>
</g>
<!-- Node7 -->
<g id="node7" class="node">
<title>Node7</title>
<g id="a_node7"><a xlink:href="group__firmware-flow.html#ga840291bc02cba5474a4cb46a9b9566fe" target="_top" xlink:title="Application main function executed after device comes out of RESET.">
<polygon fill="white" stroke="black" points="0,-119.5 0,-138.5 38,-138.5 38,-119.5 0,-119.5"/>
<text text-anchor="middle" x="19" y="-126.5" font-family="Helvetica,sans-Serif" font-size="10.00">main</text>
</a>
</g>
</g>
<!-- Node6&#45;&gt;Node7 -->
<g id="edge6" class="edge">
<title>Node6&#45;&gt;Node7</title>
<path fill="none" stroke="midnightblue" d="M63.65,-129C54.29,-129 45.43,-129 38.16,-129"/>
<polygon fill="midnightblue" stroke="midnightblue" points="63.94,-132.5 73.94,-129 63.94,-125.5 63.94,-132.5"/>
</g>
<!-- Node9 -->
<g id="node9" class="node">
<title>Node9</title>
<g id="a_node9"><a xlink:href="group__power-handler-functions.html#gaa865d025fb1e5ae1e16e0c519c6ba9a2" target="_top" xlink:title=" ">
<polygon fill="white" stroke="black" points="581.5,-76.5 581.5,-95.5 703.5,-95.5 703.5,-76.5 581.5,-76.5"/>
<text text-anchor="middle" x="642.5" y="-83.5" font-family="Helvetica,sans-Serif" font-size="10.00">drv_BuckConverter_Stop</text>
</a>
</g>
</g>
<!-- Node8&#45;&gt;Node9 -->
<g id="edge8" class="edge">
<title>Node8&#45;&gt;Node9</title>
<path fill="none" stroke="midnightblue" d="M745.61,-86C732.11,-86 717.53,-86 703.72,-86"/>
<polygon fill="midnightblue" stroke="midnightblue" points="745.68,-89.5 755.68,-86 745.68,-82.5 745.68,-89.5"/>
</g>
<!-- Node10 -->
<g id="node10" class="node">
<title>Node10</title>
<g id="a_node10"><a xlink:href="group__power-control-app-layer-public.html#gaa7d413f62f7b5f25d152cc12354241f0" target="_top" xlink:title="This function calls the buck converter device driver function stopping the power supply.">
<polygon fill="white" stroke="black" points="409,-75.5 409,-94.5 524,-94.5 524,-75.5 409,-75.5"/>
<text text-anchor="middle" x="466.5" y="-82.5" font-family="Helvetica,sans-Serif" font-size="10.00">appPowerSupply_Stop</text>
</a>
</g>
</g>
<!-- Node9&#45;&gt;Node10 -->
<g id="edge9" class="edge">
<title>Node9&#45;&gt;Node10</title>
<path fill="none" stroke="midnightblue" d="M571.03,-85.6C555.48,-85.51 539.19,-85.41 524.25,-85.33"/>
<polygon fill="midnightblue" stroke="midnightblue" points="571.11,-89.1 581.13,-85.65 571.15,-82.1 571.11,-89.1"/>
</g>
<!-- Node12 -->
<g id="node12" class="node">
<title>Node12</title>
<g id="a_node12"><a xlink:href="group__buck-state-machine-function.html#ga7851b6ab25e86f56cb2056e4aac43c5c" target="_top" xlink:title=" ">
<polygon fill="white" stroke="black" points="609.5,-38.5 609.5,-57.5 675.5,-57.5 675.5,-38.5 609.5,-38.5"/>
<text text-anchor="middle" x="642.5" y="-45.5" font-family="Helvetica,sans-Serif" font-size="10.00">State_Error</text>
</a>
</g>
</g>
<!-- Node11&#45;&gt;Node12 -->
<g id="edge11" class="edge">
<title>Node11&#45;&gt;Node12</title>
<path fill="none" stroke="midnightblue" d="M736.71,-48C715.86,-48 693.48,-48 675.87,-48"/>
<polygon fill="midnightblue" stroke="midnightblue" points="736.79,-51.5 746.79,-48 736.79,-44.5 736.79,-51.5"/>
</g>
<!-- Node13 -->
<g id="node13" class="node">
<title>Node13</title>
<g id="a_node13"><a xlink:href="group__buck-state-machine-function.html#ga295e97e4e4330b73f398e98d889d229d" target="_top" xlink:title=" ">
<polygon fill="white" stroke="black" points="607,-0.5 607,-19.5 678,-19.5 678,-0.5 607,-0.5"/>
<text text-anchor="middle" x="642.5" y="-7.5" font-family="Helvetica,sans-Serif" font-size="10.00">State_Reset</text>
</a>
</g>
</g>
<!-- Node11&#45;&gt;Node13 -->
<g id="edge12" class="edge">
<title>Node11&#45;&gt;Node13</title>
<path fill="none" stroke="midnightblue" d="M750.04,-36.04C726.72,-30.34 699.37,-23.65 678.22,-18.49"/>
<polygon fill="midnightblue" stroke="midnightblue" points="749.22,-39.44 759.76,-38.41 750.88,-32.64 749.22,-39.44"/>
</g>
</g>
</svg>
