<?xml version="1.0" encoding="UTF-8" standalone="no"?>
<!DOCTYPE svg PUBLIC "-//W3C//DTD SVG 1.1//EN"
 "http://www.w3.org/Graphics/SVG/1.1/DTD/svg11.dtd">
<!-- Generated by graphviz version 2.44.1 (20200629.0846)
 -->
<!-- Title: Device Driver Library Layer Pages: 1 -->
<svg width="263pt" height="123pt"
 viewBox="0.00 0.00 263.00 123.00" xmlns="http://www.w3.org/2000/svg" xmlns:xlink="http://www.w3.org/1999/xlink">
<g id="graph0" class="graph" transform="scale(1 1) rotate(0) translate(4 119)">
<title>Device Driver Library Layer</title>
<polygon fill="white" stroke="transparent" points="-4,4 -4,-119 259,-119 259,4 -4,4"/>
<!-- Node3 -->
<g id="node1" class="node">
<title>Node3</title>
<g id="a_node1"><a xlink:href="group__lib-layer-fault.html" target="_top" xlink:title=" ">
<polygon fill="white" stroke="black" points="251,-115 144,-115 144,-96 251,-96 251,-115"/>
<text text-anchor="middle" x="197.5" y="-103" font-family="Helvetica,sans-Serif" font-size="10.00">Fault Handler Library</text>
</a>
</g>
</g>
<!-- Node4 -->
<g id="node2" class="node">
<title>Node4</title>
<g id="a_node2"><a xlink:href="group__lib-layer-buck.html" target="_top" xlink:title=" ">
<polygon fill="white" stroke="black" points="255,-78 140,-78 140,-59 255,-59 255,-78"/>
<text text-anchor="middle" x="197.5" y="-66" font-family="Helvetica,sans-Serif" font-size="10.00">Buck Converter Library</text>
</a>
</g>
</g>
<!-- Node2 -->
<g id="node3" class="node">
<title>Node2</title>
<g id="a_node3"><a xlink:href="group__device-abstraction-pral.html" target="_top" xlink:title=" ">
<polygon fill="white" stroke="black" points="247,-41 148,-41 148,0 247,0 247,-41"/>
<text text-anchor="start" x="156" y="-29" font-family="Helvetica,sans-Serif" font-size="10.00">Peripheral Register</text>
<text text-anchor="start" x="156" y="-18" font-family="Helvetica,sans-Serif" font-size="10.00"> Abstraction Layer </text>
<text text-anchor="middle" x="197.5" y="-7" font-family="Helvetica,sans-Serif" font-size="10.00">(PRAL) Library</text>
</a>
</g>
</g>
<!-- Node1 -->
<g id="node4" class="node">
<title>Node1</title>
<g id="a_node4"><a xlink:title="Generic Device Driver Layer.">
<polygon fill="#bfbfbf" stroke="black" points="104,-83.5 0,-83.5 0,-53.5 104,-53.5 104,-83.5"/>
<text text-anchor="start" x="8" y="-71.5" font-family="Helvetica,sans-Serif" font-size="10.00">Device Driver Library</text>
<text text-anchor="middle" x="52" y="-60.5" font-family="Helvetica,sans-Serif" font-size="10.00"> Layer</text>
</a>
</g>
</g>
<!-- Node1&#45;&gt;Node3 -->
<g id="edge2" class="edge">
<title>Node1&#45;&gt;Node3</title>
<path fill="none" stroke="black" d="M114.35,-84.32C129.68,-88.27 145.66,-92.39 159.41,-95.94"/>
<polygon fill="black" stroke="black" points="114.96,-80.86 104.4,-81.75 113.21,-87.64 114.96,-80.86"/>
</g>
<!-- Node1&#45;&gt;Node4 -->
<g id="edge3" class="edge">
<title>Node1&#45;&gt;Node4</title>
<path fill="none" stroke="black" d="M114.46,-68.5C122.81,-68.5 131.35,-68.5 139.62,-68.5"/>
<polygon fill="black" stroke="black" points="114.4,-65 104.4,-68.5 114.4,-72 114.4,-65"/>
</g>
<!-- Node1&#45;&gt;Node2 -->
<g id="edge1" class="edge">
<title>Node1&#45;&gt;Node2</title>
<path fill="none" stroke="black" d="M107.51,-50.27C120.8,-45.82 134.93,-41.1 147.92,-36.75"/>
<polygon fill="black" stroke="black" points="106.38,-46.95 98.01,-53.44 108.6,-53.59 106.38,-46.95"/>
</g>
</g>
</svg>
