<?xml version="1.0" encoding="UTF-8" standalone="no"?>
<!DOCTYPE svg PUBLIC "-//W3C//DTD SVG 1.1//EN"
 "http://www.w3.org/Graphics/SVG/1.1/DTD/svg11.dtd">
<!-- Generated by graphviz version 2.44.1 (20200629.0846)
 -->
<!-- Title: Private Properties Pages: 1 -->
<svg width="381pt" height="101pt"
 viewBox="0.00 0.00 381.00 101.00" xmlns="http://www.w3.org/2000/svg" xmlns:xlink="http://www.w3.org/1999/xlink">
<g id="graph0" class="graph" transform="scale(1 1) rotate(0) translate(4 97)">
<title>Private Properties</title>
<polygon fill="white" stroke="transparent" points="-4,4 -4,-97 377,-97 377,4 -4,4"/>
<!-- Node3 -->
<g id="node1" class="node">
<title>Node3</title>
<g id="a_node1"><a xlink:href="group__lib-layer-buck-states-properties-private-variables.html" target="_top" xlink:title=" ">
<polygon fill="white" stroke="black" points="350,-93 293,-93 293,-74 350,-74 350,-93"/>
<text text-anchor="middle" x="321.5" y="-81" font-family="Helvetica,sans-Serif" font-size="10.00">Variables</text>
</a>
</g>
</g>
<!-- Node5 -->
<g id="node2" class="node">
<title>Node5</title>
<g id="a_node2"><a xlink:href="group__lib-layer-buck-states-properties-private-defines.html" target="_top" xlink:title=" ">
<polygon fill="white" stroke="black" points="373,-56 270,-56 270,-37 373,-37 373,-56"/>
<text text-anchor="middle" x="321.5" y="-44" font-family="Helvetica,sans-Serif" font-size="10.00">Defines and Macros</text>
</a>
</g>
</g>
<!-- Node1 -->
<g id="node3" class="node">
<title>Node1</title>
<g id="a_node3"><a xlink:title="Public properties of the second library layer.">
<polygon fill="#bfbfbf" stroke="black" points="234,-56 141,-56 141,-37 234,-37 234,-56"/>
<text text-anchor="middle" x="187.5" y="-44" font-family="Helvetica,sans-Serif" font-size="10.00">Private Properties</text>
</a>
</g>
</g>
<!-- Node1&#45;&gt;Node3 -->
<g id="edge2" class="edge">
<title>Node1&#45;&gt;Node3</title>
<path fill="none" stroke="black" d="M232.31,-58.78C252.28,-64.38 275.32,-70.84 292.84,-75.75"/>
<polygon fill="black" stroke="black" points="233.07,-55.36 222.49,-56.03 231.18,-62.1 233.07,-55.36"/>
</g>
<!-- Node1&#45;&gt;Node5 -->
<g id="edge4" class="edge">
<title>Node1&#45;&gt;Node5</title>
<path fill="none" stroke="black" d="M244.43,-46.5C252.86,-46.5 261.51,-46.5 269.82,-46.5"/>
<polygon fill="black" stroke="black" points="244.3,-43 234.3,-46.5 244.3,-50 244.3,-43"/>
</g>
<!-- Node4 -->
<g id="node5" class="node">
<title>Node4</title>
<g id="a_node5"><a xlink:href="group__lib-layer-buck-states-properties-private-data-types.html" target="_top" xlink:title=" ">
<polygon fill="white" stroke="black" points="354.5,-19 288.5,-19 288.5,0 354.5,0 354.5,-19"/>
<text text-anchor="middle" x="321.5" y="-7" font-family="Helvetica,sans-Serif" font-size="10.00">Data Types</text>
</a>
</g>
</g>
<!-- Node1&#45;&gt;Node4 -->
<g id="edge3" class="edge">
<title>Node1&#45;&gt;Node4</title>
<path fill="none" stroke="black" d="M232.37,-34.2C250.69,-29.07 271.59,-23.21 288.44,-18.49"/>
<polygon fill="black" stroke="black" points="231.18,-30.9 222.49,-36.97 233.07,-37.64 231.18,-30.9"/>
</g>
<!-- Node2 -->
<g id="node4" class="node">
<title>Node2</title>
<g id="a_node4"><a xlink:href="group__lib-layer-buck-states.html" target="_top" xlink:title=" ">
<polygon fill="white" stroke="black" points="105,-56 0,-56 0,-37 105,-37 105,-56"/>
<text text-anchor="middle" x="52.5" y="-44" font-family="Helvetica,sans-Serif" font-size="10.00">Buck State Machine</text>
</a>
</g>
</g>
<!-- Node2&#45;&gt;Node1 -->
<g id="edge1" class="edge">
<title>Node2&#45;&gt;Node1</title>
<path fill="none" stroke="black" d="M115.54,-46.5C124.01,-46.5 132.57,-46.5 140.68,-46.5"/>
<polygon fill="black" stroke="black" points="115.3,-43 105.3,-46.5 115.3,-50 115.3,-43"/>
</g>
</g>
</svg>
