<?xml version="1.0" encoding="UTF-8" standalone="no"?>
<!DOCTYPE svg PUBLIC "-//W3C//DTD SVG 1.1//EN"
 "http://www.w3.org/Graphics/SVG/1.1/DTD/svg11.dtd">
<!-- Generated by graphviz version 2.44.1 (20200629.0846)
 -->
<!-- Title: Firmware Task Initialization Pages: 1 -->
<svg width="443pt" height="27pt"
 viewBox="0.00 0.00 443.00 27.00" xmlns="http://www.w3.org/2000/svg" xmlns:xlink="http://www.w3.org/1999/xlink">
<g id="graph0" class="graph" transform="scale(1 1) rotate(0) translate(4 23)">
<title>Firmware Task Initialization</title>
<polygon fill="white" stroke="transparent" points="-4,4 -4,-23 439,-23 439,4 -4,4"/>
<!-- Node1 -->
<g id="node1" class="node">
<title>Node1</title>
<g id="a_node1"><a xlink:title=" ">
<polygon fill="#bfbfbf" stroke="black" points="254,-19 120,-19 120,0 254,0 254,-19"/>
<text text-anchor="middle" x="187" y="-7" font-family="Helvetica,sans-Serif" font-size="10.00">Firmware Task Initialization</text>
</a>
</g>
</g>
<!-- Node3 -->
<g id="node2" class="node">
<title>Node3</title>
<g id="a_node2"><a xlink:href="group__os-timer-initialization.html" target="_top" xlink:title=" ">
<polygon fill="white" stroke="black" points="435,-19 290,-19 290,0 435,0 435,-19"/>
<text text-anchor="middle" x="362.5" y="-7" font-family="Helvetica,sans-Serif" font-size="10.00">Operating System Time Base</text>
</a>
</g>
</g>
<!-- Node1&#45;&gt;Node3 -->
<g id="edge2" class="edge">
<title>Node1&#45;&gt;Node3</title>
<path fill="none" stroke="black" d="M264.33,-9.5C272.8,-9.5 281.4,-9.5 289.81,-9.5"/>
<polygon fill="black" stroke="black" points="264.09,-6 254.09,-9.5 264.09,-13 264.09,-6"/>
</g>
<!-- Node2 -->
<g id="node3" class="node">
<title>Node2</title>
<g id="a_node3"><a xlink:href="group__device-start-up.html" target="_top" xlink:title="Device Start Up.">
<polygon fill="white" stroke="black" points="84,-19 0,-19 0,0 84,0 84,-19"/>
<text text-anchor="middle" x="42" y="-7" font-family="Helvetica,sans-Serif" font-size="10.00">Device Start Up</text>
</a>
</g>
</g>
<!-- Node2&#45;&gt;Node1 -->
<g id="edge1" class="edge">
<title>Node2&#45;&gt;Node1</title>
<path fill="none" stroke="black" d="M94.56,-9.5C102.8,-9.5 111.42,-9.5 119.95,-9.5"/>
<polygon fill="black" stroke="black" points="94.36,-6 84.36,-9.5 94.36,-13 94.36,-6"/>
</g>
</g>
</svg>
