<?xml version="1.0" encoding="UTF-8" standalone="no"?>
<!DOCTYPE svg PUBLIC "-//W3C//DTD SVG 1.1//EN"
 "http://www.w3.org/Graphics/SVG/1.1/DTD/svg11.dtd">
<!-- Generated by graphviz version 2.44.1 (20200629.0846)
 -->
<!-- Title: p33c_GpioInstance_GetHandle Pages: 1 -->
<svg width="1266pt" height="360pt"
 viewBox="0.00 0.00 1266.00 360.00" xmlns="http://www.w3.org/2000/svg" xmlns:xlink="http://www.w3.org/1999/xlink">
<g id="graph0" class="graph" transform="scale(1 1) rotate(0) translate(4 356)">
<title>p33c_GpioInstance_GetHandle</title>
<polygon fill="white" stroke="transparent" points="-4,4 -4,-356 1262,-356 1262,4 -4,4"/>
<!-- Node1 -->
<g id="node1" class="node">
<title>Node1</title>
<g id="a_node1"><a xlink:title="Gets pointer to GPIO Instance SFR set.">
<polygon fill="#bfbfbf" stroke="black" points="1107,-215.5 1107,-234.5 1258,-234.5 1258,-215.5 1107,-215.5"/>
<text text-anchor="middle" x="1182.5" y="-222.5" font-family="Helvetica,sans-Serif" font-size="10.00">p33c_GpioInstance_GetHandle</text>
</a>
</g>
</g>
<!-- Node2 -->
<g id="node2" class="node">
<title>Node2</title>
<g id="a_node2"><a xlink:href="group__power-handler-function.html#ga649bb2f18322be1a303d05931adb2c6a" target="_top" xlink:title=" ">
<polygon fill="white" stroke="black" points="957.5,-291.5 957.5,-310.5 1046.5,-310.5 1046.5,-291.5 957.5,-291.5"/>
<text text-anchor="middle" x="1002" y="-298.5" font-family="Helvetica,sans-Serif" font-size="10.00">buckGPIO_Clear</text>
</a>
</g>
</g>
<!-- Node1&#45;&gt;Node2 -->
<g id="edge1" class="edge">
<title>Node1&#45;&gt;Node2</title>
<path fill="none" stroke="midnightblue" d="M1156.84,-239.58C1134.88,-252.1 1101.59,-269.98 1071,-282 1061.87,-285.59 1051.81,-288.79 1042.29,-291.49"/>
<polygon fill="midnightblue" stroke="midnightblue" points="1158.6,-242.6 1165.51,-234.57 1155.1,-236.54 1158.6,-242.6"/>
</g>
<!-- Node15 -->
<g id="node15" class="node">
<title>Node15</title>
<g id="a_node15"><a xlink:href="group__power-handler-function.html#gad4e9d780ae858d4417887f13b1619346" target="_top" xlink:title=" ">
<polygon fill="white" stroke="black" points="942,-139.5 942,-158.5 1062,-158.5 1062,-139.5 942,-139.5"/>
<text text-anchor="middle" x="1002" y="-146.5" font-family="Helvetica,sans-Serif" font-size="10.00">buckGPIO_GetPinState</text>
</a>
</g>
</g>
<!-- Node1&#45;&gt;Node15 -->
<g id="edge14" class="edge">
<title>Node1&#45;&gt;Node15</title>
<path fill="none" stroke="midnightblue" d="M1156.84,-210.42C1134.88,-197.9 1101.59,-180.02 1071,-168 1061.87,-164.41 1051.81,-161.21 1042.29,-158.51"/>
<polygon fill="midnightblue" stroke="midnightblue" points="1155.1,-213.46 1165.51,-215.43 1158.6,-207.4 1155.1,-213.46"/>
</g>
<!-- Node27 -->
<g id="node27" class="node">
<title>Node27</title>
<g id="a_node27"><a xlink:href="group__power-handler-function.html#ga3d3f91c0e40884874e7df3a67fff23f3" target="_top" xlink:title=" ">
<polygon fill="white" stroke="black" points="936.5,-253.5 936.5,-272.5 1067.5,-272.5 1067.5,-253.5 936.5,-253.5"/>
<text text-anchor="middle" x="1002" y="-260.5" font-family="Helvetica,sans-Serif" font-size="10.00">buckGPIO_PrivateInitialize</text>
</a>
</g>
</g>
<!-- Node1&#45;&gt;Node27 -->
<g id="edge28" class="edge">
<title>Node1&#45;&gt;Node27</title>
<path fill="none" stroke="midnightblue" d="M1126.63,-236.68C1101.32,-242.07 1071.65,-248.39 1047.72,-253.48"/>
<polygon fill="midnightblue" stroke="midnightblue" points="1127.4,-240.09 1136.46,-234.59 1125.95,-233.25 1127.4,-240.09"/>
</g>
<!-- Node28 -->
<g id="node28" class="node">
<title>Node28</title>
<g id="a_node28"><a xlink:href="group__power-handler-function.html#gaa3ea141de17bd86c94b1fda8187f9ce6" target="_top" xlink:title=" ">
<polygon fill="white" stroke="black" points="961,-177.5 961,-196.5 1043,-196.5 1043,-177.5 961,-177.5"/>
<text text-anchor="middle" x="1002" y="-184.5" font-family="Helvetica,sans-Serif" font-size="10.00">buckGPIO_Set</text>
</a>
</g>
</g>
<!-- Node1&#45;&gt;Node28 -->
<g id="edge30" class="edge">
<title>Node1&#45;&gt;Node28</title>
<path fill="none" stroke="midnightblue" d="M1126.41,-213.27C1099.51,-207.55 1067.73,-200.78 1043.16,-195.55"/>
<polygon fill="midnightblue" stroke="midnightblue" points="1125.95,-216.75 1136.46,-215.41 1127.4,-209.91 1125.95,-216.75"/>
</g>
<!-- Node30 -->
<g id="node30" class="node">
<title>Node30</title>
<g id="a_node30"><a xlink:href="group__power-handler-function.html#ga283487111ea685224a2caf350540daad" target="_top" xlink:title=" ">
<polygon fill="white" stroke="black" points="933,-215.5 933,-234.5 1071,-234.5 1071,-215.5 933,-215.5"/>
<text text-anchor="middle" x="1002" y="-222.5" font-family="Helvetica,sans-Serif" font-size="10.00">buckPWM_ChannelInitialize</text>
</a>
</g>
</g>
<!-- Node1&#45;&gt;Node30 -->
<g id="edge32" class="edge">
<title>Node1&#45;&gt;Node30</title>
<path fill="none" stroke="midnightblue" d="M1096.77,-225C1088.17,-225 1079.5,-225 1071.1,-225"/>
<polygon fill="midnightblue" stroke="midnightblue" points="1096.83,-228.5 1106.83,-225 1096.83,-221.5 1096.83,-228.5"/>
</g>
<!-- Node3 -->
<g id="node3" class="node">
<title>Node3</title>
<g id="a_node3"><a xlink:href="group__power-handler-function.html#ga984f623275f9e1da2e11be2e9ff8221c" target="_top" xlink:title=" ">
<polygon fill="white" stroke="black" points="777.5,-253.5 777.5,-272.5 879.5,-272.5 879.5,-253.5 777.5,-253.5"/>
<text text-anchor="middle" x="828.5" y="-260.5" font-family="Helvetica,sans-Serif" font-size="10.00">buckGPIO_Initialize</text>
</a>
</g>
</g>
<!-- Node2&#45;&gt;Node3 -->
<g id="edge2" class="edge">
<title>Node2&#45;&gt;Node3</title>
<path fill="none" stroke="midnightblue" d="M947.96,-289.25C923.71,-283.87 895.35,-277.59 872.47,-272.52"/>
<polygon fill="midnightblue" stroke="midnightblue" points="947.2,-292.66 957.72,-291.41 948.72,-285.83 947.2,-292.66"/>
</g>
<!-- Node9 -->
<g id="node9" class="node">
<title>Node9</title>
<g id="a_node9"><a xlink:href="group__power-handler-function.html#gaf5c603256fc12118fe63eb285676d95f" target="_top" xlink:title=" ">
<polygon fill="white" stroke="black" points="784.5,-332.5 784.5,-351.5 872.5,-351.5 872.5,-332.5 784.5,-332.5"/>
<text text-anchor="middle" x="828.5" y="-339.5" font-family="Helvetica,sans-Serif" font-size="10.00">buckPWM_Stop</text>
</a>
</g>
</g>
<!-- Node2&#45;&gt;Node9 -->
<g id="edge8" class="edge">
<title>Node2&#45;&gt;Node9</title>
<path fill="none" stroke="midnightblue" d="M951.17,-312.91C925.15,-319.13 893.75,-326.64 869.36,-332.47"/>
<polygon fill="midnightblue" stroke="midnightblue" points="952.31,-316.24 961.22,-310.51 950.68,-309.43 952.31,-316.24"/>
</g>
<!-- Node12 -->
<g id="node12" class="node">
<title>Node12</title>
<g id="a_node12"><a xlink:href="group__power-handler-function.html#gadd0533ee810246f6b84c7c31d9372835" target="_top" xlink:title=" ">
<polygon fill="white" stroke="black" points="775.5,-291.5 775.5,-310.5 881.5,-310.5 881.5,-291.5 775.5,-291.5"/>
<text text-anchor="middle" x="828.5" y="-298.5" font-family="Helvetica,sans-Serif" font-size="10.00">buckPWM_Suspend</text>
</a>
</g>
</g>
<!-- Node2&#45;&gt;Node12 -->
<g id="edge11" class="edge">
<title>Node2&#45;&gt;Node12</title>
<path fill="none" stroke="midnightblue" d="M947.27,-301C926.35,-301 902.46,-301 881.69,-301"/>
<polygon fill="midnightblue" stroke="midnightblue" points="947.28,-304.5 957.28,-301 947.28,-297.5 947.28,-304.5"/>
</g>
<!-- Node4 -->
<g id="node4" class="node">
<title>Node4</title>
<g id="a_node4"><a xlink:href="group__power-handler-function.html#ga97eb8bdd17b9c2e169f0634ebabb5d19" target="_top" xlink:title="This function initializes all peripheral modules and their instances used by the power controller.">
<polygon fill="white" stroke="black" points="586.5,-218.5 586.5,-237.5 723.5,-237.5 723.5,-218.5 586.5,-218.5"/>
<text text-anchor="middle" x="655" y="-225.5" font-family="Helvetica,sans-Serif" font-size="10.00">drv_BuckConverter_Initialize</text>
</a>
</g>
</g>
<!-- Node3&#45;&gt;Node4 -->
<g id="edge3" class="edge">
<title>Node3&#45;&gt;Node4</title>
<path fill="none" stroke="midnightblue" d="M770.74,-251.42C748.71,-246.92 723.78,-241.83 702.81,-237.55"/>
<polygon fill="midnightblue" stroke="midnightblue" points="770.14,-254.87 780.64,-253.44 771.54,-248.01 770.14,-254.87"/>
</g>
<!-- Node5 -->
<g id="node5" class="node">
<title>Node5</title>
<g id="a_node5"><a xlink:href="group__power-handler-function.html#ga0b26acfec74d1804384b4ba1a3cffab4" target="_top" xlink:title=" ">
<polygon fill="white" stroke="black" points="407,-217 407,-247 550,-247 550,-217 407,-217"/>
<text text-anchor="start" x="415" y="-235" font-family="Helvetica,sans-Serif" font-size="10.00">appPowerSupply_Peripherals</text>
<text text-anchor="middle" x="478.5" y="-224" font-family="Helvetica,sans-Serif" font-size="10.00">Initialize</text>
</a>
</g>
</g>
<!-- Node4&#45;&gt;Node5 -->
<g id="edge4" class="edge">
<title>Node4&#45;&gt;Node5</title>
<path fill="none" stroke="midnightblue" d="M576.01,-229.79C567.4,-229.99 558.67,-230.19 550.16,-230.38"/>
<polygon fill="midnightblue" stroke="midnightblue" points="576.12,-233.29 586.03,-229.56 575.96,-226.29 576.12,-233.29"/>
</g>
<!-- Node6 -->
<g id="node6" class="node">
<title>Node6</title>
<g id="a_node6"><a xlink:href="group__device-start-up.html#ga7a4cf6371d09457539f96a74b2809ca0" target="_top" xlink:title=" ">
<polygon fill="white" stroke="black" points="239.5,-226.5 239.5,-245.5 369.5,-245.5 369.5,-226.5 239.5,-226.5"/>
<text text-anchor="middle" x="304.5" y="-233.5" font-family="Helvetica,sans-Serif" font-size="10.00">appPowerSupply_Initialize</text>
</a>
</g>
</g>
<!-- Node5&#45;&gt;Node6 -->
<g id="edge5" class="edge">
<title>Node5&#45;&gt;Node6</title>
<path fill="none" stroke="midnightblue" d="M396.46,-233.88C387.47,-234.09 378.41,-234.3 369.68,-234.51"/>
<polygon fill="midnightblue" stroke="midnightblue" points="396.63,-237.38 406.55,-233.65 396.47,-230.38 396.63,-237.38"/>
</g>
<!-- Node7 -->
<g id="node7" class="node">
<title>Node7</title>
<g id="a_node7"><a xlink:href="group__system-initialization.html#ga2be64f5f0b9a2c0c6713f5a69d793e05" target="_top" xlink:title="Initializes the user&#45;defined tasks and chip resources.">
<polygon fill="white" stroke="black" points="78.5,-228.5 78.5,-247.5 197.5,-247.5 197.5,-228.5 78.5,-228.5"/>
<text text-anchor="middle" x="138" y="-235.5" font-family="Helvetica,sans-Serif" font-size="10.00">sysUserTasks_Initialize</text>
</a>
</g>
</g>
<!-- Node6&#45;&gt;Node7 -->
<g id="edge6" class="edge">
<title>Node6&#45;&gt;Node7</title>
<path fill="none" stroke="midnightblue" d="M229.3,-236.9C218.65,-237.03 207.82,-237.16 197.53,-237.29"/>
<polygon fill="midnightblue" stroke="midnightblue" points="229.47,-240.4 239.43,-236.78 229.39,-233.4 229.47,-240.4"/>
</g>
<!-- Node8 -->
<g id="node8" class="node">
<title>Node8</title>
<g id="a_node8"><a xlink:href="group__firmware-flow.html#ga840291bc02cba5474a4cb46a9b9566fe" target="_top" xlink:title="Application main function executed after device comes out of RESET.">
<polygon fill="white" stroke="black" points="0,-190.5 0,-209.5 38,-209.5 38,-190.5 0,-190.5"/>
<text text-anchor="middle" x="19" y="-197.5" font-family="Helvetica,sans-Serif" font-size="10.00">main</text>
</a>
</g>
</g>
<!-- Node7&#45;&gt;Node8 -->
<g id="edge7" class="edge">
<title>Node7&#45;&gt;Node8</title>
<path fill="none" stroke="midnightblue" d="M97.9,-225.3C77.73,-218.75 54.1,-211.07 38.19,-205.91"/>
<polygon fill="midnightblue" stroke="midnightblue" points="96.88,-228.65 107.48,-228.41 99.05,-221.99 96.88,-228.65"/>
</g>
<!-- Node10 -->
<g id="node10" class="node">
<title>Node10</title>
<g id="a_node10"><a xlink:href="group__power-handler-function.html#gaa865d025fb1e5ae1e16e0c519c6ba9a2" target="_top" xlink:title=" ">
<polygon fill="white" stroke="black" points="594,-332.5 594,-351.5 716,-351.5 716,-332.5 594,-332.5"/>
<text text-anchor="middle" x="655" y="-339.5" font-family="Helvetica,sans-Serif" font-size="10.00">drv_BuckConverter_Stop</text>
</a>
</g>
</g>
<!-- Node9&#45;&gt;Node10 -->
<g id="edge9" class="edge">
<title>Node9&#45;&gt;Node10</title>
<path fill="none" stroke="midnightblue" d="M774,-342C755.63,-342 734.96,-342 716.1,-342"/>
<polygon fill="midnightblue" stroke="midnightblue" points="774.22,-345.5 784.22,-342 774.22,-338.5 774.22,-345.5"/>
</g>
<!-- Node11 -->
<g id="node11" class="node">
<title>Node11</title>
<g id="a_node11"><a xlink:href="group__power-handler-function.html#gaa7d413f62f7b5f25d152cc12354241f0" target="_top" xlink:title=" ">
<polygon fill="white" stroke="black" points="421,-332.5 421,-351.5 536,-351.5 536,-332.5 421,-332.5"/>
<text text-anchor="middle" x="478.5" y="-339.5" font-family="Helvetica,sans-Serif" font-size="10.00">appPowerSupply_Stop</text>
</a>
</g>
</g>
<!-- Node10&#45;&gt;Node11 -->
<g id="edge10" class="edge">
<title>Node10&#45;&gt;Node11</title>
<path fill="none" stroke="midnightblue" d="M583.69,-342C567.88,-342 551.3,-342 536.14,-342"/>
<polygon fill="midnightblue" stroke="midnightblue" points="583.95,-345.5 593.95,-342 583.95,-338.5 583.95,-345.5"/>
</g>
<!-- Node13 -->
<g id="node13" class="node">
<title>Node13</title>
<g id="a_node13"><a xlink:href="group__buck-state-machine-function.html#ga7851b6ab25e86f56cb2056e4aac43c5c" target="_top" xlink:title=" ">
<polygon fill="white" stroke="black" points="622,-256.5 622,-275.5 688,-275.5 688,-256.5 622,-256.5"/>
<text text-anchor="middle" x="655" y="-263.5" font-family="Helvetica,sans-Serif" font-size="10.00">State_Error</text>
</a>
</g>
</g>
<!-- Node12&#45;&gt;Node13 -->
<g id="edge12" class="edge">
<title>Node12&#45;&gt;Node13</title>
<path fill="none" stroke="midnightblue" d="M770.75,-289.42C743.3,-283.82 711.36,-277.3 688.16,-272.56"/>
<polygon fill="midnightblue" stroke="midnightblue" points="770.14,-292.87 780.64,-291.44 771.54,-286.01 770.14,-292.87"/>
</g>
<!-- Node14 -->
<g id="node14" class="node">
<title>Node14</title>
<g id="a_node14"><a xlink:href="group__buck-state-machine-function.html#ga295e97e4e4330b73f398e98d889d229d" target="_top" xlink:title=" ">
<polygon fill="white" stroke="black" points="619.5,-294.5 619.5,-313.5 690.5,-313.5 690.5,-294.5 619.5,-294.5"/>
<text text-anchor="middle" x="655" y="-301.5" font-family="Helvetica,sans-Serif" font-size="10.00">State_Reset</text>
</a>
</g>
</g>
<!-- Node12&#45;&gt;Node14 -->
<g id="edge13" class="edge">
<title>Node12&#45;&gt;Node14</title>
<path fill="none" stroke="midnightblue" d="M764.95,-302.09C739.92,-302.53 712.03,-303.02 690.74,-303.39"/>
<polygon fill="midnightblue" stroke="midnightblue" points="765.18,-305.59 775.11,-301.92 765.05,-298.59 765.18,-305.59"/>
</g>
<!-- Node16 -->
<g id="node16" class="node">
<title>Node16</title>
<g id="a_node16"><a xlink:href="group__power-handler-function.html#ga75498c59a10db0738113104a547d8d0d" target="_top" xlink:title="This function is the main buck converter state machine executing the most recent state.">
<polygon fill="white" stroke="black" points="586,-129.5 586,-148.5 724,-148.5 724,-129.5 586,-129.5"/>
<text text-anchor="middle" x="655" y="-136.5" font-family="Helvetica,sans-Serif" font-size="10.00">drv_BuckConverter_Execute</text>
</a>
</g>
</g>
<!-- Node15&#45;&gt;Node16 -->
<g id="edge15" class="edge">
<title>Node15&#45;&gt;Node16</title>
<path fill="none" stroke="midnightblue" d="M931.5,-146.99C871.15,-145.24 784.28,-142.72 724.29,-140.98"/>
<polygon fill="midnightblue" stroke="midnightblue" points="931.6,-150.49 941.69,-147.28 931.8,-143.49 931.6,-150.49"/>
</g>
<!-- Node17 -->
<g id="node17" class="node">
<title>Node17</title>
<g id="a_node17"><a xlink:href="group__main-loop.html#ga13094235dd6cc123d9299925359ca178" target="_top" xlink:title="This is the top&#45;level function call triggering the most recent state machine of all associated power ...">
<polygon fill="white" stroke="black" points="239,-185.5 239,-204.5 370,-204.5 370,-185.5 239,-185.5"/>
<text text-anchor="middle" x="304.5" y="-192.5" font-family="Helvetica,sans-Serif" font-size="10.00">appPowerSupply_Execute</text>
</a>
</g>
</g>
<!-- Node16&#45;&gt;Node17 -->
<g id="edge16" class="edge">
<title>Node16&#45;&gt;Node17</title>
<path fill="none" stroke="midnightblue" d="M584.43,-150.18C520.12,-160.51 425.57,-175.71 364.77,-185.48"/>
<polygon fill="midnightblue" stroke="midnightblue" points="585.17,-153.61 594.49,-148.56 584.06,-146.69 585.17,-153.61"/>
</g>
<!-- Node18 -->
<g id="node18" class="node">
<title>Node18</title>
<g id="a_node18"><a xlink:href="group__power-handler-function.html#gaf73787b6b72bc61786a39b9c7e47f6c6" target="_top" xlink:title=" ">
<polygon fill="white" stroke="black" points="409.5,-59.5 409.5,-78.5 547.5,-78.5 547.5,-59.5 409.5,-59.5"/>
<text text-anchor="middle" x="478.5" y="-66.5" font-family="Helvetica,sans-Serif" font-size="10.00">drv_BuckConverter_Resume</text>
</a>
</g>
</g>
<!-- Node16&#45;&gt;Node18 -->
<g id="edge18" class="edge">
<title>Node16&#45;&gt;Node18</title>
<path fill="none" stroke="midnightblue" d="M620.51,-125.57C586.2,-111.8 533.71,-90.75 503.39,-78.58"/>
<polygon fill="midnightblue" stroke="midnightblue" points="619.52,-128.94 630.1,-129.41 622.12,-122.44 619.52,-128.94"/>
</g>
<!-- Node21 -->
<g id="node21" class="node">
<title>Node21</title>
<g id="a_node21"><a xlink:href="group__power-handler-function.html#ga3287d86e7c3eecaa97d4bdf590ed0a15" target="_top" xlink:title=" ">
<polygon fill="white" stroke="black" points="408.5,-116.5 408.5,-135.5 548.5,-135.5 548.5,-116.5 408.5,-116.5"/>
<text text-anchor="middle" x="478.5" y="-123.5" font-family="Helvetica,sans-Serif" font-size="10.00">drv_BuckConverter_Suspend</text>
</a>
</g>
</g>
<!-- Node16&#45;&gt;Node21 -->
<g id="edge22" class="edge">
<title>Node16&#45;&gt;Node21</title>
<path fill="none" stroke="midnightblue" d="M575.65,-133.16C566.61,-132.49 557.44,-131.81 548.53,-131.14"/>
<polygon fill="midnightblue" stroke="midnightblue" points="575.55,-136.67 585.78,-133.92 576.07,-129.68 575.55,-136.67"/>
</g>
<!-- Node17&#45;&gt;Node8 -->
<g id="edge17" class="edge">
<title>Node17&#45;&gt;Node8</title>
<path fill="none" stroke="midnightblue" d="M228.68,-196.32C164.15,-197.46 75.62,-199.02 38.04,-199.68"/>
<polygon fill="midnightblue" stroke="midnightblue" points="228.88,-199.82 238.81,-196.14 228.75,-192.82 228.88,-199.82"/>
</g>
<!-- Node19 -->
<g id="node19" class="node">
<title>Node19</title>
<g id="a_node19"><a xlink:href="group__power-handler-function.html#ga3c7bf6b771bc1296401a270da4a95bff" target="_top" xlink:title=" ">
<polygon fill="white" stroke="black" points="239,-38.5 239,-57.5 370,-57.5 370,-38.5 239,-38.5"/>
<text text-anchor="middle" x="304.5" y="-45.5" font-family="Helvetica,sans-Serif" font-size="10.00">appPowerSupply_Resume</text>
</a>
</g>
</g>
<!-- Node18&#45;&gt;Node19 -->
<g id="edge19" class="edge">
<title>Node18&#45;&gt;Node19</title>
<path fill="none" stroke="midnightblue" d="M399.01,-59.42C389.34,-58.24 379.54,-57.04 370.1,-55.89"/>
<polygon fill="midnightblue" stroke="midnightblue" points="398.68,-62.9 409.03,-60.64 399.52,-55.95 398.68,-62.9"/>
</g>
<!-- Node20 -->
<g id="node20" class="node">
<title>Node20</title>
<g id="a_node20"><a xlink:href="group__main-loop.html#ga8842f6a41fe23f932a8864fc140c4b5b" target="_top" xlink:title="Application wide fault object monitoring routine.">
<polygon fill="white" stroke="black" points="74,-0.5 74,-19.5 202,-19.5 202,-0.5 74,-0.5"/>
<text text-anchor="middle" x="138" y="-7.5" font-family="Helvetica,sans-Serif" font-size="10.00">appFaultMonitor_Execute</text>
</a>
</g>
</g>
<!-- Node19&#45;&gt;Node20 -->
<g id="edge20" class="edge">
<title>Node19&#45;&gt;Node20</title>
<path fill="none" stroke="midnightblue" d="M252,-36.1C228.88,-30.76 201.97,-24.55 180.21,-19.52"/>
<polygon fill="midnightblue" stroke="midnightblue" points="251.46,-39.57 261.99,-38.41 253.03,-32.75 251.46,-39.57"/>
</g>
<!-- Node20&#45;&gt;Node8 -->
<g id="edge21" class="edge">
<title>Node20&#45;&gt;Node8</title>
<path fill="none" stroke="midnightblue" d="M78.69,-24.99C77.03,-26.22 75.46,-27.56 74,-29 27.25,-75.15 20.88,-161.39 20.09,-190.28"/>
<polygon fill="midnightblue" stroke="midnightblue" points="80.8,-27.79 87.54,-19.62 77.18,-21.81 80.8,-27.79"/>
</g>
<!-- Node22 -->
<g id="node22" class="node">
<title>Node22</title>
<g id="a_node22"><a xlink:href="group__power-handler-function.html#gafa4e90d260e60cf20f06acee067c39cd" target="_top" xlink:title=" ">
<polygon fill="white" stroke="black" points="238,-114.5 238,-133.5 371,-133.5 371,-114.5 238,-114.5"/>
<text text-anchor="middle" x="304.5" y="-121.5" font-family="Helvetica,sans-Serif" font-size="10.00">appPowerSupply_Suspend</text>
</a>
</g>
</g>
<!-- Node21&#45;&gt;Node22 -->
<g id="edge23" class="edge">
<title>Node21&#45;&gt;Node22</title>
<path fill="none" stroke="midnightblue" d="M397.94,-125.07C388.93,-124.97 379.84,-124.86 371.04,-124.76"/>
<polygon fill="midnightblue" stroke="midnightblue" points="398,-128.58 408.04,-125.19 398.08,-121.58 398,-128.58"/>
</g>
<!-- Node23 -->
<g id="node23" class="node">
<title>Node23</title>
<g id="a_node23"><a xlink:href="group__fault-handler-function.html#ga54f9db91ea0782b08aa16ee77a57c5e5" target="_top" xlink:title="Initializes the user&#45;defined fault objects for overcurrent protection.">
<polygon fill="white" stroke="black" points="90.5,-38.5 90.5,-57.5 185.5,-57.5 185.5,-38.5 90.5,-38.5"/>
<text text-anchor="middle" x="138" y="-45.5" font-family="Helvetica,sans-Serif" font-size="10.00">ocp_FaultInitialize</text>
</a>
</g>
</g>
<!-- Node22&#45;&gt;Node23 -->
<g id="edge24" class="edge">
<title>Node22&#45;&gt;Node23</title>
<path fill="none" stroke="midnightblue" d="M280.41,-109.1C260.3,-96.61 230.06,-78.94 202,-67 193.59,-63.42 184.28,-60.22 175.46,-57.52"/>
<polygon fill="midnightblue" stroke="midnightblue" points="278.56,-112.07 288.89,-114.44 282.29,-106.15 278.56,-112.07"/>
</g>
<!-- Node24 -->
<g id="node24" class="node">
<title>Node24</title>
<g id="a_node24"><a xlink:href="group__fault-handler-function.html#gade437244e8f6e5ff7c57a73442063350" target="_top" xlink:title="Initializes the user&#45;defined fault objects for overvoltage lockout.">
<polygon fill="white" stroke="black" points="90.5,-152.5 90.5,-171.5 185.5,-171.5 185.5,-152.5 90.5,-152.5"/>
<text text-anchor="middle" x="138" y="-159.5" font-family="Helvetica,sans-Serif" font-size="10.00">ovlo_FaultInitialize</text>
</a>
</g>
</g>
<!-- Node22&#45;&gt;Node24 -->
<g id="edge25" class="edge">
<title>Node22&#45;&gt;Node24</title>
<path fill="none" stroke="midnightblue" d="M252,-135.9C228.88,-141.24 201.97,-147.45 180.21,-152.48"/>
<polygon fill="midnightblue" stroke="midnightblue" points="253.03,-139.25 261.99,-133.59 251.46,-132.43 253.03,-139.25"/>
</g>
<!-- Node25 -->
<g id="node25" class="node">
<title>Node25</title>
<g id="a_node25"><a xlink:href="group__fault-handler-function.html#ga82dc317e3adac0308e5ac3f5ad321605" target="_top" xlink:title="Initializes the user&#45;defined fault objects for regulation error.">
<polygon fill="white" stroke="black" points="86,-114.5 86,-133.5 190,-133.5 190,-114.5 86,-114.5"/>
<text text-anchor="middle" x="138" y="-121.5" font-family="Helvetica,sans-Serif" font-size="10.00">regerr_FaultInitialize</text>
</a>
</g>
</g>
<!-- Node22&#45;&gt;Node25 -->
<g id="edge26" class="edge">
<title>Node22&#45;&gt;Node25</title>
<path fill="none" stroke="midnightblue" d="M227.44,-124C214.76,-124 201.89,-124 190.03,-124"/>
<polygon fill="midnightblue" stroke="midnightblue" points="227.54,-127.5 237.54,-124 227.54,-120.5 227.54,-127.5"/>
</g>
<!-- Node26 -->
<g id="node26" class="node">
<title>Node26</title>
<g id="a_node26"><a xlink:href="group__fault-handler-function.html#ga9441220f8a7d4a6805467d04b734e6b5" target="_top" xlink:title="Initializes the user&#45;defined fault objects for undervoltage lockout.">
<polygon fill="white" stroke="black" points="90.5,-76.5 90.5,-95.5 185.5,-95.5 185.5,-76.5 90.5,-76.5"/>
<text text-anchor="middle" x="138" y="-83.5" font-family="Helvetica,sans-Serif" font-size="10.00">uvlo_FaultInitialize</text>
</a>
</g>
</g>
<!-- Node22&#45;&gt;Node26 -->
<g id="edge27" class="edge">
<title>Node22&#45;&gt;Node26</title>
<path fill="none" stroke="midnightblue" d="M252,-112.1C228.88,-106.76 201.97,-100.55 180.21,-95.52"/>
<polygon fill="midnightblue" stroke="midnightblue" points="251.46,-115.57 261.99,-114.41 253.03,-108.75 251.46,-115.57"/>
</g>
<!-- Node27&#45;&gt;Node3 -->
<g id="edge29" class="edge">
<title>Node27&#45;&gt;Node3</title>
<path fill="none" stroke="midnightblue" d="M925.98,-263C910.33,-263 894.21,-263 879.72,-263"/>
<polygon fill="midnightblue" stroke="midnightblue" points="926.16,-266.5 936.16,-263 926.16,-259.5 926.16,-266.5"/>
</g>
<!-- Node29 -->
<g id="node29" class="node">
<title>Node29</title>
<g id="a_node29"><a xlink:href="group__buck-state-machine-function.html#ga63e41c37a567ac87b4630db7320842d0" target="_top" xlink:title=" ">
<polygon fill="white" stroke="black" points="760,-177.5 760,-196.5 897,-196.5 897,-177.5 760,-177.5"/>
<text text-anchor="middle" x="828.5" y="-184.5" font-family="Helvetica,sans-Serif" font-size="10.00">SubState_PowerGoodDelay</text>
</a>
</g>
</g>
<!-- Node28&#45;&gt;Node29 -->
<g id="edge31" class="edge">
<title>Node28&#45;&gt;Node29</title>
<path fill="none" stroke="midnightblue" d="M950.7,-187C934,-187 915.11,-187 897.31,-187"/>
<polygon fill="midnightblue" stroke="midnightblue" points="950.79,-190.5 960.79,-187 950.79,-183.5 950.79,-190.5"/>
</g>
<!-- Node30&#45;&gt;Node4 -->
<g id="edge33" class="edge">
<title>Node30&#45;&gt;Node4</title>
<path fill="none" stroke="midnightblue" d="M922.66,-225.68C862.71,-226.2 780.87,-226.91 723.73,-227.41"/>
<polygon fill="midnightblue" stroke="midnightblue" points="922.87,-229.18 932.84,-225.59 922.81,-222.18 922.87,-229.18"/>
</g>
</g>
</svg>
