<?xml version="1.0" encoding="UTF-8" standalone="no"?>
<!DOCTYPE svg PUBLIC "-//W3C//DTD SVG 1.1//EN"
 "http://www.w3.org/Graphics/SVG/1.1/DTD/svg11.dtd">
<!-- Generated by graphviz version 2.44.1 (20200629.0846)
 -->
<!-- Title: p33c_PwmModule_ConfigWrite Pages: 1 -->
<svg width="1080pt" height="110pt"
 viewBox="0.00 0.00 1080.00 109.50" xmlns="http://www.w3.org/2000/svg" xmlns:xlink="http://www.w3.org/1999/xlink">
<g id="graph0" class="graph" transform="scale(1 1) rotate(0) translate(4 105.5)">
<title>p33c_PwmModule_ConfigWrite</title>
<polygon fill="white" stroke="transparent" points="-4,4 -4,-105.5 1076,-105.5 1076,4 -4,4"/>
<!-- Node1 -->
<g id="node1" class="node">
<title>Node1</title>
<g id="a_node1"><a xlink:title="Writes a user&#45;defined configuration to the PWM base module registers.">
<polygon fill="#bfbfbf" stroke="black" points="920,-38.5 920,-57.5 1072,-57.5 1072,-38.5 920,-38.5"/>
<text text-anchor="middle" x="996" y="-45.5" font-family="Helvetica,sans-Serif" font-size="10.00">p33c_PwmModule_ConfigWrite</text>
</a>
</g>
</g>
<!-- Node2 -->
<g id="node2" class="node">
<title>Node2</title>
<g id="a_node2"><a xlink:href="group__power-handler-functions.html#ga1dedc10502a96efea6da9207f3416219" target="_top" xlink:title=" ">
<polygon fill="white" stroke="black" points="748.5,-76.5 748.5,-95.5 882.5,-95.5 882.5,-76.5 748.5,-76.5"/>
<text text-anchor="middle" x="815.5" y="-83.5" font-family="Helvetica,sans-Serif" font-size="10.00">buckPWM_ModuleInitialize</text>
</a>
</g>
</g>
<!-- Node1&#45;&gt;Node2 -->
<g id="edge1" class="edge">
<title>Node1&#45;&gt;Node2</title>
<path fill="none" stroke="midnightblue" d="M940.13,-59.68C914.82,-65.07 885.15,-71.39 861.22,-76.48"/>
<polygon fill="midnightblue" stroke="midnightblue" points="940.9,-63.09 949.96,-57.59 939.45,-56.25 940.9,-63.09"/>
</g>
<!-- Node8 -->
<g id="node8" class="node">
<title>Node8</title>
<g id="a_node8"><a xlink:href="group__pwm.html#gaba1347938240396848dc96019565697a" target="_top" xlink:title="Resets all PWM base module registers to their RESET default values.">
<polygon fill="white" stroke="black" points="747,-38.5 747,-57.5 884,-57.5 884,-38.5 747,-38.5"/>
<text text-anchor="middle" x="815.5" y="-45.5" font-family="Helvetica,sans-Serif" font-size="10.00">p33c_PwmModule_Dispose</text>
</a>
</g>
</g>
<!-- Node1&#45;&gt;Node8 -->
<g id="edge7" class="edge">
<title>Node1&#45;&gt;Node8</title>
<path fill="none" stroke="midnightblue" d="M909.79,-48C901.21,-48 892.58,-48 884.22,-48"/>
<polygon fill="midnightblue" stroke="midnightblue" points="909.82,-51.5 919.82,-48 909.82,-44.5 909.82,-51.5"/>
</g>
<!-- Node9 -->
<g id="node9" class="node">
<title>Node9</title>
<g id="a_node9"><a xlink:href="group__pwm.html#gac37fffb8ae34442da2ec54769ad31490" target="_top" xlink:title="Initializes the PWM base module by resetting all its registers to default.">
<polygon fill="white" stroke="black" points="747,-0.5 747,-19.5 884,-19.5 884,-0.5 747,-0.5"/>
<text text-anchor="middle" x="815.5" y="-7.5" font-family="Helvetica,sans-Serif" font-size="10.00">p33c_PwmModule_Initialize</text>
</a>
</g>
</g>
<!-- Node1&#45;&gt;Node9 -->
<g id="edge8" class="edge">
<title>Node1&#45;&gt;Node9</title>
<path fill="none" stroke="midnightblue" d="M940.13,-36.32C914.82,-30.93 885.15,-24.61 861.22,-19.52"/>
<polygon fill="midnightblue" stroke="midnightblue" points="939.45,-39.75 949.96,-38.41 940.9,-32.91 939.45,-39.75"/>
</g>
<!-- Node3 -->
<g id="node3" class="node">
<title>Node3</title>
<g id="a_node3"><a xlink:href="group__power-handler-functions.html#ga97eb8bdd17b9c2e169f0634ebabb5d19" target="_top" xlink:title="This function initializes all peripheral modules and their instances used by the power controller.">
<polygon fill="white" stroke="black" points="574,-76.5 574,-95.5 711,-95.5 711,-76.5 574,-76.5"/>
<text text-anchor="middle" x="642.5" y="-83.5" font-family="Helvetica,sans-Serif" font-size="10.00">drv_BuckConverter_Initialize</text>
</a>
</g>
</g>
<!-- Node2&#45;&gt;Node3 -->
<g id="edge2" class="edge">
<title>Node2&#45;&gt;Node3</title>
<path fill="none" stroke="midnightblue" d="M738.26,-86C729.22,-86 720.04,-86 711.13,-86"/>
<polygon fill="midnightblue" stroke="midnightblue" points="738.39,-89.5 748.39,-86 738.39,-82.5 738.39,-89.5"/>
</g>
<!-- Node4 -->
<g id="node4" class="node">
<title>Node4</title>
<g id="a_node4"><a xlink:href="group__power-control-app-layer-private.html#ga0b26acfec74d1804384b4ba1a3cffab4" target="_top" xlink:title="This function is used to load peripheral configuration templates from the power controller device dri...">
<polygon fill="white" stroke="black" points="395,-71 395,-101 538,-101 538,-71 395,-71"/>
<text text-anchor="start" x="403" y="-89" font-family="Helvetica,sans-Serif" font-size="10.00">appPowerSupply_Peripherals</text>
<text text-anchor="middle" x="466.5" y="-78" font-family="Helvetica,sans-Serif" font-size="10.00">Initialize</text>
</a>
</g>
</g>
<!-- Node3&#45;&gt;Node4 -->
<g id="edge3" class="edge">
<title>Node3&#45;&gt;Node4</title>
<path fill="none" stroke="midnightblue" d="M563.53,-86C555.11,-86 546.58,-86 538.25,-86"/>
<polygon fill="midnightblue" stroke="midnightblue" points="563.73,-89.5 573.73,-86 563.73,-82.5 563.73,-89.5"/>
</g>
<!-- Node5 -->
<g id="node5" class="node">
<title>Node5</title>
<g id="a_node5"><a xlink:href="group__power-control-app-layer-public.html#ga7a4cf6371d09457539f96a74b2809ca0" target="_top" xlink:title="Calls the application layer power controller initialization.">
<polygon fill="white" stroke="black" points="229,-76.5 229,-95.5 359,-95.5 359,-76.5 229,-76.5"/>
<text text-anchor="middle" x="294" y="-83.5" font-family="Helvetica,sans-Serif" font-size="10.00">appPowerSupply_Initialize</text>
</a>
</g>
</g>
<!-- Node4&#45;&gt;Node5 -->
<g id="edge4" class="edge">
<title>Node4&#45;&gt;Node5</title>
<path fill="none" stroke="midnightblue" d="M384.65,-86C376.06,-86 367.42,-86 359.07,-86"/>
<polygon fill="midnightblue" stroke="midnightblue" points="384.67,-89.5 394.67,-86 384.67,-82.5 384.67,-89.5"/>
</g>
<!-- Node6 -->
<g id="node6" class="node">
<title>Node6</title>
<g id="a_node6"><a xlink:href="group__system-initialization-user-tasks.html#ga2be64f5f0b9a2c0c6713f5a69d793e05" target="_top" xlink:title="Initializes the user&#45;defined tasks.">
<polygon fill="white" stroke="black" points="74,-76.5 74,-95.5 193,-95.5 193,-76.5 74,-76.5"/>
<text text-anchor="middle" x="133.5" y="-83.5" font-family="Helvetica,sans-Serif" font-size="10.00">sysUserTasks_Initialize</text>
</a>
</g>
</g>
<!-- Node5&#45;&gt;Node6 -->
<g id="edge5" class="edge">
<title>Node5&#45;&gt;Node6</title>
<path fill="none" stroke="midnightblue" d="M218.9,-86C210.25,-86 201.52,-86 193.12,-86"/>
<polygon fill="midnightblue" stroke="midnightblue" points="218.99,-89.5 228.99,-86 218.99,-82.5 218.99,-89.5"/>
</g>
<!-- Node7 -->
<g id="node7" class="node">
<title>Node7</title>
<g id="a_node7"><a xlink:href="group__firmware-flow.html#ga840291bc02cba5474a4cb46a9b9566fe" target="_top" xlink:title="Application main function executed after device comes out of RESET.">
<polygon fill="white" stroke="black" points="0,-76.5 0,-95.5 38,-95.5 38,-76.5 0,-76.5"/>
<text text-anchor="middle" x="19" y="-83.5" font-family="Helvetica,sans-Serif" font-size="10.00">main</text>
</a>
</g>
</g>
<!-- Node6&#45;&gt;Node7 -->
<g id="edge6" class="edge">
<title>Node6&#45;&gt;Node7</title>
<path fill="none" stroke="midnightblue" d="M63.65,-86C54.29,-86 45.43,-86 38.16,-86"/>
<polygon fill="midnightblue" stroke="midnightblue" points="63.94,-89.5 73.94,-86 63.94,-82.5 63.94,-89.5"/>
</g>
</g>
</svg>
