<?xml version="1.0" encoding="UTF-8" standalone="no"?>
<!DOCTYPE svg PUBLIC "-//W3C//DTD SVG 1.1//EN"
 "http://www.w3.org/Graphics/SVG/1.1/DTD/svg11.dtd">
<!-- Generated by graphviz version 2.44.1 (20200629.0846)
 -->
<!-- Title: Fault Handler Reference Pages: 1 -->
<svg width="297pt" height="113pt"
 viewBox="0.00 0.00 297.00 112.50" xmlns="http://www.w3.org/2000/svg" xmlns:xlink="http://www.w3.org/1999/xlink">
<g id="graph0" class="graph" transform="scale(1 1) rotate(0) translate(4 108.5)">
<title>Fault Handler Reference</title>
<polygon fill="white" stroke="transparent" points="-4,4 -4,-108.5 293,-108.5 293,4 -4,4"/>
<!-- Node2 -->
<g id="node1" class="node">
<title>Node2</title>
<g id="a_node1"><a xlink:href="group__fault-handler-enum.html" target="_top" xlink:title="Fault Handler Enumeration.">
<polygon fill="white" stroke="black" points="289,-104.5 157,-104.5 157,-85.5 289,-85.5 289,-104.5"/>
<text text-anchor="middle" x="223" y="-92.5" font-family="Helvetica,sans-Serif" font-size="10.00">Fault Handler Enumeration</text>
</a>
</g>
</g>
<!-- Node1 -->
<g id="node2" class="node">
<title>Node1</title>
<g id="a_node2"><a xlink:title="Fault Handler Reference.">
<polygon fill="#bfbfbf" stroke="black" points="121,-67.5 0,-67.5 0,-48.5 121,-48.5 121,-67.5"/>
<text text-anchor="middle" x="60.5" y="-55.5" font-family="Helvetica,sans-Serif" font-size="10.00">Fault Handler Reference</text>
</a>
</g>
</g>
<!-- Node1&#45;&gt;Node2 -->
<g id="edge1" class="edge">
<title>Node1&#45;&gt;Node2</title>
<path fill="none" stroke="black" d="M112.64,-69.79C134.55,-74.84 159.81,-80.66 180.53,-85.44"/>
<polygon fill="black" stroke="black" points="113.36,-66.36 102.83,-67.53 111.79,-73.19 113.36,-66.36"/>
</g>
<!-- Node4 -->
<g id="node3" class="node">
<title>Node4</title>
<g id="a_node3"><a xlink:href="group__fault-handler-function.html" target="_top" xlink:title="Fault Handler Functions.">
<polygon fill="white" stroke="black" points="283,-67.5 163,-67.5 163,-48.5 283,-48.5 283,-67.5"/>
<text text-anchor="middle" x="223" y="-55.5" font-family="Helvetica,sans-Serif" font-size="10.00">Fault Handler Functions</text>
</a>
</g>
</g>
<!-- Node1&#45;&gt;Node4 -->
<g id="edge3" class="edge">
<title>Node1&#45;&gt;Node4</title>
<path fill="none" stroke="black" d="M131.3,-58C141.86,-58 152.68,-58 162.99,-58"/>
<polygon fill="black" stroke="black" points="131.26,-54.5 121.26,-58 131.26,-61.5 131.26,-54.5"/>
</g>
<!-- Node3 -->
<g id="node4" class="node">
<title>Node3</title>
<g id="a_node4"><a xlink:href="group__fault-handler-struct.html" target="_top" xlink:title=" ">
<polygon fill="white" stroke="black" points="272,-30 174,-30 174,0 272,0 272,-30"/>
<text text-anchor="start" x="182" y="-18" font-family="Helvetica,sans-Serif" font-size="10.00">Fault Handler Data</text>
<text text-anchor="middle" x="223" y="-7" font-family="Helvetica,sans-Serif" font-size="10.00"> Structure</text>
</a>
</g>
</g>
<!-- Node1&#45;&gt;Node3 -->
<g id="edge2" class="edge">
<title>Node1&#45;&gt;Node3</title>
<path fill="none" stroke="black" d="M107.04,-45.8C127.97,-40.19 152.78,-33.54 174,-27.86"/>
<polygon fill="black" stroke="black" points="105.87,-42.49 97.12,-48.46 107.69,-49.25 105.87,-42.49"/>
</g>
</g>
</svg>
