<?xml version="1.0" encoding="UTF-8" standalone="no"?>
<!DOCTYPE svg PUBLIC "-//W3C//DTD SVG 1.1//EN"
 "http://www.w3.org/Graphics/SVG/1.1/DTD/svg11.dtd">
<!-- Generated by graphviz version 2.44.1 (20200629.0846)
 -->
<!-- Title: p33c_PwmGenerator_GetHandle Pages: 1 -->
<!--zoomable 218 -->
<svg id="main" version="1.1" xmlns="http://www.w3.org/2000/svg" xmlns:xlink="http://www.w3.org/1999/xlink" xml:space="preserve" onload="init(evt)">
<style type="text/css"><![CDATA[
.edge:hover path { stroke: red; }
.edge:hover polygon { stroke: red; fill: red; }
]]></style>
<script type="text/javascript"><![CDATA[
var edges = document.getElementsByTagName('g');
if (edges && edges.length) {
  for (var i=0;i<edges.length;i++) {
    if (edges[i].id.substr(0,4)=='edge') {
      edges[i].setAttribute('class','edge');
    }
  }
}
]]></script>
        <defs>
                <circle id="rim" cx="0" cy="0" r="7"/>
                <circle id="rim2" cx="0" cy="0" r="3.5"/>
                <g id="zoomPlus">
                        <use xlink:href="#rim" fill="#404040">
                                <set attributeName="fill" to="#808080" begin="zoomplus.mouseover" end="zoomplus.mouseout"/>
                        </use>
                        <path d="M-4,0h8M0,-4v8" fill="none" stroke="white" stroke-width="1.5" pointer-events="none"/>
                </g>
                <g id="zoomMin">
                        <use xlink:href="#rim" fill="#404040">
                                <set attributeName="fill" to="#808080" begin="zoomminus.mouseover" end="zoomminus.mouseout"/>
                        </use>
                        <path d="M-4,0h8" fill="none" stroke="white" stroke-width="1.5" pointer-events="none"/>
                </g>
                <g id="dirArrow">
                        <path fill="none" stroke="white" stroke-width="1.5" d="M0,-3.0v7 M-2.5,-0.5L0,-3.0L2.5,-0.5"/>
                </g>
               <g id="resetDef">
                       <use xlink:href="#rim2" fill="#404040">
                               <set attributeName="fill" to="#808080" begin="reset.mouseover" end="reset.mouseout"/>
                       </use>
               </g>
        </defs>

<script type="text/javascript">
var viewWidth = 1097;
var viewHeight = 218;
var sectionId = 'dynsection-4';
</script>
<script xlink:href="svgpan.js"/>
<svg id="graph" class="graph">
<g id="viewport">
<title>p33c_PwmGenerator_GetHandle</title>
<polygon fill="white" stroke="transparent" points="-4,4 -4,-214 1093,-214 1093,4 -4,4"/>
<!-- Node1 -->
<g id="node1" class="node">
<title>Node1</title>
<g id="a_node1"><a xlink:title="Returns the PWM generator index.">
<polygon fill="#bfbfbf" stroke="black" points="931,-95.5 931,-114.5 1089,-114.5 1089,-95.5 931,-95.5"/>
<text text-anchor="middle" x="1010" y="-102.5" font-family="Helvetica,sans-Serif" font-size="10.00">p33c_PwmGenerator_GetHandle</text>
</a>
</g>
</g>
<!-- Node2 -->
<g id="node2" class="node">
<title>Node2</title>
<g id="a_node2"><a xlink:href="group__power-handler-function.html#ga283487111ea685224a2caf350540daad" target="_top" xlink:title=" ">
<polygon fill="white" stroke="black" points="752,-190.5 752,-209.5 890,-209.5 890,-190.5 752,-190.5"/>
<text text-anchor="middle" x="821" y="-197.5" font-family="Helvetica,sans-Serif" font-size="10.00">buckPWM_ChannelInitialize</text>
</a>
</g>
</g>
<!-- Node1&#45;&gt;Node2 -->
<g id="edge1" class="edge">
<title>Node1&#45;&gt;Node2</title>
<path fill="none" stroke="midnightblue" d="M989.64,-120.87C967.86,-137.99 930.83,-164.94 895,-181 886.63,-184.75 877.39,-187.87 868.36,-190.42"/>
<polygon fill="midnightblue" stroke="midnightblue" points="991.83,-123.6 997.47,-114.62 987.47,-118.13 991.83,-123.6"/>
</g>
<!-- Node8 -->
<g id="node8" class="node">
<title>Node8</title>
<g id="a_node8"><a xlink:href="group__power-handler-function.html#ga474b1ea0d26dbfd268ec805a900c1c93" target="_top" xlink:title=" ">
<polygon fill="white" stroke="black" points="769,-152.5 769,-171.5 873,-171.5 873,-152.5 769,-152.5"/>
<text text-anchor="middle" x="821" y="-159.5" font-family="Helvetica,sans-Serif" font-size="10.00">buckPWM_Resume</text>
</a>
</g>
</g>
<!-- Node1&#45;&gt;Node8 -->
<g id="edge7" class="edge">
<title>Node1&#45;&gt;Node8</title>
<path fill="none" stroke="midnightblue" d="M972.27,-117.94C950.03,-125.6 921.02,-135.29 895,-143 883.95,-146.28 871.87,-149.54 860.78,-152.42"/>
<polygon fill="midnightblue" stroke="midnightblue" points="973.68,-121.16 981.98,-114.58 971.39,-114.54 973.68,-121.16"/>
</g>
<!-- Node10 -->
<g id="node10" class="node">
<title>Node10</title>
<g id="a_node10"><a xlink:href="group__power-handler-function.html#gae6c3c54562df6c9d941bab2bc98b2bf2" target="_top" xlink:title=" ">
<polygon fill="white" stroke="black" points="776.5,-114.5 776.5,-133.5 865.5,-133.5 865.5,-114.5 776.5,-114.5"/>
<text text-anchor="middle" x="821" y="-121.5" font-family="Helvetica,sans-Serif" font-size="10.00">buckPWM_Start</text>
</a>
</g>
</g>
<!-- Node1&#45;&gt;Node10 -->
<g id="edge9" class="edge">
<title>Node1&#45;&gt;Node10</title>
<path fill="none" stroke="midnightblue" d="M920.78,-113.96C901.57,-115.92 882.06,-117.9 865.52,-119.58"/>
<polygon fill="midnightblue" stroke="midnightblue" points="921.18,-117.44 930.78,-112.95 920.48,-110.48 921.18,-117.44"/>
</g>
<!-- Node13 -->
<g id="node13" class="node">
<title>Node13</title>
<g id="a_node13"><a xlink:href="group__power-handler-function.html#gaf5c603256fc12118fe63eb285676d95f" target="_top" xlink:title=" ">
<polygon fill="white" stroke="black" points="777,-76.5 777,-95.5 865,-95.5 865,-76.5 777,-76.5"/>
<text text-anchor="middle" x="821" y="-83.5" font-family="Helvetica,sans-Serif" font-size="10.00">buckPWM_Stop</text>
</a>
</g>
</g>
<!-- Node1&#45;&gt;Node13 -->
<g id="edge13" class="edge">
<title>Node1&#45;&gt;Node13</title>
<path fill="none" stroke="midnightblue" d="M920.73,-96.03C901.44,-94.07 881.84,-92.08 865.25,-90.39"/>
<polygon fill="midnightblue" stroke="midnightblue" points="920.48,-99.52 930.78,-97.05 921.18,-92.56 920.48,-99.52"/>
</g>
<!-- Node16 -->
<g id="node16" class="node">
<title>Node16</title>
<g id="a_node16"><a xlink:href="group__power-handler-function.html#gadd0533ee810246f6b84c7c31d9372835" target="_top" xlink:title=" ">
<polygon fill="white" stroke="black" points="768,-38.5 768,-57.5 874,-57.5 874,-38.5 768,-38.5"/>
<text text-anchor="middle" x="821" y="-45.5" font-family="Helvetica,sans-Serif" font-size="10.00">buckPWM_Suspend</text>
</a>
</g>
</g>
<!-- Node1&#45;&gt;Node16 -->
<g id="edge16" class="edge">
<title>Node1&#45;&gt;Node16</title>
<path fill="none" stroke="midnightblue" d="M972.27,-92.06C950.03,-84.4 921.02,-74.71 895,-67 883.95,-63.72 871.87,-60.46 860.78,-57.58"/>
<polygon fill="midnightblue" stroke="midnightblue" points="971.39,-95.46 981.98,-95.42 973.68,-88.84 971.39,-95.46"/>
</g>
<!-- Node19 -->
<g id="node19" class="node">
<title>Node19</title>
<g id="a_node19"><a xlink:href="group__pwm.html#ga62f7df614aacdb3d22b559a642e4a519" target="_top" xlink:title="Initializes a given PWM generator by resetting all its registers to default.">
<polygon fill="white" stroke="black" points="747,-0.5 747,-19.5 895,-19.5 895,-0.5 747,-0.5"/>
<text text-anchor="middle" x="821" y="-7.5" font-family="Helvetica,sans-Serif" font-size="10.00">p33c_PwmGenerator_Initialize</text>
</a>
</g>
</g>
<!-- Node1&#45;&gt;Node19 -->
<g id="edge19" class="edge">
<title>Node1&#45;&gt;Node19</title>
<path fill="none" stroke="midnightblue" d="M989.64,-89.13C967.86,-72.01 930.83,-45.06 895,-29 886.63,-25.25 877.39,-22.13 868.36,-19.58"/>
<polygon fill="midnightblue" stroke="midnightblue" points="987.47,-91.87 997.47,-95.38 991.83,-86.4 987.47,-91.87"/>
</g>
<!-- Node3 -->
<g id="node3" class="node">
<title>Node3</title>
<g id="a_node3"><a xlink:href="group__power-handler-function.html#ga97eb8bdd17b9c2e169f0634ebabb5d19" target="_top" xlink:title="This function initializes all peripheral modules and their instances used by the power controller.">
<polygon fill="white" stroke="black" points="574,-190.5 574,-209.5 711,-209.5 711,-190.5 574,-190.5"/>
<text text-anchor="middle" x="642.5" y="-197.5" font-family="Helvetica,sans-Serif" font-size="10.00">drv_BuckConverter_Initialize</text>
</a>
</g>
</g>
<!-- Node2&#45;&gt;Node3 -->
<g id="edge2" class="edge">
<title>Node2&#45;&gt;Node3</title>
<path fill="none" stroke="midnightblue" d="M741.69,-200C731.55,-200 721.22,-200 711.27,-200"/>
<polygon fill="midnightblue" stroke="midnightblue" points="741.76,-203.5 751.76,-200 741.76,-196.5 741.76,-203.5"/>
</g>
<!-- Node4 -->
<g id="node4" class="node">
<title>Node4</title>
<g id="a_node4"><a xlink:href="group__power-handler-function.html#ga0b26acfec74d1804384b4ba1a3cffab4" target="_top" xlink:title=" ">
<polygon fill="white" stroke="black" points="395,-177 395,-207 538,-207 538,-177 395,-177"/>
<text text-anchor="start" x="403" y="-195" font-family="Helvetica,sans-Serif" font-size="10.00">appPowerSupply_Peripherals</text>
<text text-anchor="middle" x="466.5" y="-184" font-family="Helvetica,sans-Serif" font-size="10.00">Initialize</text>
</a>
</g>
</g>
<!-- Node3&#45;&gt;Node4 -->
<g id="edge3" class="edge">
<title>Node3&#45;&gt;Node4</title>
<path fill="none" stroke="midnightblue" d="M563.53,-196.42C555.11,-196.03 546.58,-195.64 538.25,-195.25"/>
<polygon fill="midnightblue" stroke="midnightblue" points="563.58,-199.92 573.73,-196.88 563.9,-192.93 563.58,-199.92"/>
</g>
<!-- Node5 -->
<g id="node5" class="node">
<title>Node5</title>
<g id="a_node5"><a xlink:href="group__device-start-up.html#ga7a4cf6371d09457539f96a74b2809ca0" target="_top" xlink:title=" ">
<polygon fill="white" stroke="black" points="229,-152.5 229,-171.5 359,-171.5 359,-152.5 229,-152.5"/>
<text text-anchor="middle" x="294" y="-159.5" font-family="Helvetica,sans-Serif" font-size="10.00">appPowerSupply_Initialize</text>
</a>
</g>
</g>
<!-- Node4&#45;&gt;Node5 -->
<g id="edge4" class="edge">
<title>Node4&#45;&gt;Node5</title>
<path fill="none" stroke="midnightblue" d="M384.64,-177.77C372.63,-175.66 360.51,-173.53 349.23,-171.54"/>
<polygon fill="midnightblue" stroke="midnightblue" points="384.22,-181.25 394.67,-179.54 385.43,-174.36 384.22,-181.25"/>
</g>
<!-- Node6 -->
<g id="node6" class="node">
<title>Node6</title>
<g id="a_node6"><a xlink:href="group__system-initialization.html#ga2be64f5f0b9a2c0c6713f5a69d793e05" target="_top" xlink:title="Initializes the user&#45;defined tasks and chip resources.">
<polygon fill="white" stroke="black" points="74,-152.5 74,-171.5 193,-171.5 193,-152.5 74,-152.5"/>
<text text-anchor="middle" x="133.5" y="-159.5" font-family="Helvetica,sans-Serif" font-size="10.00">sysUserTasks_Initialize</text>
</a>
</g>
</g>
<!-- Node5&#45;&gt;Node6 -->
<g id="edge5" class="edge">
<title>Node5&#45;&gt;Node6</title>
<path fill="none" stroke="midnightblue" d="M218.9,-162C210.25,-162 201.52,-162 193.12,-162"/>
<polygon fill="midnightblue" stroke="midnightblue" points="218.99,-165.5 228.99,-162 218.99,-158.5 218.99,-165.5"/>
</g>
<!-- Node7 -->
<g id="node7" class="node">
<title>Node7</title>
<g id="a_node7"><a xlink:href="group__firmware-flow.html#ga840291bc02cba5474a4cb46a9b9566fe" target="_top" xlink:title="Application main function executed after device comes out of RESET.">
<polygon fill="white" stroke="black" points="0,-152.5 0,-171.5 38,-171.5 38,-152.5 0,-152.5"/>
<text text-anchor="middle" x="19" y="-159.5" font-family="Helvetica,sans-Serif" font-size="10.00">main</text>
</a>
</g>
</g>
<!-- Node6&#45;&gt;Node7 -->
<g id="edge6" class="edge">
<title>Node6&#45;&gt;Node7</title>
<path fill="none" stroke="midnightblue" d="M63.65,-162C54.29,-162 45.43,-162 38.16,-162"/>
<polygon fill="midnightblue" stroke="midnightblue" points="63.94,-165.5 73.94,-162 63.94,-158.5 63.94,-165.5"/>
</g>
<!-- Node9 -->
<g id="node9" class="node">
<title>Node9</title>
<g id="a_node9"><a xlink:href="group__buck-state-machine-function.html#ga132e8fe1f0e549608e16efb026cc8124" target="_top" xlink:title=" ">
<polygon fill="white" stroke="black" points="589,-152.5 589,-171.5 696,-171.5 696,-152.5 589,-152.5"/>
<text text-anchor="middle" x="642.5" y="-159.5" font-family="Helvetica,sans-Serif" font-size="10.00">SubState_VRampUp</text>
</a>
</g>
</g>
<!-- Node8&#45;&gt;Node9 -->
<g id="edge8" class="edge">
<title>Node8&#45;&gt;Node9</title>
<path fill="none" stroke="midnightblue" d="M758.83,-162C738.46,-162 715.96,-162 696.28,-162"/>
<polygon fill="midnightblue" stroke="midnightblue" points="758.95,-165.5 768.95,-162 758.95,-158.5 758.95,-165.5"/>
</g>
<!-- Node11 -->
<g id="node11" class="node">
<title>Node11</title>
<g id="a_node11"><a xlink:href="group__power-handler-function.html#ga8c05ea0ee077172e4025d8b7a36f5c9f" target="_top" xlink:title=" ">
<polygon fill="white" stroke="black" points="581,-114.5 581,-133.5 704,-133.5 704,-114.5 581,-114.5"/>
<text text-anchor="middle" x="642.5" y="-121.5" font-family="Helvetica,sans-Serif" font-size="10.00">drv_BuckConverter_Start</text>
</a>
</g>
</g>
<!-- Node10&#45;&gt;Node11 -->
<g id="edge10" class="edge">
<title>Node10&#45;&gt;Node11</title>
<path fill="none" stroke="midnightblue" d="M766.12,-124C746.58,-124 724.37,-124 704.27,-124"/>
<polygon fill="midnightblue" stroke="midnightblue" points="766.37,-127.5 776.37,-124 766.37,-120.5 766.37,-127.5"/>
</g>
<!-- Node12 -->
<g id="node12" class="node">
<title>Node12</title>
<g id="a_node12"><a xlink:href="group__power-handler-function.html#ga9210070749c2ed49abd8a30b27f64151" target="_top" xlink:title=" ">
<polygon fill="white" stroke="black" points="408.5,-122.5 408.5,-141.5 524.5,-141.5 524.5,-122.5 408.5,-122.5"/>
<text text-anchor="middle" x="466.5" y="-129.5" font-family="Helvetica,sans-Serif" font-size="10.00">appPowerSupply_Start</text>
</a>
</g>
</g>
<!-- Node11&#45;&gt;Node12 -->
<g id="edge11" class="edge">
<title>Node11&#45;&gt;Node12</title>
<path fill="none" stroke="midnightblue" d="M570.24,-127.28C555.01,-127.98 539.13,-128.71 524.53,-129.38"/>
<polygon fill="midnightblue" stroke="midnightblue" points="570.81,-130.75 580.64,-126.8 570.49,-123.76 570.81,-130.75"/>
</g>
<!-- Node12&#45;&gt;Node5 -->
<g id="edge12" class="edge">
<title>Node12&#45;&gt;Node5</title>
<path fill="none" stroke="midnightblue" d="M401.16,-143.32C384.04,-146.33 365.71,-149.56 349.19,-152.46"/>
<polygon fill="midnightblue" stroke="midnightblue" points="401.84,-146.75 411.08,-141.57 400.63,-139.86 401.84,-146.75"/>
</g>
<!-- Node14 -->
<g id="node14" class="node">
<title>Node14</title>
<g id="a_node14"><a xlink:href="group__power-handler-function.html#gaa865d025fb1e5ae1e16e0c519c6ba9a2" target="_top" xlink:title=" ">
<polygon fill="white" stroke="black" points="581.5,-76.5 581.5,-95.5 703.5,-95.5 703.5,-76.5 581.5,-76.5"/>
<text text-anchor="middle" x="642.5" y="-83.5" font-family="Helvetica,sans-Serif" font-size="10.00">drv_BuckConverter_Stop</text>
</a>
</g>
</g>
<!-- Node13&#45;&gt;Node14 -->
<g id="edge14" class="edge">
<title>Node13&#45;&gt;Node14</title>
<path fill="none" stroke="midnightblue" d="M766.69,-86C746.78,-86 724.04,-86 703.56,-86"/>
<polygon fill="midnightblue" stroke="midnightblue" points="766.82,-89.5 776.82,-86 766.82,-82.5 766.82,-89.5"/>
</g>
<!-- Node15 -->
<g id="node15" class="node">
<title>Node15</title>
<g id="a_node15"><a xlink:href="group__power-handler-function.html#gaa7d413f62f7b5f25d152cc12354241f0" target="_top" xlink:title=" ">
<polygon fill="white" stroke="black" points="409,-76.5 409,-95.5 524,-95.5 524,-76.5 409,-76.5"/>
<text text-anchor="middle" x="466.5" y="-83.5" font-family="Helvetica,sans-Serif" font-size="10.00">appPowerSupply_Stop</text>
</a>
</g>
</g>
<!-- Node14&#45;&gt;Node15 -->
<g id="edge15" class="edge">
<title>Node14&#45;&gt;Node15</title>
<path fill="none" stroke="midnightblue" d="M571.03,-86C555.48,-86 539.19,-86 524.25,-86"/>
<polygon fill="midnightblue" stroke="midnightblue" points="571.13,-89.5 581.13,-86 571.13,-82.5 571.13,-89.5"/>
</g>
<!-- Node17 -->
<g id="node17" class="node">
<title>Node17</title>
<g id="a_node17"><a xlink:href="group__buck-state-machine-function.html#ga7851b6ab25e86f56cb2056e4aac43c5c" target="_top" xlink:title=" ">
<polygon fill="white" stroke="black" points="609.5,-38.5 609.5,-57.5 675.5,-57.5 675.5,-38.5 609.5,-38.5"/>
<text text-anchor="middle" x="642.5" y="-45.5" font-family="Helvetica,sans-Serif" font-size="10.00">State_Error</text>
</a>
</g>
</g>
<!-- Node16&#45;&gt;Node17 -->
<g id="edge17" class="edge">
<title>Node16&#45;&gt;Node17</title>
<path fill="none" stroke="midnightblue" d="M757.97,-48C730.22,-48 698.67,-48 675.73,-48"/>
<polygon fill="midnightblue" stroke="midnightblue" points="758,-51.5 768,-48 758,-44.5 758,-51.5"/>
</g>
<!-- Node18 -->
<g id="node18" class="node">
<title>Node18</title>
<g id="a_node18"><a xlink:href="group__buck-state-machine-function.html#ga295e97e4e4330b73f398e98d889d229d" target="_top" xlink:title=" ">
<polygon fill="white" stroke="black" points="607,-0.5 607,-19.5 678,-19.5 678,-0.5 607,-0.5"/>
<text text-anchor="middle" x="642.5" y="-7.5" font-family="Helvetica,sans-Serif" font-size="10.00">State_Reset</text>
</a>
</g>
</g>
<!-- Node16&#45;&gt;Node18 -->
<g id="edge18" class="edge">
<title>Node16&#45;&gt;Node18</title>
<path fill="none" stroke="midnightblue" d="M765.62,-36.29C737.05,-30.14 702.91,-22.79 678,-17.43"/>
<polygon fill="midnightblue" stroke="midnightblue" points="764.95,-39.73 775.46,-38.41 766.42,-32.88 764.95,-39.73"/>
</g>
</g>
</svg>
        <g id="navigator" transform="translate(0 0)" fill="#404254">
                <rect fill="#f2f5e9" fill-opacity="0.5" stroke="#606060" stroke-width=".5" x="0" y="0" width="60" height="60"/>
                <use id="zoomplus" xlink:href="#zoomPlus" x="17" y="9" onmousedown="handleZoom(evt,'in')"/>
                <use id="zoomminus" xlink:href="#zoomMin" x="42" y="9" onmousedown="handleZoom(evt,'out')"/>
                <use id="reset" xlink:href="#resetDef" x="30" y="36" onmousedown="handleReset()"/>
                <g id="arrowUp" xlink:href="#dirArrow" transform="translate(30 24)" onmousedown="handlePan(0,-1)">
                  <use xlink:href="#rim" fill="#404040">
                        <set attributeName="fill" to="#808080" begin="arrowUp.mouseover" end="arrowUp.mouseout"/>
                  </use>
                  <path fill="none" stroke="white" stroke-width="1.5" d="M0,-3.0v7 M-2.5,-0.5L0,-3.0L2.5,-0.5"/>
                </g>
                <g id="arrowRight" xlink:href="#dirArrow" transform="rotate(90) translate(36 -43)" onmousedown="handlePan(1,0)">
                  <use xlink:href="#rim" fill="#404040">
                        <set attributeName="fill" to="#808080" begin="arrowRight.mouseover" end="arrowRight.mouseout"/>
                  </use>
                  <path fill="none" stroke="white" stroke-width="1.5" d="M0,-3.0v7 M-2.5,-0.5L0,-3.0L2.5,-0.5"/>
                </g>
                <g id="arrowDown" xlink:href="#dirArrow" transform="rotate(180) translate(-30 -48)" onmousedown="handlePan(0,1)">
                  <use xlink:href="#rim" fill="#404040">
                        <set attributeName="fill" to="#808080" begin="arrowDown.mouseover" end="arrowDown.mouseout"/>
                  </use>
                  <path fill="none" stroke="white" stroke-width="1.5" d="M0,-3.0v7 M-2.5,-0.5L0,-3.0L2.5,-0.5"/>
                </g>
                <g id="arrowLeft" xlink:href="#dirArrow" transform="rotate(270) translate(-36 17)" onmousedown="handlePan(-1,0)">
                  <use xlink:href="#rim" fill="#404040">
                        <set attributeName="fill" to="#808080" begin="arrowLeft.mouseover" end="arrowLeft.mouseout"/>
                  </use>
                  <path fill="none" stroke="white" stroke-width="1.5" d="M0,-3.0v7 M-2.5,-0.5L0,-3.0L2.5,-0.5"/>
                </g>
        </g>
        <svg viewBox="0 0 15 15" width="100%" height="30px" preserveAspectRatio="xMaxYMin meet">
         <g id="arrow_out" transform="scale(0.3 0.3)">
          <a xlink:href="group__pwm_ga8aa18df01ada60e1faac049c5eb34700_icgraph_org.svg" target="_base">
           <rect id="button" ry="5" rx="5" y="6" x="6" height="38" width="38"
                fill="#f2f5e9" fill-opacity="0.5" stroke="#606060" stroke-width="1.0"/>
           <path id="arrow"
             d="M 11.500037,31.436501 C 11.940474,20.09759 22.043105,11.32322 32.158766,21.979434 L 37.068811,17.246167 C 37.068811,17.246167 37.088388,32 37.088388,32 L 22.160133,31.978069 C 22.160133,31.978069 26.997745,27.140456 26.997745,27.140456 C 18.528582,18.264221 13.291696,25.230495 11.500037,31.436501 z"
             style="fill:#404040;"/>
          </a>
         </g>
        </svg>
</svg>
