<?xml version="1.0" encoding="UTF-8" standalone="no"?>
<!DOCTYPE svg PUBLIC "-//W3C//DTD SVG 1.1//EN"
 "http://www.w3.org/Graphics/SVG/1.1/DTD/svg11.dtd">
<!-- Generated by graphviz version 2.44.1 (20200629.0846)
 -->
<!-- Title: p33c_PwmGenerator_GetHandle Pages: 1 -->
<svg width="1023pt" height="218pt"
 viewBox="0.00 0.00 1023.00 218.00" xmlns="http://www.w3.org/2000/svg" xmlns:xlink="http://www.w3.org/1999/xlink">
<g id="graph0" class="graph" transform="scale(1 1) rotate(0) translate(4 214)">
<title>p33c_PwmGenerator_GetHandle</title>
<polygon fill="white" stroke="transparent" points="-4,4 -4,-214 1019,-214 1019,4 -4,4"/>
<!-- Node1 -->
<g id="node1" class="node">
<title>Node1</title>
<g id="a_node1"><a xlink:title="Returns the PWM generator index.">
<polygon fill="#bfbfbf" stroke="black" points="857,-95.5 857,-114.5 1015,-114.5 1015,-95.5 857,-95.5"/>
<text text-anchor="middle" x="936" y="-102.5" font-family="Helvetica,sans-Serif" font-size="10.00">p33c_PwmGenerator_GetHandle</text>
</a>
</g>
</g>
<!-- Node2 -->
<g id="node2" class="node">
<title>Node2</title>
<g id="a_node2"><a xlink:href="group__lib-layer-buck-config-functions-public_ga6db1f45d724b91db22ed0d17b868a8f9.html#ga6db1f45d724b91db22ed0d17b868a8f9" target="_top" xlink:title="This function initializes the output pins for the PWM output and the default buck PWM settings.">
<polygon fill="white" stroke="black" points="678,-190.5 678,-209.5 816,-209.5 816,-190.5 678,-190.5"/>
<text text-anchor="middle" x="747" y="-197.5" font-family="Helvetica,sans-Serif" font-size="10.00">buckPWM_ChannelInitialize</text>
</a>
</g>
</g>
<!-- Node1&#45;&gt;Node2 -->
<g id="edge1" class="edge">
<title>Node1&#45;&gt;Node2</title>
<path fill="none" stroke="midnightblue" d="M915.64,-120.87C893.86,-137.99 856.83,-164.94 821,-181 812.63,-184.75 803.39,-187.87 794.36,-190.42"/>
<polygon fill="midnightblue" stroke="midnightblue" points="917.83,-123.6 923.47,-114.62 913.47,-118.13 917.83,-123.6"/>
</g>
<!-- Node7 -->
<g id="node7" class="node">
<title>Node7</title>
<g id="a_node7"><a xlink:href="group__lib-layer-buck-config-functions-public_gaff06449235577b05c28639b3590f6b18.html#gaff06449235577b05c28639b3590f6b18" target="_top" xlink:title="This function resumes the buck PWM operation.">
<polygon fill="white" stroke="black" points="695,-152.5 695,-171.5 799,-171.5 799,-152.5 695,-152.5"/>
<text text-anchor="middle" x="747" y="-159.5" font-family="Helvetica,sans-Serif" font-size="10.00">buckPWM_Resume</text>
</a>
</g>
</g>
<!-- Node1&#45;&gt;Node7 -->
<g id="edge6" class="edge">
<title>Node1&#45;&gt;Node7</title>
<path fill="none" stroke="midnightblue" d="M898.27,-117.94C876.03,-125.6 847.02,-135.29 821,-143 809.95,-146.28 797.87,-149.54 786.78,-152.42"/>
<polygon fill="midnightblue" stroke="midnightblue" points="899.68,-121.16 907.98,-114.58 897.39,-114.54 899.68,-121.16"/>
</g>
<!-- Node9 -->
<g id="node9" class="node">
<title>Node9</title>
<g id="a_node9"><a xlink:href="group__lib-layer-buck-config-functions-public_gab7e23719696d2148f9336ca604486db3.html#gab7e23719696d2148f9336ca604486db3" target="_top" xlink:title="This function enables the buck PWM operation.">
<polygon fill="white" stroke="black" points="702.5,-114.5 702.5,-133.5 791.5,-133.5 791.5,-114.5 702.5,-114.5"/>
<text text-anchor="middle" x="747" y="-121.5" font-family="Helvetica,sans-Serif" font-size="10.00">buckPWM_Start</text>
</a>
</g>
</g>
<!-- Node1&#45;&gt;Node9 -->
<g id="edge8" class="edge">
<title>Node1&#45;&gt;Node9</title>
<path fill="none" stroke="midnightblue" d="M846.78,-113.96C827.57,-115.92 808.06,-117.9 791.52,-119.58"/>
<polygon fill="midnightblue" stroke="midnightblue" points="847.18,-117.44 856.78,-112.95 846.48,-110.48 847.18,-117.44"/>
</g>
<!-- Node12 -->
<g id="node12" class="node">
<title>Node12</title>
<g id="a_node12"><a xlink:href="group__lib-layer-buck-config-functions-public_ga95896fb30d5fbdbaf4d4298fd7fe152b.html#ga95896fb30d5fbdbaf4d4298fd7fe152b" target="_top" xlink:title="This function stops the buck PWM output.">
<polygon fill="white" stroke="black" points="703,-76.5 703,-95.5 791,-95.5 791,-76.5 703,-76.5"/>
<text text-anchor="middle" x="747" y="-83.5" font-family="Helvetica,sans-Serif" font-size="10.00">buckPWM_Stop</text>
</a>
</g>
</g>
<!-- Node1&#45;&gt;Node12 -->
<g id="edge12" class="edge">
<title>Node1&#45;&gt;Node12</title>
<path fill="none" stroke="midnightblue" d="M846.73,-96.03C827.44,-94.07 807.84,-92.08 791.25,-90.39"/>
<polygon fill="midnightblue" stroke="midnightblue" points="846.48,-99.52 856.78,-97.05 847.18,-92.56 846.48,-99.52"/>
</g>
<!-- Node15 -->
<g id="node15" class="node">
<title>Node15</title>
<g id="a_node15"><a xlink:href="group__lib-layer-buck-config-functions-public_ga2c5e8b5e629a6f34be5fafbc1be0b239.html#ga2c5e8b5e629a6f34be5fafbc1be0b239" target="_top" xlink:title="This function disables the PWM generator IOs.">
<polygon fill="white" stroke="black" points="694,-38.5 694,-57.5 800,-57.5 800,-38.5 694,-38.5"/>
<text text-anchor="middle" x="747" y="-45.5" font-family="Helvetica,sans-Serif" font-size="10.00">buckPWM_Suspend</text>
</a>
</g>
</g>
<!-- Node1&#45;&gt;Node15 -->
<g id="edge15" class="edge">
<title>Node1&#45;&gt;Node15</title>
<path fill="none" stroke="midnightblue" d="M898.27,-92.06C876.03,-84.4 847.02,-74.71 821,-67 809.95,-63.72 797.87,-60.46 786.78,-57.58"/>
<polygon fill="midnightblue" stroke="midnightblue" points="897.39,-95.46 907.98,-95.42 899.68,-88.84 897.39,-95.46"/>
</g>
<!-- Node18 -->
<g id="node18" class="node">
<title>Node18</title>
<g id="a_node18"><a xlink:href="group__lib-layer-pral-functions-public-pwm_ga7f779276e0cf4c974267fdbb7c1ea86c.html#ga7f779276e0cf4c974267fdbb7c1ea86c" target="_top" xlink:title="Initializes a given PWM generator by resetting all its registers to default.">
<polygon fill="white" stroke="black" points="673,-0.5 673,-19.5 821,-19.5 821,-0.5 673,-0.5"/>
<text text-anchor="middle" x="747" y="-7.5" font-family="Helvetica,sans-Serif" font-size="10.00">p33c_PwmGenerator_Initialize</text>
</a>
</g>
</g>
<!-- Node1&#45;&gt;Node18 -->
<g id="edge18" class="edge">
<title>Node1&#45;&gt;Node18</title>
<path fill="none" stroke="midnightblue" d="M915.64,-89.13C893.86,-72.01 856.83,-45.06 821,-29 812.63,-25.25 803.39,-22.13 794.36,-19.58"/>
<polygon fill="midnightblue" stroke="midnightblue" points="913.47,-91.87 923.47,-95.38 917.83,-86.4 913.47,-91.87"/>
</g>
<!-- Node3 -->
<g id="node3" class="node">
<title>Node3</title>
<g id="a_node3"><a xlink:href="group__lib-layer-buck-converter-functions-public_ga97eb8bdd17b9c2e169f0634ebabb5d19.html#ga97eb8bdd17b9c2e169f0634ebabb5d19" target="_top" xlink:title="This function initializes all peripheral modules and their instances used by the power controller.">
<polygon fill="white" stroke="black" points="500,-190.5 500,-209.5 637,-209.5 637,-190.5 500,-190.5"/>
<text text-anchor="middle" x="568.5" y="-197.5" font-family="Helvetica,sans-Serif" font-size="10.00">drv_BuckConverter_Initialize</text>
</a>
</g>
</g>
<!-- Node2&#45;&gt;Node3 -->
<g id="edge2" class="edge">
<title>Node2&#45;&gt;Node3</title>
<path fill="none" stroke="midnightblue" d="M667.69,-200C657.55,-200 647.22,-200 637.27,-200"/>
<polygon fill="midnightblue" stroke="midnightblue" points="667.76,-203.5 677.76,-200 667.76,-196.5 667.76,-203.5"/>
</g>
<!-- Node4 -->
<g id="node4" class="node">
<title>Node4</title>
<g id="a_node4"><a xlink:href="group__app-layer-power-control-functions-private_ga0b26acfec74d1804384b4ba1a3cffab4.html#ga0b26acfec74d1804384b4ba1a3cffab4" target="_top" xlink:title="This function is used to load peripheral configuration templates from the power controller device dri...">
<polygon fill="white" stroke="black" points="321,-177 321,-207 464,-207 464,-177 321,-177"/>
<text text-anchor="start" x="329" y="-195" font-family="Helvetica,sans-Serif" font-size="10.00">appPowerSupply_Peripherals</text>
<text text-anchor="middle" x="392.5" y="-184" font-family="Helvetica,sans-Serif" font-size="10.00">Initialize</text>
</a>
</g>
</g>
<!-- Node3&#45;&gt;Node4 -->
<g id="edge3" class="edge">
<title>Node3&#45;&gt;Node4</title>
<path fill="none" stroke="midnightblue" d="M489.53,-196.42C481.11,-196.03 472.58,-195.64 464.25,-195.25"/>
<polygon fill="midnightblue" stroke="midnightblue" points="489.58,-199.92 499.73,-196.88 489.9,-192.93 489.58,-199.92"/>
</g>
<!-- Node5 -->
<g id="node5" class="node">
<title>Node5</title>
<g id="a_node5"><a xlink:href="group__app-layer-power-control-functions-public_ga7a4cf6371d09457539f96a74b2809ca0.html#ga7a4cf6371d09457539f96a74b2809ca0" target="_top" xlink:title="Calls the application layer power controller initialization.">
<polygon fill="white" stroke="black" points="155,-152.5 155,-171.5 285,-171.5 285,-152.5 155,-152.5"/>
<text text-anchor="middle" x="220" y="-159.5" font-family="Helvetica,sans-Serif" font-size="10.00">appPowerSupply_Initialize</text>
</a>
</g>
</g>
<!-- Node4&#45;&gt;Node5 -->
<g id="edge4" class="edge">
<title>Node4&#45;&gt;Node5</title>
<path fill="none" stroke="midnightblue" d="M310.64,-177.77C298.63,-175.66 286.51,-173.53 275.23,-171.54"/>
<polygon fill="midnightblue" stroke="midnightblue" points="310.22,-181.25 320.67,-179.54 311.43,-174.36 310.22,-181.25"/>
</g>
<!-- Node6 -->
<g id="node6" class="node">
<title>Node6</title>
<g id="a_node6"><a xlink:href="group__user-task-initialization_ga2be64f5f0b9a2c0c6713f5a69d793e05.html#ga2be64f5f0b9a2c0c6713f5a69d793e05" target="_top" xlink:title="Initializes the user&#45;defined tasks.">
<polygon fill="white" stroke="black" points="0,-152.5 0,-171.5 119,-171.5 119,-152.5 0,-152.5"/>
<text text-anchor="middle" x="59.5" y="-159.5" font-family="Helvetica,sans-Serif" font-size="10.00">sysUserTasks_Initialize</text>
</a>
</g>
</g>
<!-- Node5&#45;&gt;Node6 -->
<g id="edge5" class="edge">
<title>Node5&#45;&gt;Node6</title>
<path fill="none" stroke="midnightblue" d="M144.9,-162C136.25,-162 127.52,-162 119.12,-162"/>
<polygon fill="midnightblue" stroke="midnightblue" points="144.99,-165.5 154.99,-162 144.99,-158.5 144.99,-165.5"/>
</g>
<!-- Node8 -->
<g id="node8" class="node">
<title>Node8</title>
<g id="a_node8"><a xlink:href="group__lib-layer-buck-states-functions-private_gabf2f209cbf6c151d042773766d7d0b1e.html#gabf2f209cbf6c151d042773766d7d0b1e" target="_top" xlink:title="This function ramps up the output voltage to its nominal regualtion point.">
<polygon fill="white" stroke="black" points="515,-152.5 515,-171.5 622,-171.5 622,-152.5 515,-152.5"/>
<text text-anchor="middle" x="568.5" y="-159.5" font-family="Helvetica,sans-Serif" font-size="10.00">SubState_VRampUp</text>
</a>
</g>
</g>
<!-- Node7&#45;&gt;Node8 -->
<g id="edge7" class="edge">
<title>Node7&#45;&gt;Node8</title>
<path fill="none" stroke="midnightblue" d="M684.83,-162C664.46,-162 641.96,-162 622.28,-162"/>
<polygon fill="midnightblue" stroke="midnightblue" points="684.95,-165.5 694.95,-162 684.95,-158.5 684.95,-165.5"/>
</g>
<!-- Node10 -->
<g id="node10" class="node">
<title>Node10</title>
<g id="a_node10"><a xlink:href="group__lib-layer-buck-converter-functions-public_ga8c05ea0ee077172e4025d8b7a36f5c9f.html#ga8c05ea0ee077172e4025d8b7a36f5c9f" target="_top" xlink:title="This function starts the buck converter.">
<polygon fill="white" stroke="black" points="507,-114.5 507,-133.5 630,-133.5 630,-114.5 507,-114.5"/>
<text text-anchor="middle" x="568.5" y="-121.5" font-family="Helvetica,sans-Serif" font-size="10.00">drv_BuckConverter_Start</text>
</a>
</g>
</g>
<!-- Node9&#45;&gt;Node10 -->
<g id="edge9" class="edge">
<title>Node9&#45;&gt;Node10</title>
<path fill="none" stroke="midnightblue" d="M692.12,-124C672.58,-124 650.37,-124 630.27,-124"/>
<polygon fill="midnightblue" stroke="midnightblue" points="692.37,-127.5 702.37,-124 692.37,-120.5 692.37,-127.5"/>
</g>
<!-- Node11 -->
<g id="node11" class="node">
<title>Node11</title>
<g id="a_node11"><a xlink:href="group__app-layer-power-control-functions-public_ga9210070749c2ed49abd8a30b27f64151.html#ga9210070749c2ed49abd8a30b27f64151" target="_top" xlink:title="This function calls the buck converter device driver function starting the power supply.">
<polygon fill="white" stroke="black" points="334.5,-122.5 334.5,-141.5 450.5,-141.5 450.5,-122.5 334.5,-122.5"/>
<text text-anchor="middle" x="392.5" y="-129.5" font-family="Helvetica,sans-Serif" font-size="10.00">appPowerSupply_Start</text>
</a>
</g>
</g>
<!-- Node10&#45;&gt;Node11 -->
<g id="edge10" class="edge">
<title>Node10&#45;&gt;Node11</title>
<path fill="none" stroke="midnightblue" d="M496.24,-127.28C481.01,-127.98 465.13,-128.71 450.53,-129.38"/>
<polygon fill="midnightblue" stroke="midnightblue" points="496.81,-130.75 506.64,-126.8 496.49,-123.76 496.81,-130.75"/>
</g>
<!-- Node11&#45;&gt;Node5 -->
<g id="edge11" class="edge">
<title>Node11&#45;&gt;Node5</title>
<path fill="none" stroke="midnightblue" d="M327.16,-143.32C310.04,-146.33 291.71,-149.56 275.19,-152.46"/>
<polygon fill="midnightblue" stroke="midnightblue" points="327.84,-146.75 337.08,-141.57 326.63,-139.86 327.84,-146.75"/>
</g>
<!-- Node13 -->
<g id="node13" class="node">
<title>Node13</title>
<g id="a_node13"><a xlink:href="group__lib-layer-buck-converter-functions-public_gaa865d025fb1e5ae1e16e0c519c6ba9a2.html#gaa865d025fb1e5ae1e16e0c519c6ba9a2" target="_top" xlink:title="This function stop the buck converter opration.">
<polygon fill="white" stroke="black" points="507.5,-76.5 507.5,-95.5 629.5,-95.5 629.5,-76.5 507.5,-76.5"/>
<text text-anchor="middle" x="568.5" y="-83.5" font-family="Helvetica,sans-Serif" font-size="10.00">drv_BuckConverter_Stop</text>
</a>
</g>
</g>
<!-- Node12&#45;&gt;Node13 -->
<g id="edge13" class="edge">
<title>Node12&#45;&gt;Node13</title>
<path fill="none" stroke="midnightblue" d="M692.69,-86C672.78,-86 650.04,-86 629.56,-86"/>
<polygon fill="midnightblue" stroke="midnightblue" points="692.82,-89.5 702.82,-86 692.82,-82.5 692.82,-89.5"/>
</g>
<!-- Node14 -->
<g id="node14" class="node">
<title>Node14</title>
<g id="a_node14"><a xlink:href="group__app-layer-power-control-functions-public_gaa7d413f62f7b5f25d152cc12354241f0.html#gaa7d413f62f7b5f25d152cc12354241f0" target="_top" xlink:title="This function calls the buck converter device driver function stopping the power supply.">
<polygon fill="white" stroke="black" points="335,-76.5 335,-95.5 450,-95.5 450,-76.5 335,-76.5"/>
<text text-anchor="middle" x="392.5" y="-83.5" font-family="Helvetica,sans-Serif" font-size="10.00">appPowerSupply_Stop</text>
</a>
</g>
</g>
<!-- Node13&#45;&gt;Node14 -->
<g id="edge14" class="edge">
<title>Node13&#45;&gt;Node14</title>
<path fill="none" stroke="midnightblue" d="M497.03,-86C481.48,-86 465.19,-86 450.25,-86"/>
<polygon fill="midnightblue" stroke="midnightblue" points="497.13,-89.5 507.13,-86 497.13,-82.5 497.13,-89.5"/>
</g>
<!-- Node16 -->
<g id="node16" class="node">
<title>Node16</title>
<g id="a_node16"><a xlink:href="group__lib-layer-buck-states-functions-private_gab66e9c54a2ea2b61da89d685dcfd762a.html#gab66e9c54a2ea2b61da89d685dcfd762a" target="_top" xlink:title="If this function is called, the state machine is reset to INITIALIZE (URL=State_Initialize).">
<polygon fill="white" stroke="black" points="535.5,-38.5 535.5,-57.5 601.5,-57.5 601.5,-38.5 535.5,-38.5"/>
<text text-anchor="middle" x="568.5" y="-45.5" font-family="Helvetica,sans-Serif" font-size="10.00">State_Error</text>
</a>
</g>
</g>
<!-- Node15&#45;&gt;Node16 -->
<g id="edge16" class="edge">
<title>Node15&#45;&gt;Node16</title>
<path fill="none" stroke="midnightblue" d="M683.97,-48C656.22,-48 624.67,-48 601.73,-48"/>
<polygon fill="midnightblue" stroke="midnightblue" points="684,-51.5 694,-48 684,-44.5 684,-51.5"/>
</g>
<!-- Node17 -->
<g id="node17" class="node">
<title>Node17</title>
<g id="a_node17"><a xlink:href="group__lib-layer-buck-states-functions-private_gaf15793c9a89f54051199f362f29a353e.html#gaf15793c9a89f54051199f362f29a353e" target="_top" xlink:title="This function resets the buck control operation by re&#45;initiating the control mode,...">
<polygon fill="white" stroke="black" points="533,-0.5 533,-19.5 604,-19.5 604,-0.5 533,-0.5"/>
<text text-anchor="middle" x="568.5" y="-7.5" font-family="Helvetica,sans-Serif" font-size="10.00">State_Reset</text>
</a>
</g>
</g>
<!-- Node15&#45;&gt;Node17 -->
<g id="edge17" class="edge">
<title>Node15&#45;&gt;Node17</title>
<path fill="none" stroke="midnightblue" d="M691.62,-36.29C663.05,-30.14 628.91,-22.79 604,-17.43"/>
<polygon fill="midnightblue" stroke="midnightblue" points="690.95,-39.73 701.46,-38.41 692.42,-32.88 690.95,-39.73"/>
</g>
</g>
</svg>
