<?xml version="1.0" encoding="UTF-8" standalone="no"?>
<!DOCTYPE svg PUBLIC "-//W3C//DTD SVG 1.1//EN"
 "http://www.w3.org/Graphics/SVG/1.1/DTD/svg11.dtd">
<!-- Generated by graphviz version 2.44.1 (20200629.0846)
 -->
<!-- Title: Buck Converter Library Pages: 1 -->
<svg width="449pt" height="175pt"
 viewBox="0.00 0.00 449.00 175.00" xmlns="http://www.w3.org/2000/svg" xmlns:xlink="http://www.w3.org/1999/xlink">
<g id="graph0" class="graph" transform="scale(1 1) rotate(0) translate(4 171)">
<title>Buck Converter Library</title>
<polygon fill="white" stroke="transparent" points="-4,4 -4,-171 445,-171 445,4 -4,4"/>
<!-- Node3 -->
<g id="node1" class="node">
<title>Node3</title>
<g id="a_node1"><a xlink:href="group__lib-layer-buck-converter.html" target="_top" xlink:title=" ">
<polygon fill="white" stroke="black" points="407.5,-167 324.5,-167 324.5,-148 407.5,-148 407.5,-167"/>
<text text-anchor="middle" x="366" y="-155" font-family="Helvetica,sans-Serif" font-size="10.00">Buck Converter</text>
</a>
</g>
</g>
<!-- Node6 -->
<g id="node2" class="node">
<title>Node6</title>
<g id="a_node2"><a xlink:href="group__lib-layer-buck-config.html" target="_top" xlink:title=" ">
<polygon fill="white" stroke="black" points="441,-130 291,-130 291,-111 441,-111 441,-130"/>
<text text-anchor="middle" x="366" y="-118" font-family="Helvetica,sans-Serif" font-size="10.00">Buck Peripheral Configurations</text>
</a>
</g>
</g>
<!-- Node5 -->
<g id="node3" class="node">
<title>Node5</title>
<g id="a_node3"><a xlink:href="group__lib-layer-buck-specialfn.html" target="_top" xlink:title=" ">
<polygon fill="white" stroke="black" points="426,-93 306,-93 306,-74 426,-74 426,-93"/>
<text text-anchor="middle" x="366" y="-81" font-family="Helvetica,sans-Serif" font-size="10.00">Buck Special Functions</text>
</a>
</g>
</g>
<!-- Node1 -->
<g id="node4" class="node">
<title>Node1</title>
<g id="a_node4"><a xlink:title=" ">
<polygon fill="#bfbfbf" stroke="black" points="255,-93 140,-93 140,-74 255,-74 255,-93"/>
<text text-anchor="middle" x="197.5" y="-81" font-family="Helvetica,sans-Serif" font-size="10.00">Buck Converter Library</text>
</a>
</g>
</g>
<!-- Node1&#45;&gt;Node3 -->
<g id="edge2" class="edge">
<title>Node1&#45;&gt;Node3</title>
<path fill="none" stroke="black" d="M219.91,-99.07C238.04,-111.6 265.14,-128.83 291,-139.5 301.51,-143.84 313.31,-147.29 324.35,-149.97"/>
<polygon fill="black" stroke="black" points="221.49,-95.9 211.3,-93.01 217.46,-101.63 221.49,-95.9"/>
</g>
<!-- Node1&#45;&gt;Node6 -->
<g id="edge5" class="edge">
<title>Node1&#45;&gt;Node6</title>
<path fill="none" stroke="black" d="M251.24,-95.22C274.04,-100.29 300.39,-106.14 321.98,-110.94"/>
<polygon fill="black" stroke="black" points="251.9,-91.78 241.38,-93.03 250.38,-98.61 251.9,-91.78"/>
</g>
<!-- Node1&#45;&gt;Node5 -->
<g id="edge4" class="edge">
<title>Node1&#45;&gt;Node5</title>
<path fill="none" stroke="black" d="M265.43,-83.5C278.81,-83.5 292.77,-83.5 305.87,-83.5"/>
<polygon fill="black" stroke="black" points="265.33,-80 255.33,-83.5 265.33,-87 265.33,-80"/>
</g>
<!-- Node4 -->
<g id="node5" class="node">
<title>Node4</title>
<g id="a_node5"><a xlink:href="group__lib-layer-buck-states.html" target="_top" xlink:title=" ">
<polygon fill="white" stroke="black" points="418.5,-56 313.5,-56 313.5,-37 418.5,-37 418.5,-56"/>
<text text-anchor="middle" x="366" y="-44" font-family="Helvetica,sans-Serif" font-size="10.00">Buck State Machine</text>
</a>
</g>
</g>
<!-- Node1&#45;&gt;Node4 -->
<g id="edge3" class="edge">
<title>Node1&#45;&gt;Node4</title>
<path fill="none" stroke="black" d="M251.24,-71.78C274.04,-66.71 300.39,-60.86 321.98,-56.06"/>
<polygon fill="black" stroke="black" points="250.38,-68.39 241.38,-73.97 251.9,-75.22 250.38,-68.39"/>
</g>
<!-- Node7 -->
<g id="node7" class="node">
<title>Node7</title>
<g id="a_node7"><a xlink:href="group__lib-layer-buck-ptemplate.html" target="_top" xlink:title=" ">
<polygon fill="white" stroke="black" points="433,-19 299,-19 299,0 433,0 433,-19"/>
<text text-anchor="middle" x="366" y="-7" font-family="Helvetica,sans-Serif" font-size="10.00">Buck Peripheral Templates</text>
</a>
</g>
</g>
<!-- Node1&#45;&gt;Node7 -->
<g id="edge6" class="edge">
<title>Node1&#45;&gt;Node7</title>
<path fill="none" stroke="black" d="M219.91,-67.93C238.04,-55.4 265.14,-38.17 291,-27.5 299.07,-24.17 307.89,-21.36 316.55,-19.03"/>
<polygon fill="black" stroke="black" points="217.46,-65.37 211.3,-73.99 221.49,-71.1 217.46,-65.37"/>
</g>
<!-- Node2 -->
<g id="node6" class="node">
<title>Node2</title>
<g id="a_node6"><a xlink:href="group__lib-layer.html" target="_top" xlink:title="Generic Device Driver Layer.">
<polygon fill="white" stroke="black" points="104,-98.5 0,-98.5 0,-68.5 104,-68.5 104,-98.5"/>
<text text-anchor="start" x="8" y="-86.5" font-family="Helvetica,sans-Serif" font-size="10.00">Device Driver Library</text>
<text text-anchor="middle" x="52" y="-75.5" font-family="Helvetica,sans-Serif" font-size="10.00"> Layer</text>
</a>
</g>
</g>
<!-- Node2&#45;&gt;Node1 -->
<g id="edge1" class="edge">
<title>Node2&#45;&gt;Node1</title>
<path fill="none" stroke="black" d="M114.46,-83.5C122.81,-83.5 131.35,-83.5 139.62,-83.5"/>
<polygon fill="black" stroke="black" points="114.4,-80 104.4,-83.5 114.4,-87 114.4,-80"/>
</g>
</g>
</svg>
