<?xml version="1.0" encoding="UTF-8" standalone="no"?>
<!DOCTYPE svg PUBLIC "-//W3C//DTD SVG 1.1//EN"
 "http://www.w3.org/Graphics/SVG/1.1/DTD/svg11.dtd">
<!-- Generated by graphviz version 2.44.1 (20200629.0846)
 -->
<!-- Title: p33c_GpioInstance_GetHandle Pages: 1 -->
<svg width="1323pt" height="294pt"
 viewBox="0.00 0.00 1323.00 294.00" xmlns="http://www.w3.org/2000/svg" xmlns:xlink="http://www.w3.org/1999/xlink">
<g id="graph0" class="graph" transform="scale(1 1) rotate(0) translate(4 290)">
<title>p33c_GpioInstance_GetHandle</title>
<polygon fill="white" stroke="transparent" points="-4,4 -4,-290 1319,-290 1319,4 -4,4"/>
<!-- Node1 -->
<g id="node1" class="node">
<title>Node1</title>
<g id="a_node1"><a xlink:title="Gets pointer to GPIO Instance SFR set.">
<polygon fill="#bfbfbf" stroke="black" points="1164,-152.5 1164,-171.5 1315,-171.5 1315,-152.5 1164,-152.5"/>
<text text-anchor="middle" x="1239.5" y="-159.5" font-family="Helvetica,sans-Serif" font-size="10.00">p33c_GpioInstance_GetHandle</text>
</a>
</g>
</g>
<!-- Node2 -->
<g id="node2" class="node">
<title>Node2</title>
<g id="a_node2"><a xlink:href="group__lib-layer-buck-config-functions-public_ga7f1d554e08d756b8677b572216908a3a.html#ga7f1d554e08d756b8677b572216908a3a" target="_top" xlink:title="This function clears the selected general purpose input/output pin.">
<polygon fill="white" stroke="black" points="1014.5,-228.5 1014.5,-247.5 1103.5,-247.5 1103.5,-228.5 1014.5,-228.5"/>
<text text-anchor="middle" x="1059" y="-235.5" font-family="Helvetica,sans-Serif" font-size="10.00">buckGPIO_Clear</text>
</a>
</g>
</g>
<!-- Node1&#45;&gt;Node2 -->
<g id="edge1" class="edge">
<title>Node1&#45;&gt;Node2</title>
<path fill="none" stroke="midnightblue" d="M1213.84,-176.58C1191.88,-189.1 1158.59,-206.98 1128,-219 1118.87,-222.59 1108.81,-225.79 1099.29,-228.49"/>
<polygon fill="midnightblue" stroke="midnightblue" points="1215.6,-179.6 1222.51,-171.57 1212.1,-173.54 1215.6,-179.6"/>
</g>
<!-- Node14 -->
<g id="node14" class="node">
<title>Node14</title>
<g id="a_node14"><a xlink:href="group__lib-layer-buck-config-functions-public_ga8e2253c136f05033e774d09032b283a1.html#ga8e2253c136f05033e774d09032b283a1" target="_top" xlink:title="This function gets the state of the selected pin.">
<polygon fill="white" stroke="black" points="999,-76.5 999,-95.5 1119,-95.5 1119,-76.5 999,-76.5"/>
<text text-anchor="middle" x="1059" y="-83.5" font-family="Helvetica,sans-Serif" font-size="10.00">buckGPIO_GetPinState</text>
</a>
</g>
</g>
<!-- Node1&#45;&gt;Node14 -->
<g id="edge13" class="edge">
<title>Node1&#45;&gt;Node14</title>
<path fill="none" stroke="midnightblue" d="M1213.84,-147.42C1191.88,-134.9 1158.59,-117.02 1128,-105 1118.87,-101.41 1108.81,-98.21 1099.29,-95.51"/>
<polygon fill="midnightblue" stroke="midnightblue" points="1212.1,-150.46 1222.51,-152.43 1215.6,-144.4 1212.1,-150.46"/>
</g>
<!-- Node25 -->
<g id="node25" class="node">
<title>Node25</title>
<g id="a_node25"><a xlink:href="group__lib-layer-buck-config-functions-private_ga3d3f91c0e40884874e7df3a67fff23f3.html#ga3d3f91c0e40884874e7df3a67fff23f3" target="_top" xlink:title="This function sets the pin as input or output.">
<polygon fill="white" stroke="black" points="993.5,-190.5 993.5,-209.5 1124.5,-209.5 1124.5,-190.5 993.5,-190.5"/>
<text text-anchor="middle" x="1059" y="-197.5" font-family="Helvetica,sans-Serif" font-size="10.00">buckGPIO_PrivateInitialize</text>
</a>
</g>
</g>
<!-- Node1&#45;&gt;Node25 -->
<g id="edge28" class="edge">
<title>Node1&#45;&gt;Node25</title>
<path fill="none" stroke="midnightblue" d="M1183.63,-173.68C1158.32,-179.07 1128.65,-185.39 1104.72,-190.48"/>
<polygon fill="midnightblue" stroke="midnightblue" points="1184.4,-177.09 1193.46,-171.59 1182.95,-170.25 1184.4,-177.09"/>
</g>
<!-- Node26 -->
<g id="node26" class="node">
<title>Node26</title>
<g id="a_node26"><a xlink:href="group__lib-layer-buck-config-functions-public_gad8cb8e5226f7c1d109cd0dc42e45be9f.html#gad8cb8e5226f7c1d109cd0dc42e45be9f" target="_top" xlink:title="This function sets the selected general purpose input/ouput pins.">
<polygon fill="white" stroke="black" points="1018,-114.5 1018,-133.5 1100,-133.5 1100,-114.5 1018,-114.5"/>
<text text-anchor="middle" x="1059" y="-121.5" font-family="Helvetica,sans-Serif" font-size="10.00">buckGPIO_Set</text>
</a>
</g>
</g>
<!-- Node1&#45;&gt;Node26 -->
<g id="edge30" class="edge">
<title>Node1&#45;&gt;Node26</title>
<path fill="none" stroke="midnightblue" d="M1183.41,-150.27C1156.51,-144.55 1124.73,-137.78 1100.16,-132.55"/>
<polygon fill="midnightblue" stroke="midnightblue" points="1182.95,-153.75 1193.46,-152.41 1184.4,-146.91 1182.95,-153.75"/>
</g>
<!-- Node28 -->
<g id="node28" class="node">
<title>Node28</title>
<g id="a_node28"><a xlink:href="group__lib-layer-buck-config-functions-public_ga6db1f45d724b91db22ed0d17b868a8f9.html#ga6db1f45d724b91db22ed0d17b868a8f9" target="_top" xlink:title="This function initializes the output pins for the PWM output and the default buck PWM settings.">
<polygon fill="white" stroke="black" points="990,-152.5 990,-171.5 1128,-171.5 1128,-152.5 990,-152.5"/>
<text text-anchor="middle" x="1059" y="-159.5" font-family="Helvetica,sans-Serif" font-size="10.00">buckPWM_ChannelInitialize</text>
</a>
</g>
</g>
<!-- Node1&#45;&gt;Node28 -->
<g id="edge32" class="edge">
<title>Node1&#45;&gt;Node28</title>
<path fill="none" stroke="midnightblue" d="M1153.77,-162C1145.17,-162 1136.5,-162 1128.1,-162"/>
<polygon fill="midnightblue" stroke="midnightblue" points="1153.83,-165.5 1163.83,-162 1153.83,-158.5 1153.83,-165.5"/>
</g>
<!-- Node3 -->
<g id="node3" class="node">
<title>Node3</title>
<g id="a_node3"><a xlink:href="group__lib-layer-buck-config-functions-public_ga91d7498ed6191a32a87353d999c56589.html#ga91d7498ed6191a32a87353d999c56589" target="_top" xlink:title="This function initializes the buck input pins.">
<polygon fill="white" stroke="black" points="834,-190.5 834,-209.5 936,-209.5 936,-190.5 834,-190.5"/>
<text text-anchor="middle" x="885" y="-197.5" font-family="Helvetica,sans-Serif" font-size="10.00">buckGPIO_Initialize</text>
</a>
</g>
</g>
<!-- Node2&#45;&gt;Node3 -->
<g id="edge2" class="edge">
<title>Node2&#45;&gt;Node3</title>
<path fill="none" stroke="midnightblue" d="M1004.8,-226.25C980.48,-220.87 952.05,-214.59 929.09,-209.52"/>
<polygon fill="midnightblue" stroke="midnightblue" points="1004.08,-229.67 1014.6,-228.41 1005.59,-222.84 1004.08,-229.67"/>
</g>
<!-- Node8 -->
<g id="node8" class="node">
<title>Node8</title>
<g id="a_node8"><a xlink:href="group__lib-layer-buck-config-functions-public_ga95896fb30d5fbdbaf4d4298fd7fe152b.html#ga95896fb30d5fbdbaf4d4298fd7fe152b" target="_top" xlink:title="This function stops the buck PWM output.">
<polygon fill="white" stroke="black" points="841,-266.5 841,-285.5 929,-285.5 929,-266.5 841,-266.5"/>
<text text-anchor="middle" x="885" y="-273.5" font-family="Helvetica,sans-Serif" font-size="10.00">buckPWM_Stop</text>
</a>
</g>
</g>
<!-- Node2&#45;&gt;Node8 -->
<g id="edge7" class="edge">
<title>Node2&#45;&gt;Node8</title>
<path fill="none" stroke="midnightblue" d="M1004.8,-249.75C980.48,-255.13 952.05,-261.41 929.09,-266.48"/>
<polygon fill="midnightblue" stroke="midnightblue" points="1005.59,-253.16 1014.6,-247.59 1004.08,-246.33 1005.59,-253.16"/>
</g>
<!-- Node11 -->
<g id="node11" class="node">
<title>Node11</title>
<g id="a_node11"><a xlink:href="group__lib-layer-buck-config-functions-public_ga2c5e8b5e629a6f34be5fafbc1be0b239.html#ga2c5e8b5e629a6f34be5fafbc1be0b239" target="_top" xlink:title="This function disables the PWM generator IOs.">
<polygon fill="white" stroke="black" points="832,-228.5 832,-247.5 938,-247.5 938,-228.5 832,-228.5"/>
<text text-anchor="middle" x="885" y="-235.5" font-family="Helvetica,sans-Serif" font-size="10.00">buckPWM_Suspend</text>
</a>
</g>
</g>
<!-- Node2&#45;&gt;Node11 -->
<g id="edge10" class="edge">
<title>Node2&#45;&gt;Node11</title>
<path fill="none" stroke="midnightblue" d="M1004.07,-238C983,-238 958.92,-238 938.03,-238"/>
<polygon fill="midnightblue" stroke="midnightblue" points="1004.15,-241.5 1014.15,-238 1004.15,-234.5 1004.15,-241.5"/>
</g>
<!-- Node4 -->
<g id="node4" class="node">
<title>Node4</title>
<g id="a_node4"><a xlink:href="group__lib-layer-buck-converter-functions-public_ga97eb8bdd17b9c2e169f0634ebabb5d19.html#ga97eb8bdd17b9c2e169f0634ebabb5d19" target="_top" xlink:title="This function initializes all peripheral modules and their instances used by the power controller.">
<polygon fill="white" stroke="black" points="641.5,-152.5 641.5,-171.5 778.5,-171.5 778.5,-152.5 641.5,-152.5"/>
<text text-anchor="middle" x="710" y="-159.5" font-family="Helvetica,sans-Serif" font-size="10.00">drv_BuckConverter_Initialize</text>
</a>
</g>
</g>
<!-- Node3&#45;&gt;Node4 -->
<g id="edge3" class="edge">
<title>Node3&#45;&gt;Node4</title>
<path fill="none" stroke="midnightblue" d="M830.49,-188.25C806.03,-182.87 777.43,-176.59 754.34,-171.52"/>
<polygon fill="midnightblue" stroke="midnightblue" points="829.83,-191.68 840.34,-190.41 831.33,-184.85 829.83,-191.68"/>
</g>
<!-- Node5 -->
<g id="node5" class="node">
<title>Node5</title>
<g id="a_node5"><a xlink:href="group__app-layer-power-control-functions-private_ga0b26acfec74d1804384b4ba1a3cffab4.html#ga0b26acfec74d1804384b4ba1a3cffab4" target="_top" xlink:title="This function is used to load peripheral configuration templates from the power controller device dri...">
<polygon fill="white" stroke="black" points="461,-147 461,-177 604,-177 604,-147 461,-147"/>
<text text-anchor="start" x="469" y="-165" font-family="Helvetica,sans-Serif" font-size="10.00">appPowerSupply_Peripherals</text>
<text text-anchor="middle" x="532.5" y="-154" font-family="Helvetica,sans-Serif" font-size="10.00">Initialize</text>
</a>
</g>
</g>
<!-- Node4&#45;&gt;Node5 -->
<g id="edge4" class="edge">
<title>Node4&#45;&gt;Node5</title>
<path fill="none" stroke="midnightblue" d="M631.32,-162C622.31,-162 613.17,-162 604.27,-162"/>
<polygon fill="midnightblue" stroke="midnightblue" points="631.4,-165.5 641.4,-162 631.4,-158.5 631.4,-165.5"/>
</g>
<!-- Node6 -->
<g id="node6" class="node">
<title>Node6</title>
<g id="a_node6"><a xlink:href="group__app-layer-power-control-functions-public_ga7a4cf6371d09457539f96a74b2809ca0.html#ga7a4cf6371d09457539f96a74b2809ca0" target="_top" xlink:title="Calls the application layer power controller initialization.">
<polygon fill="white" stroke="black" points="155,-133.5 155,-152.5 285,-152.5 285,-133.5 155,-133.5"/>
<text text-anchor="middle" x="220" y="-140.5" font-family="Helvetica,sans-Serif" font-size="10.00">appPowerSupply_Initialize</text>
</a>
</g>
</g>
<!-- Node5&#45;&gt;Node6 -->
<g id="edge5" class="edge">
<title>Node5&#45;&gt;Node6</title>
<path fill="none" stroke="midnightblue" d="M450.54,-157.05C398.99,-153.89 333.14,-149.86 285.2,-146.93"/>
<polygon fill="midnightblue" stroke="midnightblue" points="450.46,-160.55 460.65,-157.66 450.89,-153.56 450.46,-160.55"/>
</g>
<!-- Node7 -->
<g id="node7" class="node">
<title>Node7</title>
<g id="a_node7"><a xlink:href="group__user-task-initialization_ga2be64f5f0b9a2c0c6713f5a69d793e05.html#ga2be64f5f0b9a2c0c6713f5a69d793e05" target="_top" xlink:title="Initializes the user&#45;defined tasks.">
<polygon fill="white" stroke="black" points="0,-95.5 0,-114.5 119,-114.5 119,-95.5 0,-95.5"/>
<text text-anchor="middle" x="59.5" y="-102.5" font-family="Helvetica,sans-Serif" font-size="10.00">sysUserTasks_Initialize</text>
</a>
</g>
</g>
<!-- Node6&#45;&gt;Node7 -->
<g id="edge6" class="edge">
<title>Node6&#45;&gt;Node7</title>
<path fill="none" stroke="midnightblue" d="M169.08,-131.03C146.87,-125.71 121.08,-119.52 100.21,-114.52"/>
<polygon fill="midnightblue" stroke="midnightblue" points="168.46,-134.48 179,-133.41 170.1,-127.68 168.46,-134.48"/>
</g>
<!-- Node9 -->
<g id="node9" class="node">
<title>Node9</title>
<g id="a_node9"><a xlink:href="group__lib-layer-buck-converter-functions-public_gaa865d025fb1e5ae1e16e0c519c6ba9a2.html#gaa865d025fb1e5ae1e16e0c519c6ba9a2" target="_top" xlink:title="This function stop the buck converter opration.">
<polygon fill="white" stroke="black" points="649,-266.5 649,-285.5 771,-285.5 771,-266.5 649,-266.5"/>
<text text-anchor="middle" x="710" y="-273.5" font-family="Helvetica,sans-Serif" font-size="10.00">drv_BuckConverter_Stop</text>
</a>
</g>
</g>
<!-- Node8&#45;&gt;Node9 -->
<g id="edge8" class="edge">
<title>Node8&#45;&gt;Node9</title>
<path fill="none" stroke="midnightblue" d="M830.63,-276C811.84,-276 790.58,-276 771.26,-276"/>
<polygon fill="midnightblue" stroke="midnightblue" points="830.79,-279.5 840.79,-276 830.79,-272.5 830.79,-279.5"/>
</g>
<!-- Node10 -->
<g id="node10" class="node">
<title>Node10</title>
<g id="a_node10"><a xlink:href="group__app-layer-power-control-functions-public_gaa7d413f62f7b5f25d152cc12354241f0.html#gaa7d413f62f7b5f25d152cc12354241f0" target="_top" xlink:title="This function calls the buck converter device driver function stopping the power supply.">
<polygon fill="white" stroke="black" points="475,-266.5 475,-285.5 590,-285.5 590,-266.5 475,-266.5"/>
<text text-anchor="middle" x="532.5" y="-273.5" font-family="Helvetica,sans-Serif" font-size="10.00">appPowerSupply_Stop</text>
</a>
</g>
</g>
<!-- Node9&#45;&gt;Node10 -->
<g id="edge9" class="edge">
<title>Node9&#45;&gt;Node10</title>
<path fill="none" stroke="midnightblue" d="M638.23,-276C622.25,-276 605.48,-276 590.17,-276"/>
<polygon fill="midnightblue" stroke="midnightblue" points="638.6,-279.5 648.6,-276 638.6,-272.5 638.6,-279.5"/>
</g>
<!-- Node12 -->
<g id="node12" class="node">
<title>Node12</title>
<g id="a_node12"><a xlink:href="group__lib-layer-buck-states-functions-private_gab66e9c54a2ea2b61da89d685dcfd762a.html#gab66e9c54a2ea2b61da89d685dcfd762a" target="_top" xlink:title="If this function is called, the state machine is reset to INITIALIZE (URL=State_Initialize).">
<polygon fill="white" stroke="black" points="677,-228.5 677,-247.5 743,-247.5 743,-228.5 677,-228.5"/>
<text text-anchor="middle" x="710" y="-235.5" font-family="Helvetica,sans-Serif" font-size="10.00">State_Error</text>
</a>
</g>
</g>
<!-- Node11&#45;&gt;Node12 -->
<g id="edge11" class="edge">
<title>Node11&#45;&gt;Node12</title>
<path fill="none" stroke="midnightblue" d="M821.61,-238C795.01,-238 765.11,-238 743.1,-238"/>
<polygon fill="midnightblue" stroke="midnightblue" points="821.62,-241.5 831.62,-238 821.62,-234.5 821.62,-241.5"/>
</g>
<!-- Node13 -->
<g id="node13" class="node">
<title>Node13</title>
<g id="a_node13"><a xlink:href="group__lib-layer-buck-states-functions-private_gaf15793c9a89f54051199f362f29a353e.html#gaf15793c9a89f54051199f362f29a353e" target="_top" xlink:title="This function resets the buck control operation by re&#45;initiating the control mode,...">
<polygon fill="white" stroke="black" points="674.5,-190.5 674.5,-209.5 745.5,-209.5 745.5,-190.5 674.5,-190.5"/>
<text text-anchor="middle" x="710" y="-197.5" font-family="Helvetica,sans-Serif" font-size="10.00">State_Reset</text>
</a>
</g>
</g>
<!-- Node11&#45;&gt;Node13 -->
<g id="edge12" class="edge">
<title>Node11&#45;&gt;Node13</title>
<path fill="none" stroke="midnightblue" d="M830.43,-226.23C802.81,-220.17 769.92,-212.94 745.65,-207.61"/>
<polygon fill="midnightblue" stroke="midnightblue" points="829.83,-229.68 840.34,-228.41 831.33,-222.85 829.83,-229.68"/>
</g>
<!-- Node15 -->
<g id="node15" class="node">
<title>Node15</title>
<g id="a_node15"><a xlink:href="group__lib-layer-buck-converter-functions-public_ga75498c59a10db0738113104a547d8d0d.html#ga75498c59a10db0738113104a547d8d0d" target="_top" xlink:title="This function is the main buck converter state machine executing the most recent state.">
<polygon fill="white" stroke="black" points="816,-76.5 816,-95.5 954,-95.5 954,-76.5 816,-76.5"/>
<text text-anchor="middle" x="885" y="-83.5" font-family="Helvetica,sans-Serif" font-size="10.00">drv_BuckConverter_Execute</text>
</a>
</g>
</g>
<!-- Node14&#45;&gt;Node15 -->
<g id="edge14" class="edge">
<title>Node14&#45;&gt;Node15</title>
<path fill="none" stroke="midnightblue" d="M988.54,-86C977.2,-86 965.47,-86 954.17,-86"/>
<polygon fill="midnightblue" stroke="midnightblue" points="988.81,-89.5 998.81,-86 988.81,-82.5 988.81,-89.5"/>
</g>
<!-- Node16 -->
<g id="node16" class="node">
<title>Node16</title>
<g id="a_node16"><a xlink:href="group__lib-layer-buck-converter-functions-public_gaf73787b6b72bc61786a39b9c7e47f6c6.html#gaf73787b6b72bc61786a39b9c7e47f6c6" target="_top" xlink:title="This function resume the operation of the buck converter.">
<polygon fill="white" stroke="black" points="641,-92.5 641,-111.5 779,-111.5 779,-92.5 641,-92.5"/>
<text text-anchor="middle" x="710" y="-99.5" font-family="Helvetica,sans-Serif" font-size="10.00">drv_BuckConverter_Resume</text>
</a>
</g>
</g>
<!-- Node15&#45;&gt;Node16 -->
<g id="edge15" class="edge">
<title>Node15&#45;&gt;Node16</title>
<path fill="none" stroke="midnightblue" d="M805.41,-93.27C796.65,-94.08 787.78,-94.9 779.16,-95.7"/>
<polygon fill="midnightblue" stroke="midnightblue" points="805.99,-96.73 815.63,-92.32 805.35,-89.76 805.99,-96.73"/>
</g>
<!-- Node18 -->
<g id="node18" class="node">
<title>Node18</title>
<g id="a_node18"><a xlink:href="group__lib-layer-buck-converter-functions-public_ga3287d86e7c3eecaa97d4bdf590ed0a15.html#ga3287d86e7c3eecaa97d4bdf590ed0a15" target="_top" xlink:title="This function suspends the operation of the buck converter.">
<polygon fill="white" stroke="black" points="640,-54.5 640,-73.5 780,-73.5 780,-54.5 640,-54.5"/>
<text text-anchor="middle" x="710" y="-61.5" font-family="Helvetica,sans-Serif" font-size="10.00">drv_BuckConverter_Suspend</text>
</a>
</g>
</g>
<!-- Node15&#45;&gt;Node18 -->
<g id="edge17" class="edge">
<title>Node15&#45;&gt;Node18</title>
<path fill="none" stroke="midnightblue" d="M805.65,-76.04C797.1,-74.95 788.44,-73.85 780.01,-72.78"/>
<polygon fill="midnightblue" stroke="midnightblue" points="805.26,-79.52 815.63,-77.31 806.15,-72.57 805.26,-79.52"/>
</g>
<!-- Node17 -->
<g id="node17" class="node">
<title>Node17</title>
<g id="a_node17"><a xlink:href="group__app-layer-power-control-functions-public_ga3c7bf6b771bc1296401a270da4a95bff.html#ga3c7bf6b771bc1296401a270da4a95bff" target="_top" xlink:title="This function resumes the power supply operation.">
<polygon fill="white" stroke="black" points="467,-92.5 467,-111.5 598,-111.5 598,-92.5 467,-92.5"/>
<text text-anchor="middle" x="532.5" y="-99.5" font-family="Helvetica,sans-Serif" font-size="10.00">appPowerSupply_Resume</text>
</a>
</g>
</g>
<!-- Node16&#45;&gt;Node17 -->
<g id="edge16" class="edge">
<title>Node16&#45;&gt;Node17</title>
<path fill="none" stroke="midnightblue" d="M630.57,-102C619.72,-102 608.68,-102 598.11,-102"/>
<polygon fill="midnightblue" stroke="midnightblue" points="630.9,-105.5 640.9,-102 630.9,-98.5 630.9,-105.5"/>
</g>
<!-- Node19 -->
<g id="node19" class="node">
<title>Node19</title>
<g id="a_node19"><a xlink:href="group__app-layer-power-control-functions-public_gafa4e90d260e60cf20f06acee067c39cd.html#gafa4e90d260e60cf20f06acee067c39cd" target="_top" xlink:title="This function stops the power supply operation.">
<polygon fill="white" stroke="black" points="466,-54.5 466,-73.5 599,-73.5 599,-54.5 466,-54.5"/>
<text text-anchor="middle" x="532.5" y="-61.5" font-family="Helvetica,sans-Serif" font-size="10.00">appPowerSupply_Suspend</text>
</a>
</g>
</g>
<!-- Node18&#45;&gt;Node19 -->
<g id="edge18" class="edge">
<title>Node18&#45;&gt;Node19</title>
<path fill="none" stroke="midnightblue" d="M629.72,-64C619.49,-64 609.09,-64 599.11,-64"/>
<polygon fill="midnightblue" stroke="midnightblue" points="629.89,-67.5 639.89,-64 629.89,-60.5 629.89,-67.5"/>
</g>
<!-- Node20 -->
<g id="node20" class="node">
<title>Node20</title>
<g id="a_node20"><a xlink:href="group__app-layer-fault-monitor-functions-private_gac53e3bdc6df0dbea20258fc53991185f.html#gac53e3bdc6df0dbea20258fc53991185f" target="_top" xlink:title="Initializes the user&#45;defined fault objects for overcurrent protection.">
<polygon fill="white" stroke="black" points="325.5,-38.5 325.5,-57.5 420.5,-57.5 420.5,-38.5 325.5,-38.5"/>
<text text-anchor="middle" x="373" y="-45.5" font-family="Helvetica,sans-Serif" font-size="10.00">ocp_FaultInitialize</text>
</a>
</g>
</g>
<!-- Node19&#45;&gt;Node20 -->
<g id="edge19" class="edge">
<title>Node19&#45;&gt;Node20</title>
<path fill="none" stroke="midnightblue" d="M455.35,-56.26C443.61,-55.07 431.79,-53.87 420.94,-52.77"/>
<polygon fill="midnightblue" stroke="midnightblue" points="455.32,-59.78 465.62,-57.31 456.02,-52.81 455.32,-59.78"/>
</g>
<!-- Node22 -->
<g id="node22" class="node">
<title>Node22</title>
<g id="a_node22"><a xlink:href="group__app-layer-fault-monitor-functions-private_ga1c1a8e73e88a0fc1b9fd6ebc6cf16524.html#ga1c1a8e73e88a0fc1b9fd6ebc6cf16524" target="_top" xlink:title="Initializes the user&#45;defined fault objects for overvoltage lockout.">
<polygon fill="white" stroke="black" points="325.5,-0.5 325.5,-19.5 420.5,-19.5 420.5,-0.5 325.5,-0.5"/>
<text text-anchor="middle" x="373" y="-7.5" font-family="Helvetica,sans-Serif" font-size="10.00">ovlo_FaultInitialize</text>
</a>
</g>
</g>
<!-- Node19&#45;&gt;Node22 -->
<g id="edge22" class="edge">
<title>Node19&#45;&gt;Node22</title>
<path fill="none" stroke="midnightblue" d="M494.13,-51.19C465.79,-41.47 427.45,-28.33 401.78,-19.53"/>
<polygon fill="midnightblue" stroke="midnightblue" points="493.11,-54.54 503.7,-54.47 495.38,-47.92 493.11,-54.54"/>
</g>
<!-- Node23 -->
<g id="node23" class="node">
<title>Node23</title>
<g id="a_node23"><a xlink:href="group__app-layer-fault-monitor-functions-private_ga30112272eb63176a17614933e950688b.html#ga30112272eb63176a17614933e950688b" target="_top" xlink:title="Initializes the user&#45;defined fault objects for regulation error.">
<polygon fill="white" stroke="black" points="321,-114.5 321,-133.5 425,-133.5 425,-114.5 321,-114.5"/>
<text text-anchor="middle" x="373" y="-121.5" font-family="Helvetica,sans-Serif" font-size="10.00">regerr_FaultInitialize</text>
</a>
</g>
</g>
<!-- Node19&#45;&gt;Node23 -->
<g id="edge24" class="edge">
<title>Node19&#45;&gt;Node23</title>
<path fill="none" stroke="midnightblue" d="M478.35,-76.56C472.41,-78.48 466.52,-80.63 461,-83 443.77,-90.4 441.86,-96.8 425,-105 417.86,-108.47 409.92,-111.71 402.46,-114.49"/>
<polygon fill="midnightblue" stroke="midnightblue" points="479.78,-79.79 488.33,-73.54 477.75,-73.09 479.78,-79.79"/>
</g>
<!-- Node24 -->
<g id="node24" class="node">
<title>Node24</title>
<g id="a_node24"><a xlink:href="group__app-layer-fault-monitor-functions-private_gab1c6de31b4c981fb3afdb301a00f6e96.html#gab1c6de31b4c981fb3afdb301a00f6e96" target="_top" xlink:title="Initializes the user&#45;defined fault objects for under&#45;voltage lockout.">
<polygon fill="white" stroke="black" points="325.5,-76.5 325.5,-95.5 420.5,-95.5 420.5,-76.5 325.5,-76.5"/>
<text text-anchor="middle" x="373" y="-83.5" font-family="Helvetica,sans-Serif" font-size="10.00">uvlo_FaultInitialize</text>
</a>
</g>
</g>
<!-- Node19&#45;&gt;Node24 -->
<g id="edge26" class="edge">
<title>Node19&#45;&gt;Node24</title>
<path fill="none" stroke="midnightblue" d="M455.7,-74.59C443.85,-76.24 431.9,-77.91 420.94,-79.44"/>
<polygon fill="midnightblue" stroke="midnightblue" points="456.2,-78.05 465.62,-73.2 455.23,-71.12 456.2,-78.05"/>
</g>
<!-- Node21 -->
<g id="node21" class="node">
<title>Node21</title>
<g id="a_node21"><a xlink:href="group__app-layer-fault-handler-functions-public_ga0f8fb0fadf90485a834e15ecdd93216e.html#ga0f8fb0fadf90485a834e15ecdd93216e" target="_top" xlink:title="Initialization of user&#45;defined fault objects.">
<polygon fill="white" stroke="black" points="156.5,-76.5 156.5,-95.5 283.5,-95.5 283.5,-76.5 156.5,-76.5"/>
<text text-anchor="middle" x="220" y="-83.5" font-family="Helvetica,sans-Serif" font-size="10.00">appFaultMonitor_Initialize</text>
</a>
</g>
</g>
<!-- Node20&#45;&gt;Node21 -->
<g id="edge20" class="edge">
<title>Node20&#45;&gt;Node21</title>
<path fill="none" stroke="midnightblue" d="M324.16,-60.04C303.06,-65.35 278.62,-71.5 258.83,-76.48"/>
<polygon fill="midnightblue" stroke="midnightblue" points="325.05,-63.42 333.9,-57.59 323.34,-56.64 325.05,-63.42"/>
</g>
<!-- Node21&#45;&gt;Node7 -->
<g id="edge21" class="edge">
<title>Node21&#45;&gt;Node7</title>
<path fill="none" stroke="midnightblue" d="M146.18,-94.73C137.1,-95.82 127.9,-96.92 119.08,-97.98"/>
<polygon fill="midnightblue" stroke="midnightblue" points="146.84,-98.17 156.36,-93.51 146.01,-91.22 146.84,-98.17"/>
</g>
<!-- Node22&#45;&gt;Node21 -->
<g id="edge23" class="edge">
<title>Node22&#45;&gt;Node21</title>
<path fill="none" stroke="midnightblue" d="M334.52,-23.17C329.92,-25.02 325.32,-26.98 321,-29 289.86,-43.56 255.43,-64.28 236.18,-76.32"/>
<polygon fill="midnightblue" stroke="midnightblue" points="335.81,-26.42 343.87,-19.55 333.28,-19.9 335.81,-26.42"/>
</g>
<!-- Node23&#45;&gt;Node21 -->
<g id="edge25" class="edge">
<title>Node23&#45;&gt;Node21</title>
<path fill="none" stroke="midnightblue" d="M324.16,-111.96C303.06,-106.65 278.62,-100.5 258.83,-95.52"/>
<polygon fill="midnightblue" stroke="midnightblue" points="323.34,-115.36 333.9,-114.41 325.05,-108.58 323.34,-115.36"/>
</g>
<!-- Node24&#45;&gt;Node21 -->
<g id="edge27" class="edge">
<title>Node24&#45;&gt;Node21</title>
<path fill="none" stroke="midnightblue" d="M315.36,-86C305.05,-86 294.24,-86 283.77,-86"/>
<polygon fill="midnightblue" stroke="midnightblue" points="315.46,-89.5 325.46,-86 315.46,-82.5 315.46,-89.5"/>
</g>
<!-- Node25&#45;&gt;Node3 -->
<g id="edge29" class="edge">
<title>Node25&#45;&gt;Node3</title>
<path fill="none" stroke="midnightblue" d="M983.12,-200C967.22,-200 950.82,-200 936.11,-200"/>
<polygon fill="midnightblue" stroke="midnightblue" points="983.46,-203.5 993.46,-200 983.46,-196.5 983.46,-203.5"/>
</g>
<!-- Node27 -->
<g id="node27" class="node">
<title>Node27</title>
<g id="a_node27"><a xlink:href="group__lib-layer-buck-states-functions-private_ga0aeb0ae24131b6063cda7c16de89722b.html#ga0aeb0ae24131b6063cda7c16de89722b" target="_top" xlink:title="In this function, a counter is incremented until the power good delay has expired.">
<polygon fill="white" stroke="black" points="816.5,-114.5 816.5,-133.5 953.5,-133.5 953.5,-114.5 816.5,-114.5"/>
<text text-anchor="middle" x="885" y="-121.5" font-family="Helvetica,sans-Serif" font-size="10.00">SubState_PowerGoodDelay</text>
</a>
</g>
</g>
<!-- Node26&#45;&gt;Node27 -->
<g id="edge31" class="edge">
<title>Node26&#45;&gt;Node27</title>
<path fill="none" stroke="midnightblue" d="M1007.5,-124C990.65,-124 971.6,-124 953.67,-124"/>
<polygon fill="midnightblue" stroke="midnightblue" points="1007.67,-127.5 1017.67,-124 1007.67,-120.5 1007.67,-127.5"/>
</g>
<!-- Node28&#45;&gt;Node4 -->
<g id="edge33" class="edge">
<title>Node28&#45;&gt;Node4</title>
<path fill="none" stroke="midnightblue" d="M979.59,-162C919.11,-162 836.31,-162 778.69,-162"/>
<polygon fill="midnightblue" stroke="midnightblue" points="979.86,-165.5 989.86,-162 979.86,-158.5 979.86,-165.5"/>
</g>
</g>
</svg>
