<?xml version="1.0" encoding="UTF-8" standalone="no"?>
<!DOCTYPE svg PUBLIC "-//W3C//DTD SVG 1.1//EN"
 "http://www.w3.org/Graphics/SVG/1.1/DTD/svg11.dtd">
<!-- Generated by graphviz version 2.44.1 (20200629.0846)
 -->
<!-- Title: Private Properties Pages: 1 -->
<svg width="359pt" height="101pt"
 viewBox="0.00 0.00 359.00 101.00" xmlns="http://www.w3.org/2000/svg" xmlns:xlink="http://www.w3.org/1999/xlink">
<g id="graph0" class="graph" transform="scale(1 1) rotate(0) translate(4 97)">
<title>Private Properties</title>
<polygon fill="white" stroke="transparent" points="-4,4 -4,-97 355,-97 355,4 -4,4"/>
<!-- Node2 -->
<g id="node1" class="node">
<title>Node2</title>
<g id="a_node1"><a xlink:href="group__lib-layer-buck-converter.html" target="_top" xlink:title=" ">
<polygon fill="white" stroke="black" points="83,-56 0,-56 0,-37 83,-37 83,-56"/>
<text text-anchor="middle" x="41.5" y="-44" font-family="Helvetica,sans-Serif" font-size="10.00">Buck Converter</text>
</a>
</g>
</g>
<!-- Node1 -->
<g id="node3" class="node">
<title>Node1</title>
<g id="a_node3"><a xlink:title="Public properties of the second library layer.">
<polygon fill="#bfbfbf" stroke="black" points="212,-56 119,-56 119,-37 212,-37 212,-56"/>
<text text-anchor="middle" x="165.5" y="-44" font-family="Helvetica,sans-Serif" font-size="10.00">Private Properties</text>
</a>
</g>
</g>
<!-- Node2&#45;&gt;Node1 -->
<g id="edge1" class="edge">
<title>Node2&#45;&gt;Node1</title>
<path fill="none" stroke="black" d="M93.2,-46.5C101.62,-46.5 110.29,-46.5 118.58,-46.5"/>
<polygon fill="black" stroke="black" points="93.12,-43 83.12,-46.5 93.12,-50 93.12,-43"/>
</g>
<!-- Node5 -->
<g id="node2" class="node">
<title>Node5</title>
<g id="a_node2"><a xlink:href="group__lib-layer-buck-converter-properties-private-defines.html" target="_top" xlink:title=" ">
<polygon fill="white" stroke="black" points="351,-93 248,-93 248,-74 351,-74 351,-93"/>
<text text-anchor="middle" x="299.5" y="-81" font-family="Helvetica,sans-Serif" font-size="10.00">Defines and Macros</text>
</a>
</g>
</g>
<!-- Node1&#45;&gt;Node5 -->
<g id="edge4" class="edge">
<title>Node1&#45;&gt;Node5</title>
<path fill="none" stroke="black" d="M210.47,-58.83C227.96,-63.73 247.77,-69.28 264.16,-73.88"/>
<polygon fill="black" stroke="black" points="211.07,-55.36 200.49,-56.03 209.18,-62.1 211.07,-55.36"/>
</g>
<!-- Node3 -->
<g id="node4" class="node">
<title>Node3</title>
<g id="a_node4"><a xlink:href="group__lib-layer-buck-converter-properties-private-variables.html" target="_top" xlink:title=" ">
<polygon fill="white" stroke="black" points="328,-56 271,-56 271,-37 328,-37 328,-56"/>
<text text-anchor="middle" x="299.5" y="-44" font-family="Helvetica,sans-Serif" font-size="10.00">Variables</text>
</a>
</g>
</g>
<!-- Node1&#45;&gt;Node3 -->
<g id="edge2" class="edge">
<title>Node1&#45;&gt;Node3</title>
<path fill="none" stroke="black" d="M222.55,-46.5C239.26,-46.5 256.83,-46.5 270.87,-46.5"/>
<polygon fill="black" stroke="black" points="222.3,-43 212.3,-46.5 222.3,-50 222.3,-43"/>
</g>
<!-- Node4 -->
<g id="node5" class="node">
<title>Node4</title>
<g id="a_node5"><a xlink:href="group__lib-layer-buck-converter-properties-private-data-types.html" target="_top" xlink:title=" ">
<polygon fill="white" stroke="black" points="332.5,-19 266.5,-19 266.5,0 332.5,0 332.5,-19"/>
<text text-anchor="middle" x="299.5" y="-7" font-family="Helvetica,sans-Serif" font-size="10.00">Data Types</text>
</a>
</g>
</g>
<!-- Node1&#45;&gt;Node4 -->
<g id="edge3" class="edge">
<title>Node1&#45;&gt;Node4</title>
<path fill="none" stroke="black" d="M210.37,-34.2C228.69,-29.07 249.59,-23.21 266.44,-18.49"/>
<polygon fill="black" stroke="black" points="209.18,-30.9 200.49,-36.97 211.07,-37.64 209.18,-30.9"/>
</g>
</g>
</svg>
