<?xml version="1.0" encoding="UTF-8" standalone="no"?>
<!DOCTYPE svg PUBLIC "-//W3C//DTD SVG 1.1//EN"
 "http://www.w3.org/Graphics/SVG/1.1/DTD/svg11.dtd">
<!-- Generated by graphviz version 2.44.1 (20200629.0846)
 -->
<!-- Title: Task Layer Pages: 1 -->
<svg width="351pt" height="86pt"
 viewBox="0.00 0.00 351.00 86.00" xmlns="http://www.w3.org/2000/svg" xmlns:xlink="http://www.w3.org/1999/xlink">
<g id="graph0" class="graph" transform="scale(1 1) rotate(0) translate(4 82)">
<title>Task Layer</title>
<polygon fill="white" stroke="transparent" points="-4,4 -4,-82 347,-82 347,4 -4,4"/>
<!-- Node1 -->
<g id="node1" class="node">
<title>Node1</title>
<g id="a_node1"><a xlink:title="Task Layer.">
<polygon fill="#bfbfbf" stroke="black" points="202,-48.5 137,-48.5 137,-29.5 202,-29.5 202,-48.5"/>
<text text-anchor="middle" x="169.5" y="-36.5" font-family="Helvetica,sans-Serif" font-size="10.00">Task Layer</text>
</a>
</g>
</g>
<!-- Node4 -->
<g id="node2" class="node">
<title>Node4</title>
<g id="a_node2"><a xlink:href="group__buck-state-machine-struct.html" target="_top" xlink:title="Buck State Machine Data Structures.">
<polygon fill="white" stroke="black" points="343,-78 238,-78 238,-48 343,-48 343,-78"/>
<text text-anchor="start" x="246" y="-66" font-family="Helvetica,sans-Serif" font-size="10.00">Buck State Machine</text>
<text text-anchor="middle" x="290.5" y="-55" font-family="Helvetica,sans-Serif" font-size="10.00"> Data Structures</text>
</a>
</g>
</g>
<!-- Node1&#45;&gt;Node4 -->
<g id="edge3" class="edge">
<title>Node1&#45;&gt;Node4</title>
<path fill="none" stroke="black" d="M211.99,-47.37C220.38,-49.06 229.29,-50.86 237.98,-52.61"/>
<polygon fill="black" stroke="black" points="212.57,-43.91 202.08,-45.37 211.19,-50.78 212.57,-43.91"/>
</g>
<!-- Node3 -->
<g id="node3" class="node">
<title>Node3</title>
<g id="a_node3"><a xlink:href="group__buck-state-machine-function.html" target="_top" xlink:title="Buck State Machine Functions.">
<polygon fill="white" stroke="black" points="343,-30 238,-30 238,0 343,0 343,-30"/>
<text text-anchor="start" x="246" y="-18" font-family="Helvetica,sans-Serif" font-size="10.00">Buck State Machine</text>
<text text-anchor="middle" x="290.5" y="-7" font-family="Helvetica,sans-Serif" font-size="10.00"> Functions</text>
</a>
</g>
</g>
<!-- Node1&#45;&gt;Node3 -->
<g id="edge2" class="edge">
<title>Node1&#45;&gt;Node3</title>
<path fill="none" stroke="black" d="M211.99,-30.63C220.38,-28.94 229.29,-27.14 237.98,-25.39"/>
<polygon fill="black" stroke="black" points="211.19,-27.22 202.08,-32.63 212.57,-34.09 211.19,-27.22"/>
</g>
<!-- Node2 -->
<g id="node4" class="node">
<title>Node2</title>
<g id="a_node4"><a xlink:href="group__firmware-flow.html" target="_top" xlink:title="Firmware Flowchart.">
<polygon fill="white" stroke="black" points="101,-48.5 0,-48.5 0,-29.5 101,-29.5 101,-48.5"/>
<text text-anchor="middle" x="50.5" y="-36.5" font-family="Helvetica,sans-Serif" font-size="10.00">Firmware Flowchart</text>
</a>
</g>
</g>
<!-- Node2&#45;&gt;Node1 -->
<g id="edge1" class="edge">
<title>Node2&#45;&gt;Node1</title>
<path fill="none" stroke="black" d="M111.39,-39C120.16,-39 128.89,-39 136.79,-39"/>
<polygon fill="black" stroke="black" points="111.12,-35.5 101.12,-39 111.12,-42.5 111.12,-35.5"/>
</g>
</g>
</svg>
