<?xml version="1.0" encoding="UTF-8" standalone="no"?>
<!DOCTYPE svg PUBLIC "-//W3C//DTD SVG 1.1//EN"
 "http://www.w3.org/Graphics/SVG/1.1/DTD/svg11.dtd">
<!-- Generated by graphviz version 2.44.1 (20200629.0846)
 -->
<!-- Title: Abstraction Layer Defines Pages: 1 -->
<svg width="312pt" height="421pt"
 viewBox="0.00 0.00 312.00 421.00" xmlns="http://www.w3.org/2000/svg" xmlns:xlink="http://www.w3.org/1999/xlink">
<g id="graph0" class="graph" transform="scale(1 1) rotate(0) translate(4 417)">
<title>Abstraction Layer Defines</title>
<polygon fill="white" stroke="transparent" points="-4,4 -4,-417 308,-417 308,4 -4,4"/>
<!-- Node1 -->
<g id="node1" class="node">
<title>Node1</title>
<g id="a_node1"><a xlink:title="Abstraction Layer Defines.">
<polygon fill="#bfbfbf" stroke="black" points="128,-222 0,-222 0,-203 128,-203 128,-222"/>
<text text-anchor="middle" x="64" y="-210" font-family="Helvetica,sans-Serif" font-size="10.00">Abstraction Layer Defines</text>
</a>
</g>
</g>
<!-- Node6 -->
<g id="node2" class="node">
<title>Node6</title>
<g id="a_node2"><a xlink:href="group__input-voltage-feedback.html" target="_top" xlink:title="Declaration of input voltage feedback properties.">
<polygon fill="white" stroke="black" points="293.5,-413 174.5,-413 174.5,-394 293.5,-394 293.5,-413"/>
<text text-anchor="middle" x="234" y="-401" font-family="Helvetica,sans-Serif" font-size="10.00">Input Voltage Feedback</text>
</a>
</g>
</g>
<!-- Node1&#45;&gt;Node6 -->
<g id="edge5" class="edge">
<title>Node1&#45;&gt;Node6</title>
<path fill="none" stroke="black" d="M70.55,-231.89C81.89,-267.9 111.2,-345.1 164,-385.5 168.42,-388.89 173.43,-391.64 178.66,-393.87"/>
<polygon fill="black" stroke="black" points="73.85,-230.69 67.6,-222.12 67.14,-232.71 73.85,-230.69"/>
</g>
<!-- Node3 -->
<g id="node3" class="node">
<title>Node3</title>
<g id="a_node3"><a xlink:href="group__state-machine-settings.html" target="_top" xlink:title="Global defines for state&#45;machine specific parameters.">
<polygon fill="white" stroke="black" points="293.5,-376 174.5,-376 174.5,-357 293.5,-357 293.5,-376"/>
<text text-anchor="middle" x="234" y="-364" font-family="Helvetica,sans-Serif" font-size="10.00">State Machine Settings</text>
</a>
</g>
</g>
<!-- Node1&#45;&gt;Node3 -->
<g id="edge2" class="edge">
<title>Node1&#45;&gt;Node3</title>
<path fill="none" stroke="black" d="M73.49,-231.41C87.79,-261.05 119.53,-318.19 164,-348.5 169.01,-351.92 174.63,-354.69 180.45,-356.93"/>
<polygon fill="black" stroke="black" points="76.57,-229.74 69.17,-222.16 70.23,-232.7 76.57,-229.74"/>
</g>
<!-- Node8 -->
<g id="node4" class="node">
<title>Node8</title>
<g id="a_node4"><a xlink:href="group__phase-current-feedback.html" target="_top" xlink:title="Declaration of phase&#45;current feedback properties.">
<polygon fill="white" stroke="black" points="296.5,-339 171.5,-339 171.5,-320 296.5,-320 296.5,-339"/>
<text text-anchor="middle" x="234" y="-327" font-family="Helvetica,sans-Serif" font-size="10.00">Phase Current Feedback</text>
</a>
</g>
</g>
<!-- Node1&#45;&gt;Node8 -->
<g id="edge7" class="edge">
<title>Node1&#45;&gt;Node8</title>
<path fill="none" stroke="black" d="M77.92,-230.32C95.08,-252.67 127.48,-290.58 164,-311.5 169.91,-314.88 176.46,-317.65 183.11,-319.9"/>
<polygon fill="black" stroke="black" points="80.53,-227.96 71.73,-222.06 74.93,-232.16 80.53,-227.96"/>
</g>
<!-- Node10 -->
<g id="node5" class="node">
<title>Node10</title>
<g id="a_node5"><a xlink:href="group__startup-behavior.html" target="_top" xlink:title="Global defines for soft&#45;start specific parameters.">
<polygon fill="white" stroke="black" points="278,-302 190,-302 190,-283 278,-283 278,-302"/>
<text text-anchor="middle" x="234" y="-290" font-family="Helvetica,sans-Serif" font-size="10.00">Startup Behavior</text>
</a>
</g>
</g>
<!-- Node1&#45;&gt;Node10 -->
<g id="edge9" class="edge">
<title>Node1&#45;&gt;Node10</title>
<path fill="none" stroke="black" d="M85.51,-227.96C104.85,-241.89 135.1,-262.03 164,-274.5 172.18,-278.03 181.22,-281 189.99,-283.44"/>
<polygon fill="black" stroke="black" points="87.57,-225.13 77.44,-222.05 83.44,-230.78 87.57,-225.13"/>
</g>
<!-- Node5 -->
<g id="node6" class="node">
<title>Node5</title>
<g id="a_node6"><a xlink:href="group__fundamental-pwm-settings.html" target="_top" xlink:title="Global defines for PWM settings of DV330101.">
<polygon fill="white" stroke="black" points="304,-265 164,-265 164,-246 304,-246 304,-265"/>
<text text-anchor="middle" x="234" y="-253" font-family="Helvetica,sans-Serif" font-size="10.00">Fundamental PWM Settings</text>
</a>
</g>
</g>
<!-- Node1&#45;&gt;Node5 -->
<g id="edge4" class="edge">
<title>Node1&#45;&gt;Node5</title>
<path fill="none" stroke="black" d="M112.1,-224.56C138.58,-231.33 171.16,-239.67 195.82,-245.98"/>
<polygon fill="black" stroke="black" points="112.84,-221.13 102.28,-222.04 111.1,-227.91 112.84,-221.13"/>
</g>
<!-- Node9 -->
<g id="node7" class="node">
<title>Node9</title>
<g id="a_node7"><a xlink:href="group__adaptive-control.html" target="_top" xlink:title="Description:">
<polygon fill="white" stroke="black" points="289,-227.5 179,-227.5 179,-197.5 289,-197.5 289,-227.5"/>
<text text-anchor="start" x="187" y="-215.5" font-family="Helvetica,sans-Serif" font-size="10.00">Adaptive Gain Control</text>
<text text-anchor="middle" x="234" y="-204.5" font-family="Helvetica,sans-Serif" font-size="10.00"> Feed Forward</text>
</a>
</g>
</g>
<!-- Node1&#45;&gt;Node9 -->
<g id="edge8" class="edge">
<title>Node1&#45;&gt;Node9</title>
<path fill="none" stroke="black" d="M138.37,-212.5C152.01,-212.5 166.04,-212.5 178.97,-212.5"/>
<polygon fill="black" stroke="black" points="138.04,-209 128.03,-212.5 138.03,-216 138.04,-209"/>
</g>
<!-- Node2 -->
<g id="node8" class="node">
<title>Node2</title>
<g id="a_node8"><a xlink:href="group__microcontroller-abstraction.html" target="_top" xlink:title="Global abstraction labels for device pin assignments of control signals.">
<polygon fill="white" stroke="black" points="300.5,-179 167.5,-179 167.5,-160 300.5,-160 300.5,-179"/>
<text text-anchor="middle" x="234" y="-167" font-family="Helvetica,sans-Serif" font-size="10.00">Microcontroller Abstraction</text>
</a>
</g>
</g>
<!-- Node1&#45;&gt;Node2 -->
<g id="edge1" class="edge">
<title>Node1&#45;&gt;Node2</title>
<path fill="none" stroke="black" d="M112.1,-200.44C138.58,-193.67 171.16,-185.33 195.82,-179.02"/>
<polygon fill="black" stroke="black" points="111.1,-197.09 102.28,-202.96 112.84,-203.87 111.1,-197.09"/>
</g>
<!-- Node4 -->
<g id="node9" class="node">
<title>Node4</title>
<g id="a_node9"><a xlink:href="group__power-parameter.html" target="_top" xlink:title="Global defines for Buck Converter Power Control parameters.">
<polygon fill="white" stroke="black" points="296.5,-141.5 171.5,-141.5 171.5,-111.5 296.5,-111.5 296.5,-141.5"/>
<text text-anchor="start" x="179.5" y="-129.5" font-family="Helvetica,sans-Serif" font-size="10.00">Power Control Parameter</text>
<text text-anchor="middle" x="234" y="-118.5" font-family="Helvetica,sans-Serif" font-size="10.00"> Declaration</text>
</a>
</g>
</g>
<!-- Node1&#45;&gt;Node4 -->
<g id="edge3" class="edge">
<title>Node1&#45;&gt;Node4</title>
<path fill="none" stroke="black" d="M87.08,-197.07C106.67,-183.83 136.38,-164.84 164,-151.5 171.34,-147.95 179.33,-144.62 187.17,-141.61"/>
<polygon fill="black" stroke="black" points="84.87,-194.35 78.59,-202.88 88.82,-200.12 84.87,-194.35"/>
</g>
<!-- Node12 -->
<g id="node10" class="node">
<title>Node12</title>
<g id="a_node10"><a xlink:href="group__controller-declarations.html" target="_top" xlink:title="Description">
<polygon fill="white" stroke="black" points="291.5,-93 176.5,-93 176.5,-74 291.5,-74 291.5,-93"/>
<text text-anchor="middle" x="234" y="-81" font-family="Helvetica,sans-Serif" font-size="10.00">Controller Declarations</text>
</a>
</g>
</g>
<!-- Node1&#45;&gt;Node12 -->
<g id="edge11" class="edge">
<title>Node1&#45;&gt;Node12</title>
<path fill="none" stroke="black" d="M76.53,-194.18C92.96,-169.62 125.41,-126.34 164,-102.5 170.24,-98.65 177.26,-95.56 184.39,-93.09"/>
<polygon fill="black" stroke="black" points="73.39,-192.6 70.86,-202.89 79.25,-196.42 73.39,-192.6"/>
</g>
<!-- Node7 -->
<g id="node11" class="node">
<title>Node7</title>
<g id="a_node11"><a xlink:href="group__output-voltage-feedback.html" target="_top" xlink:title="Declaration of output voltage feedback properties.">
<polygon fill="white" stroke="black" points="298,-56 170,-56 170,-37 298,-37 298,-56"/>
<text text-anchor="middle" x="234" y="-44" font-family="Helvetica,sans-Serif" font-size="10.00">Output Voltage Feedback</text>
</a>
</g>
</g>
<!-- Node1&#45;&gt;Node7 -->
<g id="edge6" class="edge">
<title>Node1&#45;&gt;Node7</title>
<path fill="none" stroke="black" d="M72.55,-193.48C86.03,-161.96 117.32,-99.07 164,-65.5 169.45,-61.58 175.67,-58.47 182.09,-56"/>
<polygon fill="black" stroke="black" points="69.25,-192.3 68.66,-202.87 75.71,-194.97 69.25,-192.3"/>
</g>
<!-- Node11 -->
<g id="node12" class="node">
<title>Node11</title>
<g id="a_node12"><a xlink:href="group__fault-object-declarations.html" target="_top" xlink:title="Global defines for fault&#45;monitor related parameters.">
<polygon fill="white" stroke="black" points="297.5,-19 170.5,-19 170.5,0 297.5,0 297.5,-19"/>
<text text-anchor="middle" x="234" y="-7" font-family="Helvetica,sans-Serif" font-size="10.00">Fault Object Declarations</text>
</a>
</g>
</g>
<!-- Node1&#45;&gt;Node11 -->
<g id="edge10" class="edge">
<title>Node1&#45;&gt;Node11</title>
<path fill="none" stroke="black" d="M69.95,-192.99C80.53,-155.3 109.01,-72.33 164,-28.5 168.86,-24.63 174.45,-21.54 180.31,-19.09"/>
<polygon fill="black" stroke="black" points="66.54,-192.18 67.33,-202.75 73.3,-194 66.54,-192.18"/>
</g>
</g>
</svg>
