<?xml version="1.0" encoding="UTF-8" standalone="no"?>
<!DOCTYPE svg PUBLIC "-//W3C//DTD SVG 1.1//EN"
 "http://www.w3.org/Graphics/SVG/1.1/DTD/svg11.dtd">
<!-- Generated by graphviz version 2.44.1 (20200629.0846)
 -->
<!-- Title: main Pages: 1 -->
<svg width="1132pt" height="382pt"
 viewBox="0.00 0.00 1132.00 382.00" xmlns="http://www.w3.org/2000/svg" xmlns:xlink="http://www.w3.org/1999/xlink">
<g id="graph0" class="graph" transform="scale(1 1) rotate(0) translate(4 378)">
<title>main</title>
<polygon fill="white" stroke="transparent" points="-4,4 -4,-378 1128,-378 1128,4 -4,4"/>
<!-- Node1 -->
<g id="node1" class="node">
<title>Node1</title>
<g id="a_node1"><a xlink:title="Application main function executed after device comes out of RESET.">
<polygon fill="#bfbfbf" stroke="black" points="0,-163.5 0,-182.5 38,-182.5 38,-163.5 0,-163.5"/>
<text text-anchor="middle" x="19" y="-170.5" font-family="Helvetica,sans-Serif" font-size="10.00">main</text>
</a>
</g>
</g>
<!-- Node2 -->
<g id="node2" class="node">
<title>Node2</title>
<g id="a_node2"><a xlink:href="group__main-loop.html#ga8842f6a41fe23f932a8864fc140c4b5b" target="_top" xlink:title="Application wide fault object monitoring routine.">
<polygon fill="white" stroke="black" points="75.5,-316.5 75.5,-335.5 203.5,-335.5 203.5,-316.5 75.5,-316.5"/>
<text text-anchor="middle" x="139.5" y="-323.5" font-family="Helvetica,sans-Serif" font-size="10.00">appFaultMonitor_Execute</text>
</a>
</g>
</g>
<!-- Node1&#45;&gt;Node2 -->
<g id="edge1" class="edge">
<title>Node1&#45;&gt;Node2</title>
<path fill="none" stroke="midnightblue" d="M24.77,-182.71C33.39,-199.8 52.65,-235.98 74,-263 87.5,-280.09 105.38,-297.21 118.89,-309.28"/>
<polygon fill="midnightblue" stroke="midnightblue" points="116.83,-312.13 126.66,-316.1 121.45,-306.87 116.83,-312.13"/>
</g>
<!-- Node9 -->
<g id="node9" class="node">
<title>Node9</title>
<g id="a_node9"><a xlink:href="group__device-start-up.html#ga830e5c7087a8e5ee8ea39b7e3df94b68" target="_top" xlink:title="Initialization of user&#45;defined fault objects.">
<polygon fill="white" stroke="black" points="76,-125.5 76,-144.5 203,-144.5 203,-125.5 76,-125.5"/>
<text text-anchor="middle" x="139.5" y="-132.5" font-family="Helvetica,sans-Serif" font-size="10.00">appFaultMonitor_Initialize</text>
</a>
</g>
</g>
<!-- Node1&#45;&gt;Node9 -->
<g id="edge8" class="edge">
<title>Node1&#45;&gt;Node9</title>
<path fill="none" stroke="midnightblue" d="M38.41,-166.25C48.82,-162.51 62.08,-157.85 74,-154 80.72,-151.83 87.86,-149.63 94.85,-147.52"/>
<polygon fill="midnightblue" stroke="midnightblue" points="96.33,-150.74 104.92,-144.53 94.34,-144.02 96.33,-150.74"/>
</g>
<!-- Node10 -->
<g id="node10" class="node">
<title>Node10</title>
<g id="a_node10"><a xlink:href="group__main-loop.html#ga13094235dd6cc123d9299925359ca178" target="_top" xlink:title="This is the top&#45;level function call triggering the most recent state machine of all associated power ...">
<polygon fill="white" stroke="black" points="74,-234.5 74,-253.5 205,-253.5 205,-234.5 74,-234.5"/>
<text text-anchor="middle" x="139.5" y="-241.5" font-family="Helvetica,sans-Serif" font-size="10.00">appPowerSupply_Execute</text>
</a>
</g>
</g>
<!-- Node1&#45;&gt;Node10 -->
<g id="edge9" class="edge">
<title>Node1&#45;&gt;Node10</title>
<path fill="none" stroke="midnightblue" d="M35.98,-182.58C55.95,-194.54 90.33,-215.14 113.72,-229.15"/>
<polygon fill="midnightblue" stroke="midnightblue" points="112.02,-232.21 122.39,-234.35 115.61,-226.21 112.02,-232.21"/>
</g>
<!-- Node12 -->
<g id="node12" class="node">
<title>Node12</title>
<g id="a_node12"><a xlink:href="group__device-start-up.html#ga7a4cf6371d09457539f96a74b2809ca0" target="_top" xlink:title="Description">
<polygon fill="white" stroke="black" points="74.5,-163.5 74.5,-182.5 204.5,-182.5 204.5,-163.5 74.5,-163.5"/>
<text text-anchor="middle" x="139.5" y="-170.5" font-family="Helvetica,sans-Serif" font-size="10.00">appPowerSupply_Initialize</text>
</a>
</g>
</g>
<!-- Node1&#45;&gt;Node12 -->
<g id="edge12" class="edge">
<title>Node1&#45;&gt;Node12</title>
<path fill="none" stroke="midnightblue" d="M38.26,-173C45.63,-173 54.66,-173 64.26,-173"/>
<polygon fill="midnightblue" stroke="midnightblue" points="64.41,-176.5 74.41,-173 64.41,-169.5 64.41,-176.5"/>
</g>
<!-- Node35 -->
<g id="node35" class="node">
<title>Node35</title>
<g id="a_node35"><a xlink:href="group__device-start-up.html#ga5630229f9308951b78658dc1af6b10e3" target="_top" xlink:title="Initializes essential chip resources and application task.">
<polygon fill="white" stroke="black" points="90.5,-87.5 90.5,-106.5 188.5,-106.5 188.5,-87.5 90.5,-87.5"/>
<text text-anchor="middle" x="139.5" y="-94.5" font-family="Helvetica,sans-Serif" font-size="10.00">SYSTEM_Initialize</text>
</a>
</g>
</g>
<!-- Node1&#45;&gt;Node35 -->
<g id="edge39" class="edge">
<title>Node1&#45;&gt;Node35</title>
<path fill="none" stroke="midnightblue" d="M26.53,-163.45C35.69,-150.77 53.54,-128.53 74,-116 77.43,-113.9 81.1,-112.02 84.9,-110.34"/>
<polygon fill="midnightblue" stroke="midnightblue" points="86.47,-113.48 94.49,-106.57 83.9,-106.97 86.47,-113.48"/>
</g>
<!-- Node3 -->
<g id="node3" class="node">
<title>Node3</title>
<g id="a_node3"><a xlink:href="group__power-handler-function.html#ga3c7bf6b771bc1296401a270da4a95bff" target="_top" xlink:title="Description">
<polygon fill="white" stroke="black" points="252.5,-354.5 252.5,-373.5 383.5,-373.5 383.5,-354.5 252.5,-354.5"/>
<text text-anchor="middle" x="318" y="-361.5" font-family="Helvetica,sans-Serif" font-size="10.00">appPowerSupply_Resume</text>
</a>
</g>
</g>
<!-- Node2&#45;&gt;Node3 -->
<g id="edge2" class="edge">
<title>Node2&#45;&gt;Node3</title>
<path fill="none" stroke="midnightblue" d="M185.04,-335.59C208.64,-340.67 237.83,-346.96 262.75,-352.32"/>
<polygon fill="midnightblue" stroke="midnightblue" points="262.27,-355.8 272.78,-354.48 263.74,-348.95 262.27,-355.8"/>
</g>
<!-- Node8 -->
<g id="node8" class="node">
<title>Node8</title>
<g id="a_node8"><a xlink:href="group__fault-handler-function.html#ga47606594b5bc56b85a3ff49bd4f3d1ad" target="_top" xlink:title="Check current fault status of a user&#45;defined fault object.">
<polygon fill="white" stroke="black" points="276.5,-316.5 276.5,-335.5 359.5,-335.5 359.5,-316.5 276.5,-316.5"/>
<text text-anchor="middle" x="318" y="-323.5" font-family="Helvetica,sans-Serif" font-size="10.00">drv_FaultCheck</text>
</a>
</g>
</g>
<!-- Node2&#45;&gt;Node8 -->
<g id="edge7" class="edge">
<title>Node2&#45;&gt;Node8</title>
<path fill="none" stroke="midnightblue" d="M203.72,-326C224.26,-326 246.78,-326 266.29,-326"/>
<polygon fill="midnightblue" stroke="midnightblue" points="266.48,-329.5 276.48,-326 266.48,-322.5 266.48,-329.5"/>
</g>
<!-- Node4 -->
<g id="node4" class="node">
<title>Node4</title>
<g id="a_node4"><a xlink:href="group__power-handler-function.html#gaf73787b6b72bc61786a39b9c7e47f6c6" target="_top" xlink:title="Description">
<polygon fill="white" stroke="black" points="431,-335.5 431,-354.5 569,-354.5 569,-335.5 431,-335.5"/>
<text text-anchor="middle" x="500" y="-342.5" font-family="Helvetica,sans-Serif" font-size="10.00">drv_BuckConverter_Resume</text>
</a>
</g>
</g>
<!-- Node3&#45;&gt;Node4 -->
<g id="edge3" class="edge">
<title>Node3&#45;&gt;Node4</title>
<path fill="none" stroke="midnightblue" d="M383.73,-357.17C395.7,-355.9 408.32,-354.57 420.64,-353.27"/>
<polygon fill="midnightblue" stroke="midnightblue" points="421.32,-356.72 430.9,-352.19 420.59,-349.76 421.32,-356.72"/>
</g>
<!-- Node5 -->
<g id="node5" class="node">
<title>Node5</title>
<g id="a_node5"><a xlink:href="group__power-handler-function.html#ga75498c59a10db0738113104a547d8d0d" target="_top" xlink:title="This function is the main buck converter state machine executing the most recent state.">
<polygon fill="white" stroke="black" points="605,-278.5 605,-297.5 743,-297.5 743,-278.5 605,-278.5"/>
<text text-anchor="middle" x="674" y="-285.5" font-family="Helvetica,sans-Serif" font-size="10.00">drv_BuckConverter_Execute</text>
</a>
</g>
</g>
<!-- Node4&#45;&gt;Node5 -->
<g id="edge4" class="edge">
<title>Node4&#45;&gt;Node5</title>
<path fill="none" stroke="midnightblue" d="M529.79,-335.46C558.44,-325.97 602.59,-311.33 634.3,-300.83"/>
<polygon fill="midnightblue" stroke="midnightblue" points="635.73,-304.04 644.12,-297.57 633.52,-297.4 635.73,-304.04"/>
</g>
<!-- Node6 -->
<g id="node6" class="node">
<title>Node6</title>
<g id="a_node6"><a xlink:href="group__power-handler-function.html#gad4e9d780ae858d4417887f13b1619346" target="_top" xlink:title="Description">
<polygon fill="white" stroke="black" points="798,-278.5 798,-297.5 918,-297.5 918,-278.5 798,-278.5"/>
<text text-anchor="middle" x="858" y="-285.5" font-family="Helvetica,sans-Serif" font-size="10.00">buckGPIO_GetPinState</text>
</a>
</g>
</g>
<!-- Node5&#45;&gt;Node6 -->
<g id="edge5" class="edge">
<title>Node5&#45;&gt;Node6</title>
<path fill="none" stroke="midnightblue" d="M743.03,-288C757.49,-288 772.78,-288 787.3,-288"/>
<polygon fill="midnightblue" stroke="midnightblue" points="787.72,-291.5 797.72,-288 787.72,-284.5 787.72,-291.5"/>
</g>
<!-- Node7 -->
<g id="node7" class="node">
<title>Node7</title>
<g id="a_node7"><a xlink:href="group__gpio.html#gae1bc534f11ac7cf278865cb73b601055" target="_top" xlink:title="Gets pointer to GPIO Instance SFR set.">
<polygon fill="white" stroke="black" points="973,-145.5 973,-164.5 1124,-164.5 1124,-145.5 973,-145.5"/>
<text text-anchor="middle" x="1048.5" y="-152.5" font-family="Helvetica,sans-Serif" font-size="10.00">p33c_GpioInstance_GetHandle</text>
</a>
</g>
</g>
<!-- Node6&#45;&gt;Node7 -->
<g id="edge6" class="edge">
<title>Node6&#45;&gt;Node7</title>
<path fill="none" stroke="midnightblue" d="M915.03,-278.43C922.68,-275.97 930.23,-272.88 937,-269 979.82,-244.48 1016.79,-198.51 1035.15,-173.08"/>
<polygon fill="midnightblue" stroke="midnightblue" points="1038.14,-174.9 1041.05,-164.71 1032.42,-170.87 1038.14,-174.9"/>
</g>
<!-- Node10&#45;&gt;Node5 -->
<g id="edge11" class="edge">
<title>Node10&#45;&gt;Node5</title>
<path fill="none" stroke="midnightblue" d="M171.86,-253.52C191.53,-259.06 217.51,-265.6 241,-269 363.74,-286.78 507.98,-289.53 594.85,-289.24"/>
<polygon fill="midnightblue" stroke="midnightblue" points="594.91,-292.74 604.89,-289.19 594.87,-285.74 594.91,-292.74"/>
</g>
<!-- Node11 -->
<g id="node11" class="node">
<title>Node11</title>
<g id="a_node11"><a xlink:href="group__power-handler-function.html#gab80ac65aae45f7f9d9fd4ef6f8c56111" target="_top" xlink:title="Description">
<polygon fill="white" stroke="black" points="241,-229 241,-259 395,-259 395,-229 241,-229"/>
<text text-anchor="start" x="249" y="-247" font-family="Helvetica,sans-Serif" font-size="10.00">appPowerSupply_CurrentSense</text>
<text text-anchor="middle" x="318" y="-236" font-family="Helvetica,sans-Serif" font-size="10.00">Calibration</text>
</a>
</g>
</g>
<!-- Node10&#45;&gt;Node11 -->
<g id="edge10" class="edge">
<title>Node10&#45;&gt;Node11</title>
<path fill="none" stroke="midnightblue" d="M205.22,-244C213.56,-244 222.21,-244 230.83,-244"/>
<polygon fill="midnightblue" stroke="midnightblue" points="230.92,-247.5 240.92,-244 230.92,-240.5 230.92,-247.5"/>
</g>
<!-- Node13 -->
<g id="node13" class="node">
<title>Node13</title>
<g id="a_node13"><a xlink:href="group__power-handler-function.html#ga0b4cabdb02c8c9ea94ea1dfa39de3764" target="_top" xlink:title="Description">
<polygon fill="white" stroke="black" points="250,-92 250,-122 386,-122 386,-92 250,-92"/>
<text text-anchor="start" x="258" y="-110" font-family="Helvetica,sans-Serif" font-size="10.00">appPowerSupply_Controller</text>
<text text-anchor="middle" x="318" y="-99" font-family="Helvetica,sans-Serif" font-size="10.00">Initialize</text>
</a>
</g>
</g>
<!-- Node12&#45;&gt;Node13 -->
<g id="edge13" class="edge">
<title>Node12&#45;&gt;Node13</title>
<path fill="none" stroke="midnightblue" d="M178.95,-163.47C187.67,-160.82 196.78,-157.64 205,-154 222.14,-146.4 223.98,-139.87 241,-132 245.89,-129.74 251.03,-127.59 256.25,-125.57"/>
<polygon fill="midnightblue" stroke="midnightblue" points="257.52,-128.84 265.68,-122.08 255.09,-122.27 257.52,-128.84"/>
</g>
<!-- Node14 -->
<g id="node14" class="node">
<title>Node14</title>
<g id="a_node14"><a xlink:href="group__power-handler-function.html#gad0f6ff4894bf23722884c60bbcdcacd0" target="_top" xlink:title="Description">
<polygon fill="white" stroke="black" points="250.5,-43 250.5,-73 385.5,-73 385.5,-43 250.5,-43"/>
<text text-anchor="start" x="258.5" y="-61" font-family="Helvetica,sans-Serif" font-size="10.00">appPowerSupply_Converter</text>
<text text-anchor="middle" x="318" y="-50" font-family="Helvetica,sans-Serif" font-size="10.00">ObjectInitialize</text>
</a>
</g>
</g>
<!-- Node12&#45;&gt;Node14 -->
<g id="edge14" class="edge">
<title>Node12&#45;&gt;Node14</title>
<path fill="none" stroke="midnightblue" d="M189.23,-163.45C194.92,-160.99 200.34,-157.9 205,-154 232.44,-131.04 213.79,-105.23 241,-82 242.5,-80.72 244.07,-79.51 245.69,-78.36"/>
<polygon fill="midnightblue" stroke="midnightblue" points="247.52,-81.35 254.23,-73.14 243.87,-75.37 247.52,-81.35"/>
</g>
<!-- Node15 -->
<g id="node15" class="node">
<title>Node15</title>
<g id="a_node15"><a xlink:href="group__power-handler-function.html#ga0b26acfec74d1804384b4ba1a3cffab4" target="_top" xlink:title="Description">
<polygon fill="white" stroke="black" points="246.5,-180 246.5,-210 389.5,-210 389.5,-180 246.5,-180"/>
<text text-anchor="start" x="254.5" y="-198" font-family="Helvetica,sans-Serif" font-size="10.00">appPowerSupply_Peripherals</text>
<text text-anchor="middle" x="318" y="-187" font-family="Helvetica,sans-Serif" font-size="10.00">Initialize</text>
</a>
</g>
</g>
<!-- Node12&#45;&gt;Node15 -->
<g id="edge15" class="edge">
<title>Node12&#45;&gt;Node15</title>
<path fill="none" stroke="midnightblue" d="M204.72,-181C214.95,-182.28 225.65,-183.61 236.21,-184.93"/>
<polygon fill="midnightblue" stroke="midnightblue" points="235.91,-188.42 246.27,-186.18 236.78,-181.47 235.91,-188.42"/>
</g>
<!-- Node31 -->
<g id="node31" class="node">
<title>Node31</title>
<g id="a_node31"><a xlink:href="group__power-handler-function.html#ga9210070749c2ed49abd8a30b27f64151" target="_top" xlink:title="Description">
<polygon fill="white" stroke="black" points="260,-141.5 260,-160.5 376,-160.5 376,-141.5 260,-141.5"/>
<text text-anchor="middle" x="318" y="-148.5" font-family="Helvetica,sans-Serif" font-size="10.00">appPowerSupply_Start</text>
</a>
</g>
</g>
<!-- Node12&#45;&gt;Node31 -->
<g id="edge34" class="edge">
<title>Node12&#45;&gt;Node31</title>
<path fill="none" stroke="midnightblue" d="M204.72,-165C219.38,-163.17 234.99,-161.22 249.77,-159.38"/>
<polygon fill="midnightblue" stroke="midnightblue" points="250.35,-162.83 259.84,-158.12 249.49,-155.89 250.35,-162.83"/>
</g>
<!-- Node16 -->
<g id="node16" class="node">
<title>Node16</title>
<g id="a_node16"><a xlink:href="group__power-handler-function.html#ga97eb8bdd17b9c2e169f0634ebabb5d19" target="_top" xlink:title="This function initializes all peripheral modules and their instances used by the power controller.">
<polygon fill="white" stroke="black" points="431.5,-126.5 431.5,-145.5 568.5,-145.5 568.5,-126.5 431.5,-126.5"/>
<text text-anchor="middle" x="500" y="-133.5" font-family="Helvetica,sans-Serif" font-size="10.00">drv_BuckConverter_Initialize</text>
</a>
</g>
</g>
<!-- Node15&#45;&gt;Node16 -->
<g id="edge16" class="edge">
<title>Node15&#45;&gt;Node16</title>
<path fill="none" stroke="midnightblue" d="M366.63,-179.96C376.08,-176.8 385.89,-173.39 395,-170 411.24,-163.95 414.62,-160.68 431,-155 437.61,-152.71 444.66,-150.49 451.62,-148.43"/>
<polygon fill="midnightblue" stroke="midnightblue" points="453.05,-151.67 461.69,-145.54 451.11,-144.94 453.05,-151.67"/>
</g>
<!-- Node28 -->
<g id="node28" class="node">
<title>Node28</title>
<g id="a_node28"><a xlink:href="group__pps.html#ga46aebc06e62c1484f9e95190711067dd" target="_top" xlink:title="Locks the Peripheral Pin Select Configuration registers against accidental changes.">
<polygon fill="white" stroke="black" points="463.5,-240.5 463.5,-259.5 536.5,-259.5 536.5,-240.5 463.5,-240.5"/>
<text text-anchor="middle" x="500" y="-247.5" font-family="Helvetica,sans-Serif" font-size="10.00">PPS_LockIO</text>
</a>
</g>
</g>
<!-- Node15&#45;&gt;Node28 -->
<g id="edge31" class="edge">
<title>Node15&#45;&gt;Node28</title>
<path fill="none" stroke="midnightblue" d="M367.28,-210.12C376.49,-213.04 386.05,-216.1 395,-219 411.04,-224.21 414.87,-226.06 431,-231 438.33,-233.25 446.15,-235.53 453.76,-237.7"/>
<polygon fill="midnightblue" stroke="midnightblue" points="453.04,-241.13 463.61,-240.47 454.93,-234.39 453.04,-241.13"/>
</g>
<!-- Node29 -->
<g id="node29" class="node">
<title>Node29</title>
<g id="a_node29"><a xlink:href="group__pps.html#ga1ac2bc53484e4e452fd3b4c027037ebf" target="_top" xlink:title="Assigns a digital function output to a pin.">
<polygon fill="white" stroke="black" points="449,-202.5 449,-221.5 551,-221.5 551,-202.5 449,-202.5"/>
<text text-anchor="middle" x="500" y="-209.5" font-family="Helvetica,sans-Serif" font-size="10.00">PPS_RemapOutput</text>
</a>
</g>
</g>
<!-- Node15&#45;&gt;Node29 -->
<g id="edge32" class="edge">
<title>Node15&#45;&gt;Node29</title>
<path fill="none" stroke="midnightblue" d="M389.62,-201.67C405.86,-203.2 422.99,-204.82 438.74,-206.31"/>
<polygon fill="midnightblue" stroke="midnightblue" points="438.59,-209.81 448.87,-207.27 439.25,-202.84 438.59,-209.81"/>
</g>
<!-- Node30 -->
<g id="node30" class="node">
<title>Node30</title>
<g id="a_node30"><a xlink:href="group__pps.html#ga3fa51d1be870c73331607df4455a30f8" target="_top" xlink:title="Unlocks the Peripheral Pin Select Configuration registers to enable changes.">
<polygon fill="white" stroke="black" points="459,-164.5 459,-183.5 541,-183.5 541,-164.5 459,-164.5"/>
<text text-anchor="middle" x="500" y="-171.5" font-family="Helvetica,sans-Serif" font-size="10.00">PPS_UnlockIO</text>
</a>
</g>
</g>
<!-- Node15&#45;&gt;Node30 -->
<g id="edge33" class="edge">
<title>Node15&#45;&gt;Node30</title>
<path fill="none" stroke="midnightblue" d="M389.62,-186.76C409.39,-184.45 430.47,-181.99 448.8,-179.86"/>
<polygon fill="midnightblue" stroke="midnightblue" points="449.42,-183.31 458.95,-178.67 448.61,-176.35 449.42,-183.31"/>
</g>
<!-- Node17 -->
<g id="node17" class="node">
<title>Node17</title>
<g id="a_node17"><a xlink:href="group__power-handler-function.html#gab889ae485e95010864ca04500457861a" target="_top" xlink:title="Description">
<polygon fill="white" stroke="black" points="607,-240.5 607,-259.5 741,-259.5 741,-240.5 607,-240.5"/>
<text text-anchor="middle" x="674" y="-247.5" font-family="Helvetica,sans-Serif" font-size="10.00">buckADC_ChannelInitialize</text>
</a>
</g>
</g>
<!-- Node16&#45;&gt;Node17 -->
<g id="edge17" class="edge">
<title>Node16&#45;&gt;Node17</title>
<path fill="none" stroke="midnightblue" d="M553.47,-145.58C559.08,-148.04 564.41,-151.13 569,-155 597.58,-179.09 576.42,-206.91 605,-231 607.01,-232.69 609.16,-234.24 611.41,-235.64"/>
<polygon fill="midnightblue" stroke="midnightblue" points="610.04,-238.88 620.53,-240.42 613.29,-232.68 610.04,-238.88"/>
</g>
<!-- Node18 -->
<g id="node18" class="node">
<title>Node18</title>
<g id="a_node18"><a xlink:href="group__power-handler-function.html#ga086bc1e4304b2ce7a435bf2a9799d078" target="_top" xlink:title="Description">
<polygon fill="white" stroke="black" points="609,-202.5 609,-221.5 739,-221.5 739,-202.5 609,-202.5"/>
<text text-anchor="middle" x="674" y="-209.5" font-family="Helvetica,sans-Serif" font-size="10.00">buckADC_ModuleInitialize</text>
</a>
</g>
</g>
<!-- Node16&#45;&gt;Node18 -->
<g id="edge18" class="edge">
<title>Node16&#45;&gt;Node18</title>
<path fill="none" stroke="midnightblue" d="M548.11,-145.56C555.38,-148.04 562.6,-151.14 569,-155 588.92,-167.01 585.08,-180.99 605,-193 608.6,-195.17 612.46,-197.1 616.44,-198.82"/>
<polygon fill="midnightblue" stroke="midnightblue" points="615.3,-202.13 625.89,-202.44 617.81,-195.59 615.3,-202.13"/>
</g>
<!-- Node19 -->
<g id="node19" class="node">
<title>Node19</title>
<g id="a_node19"><a xlink:href="group__power-handler-function.html#ga984f623275f9e1da2e11be2e9ff8221c" target="_top" xlink:title="Description">
<polygon fill="white" stroke="black" points="623,-126.5 623,-145.5 725,-145.5 725,-126.5 623,-126.5"/>
<text text-anchor="middle" x="674" y="-133.5" font-family="Helvetica,sans-Serif" font-size="10.00">buckGPIO_Initialize</text>
</a>
</g>
</g>
<!-- Node16&#45;&gt;Node19 -->
<g id="edge19" class="edge">
<title>Node16&#45;&gt;Node19</title>
<path fill="none" stroke="midnightblue" d="M568.98,-136C583.41,-136 598.55,-136 612.68,-136"/>
<polygon fill="midnightblue" stroke="midnightblue" points="612.76,-139.5 622.76,-136 612.76,-132.5 612.76,-139.5"/>
</g>
<!-- Node22 -->
<g id="node22" class="node">
<title>Node22</title>
<g id="a_node22"><a xlink:href="group__power-handler-function.html#ga283487111ea685224a2caf350540daad" target="_top" xlink:title="Description">
<polygon fill="white" stroke="black" points="605,-82.5 605,-101.5 743,-101.5 743,-82.5 605,-82.5"/>
<text text-anchor="middle" x="674" y="-89.5" font-family="Helvetica,sans-Serif" font-size="10.00">buckPWM_ChannelInitialize</text>
</a>
</g>
</g>
<!-- Node16&#45;&gt;Node22 -->
<g id="edge24" class="edge">
<title>Node16&#45;&gt;Node22</title>
<path fill="none" stroke="midnightblue" d="M538.32,-126.45C564.02,-119.88 598.36,-111.1 625.93,-104.04"/>
<polygon fill="midnightblue" stroke="midnightblue" points="626.93,-107.4 635.75,-101.53 625.2,-100.62 626.93,-107.4"/>
</g>
<!-- Node25 -->
<g id="node25" class="node">
<title>Node25</title>
<g id="a_node25"><a xlink:href="group__power-handler-function.html#ga1dedc10502a96efea6da9207f3416219" target="_top" xlink:title="Description">
<polygon fill="white" stroke="black" points="607,-164.5 607,-183.5 741,-183.5 741,-164.5 607,-164.5"/>
<text text-anchor="middle" x="674" y="-171.5" font-family="Helvetica,sans-Serif" font-size="10.00">buckPWM_ModuleInitialize</text>
</a>
</g>
</g>
<!-- Node16&#45;&gt;Node25 -->
<g id="edge28" class="edge">
<title>Node16&#45;&gt;Node25</title>
<path fill="none" stroke="midnightblue" d="M544.4,-145.59C567.41,-150.67 595.85,-156.96 620.13,-162.32"/>
<polygon fill="midnightblue" stroke="midnightblue" points="619.39,-165.74 629.91,-164.48 620.9,-158.91 619.39,-165.74"/>
</g>
<!-- Node20 -->
<g id="node20" class="node">
<title>Node20</title>
<g id="a_node20"><a xlink:href="group__power-handler-function.html#ga649bb2f18322be1a303d05931adb2c6a" target="_top" xlink:title="Description">
<polygon fill="white" stroke="black" points="813.5,-164.5 813.5,-183.5 902.5,-183.5 902.5,-164.5 813.5,-164.5"/>
<text text-anchor="middle" x="858" y="-171.5" font-family="Helvetica,sans-Serif" font-size="10.00">buckGPIO_Clear</text>
</a>
</g>
</g>
<!-- Node19&#45;&gt;Node20 -->
<g id="edge20" class="edge">
<title>Node19&#45;&gt;Node20</title>
<path fill="none" stroke="midnightblue" d="M720.93,-145.59C745.93,-150.81 777.02,-157.3 803.16,-162.76"/>
<polygon fill="midnightblue" stroke="midnightblue" points="802.78,-166.25 813.28,-164.87 804.21,-159.4 802.78,-166.25"/>
</g>
<!-- Node21 -->
<g id="node21" class="node">
<title>Node21</title>
<g id="a_node21"><a xlink:href="group__power-handler-function.html#ga3d3f91c0e40884874e7df3a67fff23f3" target="_top" xlink:title="Description">
<polygon fill="white" stroke="black" points="792.5,-126.5 792.5,-145.5 923.5,-145.5 923.5,-126.5 792.5,-126.5"/>
<text text-anchor="middle" x="858" y="-133.5" font-family="Helvetica,sans-Serif" font-size="10.00">buckGPIO_PrivateInitialize</text>
</a>
</g>
</g>
<!-- Node19&#45;&gt;Node21 -->
<g id="edge22" class="edge">
<title>Node19&#45;&gt;Node21</title>
<path fill="none" stroke="midnightblue" d="M725.21,-136C742.78,-136 762.91,-136 782.06,-136"/>
<polygon fill="midnightblue" stroke="midnightblue" points="782.27,-139.5 792.27,-136 782.27,-132.5 782.27,-139.5"/>
</g>
<!-- Node20&#45;&gt;Node7 -->
<g id="edge21" class="edge">
<title>Node20&#45;&gt;Node7</title>
<path fill="none" stroke="midnightblue" d="M902.72,-169.59C920.66,-167.78 942.08,-165.63 962.86,-163.53"/>
<polygon fill="midnightblue" stroke="midnightblue" points="963.4,-166.99 973,-162.51 962.7,-160.03 963.4,-166.99"/>
</g>
<!-- Node21&#45;&gt;Node7 -->
<g id="edge23" class="edge">
<title>Node21&#45;&gt;Node7</title>
<path fill="none" stroke="midnightblue" d="M923.61,-142.51C936.26,-143.79 949.71,-145.14 962.9,-146.47"/>
<polygon fill="midnightblue" stroke="midnightblue" points="962.62,-149.96 972.92,-147.48 963.33,-143 962.62,-149.96"/>
</g>
<!-- Node22&#45;&gt;Node7 -->
<g id="edge25" class="edge">
<title>Node22&#45;&gt;Node7</title>
<path fill="none" stroke="midnightblue" d="M743.26,-94.1C796.53,-96.8 872.13,-102.96 937,-117 963.99,-122.84 993.53,-133.22 1015.27,-141.65"/>
<polygon fill="midnightblue" stroke="midnightblue" points="1014.08,-144.95 1024.67,-145.37 1016.66,-138.44 1014.08,-144.95"/>
</g>
<!-- Node23 -->
<g id="node23" class="node">
<title>Node23</title>
<g id="a_node23"><a xlink:href="group__pwm.html#ga2de389951f418d4fcd9a5237f39a11a1" target="_top" xlink:title="Disposes a given PWM generator by resetting all its registers to default.">
<polygon fill="white" stroke="black" points="788,-39 788,-69 928,-69 928,-39 788,-39"/>
<text text-anchor="start" x="796" y="-57" font-family="Helvetica,sans-Serif" font-size="10.00">p33c_PwmGenerator_Config</text>
<text text-anchor="middle" x="858" y="-46" font-family="Helvetica,sans-Serif" font-size="10.00">Write</text>
</a>
</g>
</g>
<!-- Node22&#45;&gt;Node23 -->
<g id="edge26" class="edge">
<title>Node22&#45;&gt;Node23</title>
<path fill="none" stroke="midnightblue" d="M720.93,-82.41C738.14,-78.82 758.24,-74.62 777.62,-70.57"/>
<polygon fill="midnightblue" stroke="midnightblue" points="778.6,-73.94 787.67,-68.47 777.17,-67.09 778.6,-73.94"/>
</g>
<!-- Node24 -->
<g id="node24" class="node">
<title>Node24</title>
<g id="a_node24"><a xlink:href="group__pwm.html#ga8aa18df01ada60e1faac049c5eb34700" target="_top" xlink:title="Returns the PWM generator index.">
<polygon fill="white" stroke="black" points="779,-0.5 779,-19.5 937,-19.5 937,-0.5 779,-0.5"/>
<text text-anchor="middle" x="858" y="-7.5" font-family="Helvetica,sans-Serif" font-size="10.00">p33c_PwmGenerator_GetHandle</text>
</a>
</g>
</g>
<!-- Node22&#45;&gt;Node24 -->
<g id="edge27" class="edge">
<title>Node22&#45;&gt;Node24</title>
<path fill="none" stroke="midnightblue" d="M721.26,-82.41C728.87,-79.72 736.41,-76.32 743,-72 763.85,-58.34 757.83,-42.16 779,-29 782.43,-26.87 786.08,-24.97 789.87,-23.29"/>
<polygon fill="midnightblue" stroke="midnightblue" points="791.44,-26.43 799.48,-19.54 788.89,-19.92 791.44,-26.43"/>
</g>
<!-- Node26 -->
<g id="node26" class="node">
<title>Node26</title>
<g id="a_node26"><a xlink:href="group__pwm.html#ga68493af214377a7329daa5f60825fac5" target="_top" xlink:title="Writes a user&#45;defined configuration to the PWM base module registers.">
<polygon fill="white" stroke="black" points="782,-240.5 782,-259.5 934,-259.5 934,-240.5 782,-240.5"/>
<text text-anchor="middle" x="858" y="-247.5" font-family="Helvetica,sans-Serif" font-size="10.00">p33c_PwmModule_ConfigWrite</text>
</a>
</g>
</g>
<!-- Node25&#45;&gt;Node26 -->
<g id="edge29" class="edge">
<title>Node25&#45;&gt;Node26</title>
<path fill="none" stroke="midnightblue" d="M722.11,-183.56C729.38,-186.04 736.6,-189.14 743,-193 762.92,-205.01 758.88,-219.33 779,-231 782.73,-233.16 786.7,-235.08 790.79,-236.78"/>
<polygon fill="midnightblue" stroke="midnightblue" points="789.92,-240.19 800.52,-240.37 792.34,-233.63 789.92,-240.19"/>
</g>
<!-- Node27 -->
<g id="node27" class="node">
<title>Node27</title>
<g id="a_node27"><a xlink:href="group__pwm.html#ga02fe57798710b1b54904a4920c181453" target="_top" xlink:title="Gets pointer to PWM module SFR set.">
<polygon fill="white" stroke="black" points="784.5,-202.5 784.5,-221.5 931.5,-221.5 931.5,-202.5 784.5,-202.5"/>
<text text-anchor="middle" x="858" y="-209.5" font-family="Helvetica,sans-Serif" font-size="10.00">p33c_PwmModule_GetHandle</text>
</a>
</g>
</g>
<!-- Node25&#45;&gt;Node27 -->
<g id="edge30" class="edge">
<title>Node25&#45;&gt;Node27</title>
<path fill="none" stroke="midnightblue" d="M720.93,-183.59C745.38,-188.69 775.63,-195.01 801.4,-200.39"/>
<polygon fill="midnightblue" stroke="midnightblue" points="800.9,-203.86 811.4,-202.48 802.33,-197.01 800.9,-203.86"/>
</g>
<!-- Node32 -->
<g id="node32" class="node">
<title>Node32</title>
<g id="a_node32"><a xlink:href="group__power-handler-function.html#ga8c05ea0ee077172e4025d8b7a36f5c9f" target="_top" xlink:title="Description">
<polygon fill="white" stroke="black" points="438.5,-43.5 438.5,-62.5 561.5,-62.5 561.5,-43.5 438.5,-43.5"/>
<text text-anchor="middle" x="500" y="-50.5" font-family="Helvetica,sans-Serif" font-size="10.00">drv_BuckConverter_Start</text>
</a>
</g>
</g>
<!-- Node31&#45;&gt;Node32 -->
<g id="edge35" class="edge">
<title>Node31&#45;&gt;Node32</title>
<path fill="none" stroke="midnightblue" d="M366.64,-141.48C376.28,-138.73 386.16,-135.28 395,-131 428.42,-114.84 461.84,-87.24 481.45,-69.58"/>
<polygon fill="midnightblue" stroke="midnightblue" points="483.97,-72.02 488.97,-62.68 479.24,-66.86 483.97,-72.02"/>
</g>
<!-- Node33 -->
<g id="node33" class="node">
<title>Node33</title>
<g id="a_node33"><a xlink:href="group__power-handler-function.html#gae12da3618a5d9e82920992df80b67b47" target="_top" xlink:title="Description">
<polygon fill="white" stroke="black" points="632,-43.5 632,-62.5 716,-62.5 716,-43.5 632,-43.5"/>
<text text-anchor="middle" x="674" y="-50.5" font-family="Helvetica,sans-Serif" font-size="10.00">buckADC_Start</text>
</a>
</g>
</g>
<!-- Node32&#45;&gt;Node33 -->
<g id="edge36" class="edge">
<title>Node32&#45;&gt;Node33</title>
<path fill="none" stroke="midnightblue" d="M561.64,-53C581.23,-53 602.74,-53 621.59,-53"/>
<polygon fill="midnightblue" stroke="midnightblue" points="621.76,-56.5 631.76,-53 621.76,-49.5 621.76,-56.5"/>
</g>
<!-- Node34 -->
<g id="node34" class="node">
<title>Node34</title>
<g id="a_node34"><a xlink:href="group__power-handler-function.html#gae6c3c54562df6c9d941bab2bc98b2bf2" target="_top" xlink:title="Description">
<polygon fill="white" stroke="black" points="629.5,-2.5 629.5,-21.5 718.5,-21.5 718.5,-2.5 629.5,-2.5"/>
<text text-anchor="middle" x="674" y="-9.5" font-family="Helvetica,sans-Serif" font-size="10.00">buckPWM_Start</text>
</a>
</g>
</g>
<!-- Node32&#45;&gt;Node34 -->
<g id="edge37" class="edge">
<title>Node32&#45;&gt;Node34</title>
<path fill="none" stroke="midnightblue" d="M540.89,-43.49C565.44,-37.64 597.11,-30.09 623.29,-23.85"/>
<polygon fill="midnightblue" stroke="midnightblue" points="624.11,-27.25 633.03,-21.53 622.49,-20.44 624.11,-27.25"/>
</g>
<!-- Node34&#45;&gt;Node24 -->
<g id="edge38" class="edge">
<title>Node34&#45;&gt;Node24</title>
<path fill="none" stroke="midnightblue" d="M718.59,-11.52C733.71,-11.35 751.26,-11.16 768.67,-10.97"/>
<polygon fill="midnightblue" stroke="midnightblue" points="768.93,-14.47 778.89,-10.86 768.85,-7.47 768.93,-14.47"/>
</g>
</g>
</svg>
