<?xml version="1.0" encoding="UTF-8" standalone="no"?>
<!DOCTYPE svg PUBLIC "-//W3C//DTD SVG 1.1//EN"
 "http://www.w3.org/Graphics/SVG/1.1/DTD/svg11.dtd">
<!-- Generated by graphviz version 2.44.1 (20200629.0846)
 -->
<!-- Title: sysUserTasks_Initialize Pages: 1 -->
<svg width="1200pt" height="306pt"
 viewBox="0.00 0.00 1200.00 306.00" xmlns="http://www.w3.org/2000/svg" xmlns:xlink="http://www.w3.org/1999/xlink">
<g id="graph0" class="graph" transform="scale(1 1) rotate(0) translate(4 302)">
<title>sysUserTasks_Initialize</title>
<polygon fill="white" stroke="transparent" points="-4,4 -4,-302 1196,-302 1196,4 -4,4"/>
<!-- Node1 -->
<g id="node1" class="node">
<title>Node1</title>
<g id="a_node1"><a xlink:title="Initializes the user&#45;defined tasks and chip resources.">
<polygon fill="#bfbfbf" stroke="black" points="0,-157.5 0,-176.5 119,-176.5 119,-157.5 0,-157.5"/>
<text text-anchor="middle" x="59.5" y="-164.5" font-family="Helvetica,sans-Serif" font-size="10.00">sysUserTasks_Initialize</text>
</a>
</g>
</g>
<!-- Node2 -->
<g id="node2" class="node">
<title>Node2</title>
<g id="a_node2"><a xlink:href="group__device-start-up.html#ga830e5c7087a8e5ee8ea39b7e3df94b68" target="_top" xlink:title="Initialization of user&#45;defined fault objects.">
<polygon fill="white" stroke="black" points="156.5,-176.5 156.5,-195.5 283.5,-195.5 283.5,-176.5 156.5,-176.5"/>
<text text-anchor="middle" x="220" y="-183.5" font-family="Helvetica,sans-Serif" font-size="10.00">appFaultMonitor_Initialize</text>
</a>
</g>
</g>
<!-- Node1&#45;&gt;Node2 -->
<g id="edge1" class="edge">
<title>Node1&#45;&gt;Node2</title>
<path fill="none" stroke="midnightblue" d="M119.07,-174.02C127.91,-175.08 137.12,-176.19 146.22,-177.28"/>
<polygon fill="midnightblue" stroke="midnightblue" points="146.07,-180.78 156.42,-178.5 146.9,-173.83 146.07,-180.78"/>
</g>
<!-- Node3 -->
<g id="node3" class="node">
<title>Node3</title>
<g id="a_node3"><a xlink:href="group__device-start-up.html#ga7a4cf6371d09457539f96a74b2809ca0" target="_top" xlink:title=" ">
<polygon fill="white" stroke="black" points="155,-138.5 155,-157.5 285,-157.5 285,-138.5 155,-138.5"/>
<text text-anchor="middle" x="220" y="-145.5" font-family="Helvetica,sans-Serif" font-size="10.00">appPowerSupply_Initialize</text>
</a>
</g>
</g>
<!-- Node1&#45;&gt;Node3 -->
<g id="edge2" class="edge">
<title>Node1&#45;&gt;Node3</title>
<path fill="none" stroke="midnightblue" d="M119.07,-159.98C127.44,-158.98 136.13,-157.93 144.75,-156.9"/>
<polygon fill="midnightblue" stroke="midnightblue" points="145.29,-160.36 154.81,-155.7 144.46,-153.41 145.29,-160.36"/>
</g>
<!-- Node4 -->
<g id="node4" class="node">
<title>Node4</title>
<g id="a_node4"><a xlink:href="group__power-handler-function.html#ga0b4cabdb02c8c9ea94ea1dfa39de3764" target="_top" xlink:title=" ">
<polygon fill="white" stroke="black" points="324.5,-207 324.5,-237 460.5,-237 460.5,-207 324.5,-207"/>
<text text-anchor="start" x="332.5" y="-225" font-family="Helvetica,sans-Serif" font-size="10.00">appPowerSupply_Controller</text>
<text text-anchor="middle" x="392.5" y="-214" font-family="Helvetica,sans-Serif" font-size="10.00">Initialize</text>
</a>
</g>
</g>
<!-- Node3&#45;&gt;Node4 -->
<g id="edge3" class="edge">
<title>Node3&#45;&gt;Node4</title>
<path fill="none" stroke="midnightblue" d="M262.27,-157.56C270.05,-160.1 277.95,-163.22 285,-167 303.36,-176.83 302.9,-186.69 321,-197 324.68,-199.1 328.57,-201.07 332.55,-202.9"/>
<polygon fill="midnightblue" stroke="midnightblue" points="331.39,-206.22 341.96,-206.96 334.16,-199.79 331.39,-206.22"/>
</g>
<!-- Node5 -->
<g id="node5" class="node">
<title>Node5</title>
<g id="a_node5"><a xlink:href="group__power-handler-function.html#gad0f6ff4894bf23722884c60bbcdcacd0" target="_top" xlink:title=" ">
<polygon fill="white" stroke="black" points="325,-158 325,-188 460,-188 460,-158 325,-158"/>
<text text-anchor="start" x="333" y="-176" font-family="Helvetica,sans-Serif" font-size="10.00">appPowerSupply_Converter</text>
<text text-anchor="middle" x="392.5" y="-165" font-family="Helvetica,sans-Serif" font-size="10.00">ObjectInitialize</text>
</a>
</g>
</g>
<!-- Node3&#45;&gt;Node5 -->
<g id="edge4" class="edge">
<title>Node3&#45;&gt;Node5</title>
<path fill="none" stroke="midnightblue" d="M285.46,-157.45C295.05,-158.86 305.01,-160.32 314.82,-161.76"/>
<polygon fill="midnightblue" stroke="midnightblue" points="314.56,-165.26 324.96,-163.24 315.58,-158.33 314.56,-165.26"/>
</g>
<!-- Node6 -->
<g id="node6" class="node">
<title>Node6</title>
<g id="a_node6"><a xlink:href="group__power-handler-function.html#ga0b26acfec74d1804384b4ba1a3cffab4" target="_top" xlink:title=" ">
<polygon fill="white" stroke="black" points="321,-109 321,-139 464,-139 464,-109 321,-109"/>
<text text-anchor="start" x="329" y="-127" font-family="Helvetica,sans-Serif" font-size="10.00">appPowerSupply_Peripherals</text>
<text text-anchor="middle" x="392.5" y="-116" font-family="Helvetica,sans-Serif" font-size="10.00">Initialize</text>
</a>
</g>
</g>
<!-- Node3&#45;&gt;Node6 -->
<g id="edge5" class="edge">
<title>Node3&#45;&gt;Node6</title>
<path fill="none" stroke="midnightblue" d="M285.46,-138.93C293.8,-137.75 302.42,-136.54 310.97,-135.34"/>
<polygon fill="midnightblue" stroke="midnightblue" points="311.55,-138.79 320.96,-133.93 310.57,-131.86 311.55,-138.79"/>
</g>
<!-- Node23 -->
<g id="node23" class="node">
<title>Node23</title>
<g id="a_node23"><a xlink:href="group__power-handler-function.html#ga9210070749c2ed49abd8a30b27f64151" target="_top" xlink:title=" ">
<polygon fill="white" stroke="black" points="334.5,-54.5 334.5,-73.5 450.5,-73.5 450.5,-54.5 334.5,-54.5"/>
<text text-anchor="middle" x="392.5" y="-61.5" font-family="Helvetica,sans-Serif" font-size="10.00">appPowerSupply_Start</text>
</a>
</g>
</g>
<!-- Node3&#45;&gt;Node23 -->
<g id="edge24" class="edge">
<title>Node3&#45;&gt;Node23</title>
<path fill="none" stroke="midnightblue" d="M240.56,-138.36C270.62,-123.55 328.34,-95.12 363.04,-78.02"/>
<polygon fill="midnightblue" stroke="midnightblue" points="364.75,-81.08 372.17,-73.52 361.65,-74.8 364.75,-81.08"/>
</g>
<!-- Node7 -->
<g id="node7" class="node">
<title>Node7</title>
<g id="a_node7"><a xlink:href="group__power-handler-function.html#ga97eb8bdd17b9c2e169f0634ebabb5d19" target="_top" xlink:title="This function initializes all peripheral modules and their instances used by the power controller.">
<polygon fill="white" stroke="black" points="500,-152.5 500,-171.5 637,-171.5 637,-152.5 500,-152.5"/>
<text text-anchor="middle" x="568.5" y="-159.5" font-family="Helvetica,sans-Serif" font-size="10.00">drv_BuckConverter_Initialize</text>
</a>
</g>
</g>
<!-- Node6&#45;&gt;Node7 -->
<g id="edge6" class="edge">
<title>Node6&#45;&gt;Node7</title>
<path fill="none" stroke="midnightblue" d="M462.27,-139.02C479.5,-142.78 497.72,-146.76 514.08,-150.33"/>
<polygon fill="midnightblue" stroke="midnightblue" points="513.48,-153.78 524,-152.5 514.97,-146.95 513.48,-153.78"/>
</g>
<!-- Node20 -->
<g id="node20" class="node">
<title>Node20</title>
<g id="a_node20"><a xlink:href="group__pps.html#ga46aebc06e62c1484f9e95190711067dd" target="_top" xlink:title="Locks the Peripheral Pin Select Configuration registers against accidental changes.">
<polygon fill="white" stroke="black" points="532,-114.5 532,-133.5 605,-133.5 605,-114.5 532,-114.5"/>
<text text-anchor="middle" x="568.5" y="-121.5" font-family="Helvetica,sans-Serif" font-size="10.00">PPS_LockIO</text>
</a>
</g>
</g>
<!-- Node6&#45;&gt;Node20 -->
<g id="edge21" class="edge">
<title>Node6&#45;&gt;Node20</title>
<path fill="none" stroke="midnightblue" d="M464.02,-124C483.55,-124 504.23,-124 521.93,-124"/>
<polygon fill="midnightblue" stroke="midnightblue" points="521.97,-127.5 531.97,-124 521.97,-120.5 521.97,-127.5"/>
</g>
<!-- Node21 -->
<g id="node21" class="node">
<title>Node21</title>
<g id="a_node21"><a xlink:href="group__pps.html#ga1ac2bc53484e4e452fd3b4c027037ebf" target="_top" xlink:title="Assigns a digital function output to a pin.">
<polygon fill="white" stroke="black" points="517.5,-76.5 517.5,-95.5 619.5,-95.5 619.5,-76.5 517.5,-76.5"/>
<text text-anchor="middle" x="568.5" y="-83.5" font-family="Helvetica,sans-Serif" font-size="10.00">PPS_RemapOutput</text>
</a>
</g>
</g>
<!-- Node6&#45;&gt;Node21 -->
<g id="edge22" class="edge">
<title>Node6&#45;&gt;Node21</title>
<path fill="none" stroke="midnightblue" d="M462.27,-108.98C479.5,-105.22 497.72,-101.24 514.08,-97.67"/>
<polygon fill="midnightblue" stroke="midnightblue" points="514.97,-101.05 524,-95.5 513.48,-94.22 514.97,-101.05"/>
</g>
<!-- Node22 -->
<g id="node22" class="node">
<title>Node22</title>
<g id="a_node22"><a xlink:href="group__pps.html#ga3fa51d1be870c73331607df4455a30f8" target="_top" xlink:title="Unlocks the Peripheral Pin Select Configuration registers to enable changes.">
<polygon fill="white" stroke="black" points="527.5,-190.5 527.5,-209.5 609.5,-209.5 609.5,-190.5 527.5,-190.5"/>
<text text-anchor="middle" x="568.5" y="-197.5" font-family="Helvetica,sans-Serif" font-size="10.00">PPS_UnlockIO</text>
</a>
</g>
</g>
<!-- Node6&#45;&gt;Node22 -->
<g id="edge23" class="edge">
<title>Node6&#45;&gt;Node22</title>
<path fill="none" stroke="midnightblue" d="M445.81,-139.05C452.12,-141.66 458.33,-144.64 464,-148 482.67,-159.07 481.04,-170.44 500,-181 505.51,-184.07 511.56,-186.68 517.7,-188.88"/>
<polygon fill="midnightblue" stroke="midnightblue" points="516.77,-192.26 527.37,-192.02 518.94,-185.6 516.77,-192.26"/>
</g>
<!-- Node8 -->
<g id="node8" class="node">
<title>Node8</title>
<g id="a_node8"><a xlink:href="group__power-handler-function.html#gab889ae485e95010864ca04500457861a" target="_top" xlink:title=" ">
<polygon fill="white" stroke="black" points="675,-152.5 675,-171.5 809,-171.5 809,-152.5 675,-152.5"/>
<text text-anchor="middle" x="742" y="-159.5" font-family="Helvetica,sans-Serif" font-size="10.00">buckADC_ChannelInitialize</text>
</a>
</g>
</g>
<!-- Node7&#45;&gt;Node8 -->
<g id="edge7" class="edge">
<title>Node7&#45;&gt;Node8</title>
<path fill="none" stroke="midnightblue" d="M637.28,-162C646.26,-162 655.52,-162 664.63,-162"/>
<polygon fill="midnightblue" stroke="midnightblue" points="664.83,-165.5 674.83,-162 664.83,-158.5 664.83,-165.5"/>
</g>
<!-- Node9 -->
<g id="node9" class="node">
<title>Node9</title>
<g id="a_node9"><a xlink:href="group__power-handler-function.html#ga086bc1e4304b2ce7a435bf2a9799d078" target="_top" xlink:title=" ">
<polygon fill="white" stroke="black" points="677,-114.5 677,-133.5 807,-133.5 807,-114.5 677,-114.5"/>
<text text-anchor="middle" x="742" y="-121.5" font-family="Helvetica,sans-Serif" font-size="10.00">buckADC_ModuleInitialize</text>
</a>
</g>
</g>
<!-- Node7&#45;&gt;Node9 -->
<g id="edge8" class="edge">
<title>Node7&#45;&gt;Node9</title>
<path fill="none" stroke="midnightblue" d="M612.78,-152.41C635.61,-147.35 663.82,-141.1 687.96,-135.75"/>
<polygon fill="midnightblue" stroke="midnightblue" points="689.03,-139.1 698.03,-133.52 687.51,-132.27 689.03,-139.1"/>
</g>
<!-- Node10 -->
<g id="node10" class="node">
<title>Node10</title>
<g id="a_node10"><a xlink:href="group__power-handler-function.html#ga984f623275f9e1da2e11be2e9ff8221c" target="_top" xlink:title=" ">
<polygon fill="white" stroke="black" points="691,-190.5 691,-209.5 793,-209.5 793,-190.5 691,-190.5"/>
<text text-anchor="middle" x="742" y="-197.5" font-family="Helvetica,sans-Serif" font-size="10.00">buckGPIO_Initialize</text>
</a>
</g>
</g>
<!-- Node7&#45;&gt;Node10 -->
<g id="edge9" class="edge">
<title>Node7&#45;&gt;Node10</title>
<path fill="none" stroke="midnightblue" d="M612.78,-171.59C635.61,-176.65 663.82,-182.9 687.96,-188.25"/>
<polygon fill="midnightblue" stroke="midnightblue" points="687.51,-191.73 698.03,-190.48 689.03,-184.9 687.51,-191.73"/>
</g>
<!-- Node14 -->
<g id="node14" class="node">
<title>Node14</title>
<g id="a_node14"><a xlink:href="group__power-handler-function.html#ga283487111ea685224a2caf350540daad" target="_top" xlink:title=" ">
<polygon fill="white" stroke="black" points="673,-76.5 673,-95.5 811,-95.5 811,-76.5 673,-76.5"/>
<text text-anchor="middle" x="742" y="-83.5" font-family="Helvetica,sans-Serif" font-size="10.00">buckPWM_ChannelInitialize</text>
</a>
</g>
</g>
<!-- Node7&#45;&gt;Node14 -->
<g id="edge14" class="edge">
<title>Node7&#45;&gt;Node14</title>
<path fill="none" stroke="midnightblue" d="M616.26,-152.41C623.48,-149.93 630.64,-146.84 637,-143 656.91,-130.97 653.08,-117.01 673,-105 676.6,-102.83 680.46,-100.9 684.44,-99.18"/>
<polygon fill="midnightblue" stroke="midnightblue" points="685.81,-102.41 693.89,-95.56 683.3,-95.87 685.81,-102.41"/>
</g>
<!-- Node17 -->
<g id="node17" class="node">
<title>Node17</title>
<g id="a_node17"><a xlink:href="group__power-handler-function.html#ga1dedc10502a96efea6da9207f3416219" target="_top" xlink:title=" ">
<polygon fill="white" stroke="black" points="675,-240.5 675,-259.5 809,-259.5 809,-240.5 675,-240.5"/>
<text text-anchor="middle" x="742" y="-247.5" font-family="Helvetica,sans-Serif" font-size="10.00">buckPWM_ModuleInitialize</text>
</a>
</g>
</g>
<!-- Node7&#45;&gt;Node17 -->
<g id="edge18" class="edge">
<title>Node7&#45;&gt;Node17</title>
<path fill="none" stroke="midnightblue" d="M616.26,-171.59C623.48,-174.07 630.64,-177.16 637,-181 656.91,-193.03 654.07,-205.48 673,-219 682.54,-225.81 693.81,-231.68 704.41,-236.41"/>
<polygon fill="midnightblue" stroke="midnightblue" points="703.31,-239.75 713.89,-240.44 706.05,-233.31 703.31,-239.75"/>
</g>
<!-- Node11 -->
<g id="node11" class="node">
<title>Node11</title>
<g id="a_node11"><a xlink:href="group__power-handler-function.html#ga649bb2f18322be1a303d05931adb2c6a" target="_top" xlink:title=" ">
<polygon fill="white" stroke="black" points="881.5,-164.5 881.5,-183.5 970.5,-183.5 970.5,-164.5 881.5,-164.5"/>
<text text-anchor="middle" x="926" y="-171.5" font-family="Helvetica,sans-Serif" font-size="10.00">buckGPIO_Clear</text>
</a>
</g>
</g>
<!-- Node10&#45;&gt;Node11 -->
<g id="edge10" class="edge">
<title>Node10&#45;&gt;Node11</title>
<path fill="none" stroke="midnightblue" d="M793.21,-192.83C817.54,-189.35 846.76,-185.18 871.5,-181.64"/>
<polygon fill="midnightblue" stroke="midnightblue" points="872.04,-185.1 881.44,-180.22 871.05,-178.17 872.04,-185.1"/>
</g>
<!-- Node13 -->
<g id="node13" class="node">
<title>Node13</title>
<g id="a_node13"><a xlink:href="group__power-handler-function.html#ga3d3f91c0e40884874e7df3a67fff23f3" target="_top" xlink:title=" ">
<polygon fill="white" stroke="black" points="860.5,-202.5 860.5,-221.5 991.5,-221.5 991.5,-202.5 860.5,-202.5"/>
<text text-anchor="middle" x="926" y="-209.5" font-family="Helvetica,sans-Serif" font-size="10.00">buckGPIO_PrivateInitialize</text>
</a>
</g>
</g>
<!-- Node10&#45;&gt;Node13 -->
<g id="edge12" class="edge">
<title>Node10&#45;&gt;Node13</title>
<path fill="none" stroke="midnightblue" d="M793.21,-203.31C810.78,-204.47 830.91,-205.8 850.06,-207.06"/>
<polygon fill="midnightblue" stroke="midnightblue" points="850.06,-210.57 860.27,-207.73 850.52,-203.58 850.06,-210.57"/>
</g>
<!-- Node12 -->
<g id="node12" class="node">
<title>Node12</title>
<g id="a_node12"><a xlink:href="group__gpio.html#gae1bc534f11ac7cf278865cb73b601055" target="_top" xlink:title="Gets pointer to GPIO Instance SFR set.">
<polygon fill="white" stroke="black" points="1041,-164.5 1041,-183.5 1192,-183.5 1192,-164.5 1041,-164.5"/>
<text text-anchor="middle" x="1116.5" y="-171.5" font-family="Helvetica,sans-Serif" font-size="10.00">p33c_GpioInstance_GetHandle</text>
</a>
</g>
</g>
<!-- Node11&#45;&gt;Node12 -->
<g id="edge11" class="edge">
<title>Node11&#45;&gt;Node12</title>
<path fill="none" stroke="midnightblue" d="M970.72,-174C988.66,-174 1010.08,-174 1030.86,-174"/>
<polygon fill="midnightblue" stroke="midnightblue" points="1031,-177.5 1041,-174 1031,-170.5 1031,-177.5"/>
</g>
<!-- Node13&#45;&gt;Node12 -->
<g id="edge13" class="edge">
<title>Node13&#45;&gt;Node12</title>
<path fill="none" stroke="midnightblue" d="M974.57,-202.41C1000,-197.28 1031.5,-190.93 1058.27,-185.54"/>
<polygon fill="midnightblue" stroke="midnightblue" points="1059.16,-188.93 1068.28,-183.52 1057.78,-182.07 1059.16,-188.93"/>
</g>
<!-- Node14&#45;&gt;Node12 -->
<g id="edge15" class="edge">
<title>Node14&#45;&gt;Node12</title>
<path fill="none" stroke="midnightblue" d="M811.21,-82.08C865.12,-81.07 941.59,-84.32 1005,-105 1040.15,-116.47 1075.47,-141.42 1096.41,-157.97"/>
<polygon fill="midnightblue" stroke="midnightblue" points="1094.23,-160.71 1104.2,-164.27 1098.63,-155.26 1094.23,-160.71"/>
</g>
<!-- Node15 -->
<g id="node15" class="node">
<title>Node15</title>
<g id="a_node15"><a xlink:href="group__pwm.html#ga2de389951f418d4fcd9a5237f39a11a1" target="_top" xlink:title="Disposes a given PWM generator by resetting all its registers to default.">
<polygon fill="white" stroke="black" points="856,-115 856,-145 996,-145 996,-115 856,-115"/>
<text text-anchor="start" x="864" y="-133" font-family="Helvetica,sans-Serif" font-size="10.00">p33c_PwmGenerator_Config</text>
<text text-anchor="middle" x="926" y="-122" font-family="Helvetica,sans-Serif" font-size="10.00">Write</text>
</a>
</g>
</g>
<!-- Node14&#45;&gt;Node15 -->
<g id="edge16" class="edge">
<title>Node14&#45;&gt;Node15</title>
<path fill="none" stroke="midnightblue" d="M782.49,-95.55C803.07,-100.52 828.9,-106.77 852.89,-112.57"/>
<polygon fill="midnightblue" stroke="midnightblue" points="852.14,-115.99 862.68,-114.93 853.79,-109.18 852.14,-115.99"/>
</g>
<!-- Node16 -->
<g id="node16" class="node">
<title>Node16</title>
<g id="a_node16"><a xlink:href="group__pwm.html#ga8aa18df01ada60e1faac049c5eb34700" target="_top" xlink:title="Returns the PWM generator index.">
<polygon fill="white" stroke="black" points="847,-38.5 847,-57.5 1005,-57.5 1005,-38.5 847,-38.5"/>
<text text-anchor="middle" x="926" y="-45.5" font-family="Helvetica,sans-Serif" font-size="10.00">p33c_PwmGenerator_GetHandle</text>
</a>
</g>
</g>
<!-- Node14&#45;&gt;Node16 -->
<g id="edge17" class="edge">
<title>Node14&#45;&gt;Node16</title>
<path fill="none" stroke="midnightblue" d="M788.93,-76.41C813.38,-71.31 843.63,-64.99 869.4,-59.61"/>
<polygon fill="midnightblue" stroke="midnightblue" points="870.33,-62.99 879.4,-57.52 868.9,-56.14 870.33,-62.99"/>
</g>
<!-- Node18 -->
<g id="node18" class="node">
<title>Node18</title>
<g id="a_node18"><a xlink:href="group__pwm.html#ga68493af214377a7329daa5f60825fac5" target="_top" xlink:title="Writes a user&#45;defined configuration to the PWM base module registers.">
<polygon fill="white" stroke="black" points="850,-240.5 850,-259.5 1002,-259.5 1002,-240.5 850,-240.5"/>
<text text-anchor="middle" x="926" y="-247.5" font-family="Helvetica,sans-Serif" font-size="10.00">p33c_PwmModule_ConfigWrite</text>
</a>
</g>
</g>
<!-- Node17&#45;&gt;Node18 -->
<g id="edge19" class="edge">
<title>Node17&#45;&gt;Node18</title>
<path fill="none" stroke="midnightblue" d="M809.22,-250C819.13,-250 829.46,-250 839.7,-250"/>
<polygon fill="midnightblue" stroke="midnightblue" points="839.89,-253.5 849.89,-250 839.89,-246.5 839.89,-253.5"/>
</g>
<!-- Node19 -->
<g id="node19" class="node">
<title>Node19</title>
<g id="a_node19"><a xlink:href="group__pwm.html#ga02fe57798710b1b54904a4920c181453" target="_top" xlink:title="Gets pointer to PWM module SFR set.">
<polygon fill="white" stroke="black" points="852.5,-278.5 852.5,-297.5 999.5,-297.5 999.5,-278.5 852.5,-278.5"/>
<text text-anchor="middle" x="926" y="-285.5" font-family="Helvetica,sans-Serif" font-size="10.00">p33c_PwmModule_GetHandle</text>
</a>
</g>
</g>
<!-- Node17&#45;&gt;Node19 -->
<g id="edge20" class="edge">
<title>Node17&#45;&gt;Node19</title>
<path fill="none" stroke="midnightblue" d="M788.93,-259.59C813.38,-264.69 843.63,-271.01 869.4,-276.39"/>
<polygon fill="midnightblue" stroke="midnightblue" points="868.9,-279.86 879.4,-278.48 870.33,-273.01 868.9,-279.86"/>
</g>
<!-- Node24 -->
<g id="node24" class="node">
<title>Node24</title>
<g id="a_node24"><a xlink:href="group__power-handler-function.html#ga8c05ea0ee077172e4025d8b7a36f5c9f" target="_top" xlink:title=" ">
<polygon fill="white" stroke="black" points="507,-38.5 507,-57.5 630,-57.5 630,-38.5 507,-38.5"/>
<text text-anchor="middle" x="568.5" y="-45.5" font-family="Helvetica,sans-Serif" font-size="10.00">drv_BuckConverter_Start</text>
</a>
</g>
</g>
<!-- Node23&#45;&gt;Node24 -->
<g id="edge25" class="edge">
<title>Node23&#45;&gt;Node24</title>
<path fill="none" stroke="midnightblue" d="M450.96,-58.72C465.51,-57.38 481.32,-55.92 496.47,-54.53"/>
<polygon fill="midnightblue" stroke="midnightblue" points="497.18,-57.98 506.82,-53.58 496.54,-51.01 497.18,-57.98"/>
</g>
<!-- Node25 -->
<g id="node25" class="node">
<title>Node25</title>
<g id="a_node25"><a xlink:href="group__power-handler-function.html#gae12da3618a5d9e82920992df80b67b47" target="_top" xlink:title=" ">
<polygon fill="white" stroke="black" points="700,-0.5 700,-19.5 784,-19.5 784,-0.5 700,-0.5"/>
<text text-anchor="middle" x="742" y="-7.5" font-family="Helvetica,sans-Serif" font-size="10.00">buckADC_Start</text>
</a>
</g>
</g>
<!-- Node24&#45;&gt;Node25 -->
<g id="edge26" class="edge">
<title>Node24&#45;&gt;Node25</title>
<path fill="none" stroke="midnightblue" d="M612.78,-38.41C636.24,-33.21 665.37,-26.76 689.94,-21.31"/>
<polygon fill="midnightblue" stroke="midnightblue" points="690.8,-24.71 699.81,-19.13 689.29,-17.87 690.8,-24.71"/>
</g>
<!-- Node26 -->
<g id="node26" class="node">
<title>Node26</title>
<g id="a_node26"><a xlink:href="group__power-handler-function.html#gae6c3c54562df6c9d941bab2bc98b2bf2" target="_top" xlink:title=" ">
<polygon fill="white" stroke="black" points="697.5,-38.5 697.5,-57.5 786.5,-57.5 786.5,-38.5 697.5,-38.5"/>
<text text-anchor="middle" x="742" y="-45.5" font-family="Helvetica,sans-Serif" font-size="10.00">buckPWM_Start</text>
</a>
</g>
</g>
<!-- Node24&#45;&gt;Node26 -->
<g id="edge27" class="edge">
<title>Node24&#45;&gt;Node26</title>
<path fill="none" stroke="midnightblue" d="M630.45,-48C649.04,-48 669.35,-48 687.42,-48"/>
<polygon fill="midnightblue" stroke="midnightblue" points="687.48,-51.5 697.48,-48 687.48,-44.5 687.48,-51.5"/>
</g>
<!-- Node26&#45;&gt;Node16 -->
<g id="edge28" class="edge">
<title>Node26&#45;&gt;Node16</title>
<path fill="none" stroke="midnightblue" d="M786.59,-48C801.71,-48 819.26,-48 836.67,-48"/>
<polygon fill="midnightblue" stroke="midnightblue" points="836.89,-51.5 846.89,-48 836.89,-44.5 836.89,-51.5"/>
</g>
</g>
</svg>
