<?xml version="1.0" encoding="UTF-8" standalone="no"?>
<!DOCTYPE svg PUBLIC "-//W3C//DTD SVG 1.1//EN"
 "http://www.w3.org/Graphics/SVG/1.1/DTD/svg11.dtd">
<!-- Generated by graphviz version 2.44.1 (20200629.0846)
 -->
<!-- Title: buckPWM_Suspend Pages: 1 -->
<svg width="221pt" height="66pt"
 viewBox="0.00 0.00 221.00 66.00" xmlns="http://www.w3.org/2000/svg" xmlns:xlink="http://www.w3.org/1999/xlink">
<g id="graph0" class="graph" transform="scale(1 1) rotate(0) translate(4 62)">
<title>buckPWM_Suspend</title>
<polygon fill="white" stroke="transparent" points="-4,4 -4,-62 217,-62 217,4 -4,4"/>
<!-- Node1 -->
<g id="node1" class="node">
<title>Node1</title>
<g id="a_node1"><a xlink:title=" ">
<polygon fill="#bfbfbf" stroke="black" points="107,-19.5 107,-38.5 213,-38.5 213,-19.5 107,-19.5"/>
<text text-anchor="middle" x="160" y="-26.5" font-family="Helvetica,sans-Serif" font-size="10.00">buckPWM_Suspend</text>
</a>
</g>
</g>
<!-- Node2 -->
<g id="node2" class="node">
<title>Node2</title>
<g id="a_node2"><a xlink:href="group__buck-state-machine-function.html#ga7851b6ab25e86f56cb2056e4aac43c5c" target="_top" xlink:title=" ">
<polygon fill="white" stroke="black" points="2.5,-38.5 2.5,-57.5 68.5,-57.5 68.5,-38.5 2.5,-38.5"/>
<text text-anchor="middle" x="35.5" y="-45.5" font-family="Helvetica,sans-Serif" font-size="10.00">State_Error</text>
</a>
</g>
</g>
<!-- Node1&#45;&gt;Node2 -->
<g id="edge1" class="edge">
<title>Node1&#45;&gt;Node2</title>
<path fill="none" stroke="midnightblue" d="M96.67,-38.67C87.02,-40.16 77.41,-41.65 68.79,-42.99"/>
<polygon fill="midnightblue" stroke="midnightblue" points="97.35,-42.1 106.69,-37.11 96.28,-35.19 97.35,-42.1"/>
</g>
<!-- Node3 -->
<g id="node3" class="node">
<title>Node3</title>
<g id="a_node3"><a xlink:href="group__buck-state-machine-function.html#ga295e97e4e4330b73f398e98d889d229d" target="_top" xlink:title=" ">
<polygon fill="white" stroke="black" points="0,-0.5 0,-19.5 71,-19.5 71,-0.5 0,-0.5"/>
<text text-anchor="middle" x="35.5" y="-7.5" font-family="Helvetica,sans-Serif" font-size="10.00">State_Reset</text>
</a>
</g>
</g>
<!-- Node1&#45;&gt;Node3 -->
<g id="edge2" class="edge">
<title>Node1&#45;&gt;Node3</title>
<path fill="none" stroke="midnightblue" d="M96.53,-19.31C87.85,-17.96 79.2,-16.62 71.28,-15.39"/>
<polygon fill="midnightblue" stroke="midnightblue" points="96.28,-22.81 106.69,-20.89 97.35,-15.9 96.28,-22.81"/>
</g>
</g>
</svg>
