<?xml version="1.0" encoding="UTF-8" standalone="no"?>
<!DOCTYPE svg PUBLIC "-//W3C//DTD SVG 1.1//EN"
 "http://www.w3.org/Graphics/SVG/1.1/DTD/svg11.dtd">
<!-- Generated by graphviz version 2.44.1 (20200629.0846)
 -->
<!-- Title: Fault Handler Reference Pages: 1 -->
<svg width="297pt" height="150pt"
 viewBox="0.00 0.00 297.00 149.50" xmlns="http://www.w3.org/2000/svg" xmlns:xlink="http://www.w3.org/1999/xlink">
<g id="graph0" class="graph" transform="scale(1 1) rotate(0) translate(4 145.5)">
<title>Fault Handler Reference</title>
<polygon fill="white" stroke="transparent" points="-4,4 -4,-145.5 293,-145.5 293,4 -4,4"/>
<!-- Node2 -->
<g id="node1" class="node">
<title>Node2</title>
<g id="a_node1"><a xlink:href="group__fault-handler-enum.html" target="_top" xlink:title="Fault Handler Enumeration.">
<polygon fill="white" stroke="black" points="289,-141.5 157,-141.5 157,-122.5 289,-122.5 289,-141.5"/>
<text text-anchor="middle" x="223" y="-129.5" font-family="Helvetica,sans-Serif" font-size="10.00">Fault Handler Enumeration</text>
</a>
</g>
</g>
<!-- Node1 -->
<g id="node2" class="node">
<title>Node1</title>
<g id="a_node2"><a xlink:title="Generic fault handler supporting comparison of static and dynamic data with automated fault trip and ...">
<polygon fill="#bfbfbf" stroke="black" points="121,-85.5 0,-85.5 0,-66.5 121,-66.5 121,-85.5"/>
<text text-anchor="middle" x="60.5" y="-73.5" font-family="Helvetica,sans-Serif" font-size="10.00">Fault Handler Reference</text>
</a>
</g>
</g>
<!-- Node1&#45;&gt;Node2 -->
<g id="edge1" class="edge">
<title>Node1&#45;&gt;Node2</title>
<path fill="none" stroke="black" d="M93.01,-89.54C111.48,-97.22 135.35,-106.72 157,-114 165.88,-116.99 175.56,-119.86 184.67,-122.41"/>
<polygon fill="black" stroke="black" points="94.2,-86.24 83.63,-85.6 91.49,-92.7 94.2,-86.24"/>
</g>
<!-- Node5 -->
<g id="node3" class="node">
<title>Node5</title>
<g id="a_node3"><a xlink:href="group__fault-handler-trap.html" target="_top" xlink:title="Fault Handler Traps.">
<polygon fill="white" stroke="black" points="273.5,-104.5 172.5,-104.5 172.5,-85.5 273.5,-85.5 273.5,-104.5"/>
<text text-anchor="middle" x="223" y="-92.5" font-family="Helvetica,sans-Serif" font-size="10.00">Fault Handler Traps</text>
</a>
</g>
</g>
<!-- Node1&#45;&gt;Node5 -->
<g id="edge4" class="edge">
<title>Node1&#45;&gt;Node5</title>
<path fill="none" stroke="black" d="M131.26,-84.26C145.12,-85.9 159.4,-87.59 172.42,-89.13"/>
<polygon fill="black" stroke="black" points="131.61,-80.77 121.26,-83.07 130.78,-87.73 131.61,-80.77"/>
</g>
<!-- Node4 -->
<g id="node4" class="node">
<title>Node4</title>
<g id="a_node4"><a xlink:href="group__fault-handler-function.html" target="_top" xlink:title="Fault Handler Functions.">
<polygon fill="white" stroke="black" points="280.5,-67.5 165.5,-67.5 165.5,-48.5 280.5,-48.5 280.5,-67.5"/>
<text text-anchor="middle" x="223" y="-55.5" font-family="Helvetica,sans-Serif" font-size="10.00">Fault Handler Function</text>
</a>
</g>
</g>
<!-- Node1&#45;&gt;Node4 -->
<g id="edge3" class="edge">
<title>Node1&#45;&gt;Node4</title>
<path fill="none" stroke="black" d="M131.55,-68.14C142.85,-66.88 154.44,-65.58 165.38,-64.35"/>
<polygon fill="black" stroke="black" points="130.81,-64.7 121.26,-69.3 131.59,-71.66 130.81,-64.7"/>
</g>
<!-- Node3 -->
<g id="node5" class="node">
<title>Node3</title>
<g id="a_node5"><a xlink:href="group__fault-handler-struct.html" target="_top" xlink:title=" ">
<polygon fill="white" stroke="black" points="272,-30 174,-30 174,0 272,0 272,-30"/>
<text text-anchor="start" x="182" y="-18" font-family="Helvetica,sans-Serif" font-size="10.00">Fault Handler Data</text>
<text text-anchor="middle" x="223" y="-7" font-family="Helvetica,sans-Serif" font-size="10.00"> Structure</text>
</a>
</g>
</g>
<!-- Node1&#45;&gt;Node3 -->
<g id="edge2" class="edge">
<title>Node1&#45;&gt;Node3</title>
<path fill="none" stroke="black" d="M96.16,-62.83C121.52,-53.19 155.98,-40.09 182.43,-30.04"/>
<polygon fill="black" stroke="black" points="94.68,-59.64 86.58,-66.47 97.17,-66.19 94.68,-59.64"/>
</g>
</g>
</svg>
