<?xml version="1.0" encoding="UTF-8" standalone="no"?>
<!DOCTYPE svg PUBLIC "-//W3C//DTD SVG 1.1//EN"
 "http://www.w3.org/Graphics/SVG/1.1/DTD/svg11.dtd">
<!-- Generated by graphviz version 2.44.1 (20200629.0846)
 -->
<!-- Title: Fault Handler Reference Pages: 1 -->
<svg width="398pt" height="150pt"
 viewBox="0.00 0.00 398.00 149.50" xmlns="http://www.w3.org/2000/svg" xmlns:xlink="http://www.w3.org/1999/xlink">
<g id="graph0" class="graph" transform="scale(1 1) rotate(0) translate(4 145.5)">
<title>Fault Handler Reference</title>
<polygon fill="white" stroke="transparent" points="-4,4 -4,-145.5 394,-145.5 394,4 -4,4"/>
<!-- Node5 -->
<g id="node1" class="node">
<title>Node5</title>
<g id="a_node1"><a xlink:href="group__fault-handler-enum.html" target="_top" xlink:title="Fault Handler Enumeration.">
<polygon fill="white" stroke="black" points="390,-141.5 258,-141.5 258,-122.5 390,-122.5 390,-141.5"/>
<text text-anchor="middle" x="324" y="-129.5" font-family="Helvetica,sans-Serif" font-size="10.00">Fault Handler Enumeration</text>
</a>
</g>
</g>
<!-- Node3 -->
<g id="node2" class="node">
<title>Node3</title>
<g id="a_node2"><a xlink:href="group__fault-handler-functions.html" target="_top" xlink:title="Fault Handler Functions.">
<polygon fill="white" stroke="black" points="384,-104.5 264,-104.5 264,-85.5 384,-85.5 384,-104.5"/>
<text text-anchor="middle" x="324" y="-92.5" font-family="Helvetica,sans-Serif" font-size="10.00">Fault Handler Functions</text>
</a>
</g>
</g>
<!-- Node1 -->
<g id="node3" class="node">
<title>Node1</title>
<g id="a_node3"><a xlink:title="Generic fault handler supporting comparison of static and dynamic data with automated fault trip and ...">
<polygon fill="#bfbfbf" stroke="black" points="222,-85.5 101,-85.5 101,-66.5 222,-66.5 222,-85.5"/>
<text text-anchor="middle" x="161.5" y="-73.5" font-family="Helvetica,sans-Serif" font-size="10.00">Fault Handler Reference</text>
</a>
</g>
</g>
<!-- Node1&#45;&gt;Node5 -->
<g id="edge4" class="edge">
<title>Node1&#45;&gt;Node5</title>
<path fill="none" stroke="black" d="M194.01,-89.54C212.48,-97.22 236.35,-106.72 258,-114 266.88,-116.99 276.56,-119.86 285.67,-122.41"/>
<polygon fill="black" stroke="black" points="195.2,-86.24 184.63,-85.6 192.49,-92.7 195.2,-86.24"/>
</g>
<!-- Node1&#45;&gt;Node3 -->
<g id="edge2" class="edge">
<title>Node1&#45;&gt;Node3</title>
<path fill="none" stroke="black" d="M232.3,-84.26C242.86,-85.51 253.68,-86.79 263.99,-88.01"/>
<polygon fill="black" stroke="black" points="232.61,-80.77 222.26,-83.07 231.78,-87.73 232.61,-80.77"/>
</g>
<!-- Node4 -->
<g id="node5" class="node">
<title>Node4</title>
<g id="a_node5"><a xlink:href="group__fault-handler-trap.html" target="_top" xlink:title="Fault Handler Traps.">
<polygon fill="white" stroke="black" points="374.5,-67.5 273.5,-67.5 273.5,-48.5 374.5,-48.5 374.5,-67.5"/>
<text text-anchor="middle" x="324" y="-55.5" font-family="Helvetica,sans-Serif" font-size="10.00">Fault Handler Traps</text>
</a>
</g>
</g>
<!-- Node1&#45;&gt;Node4 -->
<g id="edge3" class="edge">
<title>Node1&#45;&gt;Node4</title>
<path fill="none" stroke="black" d="M232.26,-68.18C246.12,-66.62 260.4,-65.02 273.42,-63.56"/>
<polygon fill="black" stroke="black" points="231.81,-64.7 222.26,-69.3 232.59,-71.66 231.81,-64.7"/>
</g>
<!-- Node6 -->
<g id="node6" class="node">
<title>Node6</title>
<g id="a_node6"><a xlink:href="group__fault-handler-struct.html" target="_top" xlink:title=" ">
<polygon fill="white" stroke="black" points="373,-30 275,-30 275,0 373,0 373,-30"/>
<text text-anchor="start" x="283" y="-18" font-family="Helvetica,sans-Serif" font-size="10.00">Fault Handler Data</text>
<text text-anchor="middle" x="324" y="-7" font-family="Helvetica,sans-Serif" font-size="10.00"> Structure</text>
</a>
</g>
</g>
<!-- Node1&#45;&gt;Node6 -->
<g id="edge5" class="edge">
<title>Node1&#45;&gt;Node6</title>
<path fill="none" stroke="black" d="M196.15,-62.81C214.42,-55.69 237.42,-46.79 258,-39 265.76,-36.06 274.06,-32.97 282.05,-30.01"/>
<polygon fill="black" stroke="black" points="194.84,-59.57 186.8,-66.46 197.38,-66.09 194.84,-59.57"/>
</g>
<!-- Node2 -->
<g id="node4" class="node">
<title>Node2</title>
<g id="a_node4"><a xlink:href="group__task-layer.html" target="_top" xlink:title="Task Layer.">
<polygon fill="white" stroke="black" points="65,-85.5 0,-85.5 0,-66.5 65,-66.5 65,-85.5"/>
<text text-anchor="middle" x="32.5" y="-73.5" font-family="Helvetica,sans-Serif" font-size="10.00">Task Layer</text>
</a>
</g>
</g>
<!-- Node2&#45;&gt;Node1 -->
<g id="edge1" class="edge">
<title>Node2&#45;&gt;Node1</title>
<path fill="none" stroke="black" d="M75.3,-76C83.53,-76 92.31,-76 100.99,-76"/>
<polygon fill="black" stroke="black" points="75.22,-72.5 65.22,-76 75.22,-79.5 75.22,-72.5"/>
</g>
</g>
</svg>
