<?xml version="1.0" encoding="UTF-8" standalone="no"?>
<!DOCTYPE svg PUBLIC "-//W3C//DTD SVG 1.1//EN"
 "http://www.w3.org/Graphics/SVG/1.1/DTD/svg11.dtd">
<!-- Generated by graphviz version 2.44.1 (20200629.0846)
 -->
<!-- Title: appPowerSupply_Initialize Pages: 1 -->
<svg width="1045pt" height="306pt"
 viewBox="0.00 0.00 1045.00 306.00" xmlns="http://www.w3.org/2000/svg" xmlns:xlink="http://www.w3.org/1999/xlink">
<g id="graph0" class="graph" transform="scale(1 1) rotate(0) translate(4 302)">
<title>appPowerSupply_Initialize</title>
<polygon fill="white" stroke="transparent" points="-4,4 -4,-302 1041,-302 1041,4 -4,4"/>
<!-- Node1 -->
<g id="node1" class="node">
<title>Node1</title>
<g id="a_node1"><a xlink:title="Description">
<polygon fill="#bfbfbf" stroke="black" points="0,-138.5 0,-157.5 130,-157.5 130,-138.5 0,-138.5"/>
<text text-anchor="middle" x="65" y="-145.5" font-family="Helvetica,sans-Serif" font-size="10.00">appPowerSupply_Initialize</text>
</a>
</g>
</g>
<!-- Node2 -->
<g id="node2" class="node">
<title>Node2</title>
<g id="a_node2"><a xlink:href="group__power-handler-function.html#ga0b4cabdb02c8c9ea94ea1dfa39de3764" target="_top" xlink:title="Description">
<polygon fill="white" stroke="black" points="169.5,-207 169.5,-237 305.5,-237 305.5,-207 169.5,-207"/>
<text text-anchor="start" x="177.5" y="-225" font-family="Helvetica,sans-Serif" font-size="10.00">appPowerSupply_Controller</text>
<text text-anchor="middle" x="237.5" y="-214" font-family="Helvetica,sans-Serif" font-size="10.00">Initialize</text>
</a>
</g>
</g>
<!-- Node1&#45;&gt;Node2 -->
<g id="edge1" class="edge">
<title>Node1&#45;&gt;Node2</title>
<path fill="none" stroke="midnightblue" d="M84.14,-157.67C103.95,-168.05 136.77,-184.71 166,-197 171.09,-199.14 176.43,-201.26 181.8,-203.3"/>
<polygon fill="midnightblue" stroke="midnightblue" points="180.86,-206.69 191.45,-206.89 183.3,-200.13 180.86,-206.69"/>
</g>
<!-- Node3 -->
<g id="node3" class="node">
<title>Node3</title>
<g id="a_node3"><a xlink:href="group__power-handler-function.html#gad0f6ff4894bf23722884c60bbcdcacd0" target="_top" xlink:title="Description">
<polygon fill="white" stroke="black" points="170,-158 170,-188 305,-188 305,-158 170,-158"/>
<text text-anchor="start" x="178" y="-176" font-family="Helvetica,sans-Serif" font-size="10.00">appPowerSupply_Converter</text>
<text text-anchor="middle" x="237.5" y="-165" font-family="Helvetica,sans-Serif" font-size="10.00">ObjectInitialize</text>
</a>
</g>
</g>
<!-- Node1&#45;&gt;Node3 -->
<g id="edge2" class="edge">
<title>Node1&#45;&gt;Node3</title>
<path fill="none" stroke="midnightblue" d="M130.46,-157.45C140.05,-158.86 150.01,-160.32 159.82,-161.76"/>
<polygon fill="midnightblue" stroke="midnightblue" points="159.56,-165.26 169.96,-163.24 160.58,-158.33 159.56,-165.26"/>
</g>
<!-- Node4 -->
<g id="node4" class="node">
<title>Node4</title>
<g id="a_node4"><a xlink:href="group__power-handler-function.html#ga0b26acfec74d1804384b4ba1a3cffab4" target="_top" xlink:title="Description">
<polygon fill="white" stroke="black" points="166,-109 166,-139 309,-139 309,-109 166,-109"/>
<text text-anchor="start" x="174" y="-127" font-family="Helvetica,sans-Serif" font-size="10.00">appPowerSupply_Peripherals</text>
<text text-anchor="middle" x="237.5" y="-116" font-family="Helvetica,sans-Serif" font-size="10.00">Initialize</text>
</a>
</g>
</g>
<!-- Node1&#45;&gt;Node4 -->
<g id="edge3" class="edge">
<title>Node1&#45;&gt;Node4</title>
<path fill="none" stroke="midnightblue" d="M130.46,-138.93C138.8,-137.75 147.42,-136.54 155.97,-135.34"/>
<polygon fill="midnightblue" stroke="midnightblue" points="156.55,-138.79 165.96,-133.93 155.57,-131.86 156.55,-138.79"/>
</g>
<!-- Node21 -->
<g id="node21" class="node">
<title>Node21</title>
<g id="a_node21"><a xlink:href="group__power-handler-function.html#ga9210070749c2ed49abd8a30b27f64151" target="_top" xlink:title="Description">
<polygon fill="white" stroke="black" points="179.5,-54.5 179.5,-73.5 295.5,-73.5 295.5,-54.5 179.5,-54.5"/>
<text text-anchor="middle" x="237.5" y="-61.5" font-family="Helvetica,sans-Serif" font-size="10.00">appPowerSupply_Start</text>
</a>
</g>
</g>
<!-- Node1&#45;&gt;Node21 -->
<g id="edge22" class="edge">
<title>Node1&#45;&gt;Node21</title>
<path fill="none" stroke="midnightblue" d="M85.56,-138.36C115.62,-123.55 173.34,-95.12 208.04,-78.02"/>
<polygon fill="midnightblue" stroke="midnightblue" points="209.75,-81.08 217.17,-73.52 206.65,-74.8 209.75,-81.08"/>
</g>
<!-- Node5 -->
<g id="node5" class="node">
<title>Node5</title>
<g id="a_node5"><a xlink:href="group__power-handler-function.html#ga97eb8bdd17b9c2e169f0634ebabb5d19" target="_top" xlink:title="This function initializes all peripheral modules and their instances used by the power controller.">
<polygon fill="white" stroke="black" points="345,-152.5 345,-171.5 482,-171.5 482,-152.5 345,-152.5"/>
<text text-anchor="middle" x="413.5" y="-159.5" font-family="Helvetica,sans-Serif" font-size="10.00">drv_BuckConverter_Initialize</text>
</a>
</g>
</g>
<!-- Node4&#45;&gt;Node5 -->
<g id="edge4" class="edge">
<title>Node4&#45;&gt;Node5</title>
<path fill="none" stroke="midnightblue" d="M307.27,-139.02C324.5,-142.78 342.72,-146.76 359.08,-150.33"/>
<polygon fill="midnightblue" stroke="midnightblue" points="358.48,-153.78 369,-152.5 359.97,-146.95 358.48,-153.78"/>
</g>
<!-- Node18 -->
<g id="node18" class="node">
<title>Node18</title>
<g id="a_node18"><a xlink:href="group__pps.html#ga46aebc06e62c1484f9e95190711067dd" target="_top" xlink:title="Locks the Peripheral Pin Select Configuration registers against accidental changes.">
<polygon fill="white" stroke="black" points="377,-114.5 377,-133.5 450,-133.5 450,-114.5 377,-114.5"/>
<text text-anchor="middle" x="413.5" y="-121.5" font-family="Helvetica,sans-Serif" font-size="10.00">PPS_LockIO</text>
</a>
</g>
</g>
<!-- Node4&#45;&gt;Node18 -->
<g id="edge19" class="edge">
<title>Node4&#45;&gt;Node18</title>
<path fill="none" stroke="midnightblue" d="M309.02,-124C328.55,-124 349.23,-124 366.93,-124"/>
<polygon fill="midnightblue" stroke="midnightblue" points="366.97,-127.5 376.97,-124 366.97,-120.5 366.97,-127.5"/>
</g>
<!-- Node19 -->
<g id="node19" class="node">
<title>Node19</title>
<g id="a_node19"><a xlink:href="group__pps.html#ga1ac2bc53484e4e452fd3b4c027037ebf" target="_top" xlink:title="Assigns a digital function output to a pin.">
<polygon fill="white" stroke="black" points="362.5,-76.5 362.5,-95.5 464.5,-95.5 464.5,-76.5 362.5,-76.5"/>
<text text-anchor="middle" x="413.5" y="-83.5" font-family="Helvetica,sans-Serif" font-size="10.00">PPS_RemapOutput</text>
</a>
</g>
</g>
<!-- Node4&#45;&gt;Node19 -->
<g id="edge20" class="edge">
<title>Node4&#45;&gt;Node19</title>
<path fill="none" stroke="midnightblue" d="M307.27,-108.98C324.5,-105.22 342.72,-101.24 359.08,-97.67"/>
<polygon fill="midnightblue" stroke="midnightblue" points="359.97,-101.05 369,-95.5 358.48,-94.22 359.97,-101.05"/>
</g>
<!-- Node20 -->
<g id="node20" class="node">
<title>Node20</title>
<g id="a_node20"><a xlink:href="group__pps.html#ga3fa51d1be870c73331607df4455a30f8" target="_top" xlink:title="Unlocks the Peripheral Pin Select Configuration registers to enable changes.">
<polygon fill="white" stroke="black" points="372.5,-190.5 372.5,-209.5 454.5,-209.5 454.5,-190.5 372.5,-190.5"/>
<text text-anchor="middle" x="413.5" y="-197.5" font-family="Helvetica,sans-Serif" font-size="10.00">PPS_UnlockIO</text>
</a>
</g>
</g>
<!-- Node4&#45;&gt;Node20 -->
<g id="edge21" class="edge">
<title>Node4&#45;&gt;Node20</title>
<path fill="none" stroke="midnightblue" d="M290.81,-139.05C297.12,-141.66 303.33,-144.64 309,-148 327.67,-159.07 326.04,-170.44 345,-181 350.51,-184.07 356.56,-186.68 362.7,-188.88"/>
<polygon fill="midnightblue" stroke="midnightblue" points="361.77,-192.26 372.37,-192.02 363.94,-185.6 361.77,-192.26"/>
</g>
<!-- Node6 -->
<g id="node6" class="node">
<title>Node6</title>
<g id="a_node6"><a xlink:href="group__power-handler-function.html#gab889ae485e95010864ca04500457861a" target="_top" xlink:title="Description">
<polygon fill="white" stroke="black" points="520,-152.5 520,-171.5 654,-171.5 654,-152.5 520,-152.5"/>
<text text-anchor="middle" x="587" y="-159.5" font-family="Helvetica,sans-Serif" font-size="10.00">buckADC_ChannelInitialize</text>
</a>
</g>
</g>
<!-- Node5&#45;&gt;Node6 -->
<g id="edge5" class="edge">
<title>Node5&#45;&gt;Node6</title>
<path fill="none" stroke="midnightblue" d="M482.28,-162C491.26,-162 500.52,-162 509.63,-162"/>
<polygon fill="midnightblue" stroke="midnightblue" points="509.83,-165.5 519.83,-162 509.83,-158.5 509.83,-165.5"/>
</g>
<!-- Node7 -->
<g id="node7" class="node">
<title>Node7</title>
<g id="a_node7"><a xlink:href="group__power-handler-function.html#ga086bc1e4304b2ce7a435bf2a9799d078" target="_top" xlink:title="Description">
<polygon fill="white" stroke="black" points="522,-114.5 522,-133.5 652,-133.5 652,-114.5 522,-114.5"/>
<text text-anchor="middle" x="587" y="-121.5" font-family="Helvetica,sans-Serif" font-size="10.00">buckADC_ModuleInitialize</text>
</a>
</g>
</g>
<!-- Node5&#45;&gt;Node7 -->
<g id="edge6" class="edge">
<title>Node5&#45;&gt;Node7</title>
<path fill="none" stroke="midnightblue" d="M457.78,-152.41C480.61,-147.35 508.82,-141.1 532.96,-135.75"/>
<polygon fill="midnightblue" stroke="midnightblue" points="534.03,-139.1 543.03,-133.52 532.51,-132.27 534.03,-139.1"/>
</g>
<!-- Node8 -->
<g id="node8" class="node">
<title>Node8</title>
<g id="a_node8"><a xlink:href="group__power-handler-function.html#ga984f623275f9e1da2e11be2e9ff8221c" target="_top" xlink:title="Description">
<polygon fill="white" stroke="black" points="536,-190.5 536,-209.5 638,-209.5 638,-190.5 536,-190.5"/>
<text text-anchor="middle" x="587" y="-197.5" font-family="Helvetica,sans-Serif" font-size="10.00">buckGPIO_Initialize</text>
</a>
</g>
</g>
<!-- Node5&#45;&gt;Node8 -->
<g id="edge7" class="edge">
<title>Node5&#45;&gt;Node8</title>
<path fill="none" stroke="midnightblue" d="M457.78,-171.59C480.61,-176.65 508.82,-182.9 532.96,-188.25"/>
<polygon fill="midnightblue" stroke="midnightblue" points="532.51,-191.73 543.03,-190.48 534.03,-184.9 532.51,-191.73"/>
</g>
<!-- Node12 -->
<g id="node12" class="node">
<title>Node12</title>
<g id="a_node12"><a xlink:href="group__power-handler-function.html#ga283487111ea685224a2caf350540daad" target="_top" xlink:title="Description">
<polygon fill="white" stroke="black" points="518,-76.5 518,-95.5 656,-95.5 656,-76.5 518,-76.5"/>
<text text-anchor="middle" x="587" y="-83.5" font-family="Helvetica,sans-Serif" font-size="10.00">buckPWM_ChannelInitialize</text>
</a>
</g>
</g>
<!-- Node5&#45;&gt;Node12 -->
<g id="edge12" class="edge">
<title>Node5&#45;&gt;Node12</title>
<path fill="none" stroke="midnightblue" d="M461.26,-152.41C468.48,-149.93 475.64,-146.84 482,-143 501.91,-130.97 498.08,-117.01 518,-105 521.6,-102.83 525.46,-100.9 529.44,-99.18"/>
<polygon fill="midnightblue" stroke="midnightblue" points="530.81,-102.41 538.89,-95.56 528.3,-95.87 530.81,-102.41"/>
</g>
<!-- Node15 -->
<g id="node15" class="node">
<title>Node15</title>
<g id="a_node15"><a xlink:href="group__power-handler-function.html#ga1dedc10502a96efea6da9207f3416219" target="_top" xlink:title="Description">
<polygon fill="white" stroke="black" points="520,-240.5 520,-259.5 654,-259.5 654,-240.5 520,-240.5"/>
<text text-anchor="middle" x="587" y="-247.5" font-family="Helvetica,sans-Serif" font-size="10.00">buckPWM_ModuleInitialize</text>
</a>
</g>
</g>
<!-- Node5&#45;&gt;Node15 -->
<g id="edge16" class="edge">
<title>Node5&#45;&gt;Node15</title>
<path fill="none" stroke="midnightblue" d="M461.26,-171.59C468.48,-174.07 475.64,-177.16 482,-181 501.91,-193.03 499.07,-205.48 518,-219 527.54,-225.81 538.81,-231.68 549.41,-236.41"/>
<polygon fill="midnightblue" stroke="midnightblue" points="548.31,-239.75 558.89,-240.44 551.05,-233.31 548.31,-239.75"/>
</g>
<!-- Node9 -->
<g id="node9" class="node">
<title>Node9</title>
<g id="a_node9"><a xlink:href="group__power-handler-function.html#ga649bb2f18322be1a303d05931adb2c6a" target="_top" xlink:title="Description">
<polygon fill="white" stroke="black" points="726.5,-164.5 726.5,-183.5 815.5,-183.5 815.5,-164.5 726.5,-164.5"/>
<text text-anchor="middle" x="771" y="-171.5" font-family="Helvetica,sans-Serif" font-size="10.00">buckGPIO_Clear</text>
</a>
</g>
</g>
<!-- Node8&#45;&gt;Node9 -->
<g id="edge8" class="edge">
<title>Node8&#45;&gt;Node9</title>
<path fill="none" stroke="midnightblue" d="M638.21,-192.83C662.54,-189.35 691.76,-185.18 716.5,-181.64"/>
<polygon fill="midnightblue" stroke="midnightblue" points="717.04,-185.1 726.44,-180.22 716.05,-178.17 717.04,-185.1"/>
</g>
<!-- Node11 -->
<g id="node11" class="node">
<title>Node11</title>
<g id="a_node11"><a xlink:href="group__power-handler-function.html#ga3d3f91c0e40884874e7df3a67fff23f3" target="_top" xlink:title="Description">
<polygon fill="white" stroke="black" points="705.5,-202.5 705.5,-221.5 836.5,-221.5 836.5,-202.5 705.5,-202.5"/>
<text text-anchor="middle" x="771" y="-209.5" font-family="Helvetica,sans-Serif" font-size="10.00">buckGPIO_PrivateInitialize</text>
</a>
</g>
</g>
<!-- Node8&#45;&gt;Node11 -->
<g id="edge10" class="edge">
<title>Node8&#45;&gt;Node11</title>
<path fill="none" stroke="midnightblue" d="M638.21,-203.31C655.78,-204.47 675.91,-205.8 695.06,-207.06"/>
<polygon fill="midnightblue" stroke="midnightblue" points="695.06,-210.57 705.27,-207.73 695.52,-203.58 695.06,-210.57"/>
</g>
<!-- Node10 -->
<g id="node10" class="node">
<title>Node10</title>
<g id="a_node10"><a xlink:href="group__gpio.html#gae1bc534f11ac7cf278865cb73b601055" target="_top" xlink:title="Gets pointer to GPIO Instance SFR set.">
<polygon fill="white" stroke="black" points="886,-164.5 886,-183.5 1037,-183.5 1037,-164.5 886,-164.5"/>
<text text-anchor="middle" x="961.5" y="-171.5" font-family="Helvetica,sans-Serif" font-size="10.00">p33c_GpioInstance_GetHandle</text>
</a>
</g>
</g>
<!-- Node9&#45;&gt;Node10 -->
<g id="edge9" class="edge">
<title>Node9&#45;&gt;Node10</title>
<path fill="none" stroke="midnightblue" d="M815.72,-174C833.66,-174 855.08,-174 875.86,-174"/>
<polygon fill="midnightblue" stroke="midnightblue" points="876,-177.5 886,-174 876,-170.5 876,-177.5"/>
</g>
<!-- Node11&#45;&gt;Node10 -->
<g id="edge11" class="edge">
<title>Node11&#45;&gt;Node10</title>
<path fill="none" stroke="midnightblue" d="M819.57,-202.41C845,-197.28 876.5,-190.93 903.27,-185.54"/>
<polygon fill="midnightblue" stroke="midnightblue" points="904.16,-188.93 913.28,-183.52 902.78,-182.07 904.16,-188.93"/>
</g>
<!-- Node12&#45;&gt;Node10 -->
<g id="edge13" class="edge">
<title>Node12&#45;&gt;Node10</title>
<path fill="none" stroke="midnightblue" d="M656.21,-82.08C710.12,-81.07 786.59,-84.32 850,-105 885.15,-116.47 920.47,-141.42 941.41,-157.97"/>
<polygon fill="midnightblue" stroke="midnightblue" points="939.23,-160.71 949.2,-164.27 943.63,-155.26 939.23,-160.71"/>
</g>
<!-- Node13 -->
<g id="node13" class="node">
<title>Node13</title>
<g id="a_node13"><a xlink:href="group__pwm.html#ga2de389951f418d4fcd9a5237f39a11a1" target="_top" xlink:title="Disposes a given PWM generator by resetting all its registers to default.">
<polygon fill="white" stroke="black" points="701,-115 701,-145 841,-145 841,-115 701,-115"/>
<text text-anchor="start" x="709" y="-133" font-family="Helvetica,sans-Serif" font-size="10.00">p33c_PwmGenerator_Config</text>
<text text-anchor="middle" x="771" y="-122" font-family="Helvetica,sans-Serif" font-size="10.00">Write</text>
</a>
</g>
</g>
<!-- Node12&#45;&gt;Node13 -->
<g id="edge14" class="edge">
<title>Node12&#45;&gt;Node13</title>
<path fill="none" stroke="midnightblue" d="M627.49,-95.55C648.07,-100.52 673.9,-106.77 697.89,-112.57"/>
<polygon fill="midnightblue" stroke="midnightblue" points="697.14,-115.99 707.68,-114.93 698.79,-109.18 697.14,-115.99"/>
</g>
<!-- Node14 -->
<g id="node14" class="node">
<title>Node14</title>
<g id="a_node14"><a xlink:href="group__pwm.html#ga8aa18df01ada60e1faac049c5eb34700" target="_top" xlink:title="Returns the PWM generator index.">
<polygon fill="white" stroke="black" points="692,-38.5 692,-57.5 850,-57.5 850,-38.5 692,-38.5"/>
<text text-anchor="middle" x="771" y="-45.5" font-family="Helvetica,sans-Serif" font-size="10.00">p33c_PwmGenerator_GetHandle</text>
</a>
</g>
</g>
<!-- Node12&#45;&gt;Node14 -->
<g id="edge15" class="edge">
<title>Node12&#45;&gt;Node14</title>
<path fill="none" stroke="midnightblue" d="M633.93,-76.41C658.38,-71.31 688.63,-64.99 714.4,-59.61"/>
<polygon fill="midnightblue" stroke="midnightblue" points="715.33,-62.99 724.4,-57.52 713.9,-56.14 715.33,-62.99"/>
</g>
<!-- Node16 -->
<g id="node16" class="node">
<title>Node16</title>
<g id="a_node16"><a xlink:href="group__pwm.html#ga68493af214377a7329daa5f60825fac5" target="_top" xlink:title="Writes a user&#45;defined configuration to the PWM base module registers.">
<polygon fill="white" stroke="black" points="695,-240.5 695,-259.5 847,-259.5 847,-240.5 695,-240.5"/>
<text text-anchor="middle" x="771" y="-247.5" font-family="Helvetica,sans-Serif" font-size="10.00">p33c_PwmModule_ConfigWrite</text>
</a>
</g>
</g>
<!-- Node15&#45;&gt;Node16 -->
<g id="edge17" class="edge">
<title>Node15&#45;&gt;Node16</title>
<path fill="none" stroke="midnightblue" d="M654.22,-250C664.13,-250 674.46,-250 684.7,-250"/>
<polygon fill="midnightblue" stroke="midnightblue" points="684.89,-253.5 694.89,-250 684.89,-246.5 684.89,-253.5"/>
</g>
<!-- Node17 -->
<g id="node17" class="node">
<title>Node17</title>
<g id="a_node17"><a xlink:href="group__pwm.html#ga02fe57798710b1b54904a4920c181453" target="_top" xlink:title="Gets pointer to PWM module SFR set.">
<polygon fill="white" stroke="black" points="697.5,-278.5 697.5,-297.5 844.5,-297.5 844.5,-278.5 697.5,-278.5"/>
<text text-anchor="middle" x="771" y="-285.5" font-family="Helvetica,sans-Serif" font-size="10.00">p33c_PwmModule_GetHandle</text>
</a>
</g>
</g>
<!-- Node15&#45;&gt;Node17 -->
<g id="edge18" class="edge">
<title>Node15&#45;&gt;Node17</title>
<path fill="none" stroke="midnightblue" d="M633.93,-259.59C658.38,-264.69 688.63,-271.01 714.4,-276.39"/>
<polygon fill="midnightblue" stroke="midnightblue" points="713.9,-279.86 724.4,-278.48 715.33,-273.01 713.9,-279.86"/>
</g>
<!-- Node22 -->
<g id="node22" class="node">
<title>Node22</title>
<g id="a_node22"><a xlink:href="group__power-handler-function.html#ga8c05ea0ee077172e4025d8b7a36f5c9f" target="_top" xlink:title="Description">
<polygon fill="white" stroke="black" points="352,-38.5 352,-57.5 475,-57.5 475,-38.5 352,-38.5"/>
<text text-anchor="middle" x="413.5" y="-45.5" font-family="Helvetica,sans-Serif" font-size="10.00">drv_BuckConverter_Start</text>
</a>
</g>
</g>
<!-- Node21&#45;&gt;Node22 -->
<g id="edge23" class="edge">
<title>Node21&#45;&gt;Node22</title>
<path fill="none" stroke="midnightblue" d="M295.96,-58.72C310.51,-57.38 326.32,-55.92 341.47,-54.53"/>
<polygon fill="midnightblue" stroke="midnightblue" points="342.18,-57.98 351.82,-53.58 341.54,-51.01 342.18,-57.98"/>
</g>
<!-- Node23 -->
<g id="node23" class="node">
<title>Node23</title>
<g id="a_node23"><a xlink:href="group__power-handler-function.html#gae12da3618a5d9e82920992df80b67b47" target="_top" xlink:title="Description">
<polygon fill="white" stroke="black" points="545,-0.5 545,-19.5 629,-19.5 629,-0.5 545,-0.5"/>
<text text-anchor="middle" x="587" y="-7.5" font-family="Helvetica,sans-Serif" font-size="10.00">buckADC_Start</text>
</a>
</g>
</g>
<!-- Node22&#45;&gt;Node23 -->
<g id="edge24" class="edge">
<title>Node22&#45;&gt;Node23</title>
<path fill="none" stroke="midnightblue" d="M457.78,-38.41C481.24,-33.21 510.37,-26.76 534.94,-21.31"/>
<polygon fill="midnightblue" stroke="midnightblue" points="535.8,-24.71 544.81,-19.13 534.29,-17.87 535.8,-24.71"/>
</g>
<!-- Node24 -->
<g id="node24" class="node">
<title>Node24</title>
<g id="a_node24"><a xlink:href="group__power-handler-function.html#gae6c3c54562df6c9d941bab2bc98b2bf2" target="_top" xlink:title="Description">
<polygon fill="white" stroke="black" points="542.5,-38.5 542.5,-57.5 631.5,-57.5 631.5,-38.5 542.5,-38.5"/>
<text text-anchor="middle" x="587" y="-45.5" font-family="Helvetica,sans-Serif" font-size="10.00">buckPWM_Start</text>
</a>
</g>
</g>
<!-- Node22&#45;&gt;Node24 -->
<g id="edge25" class="edge">
<title>Node22&#45;&gt;Node24</title>
<path fill="none" stroke="midnightblue" d="M475.45,-48C494.04,-48 514.35,-48 532.42,-48"/>
<polygon fill="midnightblue" stroke="midnightblue" points="532.48,-51.5 542.48,-48 532.48,-44.5 532.48,-51.5"/>
</g>
<!-- Node24&#45;&gt;Node14 -->
<g id="edge26" class="edge">
<title>Node24&#45;&gt;Node14</title>
<path fill="none" stroke="midnightblue" d="M631.59,-48C646.71,-48 664.26,-48 681.67,-48"/>
<polygon fill="midnightblue" stroke="midnightblue" points="681.89,-51.5 691.89,-48 681.89,-44.5 681.89,-51.5"/>
</g>
</g>
</svg>
