<?xml version="1.0" encoding="UTF-8" standalone="no"?>
<!DOCTYPE svg PUBLIC "-//W3C//DTD SVG 1.1//EN"
 "http://www.w3.org/Graphics/SVG/1.1/DTD/svg11.dtd">
<!-- Generated by graphviz version 2.44.1 (20200629.0846)
 -->
<!-- Title: drv_BuckConverter_Suspend Pages: 1 -->
<svg width="457pt" height="142pt"
 viewBox="0.00 0.00 457.00 142.00" xmlns="http://www.w3.org/2000/svg" xmlns:xlink="http://www.w3.org/1999/xlink">
<g id="graph0" class="graph" transform="scale(1 1) rotate(0) translate(4 138)">
<title>drv_BuckConverter_Suspend</title>
<polygon fill="white" stroke="transparent" points="-4,4 -4,-138 453,-138 453,4 -4,4"/>
<!-- Node1 -->
<g id="node1" class="node">
<title>Node1</title>
<g id="a_node1"><a xlink:title="Description">
<polygon fill="#bfbfbf" stroke="black" points="309,-57.5 309,-76.5 449,-76.5 449,-57.5 309,-57.5"/>
<text text-anchor="middle" x="379" y="-64.5" font-family="Helvetica,sans-Serif" font-size="10.00">drv_BuckConverter_Suspend</text>
</a>
</g>
</g>
<!-- Node2 -->
<g id="node2" class="node">
<title>Node2</title>
<g id="a_node2"><a xlink:href="group__power-handler-function.html#gafa4e90d260e60cf20f06acee067c39cd" target="_top" xlink:title="Description">
<polygon fill="white" stroke="black" points="140,-57.5 140,-76.5 273,-76.5 273,-57.5 140,-57.5"/>
<text text-anchor="middle" x="206.5" y="-64.5" font-family="Helvetica,sans-Serif" font-size="10.00">appPowerSupply_Suspend</text>
</a>
</g>
</g>
<!-- Node1&#45;&gt;Node2 -->
<g id="edge1" class="edge">
<title>Node1&#45;&gt;Node2</title>
<path fill="none" stroke="midnightblue" d="M298.42,-67C289.98,-67 281.46,-67 273.21,-67"/>
<polygon fill="midnightblue" stroke="midnightblue" points="298.65,-70.5 308.65,-67 298.65,-63.5 298.65,-70.5"/>
</g>
<!-- Node3 -->
<g id="node3" class="node">
<title>Node3</title>
<g id="a_node3"><a xlink:href="group__fault-handler-function.html#ga54f9db91ea0782b08aa16ee77a57c5e5" target="_top" xlink:title=" ">
<polygon fill="white" stroke="black" points="4.5,-114.5 4.5,-133.5 99.5,-133.5 99.5,-114.5 4.5,-114.5"/>
<text text-anchor="middle" x="52" y="-121.5" font-family="Helvetica,sans-Serif" font-size="10.00">ocp_FaultInitialize</text>
</a>
</g>
</g>
<!-- Node2&#45;&gt;Node3 -->
<g id="edge2" class="edge">
<title>Node2&#45;&gt;Node3</title>
<path fill="none" stroke="midnightblue" d="M170.63,-80.07C151.05,-87.41 126.17,-96.72 104,-105 95.77,-108.07 86.79,-111.42 78.69,-114.44"/>
<polygon fill="midnightblue" stroke="midnightblue" points="171.92,-83.32 180.06,-76.54 169.47,-76.77 171.92,-83.32"/>
</g>
<!-- Node4 -->
<g id="node4" class="node">
<title>Node4</title>
<g id="a_node4"><a xlink:href="group__fault-handler-function.html#gade437244e8f6e5ff7c57a73442063350" target="_top" xlink:title=" ">
<polygon fill="white" stroke="black" points="4.5,-76.5 4.5,-95.5 99.5,-95.5 99.5,-76.5 4.5,-76.5"/>
<text text-anchor="middle" x="52" y="-83.5" font-family="Helvetica,sans-Serif" font-size="10.00">ovlo_FaultInitialize</text>
</a>
</g>
</g>
<!-- Node2&#45;&gt;Node4 -->
<g id="edge3" class="edge">
<title>Node2&#45;&gt;Node4</title>
<path fill="none" stroke="midnightblue" d="M129.71,-76.44C119.45,-77.72 109.18,-79 99.64,-80.19"/>
<polygon fill="midnightblue" stroke="midnightblue" points="130.45,-79.88 139.94,-75.17 129.59,-72.93 130.45,-79.88"/>
</g>
<!-- Node5 -->
<g id="node5" class="node">
<title>Node5</title>
<g id="a_node5"><a xlink:href="group__fault-handler-function.html#ga82dc317e3adac0308e5ac3f5ad321605" target="_top" xlink:title=" ">
<polygon fill="white" stroke="black" points="0,-38.5 0,-57.5 104,-57.5 104,-38.5 0,-38.5"/>
<text text-anchor="middle" x="52" y="-45.5" font-family="Helvetica,sans-Serif" font-size="10.00">regerr_FaultInitialize</text>
</a>
</g>
</g>
<!-- Node2&#45;&gt;Node5 -->
<g id="edge4" class="edge">
<title>Node2&#45;&gt;Node5</title>
<path fill="none" stroke="midnightblue" d="M129.8,-57.57C121.14,-56.49 112.47,-55.41 104.23,-54.38"/>
<polygon fill="midnightblue" stroke="midnightblue" points="129.59,-61.07 139.94,-58.83 130.45,-54.12 129.59,-61.07"/>
</g>
<!-- Node6 -->
<g id="node6" class="node">
<title>Node6</title>
<g id="a_node6"><a xlink:href="group__fault-handler-function.html#ga9441220f8a7d4a6805467d04b734e6b5" target="_top" xlink:title=" ">
<polygon fill="white" stroke="black" points="4.5,-0.5 4.5,-19.5 99.5,-19.5 99.5,-0.5 4.5,-0.5"/>
<text text-anchor="middle" x="52" y="-7.5" font-family="Helvetica,sans-Serif" font-size="10.00">uvlo_FaultInitialize</text>
</a>
</g>
</g>
<!-- Node2&#45;&gt;Node6 -->
<g id="edge5" class="edge">
<title>Node2&#45;&gt;Node6</title>
<path fill="none" stroke="midnightblue" d="M170.63,-53.93C151.05,-46.59 126.17,-37.28 104,-29 95.77,-25.93 86.79,-22.58 78.69,-19.56"/>
<polygon fill="midnightblue" stroke="midnightblue" points="169.47,-57.23 180.06,-57.46 171.92,-50.68 169.47,-57.23"/>
</g>
</g>
</svg>
