<?xml version="1.0" encoding="UTF-8" standalone="no"?>
<!DOCTYPE svg PUBLIC "-//W3C//DTD SVG 1.1//EN"
 "http://www.w3.org/Graphics/SVG/1.1/DTD/svg11.dtd">
<!-- Generated by graphviz version 2.44.1 (20200629.0846)
 -->
<!-- Title: Power Supply Peripherals Pages: 1 -->
<svg width="303pt" height="150pt"
 viewBox="0.00 0.00 303.00 150.00" xmlns="http://www.w3.org/2000/svg" xmlns:xlink="http://www.w3.org/1999/xlink">
<g id="graph0" class="graph" transform="scale(1 1) rotate(0) translate(4 146)">
<title>Power Supply Peripherals</title>
<polygon fill="white" stroke="transparent" points="-4,4 -4,-146 299,-146 299,4 -4,4"/>
<!-- Node2 -->
<g id="node1" class="node">
<title>Node2</title>
<g id="a_node1"><a xlink:href="group__dac.html" target="_top" xlink:title="Digital&#45;to&#45;Analog Converter.">
<polygon fill="white" stroke="black" points="295,-142 164,-142 164,-123 295,-123 295,-142"/>
<text text-anchor="middle" x="229.5" y="-130" font-family="Helvetica,sans-Serif" font-size="10.00">Digital&#45;to&#45;Analog Converter</text>
</a>
</g>
</g>
<!-- Node4 -->
<g id="node2" class="node">
<title>Node4</title>
<g id="a_node2"><a xlink:href="group__pps.html" target="_top" xlink:title="Peripheral Pin Select.">
<polygon fill="white" stroke="black" points="283.5,-105 175.5,-105 175.5,-86 283.5,-86 283.5,-105"/>
<text text-anchor="middle" x="229.5" y="-93" font-family="Helvetica,sans-Serif" font-size="10.00">Peripheral Pin Select</text>
</a>
</g>
</g>
<!-- Node3 -->
<g id="node3" class="node">
<title>Node3</title>
<g id="a_node3"><a xlink:href="group__gpio.html" target="_top" xlink:title="General Purpose Input/Output.">
<polygon fill="white" stroke="black" points="286,-67.5 173,-67.5 173,-37.5 286,-37.5 286,-67.5"/>
<text text-anchor="start" x="181" y="-55.5" font-family="Helvetica,sans-Serif" font-size="10.00">General Purpose Input</text>
<text text-anchor="middle" x="229.5" y="-44.5" font-family="Helvetica,sans-Serif" font-size="10.00">/Output</text>
</a>
</g>
</g>
<!-- Node5 -->
<g id="node4" class="node">
<title>Node5</title>
<g id="a_node4"><a xlink:href="group__pwm.html" target="_top" xlink:title="Pulse Width Modulation.">
<polygon fill="white" stroke="black" points="289.5,-19 169.5,-19 169.5,0 289.5,0 289.5,-19"/>
<text text-anchor="middle" x="229.5" y="-7" font-family="Helvetica,sans-Serif" font-size="10.00">Pulse Width Modulation</text>
</a>
</g>
</g>
<!-- Node1 -->
<g id="node5" class="node">
<title>Node1</title>
<g id="a_node5"><a xlink:title="Contains peripheral default settings and functions for power supply application.">
<polygon fill="#bfbfbf" stroke="black" points="128,-83 0,-83 0,-64 128,-64 128,-83"/>
<text text-anchor="middle" x="64" y="-71" font-family="Helvetica,sans-Serif" font-size="10.00">Power Supply Peripherals</text>
</a>
</g>
</g>
<!-- Node1&#45;&gt;Node2 -->
<g id="edge1" class="edge">
<title>Node1&#45;&gt;Node2</title>
<path fill="none" stroke="black" d="M95.21,-87.12C114.63,-95.6 140.53,-106.4 164,-114.5 172.79,-117.53 182.39,-120.43 191.43,-122.98"/>
<polygon fill="black" stroke="black" points="96.52,-83.88 85.96,-83.05 93.7,-90.28 96.52,-83.88"/>
</g>
<!-- Node1&#45;&gt;Node4 -->
<g id="edge3" class="edge">
<title>Node1&#45;&gt;Node4</title>
<path fill="none" stroke="black" d="M138.15,-83.34C150.65,-85.02 163.42,-86.74 175.27,-88.34"/>
<polygon fill="black" stroke="black" points="138.59,-79.87 128.21,-82.01 137.66,-86.81 138.59,-79.87"/>
</g>
<!-- Node1&#45;&gt;Node3 -->
<g id="edge2" class="edge">
<title>Node1&#45;&gt;Node3</title>
<path fill="none" stroke="black" d="M138.34,-64.08C149.95,-62.59 161.79,-61.07 172.91,-59.64"/>
<polygon fill="black" stroke="black" points="137.69,-60.64 128.21,-65.38 138.58,-67.58 137.69,-60.64"/>
</g>
<!-- Node1&#45;&gt;Node5 -->
<g id="edge4" class="edge">
<title>Node1&#45;&gt;Node5</title>
<path fill="none" stroke="black" d="M93.26,-59.37C112.83,-49.91 139.63,-37.58 164,-28.5 173.19,-25.08 183.29,-21.86 192.72,-19.07"/>
<polygon fill="black" stroke="black" points="91.46,-56.36 84.01,-63.89 94.54,-62.65 91.46,-56.36"/>
</g>
</g>
</svg>
