<?xml version="1.0" encoding="UTF-8" standalone="no"?>
<!DOCTYPE svg PUBLIC "-//W3C//DTD SVG 1.1//EN"
 "http://www.w3.org/Graphics/SVG/1.1/DTD/svg11.dtd">
<!-- Generated by graphviz version 2.44.1 (20200629.0846)
 -->
<!-- Title: p33c_DacModule_GetHandle Pages: 1 -->
<svg width="520pt" height="66pt"
 viewBox="0.00 0.00 520.00 66.00" xmlns="http://www.w3.org/2000/svg" xmlns:xlink="http://www.w3.org/1999/xlink">
<g id="graph0" class="graph" transform="scale(1 1) rotate(0) translate(4 62)">
<title>p33c_DacModule_GetHandle</title>
<polygon fill="white" stroke="transparent" points="-4,4 -4,-62 516,-62 516,4 -4,4"/>
<!-- Node1 -->
<g id="node1" class="node">
<title>Node1</title>
<g id="a_node1"><a xlink:title="Gets pointer to DAC Module SFR set.">
<polygon fill="#bfbfbf" stroke="black" points="369,-19.5 369,-38.5 512,-38.5 512,-19.5 369,-19.5"/>
<text text-anchor="middle" x="440.5" y="-26.5" font-family="Helvetica,sans-Serif" font-size="10.00">p33c_DacModule_GetHandle</text>
</a>
</g>
</g>
<!-- Node2 -->
<g id="node2" class="node">
<title>Node2</title>
<g id="a_node2"><a xlink:href="group__dac-initialization.html#gab420e63336f317e197b1cb8861561c3f" target="_top" xlink:title="DAC Module Base Register Initialization.">
<polygon fill="white" stroke="black" points="211,-38.5 211,-57.5 333,-57.5 333,-38.5 211,-38.5"/>
<text text-anchor="middle" x="272" y="-45.5" font-family="Helvetica,sans-Serif" font-size="10.00">sysDacModule_Initialize</text>
</a>
</g>
</g>
<!-- Node1&#45;&gt;Node2 -->
<g id="edge1" class="edge">
<title>Node1&#45;&gt;Node2</title>
<path fill="none" stroke="midnightblue" d="M358.81,-38.21C350.19,-39.19 341.53,-40.18 333.2,-41.13"/>
<polygon fill="midnightblue" stroke="midnightblue" points="359.35,-41.67 368.89,-37.06 358.56,-34.71 359.35,-41.67"/>
</g>
<!-- Node5 -->
<g id="node5" class="node">
<title>Node5</title>
<g id="a_node5"><a xlink:href="group__dac-initialization.html#ga2f97c3082e0d6f724cea482c10c2d08f" target="_top" xlink:title=" ">
<polygon fill="white" stroke="black" points="215,-0.5 215,-19.5 329,-19.5 329,-0.5 215,-0.5"/>
<text text-anchor="middle" x="272" y="-7.5" font-family="Helvetica,sans-Serif" font-size="10.00">sysDacOutput_Enable</text>
</a>
</g>
</g>
<!-- Node1&#45;&gt;Node5 -->
<g id="edge4" class="edge">
<title>Node1&#45;&gt;Node5</title>
<path fill="none" stroke="midnightblue" d="M358.86,-19.8C348.79,-18.65 338.67,-17.49 329.08,-16.4"/>
<polygon fill="midnightblue" stroke="midnightblue" points="358.56,-23.29 368.89,-20.94 359.35,-16.33 358.56,-23.29"/>
</g>
<!-- Node3 -->
<g id="node3" class="node">
<title>Node3</title>
<g id="a_node3"><a xlink:href="group__system-initialization-user-peripherals.html#ga70c5cba054e38a4e8c8285a187ff61fa" target="_top" xlink:title="Initializes the user&#45;defined chip resources.">
<polygon fill="white" stroke="black" points="74,-14 74,-44 175,-44 175,-14 74,-14"/>
<text text-anchor="start" x="82" y="-32" font-family="Helvetica,sans-Serif" font-size="10.00">sysUserPeriperhals</text>
<text text-anchor="middle" x="124.5" y="-21" font-family="Helvetica,sans-Serif" font-size="10.00">_Initialize</text>
</a>
</g>
</g>
<!-- Node2&#45;&gt;Node3 -->
<g id="edge2" class="edge">
<title>Node2&#45;&gt;Node3</title>
<path fill="none" stroke="midnightblue" d="M200.86,-38.84C192.19,-37.71 183.48,-36.57 175.2,-35.49"/>
<polygon fill="midnightblue" stroke="midnightblue" points="200.61,-42.34 210.98,-40.16 201.52,-35.4 200.61,-42.34"/>
</g>
<!-- Node4 -->
<g id="node4" class="node">
<title>Node4</title>
<g id="a_node4"><a xlink:href="group__firmware-flow.html#ga840291bc02cba5474a4cb46a9b9566fe" target="_top" xlink:title="Application main function executed after device comes out of RESET.">
<polygon fill="white" stroke="black" points="0,-19.5 0,-38.5 38,-38.5 38,-19.5 0,-19.5"/>
<text text-anchor="middle" x="19" y="-26.5" font-family="Helvetica,sans-Serif" font-size="10.00">main</text>
</a>
</g>
</g>
<!-- Node3&#45;&gt;Node4 -->
<g id="edge3" class="edge">
<title>Node3&#45;&gt;Node4</title>
<path fill="none" stroke="midnightblue" d="M63.81,-29C54.6,-29 45.74,-29 38.42,-29"/>
<polygon fill="midnightblue" stroke="midnightblue" points="63.87,-32.5 73.87,-29 63.87,-25.5 63.87,-32.5"/>
</g>
<!-- Node5&#45;&gt;Node3 -->
<g id="edge5" class="edge">
<title>Node5&#45;&gt;Node3</title>
<path fill="none" stroke="midnightblue" d="M204.61,-18.67C194.8,-19.95 184.83,-21.25 175.43,-22.48"/>
<polygon fill="midnightblue" stroke="midnightblue" points="205.28,-22.11 214.75,-17.35 204.38,-15.17 205.28,-22.11"/>
</g>
</g>
</svg>
