<?xml version="1.0" encoding="UTF-8" standalone="no"?>
<!DOCTYPE svg PUBLIC "-//W3C//DTD SVG 1.1//EN"
 "http://www.w3.org/Graphics/SVG/1.1/DTD/svg11.dtd">
<!-- Generated by graphviz version 2.44.1 (20200629.0846)
 -->
<!-- Title: Essential Chip Resources Pages: 1 -->
<svg width="429pt" height="64pt"
 viewBox="0.00 0.00 429.00 64.00" xmlns="http://www.w3.org/2000/svg" xmlns:xlink="http://www.w3.org/1999/xlink">
<g id="graph0" class="graph" transform="scale(1 1) rotate(0) translate(4 60)">
<title>Essential Chip Resources</title>
<polygon fill="white" stroke="transparent" points="-4,4 -4,-60 425,-60 425,4 -4,4"/>
<!-- Node1 -->
<g id="node1" class="node">
<title>Node1</title>
<g id="a_node1"><a xlink:title=" ">
<polygon fill="#bfbfbf" stroke="black" points="249,-37 120,-37 120,-18 249,-18 249,-37"/>
<text text-anchor="middle" x="184.5" y="-25" font-family="Helvetica,sans-Serif" font-size="10.00">Essential Chip Resources</text>
</a>
</g>
</g>
<!-- Node3 -->
<g id="node2" class="node">
<title>Node3</title>
<g id="a_node2"><a xlink:href="group__clock-initialization.html" target="_top" xlink:title=" ">
<polygon fill="white" stroke="black" points="421,-56 285,-56 285,-37 421,-37 421,-56"/>
<text text-anchor="middle" x="353" y="-44" font-family="Helvetica,sans-Serif" font-size="10.00">Main Oscillator Initialization</text>
</a>
</g>
</g>
<!-- Node1&#45;&gt;Node3 -->
<g id="edge2" class="edge">
<title>Node1&#45;&gt;Node3</title>
<path fill="none" stroke="black" d="M259.61,-35.96C268.05,-36.92 276.62,-37.9 284.96,-38.85"/>
<polygon fill="black" stroke="black" points="259.73,-32.45 249.4,-34.79 258.94,-39.4 259.73,-32.45"/>
</g>
<!-- Node4 -->
<g id="node3" class="node">
<title>Node4</title>
<g id="a_node3"><a xlink:href="group__gpio-initialization.html" target="_top" xlink:title=" ">
<polygon fill="white" stroke="black" points="414,-19 292,-19 292,0 414,0 414,-19"/>
<text text-anchor="middle" x="353" y="-7" font-family="Helvetica,sans-Serif" font-size="10.00">Device Pin Configuration</text>
</a>
</g>
</g>
<!-- Node1&#45;&gt;Node4 -->
<g id="edge3" class="edge">
<title>Node1&#45;&gt;Node4</title>
<path fill="none" stroke="black" d="M259.64,-19.49C270.41,-18.32 281.38,-17.13 291.83,-16"/>
<polygon fill="black" stroke="black" points="258.96,-16.04 249.4,-20.59 259.72,-23 258.96,-16.04"/>
</g>
<!-- Node2 -->
<g id="node4" class="node">
<title>Node2</title>
<g id="a_node4"><a xlink:href="group__device-start-up.html" target="_top" xlink:title="Device Start Up.">
<polygon fill="white" stroke="black" points="84,-37 0,-37 0,-18 84,-18 84,-37"/>
<text text-anchor="middle" x="42" y="-25" font-family="Helvetica,sans-Serif" font-size="10.00">Device Start Up</text>
</a>
</g>
</g>
<!-- Node2&#45;&gt;Node1 -->
<g id="edge1" class="edge">
<title>Node2&#45;&gt;Node1</title>
<path fill="none" stroke="black" d="M94.05,-27.5C102.47,-27.5 111.28,-27.5 119.96,-27.5"/>
<polygon fill="black" stroke="black" points="94.02,-24 84.02,-27.5 94.02,-31 94.02,-24"/>
</g>
</g>
</svg>
