<?xml version="1.0" encoding="UTF-8" standalone="no"?>
<!DOCTYPE svg PUBLIC "-//W3C//DTD SVG 1.1//EN"
 "http://www.w3.org/Graphics/SVG/1.1/DTD/svg11.dtd">
<!-- Generated by graphviz version 2.44.1 (20200629.0846)
 -->
<!-- Title: Private Properties Pages: 1 -->
<svg width="410pt" height="101pt"
 viewBox="0.00 0.00 410.00 101.00" xmlns="http://www.w3.org/2000/svg" xmlns:xlink="http://www.w3.org/1999/xlink">
<g id="graph0" class="graph" transform="scale(1 1) rotate(0) translate(4 97)">
<title>Private Properties</title>
<polygon fill="white" stroke="transparent" points="-4,4 -4,-97 406,-97 406,4 -4,4"/>
<!-- Node5 -->
<g id="node1" class="node">
<title>Node5</title>
<g id="a_node1"><a xlink:href="group__lib-layer-buck-ptemplate-properties-private-defines.html" target="_top" xlink:title=" ">
<polygon fill="white" stroke="black" points="402,-93 299,-93 299,-74 402,-74 402,-93"/>
<text text-anchor="middle" x="350.5" y="-81" font-family="Helvetica,sans-Serif" font-size="10.00">Defines and Macros</text>
</a>
</g>
</g>
<!-- Node1 -->
<g id="node2" class="node">
<title>Node1</title>
<g id="a_node2"><a xlink:title="Public properties of the second library layer.">
<polygon fill="#bfbfbf" stroke="black" points="263,-56 170,-56 170,-37 263,-37 263,-56"/>
<text text-anchor="middle" x="216.5" y="-44" font-family="Helvetica,sans-Serif" font-size="10.00">Private Properties</text>
</a>
</g>
</g>
<!-- Node1&#45;&gt;Node5 -->
<g id="edge4" class="edge">
<title>Node1&#45;&gt;Node5</title>
<path fill="none" stroke="black" d="M261.47,-58.83C278.96,-63.73 298.77,-69.28 315.16,-73.88"/>
<polygon fill="black" stroke="black" points="262.07,-55.36 251.49,-56.03 260.18,-62.1 262.07,-55.36"/>
</g>
<!-- Node3 -->
<g id="node3" class="node">
<title>Node3</title>
<g id="a_node3"><a xlink:href="group__lib-layer-buck-ptemplate-properties-private-variables.html" target="_top" xlink:title=" ">
<polygon fill="white" stroke="black" points="379,-56 322,-56 322,-37 379,-37 379,-56"/>
<text text-anchor="middle" x="350.5" y="-44" font-family="Helvetica,sans-Serif" font-size="10.00">Variables</text>
</a>
</g>
</g>
<!-- Node1&#45;&gt;Node3 -->
<g id="edge2" class="edge">
<title>Node1&#45;&gt;Node3</title>
<path fill="none" stroke="black" d="M273.55,-46.5C290.26,-46.5 307.83,-46.5 321.87,-46.5"/>
<polygon fill="black" stroke="black" points="273.3,-43 263.3,-46.5 273.3,-50 273.3,-43"/>
</g>
<!-- Node4 -->
<g id="node4" class="node">
<title>Node4</title>
<g id="a_node4"><a xlink:href="group__lib-layer-buck-ptemplate-properties-private-data-types.html" target="_top" xlink:title=" ">
<polygon fill="white" stroke="black" points="383.5,-19 317.5,-19 317.5,0 383.5,0 383.5,-19"/>
<text text-anchor="middle" x="350.5" y="-7" font-family="Helvetica,sans-Serif" font-size="10.00">Data Types</text>
</a>
</g>
</g>
<!-- Node1&#45;&gt;Node4 -->
<g id="edge3" class="edge">
<title>Node1&#45;&gt;Node4</title>
<path fill="none" stroke="black" d="M261.37,-34.2C279.69,-29.07 300.59,-23.21 317.44,-18.49"/>
<polygon fill="black" stroke="black" points="260.18,-30.9 251.49,-36.97 262.07,-37.64 260.18,-30.9"/>
</g>
<!-- Node2 -->
<g id="node5" class="node">
<title>Node2</title>
<g id="a_node5"><a xlink:href="group__lib-layer-buck-ptemplate.html" target="_top" xlink:title=" ">
<polygon fill="white" stroke="black" points="134,-56 0,-56 0,-37 134,-37 134,-56"/>
<text text-anchor="middle" x="67" y="-44" font-family="Helvetica,sans-Serif" font-size="10.00">Buck Peripheral Templates</text>
</a>
</g>
</g>
<!-- Node2&#45;&gt;Node1 -->
<g id="edge1" class="edge">
<title>Node2&#45;&gt;Node1</title>
<path fill="none" stroke="black" d="M144.51,-46.5C153.12,-46.5 161.67,-46.5 169.71,-46.5"/>
<polygon fill="black" stroke="black" points="144.41,-43 134.41,-46.5 144.41,-50 144.41,-43"/>
</g>
</g>
</svg>
