<?xml version="1.0" encoding="UTF-8" standalone="no"?>
<!DOCTYPE svg PUBLIC "-//W3C//DTD SVG 1.1//EN"
 "http://www.w3.org/Graphics/SVG/1.1/DTD/svg11.dtd">
<!-- Generated by graphviz version 2.44.1 (20200629.0846)
 -->
<!-- Title: buckADC_Start Pages: 1 -->
<svg width="724pt" height="66pt"
 viewBox="0.00 0.00 724.00 66.00" xmlns="http://www.w3.org/2000/svg" xmlns:xlink="http://www.w3.org/1999/xlink">
<g id="graph0" class="graph" transform="scale(1 1) rotate(0) translate(4 62)">
<title>buckADC_Start</title>
<polygon fill="white" stroke="transparent" points="-4,4 -4,-62 720,-62 720,4 -4,4"/>
<!-- Node1 -->
<g id="node1" class="node">
<title>Node1</title>
<g id="a_node1"><a xlink:title="Description">
<polygon fill="#bfbfbf" stroke="black" points="632,-19.5 632,-38.5 716,-38.5 716,-19.5 632,-19.5"/>
<text text-anchor="middle" x="674" y="-26.5" font-family="Helvetica,sans-Serif" font-size="10.00">buckADC_Start</text>
</a>
</g>
</g>
<!-- Node2 -->
<g id="node2" class="node">
<title>Node2</title>
<g id="a_node2"><a xlink:href="group__power-handler-function.html#ga8c05ea0ee077172e4025d8b7a36f5c9f" target="_top" xlink:title="Description">
<polygon fill="white" stroke="black" points="473,-19.5 473,-38.5 596,-38.5 596,-19.5 473,-19.5"/>
<text text-anchor="middle" x="534.5" y="-26.5" font-family="Helvetica,sans-Serif" font-size="10.00">drv_BuckConverter_Start</text>
</a>
</g>
</g>
<!-- Node1&#45;&gt;Node2 -->
<g id="edge1" class="edge">
<title>Node1&#45;&gt;Node2</title>
<path fill="none" stroke="midnightblue" d="M621.47,-29C613.18,-29 604.53,-29 596.04,-29"/>
<polygon fill="midnightblue" stroke="midnightblue" points="621.75,-32.5 631.75,-29 621.75,-25.5 621.75,-32.5"/>
</g>
<!-- Node3 -->
<g id="node3" class="node">
<title>Node3</title>
<g id="a_node3"><a xlink:href="group__power-handler-function.html#ga9210070749c2ed49abd8a30b27f64151" target="_top" xlink:title="Description">
<polygon fill="white" stroke="black" points="321,-19.5 321,-38.5 437,-38.5 437,-19.5 321,-19.5"/>
<text text-anchor="middle" x="379" y="-26.5" font-family="Helvetica,sans-Serif" font-size="10.00">appPowerSupply_Start</text>
</a>
</g>
</g>
<!-- Node2&#45;&gt;Node3 -->
<g id="edge2" class="edge">
<title>Node2&#45;&gt;Node3</title>
<path fill="none" stroke="midnightblue" d="M462.56,-29C454.07,-29 445.49,-29 437.23,-29"/>
<polygon fill="midnightblue" stroke="midnightblue" points="462.83,-32.5 472.83,-29 462.83,-25.5 462.83,-32.5"/>
</g>
<!-- Node4 -->
<g id="node4" class="node">
<title>Node4</title>
<g id="a_node4"><a xlink:href="group__device-start-up.html#ga7a4cf6371d09457539f96a74b2809ca0" target="_top" xlink:title="Description">
<polygon fill="white" stroke="black" points="155,-19.5 155,-38.5 285,-38.5 285,-19.5 155,-19.5"/>
<text text-anchor="middle" x="220" y="-26.5" font-family="Helvetica,sans-Serif" font-size="10.00">appPowerSupply_Initialize</text>
</a>
</g>
</g>
<!-- Node3&#45;&gt;Node4 -->
<g id="edge3" class="edge">
<title>Node3&#45;&gt;Node4</title>
<path fill="none" stroke="midnightblue" d="M310.7,-29C302.26,-29 293.65,-29 285.26,-29"/>
<polygon fill="midnightblue" stroke="midnightblue" points="310.88,-32.5 320.88,-29 310.88,-25.5 310.88,-32.5"/>
</g>
<!-- Node5 -->
<g id="node5" class="node">
<title>Node5</title>
<g id="a_node5"><a xlink:href="group__firmware-flow.html#ga840291bc02cba5474a4cb46a9b9566fe" target="_top" xlink:title="Application main function executed after device comes out of RESET.">
<polygon fill="white" stroke="black" points="40.5,-38.5 40.5,-57.5 78.5,-57.5 78.5,-38.5 40.5,-38.5"/>
<text text-anchor="middle" x="59.5" y="-45.5" font-family="Helvetica,sans-Serif" font-size="10.00">main</text>
</a>
</g>
</g>
<!-- Node4&#45;&gt;Node5 -->
<g id="edge4" class="edge">
<title>Node4&#45;&gt;Node5</title>
<path fill="none" stroke="midnightblue" d="M144.91,-37.88C120.39,-40.82 95.2,-43.84 78.8,-45.81"/>
<polygon fill="midnightblue" stroke="midnightblue" points="145.48,-41.34 154.99,-36.67 144.64,-34.39 145.48,-41.34"/>
</g>
<!-- Node6 -->
<g id="node6" class="node">
<title>Node6</title>
<g id="a_node6"><a xlink:href="group__device-start-up.html#ga2be64f5f0b9a2c0c6713f5a69d793e05" target="_top" xlink:title="Initializes the user&#45;defined tasks and chip resources.">
<polygon fill="white" stroke="black" points="0,-0.5 0,-19.5 119,-19.5 119,-0.5 0,-0.5"/>
<text text-anchor="middle" x="59.5" y="-7.5" font-family="Helvetica,sans-Serif" font-size="10.00">sysUserTasks_Initialize</text>
</a>
</g>
</g>
<!-- Node4&#45;&gt;Node6 -->
<g id="edge5" class="edge">
<title>Node4&#45;&gt;Node6</title>
<path fill="none" stroke="midnightblue" d="M144.9,-20.12C136.25,-19.08 127.52,-18.03 119.12,-17.03"/>
<polygon fill="midnightblue" stroke="midnightblue" points="144.64,-23.61 154.99,-21.33 145.48,-16.66 144.64,-23.61"/>
</g>
</g>
</svg>
