<?xml version="1.0" encoding="UTF-8" standalone="no"?>
<!DOCTYPE svg PUBLIC "-//W3C//DTD SVG 1.1//EN"
 "http://www.w3.org/Graphics/SVG/1.1/DTD/svg11.dtd">
<!-- Generated by graphviz version 2.44.1 (20200629.0846)
 -->
<!-- Title: p33c_GpioInstance_GetHandle Pages: 1 -->
<svg width="1397pt" height="294pt"
 viewBox="0.00 0.00 1397.00 294.00" xmlns="http://www.w3.org/2000/svg" xmlns:xlink="http://www.w3.org/1999/xlink">
<g id="graph0" class="graph" transform="scale(1 1) rotate(0) translate(4 290)">
<title>p33c_GpioInstance_GetHandle</title>
<polygon fill="white" stroke="transparent" points="-4,4 -4,-290 1393,-290 1393,4 -4,4"/>
<!-- Node1 -->
<g id="node1" class="node">
<title>Node1</title>
<g id="a_node1"><a xlink:title="Gets pointer to GPIO Instance SFR set.">
<polygon fill="#bfbfbf" stroke="black" points="1238,-152.5 1238,-171.5 1389,-171.5 1389,-152.5 1238,-152.5"/>
<text text-anchor="middle" x="1313.5" y="-159.5" font-family="Helvetica,sans-Serif" font-size="10.00">p33c_GpioInstance_GetHandle</text>
</a>
</g>
</g>
<!-- Node2 -->
<g id="node2" class="node">
<title>Node2</title>
<g id="a_node2"><a xlink:href="group__power-handler-functions.html#ga649bb2f18322be1a303d05931adb2c6a" target="_top" xlink:title=" ">
<polygon fill="white" stroke="black" points="1088.5,-228.5 1088.5,-247.5 1177.5,-247.5 1177.5,-228.5 1088.5,-228.5"/>
<text text-anchor="middle" x="1133" y="-235.5" font-family="Helvetica,sans-Serif" font-size="10.00">buckGPIO_Clear</text>
</a>
</g>
</g>
<!-- Node1&#45;&gt;Node2 -->
<g id="edge1" class="edge">
<title>Node1&#45;&gt;Node2</title>
<path fill="none" stroke="midnightblue" d="M1287.84,-176.58C1265.88,-189.1 1232.59,-206.98 1202,-219 1192.87,-222.59 1182.81,-225.79 1173.29,-228.49"/>
<polygon fill="midnightblue" stroke="midnightblue" points="1289.6,-179.6 1296.51,-171.57 1286.1,-173.54 1289.6,-179.6"/>
</g>
<!-- Node15 -->
<g id="node15" class="node">
<title>Node15</title>
<g id="a_node15"><a xlink:href="group__power-handler-functions.html#gad4e9d780ae858d4417887f13b1619346" target="_top" xlink:title=" ">
<polygon fill="white" stroke="black" points="1073,-76.5 1073,-95.5 1193,-95.5 1193,-76.5 1073,-76.5"/>
<text text-anchor="middle" x="1133" y="-83.5" font-family="Helvetica,sans-Serif" font-size="10.00">buckGPIO_GetPinState</text>
</a>
</g>
</g>
<!-- Node1&#45;&gt;Node15 -->
<g id="edge14" class="edge">
<title>Node1&#45;&gt;Node15</title>
<path fill="none" stroke="midnightblue" d="M1287.84,-147.42C1265.88,-134.9 1232.59,-117.02 1202,-105 1192.87,-101.41 1182.81,-98.21 1173.29,-95.51"/>
<polygon fill="midnightblue" stroke="midnightblue" points="1286.1,-150.46 1296.51,-152.43 1289.6,-144.4 1286.1,-150.46"/>
</g>
<!-- Node26 -->
<g id="node26" class="node">
<title>Node26</title>
<g id="a_node26"><a xlink:href="group__power-handler-functions.html#ga3d3f91c0e40884874e7df3a67fff23f3" target="_top" xlink:title=" ">
<polygon fill="white" stroke="black" points="1067.5,-190.5 1067.5,-209.5 1198.5,-209.5 1198.5,-190.5 1067.5,-190.5"/>
<text text-anchor="middle" x="1133" y="-197.5" font-family="Helvetica,sans-Serif" font-size="10.00">buckGPIO_PrivateInitialize</text>
</a>
</g>
</g>
<!-- Node1&#45;&gt;Node26 -->
<g id="edge29" class="edge">
<title>Node1&#45;&gt;Node26</title>
<path fill="none" stroke="midnightblue" d="M1257.63,-173.68C1232.32,-179.07 1202.65,-185.39 1178.72,-190.48"/>
<polygon fill="midnightblue" stroke="midnightblue" points="1258.4,-177.09 1267.46,-171.59 1256.95,-170.25 1258.4,-177.09"/>
</g>
<!-- Node27 -->
<g id="node27" class="node">
<title>Node27</title>
<g id="a_node27"><a xlink:href="group__power-handler-functions.html#gaa3ea141de17bd86c94b1fda8187f9ce6" target="_top" xlink:title=" ">
<polygon fill="white" stroke="black" points="1092,-114.5 1092,-133.5 1174,-133.5 1174,-114.5 1092,-114.5"/>
<text text-anchor="middle" x="1133" y="-121.5" font-family="Helvetica,sans-Serif" font-size="10.00">buckGPIO_Set</text>
</a>
</g>
</g>
<!-- Node1&#45;&gt;Node27 -->
<g id="edge31" class="edge">
<title>Node1&#45;&gt;Node27</title>
<path fill="none" stroke="midnightblue" d="M1257.41,-150.27C1230.51,-144.55 1198.73,-137.78 1174.16,-132.55"/>
<polygon fill="midnightblue" stroke="midnightblue" points="1256.95,-153.75 1267.46,-152.41 1258.4,-146.91 1256.95,-153.75"/>
</g>
<!-- Node29 -->
<g id="node29" class="node">
<title>Node29</title>
<g id="a_node29"><a xlink:href="group__power-handler-functions.html#ga283487111ea685224a2caf350540daad" target="_top" xlink:title=" ">
<polygon fill="white" stroke="black" points="1064,-152.5 1064,-171.5 1202,-171.5 1202,-152.5 1064,-152.5"/>
<text text-anchor="middle" x="1133" y="-159.5" font-family="Helvetica,sans-Serif" font-size="10.00">buckPWM_ChannelInitialize</text>
</a>
</g>
</g>
<!-- Node1&#45;&gt;Node29 -->
<g id="edge33" class="edge">
<title>Node1&#45;&gt;Node29</title>
<path fill="none" stroke="midnightblue" d="M1227.77,-162C1219.17,-162 1210.5,-162 1202.1,-162"/>
<polygon fill="midnightblue" stroke="midnightblue" points="1227.83,-165.5 1237.83,-162 1227.83,-158.5 1227.83,-165.5"/>
</g>
<!-- Node3 -->
<g id="node3" class="node">
<title>Node3</title>
<g id="a_node3"><a xlink:href="group__power-handler-functions.html#ga984f623275f9e1da2e11be2e9ff8221c" target="_top" xlink:title=" ">
<polygon fill="white" stroke="black" points="908,-190.5 908,-209.5 1010,-209.5 1010,-190.5 908,-190.5"/>
<text text-anchor="middle" x="959" y="-197.5" font-family="Helvetica,sans-Serif" font-size="10.00">buckGPIO_Initialize</text>
</a>
</g>
</g>
<!-- Node2&#45;&gt;Node3 -->
<g id="edge2" class="edge">
<title>Node2&#45;&gt;Node3</title>
<path fill="none" stroke="midnightblue" d="M1078.8,-226.25C1054.48,-220.87 1026.05,-214.59 1003.09,-209.52"/>
<polygon fill="midnightblue" stroke="midnightblue" points="1078.08,-229.67 1088.6,-228.41 1079.59,-222.84 1078.08,-229.67"/>
</g>
<!-- Node9 -->
<g id="node9" class="node">
<title>Node9</title>
<g id="a_node9"><a xlink:href="group__power-handler-functions.html#gaf5c603256fc12118fe63eb285676d95f" target="_top" xlink:title=" ">
<polygon fill="white" stroke="black" points="915,-266.5 915,-285.5 1003,-285.5 1003,-266.5 915,-266.5"/>
<text text-anchor="middle" x="959" y="-273.5" font-family="Helvetica,sans-Serif" font-size="10.00">buckPWM_Stop</text>
</a>
</g>
</g>
<!-- Node2&#45;&gt;Node9 -->
<g id="edge8" class="edge">
<title>Node2&#45;&gt;Node9</title>
<path fill="none" stroke="midnightblue" d="M1078.8,-249.75C1054.48,-255.13 1026.05,-261.41 1003.09,-266.48"/>
<polygon fill="midnightblue" stroke="midnightblue" points="1079.59,-253.16 1088.6,-247.59 1078.08,-246.33 1079.59,-253.16"/>
</g>
<!-- Node12 -->
<g id="node12" class="node">
<title>Node12</title>
<g id="a_node12"><a xlink:href="group__power-handler-functions.html#gadd0533ee810246f6b84c7c31d9372835" target="_top" xlink:title=" ">
<polygon fill="white" stroke="black" points="906,-228.5 906,-247.5 1012,-247.5 1012,-228.5 906,-228.5"/>
<text text-anchor="middle" x="959" y="-235.5" font-family="Helvetica,sans-Serif" font-size="10.00">buckPWM_Suspend</text>
</a>
</g>
</g>
<!-- Node2&#45;&gt;Node12 -->
<g id="edge11" class="edge">
<title>Node2&#45;&gt;Node12</title>
<path fill="none" stroke="midnightblue" d="M1078.07,-238C1057,-238 1032.92,-238 1012.03,-238"/>
<polygon fill="midnightblue" stroke="midnightblue" points="1078.15,-241.5 1088.15,-238 1078.15,-234.5 1078.15,-241.5"/>
</g>
<!-- Node4 -->
<g id="node4" class="node">
<title>Node4</title>
<g id="a_node4"><a xlink:href="group__power-handler-functions.html#ga97eb8bdd17b9c2e169f0634ebabb5d19" target="_top" xlink:title="This function initializes all peripheral modules and their instances used by the power controller.">
<polygon fill="white" stroke="black" points="715.5,-152.5 715.5,-171.5 852.5,-171.5 852.5,-152.5 715.5,-152.5"/>
<text text-anchor="middle" x="784" y="-159.5" font-family="Helvetica,sans-Serif" font-size="10.00">drv_BuckConverter_Initialize</text>
</a>
</g>
</g>
<!-- Node3&#45;&gt;Node4 -->
<g id="edge3" class="edge">
<title>Node3&#45;&gt;Node4</title>
<path fill="none" stroke="midnightblue" d="M904.49,-188.25C880.03,-182.87 851.43,-176.59 828.34,-171.52"/>
<polygon fill="midnightblue" stroke="midnightblue" points="903.83,-191.68 914.34,-190.41 905.33,-184.85 903.83,-191.68"/>
</g>
<!-- Node5 -->
<g id="node5" class="node">
<title>Node5</title>
<g id="a_node5"><a xlink:href="group__power-control-app-layer-private.html#ga0b26acfec74d1804384b4ba1a3cffab4" target="_top" xlink:title="This function is used to load peripheral configuration templates from the power controller device dri...">
<polygon fill="white" stroke="black" points="535,-147 535,-177 678,-177 678,-147 535,-147"/>
<text text-anchor="start" x="543" y="-165" font-family="Helvetica,sans-Serif" font-size="10.00">appPowerSupply_Peripherals</text>
<text text-anchor="middle" x="606.5" y="-154" font-family="Helvetica,sans-Serif" font-size="10.00">Initialize</text>
</a>
</g>
</g>
<!-- Node4&#45;&gt;Node5 -->
<g id="edge4" class="edge">
<title>Node4&#45;&gt;Node5</title>
<path fill="none" stroke="midnightblue" d="M705.32,-162C696.31,-162 687.17,-162 678.27,-162"/>
<polygon fill="midnightblue" stroke="midnightblue" points="705.4,-165.5 715.4,-162 705.4,-158.5 705.4,-165.5"/>
</g>
<!-- Node6 -->
<g id="node6" class="node">
<title>Node6</title>
<g id="a_node6"><a xlink:href="group__power-control-app-layer-public.html#ga7a4cf6371d09457539f96a74b2809ca0" target="_top" xlink:title="Calls the application layer power controller initialization.">
<polygon fill="white" stroke="black" points="229,-133.5 229,-152.5 359,-152.5 359,-133.5 229,-133.5"/>
<text text-anchor="middle" x="294" y="-140.5" font-family="Helvetica,sans-Serif" font-size="10.00">appPowerSupply_Initialize</text>
</a>
</g>
</g>
<!-- Node5&#45;&gt;Node6 -->
<g id="edge5" class="edge">
<title>Node5&#45;&gt;Node6</title>
<path fill="none" stroke="midnightblue" d="M524.54,-157.05C472.99,-153.89 407.14,-149.86 359.2,-146.93"/>
<polygon fill="midnightblue" stroke="midnightblue" points="524.46,-160.55 534.65,-157.66 524.89,-153.56 524.46,-160.55"/>
</g>
<!-- Node7 -->
<g id="node7" class="node">
<title>Node7</title>
<g id="a_node7"><a xlink:href="group__system-initialization-user-tasks.html#ga2be64f5f0b9a2c0c6713f5a69d793e05" target="_top" xlink:title="Initializes the user&#45;defined tasks.">
<polygon fill="white" stroke="black" points="74,-95.5 74,-114.5 193,-114.5 193,-95.5 74,-95.5"/>
<text text-anchor="middle" x="133.5" y="-102.5" font-family="Helvetica,sans-Serif" font-size="10.00">sysUserTasks_Initialize</text>
</a>
</g>
</g>
<!-- Node6&#45;&gt;Node7 -->
<g id="edge6" class="edge">
<title>Node6&#45;&gt;Node7</title>
<path fill="none" stroke="midnightblue" d="M243.08,-131.03C220.87,-125.71 195.08,-119.52 174.21,-114.52"/>
<polygon fill="midnightblue" stroke="midnightblue" points="242.46,-134.48 253,-133.41 244.1,-127.68 242.46,-134.48"/>
</g>
<!-- Node8 -->
<g id="node8" class="node">
<title>Node8</title>
<g id="a_node8"><a xlink:href="group__firmware-flow.html#ga840291bc02cba5474a4cb46a9b9566fe" target="_top" xlink:title="Application main function executed after device comes out of RESET.">
<polygon fill="white" stroke="black" points="0,-95.5 0,-114.5 38,-114.5 38,-95.5 0,-95.5"/>
<text text-anchor="middle" x="19" y="-102.5" font-family="Helvetica,sans-Serif" font-size="10.00">main</text>
</a>
</g>
</g>
<!-- Node7&#45;&gt;Node8 -->
<g id="edge7" class="edge">
<title>Node7&#45;&gt;Node8</title>
<path fill="none" stroke="midnightblue" d="M63.65,-105C54.29,-105 45.43,-105 38.16,-105"/>
<polygon fill="midnightblue" stroke="midnightblue" points="63.94,-108.5 73.94,-105 63.94,-101.5 63.94,-108.5"/>
</g>
<!-- Node10 -->
<g id="node10" class="node">
<title>Node10</title>
<g id="a_node10"><a xlink:href="group__power-handler-functions.html#gaa865d025fb1e5ae1e16e0c519c6ba9a2" target="_top" xlink:title=" ">
<polygon fill="white" stroke="black" points="723,-266.5 723,-285.5 845,-285.5 845,-266.5 723,-266.5"/>
<text text-anchor="middle" x="784" y="-273.5" font-family="Helvetica,sans-Serif" font-size="10.00">drv_BuckConverter_Stop</text>
</a>
</g>
</g>
<!-- Node9&#45;&gt;Node10 -->
<g id="edge9" class="edge">
<title>Node9&#45;&gt;Node10</title>
<path fill="none" stroke="midnightblue" d="M904.63,-276C885.84,-276 864.58,-276 845.26,-276"/>
<polygon fill="midnightblue" stroke="midnightblue" points="904.79,-279.5 914.79,-276 904.79,-272.5 904.79,-279.5"/>
</g>
<!-- Node11 -->
<g id="node11" class="node">
<title>Node11</title>
<g id="a_node11"><a xlink:href="group__power-control-app-layer-public.html#gaa7d413f62f7b5f25d152cc12354241f0" target="_top" xlink:title="This function calls the buck converter device driver function stopping the power supply.">
<polygon fill="white" stroke="black" points="549,-266.5 549,-285.5 664,-285.5 664,-266.5 549,-266.5"/>
<text text-anchor="middle" x="606.5" y="-273.5" font-family="Helvetica,sans-Serif" font-size="10.00">appPowerSupply_Stop</text>
</a>
</g>
</g>
<!-- Node10&#45;&gt;Node11 -->
<g id="edge10" class="edge">
<title>Node10&#45;&gt;Node11</title>
<path fill="none" stroke="midnightblue" d="M712.23,-276C696.25,-276 679.48,-276 664.17,-276"/>
<polygon fill="midnightblue" stroke="midnightblue" points="712.6,-279.5 722.6,-276 712.6,-272.5 712.6,-279.5"/>
</g>
<!-- Node13 -->
<g id="node13" class="node">
<title>Node13</title>
<g id="a_node13"><a xlink:href="group__buck-state-machine-function.html#ga7851b6ab25e86f56cb2056e4aac43c5c" target="_top" xlink:title=" ">
<polygon fill="white" stroke="black" points="751,-228.5 751,-247.5 817,-247.5 817,-228.5 751,-228.5"/>
<text text-anchor="middle" x="784" y="-235.5" font-family="Helvetica,sans-Serif" font-size="10.00">State_Error</text>
</a>
</g>
</g>
<!-- Node12&#45;&gt;Node13 -->
<g id="edge12" class="edge">
<title>Node12&#45;&gt;Node13</title>
<path fill="none" stroke="midnightblue" d="M895.61,-238C869.01,-238 839.11,-238 817.1,-238"/>
<polygon fill="midnightblue" stroke="midnightblue" points="895.62,-241.5 905.62,-238 895.62,-234.5 895.62,-241.5"/>
</g>
<!-- Node14 -->
<g id="node14" class="node">
<title>Node14</title>
<g id="a_node14"><a xlink:href="group__buck-state-machine-function.html#ga295e97e4e4330b73f398e98d889d229d" target="_top" xlink:title=" ">
<polygon fill="white" stroke="black" points="748.5,-190.5 748.5,-209.5 819.5,-209.5 819.5,-190.5 748.5,-190.5"/>
<text text-anchor="middle" x="784" y="-197.5" font-family="Helvetica,sans-Serif" font-size="10.00">State_Reset</text>
</a>
</g>
</g>
<!-- Node12&#45;&gt;Node14 -->
<g id="edge13" class="edge">
<title>Node12&#45;&gt;Node14</title>
<path fill="none" stroke="midnightblue" d="M904.43,-226.23C876.81,-220.17 843.92,-212.94 819.65,-207.61"/>
<polygon fill="midnightblue" stroke="midnightblue" points="903.83,-229.68 914.34,-228.41 905.33,-222.85 903.83,-229.68"/>
</g>
<!-- Node16 -->
<g id="node16" class="node">
<title>Node16</title>
<g id="a_node16"><a xlink:href="group__power-handler-functions.html#ga75498c59a10db0738113104a547d8d0d" target="_top" xlink:title="This function is the main buck converter state machine executing the most recent state.">
<polygon fill="white" stroke="black" points="890,-76.5 890,-95.5 1028,-95.5 1028,-76.5 890,-76.5"/>
<text text-anchor="middle" x="959" y="-83.5" font-family="Helvetica,sans-Serif" font-size="10.00">drv_BuckConverter_Execute</text>
</a>
</g>
</g>
<!-- Node15&#45;&gt;Node16 -->
<g id="edge15" class="edge">
<title>Node15&#45;&gt;Node16</title>
<path fill="none" stroke="midnightblue" d="M1062.54,-86C1051.2,-86 1039.47,-86 1028.17,-86"/>
<polygon fill="midnightblue" stroke="midnightblue" points="1062.81,-89.5 1072.81,-86 1062.81,-82.5 1062.81,-89.5"/>
</g>
<!-- Node17 -->
<g id="node17" class="node">
<title>Node17</title>
<g id="a_node17"><a xlink:href="group__power-handler-functions.html#gaf73787b6b72bc61786a39b9c7e47f6c6" target="_top" xlink:title=" ">
<polygon fill="white" stroke="black" points="715,-92.5 715,-111.5 853,-111.5 853,-92.5 715,-92.5"/>
<text text-anchor="middle" x="784" y="-99.5" font-family="Helvetica,sans-Serif" font-size="10.00">drv_BuckConverter_Resume</text>
</a>
</g>
</g>
<!-- Node16&#45;&gt;Node17 -->
<g id="edge16" class="edge">
<title>Node16&#45;&gt;Node17</title>
<path fill="none" stroke="midnightblue" d="M879.41,-93.27C870.65,-94.08 861.78,-94.9 853.16,-95.7"/>
<polygon fill="midnightblue" stroke="midnightblue" points="879.99,-96.73 889.63,-92.32 879.35,-89.76 879.99,-96.73"/>
</g>
<!-- Node19 -->
<g id="node19" class="node">
<title>Node19</title>
<g id="a_node19"><a xlink:href="group__power-handler-functions.html#ga3287d86e7c3eecaa97d4bdf590ed0a15" target="_top" xlink:title=" ">
<polygon fill="white" stroke="black" points="714,-54.5 714,-73.5 854,-73.5 854,-54.5 714,-54.5"/>
<text text-anchor="middle" x="784" y="-61.5" font-family="Helvetica,sans-Serif" font-size="10.00">drv_BuckConverter_Suspend</text>
</a>
</g>
</g>
<!-- Node16&#45;&gt;Node19 -->
<g id="edge18" class="edge">
<title>Node16&#45;&gt;Node19</title>
<path fill="none" stroke="midnightblue" d="M879.65,-76.04C871.1,-74.95 862.44,-73.85 854.01,-72.78"/>
<polygon fill="midnightblue" stroke="midnightblue" points="879.26,-79.52 889.63,-77.31 880.15,-72.57 879.26,-79.52"/>
</g>
<!-- Node18 -->
<g id="node18" class="node">
<title>Node18</title>
<g id="a_node18"><a xlink:href="group__power-control-app-layer-public.html#ga3c7bf6b771bc1296401a270da4a95bff" target="_top" xlink:title=" ">
<polygon fill="white" stroke="black" points="541,-92.5 541,-111.5 672,-111.5 672,-92.5 541,-92.5"/>
<text text-anchor="middle" x="606.5" y="-99.5" font-family="Helvetica,sans-Serif" font-size="10.00">appPowerSupply_Resume</text>
</a>
</g>
</g>
<!-- Node17&#45;&gt;Node18 -->
<g id="edge17" class="edge">
<title>Node17&#45;&gt;Node18</title>
<path fill="none" stroke="midnightblue" d="M704.57,-102C693.72,-102 682.68,-102 672.11,-102"/>
<polygon fill="midnightblue" stroke="midnightblue" points="704.9,-105.5 714.9,-102 704.9,-98.5 704.9,-105.5"/>
</g>
<!-- Node20 -->
<g id="node20" class="node">
<title>Node20</title>
<g id="a_node20"><a xlink:href="group__power-control-app-layer-public.html#gafa4e90d260e60cf20f06acee067c39cd" target="_top" xlink:title=" ">
<polygon fill="white" stroke="black" points="540,-54.5 540,-73.5 673,-73.5 673,-54.5 540,-54.5"/>
<text text-anchor="middle" x="606.5" y="-61.5" font-family="Helvetica,sans-Serif" font-size="10.00">appPowerSupply_Suspend</text>
</a>
</g>
</g>
<!-- Node19&#45;&gt;Node20 -->
<g id="edge19" class="edge">
<title>Node19&#45;&gt;Node20</title>
<path fill="none" stroke="midnightblue" d="M703.72,-64C693.49,-64 683.09,-64 673.11,-64"/>
<polygon fill="midnightblue" stroke="midnightblue" points="703.89,-67.5 713.89,-64 703.89,-60.5 703.89,-67.5"/>
</g>
<!-- Node21 -->
<g id="node21" class="node">
<title>Node21</title>
<g id="a_node21"><a xlink:href="group__fault-handler-functions.html#ga54f9db91ea0782b08aa16ee77a57c5e5" target="_top" xlink:title="Initializes the user&#45;defined fault objects for overcurrent protection.">
<polygon fill="white" stroke="black" points="399.5,-38.5 399.5,-57.5 494.5,-57.5 494.5,-38.5 399.5,-38.5"/>
<text text-anchor="middle" x="447" y="-45.5" font-family="Helvetica,sans-Serif" font-size="10.00">ocp_FaultInitialize</text>
</a>
</g>
</g>
<!-- Node20&#45;&gt;Node21 -->
<g id="edge20" class="edge">
<title>Node20&#45;&gt;Node21</title>
<path fill="none" stroke="midnightblue" d="M529.35,-56.26C517.61,-55.07 505.79,-53.87 494.94,-52.77"/>
<polygon fill="midnightblue" stroke="midnightblue" points="529.32,-59.78 539.62,-57.31 530.02,-52.81 529.32,-59.78"/>
</g>
<!-- Node23 -->
<g id="node23" class="node">
<title>Node23</title>
<g id="a_node23"><a xlink:href="group__fault-handler-functions.html#gade437244e8f6e5ff7c57a73442063350" target="_top" xlink:title="Initializes the user&#45;defined fault objects for overvoltage lockout.">
<polygon fill="white" stroke="black" points="399.5,-0.5 399.5,-19.5 494.5,-19.5 494.5,-0.5 399.5,-0.5"/>
<text text-anchor="middle" x="447" y="-7.5" font-family="Helvetica,sans-Serif" font-size="10.00">ovlo_FaultInitialize</text>
</a>
</g>
</g>
<!-- Node20&#45;&gt;Node23 -->
<g id="edge23" class="edge">
<title>Node20&#45;&gt;Node23</title>
<path fill="none" stroke="midnightblue" d="M568.13,-51.19C539.79,-41.47 501.45,-28.33 475.78,-19.53"/>
<polygon fill="midnightblue" stroke="midnightblue" points="567.11,-54.54 577.7,-54.47 569.38,-47.92 567.11,-54.54"/>
</g>
<!-- Node24 -->
<g id="node24" class="node">
<title>Node24</title>
<g id="a_node24"><a xlink:href="group__fault-handler-functions.html#ga82dc317e3adac0308e5ac3f5ad321605" target="_top" xlink:title="Initializes the user&#45;defined fault objects for regulation error.">
<polygon fill="white" stroke="black" points="395,-114.5 395,-133.5 499,-133.5 499,-114.5 395,-114.5"/>
<text text-anchor="middle" x="447" y="-121.5" font-family="Helvetica,sans-Serif" font-size="10.00">regerr_FaultInitialize</text>
</a>
</g>
</g>
<!-- Node20&#45;&gt;Node24 -->
<g id="edge25" class="edge">
<title>Node20&#45;&gt;Node24</title>
<path fill="none" stroke="midnightblue" d="M552.35,-76.56C546.41,-78.48 540.52,-80.63 535,-83 517.77,-90.4 515.86,-96.8 499,-105 491.86,-108.47 483.92,-111.71 476.46,-114.49"/>
<polygon fill="midnightblue" stroke="midnightblue" points="553.78,-79.79 562.33,-73.54 551.75,-73.09 553.78,-79.79"/>
</g>
<!-- Node25 -->
<g id="node25" class="node">
<title>Node25</title>
<g id="a_node25"><a xlink:href="group__fault-handler-functions.html#ga9441220f8a7d4a6805467d04b734e6b5" target="_top" xlink:title="Initializes the user&#45;defined fault objects for under&#45;voltage lockout.">
<polygon fill="white" stroke="black" points="399.5,-76.5 399.5,-95.5 494.5,-95.5 494.5,-76.5 399.5,-76.5"/>
<text text-anchor="middle" x="447" y="-83.5" font-family="Helvetica,sans-Serif" font-size="10.00">uvlo_FaultInitialize</text>
</a>
</g>
</g>
<!-- Node20&#45;&gt;Node25 -->
<g id="edge27" class="edge">
<title>Node20&#45;&gt;Node25</title>
<path fill="none" stroke="midnightblue" d="M529.7,-74.59C517.85,-76.24 505.9,-77.91 494.94,-79.44"/>
<polygon fill="midnightblue" stroke="midnightblue" points="530.2,-78.05 539.62,-73.2 529.23,-71.12 530.2,-78.05"/>
</g>
<!-- Node22 -->
<g id="node22" class="node">
<title>Node22</title>
<g id="a_node22"><a xlink:href="group__fault-handler-functions.html#ga830e5c7087a8e5ee8ea39b7e3df94b68" target="_top" xlink:title="Initialization of user&#45;defined fault objects.">
<polygon fill="white" stroke="black" points="230.5,-76.5 230.5,-95.5 357.5,-95.5 357.5,-76.5 230.5,-76.5"/>
<text text-anchor="middle" x="294" y="-83.5" font-family="Helvetica,sans-Serif" font-size="10.00">appFaultMonitor_Initialize</text>
</a>
</g>
</g>
<!-- Node21&#45;&gt;Node22 -->
<g id="edge21" class="edge">
<title>Node21&#45;&gt;Node22</title>
<path fill="none" stroke="midnightblue" d="M398.16,-60.04C377.06,-65.35 352.62,-71.5 332.83,-76.48"/>
<polygon fill="midnightblue" stroke="midnightblue" points="399.05,-63.42 407.9,-57.59 397.34,-56.64 399.05,-63.42"/>
</g>
<!-- Node22&#45;&gt;Node7 -->
<g id="edge22" class="edge">
<title>Node22&#45;&gt;Node7</title>
<path fill="none" stroke="midnightblue" d="M220.18,-94.73C211.1,-95.82 201.9,-96.92 193.08,-97.98"/>
<polygon fill="midnightblue" stroke="midnightblue" points="220.84,-98.17 230.36,-93.51 220.01,-91.22 220.84,-98.17"/>
</g>
<!-- Node23&#45;&gt;Node22 -->
<g id="edge24" class="edge">
<title>Node23&#45;&gt;Node22</title>
<path fill="none" stroke="midnightblue" d="M408.52,-23.17C403.92,-25.02 399.32,-26.98 395,-29 363.86,-43.56 329.43,-64.28 310.18,-76.32"/>
<polygon fill="midnightblue" stroke="midnightblue" points="409.81,-26.42 417.87,-19.55 407.28,-19.9 409.81,-26.42"/>
</g>
<!-- Node24&#45;&gt;Node22 -->
<g id="edge26" class="edge">
<title>Node24&#45;&gt;Node22</title>
<path fill="none" stroke="midnightblue" d="M398.16,-111.96C377.06,-106.65 352.62,-100.5 332.83,-95.52"/>
<polygon fill="midnightblue" stroke="midnightblue" points="397.34,-115.36 407.9,-114.41 399.05,-108.58 397.34,-115.36"/>
</g>
<!-- Node25&#45;&gt;Node22 -->
<g id="edge28" class="edge">
<title>Node25&#45;&gt;Node22</title>
<path fill="none" stroke="midnightblue" d="M389.36,-86C379.05,-86 368.24,-86 357.77,-86"/>
<polygon fill="midnightblue" stroke="midnightblue" points="389.46,-89.5 399.46,-86 389.46,-82.5 389.46,-89.5"/>
</g>
<!-- Node26&#45;&gt;Node3 -->
<g id="edge30" class="edge">
<title>Node26&#45;&gt;Node3</title>
<path fill="none" stroke="midnightblue" d="M1057.12,-200C1041.22,-200 1024.82,-200 1010.11,-200"/>
<polygon fill="midnightblue" stroke="midnightblue" points="1057.46,-203.5 1067.46,-200 1057.46,-196.5 1057.46,-203.5"/>
</g>
<!-- Node28 -->
<g id="node28" class="node">
<title>Node28</title>
<g id="a_node28"><a xlink:href="group__buck-state-machine-function.html#ga63e41c37a567ac87b4630db7320842d0" target="_top" xlink:title=" ">
<polygon fill="white" stroke="black" points="890.5,-114.5 890.5,-133.5 1027.5,-133.5 1027.5,-114.5 890.5,-114.5"/>
<text text-anchor="middle" x="959" y="-121.5" font-family="Helvetica,sans-Serif" font-size="10.00">SubState_PowerGoodDelay</text>
</a>
</g>
</g>
<!-- Node27&#45;&gt;Node28 -->
<g id="edge32" class="edge">
<title>Node27&#45;&gt;Node28</title>
<path fill="none" stroke="midnightblue" d="M1081.5,-124C1064.65,-124 1045.6,-124 1027.67,-124"/>
<polygon fill="midnightblue" stroke="midnightblue" points="1081.67,-127.5 1091.67,-124 1081.67,-120.5 1081.67,-127.5"/>
</g>
<!-- Node29&#45;&gt;Node4 -->
<g id="edge34" class="edge">
<title>Node29&#45;&gt;Node4</title>
<path fill="none" stroke="midnightblue" d="M1053.59,-162C993.11,-162 910.31,-162 852.69,-162"/>
<polygon fill="midnightblue" stroke="midnightblue" points="1053.86,-165.5 1063.86,-162 1053.86,-158.5 1053.86,-165.5"/>
</g>
</g>
</svg>
