<?xml version="1.0" encoding="UTF-8" standalone="no"?>
<!DOCTYPE svg PUBLIC "-//W3C//DTD SVG 1.1//EN"
 "http://www.w3.org/Graphics/SVG/1.1/DTD/svg11.dtd">
<!-- Generated by graphviz version 2.44.1 (20200629.0846)
 -->
<!-- Title: main Pages: 1 -->
<!--zoomable 695 -->
<svg id="main" version="1.1" xmlns="http://www.w3.org/2000/svg" xmlns:xlink="http://www.w3.org/1999/xlink" xml:space="preserve" onload="init(evt)">
<style type="text/css"><![CDATA[
.edge:hover path { stroke: red; }
.edge:hover polygon { stroke: red; fill: red; }
]]></style>
<script type="text/javascript"><![CDATA[
var edges = document.getElementsByTagName('g');
if (edges && edges.length) {
  for (var i=0;i<edges.length;i++) {
    if (edges[i].id.substr(0,4)=='edge') {
      edges[i].setAttribute('class','edge');
    }
  }
}
]]></script>
        <defs>
                <circle id="rim" cx="0" cy="0" r="7"/>
                <circle id="rim2" cx="0" cy="0" r="3.5"/>
                <g id="zoomPlus">
                        <use xlink:href="#rim" fill="#404040">
                                <set attributeName="fill" to="#808080" begin="zoomplus.mouseover" end="zoomplus.mouseout"/>
                        </use>
                        <path d="M-4,0h8M0,-4v8" fill="none" stroke="white" stroke-width="1.5" pointer-events="none"/>
                </g>
                <g id="zoomMin">
                        <use xlink:href="#rim" fill="#404040">
                                <set attributeName="fill" to="#808080" begin="zoomminus.mouseover" end="zoomminus.mouseout"/>
                        </use>
                        <path d="M-4,0h8" fill="none" stroke="white" stroke-width="1.5" pointer-events="none"/>
                </g>
                <g id="dirArrow">
                        <path fill="none" stroke="white" stroke-width="1.5" d="M0,-3.0v7 M-2.5,-0.5L0,-3.0L2.5,-0.5"/>
                </g>
               <g id="resetDef">
                       <use xlink:href="#rim2" fill="#404040">
                               <set attributeName="fill" to="#808080" begin="reset.mouseover" end="reset.mouseout"/>
                       </use>
               </g>
        </defs>

<script type="text/javascript">
var viewWidth = 932;
var viewHeight = 695;
var sectionId = 'dynsection-1';
</script>
<script xlink:href="svgpan.js"/>
<svg id="graph" class="graph">
<g id="viewport">
<title>main</title>
<polygon fill="white" stroke="transparent" points="-4,4 -4,-690.5 928,-690.5 928,4 -4,4"/>
<!-- Node1 -->
<g id="node1" class="node">
<title>Node1</title>
<g id="a_node1"><a xlink:title="Application main function executed after device comes out of RESET.">
<polygon fill="#bfbfbf" stroke="black" points="0,-579.5 0,-598.5 38,-598.5 38,-579.5 0,-579.5"/>
<text text-anchor="middle" x="19" y="-586.5" font-family="Helvetica,sans-Serif" font-size="10.00">main</text>
</a>
</g>
</g>
<!-- Node2 -->
<g id="node2" class="node">
<title>Node2</title>
<g id="a_node2"><a xlink:href="group__main-loop-low-priority.html#gaa1ec8154dbf983b02b3b2dc186c5079d" target="_top" xlink:title="Low priority task sequence executed after the high priority task sequence execution is complete.">
<polygon fill="white" stroke="black" points="80,-656 80,-686 187,-686 187,-656 80,-656"/>
<text text-anchor="start" x="88" y="-674" font-family="Helvetica,sans-Serif" font-size="10.00">sysLowPriorityTasks</text>
<text text-anchor="middle" x="133.5" y="-663" font-family="Helvetica,sans-Serif" font-size="10.00">_Execute</text>
</a>
</g>
</g>
<!-- Node1&#45;&gt;Node2 -->
<g id="edge1" class="edge">
<title>Node1&#45;&gt;Node2</title>
<path fill="none" stroke="midnightblue" d="M27.08,-598.63C36.58,-610.99 54.53,-632.45 74,-646 76.67,-647.86 79.51,-649.63 82.43,-651.29"/>
<polygon fill="midnightblue" stroke="midnightblue" points="80.91,-654.44 91.39,-655.99 84.16,-648.24 80.91,-654.44"/>
</g>
<!-- Node3 -->
<g id="node3" class="node">
<title>Node3</title>
<g id="a_node3"><a xlink:href="group__os-timer-initialization.html#ga4c811c3414a3785423f828be293562f0" target="_top" xlink:title=" ">
<polygon fill="white" stroke="black" points="81.5,-617.5 81.5,-636.5 185.5,-636.5 185.5,-617.5 81.5,-617.5"/>
<text text-anchor="middle" x="133.5" y="-624.5" font-family="Helvetica,sans-Serif" font-size="10.00">sysOsTimer_Enable</text>
</a>
</g>
</g>
<!-- Node1&#45;&gt;Node3 -->
<g id="edge2" class="edge">
<title>Node1&#45;&gt;Node3</title>
<path fill="none" stroke="midnightblue" d="M38.46,-595.62C48.87,-599.32 62.14,-603.99 74,-608 80.11,-610.07 86.59,-612.21 92.93,-614.29"/>
<polygon fill="midnightblue" stroke="midnightblue" points="92.1,-617.7 102.69,-617.47 94.27,-611.05 92.1,-617.7"/>
</g>
<!-- Node4 -->
<g id="node4" class="node">
<title>Node4</title>
<g id="a_node4"><a xlink:href="group__system-initialization-mcu.html#ga5630229f9308951b78658dc1af6b10e3" target="_top" xlink:title="Initializes essential chip resources.">
<polygon fill="white" stroke="black" points="84.5,-579.5 84.5,-598.5 182.5,-598.5 182.5,-579.5 84.5,-579.5"/>
<text text-anchor="middle" x="133.5" y="-586.5" font-family="Helvetica,sans-Serif" font-size="10.00">SYSTEM_Initialize</text>
</a>
</g>
</g>
<!-- Node1&#45;&gt;Node4 -->
<g id="edge3" class="edge">
<title>Node1&#45;&gt;Node4</title>
<path fill="none" stroke="midnightblue" d="M38.08,-589C48.07,-589 61.12,-589 74.31,-589"/>
<polygon fill="midnightblue" stroke="midnightblue" points="74.37,-592.5 84.37,-589 74.37,-585.5 74.37,-592.5"/>
</g>
<!-- Node12 -->
<g id="node12" class="node">
<title>Node12</title>
<g id="a_node12"><a xlink:href="group__system-initialization-user-peripherals.html#ga70c5cba054e38a4e8c8285a187ff61fa" target="_top" xlink:title="Initializes the user&#45;defined chip resources.">
<polygon fill="white" stroke="black" points="83,-479 83,-509 184,-509 184,-479 83,-479"/>
<text text-anchor="start" x="91" y="-497" font-family="Helvetica,sans-Serif" font-size="10.00">sysUserPeriperhals</text>
<text text-anchor="middle" x="133.5" y="-486" font-family="Helvetica,sans-Serif" font-size="10.00">_Initialize</text>
</a>
</g>
</g>
<!-- Node1&#45;&gt;Node12 -->
<g id="edge11" class="edge">
<title>Node1&#45;&gt;Node12</title>
<path fill="none" stroke="midnightblue" d="M31.62,-579.19C49.19,-564.35 83,-535.8 106.61,-515.86"/>
<polygon fill="midnightblue" stroke="midnightblue" points="109.11,-518.33 114.49,-509.21 104.59,-512.98 109.11,-518.33"/>
</g>
<!-- Node25 -->
<g id="node25" class="node">
<title>Node25</title>
<g id="a_node25"><a xlink:href="group__system-initialization-user-tasks.html#ga2be64f5f0b9a2c0c6713f5a69d793e05" target="_top" xlink:title="Initializes the user&#45;defined tasks.">
<polygon fill="white" stroke="black" points="74,-234.5 74,-253.5 193,-253.5 193,-234.5 74,-234.5"/>
<text text-anchor="middle" x="133.5" y="-241.5" font-family="Helvetica,sans-Serif" font-size="10.00">sysUserTasks_Initialize</text>
</a>
</g>
</g>
<!-- Node1&#45;&gt;Node25 -->
<g id="edge28" class="edge">
<title>Node1&#45;&gt;Node25</title>
<path fill="none" stroke="midnightblue" d="M23.13,-579.41C38.39,-532.6 105.2,-327.73 126.17,-263.4"/>
<polygon fill="midnightblue" stroke="midnightblue" points="129.56,-264.3 129.34,-253.7 122.91,-262.13 129.56,-264.3"/>
</g>
<!-- Node5 -->
<g id="node5" class="node">
<title>Node5</title>
<g id="a_node5"><a xlink:href="group__clock-initialization.html#ga3f3f3c22c6c2b95518271fae8f58b03f" target="_top" xlink:title="Initializes the auxiliary clock of the device.">
<polygon fill="white" stroke="black" points="249,-655.5 249,-674.5 341,-674.5 341,-655.5 249,-655.5"/>
<text text-anchor="middle" x="295" y="-662.5" font-family="Helvetica,sans-Serif" font-size="10.00">sysAclk_Initialize</text>
</a>
</g>
</g>
<!-- Node4&#45;&gt;Node5 -->
<g id="edge4" class="edge">
<title>Node4&#45;&gt;Node5</title>
<path fill="none" stroke="midnightblue" d="M173.18,-598.53C180.06,-601.06 186.95,-604.18 193,-608 212.67,-620.42 209.15,-633.87 229,-646 232.56,-648.17 236.37,-650.11 240.31,-651.83"/>
<polygon fill="midnightblue" stroke="midnightblue" points="239.06,-655.1 249.65,-655.47 241.6,-648.58 239.06,-655.1"/>
</g>
<!-- Node8 -->
<g id="node8" class="node">
<title>Node8</title>
<g id="a_node8"><a xlink:href="group__clock-initialization.html#ga40d0188218fbc4f682cbddffff9e1269" target="_top" xlink:title="System oscillator initialization.">
<polygon fill="white" stroke="black" points="247.5,-617.5 247.5,-636.5 342.5,-636.5 342.5,-617.5 247.5,-617.5"/>
<text text-anchor="middle" x="295" y="-624.5" font-family="Helvetica,sans-Serif" font-size="10.00">sysFosc_Initialize</text>
</a>
</g>
</g>
<!-- Node4&#45;&gt;Node8 -->
<g id="edge7" class="edge">
<title>Node4&#45;&gt;Node8</title>
<path fill="none" stroke="midnightblue" d="M174.75,-598.59C195.8,-603.6 221.76,-609.79 244.07,-615.11"/>
<polygon fill="midnightblue" stroke="midnightblue" points="243.5,-618.57 254.04,-617.48 245.12,-611.76 243.5,-618.57"/>
</g>
<!-- Node11 -->
<g id="node11" class="node">
<title>Node11</title>
<g id="a_node11"><a xlink:href="group__gpio-initialization.html#ga991f10b100fedefc5a11ae679a5a7ea4" target="_top" xlink:title=" ">
<polygon fill="white" stroke="black" points="248.5,-579.5 248.5,-598.5 341.5,-598.5 341.5,-579.5 248.5,-579.5"/>
<text text-anchor="middle" x="295" y="-586.5" font-family="Helvetica,sans-Serif" font-size="10.00">sysGpio_Initialize</text>
</a>
</g>
</g>
<!-- Node4&#45;&gt;Node11 -->
<g id="edge10" class="edge">
<title>Node4&#45;&gt;Node11</title>
<path fill="none" stroke="midnightblue" d="M182.79,-589C200.27,-589 220.15,-589 238.22,-589"/>
<polygon fill="midnightblue" stroke="midnightblue" points="238.33,-592.5 248.33,-589 238.33,-585.5 238.33,-592.5"/>
</g>
<!-- Node6 -->
<g id="node6" class="node">
<title>Node6</title>
<g id="a_node6"><a xlink:href="group__p33c-osc-pral.html#ga810a57935922e0256770d958616a896e" target="_top" xlink:title="Initializes the auxiliary clock and its PLL module step by step in software. Each step is tested and ...">
<polygon fill="white" stroke="black" points="397,-655.5 397,-674.5 560,-674.5 560,-655.5 397,-655.5"/>
<text text-anchor="middle" x="478.5" y="-662.5" font-family="Helvetica,sans-Serif" font-size="10.00">p33c_OscAuxClk_DefaultInitialize</text>
</a>
</g>
</g>
<!-- Node5&#45;&gt;Node6 -->
<g id="edge5" class="edge">
<title>Node5&#45;&gt;Node6</title>
<path fill="none" stroke="midnightblue" d="M341.33,-665C355.11,-665 370.78,-665 386.45,-665"/>
<polygon fill="midnightblue" stroke="midnightblue" points="386.74,-668.5 396.74,-665 386.74,-661.5 386.74,-668.5"/>
</g>
<!-- Node7 -->
<g id="node7" class="node">
<title>Node7</title>
<g id="a_node7"><a xlink:href="group__p33c-osc-pral.html#ga800afc634cac0ccd87c0c74778f53e16" target="_top" xlink:title="Initializes the auxiliary clock and its PLL module step by step in software. Each step is tested and ...">
<polygon fill="white" stroke="black" points="605.5,-655.5 605.5,-674.5 738.5,-674.5 738.5,-655.5 605.5,-655.5"/>
<text text-anchor="middle" x="672" y="-662.5" font-family="Helvetica,sans-Serif" font-size="10.00">p33c_OscAuxClk_Initialize</text>
</a>
</g>
</g>
<!-- Node6&#45;&gt;Node7 -->
<g id="edge6" class="edge">
<title>Node6&#45;&gt;Node7</title>
<path fill="none" stroke="midnightblue" d="M560.16,-665C571.78,-665 583.71,-665 595.23,-665"/>
<polygon fill="midnightblue" stroke="midnightblue" points="595.23,-668.5 605.23,-665 595.23,-661.5 595.23,-668.5"/>
</g>
<!-- Node9 -->
<g id="node9" class="node">
<title>Node9</title>
<g id="a_node9"><a xlink:href="group__p33c-osc-pral.html#ga40b19dfe32a3ebbb784dddd1ba1b31f9" target="_top" xlink:title="Initializes the major oscillator and the PLL module step by step by using clock switching in software...">
<polygon fill="white" stroke="black" points="405.5,-617.5 405.5,-636.5 551.5,-636.5 551.5,-617.5 405.5,-617.5"/>
<text text-anchor="middle" x="478.5" y="-624.5" font-family="Helvetica,sans-Serif" font-size="10.00">p33c_OscFrc_DefaultInitialize</text>
</a>
</g>
</g>
<!-- Node8&#45;&gt;Node9 -->
<g id="edge8" class="edge">
<title>Node8&#45;&gt;Node9</title>
<path fill="none" stroke="midnightblue" d="M342.74,-627C358.71,-627 377.07,-627 395,-627"/>
<polygon fill="midnightblue" stroke="midnightblue" points="395.19,-630.5 405.19,-627 395.19,-623.5 395.19,-630.5"/>
</g>
<!-- Node10 -->
<g id="node10" class="node">
<title>Node10</title>
<g id="a_node10"><a xlink:href="group__p33c-osc-pral.html#ga61cf7c84efc865c104d5e292866131c4" target="_top" xlink:title="Initializes the major oscillator and the PLL module step by step by using clock switching in software...">
<polygon fill="white" stroke="black" points="621.5,-617.5 621.5,-636.5 722.5,-636.5 722.5,-617.5 621.5,-617.5"/>
<text text-anchor="middle" x="672" y="-624.5" font-family="Helvetica,sans-Serif" font-size="10.00">p33c_Osc_Initialize</text>
</a>
</g>
</g>
<!-- Node9&#45;&gt;Node10 -->
<g id="edge9" class="edge">
<title>Node9&#45;&gt;Node10</title>
<path fill="none" stroke="midnightblue" d="M551.63,-627C571.22,-627 592.22,-627 611.05,-627"/>
<polygon fill="midnightblue" stroke="midnightblue" points="611.27,-630.5 621.27,-627 611.27,-623.5 611.27,-630.5"/>
</g>
<!-- Node13 -->
<g id="node13" class="node">
<title>Node13</title>
<g id="a_node13"><a xlink:href="group__dac-initialization.html#gab420e63336f317e197b1cb8861561c3f" target="_top" xlink:title="DAC Module Base Register Initialization.">
<polygon fill="white" stroke="black" points="234,-541.5 234,-560.5 356,-560.5 356,-541.5 234,-541.5"/>
<text text-anchor="middle" x="295" y="-548.5" font-family="Helvetica,sans-Serif" font-size="10.00">sysDacModule_Initialize</text>
</a>
</g>
</g>
<!-- Node12&#45;&gt;Node13 -->
<g id="edge12" class="edge">
<title>Node12&#45;&gt;Node13</title>
<path fill="none" stroke="midnightblue" d="M169.64,-509.08C187.3,-516.42 209.12,-525.11 229,-532 235.49,-534.25 242.41,-536.46 249.22,-538.54"/>
<polygon fill="midnightblue" stroke="midnightblue" points="248.47,-541.97 259.06,-541.47 250.47,-535.26 248.47,-541.97"/>
</g>
<!-- Node17 -->
<g id="node17" class="node">
<title>Node17</title>
<g id="a_node17"><a xlink:href="group__dac-initialization.html#ga2f97c3082e0d6f724cea482c10c2d08f" target="_top" xlink:title=" ">
<polygon fill="white" stroke="black" points="238,-503.5 238,-522.5 352,-522.5 352,-503.5 238,-503.5"/>
<text text-anchor="middle" x="295" y="-510.5" font-family="Helvetica,sans-Serif" font-size="10.00">sysDacOutput_Enable</text>
</a>
</g>
</g>
<!-- Node12&#45;&gt;Node17 -->
<g id="edge17" class="edge">
<title>Node12&#45;&gt;Node17</title>
<path fill="none" stroke="midnightblue" d="M184.09,-499.91C197.91,-501.55 213.15,-503.37 227.76,-505.11"/>
<polygon fill="midnightblue" stroke="midnightblue" points="227.41,-508.59 237.76,-506.3 228.24,-501.64 227.41,-508.59"/>
</g>
<!-- Node19 -->
<g id="node19" class="node">
<title>Node19</title>
<g id="a_node19"><a xlink:href="group__dac-initialization.html#gab022a57f46162ce2bb840b556261133d" target="_top" xlink:title=" ">
<polygon fill="white" stroke="black" points="235.5,-465.5 235.5,-484.5 354.5,-484.5 354.5,-465.5 235.5,-465.5"/>
<text text-anchor="middle" x="295" y="-472.5" font-family="Helvetica,sans-Serif" font-size="10.00">sysDacOutput_Initialize</text>
</a>
</g>
</g>
<!-- Node12&#45;&gt;Node19 -->
<g id="edge20" class="edge">
<title>Node12&#45;&gt;Node19</title>
<path fill="none" stroke="midnightblue" d="M184.09,-488.09C197.19,-486.53 211.56,-484.82 225.47,-483.16"/>
<polygon fill="midnightblue" stroke="midnightblue" points="225.97,-486.63 235.49,-481.97 225.15,-479.68 225.97,-486.63"/>
</g>
<!-- Node22 -->
<g id="node22" class="node">
<title>Node22</title>
<g id="a_node22"><a xlink:href="group__op-amp-initialization.html#gabd454dd5908ee930957e91e5c5bf42ff" target="_top" xlink:title=" ">
<polygon fill="white" stroke="black" points="242,-427.5 242,-446.5 348,-446.5 348,-427.5 242,-427.5"/>
<text text-anchor="middle" x="295" y="-434.5" font-family="Helvetica,sans-Serif" font-size="10.00">sysOpAmp_Initialize</text>
</a>
</g>
</g>
<!-- Node12&#45;&gt;Node22 -->
<g id="edge24" class="edge">
<title>Node12&#45;&gt;Node22</title>
<path fill="none" stroke="midnightblue" d="M169.64,-478.92C187.3,-471.58 209.12,-462.89 229,-456 235.49,-453.75 242.41,-451.54 249.22,-449.46"/>
<polygon fill="midnightblue" stroke="midnightblue" points="250.47,-452.74 259.06,-446.53 248.47,-446.03 250.47,-452.74"/>
</g>
<!-- Node24 -->
<g id="node24" class="node">
<title>Node24</title>
<g id="a_node24"><a xlink:href="group__op-amp-initialization.html#ga3cd080c9a48a5d74d8b2f89fdec161da" target="_top" xlink:title="Enables the on&#45;chip operational amplifier module.">
<polygon fill="white" stroke="black" points="229,-389.5 229,-408.5 361,-408.5 361,-389.5 229,-389.5"/>
<text text-anchor="middle" x="295" y="-396.5" font-family="Helvetica,sans-Serif" font-size="10.00">sysOpAmp_ModuleEnable</text>
</a>
</g>
</g>
<!-- Node12&#45;&gt;Node24 -->
<g id="edge26" class="edge">
<title>Node12&#45;&gt;Node24</title>
<path fill="none" stroke="midnightblue" d="M149.52,-478.73C167.11,-461.65 197.83,-434.26 229,-418 233.27,-415.77 237.84,-413.77 242.5,-411.98"/>
<polygon fill="midnightblue" stroke="midnightblue" points="243.86,-415.21 252.13,-408.6 241.54,-408.61 243.86,-415.21"/>
</g>
<!-- Node14 -->
<g id="node14" class="node">
<title>Node14</title>
<g id="a_node14"><a xlink:href="group__dac.html#gaddf7b491a947c7f557b89235588c0219" target="_top" xlink:title="Writes a user&#45;defined configuration to the DAC module base registers.">
<polygon fill="white" stroke="black" points="598.5,-560.5 598.5,-579.5 745.5,-579.5 745.5,-560.5 598.5,-560.5"/>
<text text-anchor="middle" x="672" y="-567.5" font-family="Helvetica,sans-Serif" font-size="10.00">p33c_DacModule_ConfigWrite</text>
</a>
</g>
</g>
<!-- Node13&#45;&gt;Node14 -->
<g id="edge13" class="edge">
<title>Node13&#45;&gt;Node14</title>
<path fill="none" stroke="midnightblue" d="M337.03,-560.51C355.28,-564.28 377.1,-568.14 397,-570 460.96,-575.96 533.69,-575.64 588.14,-573.99"/>
<polygon fill="midnightblue" stroke="midnightblue" points="588.55,-577.48 598.43,-573.66 588.32,-570.49 588.55,-577.48"/>
</g>
<!-- Node15 -->
<g id="node15" class="node">
<title>Node15</title>
<g id="a_node15"><a xlink:href="group__dac.html#gaf0ea62728fde73f2119e47f67baf2ff0" target="_top" xlink:title="Resets all DAC Module registers to their RESET default values.">
<polygon fill="white" stroke="black" points="412.5,-541.5 412.5,-560.5 544.5,-560.5 544.5,-541.5 412.5,-541.5"/>
<text text-anchor="middle" x="478.5" y="-548.5" font-family="Helvetica,sans-Serif" font-size="10.00">p33c_DacModule_Dispose</text>
</a>
</g>
</g>
<!-- Node13&#45;&gt;Node15 -->
<g id="edge14" class="edge">
<title>Node13&#45;&gt;Node15</title>
<path fill="none" stroke="midnightblue" d="M356.18,-551C371,-551 387.04,-551 402.46,-551"/>
<polygon fill="midnightblue" stroke="midnightblue" points="402.48,-554.5 412.48,-551 402.48,-547.5 402.48,-554.5"/>
</g>
<!-- Node16 -->
<g id="node16" class="node">
<title>Node16</title>
<g id="a_node16"><a xlink:href="group__dac.html#ga72e7cdf4177d0403e8ff925314ec1bc7" target="_top" xlink:title="Gets pointer to DAC Module SFR set.">
<polygon fill="white" stroke="black" points="407,-503.5 407,-522.5 550,-522.5 550,-503.5 407,-503.5"/>
<text text-anchor="middle" x="478.5" y="-510.5" font-family="Helvetica,sans-Serif" font-size="10.00">p33c_DacModule_GetHandle</text>
</a>
</g>
</g>
<!-- Node13&#45;&gt;Node16 -->
<g id="edge16" class="edge">
<title>Node13&#45;&gt;Node16</title>
<path fill="none" stroke="midnightblue" d="M341.8,-541.41C366.18,-536.31 396.36,-529.99 422.06,-524.61"/>
<polygon fill="midnightblue" stroke="midnightblue" points="422.96,-528 432.03,-522.52 421.52,-521.14 422.96,-528"/>
</g>
<!-- Node15&#45;&gt;Node14 -->
<g id="edge15" class="edge">
<title>Node15&#45;&gt;Node14</title>
<path fill="none" stroke="midnightblue" d="M544.6,-557.46C558.61,-558.85 573.59,-560.34 588.17,-561.78"/>
<polygon fill="midnightblue" stroke="midnightblue" points="587.89,-565.27 598.18,-562.78 588.58,-558.31 587.89,-565.27"/>
</g>
<!-- Node17&#45;&gt;Node16 -->
<g id="edge19" class="edge">
<title>Node17&#45;&gt;Node16</title>
<path fill="none" stroke="midnightblue" d="M352.43,-513C366.38,-513 381.6,-513 396.47,-513"/>
<polygon fill="midnightblue" stroke="midnightblue" points="396.69,-516.5 406.69,-513 396.69,-509.5 396.69,-516.5"/>
</g>
<!-- Node18 -->
<g id="node18" class="node">
<title>Node18</title>
<g id="a_node18"><a xlink:href="group__dac.html#gae0c4b7f47cf9b4cdae91ff2e317961bf" target="_top" xlink:title="Gets pointer to DAC Instance SFR set.">
<polygon fill="white" stroke="black" points="404.5,-465.5 404.5,-484.5 552.5,-484.5 552.5,-465.5 404.5,-465.5"/>
<text text-anchor="middle" x="478.5" y="-472.5" font-family="Helvetica,sans-Serif" font-size="10.00">p33c_DacInstance_GetHandle</text>
</a>
</g>
</g>
<!-- Node17&#45;&gt;Node18 -->
<g id="edge18" class="edge">
<title>Node17&#45;&gt;Node18</title>
<path fill="none" stroke="midnightblue" d="M341.8,-503.41C366.18,-498.31 396.36,-491.99 422.06,-486.61"/>
<polygon fill="midnightblue" stroke="midnightblue" points="422.96,-490 432.03,-484.52 421.52,-483.14 422.96,-490"/>
</g>
<!-- Node19&#45;&gt;Node18 -->
<g id="edge23" class="edge">
<title>Node19&#45;&gt;Node18</title>
<path fill="none" stroke="midnightblue" d="M354.68,-475C367.3,-475 380.88,-475 394.24,-475"/>
<polygon fill="midnightblue" stroke="midnightblue" points="394.4,-478.5 404.4,-475 394.4,-471.5 394.4,-478.5"/>
</g>
<!-- Node20 -->
<g id="node20" class="node">
<title>Node20</title>
<g id="a_node20"><a xlink:href="group__dac.html#ga39037bccfba783fdd8c9a52cbe651ca4" target="_top" xlink:title="Resets all DAC Instance registers to their RESET default values.">
<polygon fill="white" stroke="black" points="410,-427.5 410,-446.5 547,-446.5 547,-427.5 410,-427.5"/>
<text text-anchor="middle" x="478.5" y="-434.5" font-family="Helvetica,sans-Serif" font-size="10.00">p33c_DacInstance_Dispose</text>
</a>
</g>
</g>
<!-- Node19&#45;&gt;Node20 -->
<g id="edge21" class="edge">
<title>Node19&#45;&gt;Node20</title>
<path fill="none" stroke="midnightblue" d="M341.8,-465.41C366.18,-460.31 396.36,-453.99 422.06,-448.61"/>
<polygon fill="midnightblue" stroke="midnightblue" points="422.96,-452 432.03,-446.52 421.52,-445.14 422.96,-452"/>
</g>
<!-- Node21 -->
<g id="node21" class="node">
<title>Node21</title>
<g id="a_node21"><a xlink:href="group__dac.html#gac471660aeec8e8329369435914c5befa" target="_top" xlink:title="Writes a user&#45;defined configuration to the DAC instance registers.">
<polygon fill="white" stroke="black" points="596,-427.5 596,-446.5 748,-446.5 748,-427.5 596,-427.5"/>
<text text-anchor="middle" x="672" y="-434.5" font-family="Helvetica,sans-Serif" font-size="10.00">p33c_DacInstance_ConfigWrite</text>
</a>
</g>
</g>
<!-- Node20&#45;&gt;Node21 -->
<g id="edge22" class="edge">
<title>Node20&#45;&gt;Node21</title>
<path fill="none" stroke="midnightblue" d="M547.02,-437C559.51,-437 572.7,-437 585.64,-437"/>
<polygon fill="midnightblue" stroke="midnightblue" points="585.94,-440.5 595.94,-437 585.94,-433.5 585.94,-440.5"/>
</g>
<!-- Node23 -->
<g id="node23" class="node">
<title>Node23</title>
<g id="a_node23"><a xlink:href="group__p33c-opa-pral.html#gabd9cfd420bfce742a354ce84fb682bcc" target="_top" xlink:title="Gets pointer to op&#45;amp Module SFR set.">
<polygon fill="white" stroke="black" points="407,-389.5 407,-408.5 550,-408.5 550,-389.5 407,-389.5"/>
<text text-anchor="middle" x="478.5" y="-396.5" font-family="Helvetica,sans-Serif" font-size="10.00">p33c_OpaModule_GetHandle</text>
</a>
</g>
</g>
<!-- Node22&#45;&gt;Node23 -->
<g id="edge25" class="edge">
<title>Node22&#45;&gt;Node23</title>
<path fill="none" stroke="midnightblue" d="M341.8,-427.41C366.18,-422.31 396.36,-415.99 422.06,-410.61"/>
<polygon fill="midnightblue" stroke="midnightblue" points="422.96,-414 432.03,-408.52 421.52,-407.14 422.96,-414"/>
</g>
<!-- Node24&#45;&gt;Node23 -->
<g id="edge27" class="edge">
<title>Node24&#45;&gt;Node23</title>
<path fill="none" stroke="midnightblue" d="M361.01,-399C372.5,-399 384.58,-399 396.45,-399"/>
<polygon fill="midnightblue" stroke="midnightblue" points="396.79,-402.5 406.79,-399 396.79,-395.5 396.79,-402.5"/>
</g>
<!-- Node26 -->
<g id="node26" class="node">
<title>Node26</title>
<g id="a_node26"><a xlink:href="group__fault-handler-functions.html#ga830e5c7087a8e5ee8ea39b7e3df94b68" target="_top" xlink:title="Initialization of user&#45;defined fault objects.">
<polygon fill="white" stroke="black" points="231.5,-275.5 231.5,-294.5 358.5,-294.5 358.5,-275.5 231.5,-275.5"/>
<text text-anchor="middle" x="295" y="-282.5" font-family="Helvetica,sans-Serif" font-size="10.00">appFaultMonitor_Initialize</text>
</a>
</g>
</g>
<!-- Node25&#45;&gt;Node26 -->
<g id="edge29" class="edge">
<title>Node25&#45;&gt;Node26</title>
<path fill="none" stroke="midnightblue" d="M171.49,-253.51C193.96,-259.28 222.85,-266.71 246.94,-272.9"/>
<polygon fill="midnightblue" stroke="midnightblue" points="246.37,-276.37 256.93,-275.47 248.12,-269.59 246.37,-276.37"/>
</g>
<!-- Node36 -->
<g id="node33" class="node">
<title>Node36</title>
<g id="a_node33"><a xlink:href="group__power-control-app-layer-public.html#ga7a4cf6371d09457539f96a74b2809ca0" target="_top" xlink:title="Calls the application layer power controller initialization.">
<polygon fill="white" stroke="black" points="230,-169.5 230,-188.5 360,-188.5 360,-169.5 230,-169.5"/>
<text text-anchor="middle" x="295" y="-176.5" font-family="Helvetica,sans-Serif" font-size="10.00">appPowerSupply_Initialize</text>
</a>
</g>
</g>
<!-- Node25&#45;&gt;Node36 -->
<g id="edge39" class="edge">
<title>Node25&#45;&gt;Node36</title>
<path fill="none" stroke="midnightblue" d="M158.03,-234.41C185.32,-223.29 230.48,-204.89 261.2,-192.37"/>
<polygon fill="midnightblue" stroke="midnightblue" points="262.69,-195.54 270.63,-188.52 260.05,-189.06 262.69,-195.54"/>
</g>
<!-- Node59 -->
<g id="node50" class="node">
<title>Node59</title>
<g id="a_node50"><a xlink:href="group__os-timer-initialization.html#ga8e89a1a4ee5bf8c794bd29163b92bf49" target="_top" xlink:title="Initializes the timer used as timebase for the task scheduler.">
<polygon fill="white" stroke="black" points="240,-131.5 240,-150.5 350,-150.5 350,-131.5 240,-131.5"/>
<text text-anchor="middle" x="295" y="-138.5" font-family="Helvetica,sans-Serif" font-size="10.00">sysOsTimer_Initialize</text>
</a>
</g>
</g>
<!-- Node25&#45;&gt;Node59 -->
<g id="edge56" class="edge">
<title>Node25&#45;&gt;Node59</title>
<path fill="none" stroke="midnightblue" d="M142.59,-234.43C157.77,-217.07 192.32,-180.3 229,-160 232.98,-157.79 237.25,-155.82 241.62,-154.06"/>
<polygon fill="midnightblue" stroke="midnightblue" points="243.1,-157.25 251.3,-150.54 240.7,-150.67 243.1,-157.25"/>
</g>
<!-- Node27 -->
<g id="node27" class="node">
<title>Node27</title>
<g id="a_node27"><a xlink:href="group__fault-handler-functions.html#ga54f9db91ea0782b08aa16ee77a57c5e5" target="_top" xlink:title="Initializes the user&#45;defined fault objects for overcurrent protection.">
<polygon fill="white" stroke="black" points="431,-351.5 431,-370.5 526,-370.5 526,-351.5 431,-351.5"/>
<text text-anchor="middle" x="478.5" y="-358.5" font-family="Helvetica,sans-Serif" font-size="10.00">ocp_FaultInitialize</text>
</a>
</g>
</g>
<!-- Node26&#45;&gt;Node27 -->
<g id="edge30" class="edge">
<title>Node26&#45;&gt;Node27</title>
<path fill="none" stroke="midnightblue" d="M310.08,-294.65C329.04,-307.24 364.18,-329.17 397,-342 404.61,-344.97 412.81,-347.57 420.96,-349.8"/>
<polygon fill="midnightblue" stroke="midnightblue" points="420.28,-353.24 430.84,-352.34 422.03,-346.46 420.28,-353.24"/>
</g>
<!-- Node33 -->
<g id="node30" class="node">
<title>Node33</title>
<g id="a_node30"><a xlink:href="group__fault-handler-functions.html#gade437244e8f6e5ff7c57a73442063350" target="_top" xlink:title="Initializes the user&#45;defined fault objects for overvoltage lockout.">
<polygon fill="white" stroke="black" points="431,-313.5 431,-332.5 526,-332.5 526,-313.5 431,-313.5"/>
<text text-anchor="middle" x="478.5" y="-320.5" font-family="Helvetica,sans-Serif" font-size="10.00">ovlo_FaultInitialize</text>
</a>
</g>
</g>
<!-- Node26&#45;&gt;Node33 -->
<g id="edge33" class="edge">
<title>Node26&#45;&gt;Node33</title>
<path fill="none" stroke="midnightblue" d="M341.8,-294.59C366.18,-299.69 396.36,-306.01 422.06,-311.39"/>
<polygon fill="midnightblue" stroke="midnightblue" points="421.52,-314.86 432.03,-313.48 422.96,-308 421.52,-314.86"/>
</g>
<!-- Node34 -->
<g id="node31" class="node">
<title>Node34</title>
<g id="a_node31"><a xlink:href="group__fault-handler-functions.html#ga82dc317e3adac0308e5ac3f5ad321605" target="_top" xlink:title="Initializes the user&#45;defined fault objects for regulation error.">
<polygon fill="white" stroke="black" points="426.5,-275.5 426.5,-294.5 530.5,-294.5 530.5,-275.5 426.5,-275.5"/>
<text text-anchor="middle" x="478.5" y="-282.5" font-family="Helvetica,sans-Serif" font-size="10.00">regerr_FaultInitialize</text>
</a>
</g>
</g>
<!-- Node26&#45;&gt;Node34 -->
<g id="edge35" class="edge">
<title>Node26&#45;&gt;Node34</title>
<path fill="none" stroke="midnightblue" d="M358.72,-285C377.39,-285 397.82,-285 416.39,-285"/>
<polygon fill="midnightblue" stroke="midnightblue" points="416.49,-288.5 426.49,-285 416.49,-281.5 416.49,-288.5"/>
</g>
<!-- Node35 -->
<g id="node32" class="node">
<title>Node35</title>
<g id="a_node32"><a xlink:href="group__fault-handler-functions.html#ga9441220f8a7d4a6805467d04b734e6b5" target="_top" xlink:title="Initializes the user&#45;defined fault objects for under&#45;voltage lockout.">
<polygon fill="white" stroke="black" points="431,-237.5 431,-256.5 526,-256.5 526,-237.5 431,-237.5"/>
<text text-anchor="middle" x="478.5" y="-244.5" font-family="Helvetica,sans-Serif" font-size="10.00">uvlo_FaultInitialize</text>
</a>
</g>
</g>
<!-- Node26&#45;&gt;Node35 -->
<g id="edge37" class="edge">
<title>Node26&#45;&gt;Node35</title>
<path fill="none" stroke="midnightblue" d="M341.8,-275.41C366.18,-270.31 396.36,-263.99 422.06,-258.61"/>
<polygon fill="midnightblue" stroke="midnightblue" points="422.96,-262 432.03,-256.52 421.52,-255.14 422.96,-262"/>
</g>
<!-- Node28 -->
<g id="node28" class="node">
<title>Node28</title>
<g id="a_node28"><a xlink:href="group__power-control-app-layer-public.html#gafa4e90d260e60cf20f06acee067c39cd" target="_top" xlink:title=" ">
<polygon fill="white" stroke="black" points="605.5,-299.5 605.5,-318.5 738.5,-318.5 738.5,-299.5 605.5,-299.5"/>
<text text-anchor="middle" x="672" y="-306.5" font-family="Helvetica,sans-Serif" font-size="10.00">appPowerSupply_Suspend</text>
</a>
</g>
</g>
<!-- Node27&#45;&gt;Node28 -->
<g id="edge31" class="edge">
<title>Node27&#45;&gt;Node28</title>
<path fill="none" stroke="midnightblue" d="M521.81,-351.49C534.16,-348.59 547.65,-345.29 560,-342 583.65,-335.7 609.9,-327.93 630.94,-321.51"/>
<polygon fill="midnightblue" stroke="midnightblue" points="631.97,-324.86 640.51,-318.58 629.92,-318.16 631.97,-324.86"/>
</g>
<!-- Node29 -->
<g id="node29" class="node">
<title>Node29</title>
<g id="a_node29"><a xlink:href="group__power-handler-functions.html#ga3287d86e7c3eecaa97d4bdf590ed0a15" target="_top" xlink:title=" ">
<polygon fill="white" stroke="red" points="784,-299.5 784,-318.5 924,-318.5 924,-299.5 784,-299.5"/>
<text text-anchor="middle" x="854" y="-306.5" font-family="Helvetica,sans-Serif" font-size="10.00">drv_BuckConverter_Suspend</text>
</a>
</g>
</g>
<!-- Node28&#45;&gt;Node29 -->
<g id="edge32" class="edge">
<title>Node28&#45;&gt;Node29</title>
<path fill="none" stroke="midnightblue" d="M738.75,-309C750.09,-309 761.98,-309 773.64,-309"/>
<polygon fill="midnightblue" stroke="midnightblue" points="773.8,-312.5 783.8,-309 773.8,-305.5 773.8,-312.5"/>
</g>
<!-- Node33&#45;&gt;Node28 -->
<g id="edge34" class="edge">
<title>Node33&#45;&gt;Node28</title>
<path fill="none" stroke="midnightblue" d="M526.35,-319.58C547.08,-318.06 572.01,-316.24 595.28,-314.54"/>
<polygon fill="midnightblue" stroke="midnightblue" points="595.76,-318.01 605.48,-313.79 595.25,-311.03 595.76,-318.01"/>
</g>
<!-- Node34&#45;&gt;Node28 -->
<g id="edge36" class="edge">
<title>Node34&#45;&gt;Node28</title>
<path fill="none" stroke="midnightblue" d="M530.57,-291.4C550.37,-293.88 573.45,-296.77 595.12,-299.49"/>
<polygon fill="midnightblue" stroke="midnightblue" points="594.93,-302.99 605.29,-300.76 595.8,-296.05 594.93,-302.99"/>
</g>
<!-- Node35&#45;&gt;Node28 -->
<g id="edge38" class="edge">
<title>Node35&#45;&gt;Node28</title>
<path fill="none" stroke="midnightblue" d="M524.93,-256.57C536.45,-259.31 548.75,-262.51 560,-266 587.22,-274.44 617.32,-286.26 639.3,-295.38"/>
<polygon fill="midnightblue" stroke="midnightblue" points="638.21,-298.71 648.79,-299.35 640.91,-292.26 638.21,-298.71"/>
</g>
<!-- Node37 -->
<g id="node34" class="node">
<title>Node37</title>
<g id="a_node34"><a xlink:href="group__power-control-app-layer-private.html#ga0b4cabdb02c8c9ea94ea1dfa39de3764" target="_top" xlink:title="This function initializes the control system feedback loop objects.">
<polygon fill="white" stroke="black" points="410.5,-188 410.5,-218 546.5,-218 546.5,-188 410.5,-188"/>
<text text-anchor="start" x="418.5" y="-206" font-family="Helvetica,sans-Serif" font-size="10.00">appPowerSupply_Controller</text>
<text text-anchor="middle" x="478.5" y="-195" font-family="Helvetica,sans-Serif" font-size="10.00">Initialize</text>
</a>
</g>
</g>
<!-- Node36&#45;&gt;Node37 -->
<g id="edge40" class="edge">
<title>Node36&#45;&gt;Node37</title>
<path fill="none" stroke="midnightblue" d="M360.25,-187.5C373.17,-189.2 386.87,-191.02 400.18,-192.78"/>
<polygon fill="midnightblue" stroke="midnightblue" points="399.9,-196.27 410.27,-194.11 400.81,-189.33 399.9,-196.27"/>
</g>
<!-- Node38 -->
<g id="node35" class="node">
<title>Node38</title>
<g id="a_node35"><a xlink:href="group__power-control-app-layer-private.html#gad0f6ff4894bf23722884c60bbcdcacd0" target="_top" xlink:title="This function initializes the buck converter device driver instance.">
<polygon fill="white" stroke="black" points="411,-139 411,-169 546,-169 546,-139 411,-139"/>
<text text-anchor="start" x="419" y="-157" font-family="Helvetica,sans-Serif" font-size="10.00">appPowerSupply_Converter</text>
<text text-anchor="middle" x="478.5" y="-146" font-family="Helvetica,sans-Serif" font-size="10.00">ObjectInitialize</text>
</a>
</g>
</g>
<!-- Node36&#45;&gt;Node38 -->
<g id="edge41" class="edge">
<title>Node36&#45;&gt;Node38</title>
<path fill="none" stroke="midnightblue" d="M360.25,-170.15C373.33,-168.35 387.22,-166.44 400.69,-164.58"/>
<polygon fill="midnightblue" stroke="midnightblue" points="401.46,-168.01 410.88,-163.18 400.5,-161.07 401.46,-168.01"/>
</g>
<!-- Node39 -->
<g id="node36" class="node">
<title>Node39</title>
<g id="a_node36"><a xlink:href="group__power-control-app-layer-private.html#ga0b26acfec74d1804384b4ba1a3cffab4" target="_top" xlink:title="This function is used to load peripheral configuration templates from the power controller device dri...">
<polygon fill="white" stroke="black" points="407,-90 407,-120 550,-120 550,-90 407,-90"/>
<text text-anchor="start" x="415" y="-108" font-family="Helvetica,sans-Serif" font-size="10.00">appPowerSupply_Peripherals</text>
<text text-anchor="middle" x="478.5" y="-97" font-family="Helvetica,sans-Serif" font-size="10.00">Initialize</text>
</a>
</g>
</g>
<!-- Node36&#45;&gt;Node39 -->
<g id="edge42" class="edge">
<title>Node36&#45;&gt;Node39</title>
<path fill="none" stroke="midnightblue" d="M338.26,-169.39C346.05,-166.86 353.94,-163.76 361,-160 379.38,-150.21 378.7,-139.95 397,-130 401.01,-127.82 405.25,-125.8 409.58,-123.93"/>
<polygon fill="midnightblue" stroke="midnightblue" points="411.22,-127.04 419.2,-120.08 408.62,-120.55 411.22,-127.04"/>
</g>
<!-- Node55 -->
<g id="node46" class="node">
<title>Node55</title>
<g id="a_node46"><a xlink:href="group__power-control-app-layer-public.html#ga9210070749c2ed49abd8a30b27f64151" target="_top" xlink:title="This function calls the buck converter device driver function starting the power supply.">
<polygon fill="white" stroke="black" points="420.5,-35.5 420.5,-54.5 536.5,-54.5 536.5,-35.5 420.5,-35.5"/>
<text text-anchor="middle" x="478.5" y="-42.5" font-family="Helvetica,sans-Serif" font-size="10.00">appPowerSupply_Start</text>
</a>
</g>
</g>
<!-- Node36&#45;&gt;Node55 -->
<g id="edge52" class="edge">
<title>Node36&#45;&gt;Node55</title>
<path fill="none" stroke="midnightblue" d="M345.92,-169.39C351.38,-166.94 356.57,-163.86 361,-160 390.41,-134.4 369.26,-107.39 397,-80 406.59,-70.53 419.17,-63.42 431.52,-58.18"/>
<polygon fill="midnightblue" stroke="midnightblue" points="432.82,-61.43 440.86,-54.53 430.28,-54.91 432.82,-61.43"/>
</g>
<!-- Node40 -->
<g id="node37" class="node">
<title>Node40</title>
<g id="a_node37"><a xlink:href="group__power-handler-functions.html#ga97eb8bdd17b9c2e169f0634ebabb5d19" target="_top" xlink:title="This function initializes all peripheral modules and their instances used by the power controller.">
<polygon fill="white" stroke="black" points="603.5,-171.5 603.5,-190.5 740.5,-190.5 740.5,-171.5 603.5,-171.5"/>
<text text-anchor="middle" x="672" y="-178.5" font-family="Helvetica,sans-Serif" font-size="10.00">drv_BuckConverter_Initialize</text>
</a>
</g>
</g>
<!-- Node39&#45;&gt;Node40 -->
<g id="edge43" class="edge">
<title>Node39&#45;&gt;Node40</title>
<path fill="none" stroke="midnightblue" d="M538.34,-120.04C545.84,-122.88 553.25,-126.19 560,-130 578.64,-140.52 577.09,-151.97 596,-162 600.3,-164.28 604.88,-166.29 609.58,-168.07"/>
<polygon fill="midnightblue" stroke="midnightblue" points="608.75,-171.49 619.35,-171.4 611.01,-164.86 608.75,-171.49"/>
</g>
<!-- Node52 -->
<g id="node43" class="node">
<title>Node52</title>
<g id="a_node43"><a xlink:href="group__pps.html#ga46aebc06e62c1484f9e95190711067dd" target="_top" xlink:title="Locks the Peripheral Pin Select Configuration registers against accidental changes.">
<polygon fill="white" stroke="black" points="635.5,-133.5 635.5,-152.5 708.5,-152.5 708.5,-133.5 635.5,-133.5"/>
<text text-anchor="middle" x="672" y="-140.5" font-family="Helvetica,sans-Serif" font-size="10.00">PPS_LockIO</text>
</a>
</g>
</g>
<!-- Node39&#45;&gt;Node52 -->
<g id="edge49" class="edge">
<title>Node39&#45;&gt;Node52</title>
<path fill="none" stroke="midnightblue" d="M550.26,-119.04C575.39,-124.03 603,-129.51 625.46,-133.96"/>
<polygon fill="midnightblue" stroke="midnightblue" points="624.9,-137.42 635.39,-135.93 626.26,-130.55 624.9,-137.42"/>
</g>
<!-- Node53 -->
<g id="node44" class="node">
<title>Node53</title>
<g id="a_node44"><a xlink:href="group__pps.html#ga1ac2bc53484e4e452fd3b4c027037ebf" target="_top" xlink:title="Assigns a digital function output to a pin.">
<polygon fill="white" stroke="black" points="621,-95.5 621,-114.5 723,-114.5 723,-95.5 621,-95.5"/>
<text text-anchor="middle" x="672" y="-102.5" font-family="Helvetica,sans-Serif" font-size="10.00">PPS_RemapOutput</text>
</a>
</g>
</g>
<!-- Node39&#45;&gt;Node53 -->
<g id="edge50" class="edge">
<title>Node39&#45;&gt;Node53</title>
<path fill="none" stroke="midnightblue" d="M550.26,-105C570.13,-105 591.54,-105 610.74,-105"/>
<polygon fill="midnightblue" stroke="midnightblue" points="610.85,-108.5 620.85,-105 610.85,-101.5 610.85,-108.5"/>
</g>
<!-- Node54 -->
<g id="node45" class="node">
<title>Node54</title>
<g id="a_node45"><a xlink:href="group__pps.html#ga3fa51d1be870c73331607df4455a30f8" target="_top" xlink:title="Unlocks the Peripheral Pin Select Configuration registers to enable changes.">
<polygon fill="white" stroke="black" points="631,-57.5 631,-76.5 713,-76.5 713,-57.5 631,-57.5"/>
<text text-anchor="middle" x="672" y="-64.5" font-family="Helvetica,sans-Serif" font-size="10.00">PPS_UnlockIO</text>
</a>
</g>
</g>
<!-- Node39&#45;&gt;Node54 -->
<g id="edge51" class="edge">
<title>Node39&#45;&gt;Node54</title>
<path fill="none" stroke="midnightblue" d="M550.26,-90.96C573.72,-86.3 599.32,-81.22 620.89,-76.94"/>
<polygon fill="midnightblue" stroke="midnightblue" points="621.69,-80.35 630.81,-74.97 620.32,-73.49 621.69,-80.35"/>
</g>
<!-- Node41 -->
<g id="node38" class="node">
<title>Node41</title>
<g id="a_node38"><a xlink:href="group__power-handler-functions.html#gab889ae485e95010864ca04500457861a" target="_top" xlink:title=" ">
<polygon fill="white" stroke="black" points="787,-247.5 787,-266.5 921,-266.5 921,-247.5 787,-247.5"/>
<text text-anchor="middle" x="854" y="-254.5" font-family="Helvetica,sans-Serif" font-size="10.00">buckADC_ChannelInitialize</text>
</a>
</g>
</g>
<!-- Node40&#45;&gt;Node41 -->
<g id="edge44" class="edge">
<title>Node40&#45;&gt;Node41</title>
<path fill="none" stroke="midnightblue" d="M689.06,-190.59C710.22,-202.9 748.88,-224.31 784,-238 790,-240.34 796.4,-242.51 802.79,-244.48"/>
<polygon fill="midnightblue" stroke="midnightblue" points="802.19,-247.96 812.77,-247.42 804.17,-241.24 802.19,-247.96"/>
</g>
<!-- Node42 -->
<g id="node39" class="node">
<title>Node42</title>
<g id="a_node39"><a xlink:href="group__power-handler-functions.html#ga086bc1e4304b2ce7a435bf2a9799d078" target="_top" xlink:title=" ">
<polygon fill="white" stroke="black" points="789,-209.5 789,-228.5 919,-228.5 919,-209.5 789,-209.5"/>
<text text-anchor="middle" x="854" y="-216.5" font-family="Helvetica,sans-Serif" font-size="10.00">buckADC_ModuleInitialize</text>
</a>
</g>
</g>
<!-- Node40&#45;&gt;Node42 -->
<g id="edge45" class="edge">
<title>Node40&#45;&gt;Node42</title>
<path fill="none" stroke="midnightblue" d="M718.42,-190.59C742.6,-195.69 772.53,-202.01 798.01,-207.39"/>
<polygon fill="midnightblue" stroke="midnightblue" points="797.4,-210.84 807.91,-209.48 798.84,-203.99 797.4,-210.84"/>
</g>
<!-- Node43 -->
<g id="node40" class="node">
<title>Node43</title>
<g id="a_node40"><a xlink:href="group__power-handler-functions.html#ga984f623275f9e1da2e11be2e9ff8221c" target="_top" xlink:title=" ">
<polygon fill="white" stroke="red" points="803,-171.5 803,-190.5 905,-190.5 905,-171.5 803,-171.5"/>
<text text-anchor="middle" x="854" y="-178.5" font-family="Helvetica,sans-Serif" font-size="10.00">buckGPIO_Initialize</text>
</a>
</g>
</g>
<!-- Node40&#45;&gt;Node43 -->
<g id="edge46" class="edge">
<title>Node40&#45;&gt;Node43</title>
<path fill="none" stroke="midnightblue" d="M740.54,-181C757.64,-181 775.89,-181 792.62,-181"/>
<polygon fill="midnightblue" stroke="midnightblue" points="792.8,-184.5 802.8,-181 792.8,-177.5 792.8,-184.5"/>
</g>
<!-- Node46 -->
<g id="node41" class="node">
<title>Node46</title>
<g id="a_node41"><a xlink:href="group__power-handler-functions.html#ga283487111ea685224a2caf350540daad" target="_top" xlink:title=" ">
<polygon fill="white" stroke="red" points="785,-133.5 785,-152.5 923,-152.5 923,-133.5 785,-133.5"/>
<text text-anchor="middle" x="854" y="-140.5" font-family="Helvetica,sans-Serif" font-size="10.00">buckPWM_ChannelInitialize</text>
</a>
</g>
</g>
<!-- Node40&#45;&gt;Node46 -->
<g id="edge47" class="edge">
<title>Node40&#45;&gt;Node46</title>
<path fill="none" stroke="midnightblue" d="M718.42,-171.41C742.6,-166.31 772.53,-159.99 798.01,-154.61"/>
<polygon fill="midnightblue" stroke="midnightblue" points="798.84,-158.01 807.91,-152.52 797.4,-151.16 798.84,-158.01"/>
</g>
<!-- Node49 -->
<g id="node42" class="node">
<title>Node49</title>
<g id="a_node42"><a xlink:href="group__power-handler-functions.html#ga1dedc10502a96efea6da9207f3416219" target="_top" xlink:title=" ">
<polygon fill="white" stroke="red" points="787,-95.5 787,-114.5 921,-114.5 921,-95.5 787,-95.5"/>
<text text-anchor="middle" x="854" y="-102.5" font-family="Helvetica,sans-Serif" font-size="10.00">buckPWM_ModuleInitialize</text>
</a>
</g>
</g>
<!-- Node40&#45;&gt;Node49 -->
<g id="edge48" class="edge">
<title>Node40&#45;&gt;Node49</title>
<path fill="none" stroke="midnightblue" d="M726.53,-171.43C734.01,-168.96 741.4,-165.87 748,-162 768.07,-150.23 764.05,-135.97 784,-124 787.6,-121.84 791.44,-119.92 795.41,-118.22"/>
<polygon fill="midnightblue" stroke="midnightblue" points="796.75,-121.45 804.83,-114.61 794.24,-114.92 796.75,-121.45"/>
</g>
<!-- Node56 -->
<g id="node47" class="node">
<title>Node56</title>
<g id="a_node47"><a xlink:href="group__power-handler-functions.html#ga8c05ea0ee077172e4025d8b7a36f5c9f" target="_top" xlink:title=" ">
<polygon fill="white" stroke="black" points="610.5,-19.5 610.5,-38.5 733.5,-38.5 733.5,-19.5 610.5,-19.5"/>
<text text-anchor="middle" x="672" y="-26.5" font-family="Helvetica,sans-Serif" font-size="10.00">drv_BuckConverter_Start</text>
</a>
</g>
</g>
<!-- Node55&#45;&gt;Node56 -->
<g id="edge53" class="edge">
<title>Node55&#45;&gt;Node56</title>
<path fill="none" stroke="midnightblue" d="M536.7,-40.22C556.68,-38.55 579.36,-36.66 600.31,-34.91"/>
<polygon fill="midnightblue" stroke="midnightblue" points="600.76,-38.38 610.44,-34.06 600.18,-31.4 600.76,-38.38"/>
</g>
<!-- Node57 -->
<g id="node48" class="node">
<title>Node57</title>
<g id="a_node48"><a xlink:href="group__power-handler-functions.html#gae12da3618a5d9e82920992df80b67b47" target="_top" xlink:title=" ">
<polygon fill="white" stroke="black" points="812,-38.5 812,-57.5 896,-57.5 896,-38.5 812,-38.5"/>
<text text-anchor="middle" x="854" y="-45.5" font-family="Helvetica,sans-Serif" font-size="10.00">buckADC_Start</text>
</a>
</g>
</g>
<!-- Node56&#45;&gt;Node57 -->
<g id="edge54" class="edge">
<title>Node56&#45;&gt;Node57</title>
<path fill="none" stroke="midnightblue" d="M733.69,-35.41C755.79,-37.74 780.54,-40.35 801.75,-42.59"/>
<polygon fill="midnightblue" stroke="midnightblue" points="801.53,-46.09 811.84,-43.66 802.27,-39.13 801.53,-46.09"/>
</g>
<!-- Node58 -->
<g id="node49" class="node">
<title>Node58</title>
<g id="a_node49"><a xlink:href="group__power-handler-functions.html#gae6c3c54562df6c9d941bab2bc98b2bf2" target="_top" xlink:title=" ">
<polygon fill="white" stroke="red" points="809.5,-0.5 809.5,-19.5 898.5,-19.5 898.5,-0.5 809.5,-0.5"/>
<text text-anchor="middle" x="854" y="-7.5" font-family="Helvetica,sans-Serif" font-size="10.00">buckPWM_Start</text>
</a>
</g>
</g>
<!-- Node56&#45;&gt;Node58 -->
<g id="edge55" class="edge">
<title>Node56&#45;&gt;Node58</title>
<path fill="none" stroke="midnightblue" d="M733.69,-22.59C754.91,-20.35 778.56,-17.86 799.18,-15.68"/>
<polygon fill="midnightblue" stroke="midnightblue" points="799.76,-19.14 809.34,-14.61 799.03,-12.18 799.76,-19.14"/>
</g>
</g>
</svg>
        <g id="navigator" transform="translate(0 0)" fill="#404254">
                <rect fill="#f2f5e9" fill-opacity="0.5" stroke="#606060" stroke-width=".5" x="0" y="0" width="60" height="60"/>
                <use id="zoomplus" xlink:href="#zoomPlus" x="17" y="9" onmousedown="handleZoom(evt,'in')"/>
                <use id="zoomminus" xlink:href="#zoomMin" x="42" y="9" onmousedown="handleZoom(evt,'out')"/>
                <use id="reset" xlink:href="#resetDef" x="30" y="36" onmousedown="handleReset()"/>
                <g id="arrowUp" xlink:href="#dirArrow" transform="translate(30 24)" onmousedown="handlePan(0,-1)">
                  <use xlink:href="#rim" fill="#404040">
                        <set attributeName="fill" to="#808080" begin="arrowUp.mouseover" end="arrowUp.mouseout"/>
                  </use>
                  <path fill="none" stroke="white" stroke-width="1.5" d="M0,-3.0v7 M-2.5,-0.5L0,-3.0L2.5,-0.5"/>
                </g>
                <g id="arrowRight" xlink:href="#dirArrow" transform="rotate(90) translate(36 -43)" onmousedown="handlePan(1,0)">
                  <use xlink:href="#rim" fill="#404040">
                        <set attributeName="fill" to="#808080" begin="arrowRight.mouseover" end="arrowRight.mouseout"/>
                  </use>
                  <path fill="none" stroke="white" stroke-width="1.5" d="M0,-3.0v7 M-2.5,-0.5L0,-3.0L2.5,-0.5"/>
                </g>
                <g id="arrowDown" xlink:href="#dirArrow" transform="rotate(180) translate(-30 -48)" onmousedown="handlePan(0,1)">
                  <use xlink:href="#rim" fill="#404040">
                        <set attributeName="fill" to="#808080" begin="arrowDown.mouseover" end="arrowDown.mouseout"/>
                  </use>
                  <path fill="none" stroke="white" stroke-width="1.5" d="M0,-3.0v7 M-2.5,-0.5L0,-3.0L2.5,-0.5"/>
                </g>
                <g id="arrowLeft" xlink:href="#dirArrow" transform="rotate(270) translate(-36 17)" onmousedown="handlePan(-1,0)">
                  <use xlink:href="#rim" fill="#404040">
                        <set attributeName="fill" to="#808080" begin="arrowLeft.mouseover" end="arrowLeft.mouseout"/>
                  </use>
                  <path fill="none" stroke="white" stroke-width="1.5" d="M0,-3.0v7 M-2.5,-0.5L0,-3.0L2.5,-0.5"/>
                </g>
        </g>
        <svg viewBox="0 0 15 15" width="100%" height="30px" preserveAspectRatio="xMaxYMin meet">
         <g id="arrow_out" transform="scale(0.3 0.3)">
          <a xlink:href="group__firmware-flow_ga840291bc02cba5474a4cb46a9b9566fe_cgraph_org.svg" target="_base">
           <rect id="button" ry="5" rx="5" y="6" x="6" height="38" width="38"
                fill="#f2f5e9" fill-opacity="0.5" stroke="#606060" stroke-width="1.0"/>
           <path id="arrow"
             d="M 11.500037,31.436501 C 11.940474,20.09759 22.043105,11.32322 32.158766,21.979434 L 37.068811,17.246167 C 37.068811,17.246167 37.088388,32 37.088388,32 L 22.160133,31.978069 C 22.160133,31.978069 26.997745,27.140456 26.997745,27.140456 C 18.528582,18.264221 13.291696,25.230495 11.500037,31.436501 z"
             style="fill:#404040;"/>
          </a>
         </g>
        </svg>
</svg>
