<?xml version="1.0" encoding="UTF-8" standalone="no"?>
<!DOCTYPE svg PUBLIC "-//W3C//DTD SVG 1.1//EN"
 "http://www.w3.org/Graphics/SVG/1.1/DTD/svg11.dtd">
<!-- Generated by graphviz version 2.44.1 (20200629.0846)
 -->
<!-- Title: sysDacOutput_Initialize Pages: 1 -->
<svg width="499pt" height="66pt"
 viewBox="0.00 0.00 499.00 66.00" xmlns="http://www.w3.org/2000/svg" xmlns:xlink="http://www.w3.org/1999/xlink">
<g id="graph0" class="graph" transform="scale(1 1) rotate(0) translate(4 62)">
<title>sysDacOutput_Initialize</title>
<polygon fill="white" stroke="transparent" points="-4,4 -4,-62 495,-62 495,4 -4,4"/>
<!-- Node1 -->
<g id="node1" class="node">
<title>Node1</title>
<g id="a_node1"><a xlink:title=" ">
<polygon fill="#bfbfbf" stroke="black" points="0,-19.5 0,-38.5 119,-38.5 119,-19.5 0,-19.5"/>
<text text-anchor="middle" x="59.5" y="-26.5" font-family="Helvetica,sans-Serif" font-size="10.00">sysDacOutput_Initialize</text>
</a>
</g>
</g>
<!-- Node2 -->
<g id="node2" class="node">
<title>Node2</title>
<g id="a_node2"><a xlink:href="group__lib-layer-pral-functions-public-dac_ga8c5d9f59e23cfa8fae4f67019e38f48a.html#ga8c5d9f59e23cfa8fae4f67019e38f48a" target="_top" xlink:title="Resets all DAC Instance registers to their RESET default values.">
<polygon fill="white" stroke="black" points="160.5,-38.5 160.5,-57.5 297.5,-57.5 297.5,-38.5 160.5,-38.5"/>
<text text-anchor="middle" x="229" y="-45.5" font-family="Helvetica,sans-Serif" font-size="10.00">p33c_DacInstance_Dispose</text>
</a>
</g>
</g>
<!-- Node1&#45;&gt;Node2 -->
<g id="edge1" class="edge">
<title>Node1&#45;&gt;Node2</title>
<path fill="none" stroke="midnightblue" d="M119.08,-35.65C129.16,-36.79 139.78,-37.99 150.27,-39.18"/>
<polygon fill="midnightblue" stroke="midnightblue" points="149.94,-42.67 160.27,-40.32 150.73,-35.71 149.94,-42.67"/>
</g>
<!-- Node4 -->
<g id="node4" class="node">
<title>Node4</title>
<g id="a_node4"><a xlink:href="group__lib-layer-pral-functions-public-dac_gaa9d8777696f0891e9001213e981df7c5.html#gaa9d8777696f0891e9001213e981df7c5" target="_top" xlink:title="Gets pointer to DAC Instance SFR set.">
<polygon fill="white" stroke="black" points="155,-0.5 155,-19.5 303,-19.5 303,-0.5 155,-0.5"/>
<text text-anchor="middle" x="229" y="-7.5" font-family="Helvetica,sans-Serif" font-size="10.00">p33c_DacInstance_GetHandle</text>
</a>
</g>
</g>
<!-- Node1&#45;&gt;Node4 -->
<g id="edge3" class="edge">
<title>Node1&#45;&gt;Node4</title>
<path fill="none" stroke="midnightblue" d="M119.08,-22.35C127.36,-21.42 135.99,-20.44 144.62,-19.46"/>
<polygon fill="midnightblue" stroke="midnightblue" points="145.18,-22.92 154.72,-18.31 144.39,-15.96 145.18,-22.92"/>
</g>
<!-- Node3 -->
<g id="node3" class="node">
<title>Node3</title>
<g id="a_node3"><a xlink:href="group__lib-layer-pral-functions-public-dac_gab54676266694c12b2728388b9c7e3f67.html#gab54676266694c12b2728388b9c7e3f67" target="_top" xlink:title="Writes a user&#45;defined configuration to the DAC instance registers.">
<polygon fill="white" stroke="black" points="339,-38.5 339,-57.5 491,-57.5 491,-38.5 339,-38.5"/>
<text text-anchor="middle" x="415" y="-45.5" font-family="Helvetica,sans-Serif" font-size="10.00">p33c_DacInstance_ConfigWrite</text>
</a>
</g>
</g>
<!-- Node2&#45;&gt;Node3 -->
<g id="edge2" class="edge">
<title>Node2&#45;&gt;Node3</title>
<path fill="none" stroke="midnightblue" d="M297.73,-48C307.8,-48 318.28,-48 328.66,-48"/>
<polygon fill="midnightblue" stroke="midnightblue" points="328.97,-51.5 338.97,-48 328.97,-44.5 328.97,-51.5"/>
</g>
</g>
</svg>
