<?xml version="1.0" encoding="UTF-8" standalone="no"?>
<!DOCTYPE svg PUBLIC "-//W3C//DTD SVG 1.1//EN"
 "http://www.w3.org/Graphics/SVG/1.1/DTD/svg11.dtd">
<!-- Generated by graphviz version 2.44.1 (20200629.0846)
 -->
<!-- Title: Power Control Application Layer Pages: 1 -->
<svg width="381pt" height="175pt"
 viewBox="0.00 0.00 381.00 175.00" xmlns="http://www.w3.org/2000/svg" xmlns:xlink="http://www.w3.org/1999/xlink">
<g id="graph0" class="graph" transform="scale(1 1) rotate(0) translate(4 171)">
<title>Power Control Application Layer</title>
<polygon fill="white" stroke="transparent" points="-4,4 -4,-171 377,-171 377,4 -4,4"/>
<!-- Node1 -->
<g id="node1" class="node">
<title>Node1</title>
<g id="a_node1"><a xlink:title=" ">
<polygon fill="#bfbfbf" stroke="black" points="229,-98.5 101,-98.5 101,-68.5 229,-68.5 229,-98.5"/>
<text text-anchor="start" x="109" y="-86.5" font-family="Helvetica,sans-Serif" font-size="10.00">Power Control Application</text>
<text text-anchor="middle" x="165" y="-75.5" font-family="Helvetica,sans-Serif" font-size="10.00"> Layer</text>
</a>
</g>
</g>
<!-- Node3 -->
<g id="node2" class="node">
<title>Node3</title>
<g id="a_node2"><a xlink:href="group__app-layer-power-control-functions-public.html" target="_top" xlink:title="Public functions of the application layer of the power control task.">
<polygon fill="white" stroke="black" points="363.5,-167 274.5,-167 274.5,-148 363.5,-148 363.5,-167"/>
<text text-anchor="middle" x="319" y="-155" font-family="Helvetica,sans-Serif" font-size="10.00">Public Functions</text>
</a>
</g>
</g>
<!-- Node1&#45;&gt;Node3 -->
<g id="edge2" class="edge">
<title>Node1&#45;&gt;Node3</title>
<path fill="none" stroke="black" d="M198.3,-103.81C217.27,-115.22 241.97,-129.19 265,-139.5 271.92,-142.6 279.54,-145.48 286.8,-147.99"/>
<polygon fill="black" stroke="black" points="200.11,-100.82 189.75,-98.61 196.48,-106.8 200.11,-100.82"/>
</g>
<!-- Node4 -->
<g id="node3" class="node">
<title>Node4</title>
<g id="a_node3"><a xlink:href="group__app-layer-power-control-properties-public.html" target="_top" xlink:title="Public properties of the application layer of the power control task.">
<polygon fill="white" stroke="black" points="364.5,-130 273.5,-130 273.5,-111 364.5,-111 364.5,-130"/>
<text text-anchor="middle" x="319" y="-118" font-family="Helvetica,sans-Serif" font-size="10.00">Public Properties</text>
</a>
</g>
</g>
<!-- Node1&#45;&gt;Node4 -->
<g id="edge3" class="edge">
<title>Node1&#45;&gt;Node4</title>
<path fill="none" stroke="black" d="M237.62,-100.93C251.84,-104.4 266.27,-107.91 278.91,-110.98"/>
<polygon fill="black" stroke="black" points="238.37,-97.51 227.82,-98.55 236.71,-104.32 238.37,-97.51"/>
</g>
<!-- Node6 -->
<g id="node4" class="node">
<title>Node6</title>
<g id="a_node4"><a xlink:href="group__app-layer-power-control-functions-private.html" target="_top" xlink:title="Private functions of the application layer of the power control task.">
<polygon fill="white" stroke="black" points="365,-93 273,-93 273,-74 365,-74 365,-93"/>
<text text-anchor="middle" x="319" y="-81" font-family="Helvetica,sans-Serif" font-size="10.00">Private Functions</text>
</a>
</g>
</g>
<!-- Node1&#45;&gt;Node6 -->
<g id="edge5" class="edge">
<title>Node1&#45;&gt;Node6</title>
<path fill="none" stroke="black" d="M239.2,-83.5C250.69,-83.5 262.27,-83.5 272.89,-83.5"/>
<polygon fill="black" stroke="black" points="239.14,-80 229.14,-83.5 239.14,-87 239.14,-80"/>
</g>
<!-- Node5 -->
<g id="node6" class="node">
<title>Node5</title>
<g id="a_node6"><a xlink:href="group__app-layer-power-control-events.html" target="_top" xlink:title="Public events of the application layer of the power control task.">
<polygon fill="white" stroke="black" points="373,-56 265,-56 265,-37 373,-37 373,-56"/>
<text text-anchor="middle" x="319" y="-44" font-family="Helvetica,sans-Serif" font-size="10.00">Events and Interrupts</text>
</a>
</g>
</g>
<!-- Node1&#45;&gt;Node5 -->
<g id="edge4" class="edge">
<title>Node1&#45;&gt;Node5</title>
<path fill="none" stroke="black" d="M237.62,-66.07C251.84,-62.6 266.27,-59.09 278.91,-56.02"/>
<polygon fill="black" stroke="black" points="236.71,-62.68 227.82,-68.45 238.37,-69.49 236.71,-62.68"/>
</g>
<!-- Node7 -->
<g id="node7" class="node">
<title>Node7</title>
<g id="a_node7"><a xlink:href="group__app-layer-power-control-properties-private.html" target="_top" xlink:title="Public properties of the application layer of the power control task.">
<polygon fill="white" stroke="black" points="365.5,-19 272.5,-19 272.5,0 365.5,0 365.5,-19"/>
<text text-anchor="middle" x="319" y="-7" font-family="Helvetica,sans-Serif" font-size="10.00">Private Properties</text>
</a>
</g>
</g>
<!-- Node1&#45;&gt;Node7 -->
<g id="edge6" class="edge">
<title>Node1&#45;&gt;Node7</title>
<path fill="none" stroke="black" d="M198.3,-63.19C217.27,-51.78 241.97,-37.81 265,-27.5 271.92,-24.4 279.54,-21.52 286.8,-19.01"/>
<polygon fill="black" stroke="black" points="196.48,-60.2 189.75,-68.39 200.11,-66.18 196.48,-60.2"/>
</g>
<!-- Node2 -->
<g id="node5" class="node">
<title>Node2</title>
<g id="a_node5"><a xlink:href="group__task-layer.html" target="_top" xlink:title="Task Layer.">
<polygon fill="white" stroke="black" points="65,-93 0,-93 0,-74 65,-74 65,-93"/>
<text text-anchor="middle" x="32.5" y="-81" font-family="Helvetica,sans-Serif" font-size="10.00">Task Layer</text>
</a>
</g>
</g>
<!-- Node2&#45;&gt;Node1 -->
<g id="edge1" class="edge">
<title>Node2&#45;&gt;Node1</title>
<path fill="none" stroke="black" d="M75.17,-83.5C83.41,-83.5 92.23,-83.5 101,-83.5"/>
<polygon fill="black" stroke="black" points="75.09,-80 65.09,-83.5 75.09,-87 75.09,-80"/>
</g>
</g>
</svg>
