<?xml version="1.0" encoding="UTF-8" standalone="no"?>
<!DOCTYPE svg PUBLIC "-//W3C//DTD SVG 1.1//EN"
 "http://www.w3.org/Graphics/SVG/1.1/DTD/svg11.dtd">
<!-- Generated by graphviz version 2.44.1 (20200629.0846)
 -->
<!-- Title: Buck Converter State Machine Pages: 1 -->
<svg width="359pt" height="86pt"
 viewBox="0.00 0.00 359.00 86.00" xmlns="http://www.w3.org/2000/svg" xmlns:xlink="http://www.w3.org/1999/xlink">
<g id="graph0" class="graph" transform="scale(1 1) rotate(0) translate(4 82)">
<title>Buck Converter State Machine</title>
<polygon fill="white" stroke="transparent" points="-4,4 -4,-82 355,-82 355,4 -4,4"/>
<!-- Node1 -->
<g id="node1" class="node">
<title>Node1</title>
<g id="a_node1"><a xlink:title=" ">
<polygon fill="#bfbfbf" stroke="black" points="210,-54 101,-54 101,-24 210,-24 210,-54"/>
<text text-anchor="start" x="109" y="-42" font-family="Helvetica,sans-Serif" font-size="10.00">Buck Converter State</text>
<text text-anchor="middle" x="155.5" y="-31" font-family="Helvetica,sans-Serif" font-size="10.00"> Machine</text>
</a>
</g>
</g>
<!-- Node4 -->
<g id="node2" class="node">
<title>Node4</title>
<g id="a_node2"><a xlink:href="group__buck-state-machine-struct.html" target="_top" xlink:title="Buck State Machine Data Structures.">
<polygon fill="white" stroke="black" points="351,-78 246,-78 246,-48 351,-48 351,-78"/>
<text text-anchor="start" x="254" y="-66" font-family="Helvetica,sans-Serif" font-size="10.00">Buck State Machine</text>
<text text-anchor="middle" x="298.5" y="-55" font-family="Helvetica,sans-Serif" font-size="10.00"> Data Structures</text>
</a>
</g>
</g>
<!-- Node1&#45;&gt;Node4 -->
<g id="edge3" class="edge">
<title>Node1&#45;&gt;Node4</title>
<path fill="none" stroke="black" d="M220.18,-49.84C228.76,-51.3 237.47,-52.78 245.8,-54.2"/>
<polygon fill="black" stroke="black" points="220.65,-46.37 210.21,-48.14 219.48,-53.27 220.65,-46.37"/>
</g>
<!-- Node3 -->
<g id="node4" class="node">
<title>Node3</title>
<g id="a_node4"><a xlink:href="group__buck-state-machine-function.html" target="_top" xlink:title="Buck State Machine Functions.">
<polygon fill="white" stroke="black" points="351,-30 246,-30 246,0 351,0 351,-30"/>
<text text-anchor="start" x="254" y="-18" font-family="Helvetica,sans-Serif" font-size="10.00">Buck State Machine</text>
<text text-anchor="middle" x="298.5" y="-7" font-family="Helvetica,sans-Serif" font-size="10.00"> Functions</text>
</a>
</g>
</g>
<!-- Node1&#45;&gt;Node3 -->
<g id="edge2" class="edge">
<title>Node1&#45;&gt;Node3</title>
<path fill="none" stroke="black" d="M220.18,-28.16C228.76,-26.7 237.47,-25.22 245.8,-23.8"/>
<polygon fill="black" stroke="black" points="219.48,-24.73 210.21,-29.86 220.65,-31.63 219.48,-24.73"/>
</g>
<!-- Node2 -->
<g id="node3" class="node">
<title>Node2</title>
<g id="a_node3"><a xlink:href="group__task-layer.html" target="_top" xlink:title="Task Layer.">
<polygon fill="white" stroke="black" points="65,-48.5 0,-48.5 0,-29.5 65,-29.5 65,-48.5"/>
<text text-anchor="middle" x="32.5" y="-36.5" font-family="Helvetica,sans-Serif" font-size="10.00">Task Layer</text>
</a>
</g>
</g>
<!-- Node2&#45;&gt;Node1 -->
<g id="edge1" class="edge">
<title>Node2&#45;&gt;Node1</title>
<path fill="none" stroke="black" d="M75.4,-39C83.63,-39 92.38,-39 100.93,-39"/>
<polygon fill="black" stroke="black" points="75.29,-35.5 65.29,-39 75.29,-42.5 75.29,-35.5"/>
</g>
</g>
</svg>
