<?xml version="1.0" encoding="UTF-8" standalone="no"?>
<!DOCTYPE svg PUBLIC "-//W3C//DTD SVG 1.1//EN"
 "http://www.w3.org/Graphics/SVG/1.1/DTD/svg11.dtd">
<!-- Generated by graphviz version 2.44.1 (20200629.0846)
 -->
<!-- Title: main Pages: 1 -->
<!--zoomable 328 -->
<svg id="main" version="1.1" xmlns="http://www.w3.org/2000/svg" xmlns:xlink="http://www.w3.org/1999/xlink" xml:space="preserve" onload="init(evt)">
<style type="text/css"><![CDATA[
.edge:hover path { stroke: red; }
.edge:hover polygon { stroke: red; fill: red; }
]]></style>
<script type="text/javascript"><![CDATA[
var edges = document.getElementsByTagName('g');
if (edges && edges.length) {
  for (var i=0;i<edges.length;i++) {
    if (edges[i].id.substr(0,4)=='edge') {
      edges[i].setAttribute('class','edge');
    }
  }
}
]]></script>
        <defs>
                <circle id="rim" cx="0" cy="0" r="7"/>
                <circle id="rim2" cx="0" cy="0" r="3.5"/>
                <g id="zoomPlus">
                        <use xlink:href="#rim" fill="#404040">
                                <set attributeName="fill" to="#808080" begin="zoomplus.mouseover" end="zoomplus.mouseout"/>
                        </use>
                        <path d="M-4,0h8M0,-4v8" fill="none" stroke="white" stroke-width="1.5" pointer-events="none"/>
                </g>
                <g id="zoomMin">
                        <use xlink:href="#rim" fill="#404040">
                                <set attributeName="fill" to="#808080" begin="zoomminus.mouseover" end="zoomminus.mouseout"/>
                        </use>
                        <path d="M-4,0h8" fill="none" stroke="white" stroke-width="1.5" pointer-events="none"/>
                </g>
                <g id="dirArrow">
                        <path fill="none" stroke="white" stroke-width="1.5" d="M0,-3.0v7 M-2.5,-0.5L0,-3.0L2.5,-0.5"/>
                </g>
               <g id="resetDef">
                       <use xlink:href="#rim2" fill="#404040">
                               <set attributeName="fill" to="#808080" begin="reset.mouseover" end="reset.mouseout"/>
                       </use>
               </g>
        </defs>

<script type="text/javascript">
var viewWidth = 1097;
var viewHeight = 328;
var sectionId = 'dynsection-1';
</script>
<script xlink:href="svgpan.js"/>
<svg id="graph" class="graph">
<g id="viewport">
<title>main</title>
<polygon fill="white" stroke="transparent" points="-4,4 -4,-323.5 1093,-323.5 1093,4 -4,4"/>
<!-- Node1 -->
<g id="node1" class="node">
<title>Node1</title>
<g id="a_node1"><a xlink:title="Application main function executed after device comes out of RESET.">
<polygon fill="#bfbfbf" stroke="black" points="0,-174 0,-193 38,-193 38,-174 0,-174"/>
<text text-anchor="middle" x="19" y="-181" font-family="Helvetica,sans-Serif" font-size="10.00">main</text>
</a>
</g>
</g>
<!-- Node2 -->
<g id="node2" class="node">
<title>Node2</title>
<g id="a_node2"><a xlink:href="group__main-loop.html#ga8842f6a41fe23f932a8864fc140c4b5b" target="_top" xlink:title="Application wide fault object monitoring routine.">
<polygon fill="white" stroke="black" points="75.5,-262 75.5,-281 203.5,-281 203.5,-262 75.5,-262"/>
<text text-anchor="middle" x="139.5" y="-269" font-family="Helvetica,sans-Serif" font-size="10.00">appFaultMonitor_Execute</text>
</a>
</g>
</g>
<!-- Node1&#45;&gt;Node2 -->
<g id="edge1" class="edge">
<title>Node1&#45;&gt;Node2</title>
<path fill="none" stroke="midnightblue" d="M27.51,-193.42C37.19,-205.7 55.06,-226.68 74,-240.5 83.13,-247.16 93.91,-253 104.02,-257.76"/>
<polygon fill="midnightblue" stroke="midnightblue" points="102.87,-261.08 113.43,-261.99 105.74,-254.7 102.87,-261.08"/>
</g>
<!-- Node8 -->
<g id="node8" class="node">
<title>Node8</title>
<g id="a_node8"><a xlink:href="group__device-start-up.html#ga830e5c7087a8e5ee8ea39b7e3df94b68" target="_top" xlink:title="Initialization of user&#45;defined fault objects.">
<polygon fill="white" stroke="black" points="254.5,-136 254.5,-155 381.5,-155 381.5,-136 254.5,-136"/>
<text text-anchor="middle" x="318" y="-143" font-family="Helvetica,sans-Serif" font-size="10.00">appFaultMonitor_Initialize</text>
</a>
</g>
</g>
<!-- Node1&#45;&gt;Node8 -->
<g id="edge7" class="edge">
<title>Node1&#45;&gt;Node8</title>
<path fill="none" stroke="midnightblue" d="M38.17,-182.03C71.37,-179.26 144.05,-172.79 205,-164.5 221.35,-162.28 238.97,-159.48 255.28,-156.72"/>
<polygon fill="midnightblue" stroke="midnightblue" points="255.99,-160.15 265.25,-155.01 254.8,-153.25 255.99,-160.15"/>
</g>
<!-- Node9 -->
<g id="node9" class="node">
<title>Node9</title>
<g id="a_node9"><a xlink:href="group__main-loop.html#ga13094235dd6cc123d9299925359ca178" target="_top" xlink:title="This is the top&#45;level function call triggering the most recent state machine of all associated power ...">
<polygon fill="white" stroke="black" points="74,-212 74,-231 205,-231 205,-212 74,-212"/>
<text text-anchor="middle" x="139.5" y="-219" font-family="Helvetica,sans-Serif" font-size="10.00">appPowerSupply_Execute</text>
</a>
</g>
</g>
<!-- Node1&#45;&gt;Node9 -->
<g id="edge8" class="edge">
<title>Node1&#45;&gt;Node9</title>
<path fill="none" stroke="midnightblue" d="M38.26,-189.35C54.32,-194.51 78.28,-202.19 98.75,-208.75"/>
<polygon fill="midnightblue" stroke="midnightblue" points="97.87,-212.15 108.46,-211.87 100.01,-205.48 97.87,-212.15"/>
</g>
<!-- Node11 -->
<g id="node11" class="node">
<title>Node11</title>
<g id="a_node11"><a xlink:href="group__device-start-up.html#ga7a4cf6371d09457539f96a74b2809ca0" target="_top" xlink:title="Description">
<polygon fill="white" stroke="black" points="253,-98 253,-117 383,-117 383,-98 253,-98"/>
<text text-anchor="middle" x="318" y="-105" font-family="Helvetica,sans-Serif" font-size="10.00">appPowerSupply_Initialize</text>
</a>
</g>
</g>
<!-- Node1&#45;&gt;Node11 -->
<g id="edge11" class="edge">
<title>Node1&#45;&gt;Node11</title>
<path fill="none" stroke="midnightblue" d="M25.89,-173.76C34.55,-160.42 52.1,-136.95 74,-126.5 126.52,-101.44 192.74,-97.82 242.78,-99.84"/>
<polygon fill="midnightblue" stroke="midnightblue" points="242.73,-103.34 252.89,-100.33 243.07,-96.35 242.73,-103.34"/>
</g>
<!-- Node27 -->
<g id="node27" class="node">
<title>Node27</title>
<g id="a_node27"><a xlink:href="group__device-start-up.html#ga5630229f9308951b78658dc1af6b10e3" target="_top" xlink:title=" ">
<polygon fill="white" stroke="black" points="90.5,-136 90.5,-155 188.5,-155 188.5,-136 90.5,-136"/>
<text text-anchor="middle" x="139.5" y="-143" font-family="Helvetica,sans-Serif" font-size="10.00">SYSTEM_Initialize</text>
</a>
</g>
</g>
<!-- Node1&#45;&gt;Node27 -->
<g id="edge27" class="edge">
<title>Node1&#45;&gt;Node27</title>
<path fill="none" stroke="midnightblue" d="M38.26,-177.65C54.32,-172.49 78.28,-164.81 98.75,-158.25"/>
<polygon fill="midnightblue" stroke="midnightblue" points="100.01,-161.52 108.46,-155.13 97.87,-154.85 100.01,-161.52"/>
</g>
<!-- Node3 -->
<g id="node3" class="node">
<title>Node3</title>
<g id="a_node3"><a xlink:href="group__power-handler-function.html#ga3c7bf6b771bc1296401a270da4a95bff" target="_top" xlink:title="Description">
<polygon fill="white" stroke="black" points="252.5,-300 252.5,-319 383.5,-319 383.5,-300 252.5,-300"/>
<text text-anchor="middle" x="318" y="-307" font-family="Helvetica,sans-Serif" font-size="10.00">appPowerSupply_Resume</text>
</a>
</g>
</g>
<!-- Node2&#45;&gt;Node3 -->
<g id="edge2" class="edge">
<title>Node2&#45;&gt;Node3</title>
<path fill="none" stroke="midnightblue" d="M185.04,-281.09C208.64,-286.17 237.83,-292.46 262.75,-297.82"/>
<polygon fill="midnightblue" stroke="midnightblue" points="262.27,-301.3 272.78,-299.98 263.74,-294.45 262.27,-301.3"/>
</g>
<!-- Node7 -->
<g id="node7" class="node">
<title>Node7</title>
<g id="a_node7"><a xlink:href="group__fault-handler-function.html#ga47606594b5bc56b85a3ff49bd4f3d1ad" target="_top" xlink:title="Check current fault status of a user&#45;defined fault object.">
<polygon fill="white" stroke="black" points="276.5,-262 276.5,-281 359.5,-281 359.5,-262 276.5,-262"/>
<text text-anchor="middle" x="318" y="-269" font-family="Helvetica,sans-Serif" font-size="10.00">drv_FaultCheck</text>
</a>
</g>
</g>
<!-- Node2&#45;&gt;Node7 -->
<g id="edge6" class="edge">
<title>Node2&#45;&gt;Node7</title>
<path fill="none" stroke="midnightblue" d="M203.72,-271.5C224.26,-271.5 246.78,-271.5 266.29,-271.5"/>
<polygon fill="midnightblue" stroke="midnightblue" points="266.48,-275 276.48,-271.5 266.48,-268 266.48,-275"/>
</g>
<!-- Node4 -->
<g id="node4" class="node">
<title>Node4</title>
<g id="a_node4"><a xlink:href="group__power-handler-function.html#gaf73787b6b72bc61786a39b9c7e47f6c6" target="_top" xlink:title="Description">
<polygon fill="white" stroke="black" points="433.5,-300 433.5,-319 571.5,-319 571.5,-300 433.5,-300"/>
<text text-anchor="middle" x="502.5" y="-307" font-family="Helvetica,sans-Serif" font-size="10.00">drv_BuckConverter_Resume</text>
</a>
</g>
</g>
<!-- Node3&#45;&gt;Node4 -->
<g id="edge3" class="edge">
<title>Node3&#45;&gt;Node4</title>
<path fill="none" stroke="midnightblue" d="M383.6,-309.5C396.43,-309.5 410.03,-309.5 423.25,-309.5"/>
<polygon fill="midnightblue" stroke="midnightblue" points="423.28,-313 433.28,-309.5 423.28,-306 423.28,-313"/>
</g>
<!-- Node5 -->
<g id="node5" class="node">
<title>Node5</title>
<g id="a_node5"><a xlink:href="group__power-handler-function.html#ga75498c59a10db0738113104a547d8d0d" target="_top" xlink:title="This function is the main buck converter state machine executing the most recent state.">
<polygon fill="white" stroke="black" points="610,-300 610,-319 748,-319 748,-300 610,-300"/>
<text text-anchor="middle" x="679" y="-307" font-family="Helvetica,sans-Serif" font-size="10.00">drv_BuckConverter_Execute</text>
</a>
</g>
</g>
<!-- Node4&#45;&gt;Node5 -->
<g id="edge4" class="edge">
<title>Node4&#45;&gt;Node5</title>
<path fill="none" stroke="midnightblue" d="M571.72,-309.5C580.91,-309.5 590.4,-309.5 599.76,-309.5"/>
<polygon fill="midnightblue" stroke="midnightblue" points="599.83,-313 609.83,-309.5 599.83,-306 599.83,-313"/>
</g>
<!-- Node6 -->
<g id="node6" class="node">
<title>Node6</title>
<g id="a_node6"><a xlink:href="group__power-handler-function.html#gad4e9d780ae858d4417887f13b1619346" target="_top" xlink:title="Description">
<polygon fill="white" stroke="black" points="793,-300 793,-319 913,-319 913,-300 793,-300"/>
<text text-anchor="middle" x="853" y="-307" font-family="Helvetica,sans-Serif" font-size="10.00">buckGPIO_GetPinState</text>
</a>
</g>
</g>
<!-- Node5&#45;&gt;Node6 -->
<g id="edge5" class="edge">
<title>Node5&#45;&gt;Node6</title>
<path fill="none" stroke="midnightblue" d="M748.47,-309.5C759.73,-309.5 771.41,-309.5 782.69,-309.5"/>
<polygon fill="midnightblue" stroke="midnightblue" points="782.92,-313 792.92,-309.5 782.92,-306 782.92,-313"/>
</g>
<!-- Node9&#45;&gt;Node5 -->
<g id="edge10" class="edge">
<title>Node9&#45;&gt;Node5</title>
<path fill="none" stroke="midnightblue" d="M205.02,-227.96C256.58,-233.46 330.62,-242.11 395,-252.5 476.22,-265.61 569.63,-285.34 626.21,-297.81"/>
<polygon fill="midnightblue" stroke="midnightblue" points="625.47,-301.23 635.99,-299.98 626.99,-294.4 625.47,-301.23"/>
</g>
<!-- Node10 -->
<g id="node10" class="node">
<title>Node10</title>
<g id="a_node10"><a xlink:href="group__power-handler-function.html#gab80ac65aae45f7f9d9fd4ef6f8c56111" target="_top" xlink:title="Description">
<polygon fill="white" stroke="black" points="241,-174.5 241,-204.5 395,-204.5 395,-174.5 241,-174.5"/>
<text text-anchor="start" x="249" y="-192.5" font-family="Helvetica,sans-Serif" font-size="10.00">appPowerSupply_CurrentSense</text>
<text text-anchor="middle" x="318" y="-181.5" font-family="Helvetica,sans-Serif" font-size="10.00">Calibration</text>
</a>
</g>
</g>
<!-- Node9&#45;&gt;Node10 -->
<g id="edge9" class="edge">
<title>Node9&#45;&gt;Node10</title>
<path fill="none" stroke="midnightblue" d="M192.98,-211.99C204.96,-209.81 218.01,-207.45 230.99,-205.09"/>
<polygon fill="midnightblue" stroke="midnightblue" points="231.66,-208.53 240.88,-203.3 230.42,-201.64 231.66,-208.53"/>
</g>
<!-- Node12 -->
<g id="node12" class="node">
<title>Node12</title>
<g id="a_node12"><a xlink:href="group__power-handler-function.html#ga0b4cabdb02c8c9ea94ea1dfa39de3764" target="_top" xlink:title="Description">
<polygon fill="white" stroke="black" points="434.5,-49.5 434.5,-79.5 570.5,-79.5 570.5,-49.5 434.5,-49.5"/>
<text text-anchor="start" x="442.5" y="-67.5" font-family="Helvetica,sans-Serif" font-size="10.00">appPowerSupply_Controller</text>
<text text-anchor="middle" x="502.5" y="-56.5" font-family="Helvetica,sans-Serif" font-size="10.00">Initialize</text>
</a>
</g>
</g>
<!-- Node11&#45;&gt;Node12 -->
<g id="edge12" class="edge">
<title>Node11&#45;&gt;Node12</title>
<path fill="none" stroke="midnightblue" d="M359.5,-97.96C379.63,-93.22 404.58,-87.34 427.92,-81.84"/>
<polygon fill="midnightblue" stroke="midnightblue" points="428.88,-85.21 437.81,-79.51 427.27,-78.39 428.88,-85.21"/>
</g>
<!-- Node13 -->
<g id="node13" class="node">
<title>Node13</title>
<g id="a_node13"><a xlink:href="group__power-handler-function.html#gad0f6ff4894bf23722884c60bbcdcacd0" target="_top" xlink:title="Description">
<polygon fill="white" stroke="black" points="435,-0.5 435,-30.5 570,-30.5 570,-0.5 435,-0.5"/>
<text text-anchor="start" x="443" y="-18.5" font-family="Helvetica,sans-Serif" font-size="10.00">appPowerSupply_Converter</text>
<text text-anchor="middle" x="502.5" y="-7.5" font-family="Helvetica,sans-Serif" font-size="10.00">ObjectInitialize</text>
</a>
</g>
</g>
<!-- Node11&#45;&gt;Node13 -->
<g id="edge13" class="edge">
<title>Node11&#45;&gt;Node13</title>
<path fill="none" stroke="midnightblue" d="M332.6,-97.9C353.15,-83.7 393.69,-56.92 431,-39.5 435,-37.63 439.18,-35.84 443.43,-34.13"/>
<polygon fill="midnightblue" stroke="midnightblue" points="444.71,-37.39 452.79,-30.53 442.2,-30.85 444.71,-37.39"/>
</g>
<!-- Node14 -->
<g id="node14" class="node">
<title>Node14</title>
<g id="a_node14"><a xlink:href="group__power-handler-function.html#ga0b26acfec74d1804384b4ba1a3cffab4" target="_top" xlink:title="Description">
<polygon fill="white" stroke="black" points="431,-140.5 431,-170.5 574,-170.5 574,-140.5 431,-140.5"/>
<text text-anchor="start" x="439" y="-158.5" font-family="Helvetica,sans-Serif" font-size="10.00">appPowerSupply_Peripherals</text>
<text text-anchor="middle" x="502.5" y="-147.5" font-family="Helvetica,sans-Serif" font-size="10.00">Initialize</text>
</a>
</g>
</g>
<!-- Node11&#45;&gt;Node14 -->
<g id="edge14" class="edge">
<title>Node11&#45;&gt;Node14</title>
<path fill="none" stroke="midnightblue" d="M357.7,-117.01C369.67,-120 382.89,-123.34 395,-126.5 408.65,-130.06 423.26,-133.98 437.15,-137.74"/>
<polygon fill="midnightblue" stroke="midnightblue" points="436.54,-141.21 447.11,-140.45 438.38,-134.45 436.54,-141.21"/>
</g>
<!-- Node23 -->
<g id="node23" class="node">
<title>Node23</title>
<g id="a_node23"><a xlink:href="group__power-handler-function.html#ga9210070749c2ed49abd8a30b27f64151" target="_top" xlink:title="Description">
<polygon fill="white" stroke="black" points="444.5,-99 444.5,-118 560.5,-118 560.5,-99 444.5,-99"/>
<text text-anchor="middle" x="502.5" y="-106" font-family="Helvetica,sans-Serif" font-size="10.00">appPowerSupply_Start</text>
</a>
</g>
</g>
<!-- Node11&#45;&gt;Node23 -->
<g id="edge23" class="edge">
<title>Node11&#45;&gt;Node23</title>
<path fill="none" stroke="midnightblue" d="M383.09,-107.85C399.59,-107.94 417.39,-108.04 434.06,-108.13"/>
<polygon fill="midnightblue" stroke="midnightblue" points="434.24,-111.63 444.26,-108.19 434.28,-104.63 434.24,-111.63"/>
</g>
<!-- Node15 -->
<g id="node15" class="node">
<title>Node15</title>
<g id="a_node15"><a xlink:href="group__power-handler-function.html#ga97eb8bdd17b9c2e169f0634ebabb5d19" target="_top" xlink:title="This function initializes all peripheral modules and their instances used by the power controller.">
<polygon fill="white" stroke="black" points="610.5,-166 610.5,-185 747.5,-185 747.5,-166 610.5,-166"/>
<text text-anchor="middle" x="679" y="-173" font-family="Helvetica,sans-Serif" font-size="10.00">drv_BuckConverter_Initialize</text>
</a>
</g>
</g>
<!-- Node14&#45;&gt;Node15 -->
<g id="edge15" class="edge">
<title>Node14&#45;&gt;Node15</title>
<path fill="none" stroke="midnightblue" d="M574.22,-163.61C582.78,-164.59 591.56,-165.59 600.21,-166.58"/>
<polygon fill="midnightblue" stroke="midnightblue" points="599.95,-170.08 610.28,-167.74 600.75,-163.12 599.95,-170.08"/>
</g>
<!-- Node16 -->
<g id="node16" class="node">
<title>Node16</title>
<g id="a_node16"><a xlink:href="group__power-handler-function.html#gab889ae485e95010864ca04500457861a" target="_top" xlink:title="Description">
<polygon fill="white" stroke="black" points="786,-147 786,-166 920,-166 920,-147 786,-147"/>
<text text-anchor="middle" x="853" y="-154" font-family="Helvetica,sans-Serif" font-size="10.00">buckADC_ChannelInitialize</text>
</a>
</g>
</g>
<!-- Node15&#45;&gt;Node16 -->
<g id="edge16" class="edge">
<title>Node15&#45;&gt;Node16</title>
<path fill="none" stroke="midnightblue" d="M747.98,-167.99C757.15,-166.98 766.61,-165.93 775.91,-164.91"/>
<polygon fill="midnightblue" stroke="midnightblue" points="776.36,-168.38 785.92,-163.8 775.6,-161.42 776.36,-168.38"/>
</g>
<!-- Node17 -->
<g id="node17" class="node">
<title>Node17</title>
<g id="a_node17"><a xlink:href="group__power-handler-function.html#ga086bc1e4304b2ce7a435bf2a9799d078" target="_top" xlink:title="Description">
<polygon fill="white" stroke="black" points="788,-109 788,-128 918,-128 918,-109 788,-109"/>
<text text-anchor="middle" x="853" y="-116" font-family="Helvetica,sans-Serif" font-size="10.00">buckADC_ModuleInitialize</text>
</a>
</g>
</g>
<!-- Node15&#45;&gt;Node17 -->
<g id="edge17" class="edge">
<title>Node15&#45;&gt;Node17</title>
<path fill="none" stroke="midnightblue" d="M704.61,-165.89C725.56,-157.86 756.55,-146.33 784,-137.5 791.14,-135.2 798.75,-132.92 806.2,-130.77"/>
<polygon fill="midnightblue" stroke="midnightblue" points="807.18,-134.13 815.85,-128.04 805.27,-127.4 807.18,-134.13"/>
</g>
<!-- Node18 -->
<g id="node18" class="node">
<title>Node18</title>
<g id="a_node18"><a xlink:href="group__power-handler-function.html#ga984f623275f9e1da2e11be2e9ff8221c" target="_top" xlink:title="Description">
<polygon fill="white" stroke="black" points="802,-261 802,-280 904,-280 904,-261 802,-261"/>
<text text-anchor="middle" x="853" y="-268" font-family="Helvetica,sans-Serif" font-size="10.00">buckGPIO_Initialize</text>
</a>
</g>
</g>
<!-- Node15&#45;&gt;Node18 -->
<g id="edge18" class="edge">
<title>Node15&#45;&gt;Node18</title>
<path fill="none" stroke="midnightblue" d="M690.39,-185.11C708.23,-201.11 746.38,-233.24 784,-251.5 788.7,-253.78 793.73,-255.83 798.84,-257.66"/>
<polygon fill="midnightblue" stroke="midnightblue" points="798.1,-261.11 808.7,-260.92 800.3,-254.46 798.1,-261.11"/>
</g>
<!-- Node21 -->
<g id="node21" class="node">
<title>Node21</title>
<g id="a_node21"><a xlink:href="group__power-handler-function.html#ga283487111ea685224a2caf350540daad" target="_top" xlink:title="Description">
<polygon fill="white" stroke="black" points="784,-223 784,-242 922,-242 922,-223 784,-223"/>
<text text-anchor="middle" x="853" y="-230" font-family="Helvetica,sans-Serif" font-size="10.00">buckPWM_ChannelInitialize</text>
</a>
</g>
</g>
<!-- Node15&#45;&gt;Node21 -->
<g id="edge21" class="edge">
<title>Node15&#45;&gt;Node21</title>
<path fill="none" stroke="midnightblue" d="M704.61,-185.11C725.56,-193.14 756.55,-204.67 784,-213.5 791.14,-215.8 798.75,-218.08 806.2,-220.23"/>
<polygon fill="midnightblue" stroke="midnightblue" points="805.27,-223.6 815.85,-222.96 807.18,-216.87 805.27,-223.6"/>
</g>
<!-- Node22 -->
<g id="node22" class="node">
<title>Node22</title>
<g id="a_node22"><a xlink:href="group__power-handler-function.html#ga1dedc10502a96efea6da9207f3416219" target="_top" xlink:title="Description">
<polygon fill="white" stroke="black" points="786,-185 786,-204 920,-204 920,-185 786,-185"/>
<text text-anchor="middle" x="853" y="-192" font-family="Helvetica,sans-Serif" font-size="10.00">buckPWM_ModuleInitialize</text>
</a>
</g>
</g>
<!-- Node15&#45;&gt;Node22 -->
<g id="edge22" class="edge">
<title>Node15&#45;&gt;Node22</title>
<path fill="none" stroke="midnightblue" d="M747.98,-183.01C757.15,-184.02 766.61,-185.07 775.91,-186.09"/>
<polygon fill="midnightblue" stroke="midnightblue" points="775.6,-189.58 785.92,-187.2 776.36,-182.62 775.6,-189.58"/>
</g>
<!-- Node19 -->
<g id="node19" class="node">
<title>Node19</title>
<g id="a_node19"><a xlink:href="group__power-handler-function.html#ga649bb2f18322be1a303d05931adb2c6a" target="_top" xlink:title="Description">
<polygon fill="white" stroke="black" points="979,-280 979,-299 1068,-299 1068,-280 979,-280"/>
<text text-anchor="middle" x="1023.5" y="-287" font-family="Helvetica,sans-Serif" font-size="10.00">buckGPIO_Clear</text>
</a>
</g>
</g>
<!-- Node18&#45;&gt;Node19 -->
<g id="edge19" class="edge">
<title>Node18&#45;&gt;Node19</title>
<path fill="none" stroke="midnightblue" d="M904.1,-276.15C924.43,-278.44 947.96,-281.09 968.66,-283.43"/>
<polygon fill="midnightblue" stroke="midnightblue" points="968.55,-286.94 978.88,-284.58 969.33,-279.98 968.55,-286.94"/>
</g>
<!-- Node20 -->
<g id="node20" class="node">
<title>Node20</title>
<g id="a_node20"><a xlink:href="group__power-handler-function.html#ga3d3f91c0e40884874e7df3a67fff23f3" target="_top" xlink:title="Description">
<polygon fill="white" stroke="black" points="958,-242 958,-261 1089,-261 1089,-242 958,-242"/>
<text text-anchor="middle" x="1023.5" y="-249" font-family="Helvetica,sans-Serif" font-size="10.00">buckGPIO_PrivateInitialize</text>
</a>
</g>
</g>
<!-- Node18&#45;&gt;Node20 -->
<g id="edge20" class="edge">
<title>Node18&#45;&gt;Node20</title>
<path fill="none" stroke="midnightblue" d="M904.1,-264.85C917.81,-263.3 932.98,-261.59 947.76,-259.93"/>
<polygon fill="midnightblue" stroke="midnightblue" points="948.35,-263.38 957.9,-258.78 947.57,-256.43 948.35,-263.38"/>
</g>
<!-- Node24 -->
<g id="node24" class="node">
<title>Node24</title>
<g id="a_node24"><a xlink:href="group__power-handler-function.html#ga8c05ea0ee077172e4025d8b7a36f5c9f" target="_top" xlink:title="Description">
<polygon fill="white" stroke="black" points="617.5,-71 617.5,-90 740.5,-90 740.5,-71 617.5,-71"/>
<text text-anchor="middle" x="679" y="-78" font-family="Helvetica,sans-Serif" font-size="10.00">drv_BuckConverter_Start</text>
</a>
</g>
</g>
<!-- Node23&#45;&gt;Node24 -->
<g id="edge24" class="edge">
<title>Node23&#45;&gt;Node24</title>
<path fill="none" stroke="midnightblue" d="M560.64,-99.33C575.89,-96.89 592.53,-94.21 608.37,-91.67"/>
<polygon fill="midnightblue" stroke="midnightblue" points="609.32,-95.07 618.64,-90.03 608.21,-88.15 609.32,-95.07"/>
</g>
<!-- Node25 -->
<g id="node25" class="node">
<title>Node25</title>
<g id="a_node25"><a xlink:href="group__power-handler-function.html#gae12da3618a5d9e82920992df80b67b47" target="_top" xlink:title="Description">
<polygon fill="white" stroke="black" points="811,-71 811,-90 895,-90 895,-71 811,-71"/>
<text text-anchor="middle" x="853" y="-78" font-family="Helvetica,sans-Serif" font-size="10.00">buckADC_Start</text>
</a>
</g>
</g>
<!-- Node24&#45;&gt;Node25 -->
<g id="edge25" class="edge">
<title>Node24&#45;&gt;Node25</title>
<path fill="none" stroke="midnightblue" d="M740.64,-80.5C760.23,-80.5 781.74,-80.5 800.59,-80.5"/>
<polygon fill="midnightblue" stroke="midnightblue" points="800.76,-84 810.76,-80.5 800.76,-77 800.76,-84"/>
</g>
<!-- Node26 -->
<g id="node26" class="node">
<title>Node26</title>
<g id="a_node26"><a xlink:href="group__power-handler-function.html#gae6c3c54562df6c9d941bab2bc98b2bf2" target="_top" xlink:title="Description">
<polygon fill="white" stroke="black" points="808.5,-33 808.5,-52 897.5,-52 897.5,-33 808.5,-33"/>
<text text-anchor="middle" x="853" y="-40" font-family="Helvetica,sans-Serif" font-size="10.00">buckPWM_Start</text>
</a>
</g>
</g>
<!-- Node24&#45;&gt;Node26 -->
<g id="edge26" class="edge">
<title>Node24&#45;&gt;Node26</title>
<path fill="none" stroke="midnightblue" d="M723.4,-70.91C746.41,-65.83 774.85,-59.54 799.13,-54.18"/>
<polygon fill="midnightblue" stroke="midnightblue" points="799.9,-57.59 808.91,-52.02 798.39,-50.76 799.9,-57.59"/>
</g>
<!-- Node27&#45;&gt;Node8 -->
<g id="edge28" class="edge">
<title>Node27&#45;&gt;Node8</title>
<path fill="none" stroke="midnightblue" d="M188.73,-145.5C205.78,-145.5 225.36,-145.5 244.01,-145.5"/>
<polygon fill="midnightblue" stroke="midnightblue" points="244.24,-149 254.24,-145.5 244.24,-142 244.24,-149"/>
</g>
<!-- Node27&#45;&gt;Node11 -->
<g id="edge29" class="edge">
<title>Node27&#45;&gt;Node11</title>
<path fill="none" stroke="midnightblue" d="M185.04,-135.91C208.64,-130.83 237.83,-124.54 262.75,-119.18"/>
<polygon fill="midnightblue" stroke="midnightblue" points="263.74,-122.55 272.78,-117.02 262.27,-115.7 263.74,-122.55"/>
</g>
</g>
</svg>
        <g id="navigator" transform="translate(0 0)" fill="#404254">
                <rect fill="#f2f5e9" fill-opacity="0.5" stroke="#606060" stroke-width=".5" x="0" y="0" width="60" height="60"/>
                <use id="zoomplus" xlink:href="#zoomPlus" x="17" y="9" onmousedown="handleZoom(evt,'in')"/>
                <use id="zoomminus" xlink:href="#zoomMin" x="42" y="9" onmousedown="handleZoom(evt,'out')"/>
                <use id="reset" xlink:href="#resetDef" x="30" y="36" onmousedown="handleReset()"/>
                <g id="arrowUp" xlink:href="#dirArrow" transform="translate(30 24)" onmousedown="handlePan(0,-1)">
                  <use xlink:href="#rim" fill="#404040">
                        <set attributeName="fill" to="#808080" begin="arrowUp.mouseover" end="arrowUp.mouseout"/>
                  </use>
                  <path fill="none" stroke="white" stroke-width="1.5" d="M0,-3.0v7 M-2.5,-0.5L0,-3.0L2.5,-0.5"/>
                </g>
                <g id="arrowRight" xlink:href="#dirArrow" transform="rotate(90) translate(36 -43)" onmousedown="handlePan(1,0)">
                  <use xlink:href="#rim" fill="#404040">
                        <set attributeName="fill" to="#808080" begin="arrowRight.mouseover" end="arrowRight.mouseout"/>
                  </use>
                  <path fill="none" stroke="white" stroke-width="1.5" d="M0,-3.0v7 M-2.5,-0.5L0,-3.0L2.5,-0.5"/>
                </g>
                <g id="arrowDown" xlink:href="#dirArrow" transform="rotate(180) translate(-30 -48)" onmousedown="handlePan(0,1)">
                  <use xlink:href="#rim" fill="#404040">
                        <set attributeName="fill" to="#808080" begin="arrowDown.mouseover" end="arrowDown.mouseout"/>
                  </use>
                  <path fill="none" stroke="white" stroke-width="1.5" d="M0,-3.0v7 M-2.5,-0.5L0,-3.0L2.5,-0.5"/>
                </g>
                <g id="arrowLeft" xlink:href="#dirArrow" transform="rotate(270) translate(-36 17)" onmousedown="handlePan(-1,0)">
                  <use xlink:href="#rim" fill="#404040">
                        <set attributeName="fill" to="#808080" begin="arrowLeft.mouseover" end="arrowLeft.mouseout"/>
                  </use>
                  <path fill="none" stroke="white" stroke-width="1.5" d="M0,-3.0v7 M-2.5,-0.5L0,-3.0L2.5,-0.5"/>
                </g>
        </g>
        <svg viewBox="0 0 15 15" width="100%" height="30px" preserveAspectRatio="xMaxYMin meet">
         <g id="arrow_out" transform="scale(0.3 0.3)">
          <a xlink:href="group__firmware-flow_ga840291bc02cba5474a4cb46a9b9566fe_cgraph_org.svg" target="_base">
           <rect id="button" ry="5" rx="5" y="6" x="6" height="38" width="38"
                fill="#f2f5e9" fill-opacity="0.5" stroke="#606060" stroke-width="1.0"/>
           <path id="arrow"
             d="M 11.500037,31.436501 C 11.940474,20.09759 22.043105,11.32322 32.158766,21.979434 L 37.068811,17.246167 C 37.068811,17.246167 37.088388,32 37.088388,32 L 22.160133,31.978069 C 22.160133,31.978069 26.997745,27.140456 26.997745,27.140456 C 18.528582,18.264221 13.291696,25.230495 11.500037,31.436501 z"
             style="fill:#404040;"/>
          </a>
         </g>
        </svg>
</svg>
