<?xml version="1.0" encoding="UTF-8" standalone="no"?>
<!DOCTYPE svg PUBLIC "-//W3C//DTD SVG 1.1//EN"
 "http://www.w3.org/Graphics/SVG/1.1/DTD/svg11.dtd">
<!-- Generated by graphviz version 2.44.1 (20200629.0846)
 -->
<!-- Title: main Pages: 1 -->
<!--zoomable 401 -->
<svg id="main" version="1.1" xmlns="http://www.w3.org/2000/svg" xmlns:xlink="http://www.w3.org/1999/xlink" xml:space="preserve" onload="init(evt)">
<style type="text/css"><![CDATA[
.edge:hover path { stroke: red; }
.edge:hover polygon { stroke: red; fill: red; }
]]></style>
<script type="text/javascript"><![CDATA[
var edges = document.getElementsByTagName('g');
if (edges && edges.length) {
  for (var i=0;i<edges.length;i++) {
    if (edges[i].id.substr(0,4)=='edge') {
      edges[i].setAttribute('class','edge');
    }
  }
}
]]></script>
        <defs>
                <circle id="rim" cx="0" cy="0" r="7"/>
                <circle id="rim2" cx="0" cy="0" r="3.5"/>
                <g id="zoomPlus">
                        <use xlink:href="#rim" fill="#404040">
                                <set attributeName="fill" to="#808080" begin="zoomplus.mouseover" end="zoomplus.mouseout"/>
                        </use>
                        <path d="M-4,0h8M0,-4v8" fill="none" stroke="white" stroke-width="1.5" pointer-events="none"/>
                </g>
                <g id="zoomMin">
                        <use xlink:href="#rim" fill="#404040">
                                <set attributeName="fill" to="#808080" begin="zoomminus.mouseover" end="zoomminus.mouseout"/>
                        </use>
                        <path d="M-4,0h8" fill="none" stroke="white" stroke-width="1.5" pointer-events="none"/>
                </g>
                <g id="dirArrow">
                        <path fill="none" stroke="white" stroke-width="1.5" d="M0,-3.0v7 M-2.5,-0.5L0,-3.0L2.5,-0.5"/>
                </g>
               <g id="resetDef">
                       <use xlink:href="#rim2" fill="#404040">
                               <set attributeName="fill" to="#808080" begin="reset.mouseover" end="reset.mouseout"/>
                       </use>
               </g>
        </defs>

<script type="text/javascript">
var viewWidth = 918;
var viewHeight = 401;
var sectionId = 'dynsection-1';
</script>
<script xlink:href="svgpan.js"/>
<svg id="graph" class="graph">
<g id="viewport">
<title>main</title>
<polygon fill="white" stroke="transparent" points="-4,4 -4,-397 914,-397 914,4 -4,4"/>
<!-- Node1 -->
<g id="node1" class="node">
<title>Node1</title>
<g id="a_node1"><a xlink:title="Application main function executed after device comes out of RESET.">
<polygon fill="#bfbfbf" stroke="black" points="0,-253.5 0,-272.5 38,-272.5 38,-253.5 0,-253.5"/>
<text text-anchor="middle" x="19" y="-260.5" font-family="Helvetica,sans-Serif" font-size="10.00">main</text>
</a>
</g>
</g>
<!-- Node2 -->
<g id="node2" class="node">
<title>Node2</title>
<g id="a_node2"><a xlink:href="group__main-loop.html#ga8842f6a41fe23f932a8864fc140c4b5b" target="_top" xlink:title="Application wide fault object monitoring routine.">
<polygon fill="white" stroke="black" points="75.5,-335.5 75.5,-354.5 203.5,-354.5 203.5,-335.5 75.5,-335.5"/>
<text text-anchor="middle" x="139.5" y="-342.5" font-family="Helvetica,sans-Serif" font-size="10.00">appFaultMonitor_Execute</text>
</a>
</g>
</g>
<!-- Node1&#45;&gt;Node2 -->
<g id="edge1" class="edge">
<title>Node1&#45;&gt;Node2</title>
<path fill="none" stroke="midnightblue" d="M27.01,-272.73C36.44,-285.2 54.31,-306.78 74,-320 80.81,-324.57 88.57,-328.48 96.29,-331.75"/>
<polygon fill="midnightblue" stroke="midnightblue" points="95.04,-335.02 105.63,-335.44 97.61,-328.51 95.04,-335.02"/>
</g>
<!-- Node8 -->
<g id="node8" class="node">
<title>Node8</title>
<g id="a_node8"><a xlink:href="group__device-start-up.html#ga830e5c7087a8e5ee8ea39b7e3df94b68" target="_top" xlink:title="Initialization of user&#45;defined fault objects.">
<polygon fill="white" stroke="black" points="76,-291.5 76,-310.5 203,-310.5 203,-291.5 76,-291.5"/>
<text text-anchor="middle" x="139.5" y="-298.5" font-family="Helvetica,sans-Serif" font-size="10.00">appFaultMonitor_Initialize</text>
</a>
</g>
</g>
<!-- Node1&#45;&gt;Node8 -->
<g id="edge7" class="edge">
<title>Node1&#45;&gt;Node8</title>
<path fill="none" stroke="midnightblue" d="M38.41,-269.75C48.82,-273.49 62.08,-278.15 74,-282 80.72,-284.17 87.86,-286.37 94.85,-288.48"/>
<polygon fill="midnightblue" stroke="midnightblue" points="94.34,-291.98 104.92,-291.47 96.33,-285.26 94.34,-291.98"/>
</g>
<!-- Node9 -->
<g id="node9" class="node">
<title>Node9</title>
<g id="a_node9"><a xlink:href="group__main-loop.html#ga13094235dd6cc123d9299925359ca178" target="_top" xlink:title="This is the top&#45;level function call triggering the most recent state machine of all associated power ...">
<polygon fill="white" stroke="black" points="74,-253.5 74,-272.5 205,-272.5 205,-253.5 74,-253.5"/>
<text text-anchor="middle" x="139.5" y="-260.5" font-family="Helvetica,sans-Serif" font-size="10.00">appPowerSupply_Execute</text>
</a>
</g>
</g>
<!-- Node1&#45;&gt;Node9 -->
<g id="edge8" class="edge">
<title>Node1&#45;&gt;Node9</title>
<path fill="none" stroke="midnightblue" d="M38.26,-263C45.53,-263 54.43,-263 63.88,-263"/>
<polygon fill="midnightblue" stroke="midnightblue" points="63.89,-266.5 73.89,-263 63.89,-259.5 63.89,-266.5"/>
</g>
<!-- Node11 -->
<g id="node11" class="node">
<title>Node11</title>
<g id="a_node11"><a xlink:href="group__device-start-up.html#ga7a4cf6371d09457539f96a74b2809ca0" target="_top" xlink:title="Description">
<polygon fill="white" stroke="black" points="74.5,-180.5 74.5,-199.5 204.5,-199.5 204.5,-180.5 74.5,-180.5"/>
<text text-anchor="middle" x="139.5" y="-187.5" font-family="Helvetica,sans-Serif" font-size="10.00">appPowerSupply_Initialize</text>
</a>
</g>
</g>
<!-- Node1&#45;&gt;Node11 -->
<g id="edge11" class="edge">
<title>Node1&#45;&gt;Node11</title>
<path fill="none" stroke="midnightblue" d="M35.49,-253.46C55.54,-241.11 90.69,-219.45 114.28,-204.92"/>
<polygon fill="midnightblue" stroke="midnightblue" points="116.33,-207.77 123,-199.55 112.65,-201.81 116.33,-207.77"/>
</g>
<!-- Node27 -->
<g id="node27" class="node">
<title>Node27</title>
<g id="a_node27"><a xlink:href="group__device-start-up.html#ga5630229f9308951b78658dc1af6b10e3" target="_top" xlink:title="Initializes essential chip resources and application task.">
<polygon fill="white" stroke="black" points="90.5,-142.5 90.5,-161.5 188.5,-161.5 188.5,-142.5 90.5,-142.5"/>
<text text-anchor="middle" x="139.5" y="-149.5" font-family="Helvetica,sans-Serif" font-size="10.00">SYSTEM_Initialize</text>
</a>
</g>
</g>
<!-- Node1&#45;&gt;Node27 -->
<g id="edge27" class="edge">
<title>Node1&#45;&gt;Node27</title>
<path fill="none" stroke="midnightblue" d="M22.99,-253.32C29.28,-234.55 45.69,-193.12 74,-171 76.33,-169.18 78.83,-167.54 81.44,-166.05"/>
<polygon fill="midnightblue" stroke="midnightblue" points="83.2,-169.08 90.68,-161.57 80.15,-162.78 83.2,-169.08"/>
</g>
<!-- Node3 -->
<g id="node3" class="node">
<title>Node3</title>
<g id="a_node3"><a xlink:href="group__power-handler-function.html#ga3c7bf6b771bc1296401a270da4a95bff" target="_top" xlink:title="Description">
<polygon fill="white" stroke="black" points="252.5,-373.5 252.5,-392.5 383.5,-392.5 383.5,-373.5 252.5,-373.5"/>
<text text-anchor="middle" x="318" y="-380.5" font-family="Helvetica,sans-Serif" font-size="10.00">appPowerSupply_Resume</text>
</a>
</g>
</g>
<!-- Node2&#45;&gt;Node3 -->
<g id="edge2" class="edge">
<title>Node2&#45;&gt;Node3</title>
<path fill="none" stroke="midnightblue" d="M185.04,-354.59C208.64,-359.67 237.83,-365.96 262.75,-371.32"/>
<polygon fill="midnightblue" stroke="midnightblue" points="262.27,-374.8 272.78,-373.48 263.74,-367.95 262.27,-374.8"/>
</g>
<!-- Node7 -->
<g id="node7" class="node">
<title>Node7</title>
<g id="a_node7"><a xlink:href="group__fault-handler-function.html#ga47606594b5bc56b85a3ff49bd4f3d1ad" target="_top" xlink:title="Check current fault status of a user&#45;defined fault object.">
<polygon fill="white" stroke="black" points="276.5,-335.5 276.5,-354.5 359.5,-354.5 359.5,-335.5 276.5,-335.5"/>
<text text-anchor="middle" x="318" y="-342.5" font-family="Helvetica,sans-Serif" font-size="10.00">drv_FaultCheck</text>
</a>
</g>
</g>
<!-- Node2&#45;&gt;Node7 -->
<g id="edge6" class="edge">
<title>Node2&#45;&gt;Node7</title>
<path fill="none" stroke="midnightblue" d="M203.72,-345C224.26,-345 246.78,-345 266.29,-345"/>
<polygon fill="midnightblue" stroke="midnightblue" points="266.48,-348.5 276.48,-345 266.48,-341.5 266.48,-348.5"/>
</g>
<!-- Node4 -->
<g id="node4" class="node">
<title>Node4</title>
<g id="a_node4"><a xlink:href="group__power-handler-function.html#gaf73787b6b72bc61786a39b9c7e47f6c6" target="_top" xlink:title="Description">
<polygon fill="white" stroke="black" points="431,-354.5 431,-373.5 569,-373.5 569,-354.5 431,-354.5"/>
<text text-anchor="middle" x="500" y="-361.5" font-family="Helvetica,sans-Serif" font-size="10.00">drv_BuckConverter_Resume</text>
</a>
</g>
</g>
<!-- Node3&#45;&gt;Node4 -->
<g id="edge3" class="edge">
<title>Node3&#45;&gt;Node4</title>
<path fill="none" stroke="midnightblue" d="M383.73,-376.17C395.7,-374.9 408.32,-373.57 420.64,-372.27"/>
<polygon fill="midnightblue" stroke="midnightblue" points="421.32,-375.72 430.9,-371.19 420.59,-368.76 421.32,-375.72"/>
</g>
<!-- Node5 -->
<g id="node5" class="node">
<title>Node5</title>
<g id="a_node5"><a xlink:href="group__power-handler-function.html#ga75498c59a10db0738113104a547d8d0d" target="_top" xlink:title="This function is the main buck converter state machine executing the most recent state.">
<polygon fill="white" stroke="black" points="605,-316.5 605,-335.5 743,-335.5 743,-316.5 605,-316.5"/>
<text text-anchor="middle" x="674" y="-323.5" font-family="Helvetica,sans-Serif" font-size="10.00">drv_BuckConverter_Execute</text>
</a>
</g>
</g>
<!-- Node4&#45;&gt;Node5 -->
<g id="edge4" class="edge">
<title>Node4&#45;&gt;Node5</title>
<path fill="none" stroke="midnightblue" d="M544.4,-354.41C567.41,-349.33 595.85,-343.04 620.13,-337.68"/>
<polygon fill="midnightblue" stroke="midnightblue" points="620.9,-341.09 629.91,-335.52 619.39,-334.26 620.9,-341.09"/>
</g>
<!-- Node6 -->
<g id="node6" class="node">
<title>Node6</title>
<g id="a_node6"><a xlink:href="group__power-handler-function.html#gad4e9d780ae858d4417887f13b1619346" target="_top" xlink:title="Description">
<polygon fill="white" stroke="black" points="784.5,-316.5 784.5,-335.5 904.5,-335.5 904.5,-316.5 784.5,-316.5"/>
<text text-anchor="middle" x="844.5" y="-323.5" font-family="Helvetica,sans-Serif" font-size="10.00">buckGPIO_GetPinState</text>
</a>
</g>
</g>
<!-- Node5&#45;&gt;Node6 -->
<g id="edge5" class="edge">
<title>Node5&#45;&gt;Node6</title>
<path fill="none" stroke="midnightblue" d="M743.05,-326C753.33,-326 763.93,-326 774.24,-326"/>
<polygon fill="midnightblue" stroke="midnightblue" points="774.41,-329.5 784.41,-326 774.41,-322.5 774.41,-329.5"/>
</g>
<!-- Node9&#45;&gt;Node5 -->
<g id="edge10" class="edge">
<title>Node9&#45;&gt;Node5</title>
<path fill="none" stroke="midnightblue" d="M173.27,-272.53C192.78,-277.85 218.12,-284.17 241,-288 363.68,-308.53 507.93,-318.38 594.82,-322.8"/>
<polygon fill="midnightblue" stroke="midnightblue" points="594.71,-326.29 604.87,-323.3 595.06,-319.3 594.71,-326.29"/>
</g>
<!-- Node10 -->
<g id="node10" class="node">
<title>Node10</title>
<g id="a_node10"><a xlink:href="group__power-handler-function.html#gab80ac65aae45f7f9d9fd4ef6f8c56111" target="_top" xlink:title="Description">
<polygon fill="white" stroke="black" points="241,-248 241,-278 395,-278 395,-248 241,-248"/>
<text text-anchor="start" x="249" y="-266" font-family="Helvetica,sans-Serif" font-size="10.00">appPowerSupply_CurrentSense</text>
<text text-anchor="middle" x="318" y="-255" font-family="Helvetica,sans-Serif" font-size="10.00">Calibration</text>
</a>
</g>
</g>
<!-- Node9&#45;&gt;Node10 -->
<g id="edge9" class="edge">
<title>Node9&#45;&gt;Node10</title>
<path fill="none" stroke="midnightblue" d="M205.22,-263C213.56,-263 222.21,-263 230.83,-263"/>
<polygon fill="midnightblue" stroke="midnightblue" points="230.92,-266.5 240.92,-263 230.92,-259.5 230.92,-266.5"/>
</g>
<!-- Node12 -->
<g id="node12" class="node">
<title>Node12</title>
<g id="a_node12"><a xlink:href="group__power-handler-function.html#ga0b4cabdb02c8c9ea94ea1dfa39de3764" target="_top" xlink:title="Description">
<polygon fill="white" stroke="black" points="250,-199 250,-229 386,-229 386,-199 250,-199"/>
<text text-anchor="start" x="258" y="-217" font-family="Helvetica,sans-Serif" font-size="10.00">appPowerSupply_Controller</text>
<text text-anchor="middle" x="318" y="-206" font-family="Helvetica,sans-Serif" font-size="10.00">Initialize</text>
</a>
</g>
</g>
<!-- Node11&#45;&gt;Node12 -->
<g id="edge12" class="edge">
<title>Node11&#45;&gt;Node12</title>
<path fill="none" stroke="midnightblue" d="M204.72,-198.73C216.08,-200.28 228.01,-201.9 239.69,-203.49"/>
<polygon fill="midnightblue" stroke="midnightblue" points="239.48,-206.99 249.86,-204.87 240.42,-200.05 239.48,-206.99"/>
</g>
<!-- Node13 -->
<g id="node13" class="node">
<title>Node13</title>
<g id="a_node13"><a xlink:href="group__power-handler-function.html#gad0f6ff4894bf23722884c60bbcdcacd0" target="_top" xlink:title="Description">
<polygon fill="white" stroke="black" points="250.5,-150 250.5,-180 385.5,-180 385.5,-150 250.5,-150"/>
<text text-anchor="start" x="258.5" y="-168" font-family="Helvetica,sans-Serif" font-size="10.00">appPowerSupply_Converter</text>
<text text-anchor="middle" x="318" y="-157" font-family="Helvetica,sans-Serif" font-size="10.00">ObjectInitialize</text>
</a>
</g>
</g>
<!-- Node11&#45;&gt;Node13 -->
<g id="edge13" class="edge">
<title>Node11&#45;&gt;Node13</title>
<path fill="none" stroke="midnightblue" d="M204.72,-180.9C216.35,-179.26 228.58,-177.52 240.52,-175.83"/>
<polygon fill="midnightblue" stroke="midnightblue" points="241.04,-179.29 250.45,-174.43 240.06,-172.36 241.04,-179.29"/>
</g>
<!-- Node14 -->
<g id="node14" class="node">
<title>Node14</title>
<g id="a_node14"><a xlink:href="group__power-handler-function.html#ga0b26acfec74d1804384b4ba1a3cffab4" target="_top" xlink:title="Description">
<polygon fill="white" stroke="black" points="246.5,-101 246.5,-131 389.5,-131 389.5,-101 246.5,-101"/>
<text text-anchor="start" x="254.5" y="-119" font-family="Helvetica,sans-Serif" font-size="10.00">appPowerSupply_Peripherals</text>
<text text-anchor="middle" x="318" y="-108" font-family="Helvetica,sans-Serif" font-size="10.00">Initialize</text>
</a>
</g>
</g>
<!-- Node11&#45;&gt;Node14 -->
<g id="edge14" class="edge">
<title>Node11&#45;&gt;Node14</title>
<path fill="none" stroke="midnightblue" d="M182.1,-180.47C189.93,-177.92 197.9,-174.8 205,-171 223.37,-161.19 222.79,-151.1 241,-141 244.93,-138.82 249.09,-136.79 253.34,-134.91"/>
<polygon fill="midnightblue" stroke="midnightblue" points="254.86,-138.07 262.78,-131.03 252.2,-131.6 254.86,-138.07"/>
</g>
<!-- Node23 -->
<g id="node23" class="node">
<title>Node23</title>
<g id="a_node23"><a xlink:href="group__power-handler-function.html#ga9210070749c2ed49abd8a30b27f64151" target="_top" xlink:title="Description">
<polygon fill="white" stroke="black" points="260,-54.5 260,-73.5 376,-73.5 376,-54.5 260,-54.5"/>
<text text-anchor="middle" x="318" y="-61.5" font-family="Helvetica,sans-Serif" font-size="10.00">appPowerSupply_Start</text>
</a>
</g>
</g>
<!-- Node11&#45;&gt;Node23 -->
<g id="edge23" class="edge">
<title>Node11&#45;&gt;Node23</title>
<path fill="none" stroke="midnightblue" d="M189.71,-180.49C195.25,-178.02 200.51,-174.91 205,-171 234.38,-145.37 212.33,-117.42 241,-91 247.08,-85.4 254.39,-80.95 262.04,-77.41"/>
<polygon fill="midnightblue" stroke="midnightblue" points="263.57,-80.57 271.49,-73.53 260.91,-74.09 263.57,-80.57"/>
</g>
<!-- Node15 -->
<g id="node15" class="node">
<title>Node15</title>
<g id="a_node15"><a xlink:href="group__power-handler-function.html#ga97eb8bdd17b9c2e169f0634ebabb5d19" target="_top" xlink:title="This function initializes all peripheral modules and their instances used by the power controller.">
<polygon fill="white" stroke="black" points="431.5,-133.5 431.5,-152.5 568.5,-152.5 568.5,-133.5 431.5,-133.5"/>
<text text-anchor="middle" x="500" y="-140.5" font-family="Helvetica,sans-Serif" font-size="10.00">drv_BuckConverter_Initialize</text>
</a>
</g>
</g>
<!-- Node14&#45;&gt;Node15 -->
<g id="edge15" class="edge">
<title>Node14&#45;&gt;Node15</title>
<path fill="none" stroke="midnightblue" d="M389.62,-126.59C401.47,-128.37 413.79,-130.22 425.71,-132.01"/>
<polygon fill="midnightblue" stroke="midnightblue" points="425.2,-135.47 435.6,-133.49 426.23,-128.55 425.2,-135.47"/>
</g>
<!-- Node16 -->
<g id="node16" class="node">
<title>Node16</title>
<g id="a_node16"><a xlink:href="group__power-handler-function.html#gab889ae485e95010864ca04500457861a" target="_top" xlink:title="Description">
<polygon fill="white" stroke="black" points="607,-228.5 607,-247.5 741,-247.5 741,-228.5 607,-228.5"/>
<text text-anchor="middle" x="674" y="-235.5" font-family="Helvetica,sans-Serif" font-size="10.00">buckADC_ChannelInitialize</text>
</a>
</g>
</g>
<!-- Node15&#45;&gt;Node16 -->
<g id="edge16" class="edge">
<title>Node15&#45;&gt;Node16</title>
<path fill="none" stroke="midnightblue" d="M511.39,-152.61C529.23,-168.61 567.38,-200.74 605,-219 609.7,-221.28 614.73,-223.33 619.84,-225.16"/>
<polygon fill="midnightblue" stroke="midnightblue" points="619.1,-228.61 629.7,-228.42 621.3,-221.96 619.1,-228.61"/>
</g>
<!-- Node17 -->
<g id="node17" class="node">
<title>Node17</title>
<g id="a_node17"><a xlink:href="group__power-handler-function.html#ga086bc1e4304b2ce7a435bf2a9799d078" target="_top" xlink:title="Description">
<polygon fill="white" stroke="black" points="609,-190.5 609,-209.5 739,-209.5 739,-190.5 609,-190.5"/>
<text text-anchor="middle" x="674" y="-197.5" font-family="Helvetica,sans-Serif" font-size="10.00">buckADC_ModuleInitialize</text>
</a>
</g>
</g>
<!-- Node15&#45;&gt;Node17 -->
<g id="edge17" class="edge">
<title>Node15&#45;&gt;Node17</title>
<path fill="none" stroke="midnightblue" d="M525.61,-152.61C546.56,-160.64 577.55,-172.17 605,-181 612.14,-183.3 619.75,-185.58 627.2,-187.73"/>
<polygon fill="midnightblue" stroke="midnightblue" points="626.27,-191.1 636.85,-190.46 628.18,-184.37 626.27,-191.1"/>
</g>
<!-- Node18 -->
<g id="node18" class="node">
<title>Node18</title>
<g id="a_node18"><a xlink:href="group__power-handler-function.html#ga984f623275f9e1da2e11be2e9ff8221c" target="_top" xlink:title="Description">
<polygon fill="white" stroke="black" points="623,-152.5 623,-171.5 725,-171.5 725,-152.5 623,-152.5"/>
<text text-anchor="middle" x="674" y="-159.5" font-family="Helvetica,sans-Serif" font-size="10.00">buckGPIO_Initialize</text>
</a>
</g>
</g>
<!-- Node15&#45;&gt;Node18 -->
<g id="edge18" class="edge">
<title>Node15&#45;&gt;Node18</title>
<path fill="none" stroke="midnightblue" d="M568.98,-150.51C583.41,-152.1 598.55,-153.78 612.68,-155.34"/>
<polygon fill="midnightblue" stroke="midnightblue" points="612.43,-158.83 622.76,-156.45 613.2,-151.87 612.43,-158.83"/>
</g>
<!-- Node21 -->
<g id="node21" class="node">
<title>Node21</title>
<g id="a_node21"><a xlink:href="group__power-handler-function.html#ga283487111ea685224a2caf350540daad" target="_top" xlink:title="Description">
<polygon fill="white" stroke="black" points="605,-114.5 605,-133.5 743,-133.5 743,-114.5 605,-114.5"/>
<text text-anchor="middle" x="674" y="-121.5" font-family="Helvetica,sans-Serif" font-size="10.00">buckPWM_ChannelInitialize</text>
</a>
</g>
</g>
<!-- Node15&#45;&gt;Node21 -->
<g id="edge21" class="edge">
<title>Node15&#45;&gt;Node21</title>
<path fill="none" stroke="midnightblue" d="M568.98,-135.49C577.48,-134.55 586.23,-133.58 594.88,-132.63"/>
<polygon fill="midnightblue" stroke="midnightblue" points="595.4,-136.09 604.95,-131.52 594.63,-129.14 595.4,-136.09"/>
</g>
<!-- Node22 -->
<g id="node22" class="node">
<title>Node22</title>
<g id="a_node22"><a xlink:href="group__power-handler-function.html#ga1dedc10502a96efea6da9207f3416219" target="_top" xlink:title="Description">
<polygon fill="white" stroke="black" points="607,-76.5 607,-95.5 741,-95.5 741,-76.5 607,-76.5"/>
<text text-anchor="middle" x="674" y="-83.5" font-family="Helvetica,sans-Serif" font-size="10.00">buckPWM_ModuleInitialize</text>
</a>
</g>
</g>
<!-- Node15&#45;&gt;Node22 -->
<g id="edge22" class="edge">
<title>Node15&#45;&gt;Node22</title>
<path fill="none" stroke="midnightblue" d="M525.61,-133.39C546.56,-125.36 577.55,-113.83 605,-105 612.14,-102.7 619.75,-100.42 627.2,-98.27"/>
<polygon fill="midnightblue" stroke="midnightblue" points="628.18,-101.63 636.85,-95.54 626.27,-94.9 628.18,-101.63"/>
</g>
<!-- Node19 -->
<g id="node19" class="node">
<title>Node19</title>
<g id="a_node19"><a xlink:href="group__power-handler-function.html#ga649bb2f18322be1a303d05931adb2c6a" target="_top" xlink:title="Description">
<polygon fill="white" stroke="black" points="800,-171.5 800,-190.5 889,-190.5 889,-171.5 800,-171.5"/>
<text text-anchor="middle" x="844.5" y="-178.5" font-family="Helvetica,sans-Serif" font-size="10.00">buckGPIO_Clear</text>
</a>
</g>
</g>
<!-- Node18&#45;&gt;Node19 -->
<g id="edge19" class="edge">
<title>Node18&#45;&gt;Node19</title>
<path fill="none" stroke="midnightblue" d="M725.1,-167.65C745.43,-169.94 768.96,-172.59 789.66,-174.93"/>
<polygon fill="midnightblue" stroke="midnightblue" points="789.55,-178.44 799.88,-176.08 790.33,-171.48 789.55,-178.44"/>
</g>
<!-- Node20 -->
<g id="node20" class="node">
<title>Node20</title>
<g id="a_node20"><a xlink:href="group__power-handler-function.html#ga3d3f91c0e40884874e7df3a67fff23f3" target="_top" xlink:title="Description">
<polygon fill="white" stroke="black" points="779,-133.5 779,-152.5 910,-152.5 910,-133.5 779,-133.5"/>
<text text-anchor="middle" x="844.5" y="-140.5" font-family="Helvetica,sans-Serif" font-size="10.00">buckGPIO_PrivateInitialize</text>
</a>
</g>
</g>
<!-- Node18&#45;&gt;Node20 -->
<g id="edge20" class="edge">
<title>Node18&#45;&gt;Node20</title>
<path fill="none" stroke="midnightblue" d="M725.1,-156.35C738.81,-154.8 753.98,-153.09 768.76,-151.43"/>
<polygon fill="midnightblue" stroke="midnightblue" points="769.35,-154.88 778.9,-150.28 768.57,-147.93 769.35,-154.88"/>
</g>
<!-- Node24 -->
<g id="node24" class="node">
<title>Node24</title>
<g id="a_node24"><a xlink:href="group__power-handler-function.html#ga8c05ea0ee077172e4025d8b7a36f5c9f" target="_top" xlink:title="Description">
<polygon fill="white" stroke="black" points="438.5,-38.5 438.5,-57.5 561.5,-57.5 561.5,-38.5 438.5,-38.5"/>
<text text-anchor="middle" x="500" y="-45.5" font-family="Helvetica,sans-Serif" font-size="10.00">drv_BuckConverter_Start</text>
</a>
</g>
</g>
<!-- Node23&#45;&gt;Node24 -->
<g id="edge24" class="edge">
<title>Node23&#45;&gt;Node24</title>
<path fill="none" stroke="midnightblue" d="M376.45,-58.89C392.96,-57.43 411.16,-55.81 428.38,-54.28"/>
<polygon fill="midnightblue" stroke="midnightblue" points="428.72,-57.76 438.37,-53.39 428.1,-50.79 428.72,-57.76"/>
</g>
<!-- Node25 -->
<g id="node25" class="node">
<title>Node25</title>
<g id="a_node25"><a xlink:href="group__power-handler-function.html#gae12da3618a5d9e82920992df80b67b47" target="_top" xlink:title="Description">
<polygon fill="white" stroke="black" points="632,-38.5 632,-57.5 716,-57.5 716,-38.5 632,-38.5"/>
<text text-anchor="middle" x="674" y="-45.5" font-family="Helvetica,sans-Serif" font-size="10.00">buckADC_Start</text>
</a>
</g>
</g>
<!-- Node24&#45;&gt;Node25 -->
<g id="edge25" class="edge">
<title>Node24&#45;&gt;Node25</title>
<path fill="none" stroke="midnightblue" d="M561.64,-48C581.23,-48 602.74,-48 621.59,-48"/>
<polygon fill="midnightblue" stroke="midnightblue" points="621.76,-51.5 631.76,-48 621.76,-44.5 621.76,-51.5"/>
</g>
<!-- Node26 -->
<g id="node26" class="node">
<title>Node26</title>
<g id="a_node26"><a xlink:href="group__power-handler-function.html#gae6c3c54562df6c9d941bab2bc98b2bf2" target="_top" xlink:title="Description">
<polygon fill="white" stroke="black" points="629.5,-0.5 629.5,-19.5 718.5,-19.5 718.5,-0.5 629.5,-0.5"/>
<text text-anchor="middle" x="674" y="-7.5" font-family="Helvetica,sans-Serif" font-size="10.00">buckPWM_Start</text>
</a>
</g>
</g>
<!-- Node24&#45;&gt;Node26 -->
<g id="edge26" class="edge">
<title>Node24&#45;&gt;Node26</title>
<path fill="none" stroke="midnightblue" d="M544.4,-38.41C567.41,-33.33 595.85,-27.04 620.13,-21.68"/>
<polygon fill="midnightblue" stroke="midnightblue" points="620.9,-25.09 629.91,-19.52 619.39,-18.26 620.9,-25.09"/>
</g>
</g>
</svg>
        <g id="navigator" transform="translate(0 0)" fill="#404254">
                <rect fill="#f2f5e9" fill-opacity="0.5" stroke="#606060" stroke-width=".5" x="0" y="0" width="60" height="60"/>
                <use id="zoomplus" xlink:href="#zoomPlus" x="17" y="9" onmousedown="handleZoom(evt,'in')"/>
                <use id="zoomminus" xlink:href="#zoomMin" x="42" y="9" onmousedown="handleZoom(evt,'out')"/>
                <use id="reset" xlink:href="#resetDef" x="30" y="36" onmousedown="handleReset()"/>
                <g id="arrowUp" xlink:href="#dirArrow" transform="translate(30 24)" onmousedown="handlePan(0,-1)">
                  <use xlink:href="#rim" fill="#404040">
                        <set attributeName="fill" to="#808080" begin="arrowUp.mouseover" end="arrowUp.mouseout"/>
                  </use>
                  <path fill="none" stroke="white" stroke-width="1.5" d="M0,-3.0v7 M-2.5,-0.5L0,-3.0L2.5,-0.5"/>
                </g>
                <g id="arrowRight" xlink:href="#dirArrow" transform="rotate(90) translate(36 -43)" onmousedown="handlePan(1,0)">
                  <use xlink:href="#rim" fill="#404040">
                        <set attributeName="fill" to="#808080" begin="arrowRight.mouseover" end="arrowRight.mouseout"/>
                  </use>
                  <path fill="none" stroke="white" stroke-width="1.5" d="M0,-3.0v7 M-2.5,-0.5L0,-3.0L2.5,-0.5"/>
                </g>
                <g id="arrowDown" xlink:href="#dirArrow" transform="rotate(180) translate(-30 -48)" onmousedown="handlePan(0,1)">
                  <use xlink:href="#rim" fill="#404040">
                        <set attributeName="fill" to="#808080" begin="arrowDown.mouseover" end="arrowDown.mouseout"/>
                  </use>
                  <path fill="none" stroke="white" stroke-width="1.5" d="M0,-3.0v7 M-2.5,-0.5L0,-3.0L2.5,-0.5"/>
                </g>
                <g id="arrowLeft" xlink:href="#dirArrow" transform="rotate(270) translate(-36 17)" onmousedown="handlePan(-1,0)">
                  <use xlink:href="#rim" fill="#404040">
                        <set attributeName="fill" to="#808080" begin="arrowLeft.mouseover" end="arrowLeft.mouseout"/>
                  </use>
                  <path fill="none" stroke="white" stroke-width="1.5" d="M0,-3.0v7 M-2.5,-0.5L0,-3.0L2.5,-0.5"/>
                </g>
        </g>
        <svg viewBox="0 0 15 15" width="100%" height="30px" preserveAspectRatio="xMaxYMin meet">
         <g id="arrow_out" transform="scale(0.3 0.3)">
          <a xlink:href="group__firmware-flow_ga840291bc02cba5474a4cb46a9b9566fe_cgraph_org.svg" target="_base">
           <rect id="button" ry="5" rx="5" y="6" x="6" height="38" width="38"
                fill="#f2f5e9" fill-opacity="0.5" stroke="#606060" stroke-width="1.0"/>
           <path id="arrow"
             d="M 11.500037,31.436501 C 11.940474,20.09759 22.043105,11.32322 32.158766,21.979434 L 37.068811,17.246167 C 37.068811,17.246167 37.088388,32 37.088388,32 L 22.160133,31.978069 C 22.160133,31.978069 26.997745,27.140456 26.997745,27.140456 C 18.528582,18.264221 13.291696,25.230495 11.500037,31.436501 z"
             style="fill:#404040;"/>
          </a>
         </g>
        </svg>
</svg>
