<?xml version="1.0" encoding="UTF-8" standalone="no"?>
<!DOCTYPE svg PUBLIC "-//W3C//DTD SVG 1.1//EN"
 "http://www.w3.org/Graphics/SVG/1.1/DTD/svg11.dtd">
<!-- Generated by graphviz version 2.44.1 (20200629.0846)
 -->
<!-- Title: Task Layer Pages: 1 -->
<svg width="385pt" height="86pt"
 viewBox="0.00 0.00 385.00 86.00" xmlns="http://www.w3.org/2000/svg" xmlns:xlink="http://www.w3.org/1999/xlink">
<g id="graph0" class="graph" transform="scale(1 1) rotate(0) translate(4 82)">
<title>Task Layer</title>
<polygon fill="white" stroke="transparent" points="-4,4 -4,-82 381,-82 381,4 -4,4"/>
<!-- Node4 -->
<g id="node1" class="node">
<title>Node4</title>
<g id="a_node1"><a xlink:href="group__app-layer-power-control.html" target="_top" xlink:title=" ">
<polygon fill="white" stroke="black" points="377,-78 249,-78 249,-48 377,-48 377,-78"/>
<text text-anchor="start" x="257" y="-66" font-family="Helvetica,sans-Serif" font-size="10.00">Power Control Application</text>
<text text-anchor="middle" x="313" y="-55" font-family="Helvetica,sans-Serif" font-size="10.00"> Layer</text>
</a>
</g>
</g>
<!-- Node3 -->
<g id="node2" class="node">
<title>Node3</title>
<g id="a_node2"><a xlink:href="group__app-layer-fault-monitor.html" target="_top" xlink:title=" ">
<polygon fill="white" stroke="black" points="375.5,-30 250.5,-30 250.5,0 375.5,0 375.5,-30"/>
<text text-anchor="start" x="258.5" y="-18" font-family="Helvetica,sans-Serif" font-size="10.00">Fault Monitor Application</text>
<text text-anchor="middle" x="313" y="-7" font-family="Helvetica,sans-Serif" font-size="10.00"> Layer</text>
</a>
</g>
</g>
<!-- Node1 -->
<g id="node3" class="node">
<title>Node1</title>
<g id="a_node3"><a xlink:title="Task Layer.">
<polygon fill="#bfbfbf" stroke="black" points="213,-48.5 148,-48.5 148,-29.5 213,-29.5 213,-48.5"/>
<text text-anchor="middle" x="180.5" y="-36.5" font-family="Helvetica,sans-Serif" font-size="10.00">Task Layer</text>
</a>
</g>
</g>
<!-- Node1&#45;&gt;Node4 -->
<g id="edge3" class="edge">
<title>Node1&#45;&gt;Node4</title>
<path fill="none" stroke="black" d="M223.17,-46.66C231.41,-48.18 240.23,-49.8 249,-51.41"/>
<polygon fill="black" stroke="black" points="223.56,-43.18 213.09,-44.81 222.29,-50.06 223.56,-43.18"/>
</g>
<!-- Node1&#45;&gt;Node3 -->
<g id="edge2" class="edge">
<title>Node1&#45;&gt;Node3</title>
<path fill="none" stroke="black" d="M222.96,-31.37C231.67,-29.77 241.03,-28.05 250.29,-26.35"/>
<polygon fill="black" stroke="black" points="222.29,-27.94 213.09,-33.19 223.56,-34.82 222.29,-27.94"/>
</g>
<!-- Node2 -->
<g id="node4" class="node">
<title>Node2</title>
<g id="a_node4"><a xlink:href="group__firmware-flow.html" target="_top" xlink:title="Firmware Flowchart.">
<polygon fill="white" stroke="black" points="112,-48.5 0,-48.5 0,-29.5 112,-29.5 112,-48.5"/>
<text text-anchor="middle" x="56" y="-36.5" font-family="Helvetica,sans-Serif" font-size="10.00">Firmware Architecture</text>
</a>
</g>
</g>
<!-- Node2&#45;&gt;Node1 -->
<g id="edge1" class="edge">
<title>Node2&#45;&gt;Node1</title>
<path fill="none" stroke="black" d="M122.19,-39C131.07,-39 139.85,-39 147.75,-39"/>
<polygon fill="black" stroke="black" points="122.16,-35.5 112.16,-39 122.16,-42.5 122.16,-35.5"/>
</g>
</g>
</svg>
