<?xml version="1.0" encoding="UTF-8" standalone="no"?>
<!DOCTYPE svg PUBLIC "-//W3C//DTD SVG 1.1//EN"
 "http://www.w3.org/Graphics/SVG/1.1/DTD/svg11.dtd">
<!-- Generated by graphviz version 2.44.1 (20200629.0846)
 -->
<!-- Title: Buck Special Functions Pages: 1 -->
<svg width="408pt" height="138pt"
 viewBox="0.00 0.00 408.00 138.00" xmlns="http://www.w3.org/2000/svg" xmlns:xlink="http://www.w3.org/1999/xlink">
<g id="graph0" class="graph" transform="scale(1 1) rotate(0) translate(4 134)">
<title>Buck Special Functions</title>
<polygon fill="white" stroke="transparent" points="-4,4 -4,-134 404,-134 404,4 -4,4"/>
<!-- Node3 -->
<g id="node1" class="node">
<title>Node3</title>
<g id="a_node1"><a xlink:href="group__lib-layer-buck-specialfn-functions-public.html" target="_top" xlink:title="Public functions of the second library layer.">
<polygon fill="white" stroke="black" points="398,-130 309,-130 309,-111 398,-111 398,-130"/>
<text text-anchor="middle" x="353.5" y="-118" font-family="Helvetica,sans-Serif" font-size="10.00">Public Functions</text>
</a>
</g>
</g>
<!-- Node1 -->
<g id="node2" class="node">
<title>Node1</title>
<g id="a_node2"><a xlink:title=" ">
<polygon fill="#bfbfbf" stroke="black" points="271,-74 151,-74 151,-55 271,-55 271,-74"/>
<text text-anchor="middle" x="211" y="-62" font-family="Helvetica,sans-Serif" font-size="10.00">Buck Special Functions</text>
</a>
</g>
</g>
<!-- Node1&#45;&gt;Node3 -->
<g id="edge2" class="edge">
<title>Node1&#45;&gt;Node3</title>
<path fill="none" stroke="black" d="M245.13,-77.79C263.38,-85.1 286.43,-94.32 307,-102.5 313.95,-105.26 321.49,-108.25 328.41,-110.99"/>
<polygon fill="black" stroke="black" points="246.39,-74.52 235.81,-74.05 243.79,-81.02 246.39,-74.52"/>
</g>
<!-- Node5 -->
<g id="node3" class="node">
<title>Node5</title>
<g id="a_node3"><a xlink:href="group__lib-layer-buck-specialfn-functions-private.html" target="_top" xlink:title="Private functions of the second library layer.">
<polygon fill="white" stroke="black" points="399.5,-93 307.5,-93 307.5,-74 399.5,-74 399.5,-93"/>
<text text-anchor="middle" x="353.5" y="-81" font-family="Helvetica,sans-Serif" font-size="10.00">Private Functions</text>
</a>
</g>
</g>
<!-- Node1&#45;&gt;Node5 -->
<g id="edge4" class="edge">
<title>Node1&#45;&gt;Node5</title>
<path fill="none" stroke="black" d="M281.21,-73.86C290.14,-75.07 299.09,-76.28 307.48,-77.41"/>
<polygon fill="black" stroke="black" points="281.56,-70.37 271.18,-72.5 280.62,-77.31 281.56,-70.37"/>
</g>
<!-- Node4 -->
<g id="node5" class="node">
<title>Node4</title>
<g id="a_node5"><a xlink:href="group__lib-layer-buck-specialfn-properties-public.html" target="_top" xlink:title="Public properties of the second library layer.">
<polygon fill="white" stroke="black" points="399,-56 308,-56 308,-37 399,-37 399,-56"/>
<text text-anchor="middle" x="353.5" y="-44" font-family="Helvetica,sans-Serif" font-size="10.00">Public Properties</text>
</a>
</g>
</g>
<!-- Node1&#45;&gt;Node4 -->
<g id="edge3" class="edge">
<title>Node1&#45;&gt;Node4</title>
<path fill="none" stroke="black" d="M281.34,-55.62C290.37,-54.46 299.43,-53.3 307.91,-52.21"/>
<polygon fill="black" stroke="black" points="280.65,-52.18 271.18,-56.92 281.54,-59.12 280.65,-52.18"/>
</g>
<!-- Node6 -->
<g id="node6" class="node">
<title>Node6</title>
<g id="a_node6"><a xlink:href="group__lib-layer-buck-specialfn-properties-private.html" target="_top" xlink:title="Public properties of the second library layer.">
<polygon fill="white" stroke="black" points="400,-19 307,-19 307,0 400,0 400,-19"/>
<text text-anchor="middle" x="353.5" y="-7" font-family="Helvetica,sans-Serif" font-size="10.00">Private Properties</text>
</a>
</g>
</g>
<!-- Node1&#45;&gt;Node6 -->
<g id="edge5" class="edge">
<title>Node1&#45;&gt;Node6</title>
<path fill="none" stroke="black" d="M246.03,-51.18C271.29,-41.29 305.15,-28.04 327.84,-19.16"/>
<polygon fill="black" stroke="black" points="244.51,-48.02 236.47,-54.92 247.06,-54.53 244.51,-48.02"/>
</g>
<!-- Node2 -->
<g id="node4" class="node">
<title>Node2</title>
<g id="a_node4"><a xlink:href="group__lib-layer-buck.html" target="_top" xlink:title=" ">
<polygon fill="white" stroke="black" points="115,-74 0,-74 0,-55 115,-55 115,-74"/>
<text text-anchor="middle" x="57.5" y="-62" font-family="Helvetica,sans-Serif" font-size="10.00">Buck Converter Library</text>
</a>
</g>
</g>
<!-- Node2&#45;&gt;Node1 -->
<g id="edge1" class="edge">
<title>Node2&#45;&gt;Node1</title>
<path fill="none" stroke="black" d="M125.52,-64.5C133.95,-64.5 142.52,-64.5 150.81,-64.5"/>
<polygon fill="black" stroke="black" points="125.34,-61 115.34,-64.5 125.34,-68 125.34,-61"/>
</g>
</g>
</svg>
