<?xml version="1.0" encoding="UTF-8" standalone="no"?>
<!DOCTYPE svg PUBLIC "-//W3C//DTD SVG 1.1//EN"
 "http://www.w3.org/Graphics/SVG/1.1/DTD/svg11.dtd">
<!-- Generated by graphviz version 2.44.1 (20200629.0846)
 -->
<!-- Title: p33c_OscAuxClk_Initialize Pages: 1 -->
<svg width="676pt" height="28pt"
 viewBox="0.00 0.00 676.00 28.00" xmlns="http://www.w3.org/2000/svg" xmlns:xlink="http://www.w3.org/1999/xlink">
<g id="graph0" class="graph" transform="scale(1 1) rotate(0) translate(4 24)">
<title>p33c_OscAuxClk_Initialize</title>
<polygon fill="white" stroke="transparent" points="-4,4 -4,-24 672,-24 672,4 -4,4"/>
<!-- Node1 -->
<g id="node1" class="node">
<title>Node1</title>
<g id="a_node1"><a xlink:title="Initializes the auxiliary clock and its PLL module step by step in software. Each step is tested and ...">
<polygon fill="#bfbfbf" stroke="black" points="535,-0.5 535,-19.5 668,-19.5 668,-0.5 535,-0.5"/>
<text text-anchor="middle" x="601.5" y="-7.5" font-family="Helvetica,sans-Serif" font-size="10.00">p33c_OscAuxClk_Initialize</text>
</a>
</g>
</g>
<!-- Node2 -->
<g id="node2" class="node">
<title>Node2</title>
<g id="a_node2"><a xlink:href="group__p33c-osc-pral.html#ga810a57935922e0256770d958616a896e" target="_top" xlink:title="Initializes the auxiliary clock and its PLL module step by step in software. Each step is tested and ...">
<polygon fill="white" stroke="black" points="336,-0.5 336,-19.5 499,-19.5 499,-0.5 336,-0.5"/>
<text text-anchor="middle" x="417.5" y="-7.5" font-family="Helvetica,sans-Serif" font-size="10.00">p33c_OscAuxClk_DefaultInitialize</text>
</a>
</g>
</g>
<!-- Node1&#45;&gt;Node2 -->
<g id="edge1" class="edge">
<title>Node1&#45;&gt;Node2</title>
<path fill="none" stroke="midnightblue" d="M524.6,-10C516.15,-10 507.53,-10 499.02,-10"/>
<polygon fill="midnightblue" stroke="midnightblue" points="524.79,-13.5 534.79,-10 524.79,-6.5 524.79,-13.5"/>
</g>
<!-- Node3 -->
<g id="node3" class="node">
<title>Node3</title>
<g id="a_node3"><a xlink:href="group__clock-initialization.html#ga3f3f3c22c6c2b95518271fae8f58b03f" target="_top" xlink:title="Initializes the auxiliary clock of the device.">
<polygon fill="white" stroke="black" points="208,-0.5 208,-19.5 300,-19.5 300,-0.5 208,-0.5"/>
<text text-anchor="middle" x="254" y="-7.5" font-family="Helvetica,sans-Serif" font-size="10.00">sysAclk_Initialize</text>
</a>
</g>
</g>
<!-- Node2&#45;&gt;Node3 -->
<g id="edge2" class="edge">
<title>Node2&#45;&gt;Node3</title>
<path fill="none" stroke="midnightblue" d="M325.53,-10C316.86,-10 308.36,-10 300.42,-10"/>
<polygon fill="midnightblue" stroke="midnightblue" points="325.75,-13.5 335.75,-10 325.75,-6.5 325.75,-13.5"/>
</g>
<!-- Node4 -->
<g id="node4" class="node">
<title>Node4</title>
<g id="a_node4"><a xlink:href="group__system-initialization-mcu.html#ga5630229f9308951b78658dc1af6b10e3" target="_top" xlink:title="Initializes essential chip resources.">
<polygon fill="white" stroke="black" points="74,-0.5 74,-19.5 172,-19.5 172,-0.5 74,-0.5"/>
<text text-anchor="middle" x="123" y="-7.5" font-family="Helvetica,sans-Serif" font-size="10.00">SYSTEM_Initialize</text>
</a>
</g>
</g>
<!-- Node3&#45;&gt;Node4 -->
<g id="edge3" class="edge">
<title>Node3&#45;&gt;Node4</title>
<path fill="none" stroke="midnightblue" d="M197.74,-10C189.31,-10 180.66,-10 172.38,-10"/>
<polygon fill="midnightblue" stroke="midnightblue" points="197.88,-13.5 207.88,-10 197.88,-6.5 197.88,-13.5"/>
</g>
<!-- Node5 -->
<g id="node5" class="node">
<title>Node5</title>
<g id="a_node5"><a xlink:href="group__firmware-flow.html#ga840291bc02cba5474a4cb46a9b9566fe" target="_top" xlink:title="Application main function executed after device comes out of RESET.">
<polygon fill="white" stroke="black" points="0,-0.5 0,-19.5 38,-19.5 38,-0.5 0,-0.5"/>
<text text-anchor="middle" x="19" y="-7.5" font-family="Helvetica,sans-Serif" font-size="10.00">main</text>
</a>
</g>
</g>
<!-- Node4&#45;&gt;Node5 -->
<g id="edge4" class="edge">
<title>Node4&#45;&gt;Node5</title>
<path fill="none" stroke="midnightblue" d="M63.78,-10C54.44,-10 45.43,-10 38.04,-10"/>
<polygon fill="midnightblue" stroke="midnightblue" points="63.99,-13.5 73.99,-10 63.99,-6.5 63.99,-13.5"/>
</g>
</g>
</svg>
