<?xml version="1.0" encoding="UTF-8" standalone="no"?>
<!DOCTYPE svg PUBLIC "-//W3C//DTD SVG 1.1//EN"
 "http://www.w3.org/Graphics/SVG/1.1/DTD/svg11.dtd">
<!-- Generated by graphviz version 2.44.1 (20200629.0846)
 -->
<!-- Title: Public Properties Pages: 1 -->
<svg width="394pt" height="101pt"
 viewBox="0.00 0.00 394.00 101.00" xmlns="http://www.w3.org/2000/svg" xmlns:xlink="http://www.w3.org/1999/xlink">
<g id="graph0" class="graph" transform="scale(1 1) rotate(0) translate(4 97)">
<title>Public Properties</title>
<polygon fill="white" stroke="transparent" points="-4,4 -4,-97 390,-97 390,4 -4,4"/>
<!-- Node3 -->
<g id="node1" class="node">
<title>Node3</title>
<g id="a_node1"><a xlink:href="group__lib-layer-buck-specialfn-properties-public-variables.html" target="_top" xlink:title="List of public variables of the Special Function state machine extensions.">
<polygon fill="white" stroke="black" points="363,-93 306,-93 306,-74 363,-74 363,-93"/>
<text text-anchor="middle" x="334.5" y="-81" font-family="Helvetica,sans-Serif" font-size="10.00">Variables</text>
</a>
</g>
</g>
<!-- Node2 -->
<g id="node2" class="node">
<title>Node2</title>
<g id="a_node2"><a xlink:href="group__lib-layer-buck-specialfn.html" target="_top" xlink:title=" ">
<polygon fill="white" stroke="black" points="120,-56 0,-56 0,-37 120,-37 120,-56"/>
<text text-anchor="middle" x="60" y="-44" font-family="Helvetica,sans-Serif" font-size="10.00">Buck Special Functions</text>
</a>
</g>
</g>
<!-- Node1 -->
<g id="node4" class="node">
<title>Node1</title>
<g id="a_node4"><a xlink:title="Public properties of the second library layer.">
<polygon fill="#bfbfbf" stroke="black" points="247,-56 156,-56 156,-37 247,-37 247,-56"/>
<text text-anchor="middle" x="201.5" y="-44" font-family="Helvetica,sans-Serif" font-size="10.00">Public Properties</text>
</a>
</g>
</g>
<!-- Node2&#45;&gt;Node1 -->
<g id="edge1" class="edge">
<title>Node2&#45;&gt;Node1</title>
<path fill="none" stroke="black" d="M130.25,-46.5C138.88,-46.5 147.52,-46.5 155.64,-46.5"/>
<polygon fill="black" stroke="black" points="130.16,-43 120.16,-46.5 130.16,-50 130.16,-43"/>
</g>
<!-- Node5 -->
<g id="node3" class="node">
<title>Node5</title>
<g id="a_node3"><a xlink:href="group__lib-layer-buck-specialfn-properties-public-defines.html" target="_top" xlink:title="List of public defines and macros of the Special Function state machine extensions.">
<polygon fill="white" stroke="black" points="386,-56 283,-56 283,-37 386,-37 386,-56"/>
<text text-anchor="middle" x="334.5" y="-44" font-family="Helvetica,sans-Serif" font-size="10.00">Defines and Macros</text>
</a>
</g>
</g>
<!-- Node1&#45;&gt;Node3 -->
<g id="edge2" class="edge">
<title>Node1&#45;&gt;Node3</title>
<path fill="none" stroke="black" d="M245.91,-58.76C265.58,-64.32 288.27,-70.72 305.62,-75.63"/>
<polygon fill="black" stroke="black" points="246.81,-55.38 236.24,-56.03 244.91,-62.11 246.81,-55.38"/>
</g>
<!-- Node1&#45;&gt;Node5 -->
<g id="edge4" class="edge">
<title>Node1&#45;&gt;Node5</title>
<path fill="none" stroke="black" d="M257.31,-46.5C265.72,-46.5 274.37,-46.5 282.68,-46.5"/>
<polygon fill="black" stroke="black" points="257.22,-43 247.22,-46.5 257.22,-50 257.22,-43"/>
</g>
<!-- Node4 -->
<g id="node5" class="node">
<title>Node4</title>
<g id="a_node5"><a xlink:href="group__lib-layer-buck-specialfn-properties-public-data-types.html" target="_top" xlink:title="List of public data types of the Special Function state machine extensions.">
<polygon fill="white" stroke="black" points="367.5,-19 301.5,-19 301.5,0 367.5,0 367.5,-19"/>
<text text-anchor="middle" x="334.5" y="-7" font-family="Helvetica,sans-Serif" font-size="10.00">Data Types</text>
</a>
</g>
</g>
<!-- Node1&#45;&gt;Node4 -->
<g id="edge3" class="edge">
<title>Node1&#45;&gt;Node4</title>
<path fill="none" stroke="black" d="M245.96,-34.23C264,-29.13 284.57,-23.32 301.23,-18.61"/>
<polygon fill="black" stroke="black" points="244.91,-30.89 236.24,-36.97 246.81,-37.62 244.91,-30.89"/>
</g>
</g>
</svg>
