<?xml version="1.0" encoding="UTF-8" standalone="no"?>
<!DOCTYPE svg PUBLIC "-//W3C//DTD SVG 1.1//EN"
 "http://www.w3.org/Graphics/SVG/1.1/DTD/svg11.dtd">
<!-- Generated by graphviz version 2.44.1 (20200629.0846)
 -->
<!-- Title: buckGPIO_PrivateInitialize Pages: 1 -->
<svg width="1024pt" height="39pt"
 viewBox="0.00 0.00 1024.00 39.00" xmlns="http://www.w3.org/2000/svg" xmlns:xlink="http://www.w3.org/1999/xlink">
<g id="graph0" class="graph" transform="scale(1 1) rotate(0) translate(4 35)">
<title>buckGPIO_PrivateInitialize</title>
<polygon fill="white" stroke="transparent" points="-4,4 -4,-35 1020,-35 1020,4 -4,4"/>
<!-- Node1 -->
<g id="node1" class="node">
<title>Node1</title>
<g id="a_node1"><a xlink:title=" ">
<polygon fill="#bfbfbf" stroke="black" points="885,-6 885,-25 1016,-25 1016,-6 885,-6"/>
<text text-anchor="middle" x="950.5" y="-13" font-family="Helvetica,sans-Serif" font-size="10.00">buckGPIO_PrivateInitialize</text>
</a>
</g>
</g>
<!-- Node2 -->
<g id="node2" class="node">
<title>Node2</title>
<g id="a_node2"><a xlink:href="group__power-handler-function.html#ga984f623275f9e1da2e11be2e9ff8221c" target="_top" xlink:title=" ">
<polygon fill="white" stroke="black" points="747,-6 747,-25 849,-25 849,-6 747,-6"/>
<text text-anchor="middle" x="798" y="-13" font-family="Helvetica,sans-Serif" font-size="10.00">buckGPIO_Initialize</text>
</a>
</g>
</g>
<!-- Node1&#45;&gt;Node2 -->
<g id="edge1" class="edge">
<title>Node1&#45;&gt;Node2</title>
<path fill="none" stroke="midnightblue" d="M874.66,-15.5C865.99,-15.5 857.32,-15.5 849.1,-15.5"/>
<polygon fill="midnightblue" stroke="midnightblue" points="874.8,-19 884.8,-15.5 874.8,-12 874.8,-19"/>
</g>
<!-- Node3 -->
<g id="node3" class="node">
<title>Node3</title>
<g id="a_node3"><a xlink:href="group__power-handler-function.html#ga97eb8bdd17b9c2e169f0634ebabb5d19" target="_top" xlink:title="This function initializes all peripheral modules and their instances used by the power controller.">
<polygon fill="white" stroke="black" points="574,-6 574,-25 711,-25 711,-6 574,-6"/>
<text text-anchor="middle" x="642.5" y="-13" font-family="Helvetica,sans-Serif" font-size="10.00">drv_BuckConverter_Initialize</text>
</a>
</g>
</g>
<!-- Node2&#45;&gt;Node3 -->
<g id="edge2" class="edge">
<title>Node2&#45;&gt;Node3</title>
<path fill="none" stroke="midnightblue" d="M736.69,-15.5C728.31,-15.5 719.67,-15.5 711.17,-15.5"/>
<polygon fill="midnightblue" stroke="midnightblue" points="736.74,-19 746.74,-15.5 736.74,-12 736.74,-19"/>
</g>
<!-- Node4 -->
<g id="node4" class="node">
<title>Node4</title>
<g id="a_node4"><a xlink:href="group__power-handler-function.html#ga0b26acfec74d1804384b4ba1a3cffab4" target="_top" xlink:title=" ">
<polygon fill="white" stroke="black" points="395,-0.5 395,-30.5 538,-30.5 538,-0.5 395,-0.5"/>
<text text-anchor="start" x="403" y="-18.5" font-family="Helvetica,sans-Serif" font-size="10.00">appPowerSupply_Peripherals</text>
<text text-anchor="middle" x="466.5" y="-7.5" font-family="Helvetica,sans-Serif" font-size="10.00">Initialize</text>
</a>
</g>
</g>
<!-- Node3&#45;&gt;Node4 -->
<g id="edge3" class="edge">
<title>Node3&#45;&gt;Node4</title>
<path fill="none" stroke="midnightblue" d="M563.53,-15.5C555.11,-15.5 546.58,-15.5 538.25,-15.5"/>
<polygon fill="midnightblue" stroke="midnightblue" points="563.73,-19 573.73,-15.5 563.73,-12 563.73,-19"/>
</g>
<!-- Node5 -->
<g id="node5" class="node">
<title>Node5</title>
<g id="a_node5"><a xlink:href="group__device-start-up.html#ga7a4cf6371d09457539f96a74b2809ca0" target="_top" xlink:title=" ">
<polygon fill="white" stroke="black" points="229,-6 229,-25 359,-25 359,-6 229,-6"/>
<text text-anchor="middle" x="294" y="-13" font-family="Helvetica,sans-Serif" font-size="10.00">appPowerSupply_Initialize</text>
</a>
</g>
</g>
<!-- Node4&#45;&gt;Node5 -->
<g id="edge4" class="edge">
<title>Node4&#45;&gt;Node5</title>
<path fill="none" stroke="midnightblue" d="M384.65,-15.5C376.06,-15.5 367.42,-15.5 359.07,-15.5"/>
<polygon fill="midnightblue" stroke="midnightblue" points="384.67,-19 394.67,-15.5 384.67,-12 384.67,-19"/>
</g>
<!-- Node6 -->
<g id="node6" class="node">
<title>Node6</title>
<g id="a_node6"><a xlink:href="group__system-initialization.html#ga2be64f5f0b9a2c0c6713f5a69d793e05" target="_top" xlink:title="Initializes the user&#45;defined tasks and chip resources.">
<polygon fill="white" stroke="black" points="74,-6 74,-25 193,-25 193,-6 74,-6"/>
<text text-anchor="middle" x="133.5" y="-13" font-family="Helvetica,sans-Serif" font-size="10.00">sysUserTasks_Initialize</text>
</a>
</g>
</g>
<!-- Node5&#45;&gt;Node6 -->
<g id="edge5" class="edge">
<title>Node5&#45;&gt;Node6</title>
<path fill="none" stroke="midnightblue" d="M218.9,-15.5C210.25,-15.5 201.52,-15.5 193.12,-15.5"/>
<polygon fill="midnightblue" stroke="midnightblue" points="218.99,-19 228.99,-15.5 218.99,-12 218.99,-19"/>
</g>
<!-- Node7 -->
<g id="node7" class="node">
<title>Node7</title>
<g id="a_node7"><a xlink:href="group__firmware-flow.html#ga840291bc02cba5474a4cb46a9b9566fe" target="_top" xlink:title="Application main function executed after device comes out of RESET.">
<polygon fill="white" stroke="black" points="0,-6 0,-25 38,-25 38,-6 0,-6"/>
<text text-anchor="middle" x="19" y="-13" font-family="Helvetica,sans-Serif" font-size="10.00">main</text>
</a>
</g>
</g>
<!-- Node6&#45;&gt;Node7 -->
<g id="edge6" class="edge">
<title>Node6&#45;&gt;Node7</title>
<path fill="none" stroke="midnightblue" d="M63.65,-15.5C54.29,-15.5 45.43,-15.5 38.16,-15.5"/>
<polygon fill="midnightblue" stroke="midnightblue" points="63.94,-19 73.94,-15.5 63.94,-12 63.94,-19"/>
</g>
</g>
</svg>
