<?xml version="1.0" encoding="UTF-8" standalone="no"?>
<!DOCTYPE svg PUBLIC "-//W3C//DTD SVG 1.1//EN"
 "http://www.w3.org/Graphics/SVG/1.1/DTD/svg11.dtd">
<!-- Generated by graphviz version 2.44.1 (20200629.0846)
 -->
<!-- Title: Main Loop Pages: 1 -->
<svg width="381pt" height="76pt"
 viewBox="0.00 0.00 381.00 75.50" xmlns="http://www.w3.org/2000/svg" xmlns:xlink="http://www.w3.org/1999/xlink">
<g id="graph0" class="graph" transform="scale(1 1) rotate(0) translate(4 71.5)">
<title>Main Loop</title>
<polygon fill="white" stroke="transparent" points="-4,4 -4,-71.5 377,-71.5 377,4 -4,4"/>
<!-- Node3 -->
<g id="node1" class="node">
<title>Node3</title>
<g id="a_node1"><a xlink:href="group__main-loop-low-priority.html" target="_top" xlink:title="Low priority task execution.">
<polygon fill="white" stroke="black" points="373,-67.5 235,-67.5 235,-48.5 373,-48.5 373,-67.5"/>
<text text-anchor="middle" x="304" y="-55.5" font-family="Helvetica,sans-Serif" font-size="10.00">Low&#45;Priority Task Execution</text>
</a>
</g>
</g>
<!-- Node1 -->
<g id="node2" class="node">
<title>Node1</title>
<g id="a_node2"><a xlink:title="Main Loop.">
<polygon fill="#bfbfbf" stroke="black" points="199,-45.5 137,-45.5 137,-26.5 199,-26.5 199,-45.5"/>
<text text-anchor="middle" x="168" y="-33.5" font-family="Helvetica,sans-Serif" font-size="10.00">Main Loop</text>
</a>
</g>
</g>
<!-- Node1&#45;&gt;Node3 -->
<g id="edge2" class="edge">
<title>Node1&#45;&gt;Node3</title>
<path fill="none" stroke="black" d="M209.06,-42.58C220.36,-44.43 232.89,-46.49 245.02,-48.48"/>
<polygon fill="black" stroke="black" points="209.51,-39.1 199.07,-40.94 208.37,-46.01 209.51,-39.1"/>
</g>
<!-- Node4 -->
<g id="node4" class="node">
<title>Node4</title>
<g id="a_node4"><a xlink:href="group__main-loop-high-priority.html" target="_top" xlink:title="High priority task execution.">
<polygon fill="white" stroke="black" points="351,-30 257,-30 257,0 351,0 351,-30"/>
<text text-anchor="start" x="265" y="-18" font-family="Helvetica,sans-Serif" font-size="10.00">High&#45;Priority Task</text>
<text text-anchor="middle" x="304" y="-7" font-family="Helvetica,sans-Serif" font-size="10.00"> Execution</text>
</a>
</g>
</g>
<!-- Node1&#45;&gt;Node4 -->
<g id="edge3" class="edge">
<title>Node1&#45;&gt;Node4</title>
<path fill="none" stroke="black" d="M209.11,-29.71C224.17,-27.35 241.41,-24.65 256.97,-22.21"/>
<polygon fill="black" stroke="black" points="208.41,-26.28 199.07,-31.29 209.49,-33.2 208.41,-26.28"/>
</g>
<!-- Node2 -->
<g id="node3" class="node">
<title>Node2</title>
<g id="a_node3"><a xlink:href="group__firmware-flow.html" target="_top" xlink:title="Firmware Flowchart.">
<polygon fill="white" stroke="black" points="101,-45.5 0,-45.5 0,-26.5 101,-26.5 101,-45.5"/>
<text text-anchor="middle" x="50.5" y="-33.5" font-family="Helvetica,sans-Serif" font-size="10.00">Firmware Flowchart</text>
</a>
</g>
</g>
<!-- Node2&#45;&gt;Node1 -->
<g id="edge1" class="edge">
<title>Node2&#45;&gt;Node1</title>
<path fill="none" stroke="black" d="M111.43,-36C120.21,-36 128.91,-36 136.74,-36"/>
<polygon fill="black" stroke="black" points="111.15,-32.5 101.15,-36 111.15,-39.5 111.15,-32.5"/>
</g>
</g>
</svg>
