<?xml version="1.0" encoding="UTF-8" standalone="no"?>
<!DOCTYPE svg PUBLIC "-//W3C//DTD SVG 1.1//EN"
 "http://www.w3.org/Graphics/SVG/1.1/DTD/svg11.dtd">
<!-- Generated by graphviz version 2.44.1 (20200629.0846)
 -->
<!-- Title: drv_FaultCheck Pages: 1 -->
<svg width="329pt" height="28pt"
 viewBox="0.00 0.00 329.00 28.00" xmlns="http://www.w3.org/2000/svg" xmlns:xlink="http://www.w3.org/1999/xlink">
<g id="graph0" class="graph" transform="scale(1 1) rotate(0) translate(4 24)">
<title>drv_FaultCheck</title>
<polygon fill="white" stroke="transparent" points="-4,4 -4,-24 325,-24 325,4 -4,4"/>
<!-- Node1 -->
<g id="node1" class="node">
<title>Node1</title>
<g id="a_node1"><a xlink:title="Check current fault status of a user&#45;defined fault object.">
<polygon fill="#bfbfbf" stroke="black" points="238,-0.5 238,-19.5 321,-19.5 321,-0.5 238,-0.5"/>
<text text-anchor="middle" x="279.5" y="-7.5" font-family="Helvetica,sans-Serif" font-size="10.00">drv_FaultCheck</text>
</a>
</g>
</g>
<!-- Node2 -->
<g id="node2" class="node">
<title>Node2</title>
<g id="a_node2"><a xlink:href="group__main-loop.html#ga8842f6a41fe23f932a8864fc140c4b5b" target="_top" xlink:title="Application wide fault object monitoring routine.">
<polygon fill="white" stroke="black" points="74,-0.5 74,-19.5 202,-19.5 202,-0.5 74,-0.5"/>
<text text-anchor="middle" x="138" y="-7.5" font-family="Helvetica,sans-Serif" font-size="10.00">appFaultMonitor_Execute</text>
</a>
</g>
</g>
<!-- Node1&#45;&gt;Node2 -->
<g id="edge1" class="edge">
<title>Node1&#45;&gt;Node2</title>
<path fill="none" stroke="midnightblue" d="M227.54,-10C219.27,-10 210.61,-10 202.09,-10"/>
<polygon fill="midnightblue" stroke="midnightblue" points="227.78,-13.5 237.78,-10 227.78,-6.5 227.78,-13.5"/>
</g>
<!-- Node3 -->
<g id="node3" class="node">
<title>Node3</title>
<g id="a_node3"><a xlink:href="group__firmware-flow.html#ga840291bc02cba5474a4cb46a9b9566fe" target="_top" xlink:title="Application main function executed after device comes out of RESET.">
<polygon fill="white" stroke="black" points="0,-0.5 0,-19.5 38,-19.5 38,-0.5 0,-0.5"/>
<text text-anchor="middle" x="19" y="-7.5" font-family="Helvetica,sans-Serif" font-size="10.00">main</text>
</a>
</g>
</g>
<!-- Node2&#45;&gt;Node3 -->
<g id="edge2" class="edge">
<title>Node2&#45;&gt;Node3</title>
<path fill="none" stroke="midnightblue" d="M63.52,-10C54.29,-10 45.59,-10 38.43,-10"/>
<polygon fill="midnightblue" stroke="midnightblue" points="63.71,-13.5 73.71,-10 63.71,-6.5 63.71,-13.5"/>
</g>
</g>
</svg>
