<?xml version="1.0" encoding="UTF-8" standalone="no"?>
<!DOCTYPE svg PUBLIC "-//W3C//DTD SVG 1.1//EN"
 "http://www.w3.org/Graphics/SVG/1.1/DTD/svg11.dtd">
<!-- Generated by graphviz version 2.44.1 (20200629.0846)
 -->
<!-- Title: Phase Current Feedback Pages: 1 -->
<svg width="466pt" height="101pt"
 viewBox="0.00 0.00 466.00 101.00" xmlns="http://www.w3.org/2000/svg" xmlns:xlink="http://www.w3.org/1999/xlink">
<g id="graph0" class="graph" transform="scale(1 1) rotate(0) translate(4 97)">
<title>Phase Current Feedback</title>
<polygon fill="white" stroke="transparent" points="-4,4 -4,-97 462,-97 462,4 -4,4"/>
<!-- Node2 -->
<g id="node1" class="node">
<title>Node2</title>
<g id="a_node1"><a xlink:href="group__abstraction-layer.html" target="_top" xlink:title="Abstraction Layer Defines.">
<polygon fill="white" stroke="black" points="128,-56 0,-56 0,-37 128,-37 128,-56"/>
<text text-anchor="middle" x="64" y="-44" font-family="Helvetica,sans-Serif" font-size="10.00">Abstraction Layer Defines</text>
</a>
</g>
</g>
<!-- Node1 -->
<g id="node4" class="node">
<title>Node1</title>
<g id="a_node4"><a xlink:title="Declaration of phase current feedback parameters.">
<polygon fill="#bfbfbf" stroke="black" points="289,-56 164,-56 164,-37 289,-37 289,-56"/>
<text text-anchor="middle" x="226.5" y="-44" font-family="Helvetica,sans-Serif" font-size="10.00">Phase Current Feedback</text>
</a>
</g>
</g>
<!-- Node2&#45;&gt;Node1 -->
<g id="edge1" class="edge">
<title>Node2&#45;&gt;Node1</title>
<path fill="none" stroke="black" d="M138.64,-46.5C147.07,-46.5 155.59,-46.5 163.84,-46.5"/>
<polygon fill="black" stroke="black" points="138.43,-43 128.43,-46.5 138.43,-50 138.43,-43"/>
</g>
<!-- Node4 -->
<g id="node2" class="node">
<title>Node4</title>
<g id="a_node2"><a xlink:href="group__phase-current-feedback-macros.html" target="_top" xlink:title="Conversion macros for user&#45;declarations of phase current feedback parameters.">
<polygon fill="white" stroke="black" points="441,-93 342,-93 342,-74 441,-74 441,-93"/>
<text text-anchor="middle" x="391.5" y="-81" font-family="Helvetica,sans-Serif" font-size="10.00">Conversion Macros</text>
</a>
</g>
</g>
<!-- Node3 -->
<g id="node3" class="node">
<title>Node3</title>
<g id="a_node3"><a xlink:href="group__phase-current-feedback-settings.html" target="_top" xlink:title="User&#45;declaration of phase current feedback parameters using physical quantities.">
<polygon fill="white" stroke="black" points="429.5,-56 353.5,-56 353.5,-37 429.5,-37 429.5,-56"/>
<text text-anchor="middle" x="391.5" y="-44" font-family="Helvetica,sans-Serif" font-size="10.00">User Settings</text>
</a>
</g>
</g>
<!-- Node1&#45;&gt;Node4 -->
<g id="edge3" class="edge">
<title>Node1&#45;&gt;Node4</title>
<path fill="none" stroke="black" d="M279.43,-58.29C301.69,-63.34 327.34,-69.16 348.38,-73.94"/>
<polygon fill="black" stroke="black" points="280,-54.83 269.48,-56.03 278.45,-61.66 280,-54.83"/>
</g>
<!-- Node1&#45;&gt;Node3 -->
<g id="edge2" class="edge">
<title>Node1&#45;&gt;Node3</title>
<path fill="none" stroke="black" d="M299.13,-46.5C317.85,-46.5 337.28,-46.5 353.39,-46.5"/>
<polygon fill="black" stroke="black" points="299.12,-43 289.12,-46.5 299.12,-50 299.12,-43"/>
</g>
<!-- Node5 -->
<g id="node5" class="node">
<title>Node5</title>
<g id="a_node5"><a xlink:href="group__phase-current-feedback-mcal.html" target="_top" xlink:title="Device analog input pin, register and interupt vector assignments of phase current feedback signal(s)">
<polygon fill="white" stroke="black" points="458,-19 325,-19 325,0 458,0 458,-19"/>
<text text-anchor="middle" x="391.5" y="-7" font-family="Helvetica,sans-Serif" font-size="10.00">Microcontroller Abstraction</text>
</a>
</g>
</g>
<!-- Node1&#45;&gt;Node5 -->
<g id="edge4" class="edge">
<title>Node1&#45;&gt;Node5</title>
<path fill="none" stroke="black" d="M279.43,-34.71C301.69,-29.66 327.34,-23.84 348.38,-19.06"/>
<polygon fill="black" stroke="black" points="278.45,-31.34 269.48,-36.97 280,-38.17 278.45,-31.34"/>
</g>
</g>
</svg>
