<?xml version="1.0" encoding="UTF-8" standalone="no"?>
<!DOCTYPE svg PUBLIC "-//W3C//DTD SVG 1.1//EN"
 "http://www.w3.org/Graphics/SVG/1.1/DTD/svg11.dtd">
<!-- Generated by graphviz version 2.44.1 (20200629.0846)
 -->
<!-- Title: drv_BuckConverter_Execute Pages: 1 -->
<!--zoomable 218 -->
<svg id="main" version="1.1" xmlns="http://www.w3.org/2000/svg" xmlns:xlink="http://www.w3.org/1999/xlink" xml:space="preserve" onload="init(evt)">
<style type="text/css"><![CDATA[
.edge:hover path { stroke: red; }
.edge:hover polygon { stroke: red; fill: red; }
]]></style>
<script type="text/javascript"><![CDATA[
var edges = document.getElementsByTagName('g');
if (edges && edges.length) {
  for (var i=0;i<edges.length;i++) {
    if (edges[i].id.substr(0,4)=='edge') {
      edges[i].setAttribute('class','edge');
    }
  }
}
]]></script>
        <defs>
                <circle id="rim" cx="0" cy="0" r="7"/>
                <circle id="rim2" cx="0" cy="0" r="3.5"/>
                <g id="zoomPlus">
                        <use xlink:href="#rim" fill="#404040">
                                <set attributeName="fill" to="#808080" begin="zoomplus.mouseover" end="zoomplus.mouseout"/>
                        </use>
                        <path d="M-4,0h8M0,-4v8" fill="none" stroke="white" stroke-width="1.5" pointer-events="none"/>
                </g>
                <g id="zoomMin">
                        <use xlink:href="#rim" fill="#404040">
                                <set attributeName="fill" to="#808080" begin="zoomminus.mouseover" end="zoomminus.mouseout"/>
                        </use>
                        <path d="M-4,0h8" fill="none" stroke="white" stroke-width="1.5" pointer-events="none"/>
                </g>
                <g id="dirArrow">
                        <path fill="none" stroke="white" stroke-width="1.5" d="M0,-3.0v7 M-2.5,-0.5L0,-3.0L2.5,-0.5"/>
                </g>
               <g id="resetDef">
                       <use xlink:href="#rim2" fill="#404040">
                               <set attributeName="fill" to="#808080" begin="reset.mouseover" end="reset.mouseout"/>
                       </use>
               </g>
        </defs>

<script type="text/javascript">
var viewWidth = 729;
var viewHeight = 218;
var sectionId = 'dynsection-31';
</script>
<script xlink:href="svgpan.js"/>
<svg id="graph" class="graph">
<g id="viewport">
<title>drv_BuckConverter_Execute</title>
<polygon fill="white" stroke="transparent" points="-4,4 -4,-214 725,-214 725,4 -4,4"/>
<!-- Node1 -->
<g id="node1" class="node">
<title>Node1</title>
<g id="a_node1"><a xlink:title="This function is the main buck converter state machine executing the most recent state.">
<polygon fill="#bfbfbf" stroke="black" points="583,-152.5 583,-171.5 721,-171.5 721,-152.5 583,-152.5"/>
<text text-anchor="middle" x="652" y="-159.5" font-family="Helvetica,sans-Serif" font-size="10.00">drv_BuckConverter_Execute</text>
</a>
</g>
</g>
<!-- Node2 -->
<g id="node2" class="node">
<title>Node2</title>
<g id="a_node2"><a xlink:href="group__main-loop.html#ga13094235dd6cc123d9299925359ca178" target="_top" xlink:title="This is the top&#45;level function call triggering the most recent state machine of all associated power ...">
<polygon fill="white" stroke="black" points="239,-190.5 239,-209.5 370,-209.5 370,-190.5 239,-190.5"/>
<text text-anchor="middle" x="304.5" y="-197.5" font-family="Helvetica,sans-Serif" font-size="10.00">appPowerSupply_Execute</text>
</a>
</g>
</g>
<!-- Node1&#45;&gt;Node2 -->
<g id="edge1" class="edge">
<title>Node1&#45;&gt;Node2</title>
<path fill="none" stroke="midnightblue" d="M594.66,-173.38C579.26,-176.19 562.53,-178.98 547,-181 487.26,-188.79 418.76,-193.81 370.01,-196.72"/>
<polygon fill="midnightblue" stroke="midnightblue" points="595.38,-176.8 604.57,-171.53 594.09,-169.92 595.38,-176.8"/>
</g>
<!-- Node4 -->
<g id="node4" class="node">
<title>Node4</title>
<g id="a_node4"><a xlink:href="group__power-handler-function.html#gaf73787b6b72bc61786a39b9c7e47f6c6" target="_top" xlink:title="Description">
<polygon fill="white" stroke="black" points="408,-152.5 408,-171.5 546,-171.5 546,-152.5 408,-152.5"/>
<text text-anchor="middle" x="477" y="-159.5" font-family="Helvetica,sans-Serif" font-size="10.00">drv_BuckConverter_Resume</text>
</a>
</g>
</g>
<!-- Node1&#45;&gt;Node4 -->
<g id="edge3" class="edge">
<title>Node1&#45;&gt;Node4</title>
<path fill="none" stroke="midnightblue" d="M572.41,-162C563.65,-162 554.78,-162 546.16,-162"/>
<polygon fill="midnightblue" stroke="midnightblue" points="572.63,-165.5 582.63,-162 572.63,-158.5 572.63,-165.5"/>
</g>
<!-- Node7 -->
<g id="node7" class="node">
<title>Node7</title>
<g id="a_node7"><a xlink:href="group__power-handler-function.html#ga3287d86e7c3eecaa97d4bdf590ed0a15" target="_top" xlink:title="Description">
<polygon fill="white" stroke="black" points="407,-95.5 407,-114.5 547,-114.5 547,-95.5 407,-95.5"/>
<text text-anchor="middle" x="477" y="-102.5" font-family="Helvetica,sans-Serif" font-size="10.00">drv_BuckConverter_Suspend</text>
</a>
</g>
</g>
<!-- Node1&#45;&gt;Node7 -->
<g id="edge7" class="edge">
<title>Node1&#45;&gt;Node7</title>
<path fill="none" stroke="midnightblue" d="M612.18,-149.21C580.31,-138.71 535.9,-124.08 507.05,-114.57"/>
<polygon fill="midnightblue" stroke="midnightblue" points="611.45,-152.65 622.04,-152.46 613.64,-146.01 611.45,-152.65"/>
</g>
<!-- Node3 -->
<g id="node3" class="node">
<title>Node3</title>
<g id="a_node3"><a xlink:href="group__firmware-flow.html#ga840291bc02cba5474a4cb46a9b9566fe" target="_top" xlink:title="Application main function executed after device comes out of RESET.">
<polygon fill="white" stroke="black" points="0,-171.5 0,-190.5 38,-190.5 38,-171.5 0,-171.5"/>
<text text-anchor="middle" x="19" y="-178.5" font-family="Helvetica,sans-Serif" font-size="10.00">main</text>
</a>
</g>
</g>
<!-- Node2&#45;&gt;Node3 -->
<g id="edge2" class="edge">
<title>Node2&#45;&gt;Node3</title>
<path fill="none" stroke="midnightblue" d="M228.68,-194.99C164.15,-190.66 75.62,-184.73 38.04,-182.21"/>
<polygon fill="midnightblue" stroke="midnightblue" points="228.6,-198.49 238.81,-195.66 229.07,-191.5 228.6,-198.49"/>
</g>
<!-- Node5 -->
<g id="node5" class="node">
<title>Node5</title>
<g id="a_node5"><a xlink:href="group__power-handler-function.html#ga3c7bf6b771bc1296401a270da4a95bff" target="_top" xlink:title="Description">
<polygon fill="white" stroke="black" points="239,-152.5 239,-171.5 370,-171.5 370,-152.5 239,-152.5"/>
<text text-anchor="middle" x="304.5" y="-159.5" font-family="Helvetica,sans-Serif" font-size="10.00">appPowerSupply_Resume</text>
</a>
</g>
</g>
<!-- Node4&#45;&gt;Node5 -->
<g id="edge4" class="edge">
<title>Node4&#45;&gt;Node5</title>
<path fill="none" stroke="midnightblue" d="M397.36,-162C388.2,-162 378.94,-162 370.01,-162"/>
<polygon fill="midnightblue" stroke="midnightblue" points="397.63,-165.5 407.63,-162 397.63,-158.5 397.63,-165.5"/>
</g>
<!-- Node6 -->
<g id="node6" class="node">
<title>Node6</title>
<g id="a_node6"><a xlink:href="group__main-loop.html#ga8842f6a41fe23f932a8864fc140c4b5b" target="_top" xlink:title="Application wide fault object monitoring routine.">
<polygon fill="white" stroke="black" points="74,-152.5 74,-171.5 202,-171.5 202,-152.5 74,-152.5"/>
<text text-anchor="middle" x="138" y="-159.5" font-family="Helvetica,sans-Serif" font-size="10.00">appFaultMonitor_Execute</text>
</a>
</g>
</g>
<!-- Node5&#45;&gt;Node6 -->
<g id="edge5" class="edge">
<title>Node5&#45;&gt;Node6</title>
<path fill="none" stroke="midnightblue" d="M228.89,-162C219.91,-162 210.8,-162 202.01,-162"/>
<polygon fill="midnightblue" stroke="midnightblue" points="228.96,-165.5 238.96,-162 228.96,-158.5 228.96,-165.5"/>
</g>
<!-- Node6&#45;&gt;Node3 -->
<g id="edge6" class="edge">
<title>Node6&#45;&gt;Node3</title>
<path fill="none" stroke="midnightblue" d="M67.97,-173.21C56.97,-175 46.5,-176.7 38.15,-178.05"/>
<polygon fill="midnightblue" stroke="midnightblue" points="68.85,-176.61 78.16,-171.56 67.73,-169.7 68.85,-176.61"/>
</g>
<!-- Node8 -->
<g id="node8" class="node">
<title>Node8</title>
<g id="a_node8"><a xlink:href="group__power-handler-function.html#gafa4e90d260e60cf20f06acee067c39cd" target="_top" xlink:title="Description">
<polygon fill="white" stroke="black" points="238,-76.5 238,-95.5 371,-95.5 371,-76.5 238,-76.5"/>
<text text-anchor="middle" x="304.5" y="-83.5" font-family="Helvetica,sans-Serif" font-size="10.00">appPowerSupply_Suspend</text>
</a>
</g>
</g>
<!-- Node7&#45;&gt;Node8 -->
<g id="edge8" class="edge">
<title>Node7&#45;&gt;Node8</title>
<path fill="none" stroke="midnightblue" d="M396.69,-96.16C388.16,-95.21 379.55,-94.25 371.21,-93.32"/>
<polygon fill="midnightblue" stroke="midnightblue" points="396.32,-99.64 406.65,-97.27 397.1,-92.69 396.32,-99.64"/>
</g>
<!-- Node9 -->
<g id="node9" class="node">
<title>Node9</title>
<g id="a_node9"><a xlink:href="group__fault-handler-function.html#ga54f9db91ea0782b08aa16ee77a57c5e5" target="_top" xlink:title=" ">
<polygon fill="white" stroke="black" points="90.5,-114.5 90.5,-133.5 185.5,-133.5 185.5,-114.5 90.5,-114.5"/>
<text text-anchor="middle" x="138" y="-121.5" font-family="Helvetica,sans-Serif" font-size="10.00">ocp_FaultInitialize</text>
</a>
</g>
</g>
<!-- Node8&#45;&gt;Node9 -->
<g id="edge9" class="edge">
<title>Node8&#45;&gt;Node9</title>
<path fill="none" stroke="midnightblue" d="M252,-97.9C228.88,-103.24 201.97,-109.45 180.21,-114.48"/>
<polygon fill="midnightblue" stroke="midnightblue" points="253.03,-101.25 261.99,-95.59 251.46,-94.43 253.03,-101.25"/>
</g>
<!-- Node10 -->
<g id="node10" class="node">
<title>Node10</title>
<g id="a_node10"><a xlink:href="group__fault-handler-function.html#gade437244e8f6e5ff7c57a73442063350" target="_top" xlink:title=" ">
<polygon fill="white" stroke="black" points="90.5,-76.5 90.5,-95.5 185.5,-95.5 185.5,-76.5 90.5,-76.5"/>
<text text-anchor="middle" x="138" y="-83.5" font-family="Helvetica,sans-Serif" font-size="10.00">ovlo_FaultInitialize</text>
</a>
</g>
</g>
<!-- Node8&#45;&gt;Node10 -->
<g id="edge10" class="edge">
<title>Node8&#45;&gt;Node10</title>
<path fill="none" stroke="midnightblue" d="M227.29,-86C213.12,-86 198.71,-86 185.75,-86"/>
<polygon fill="midnightblue" stroke="midnightblue" points="227.54,-89.5 237.54,-86 227.54,-82.5 227.54,-89.5"/>
</g>
<!-- Node11 -->
<g id="node11" class="node">
<title>Node11</title>
<g id="a_node11"><a xlink:href="group__fault-handler-function.html#ga82dc317e3adac0308e5ac3f5ad321605" target="_top" xlink:title=" ">
<polygon fill="white" stroke="black" points="86,-38.5 86,-57.5 190,-57.5 190,-38.5 86,-38.5"/>
<text text-anchor="middle" x="138" y="-45.5" font-family="Helvetica,sans-Serif" font-size="10.00">regerr_FaultInitialize</text>
</a>
</g>
</g>
<!-- Node8&#45;&gt;Node11 -->
<g id="edge11" class="edge">
<title>Node8&#45;&gt;Node11</title>
<path fill="none" stroke="midnightblue" d="M252,-74.1C228.88,-68.76 201.97,-62.55 180.21,-57.52"/>
<polygon fill="midnightblue" stroke="midnightblue" points="251.46,-77.57 261.99,-76.41 253.03,-70.75 251.46,-77.57"/>
</g>
<!-- Node12 -->
<g id="node12" class="node">
<title>Node12</title>
<g id="a_node12"><a xlink:href="group__fault-handler-function.html#ga9441220f8a7d4a6805467d04b734e6b5" target="_top" xlink:title=" ">
<polygon fill="white" stroke="black" points="90.5,-0.5 90.5,-19.5 185.5,-19.5 185.5,-0.5 90.5,-0.5"/>
<text text-anchor="middle" x="138" y="-7.5" font-family="Helvetica,sans-Serif" font-size="10.00">uvlo_FaultInitialize</text>
</a>
</g>
</g>
<!-- Node8&#45;&gt;Node12 -->
<g id="edge12" class="edge">
<title>Node8&#45;&gt;Node12</title>
<path fill="none" stroke="midnightblue" d="M280.41,-71.1C260.3,-58.61 230.06,-40.94 202,-29 193.59,-25.42 184.28,-22.22 175.46,-19.52"/>
<polygon fill="midnightblue" stroke="midnightblue" points="278.56,-74.07 288.89,-76.44 282.29,-68.15 278.56,-74.07"/>
</g>
</g>
</svg>
        <g id="navigator" transform="translate(0 0)" fill="#404254">
                <rect fill="#f2f5e9" fill-opacity="0.5" stroke="#606060" stroke-width=".5" x="0" y="0" width="60" height="60"/>
                <use id="zoomplus" xlink:href="#zoomPlus" x="17" y="9" onmousedown="handleZoom(evt,'in')"/>
                <use id="zoomminus" xlink:href="#zoomMin" x="42" y="9" onmousedown="handleZoom(evt,'out')"/>
                <use id="reset" xlink:href="#resetDef" x="30" y="36" onmousedown="handleReset()"/>
                <g id="arrowUp" xlink:href="#dirArrow" transform="translate(30 24)" onmousedown="handlePan(0,-1)">
                  <use xlink:href="#rim" fill="#404040">
                        <set attributeName="fill" to="#808080" begin="arrowUp.mouseover" end="arrowUp.mouseout"/>
                  </use>
                  <path fill="none" stroke="white" stroke-width="1.5" d="M0,-3.0v7 M-2.5,-0.5L0,-3.0L2.5,-0.5"/>
                </g>
                <g id="arrowRight" xlink:href="#dirArrow" transform="rotate(90) translate(36 -43)" onmousedown="handlePan(1,0)">
                  <use xlink:href="#rim" fill="#404040">
                        <set attributeName="fill" to="#808080" begin="arrowRight.mouseover" end="arrowRight.mouseout"/>
                  </use>
                  <path fill="none" stroke="white" stroke-width="1.5" d="M0,-3.0v7 M-2.5,-0.5L0,-3.0L2.5,-0.5"/>
                </g>
                <g id="arrowDown" xlink:href="#dirArrow" transform="rotate(180) translate(-30 -48)" onmousedown="handlePan(0,1)">
                  <use xlink:href="#rim" fill="#404040">
                        <set attributeName="fill" to="#808080" begin="arrowDown.mouseover" end="arrowDown.mouseout"/>
                  </use>
                  <path fill="none" stroke="white" stroke-width="1.5" d="M0,-3.0v7 M-2.5,-0.5L0,-3.0L2.5,-0.5"/>
                </g>
                <g id="arrowLeft" xlink:href="#dirArrow" transform="rotate(270) translate(-36 17)" onmousedown="handlePan(-1,0)">
                  <use xlink:href="#rim" fill="#404040">
                        <set attributeName="fill" to="#808080" begin="arrowLeft.mouseover" end="arrowLeft.mouseout"/>
                  </use>
                  <path fill="none" stroke="white" stroke-width="1.5" d="M0,-3.0v7 M-2.5,-0.5L0,-3.0L2.5,-0.5"/>
                </g>
        </g>
        <svg viewBox="0 0 15 15" width="100%" height="30px" preserveAspectRatio="xMaxYMin meet">
         <g id="arrow_out" transform="scale(0.3 0.3)">
          <a xlink:href="group__power-handler-function_ga75498c59a10db0738113104a547d8d0d_icgraph_org.svg" target="_base">
           <rect id="button" ry="5" rx="5" y="6" x="6" height="38" width="38"
                fill="#f2f5e9" fill-opacity="0.5" stroke="#606060" stroke-width="1.0"/>
           <path id="arrow"
             d="M 11.500037,31.436501 C 11.940474,20.09759 22.043105,11.32322 32.158766,21.979434 L 37.068811,17.246167 C 37.068811,17.246167 37.088388,32 37.088388,32 L 22.160133,31.978069 C 22.160133,31.978069 26.997745,27.140456 26.997745,27.140456 C 18.528582,18.264221 13.291696,25.230495 11.500037,31.436501 z"
             style="fill:#404040;"/>
          </a>
         </g>
        </svg>
</svg>
