<?xml version="1.0" encoding="UTF-8" standalone="no"?>
<!DOCTYPE svg PUBLIC "-//W3C//DTD SVG 1.1//EN"
 "http://www.w3.org/Graphics/SVG/1.1/DTD/svg11.dtd">
<!-- Generated by graphviz version 2.44.1 (20200629.0846)
 -->
<!-- Title: Buck State Machine Pages: 1 -->
<svg width="393pt" height="138pt"
 viewBox="0.00 0.00 393.00 138.00" xmlns="http://www.w3.org/2000/svg" xmlns:xlink="http://www.w3.org/1999/xlink">
<g id="graph0" class="graph" transform="scale(1 1) rotate(0) translate(4 134)">
<title>Buck State Machine</title>
<polygon fill="white" stroke="transparent" points="-4,4 -4,-134 389,-134 389,4 -4,4"/>
<!-- Node5 -->
<g id="node1" class="node">
<title>Node5</title>
<g id="a_node1"><a xlink:href="group__lib-layer-buck-states-functions-private.html" target="_top" xlink:title="Private functions of the second library layer.">
<polygon fill="white" stroke="black" points="384.5,-130 292.5,-130 292.5,-111 384.5,-111 384.5,-130"/>
<text text-anchor="middle" x="338.5" y="-118" font-family="Helvetica,sans-Serif" font-size="10.00">Private Functions</text>
</a>
</g>
</g>
<!-- Node3 -->
<g id="node2" class="node">
<title>Node3</title>
<g id="a_node2"><a xlink:href="group__lib-layer-buck-states-functions-public.html" target="_top" xlink:title="Public functions of the second library layer.">
<polygon fill="white" stroke="black" points="383,-93 294,-93 294,-74 383,-74 383,-93"/>
<text text-anchor="middle" x="338.5" y="-81" font-family="Helvetica,sans-Serif" font-size="10.00">Public Functions</text>
</a>
</g>
</g>
<!-- Node6 -->
<g id="node3" class="node">
<title>Node6</title>
<g id="a_node3"><a xlink:href="group__lib-layer-buck-states-properties-private.html" target="_top" xlink:title="Public properties of the second library layer.">
<polygon fill="white" stroke="black" points="385,-56 292,-56 292,-37 385,-37 385,-56"/>
<text text-anchor="middle" x="338.5" y="-44" font-family="Helvetica,sans-Serif" font-size="10.00">Private Properties</text>
</a>
</g>
</g>
<!-- Node2 -->
<g id="node4" class="node">
<title>Node2</title>
<g id="a_node4"><a xlink:href="group__lib-layer-buck.html" target="_top" xlink:title=" ">
<polygon fill="white" stroke="black" points="115,-74 0,-74 0,-55 115,-55 115,-74"/>
<text text-anchor="middle" x="57.5" y="-62" font-family="Helvetica,sans-Serif" font-size="10.00">Buck Converter Library</text>
</a>
</g>
</g>
<!-- Node1 -->
<g id="node5" class="node">
<title>Node1</title>
<g id="a_node5"><a xlink:title=" ">
<polygon fill="#bfbfbf" stroke="black" points="256,-74 151,-74 151,-55 256,-55 256,-74"/>
<text text-anchor="middle" x="203.5" y="-62" font-family="Helvetica,sans-Serif" font-size="10.00">Buck State Machine</text>
</a>
</g>
</g>
<!-- Node2&#45;&gt;Node1 -->
<g id="edge1" class="edge">
<title>Node2&#45;&gt;Node1</title>
<path fill="none" stroke="black" d="M125.61,-64.5C134.03,-64.5 142.54,-64.5 150.68,-64.5"/>
<polygon fill="black" stroke="black" points="125.41,-61 115.41,-64.5 125.41,-68 125.41,-61"/>
</g>
<!-- Node1&#45;&gt;Node5 -->
<g id="edge4" class="edge">
<title>Node1&#45;&gt;Node5</title>
<path fill="none" stroke="black" d="M235.28,-78.16C252,-85.51 273.07,-94.65 292,-102.5 298.75,-105.3 306.1,-108.25 312.88,-110.93"/>
<polygon fill="black" stroke="black" points="236.55,-74.9 225.99,-74.07 233.73,-81.3 236.55,-74.9"/>
</g>
<!-- Node1&#45;&gt;Node3 -->
<g id="edge2" class="edge">
<title>Node1&#45;&gt;Node3</title>
<path fill="none" stroke="black" d="M266.3,-73.33C275.59,-74.66 285,-76 293.81,-77.26"/>
<polygon fill="black" stroke="black" points="266.7,-69.85 256.3,-71.9 265.71,-76.78 266.7,-69.85"/>
</g>
<!-- Node1&#45;&gt;Node6 -->
<g id="edge5" class="edge">
<title>Node1&#45;&gt;Node6</title>
<path fill="none" stroke="black" d="M266.27,-56.14C274.82,-54.98 283.49,-53.81 291.68,-52.7"/>
<polygon fill="black" stroke="black" points="265.74,-52.68 256.3,-57.49 266.68,-59.62 265.74,-52.68"/>
</g>
<!-- Node4 -->
<g id="node6" class="node">
<title>Node4</title>
<g id="a_node6"><a xlink:href="group__lib-layer-buck-states-properties-public.html" target="_top" xlink:title="Public properties of the second library layer.">
<polygon fill="white" stroke="black" points="384,-19 293,-19 293,0 384,0 384,-19"/>
<text text-anchor="middle" x="338.5" y="-7" font-family="Helvetica,sans-Serif" font-size="10.00">Public Properties</text>
</a>
</g>
</g>
<!-- Node1&#45;&gt;Node4 -->
<g id="edge3" class="edge">
<title>Node1&#45;&gt;Node4</title>
<path fill="none" stroke="black" d="M236,-50.97C252.62,-43.89 273.37,-35.12 292,-27.5 298.76,-24.73 306.12,-21.79 312.9,-19.11"/>
<polygon fill="black" stroke="black" points="234.56,-47.78 226.74,-54.93 237.31,-54.22 234.56,-47.78"/>
</g>
</g>
</svg>
