<?xml version="1.0" encoding="UTF-8" standalone="no"?>
<!DOCTYPE svg PUBLIC "-//W3C//DTD SVG 1.1//EN"
 "http://www.w3.org/Graphics/SVG/1.1/DTD/svg11.dtd">
<!-- Generated by graphviz version 2.44.1 (20200629.0846)
 -->
<!-- Title: Adaptive Gain Control Feed Forward Pages: 1 -->
<svg width="445pt" height="101pt"
 viewBox="0.00 0.00 445.00 101.00" xmlns="http://www.w3.org/2000/svg" xmlns:xlink="http://www.w3.org/1999/xlink">
<g id="graph0" class="graph" transform="scale(1 1) rotate(0) translate(4 97)">
<title>Adaptive Gain Control Feed Forward</title>
<polygon fill="white" stroke="transparent" points="-4,4 -4,-97 441,-97 441,4 -4,4"/>
<!-- Node2 -->
<g id="node1" class="node">
<title>Node2</title>
<g id="a_node1"><a xlink:href="group__abstraction-layer.html" target="_top" xlink:title="Abstraction Layer Defines.">
<polygon fill="white" stroke="black" points="128,-56 0,-56 0,-37 128,-37 128,-56"/>
<text text-anchor="middle" x="64" y="-44" font-family="Helvetica,sans-Serif" font-size="10.00">Abstraction Layer Defines</text>
</a>
</g>
</g>
<!-- Node1 -->
<g id="node3" class="node">
<title>Node1</title>
<g id="a_node3"><a xlink:title="Description:">
<polygon fill="#bfbfbf" stroke="black" points="274,-61.5 164,-61.5 164,-31.5 274,-31.5 274,-61.5"/>
<text text-anchor="start" x="172" y="-49.5" font-family="Helvetica,sans-Serif" font-size="10.00">Adaptive Gain Control</text>
<text text-anchor="middle" x="219" y="-38.5" font-family="Helvetica,sans-Serif" font-size="10.00"> Feed Forward</text>
</a>
</g>
</g>
<!-- Node2&#45;&gt;Node1 -->
<g id="edge1" class="edge">
<title>Node2&#45;&gt;Node1</title>
<path fill="none" stroke="black" d="M138.19,-46.5C146.83,-46.5 155.51,-46.5 163.82,-46.5"/>
<polygon fill="black" stroke="black" points="138.11,-43 128.11,-46.5 138.11,-50 138.11,-43"/>
</g>
<!-- Node3 -->
<g id="node2" class="node">
<title>Node3</title>
<g id="a_node2"><a xlink:href="group__startup-behavior.html" target="_top" xlink:title="Global defines for soft&#45;start specific parameters.">
<polygon fill="white" stroke="black" points="417.5,-93 329.5,-93 329.5,-74 417.5,-74 417.5,-93"/>
<text text-anchor="middle" x="373.5" y="-81" font-family="Helvetica,sans-Serif" font-size="10.00">Startup Behavior</text>
</a>
</g>
</g>
<!-- Node1&#45;&gt;Node3 -->
<g id="edge2" class="edge">
<title>Node1&#45;&gt;Node3</title>
<path fill="none" stroke="black" d="M283.95,-62.02C300.71,-66.08 318.29,-70.35 333.33,-74"/>
<polygon fill="black" stroke="black" points="284.74,-58.61 274.2,-59.65 283.09,-65.41 284.74,-58.61"/>
</g>
<!-- Node5 -->
<g id="node4" class="node">
<title>Node5</title>
<g id="a_node4"><a xlink:href="group__controller-declarations.html" target="_top" xlink:title="Description">
<polygon fill="white" stroke="black" points="431,-56 316,-56 316,-37 431,-37 431,-56"/>
<text text-anchor="middle" x="373.5" y="-44" font-family="Helvetica,sans-Serif" font-size="10.00">Controller Declarations</text>
</a>
</g>
</g>
<!-- Node1&#45;&gt;Node5 -->
<g id="edge4" class="edge">
<title>Node1&#45;&gt;Node5</title>
<path fill="none" stroke="black" d="M284.5,-46.5C294.94,-46.5 305.67,-46.5 315.9,-46.5"/>
<polygon fill="black" stroke="black" points="284.2,-43 274.2,-46.5 284.2,-50 284.2,-43"/>
</g>
<!-- Node4 -->
<g id="node5" class="node">
<title>Node4</title>
<g id="a_node5"><a xlink:href="group__fault-object-declarations.html" target="_top" xlink:title="Global defines for fault&#45;monitor related parameters.">
<polygon fill="white" stroke="black" points="437,-19 310,-19 310,0 437,0 437,-19"/>
<text text-anchor="middle" x="373.5" y="-7" font-family="Helvetica,sans-Serif" font-size="10.00">Fault Object Declarations</text>
</a>
</g>
</g>
<!-- Node1&#45;&gt;Node4 -->
<g id="edge3" class="edge">
<title>Node1&#45;&gt;Node4</title>
<path fill="none" stroke="black" d="M283.95,-30.98C300.71,-26.92 318.29,-22.65 333.33,-19"/>
<polygon fill="black" stroke="black" points="283.09,-27.59 274.2,-33.35 284.74,-34.39 283.09,-27.59"/>
</g>
</g>
</svg>
