<?xml version="1.0" encoding="UTF-8" standalone="no"?>
<!DOCTYPE svg PUBLIC "-//W3C//DTD SVG 1.1//EN"
 "http://www.w3.org/Graphics/SVG/1.1/DTD/svg11.dtd">
<!-- Generated by graphviz version 2.44.1 (20200629.0846)
 -->
<!-- Title: Fault Monitor Application Layer Pages: 1 -->
<svg width="363pt" height="138pt"
 viewBox="0.00 0.00 363.00 138.00" xmlns="http://www.w3.org/2000/svg" xmlns:xlink="http://www.w3.org/1999/xlink">
<g id="graph0" class="graph" transform="scale(1 1) rotate(0) translate(4 134)">
<title>Fault Monitor Application Layer</title>
<polygon fill="white" stroke="transparent" points="-4,4 -4,-134 359,-134 359,4 -4,4"/>
<!-- Node3 -->
<g id="node1" class="node">
<title>Node3</title>
<g id="a_node1"><a xlink:href="group__app-layer-fault-handler-functions-public.html" target="_top" xlink:title="Public functions of the first application layer task.">
<polygon fill="white" stroke="black" points="353,-130 264,-130 264,-111 353,-111 353,-130"/>
<text text-anchor="middle" x="308.5" y="-118" font-family="Helvetica,sans-Serif" font-size="10.00">Public Functions</text>
</a>
</g>
</g>
<!-- Node6 -->
<g id="node2" class="node">
<title>Node6</title>
<g id="a_node2"><a xlink:href="group__app-layer-fault-monitor-properties-private.html" target="_top" xlink:title="Private properties of the first application layer task.">
<polygon fill="white" stroke="black" points="355,-93 262,-93 262,-74 355,-74 355,-93"/>
<text text-anchor="middle" x="308.5" y="-81" font-family="Helvetica,sans-Serif" font-size="10.00">Private Properties</text>
</a>
</g>
</g>
<!-- Node1 -->
<g id="node3" class="node">
<title>Node1</title>
<g id="a_node3"><a xlink:title=" ">
<polygon fill="#bfbfbf" stroke="black" points="226,-79.5 101,-79.5 101,-49.5 226,-49.5 226,-79.5"/>
<text text-anchor="start" x="109" y="-67.5" font-family="Helvetica,sans-Serif" font-size="10.00">Fault Monitor Application</text>
<text text-anchor="middle" x="163.5" y="-56.5" font-family="Helvetica,sans-Serif" font-size="10.00"> Layer</text>
</a>
</g>
</g>
<!-- Node1&#45;&gt;Node3 -->
<g id="edge2" class="edge">
<title>Node1&#45;&gt;Node3</title>
<path fill="none" stroke="black" d="M212.36,-83.24C236.07,-92.53 263.67,-103.34 283.02,-110.92"/>
<polygon fill="black" stroke="black" points="213.41,-79.89 202.82,-79.51 210.86,-86.41 213.41,-79.89"/>
</g>
<!-- Node1&#45;&gt;Node6 -->
<g id="edge5" class="edge">
<title>Node1&#45;&gt;Node6</title>
<path fill="none" stroke="black" d="M236.51,-74.07C245.15,-75.22 253.78,-76.36 261.9,-77.44"/>
<polygon fill="black" stroke="black" points="236.76,-70.57 226.39,-72.72 235.84,-77.51 236.76,-70.57"/>
</g>
<!-- Node4 -->
<g id="node4" class="node">
<title>Node4</title>
<g id="a_node4"><a xlink:href="group__app-layer-fault-monitor-properties-public.html" target="_top" xlink:title="Public properties of the first application layer task.">
<polygon fill="white" stroke="black" points="354,-56 263,-56 263,-37 354,-37 354,-56"/>
<text text-anchor="middle" x="308.5" y="-44" font-family="Helvetica,sans-Serif" font-size="10.00">Public Properties</text>
</a>
</g>
</g>
<!-- Node1&#45;&gt;Node4 -->
<g id="edge3" class="edge">
<title>Node1&#45;&gt;Node4</title>
<path fill="none" stroke="black" d="M236.48,-55.44C245.43,-54.31 254.38,-53.19 262.75,-52.13"/>
<polygon fill="black" stroke="black" points="235.87,-51.99 226.39,-56.71 236.75,-58.93 235.87,-51.99"/>
</g>
<!-- Node5 -->
<g id="node6" class="node">
<title>Node5</title>
<g id="a_node6"><a xlink:href="group__app-layer-fault-monitor-functions-private.html" target="_top" xlink:title="Private functions of the first application layer task.">
<polygon fill="white" stroke="black" points="354.5,-19 262.5,-19 262.5,0 354.5,0 354.5,-19"/>
<text text-anchor="middle" x="308.5" y="-7" font-family="Helvetica,sans-Serif" font-size="10.00">Private Functions</text>
</a>
</g>
</g>
<!-- Node1&#45;&gt;Node5 -->
<g id="edge4" class="edge">
<title>Node1&#45;&gt;Node5</title>
<path fill="none" stroke="black" d="M212.98,-45.86C236.3,-36.89 263.28,-26.51 282.43,-19.14"/>
<polygon fill="black" stroke="black" points="211.65,-42.61 203.58,-49.47 214.17,-49.15 211.65,-42.61"/>
</g>
<!-- Node2 -->
<g id="node5" class="node">
<title>Node2</title>
<g id="a_node5"><a xlink:href="group__task-layer.html" target="_top" xlink:title="Task Layer.">
<polygon fill="white" stroke="black" points="65,-74 0,-74 0,-55 65,-55 65,-74"/>
<text text-anchor="middle" x="32.5" y="-62" font-family="Helvetica,sans-Serif" font-size="10.00">Task Layer</text>
</a>
</g>
</g>
<!-- Node2&#45;&gt;Node1 -->
<g id="edge1" class="edge">
<title>Node2&#45;&gt;Node1</title>
<path fill="none" stroke="black" d="M75.09,-64.5C83.29,-64.5 92.05,-64.5 100.75,-64.5"/>
<polygon fill="black" stroke="black" points="75.06,-61 65.06,-64.5 75.06,-68 75.06,-61"/>
</g>
</g>
</svg>
