<?xml version="1.0" encoding="UTF-8" standalone="no"?>
<!DOCTYPE svg PUBLIC "-//W3C//DTD SVG 1.1//EN"
 "http://www.w3.org/Graphics/SVG/1.1/DTD/svg11.dtd">
<!-- Generated by graphviz version 2.44.1 (20200629.0846)
 -->
<!-- Title: Peripheral Register Abstraction Layer Header File Pages: 1 -->
<svg width="342pt" height="49pt"
 viewBox="0.00 0.00 342.00 49.00" xmlns="http://www.w3.org/2000/svg" xmlns:xlink="http://www.w3.org/1999/xlink">
<g id="graph0" class="graph" transform="scale(1 1) rotate(0) translate(4 45)">
<title>Peripheral Register Abstraction Layer Header File</title>
<polygon fill="white" stroke="transparent" points="-4,4 -4,-45 338,-45 338,4 -4,4"/>
<!-- Node1 -->
<g id="node1" class="node">
<title>Node1</title>
<g id="a_node1"><a xlink:title="Generic dsPIC33C Peripheral Register Abstraction Layer Header File.">
<polygon fill="#bfbfbf" stroke="black" points="334,-35.5 185,-35.5 185,-5.5 334,-5.5 334,-35.5"/>
<text text-anchor="start" x="193" y="-23.5" font-family="Helvetica,sans-Serif" font-size="10.00">Peripheral Register</text>
<text text-anchor="middle" x="259.5" y="-12.5" font-family="Helvetica,sans-Serif" font-size="10.00"> Abstraction Layer Header File</text>
</a>
</g>
</g>
<!-- Node2 -->
<g id="node2" class="node">
<title>Node2</title>
<g id="a_node2"><a xlink:href="group__device-abstraction-pral.html" target="_top" xlink:title=" ">
<polygon fill="white" stroke="black" points="149,-41 0,-41 0,0 149,0 149,-41"/>
<text text-anchor="start" x="8" y="-29" font-family="Helvetica,sans-Serif" font-size="10.00">Peripheral Special</text>
<text text-anchor="start" x="8" y="-18" font-family="Helvetica,sans-Serif" font-size="10.00"> Function Register Abstraction</text>
<text text-anchor="middle" x="74.5" y="-7" font-family="Helvetica,sans-Serif" font-size="10.00"> Drivers</text>
</a>
</g>
</g>
<!-- Node2&#45;&gt;Node1 -->
<g id="edge1" class="edge">
<title>Node2&#45;&gt;Node1</title>
<path fill="none" stroke="black" d="M159.39,-20.5C167.84,-20.5 176.38,-20.5 184.71,-20.5"/>
<polygon fill="black" stroke="black" points="159.14,-17 149.14,-20.5 159.14,-24 159.14,-17"/>
</g>
</g>
</svg>
