<?xml version="1.0" encoding="UTF-8" standalone="no"?>
<!DOCTYPE svg PUBLIC "-//W3C//DTD SVG 1.1//EN"
 "http://www.w3.org/Graphics/SVG/1.1/DTD/svg11.dtd">
<!-- Generated by graphviz version 2.44.1 (20200629.0846)
 -->
<!-- Title: drv_BuckConverter_Execute Pages: 1 -->
<svg width="1023pt" height="142pt"
 viewBox="0.00 0.00 1023.00 142.00" xmlns="http://www.w3.org/2000/svg" xmlns:xlink="http://www.w3.org/1999/xlink">
<g id="graph0" class="graph" transform="scale(1 1) rotate(0) translate(4 138)">
<title>drv_BuckConverter_Execute</title>
<polygon fill="white" stroke="transparent" points="-4,4 -4,-138 1019,-138 1019,4 -4,4"/>
<!-- Node1 -->
<g id="node1" class="node">
<title>Node1</title>
<g id="a_node1"><a xlink:title="This function is the main buck converter state machine executing the most recent state.">
<polygon fill="#bfbfbf" stroke="black" points="877,-76.5 877,-95.5 1015,-95.5 1015,-76.5 877,-76.5"/>
<text text-anchor="middle" x="946" y="-83.5" font-family="Helvetica,sans-Serif" font-size="10.00">drv_BuckConverter_Execute</text>
</a>
</g>
</g>
<!-- Node2 -->
<g id="node2" class="node">
<title>Node2</title>
<g id="a_node2"><a xlink:href="group__power-handler-functions.html#gaf73787b6b72bc61786a39b9c7e47f6c6" target="_top" xlink:title=" ">
<polygon fill="white" stroke="black" points="702,-95.5 702,-114.5 840,-114.5 840,-95.5 702,-95.5"/>
<text text-anchor="middle" x="771" y="-102.5" font-family="Helvetica,sans-Serif" font-size="10.00">drv_BuckConverter_Resume</text>
</a>
</g>
</g>
<!-- Node1&#45;&gt;Node2 -->
<g id="edge1" class="edge">
<title>Node1&#45;&gt;Node2</title>
<path fill="none" stroke="midnightblue" d="M866.41,-94.63C857.65,-95.59 848.78,-96.57 840.16,-97.51"/>
<polygon fill="midnightblue" stroke="midnightblue" points="867.07,-98.08 876.63,-93.51 866.3,-91.12 867.07,-98.08"/>
</g>
<!-- Node4 -->
<g id="node4" class="node">
<title>Node4</title>
<g id="a_node4"><a xlink:href="group__power-handler-functions.html#ga3287d86e7c3eecaa97d4bdf590ed0a15" target="_top" xlink:title=" ">
<polygon fill="white" stroke="black" points="701,-57.5 701,-76.5 841,-76.5 841,-57.5 701,-57.5"/>
<text text-anchor="middle" x="771" y="-64.5" font-family="Helvetica,sans-Serif" font-size="10.00">drv_BuckConverter_Suspend</text>
</a>
</g>
</g>
<!-- Node1&#45;&gt;Node4 -->
<g id="edge3" class="edge">
<title>Node1&#45;&gt;Node4</title>
<path fill="none" stroke="midnightblue" d="M866.65,-77.4C858.1,-76.46 849.44,-75.51 841.01,-74.58"/>
<polygon fill="midnightblue" stroke="midnightblue" points="866.3,-80.88 876.63,-78.49 867.07,-73.92 866.3,-80.88"/>
</g>
<!-- Node3 -->
<g id="node3" class="node">
<title>Node3</title>
<g id="a_node3"><a xlink:href="group__power-control-app-layer-public.html#ga3c7bf6b771bc1296401a270da4a95bff" target="_top" xlink:title=" ">
<polygon fill="white" stroke="black" points="533,-95.5 533,-114.5 664,-114.5 664,-95.5 533,-95.5"/>
<text text-anchor="middle" x="598.5" y="-102.5" font-family="Helvetica,sans-Serif" font-size="10.00">appPowerSupply_Resume</text>
</a>
</g>
</g>
<!-- Node2&#45;&gt;Node3 -->
<g id="edge2" class="edge">
<title>Node2&#45;&gt;Node3</title>
<path fill="none" stroke="midnightblue" d="M691.36,-105C682.2,-105 672.94,-105 664.01,-105"/>
<polygon fill="midnightblue" stroke="midnightblue" points="691.63,-108.5 701.63,-105 691.63,-101.5 691.63,-108.5"/>
</g>
<!-- Node5 -->
<g id="node5" class="node">
<title>Node5</title>
<g id="a_node5"><a xlink:href="group__power-control-app-layer-public.html#gafa4e90d260e60cf20f06acee067c39cd" target="_top" xlink:title=" ">
<polygon fill="white" stroke="black" points="532,-57.5 532,-76.5 665,-76.5 665,-57.5 532,-57.5"/>
<text text-anchor="middle" x="598.5" y="-64.5" font-family="Helvetica,sans-Serif" font-size="10.00">appPowerSupply_Suspend</text>
</a>
</g>
</g>
<!-- Node4&#45;&gt;Node5 -->
<g id="edge4" class="edge">
<title>Node4&#45;&gt;Node5</title>
<path fill="none" stroke="midnightblue" d="M690.42,-67C681.98,-67 673.46,-67 665.21,-67"/>
<polygon fill="midnightblue" stroke="midnightblue" points="690.65,-70.5 700.65,-67 690.65,-63.5 690.65,-70.5"/>
</g>
<!-- Node6 -->
<g id="node6" class="node">
<title>Node6</title>
<g id="a_node6"><a xlink:href="group__fault-handler-functions.html#ga54f9db91ea0782b08aa16ee77a57c5e5" target="_top" xlink:title="Initializes the user&#45;defined fault objects for overcurrent protection.">
<polygon fill="white" stroke="black" points="396.5,-114.5 396.5,-133.5 491.5,-133.5 491.5,-114.5 396.5,-114.5"/>
<text text-anchor="middle" x="444" y="-121.5" font-family="Helvetica,sans-Serif" font-size="10.00">ocp_FaultInitialize</text>
</a>
</g>
</g>
<!-- Node5&#45;&gt;Node6 -->
<g id="edge5" class="edge">
<title>Node5&#45;&gt;Node6</title>
<path fill="none" stroke="midnightblue" d="M550.06,-79.52C543.92,-81.5 537.76,-83.67 532,-86 515.23,-92.78 512.51,-97.6 496,-105 488.5,-108.36 480.2,-111.63 472.52,-114.49"/>
<polygon fill="midnightblue" stroke="midnightblue" points="551.12,-82.85 559.64,-76.56 549.06,-76.16 551.12,-82.85"/>
</g>
<!-- Node10 -->
<g id="node10" class="node">
<title>Node10</title>
<g id="a_node10"><a xlink:href="group__fault-handler-functions.html#gade437244e8f6e5ff7c57a73442063350" target="_top" xlink:title="Initializes the user&#45;defined fault objects for overvoltage lockout.">
<polygon fill="white" stroke="black" points="396.5,-76.5 396.5,-95.5 491.5,-95.5 491.5,-76.5 396.5,-76.5"/>
<text text-anchor="middle" x="444" y="-83.5" font-family="Helvetica,sans-Serif" font-size="10.00">ovlo_FaultInitialize</text>
</a>
</g>
</g>
<!-- Node5&#45;&gt;Node10 -->
<g id="edge9" class="edge">
<title>Node5&#45;&gt;Node10</title>
<path fill="none" stroke="midnightblue" d="M521.71,-76.44C511.45,-77.72 501.18,-79 491.64,-80.19"/>
<polygon fill="midnightblue" stroke="midnightblue" points="522.45,-79.88 531.94,-75.17 521.59,-72.93 522.45,-79.88"/>
</g>
<!-- Node11 -->
<g id="node11" class="node">
<title>Node11</title>
<g id="a_node11"><a xlink:href="group__fault-handler-functions.html#ga82dc317e3adac0308e5ac3f5ad321605" target="_top" xlink:title="Initializes the user&#45;defined fault objects for regulation error.">
<polygon fill="white" stroke="black" points="392,-38.5 392,-57.5 496,-57.5 496,-38.5 392,-38.5"/>
<text text-anchor="middle" x="444" y="-45.5" font-family="Helvetica,sans-Serif" font-size="10.00">regerr_FaultInitialize</text>
</a>
</g>
</g>
<!-- Node5&#45;&gt;Node11 -->
<g id="edge11" class="edge">
<title>Node5&#45;&gt;Node11</title>
<path fill="none" stroke="midnightblue" d="M521.8,-57.57C513.14,-56.49 504.47,-55.41 496.23,-54.38"/>
<polygon fill="midnightblue" stroke="midnightblue" points="521.59,-61.07 531.94,-58.83 522.45,-54.12 521.59,-61.07"/>
</g>
<!-- Node12 -->
<g id="node12" class="node">
<title>Node12</title>
<g id="a_node12"><a xlink:href="group__fault-handler-functions.html#ga9441220f8a7d4a6805467d04b734e6b5" target="_top" xlink:title="Initializes the user&#45;defined fault objects for under&#45;voltage lockout.">
<polygon fill="white" stroke="black" points="396.5,-0.5 396.5,-19.5 491.5,-19.5 491.5,-0.5 396.5,-0.5"/>
<text text-anchor="middle" x="444" y="-7.5" font-family="Helvetica,sans-Serif" font-size="10.00">uvlo_FaultInitialize</text>
</a>
</g>
</g>
<!-- Node5&#45;&gt;Node12 -->
<g id="edge13" class="edge">
<title>Node5&#45;&gt;Node12</title>
<path fill="none" stroke="midnightblue" d="M562.63,-53.93C543.05,-46.59 518.17,-37.28 496,-29 487.77,-25.93 478.79,-22.58 470.69,-19.56"/>
<polygon fill="midnightblue" stroke="midnightblue" points="561.47,-57.23 572.06,-57.46 563.92,-50.68 561.47,-57.23"/>
</g>
<!-- Node7 -->
<g id="node7" class="node">
<title>Node7</title>
<g id="a_node7"><a xlink:href="group__fault-handler-functions.html#ga830e5c7087a8e5ee8ea39b7e3df94b68" target="_top" xlink:title="Initialization of user&#45;defined fault objects.">
<polygon fill="white" stroke="black" points="229,-57.5 229,-76.5 356,-76.5 356,-57.5 229,-57.5"/>
<text text-anchor="middle" x="292.5" y="-64.5" font-family="Helvetica,sans-Serif" font-size="10.00">appFaultMonitor_Initialize</text>
</a>
</g>
</g>
<!-- Node6&#45;&gt;Node7 -->
<g id="edge6" class="edge">
<title>Node6&#45;&gt;Node7</title>
<path fill="none" stroke="midnightblue" d="M407.9,-110.98C402.57,-108.99 397.14,-106.95 392,-105 366.81,-95.45 338.07,-84.34 318.16,-76.61"/>
<polygon fill="midnightblue" stroke="midnightblue" points="406.7,-114.27 417.29,-114.49 409.15,-107.71 406.7,-114.27"/>
</g>
<!-- Node8 -->
<g id="node8" class="node">
<title>Node8</title>
<g id="a_node8"><a xlink:href="group__system-initialization-user-tasks.html#ga2be64f5f0b9a2c0c6713f5a69d793e05" target="_top" xlink:title="Initializes the user&#45;defined tasks.">
<polygon fill="white" stroke="black" points="74,-57.5 74,-76.5 193,-76.5 193,-57.5 74,-57.5"/>
<text text-anchor="middle" x="133.5" y="-64.5" font-family="Helvetica,sans-Serif" font-size="10.00">sysUserTasks_Initialize</text>
</a>
</g>
</g>
<!-- Node7&#45;&gt;Node8 -->
<g id="edge7" class="edge">
<title>Node7&#45;&gt;Node8</title>
<path fill="none" stroke="midnightblue" d="M218.95,-67C210.33,-67 201.61,-67 193.21,-67"/>
<polygon fill="midnightblue" stroke="midnightblue" points="219,-70.5 229,-67 219,-63.5 219,-70.5"/>
</g>
<!-- Node9 -->
<g id="node9" class="node">
<title>Node9</title>
<g id="a_node9"><a xlink:href="group__firmware-flow.html#ga840291bc02cba5474a4cb46a9b9566fe" target="_top" xlink:title="Application main function executed after device comes out of RESET.">
<polygon fill="white" stroke="black" points="0,-57.5 0,-76.5 38,-76.5 38,-57.5 0,-57.5"/>
<text text-anchor="middle" x="19" y="-64.5" font-family="Helvetica,sans-Serif" font-size="10.00">main</text>
</a>
</g>
</g>
<!-- Node8&#45;&gt;Node9 -->
<g id="edge8" class="edge">
<title>Node8&#45;&gt;Node9</title>
<path fill="none" stroke="midnightblue" d="M63.65,-67C54.29,-67 45.43,-67 38.16,-67"/>
<polygon fill="midnightblue" stroke="midnightblue" points="63.94,-70.5 73.94,-67 63.94,-63.5 63.94,-70.5"/>
</g>
<!-- Node10&#45;&gt;Node7 -->
<g id="edge10" class="edge">
<title>Node10&#45;&gt;Node7</title>
<path fill="none" stroke="midnightblue" d="M386.09,-78.77C376.29,-77.52 366.06,-76.22 356.13,-74.96"/>
<polygon fill="midnightblue" stroke="midnightblue" points="385.75,-82.25 396.11,-80.04 386.63,-75.31 385.75,-82.25"/>
</g>
<!-- Node11&#45;&gt;Node7 -->
<g id="edge12" class="edge">
<title>Node11&#45;&gt;Node7</title>
<path fill="none" stroke="midnightblue" d="M381.81,-55.78C373.37,-56.85 364.68,-57.95 356.2,-59.03"/>
<polygon fill="midnightblue" stroke="midnightblue" points="382.49,-59.22 391.97,-54.49 381.61,-52.27 382.49,-59.22"/>
</g>
<!-- Node12&#45;&gt;Node7 -->
<g id="edge14" class="edge">
<title>Node12&#45;&gt;Node7</title>
<path fill="none" stroke="midnightblue" d="M407.9,-23.02C402.57,-25.01 397.14,-27.05 392,-29 366.81,-38.55 338.07,-49.66 318.16,-57.39"/>
<polygon fill="midnightblue" stroke="midnightblue" points="409.15,-26.29 417.29,-19.51 406.7,-19.73 409.15,-26.29"/>
</g>
</g>
</svg>
