<?xml version="1.0" encoding="UTF-8" standalone="no"?>
<!DOCTYPE svg PUBLIC "-//W3C//DTD SVG 1.1//EN"
 "http://www.w3.org/Graphics/SVG/1.1/DTD/svg11.dtd">
<!-- Generated by graphviz version 2.44.1 (20200629.0846)
 -->
<!-- Title: Public Properties Pages: 1 -->
<svg width="357pt" height="101pt"
 viewBox="0.00 0.00 357.00 101.00" xmlns="http://www.w3.org/2000/svg" xmlns:xlink="http://www.w3.org/1999/xlink">
<g id="graph0" class="graph" transform="scale(1 1) rotate(0) translate(4 97)">
<title>Public Properties</title>
<polygon fill="white" stroke="transparent" points="-4,4 -4,-97 353,-97 353,4 -4,4"/>
<!-- Node2 -->
<g id="node1" class="node">
<title>Node2</title>
<g id="a_node1"><a xlink:href="group__lib-layer-buck-converter.html" target="_top" xlink:title=" ">
<polygon fill="white" stroke="black" points="83,-56 0,-56 0,-37 83,-37 83,-56"/>
<text text-anchor="middle" x="41.5" y="-44" font-family="Helvetica,sans-Serif" font-size="10.00">Buck Converter</text>
</a>
</g>
</g>
<!-- Node1 -->
<g id="node2" class="node">
<title>Node1</title>
<g id="a_node2"><a xlink:title="Public properties of the second library layer.">
<polygon fill="#bfbfbf" stroke="black" points="210,-56 119,-56 119,-37 210,-37 210,-56"/>
<text text-anchor="middle" x="164.5" y="-44" font-family="Helvetica,sans-Serif" font-size="10.00">Public Properties</text>
</a>
</g>
</g>
<!-- Node2&#45;&gt;Node1 -->
<g id="edge1" class="edge">
<title>Node2&#45;&gt;Node1</title>
<path fill="none" stroke="black" d="M93.23,-46.5C101.66,-46.5 110.34,-46.5 118.61,-46.5"/>
<polygon fill="black" stroke="black" points="93.13,-43 83.13,-46.5 93.13,-50 93.13,-43"/>
</g>
<!-- Node3 -->
<g id="node3" class="node">
<title>Node3</title>
<g id="a_node3"><a xlink:href="group__lib-layer-buck-converter-properties-public-variables.html" target="_top" xlink:title=" ">
<polygon fill="white" stroke="black" points="326,-93 269,-93 269,-74 326,-74 326,-93"/>
<text text-anchor="middle" x="297.5" y="-81" font-family="Helvetica,sans-Serif" font-size="10.00">Variables</text>
</a>
</g>
</g>
<!-- Node1&#45;&gt;Node3 -->
<g id="edge2" class="edge">
<title>Node1&#45;&gt;Node3</title>
<path fill="none" stroke="black" d="M208.91,-58.76C228.58,-64.32 251.27,-70.72 268.62,-75.63"/>
<polygon fill="black" stroke="black" points="209.81,-55.38 199.24,-56.03 207.91,-62.11 209.81,-55.38"/>
</g>
<!-- Node5 -->
<g id="node4" class="node">
<title>Node5</title>
<g id="a_node4"><a xlink:href="group__lib-layer-buck-converter-properties-public-defines.html" target="_top" xlink:title=" ">
<polygon fill="white" stroke="black" points="349,-56 246,-56 246,-37 349,-37 349,-56"/>
<text text-anchor="middle" x="297.5" y="-44" font-family="Helvetica,sans-Serif" font-size="10.00">Defines and Macros</text>
</a>
</g>
</g>
<!-- Node1&#45;&gt;Node5 -->
<g id="edge4" class="edge">
<title>Node1&#45;&gt;Node5</title>
<path fill="none" stroke="black" d="M220.31,-46.5C228.72,-46.5 237.37,-46.5 245.68,-46.5"/>
<polygon fill="black" stroke="black" points="220.22,-43 210.22,-46.5 220.22,-50 220.22,-43"/>
</g>
<!-- Node4 -->
<g id="node5" class="node">
<title>Node4</title>
<g id="a_node5"><a xlink:href="group__lib-layer-buck-converter-properties-public-data-types.html" target="_top" xlink:title=" ">
<polygon fill="white" stroke="black" points="330.5,-19 264.5,-19 264.5,0 330.5,0 330.5,-19"/>
<text text-anchor="middle" x="297.5" y="-7" font-family="Helvetica,sans-Serif" font-size="10.00">Data Types</text>
</a>
</g>
</g>
<!-- Node1&#45;&gt;Node4 -->
<g id="edge3" class="edge">
<title>Node1&#45;&gt;Node4</title>
<path fill="none" stroke="black" d="M208.96,-34.23C227,-29.13 247.57,-23.32 264.23,-18.61"/>
<polygon fill="black" stroke="black" points="207.91,-30.89 199.24,-36.97 209.81,-37.62 207.91,-30.89"/>
</g>
</g>
</svg>
