<?xml version="1.0" encoding="UTF-8" standalone="no"?>
<!DOCTYPE svg PUBLIC "-//W3C//DTD SVG 1.1//EN"
 "http://www.w3.org/Graphics/SVG/1.1/DTD/svg11.dtd">
<!-- Generated by graphviz version 2.44.1 (20200629.0846)
 -->
<!-- Title: drv_BuckConverter_Initialize Pages: 1 -->
<svg width="486pt" height="180pt"
 viewBox="0.00 0.00 486.00 180.00" xmlns="http://www.w3.org/2000/svg" xmlns:xlink="http://www.w3.org/1999/xlink">
<g id="graph0" class="graph" transform="scale(1 1) rotate(0) translate(4 176)">
<title>drv_BuckConverter_Initialize</title>
<polygon fill="white" stroke="transparent" points="-4,4 -4,-176 482,-176 482,4 -4,4"/>
<!-- Node1 -->
<g id="node1" class="node">
<title>Node1</title>
<g id="a_node1"><a xlink:title="This function initializes all peripheral modules and their instances used by the power controller.">
<polygon fill="#bfbfbf" stroke="black" points="0,-76.5 0,-95.5 137,-95.5 137,-76.5 0,-76.5"/>
<text text-anchor="middle" x="68.5" y="-83.5" font-family="Helvetica,sans-Serif" font-size="10.00">drv_BuckConverter_Initialize</text>
</a>
</g>
</g>
<!-- Node2 -->
<g id="node2" class="node">
<title>Node2</title>
<g id="a_node2"><a xlink:href="group__power-handler-function.html#gab889ae485e95010864ca04500457861a" target="_top" xlink:title="Description">
<polygon fill="white" stroke="black" points="175,-152.5 175,-171.5 309,-171.5 309,-152.5 175,-152.5"/>
<text text-anchor="middle" x="242" y="-159.5" font-family="Helvetica,sans-Serif" font-size="10.00">buckADC_ChannelInitialize</text>
</a>
</g>
</g>
<!-- Node1&#45;&gt;Node2 -->
<g id="edge1" class="edge">
<title>Node1&#45;&gt;Node2</title>
<path fill="none" stroke="midnightblue" d="M84.38,-95.64C104.02,-108.02 139.96,-129.5 173,-143 178.81,-145.37 185.01,-147.56 191.22,-149.53"/>
<polygon fill="midnightblue" stroke="midnightblue" points="190.34,-152.92 200.93,-152.46 192.37,-146.22 190.34,-152.92"/>
</g>
<!-- Node3 -->
<g id="node3" class="node">
<title>Node3</title>
<g id="a_node3"><a xlink:href="group__power-handler-function.html#ga086bc1e4304b2ce7a435bf2a9799d078" target="_top" xlink:title="Description">
<polygon fill="white" stroke="black" points="177,-114.5 177,-133.5 307,-133.5 307,-114.5 177,-114.5"/>
<text text-anchor="middle" x="242" y="-121.5" font-family="Helvetica,sans-Serif" font-size="10.00">buckADC_ModuleInitialize</text>
</a>
</g>
</g>
<!-- Node1&#45;&gt;Node3 -->
<g id="edge2" class="edge">
<title>Node1&#45;&gt;Node3</title>
<path fill="none" stroke="midnightblue" d="M112.78,-95.59C135.61,-100.65 163.82,-106.9 187.96,-112.25"/>
<polygon fill="midnightblue" stroke="midnightblue" points="187.51,-115.73 198.03,-114.48 189.03,-108.9 187.51,-115.73"/>
</g>
<!-- Node4 -->
<g id="node4" class="node">
<title>Node4</title>
<g id="a_node4"><a xlink:href="group__power-handler-function.html#ga984f623275f9e1da2e11be2e9ff8221c" target="_top" xlink:title="Description">
<polygon fill="white" stroke="black" points="191,-76.5 191,-95.5 293,-95.5 293,-76.5 191,-76.5"/>
<text text-anchor="middle" x="242" y="-83.5" font-family="Helvetica,sans-Serif" font-size="10.00">buckGPIO_Initialize</text>
</a>
</g>
</g>
<!-- Node1&#45;&gt;Node4 -->
<g id="edge3" class="edge">
<title>Node1&#45;&gt;Node4</title>
<path fill="none" stroke="midnightblue" d="M137.28,-86C151.67,-86 166.77,-86 180.85,-86"/>
<polygon fill="midnightblue" stroke="midnightblue" points="180.9,-89.5 190.9,-86 180.9,-82.5 180.9,-89.5"/>
</g>
<!-- Node7 -->
<g id="node7" class="node">
<title>Node7</title>
<g id="a_node7"><a xlink:href="group__power-handler-function.html#ga283487111ea685224a2caf350540daad" target="_top" xlink:title="Description">
<polygon fill="white" stroke="black" points="173,-38.5 173,-57.5 311,-57.5 311,-38.5 173,-38.5"/>
<text text-anchor="middle" x="242" y="-45.5" font-family="Helvetica,sans-Serif" font-size="10.00">buckPWM_ChannelInitialize</text>
</a>
</g>
</g>
<!-- Node1&#45;&gt;Node7 -->
<g id="edge6" class="edge">
<title>Node1&#45;&gt;Node7</title>
<path fill="none" stroke="midnightblue" d="M112.78,-76.41C135.61,-71.35 163.82,-65.1 187.96,-59.75"/>
<polygon fill="midnightblue" stroke="midnightblue" points="189.03,-63.1 198.03,-57.52 187.51,-56.27 189.03,-63.1"/>
</g>
<!-- Node8 -->
<g id="node8" class="node">
<title>Node8</title>
<g id="a_node8"><a xlink:href="group__power-handler-function.html#ga1dedc10502a96efea6da9207f3416219" target="_top" xlink:title="Description">
<polygon fill="white" stroke="black" points="175,-0.5 175,-19.5 309,-19.5 309,-0.5 175,-0.5"/>
<text text-anchor="middle" x="242" y="-7.5" font-family="Helvetica,sans-Serif" font-size="10.00">buckPWM_ModuleInitialize</text>
</a>
</g>
</g>
<!-- Node1&#45;&gt;Node8 -->
<g id="edge7" class="edge">
<title>Node1&#45;&gt;Node8</title>
<path fill="none" stroke="midnightblue" d="M84.38,-76.36C104.02,-63.98 139.96,-42.5 173,-29 178.81,-26.63 185.01,-24.44 191.22,-22.47"/>
<polygon fill="midnightblue" stroke="midnightblue" points="192.37,-25.78 200.93,-19.54 190.34,-19.08 192.37,-25.78"/>
</g>
<!-- Node5 -->
<g id="node5" class="node">
<title>Node5</title>
<g id="a_node5"><a xlink:href="group__power-handler-function.html#ga649bb2f18322be1a303d05931adb2c6a" target="_top" xlink:title="Description">
<polygon fill="white" stroke="black" points="368,-95.5 368,-114.5 457,-114.5 457,-95.5 368,-95.5"/>
<text text-anchor="middle" x="412.5" y="-102.5" font-family="Helvetica,sans-Serif" font-size="10.00">buckGPIO_Clear</text>
</a>
</g>
</g>
<!-- Node4&#45;&gt;Node5 -->
<g id="edge4" class="edge">
<title>Node4&#45;&gt;Node5</title>
<path fill="none" stroke="midnightblue" d="M293.1,-91.65C313.43,-93.94 336.96,-96.59 357.66,-98.93"/>
<polygon fill="midnightblue" stroke="midnightblue" points="357.55,-102.44 367.88,-100.08 358.33,-95.48 357.55,-102.44"/>
</g>
<!-- Node6 -->
<g id="node6" class="node">
<title>Node6</title>
<g id="a_node6"><a xlink:href="group__power-handler-function.html#ga3d3f91c0e40884874e7df3a67fff23f3" target="_top" xlink:title="Description">
<polygon fill="white" stroke="black" points="347,-57.5 347,-76.5 478,-76.5 478,-57.5 347,-57.5"/>
<text text-anchor="middle" x="412.5" y="-64.5" font-family="Helvetica,sans-Serif" font-size="10.00">buckGPIO_PrivateInitialize</text>
</a>
</g>
</g>
<!-- Node4&#45;&gt;Node6 -->
<g id="edge5" class="edge">
<title>Node4&#45;&gt;Node6</title>
<path fill="none" stroke="midnightblue" d="M293.1,-80.35C306.81,-78.8 321.98,-77.09 336.76,-75.43"/>
<polygon fill="midnightblue" stroke="midnightblue" points="337.35,-78.88 346.9,-74.28 336.57,-71.93 337.35,-78.88"/>
</g>
</g>
</svg>
