<?xml version="1.0" encoding="UTF-8" standalone="no"?>
<!DOCTYPE svg PUBLIC "-//W3C//DTD SVG 1.1//EN"
 "http://www.w3.org/Graphics/SVG/1.1/DTD/svg11.dtd">
<!-- Generated by graphviz version 2.44.1 (20200629.0846)
 -->
<!-- Title: Buck Peripheral Templates Pages: 1 -->
<svg width="422pt" height="138pt"
 viewBox="0.00 0.00 422.00 138.00" xmlns="http://www.w3.org/2000/svg" xmlns:xlink="http://www.w3.org/1999/xlink">
<g id="graph0" class="graph" transform="scale(1 1) rotate(0) translate(4 134)">
<title>Buck Peripheral Templates</title>
<polygon fill="white" stroke="transparent" points="-4,4 -4,-134 418,-134 418,4 -4,4"/>
<!-- Node6 -->
<g id="node1" class="node">
<title>Node6</title>
<g id="a_node1"><a xlink:href="group__lib-layer-buck-ptemplate-properties-private.html" target="_top" xlink:title="Public properties of the second library layer.">
<polygon fill="white" stroke="black" points="414,-130 321,-130 321,-111 414,-111 414,-130"/>
<text text-anchor="middle" x="367.5" y="-118" font-family="Helvetica,sans-Serif" font-size="10.00">Private Properties</text>
</a>
</g>
</g>
<!-- Node4 -->
<g id="node2" class="node">
<title>Node4</title>
<g id="a_node2"><a xlink:href="group__lib-layer-buck-ptemplate-properties-public.html" target="_top" xlink:title="Public properties of the second library layer.">
<polygon fill="white" stroke="black" points="413,-93 322,-93 322,-74 413,-74 413,-93"/>
<text text-anchor="middle" x="367.5" y="-81" font-family="Helvetica,sans-Serif" font-size="10.00">Public Properties</text>
</a>
</g>
</g>
<!-- Node3 -->
<g id="node3" class="node">
<title>Node3</title>
<g id="a_node3"><a xlink:href="group__lib-layer-buck-ptemplate-functions-public.html" target="_top" xlink:title="Public functions of the second library layer.">
<polygon fill="white" stroke="black" points="412,-56 323,-56 323,-37 412,-37 412,-56"/>
<text text-anchor="middle" x="367.5" y="-44" font-family="Helvetica,sans-Serif" font-size="10.00">Public Functions</text>
</a>
</g>
</g>
<!-- Node2 -->
<g id="node4" class="node">
<title>Node2</title>
<g id="a_node4"><a xlink:href="group__lib-layer-buck.html" target="_top" xlink:title=" ">
<polygon fill="white" stroke="black" points="115,-74 0,-74 0,-55 115,-55 115,-74"/>
<text text-anchor="middle" x="57.5" y="-62" font-family="Helvetica,sans-Serif" font-size="10.00">Buck Converter Library</text>
</a>
</g>
</g>
<!-- Node1 -->
<g id="node6" class="node">
<title>Node1</title>
<g id="a_node6"><a xlink:title=" ">
<polygon fill="#bfbfbf" stroke="black" points="285,-74 151,-74 151,-55 285,-55 285,-74"/>
<text text-anchor="middle" x="218" y="-62" font-family="Helvetica,sans-Serif" font-size="10.00">Buck Peripheral Templates</text>
</a>
</g>
</g>
<!-- Node2&#45;&gt;Node1 -->
<g id="edge1" class="edge">
<title>Node2&#45;&gt;Node1</title>
<path fill="none" stroke="black" d="M125.44,-64.5C133.87,-64.5 142.49,-64.5 150.9,-64.5"/>
<polygon fill="black" stroke="black" points="125.27,-61 115.27,-64.5 125.27,-68 125.27,-61"/>
</g>
<!-- Node5 -->
<g id="node5" class="node">
<title>Node5</title>
<g id="a_node5"><a xlink:href="group__lib-layer-buck-ptemplate-functions-private.html" target="_top" xlink:title="Private functions of the second library layer.">
<polygon fill="white" stroke="black" points="413.5,-19 321.5,-19 321.5,0 413.5,0 413.5,-19"/>
<text text-anchor="middle" x="367.5" y="-7" font-family="Helvetica,sans-Serif" font-size="10.00">Private Functions</text>
</a>
</g>
</g>
<!-- Node1&#45;&gt;Node6 -->
<g id="edge5" class="edge">
<title>Node1&#45;&gt;Node6</title>
<path fill="none" stroke="black" d="M253.8,-77.71C280.73,-87.94 317.38,-101.85 341.47,-111"/>
<polygon fill="black" stroke="black" points="254.95,-74.4 244.36,-74.13 252.46,-80.95 254.95,-74.4"/>
</g>
<!-- Node1&#45;&gt;Node4 -->
<g id="edge3" class="edge">
<title>Node1&#45;&gt;Node4</title>
<path fill="none" stroke="black" d="M295.61,-74.37C304.64,-75.53 313.62,-76.69 322,-77.77"/>
<polygon fill="black" stroke="black" points="295.78,-70.86 285.41,-73.06 294.89,-77.8 295.78,-70.86"/>
</g>
<!-- Node1&#45;&gt;Node3 -->
<g id="edge2" class="edge">
<title>Node1&#45;&gt;Node3</title>
<path fill="none" stroke="black" d="M295.56,-55.16C304.92,-54.01 314.22,-52.88 322.85,-51.83"/>
<polygon fill="black" stroke="black" points="294.92,-51.71 285.41,-56.4 295.76,-58.66 294.92,-51.71"/>
</g>
<!-- Node1&#45;&gt;Node5 -->
<g id="edge4" class="edge">
<title>Node1&#45;&gt;Node5</title>
<path fill="none" stroke="black" d="M254.38,-51.31C280.93,-41.41 316.68,-28.08 340.61,-19.16"/>
<polygon fill="black" stroke="black" points="252.84,-48.15 244.69,-54.92 255.29,-54.71 252.84,-48.15"/>
</g>
</g>
</svg>
