<?xml version="1.0" encoding="UTF-8" standalone="no"?>
<!DOCTYPE svg PUBLIC "-//W3C//DTD SVG 1.1//EN"
 "http://www.w3.org/Graphics/SVG/1.1/DTD/svg11.dtd">
<!-- Generated by graphviz version 2.44.1 (20200629.0846)
 -->
<!-- Title: appPowerSupply_PeripheralsInitialize Pages: 1 -->
<svg width="879pt" height="295pt"
 viewBox="0.00 0.00 879.00 295.00" xmlns="http://www.w3.org/2000/svg" xmlns:xlink="http://www.w3.org/1999/xlink">
<g id="graph0" class="graph" transform="scale(1 1) rotate(0) translate(4 291)">
<title>appPowerSupply_PeripheralsInitialize</title>
<polygon fill="white" stroke="transparent" points="-4,4 -4,-291 875,-291 875,4 -4,4"/>
<!-- Node1 -->
<g id="node1" class="node">
<title>Node1</title>
<g id="a_node1"><a xlink:title=" ">
<polygon fill="#bfbfbf" stroke="black" points="0,-129 0,-159 143,-159 143,-129 0,-129"/>
<text text-anchor="start" x="8" y="-147" font-family="Helvetica,sans-Serif" font-size="10.00">appPowerSupply_Peripherals</text>
<text text-anchor="middle" x="71.5" y="-136" font-family="Helvetica,sans-Serif" font-size="10.00">Initialize</text>
</a>
</g>
</g>
<!-- Node2 -->
<g id="node2" class="node">
<title>Node2</title>
<g id="a_node2"><a xlink:href="group__power-handler-function.html#ga97eb8bdd17b9c2e169f0634ebabb5d19" target="_top" xlink:title="This function initializes all peripheral modules and their instances used by the power controller.">
<polygon fill="white" stroke="black" points="179,-191.5 179,-210.5 316,-210.5 316,-191.5 179,-191.5"/>
<text text-anchor="middle" x="247.5" y="-198.5" font-family="Helvetica,sans-Serif" font-size="10.00">drv_BuckConverter_Initialize</text>
</a>
</g>
</g>
<!-- Node1&#45;&gt;Node2 -->
<g id="edge1" class="edge">
<title>Node1&#45;&gt;Node2</title>
<path fill="none" stroke="midnightblue" d="M112.74,-159.09C132.58,-166.34 156.93,-174.97 179,-182 186.18,-184.29 193.83,-186.58 201.31,-188.74"/>
<polygon fill="midnightblue" stroke="midnightblue" points="200.41,-192.12 210.98,-191.49 202.32,-185.39 200.41,-192.12"/>
</g>
<!-- Node15 -->
<g id="node15" class="node">
<title>Node15</title>
<g id="a_node15"><a xlink:href="group__pps.html#ga46aebc06e62c1484f9e95190711067dd" target="_top" xlink:title="Locks the Peripheral Pin Select Configuration registers against accidental changes.">
<polygon fill="white" stroke="black" points="211,-153.5 211,-172.5 284,-172.5 284,-153.5 211,-153.5"/>
<text text-anchor="middle" x="247.5" y="-160.5" font-family="Helvetica,sans-Serif" font-size="10.00">PPS_LockIO</text>
</a>
</g>
</g>
<!-- Node1&#45;&gt;Node15 -->
<g id="edge16" class="edge">
<title>Node1&#45;&gt;Node15</title>
<path fill="none" stroke="midnightblue" d="M143.02,-151.7C162.55,-153.83 183.23,-156.09 200.93,-158.02"/>
<polygon fill="midnightblue" stroke="midnightblue" points="200.65,-161.51 210.97,-159.12 201.41,-154.56 200.65,-161.51"/>
</g>
<!-- Node16 -->
<g id="node16" class="node">
<title>Node16</title>
<g id="a_node16"><a xlink:href="group__pps.html#ga1ac2bc53484e4e452fd3b4c027037ebf" target="_top" xlink:title="Assigns a digital function output to a pin.">
<polygon fill="white" stroke="black" points="196.5,-115.5 196.5,-134.5 298.5,-134.5 298.5,-115.5 196.5,-115.5"/>
<text text-anchor="middle" x="247.5" y="-122.5" font-family="Helvetica,sans-Serif" font-size="10.00">PPS_RemapOutput</text>
</a>
</g>
</g>
<!-- Node1&#45;&gt;Node16 -->
<g id="edge17" class="edge">
<title>Node1&#45;&gt;Node16</title>
<path fill="none" stroke="midnightblue" d="M143.02,-136.3C157.42,-134.73 172.45,-133.09 186.45,-131.56"/>
<polygon fill="midnightblue" stroke="midnightblue" points="186.87,-135.03 196.43,-130.47 186.11,-128.07 186.87,-135.03"/>
</g>
<!-- Node17 -->
<g id="node17" class="node">
<title>Node17</title>
<g id="a_node17"><a xlink:href="group__pps.html#ga3fa51d1be870c73331607df4455a30f8" target="_top" xlink:title="Unlocks the Peripheral Pin Select Configuration registers to enable changes.">
<polygon fill="white" stroke="black" points="206.5,-77.5 206.5,-96.5 288.5,-96.5 288.5,-77.5 206.5,-77.5"/>
<text text-anchor="middle" x="247.5" y="-84.5" font-family="Helvetica,sans-Serif" font-size="10.00">PPS_UnlockIO</text>
</a>
</g>
</g>
<!-- Node1&#45;&gt;Node17 -->
<g id="edge18" class="edge">
<title>Node1&#45;&gt;Node17</title>
<path fill="none" stroke="midnightblue" d="M112.74,-128.91C132.58,-121.66 156.93,-113.03 179,-106 186.18,-103.71 193.83,-101.42 201.31,-99.26"/>
<polygon fill="midnightblue" stroke="midnightblue" points="202.32,-102.61 210.98,-96.51 200.41,-95.88 202.32,-102.61"/>
</g>
<!-- Node3 -->
<g id="node3" class="node">
<title>Node3</title>
<g id="a_node3"><a xlink:href="group__power-handler-function.html#gab889ae485e95010864ca04500457861a" target="_top" xlink:title=" ">
<polygon fill="white" stroke="black" points="354,-267.5 354,-286.5 488,-286.5 488,-267.5 354,-267.5"/>
<text text-anchor="middle" x="421" y="-274.5" font-family="Helvetica,sans-Serif" font-size="10.00">buckADC_ChannelInitialize</text>
</a>
</g>
</g>
<!-- Node2&#45;&gt;Node3 -->
<g id="edge2" class="edge">
<title>Node2&#45;&gt;Node3</title>
<path fill="none" stroke="midnightblue" d="M263.38,-210.64C283.02,-223.02 318.96,-244.5 352,-258 357.81,-260.37 364.01,-262.56 370.22,-264.53"/>
<polygon fill="midnightblue" stroke="midnightblue" points="369.34,-267.92 379.93,-267.46 371.37,-261.22 369.34,-267.92"/>
</g>
<!-- Node4 -->
<g id="node4" class="node">
<title>Node4</title>
<g id="a_node4"><a xlink:href="group__power-handler-function.html#ga086bc1e4304b2ce7a435bf2a9799d078" target="_top" xlink:title=" ">
<polygon fill="white" stroke="black" points="356,-229.5 356,-248.5 486,-248.5 486,-229.5 356,-229.5"/>
<text text-anchor="middle" x="421" y="-236.5" font-family="Helvetica,sans-Serif" font-size="10.00">buckADC_ModuleInitialize</text>
</a>
</g>
</g>
<!-- Node2&#45;&gt;Node4 -->
<g id="edge3" class="edge">
<title>Node2&#45;&gt;Node4</title>
<path fill="none" stroke="midnightblue" d="M291.78,-210.59C314.61,-215.65 342.82,-221.9 366.96,-227.25"/>
<polygon fill="midnightblue" stroke="midnightblue" points="366.51,-230.73 377.03,-229.48 368.03,-223.9 366.51,-230.73"/>
</g>
<!-- Node5 -->
<g id="node5" class="node">
<title>Node5</title>
<g id="a_node5"><a xlink:href="group__power-handler-function.html#ga984f623275f9e1da2e11be2e9ff8221c" target="_top" xlink:title=" ">
<polygon fill="white" stroke="black" points="370,-191.5 370,-210.5 472,-210.5 472,-191.5 370,-191.5"/>
<text text-anchor="middle" x="421" y="-198.5" font-family="Helvetica,sans-Serif" font-size="10.00">buckGPIO_Initialize</text>
</a>
</g>
</g>
<!-- Node2&#45;&gt;Node5 -->
<g id="edge4" class="edge">
<title>Node2&#45;&gt;Node5</title>
<path fill="none" stroke="midnightblue" d="M316.28,-201C330.67,-201 345.77,-201 359.85,-201"/>
<polygon fill="midnightblue" stroke="midnightblue" points="359.9,-204.5 369.9,-201 359.9,-197.5 359.9,-204.5"/>
</g>
<!-- Node9 -->
<g id="node9" class="node">
<title>Node9</title>
<g id="a_node9"><a xlink:href="group__power-handler-function.html#ga283487111ea685224a2caf350540daad" target="_top" xlink:title=" ">
<polygon fill="white" stroke="black" points="352,-131.5 352,-150.5 490,-150.5 490,-131.5 352,-131.5"/>
<text text-anchor="middle" x="421" y="-138.5" font-family="Helvetica,sans-Serif" font-size="10.00">buckPWM_ChannelInitialize</text>
</a>
</g>
</g>
<!-- Node2&#45;&gt;Node9 -->
<g id="edge9" class="edge">
<title>Node2&#45;&gt;Node9</title>
<path fill="none" stroke="midnightblue" d="M285.14,-191.41C295.2,-188.58 306.08,-185.34 316,-182 340.5,-173.75 367.66,-162.98 388.08,-154.55"/>
<polygon fill="midnightblue" stroke="midnightblue" points="389.63,-157.7 397.52,-150.63 386.94,-151.24 389.63,-157.7"/>
</g>
<!-- Node12 -->
<g id="node12" class="node">
<title>Node12</title>
<g id="a_node12"><a xlink:href="group__power-handler-function.html#ga1dedc10502a96efea6da9207f3416219" target="_top" xlink:title=" ">
<polygon fill="white" stroke="black" points="354,-38.5 354,-57.5 488,-57.5 488,-38.5 354,-38.5"/>
<text text-anchor="middle" x="421" y="-45.5" font-family="Helvetica,sans-Serif" font-size="10.00">buckPWM_ModuleInitialize</text>
</a>
</g>
</g>
<!-- Node2&#45;&gt;Node12 -->
<g id="edge13" class="edge">
<title>Node2&#45;&gt;Node12</title>
<path fill="none" stroke="midnightblue" d="M298.85,-191.5C304.98,-189.03 310.87,-185.92 316,-182 340.71,-163.12 333.38,-146.91 352,-122 367.51,-101.25 387.91,-79.67 402.3,-65.21"/>
<polygon fill="midnightblue" stroke="midnightblue" points="404.98,-67.48 409.61,-57.96 400.05,-62.51 404.98,-67.48"/>
</g>
<!-- Node6 -->
<g id="node6" class="node">
<title>Node6</title>
<g id="a_node6"><a xlink:href="group__power-handler-function.html#ga649bb2f18322be1a303d05931adb2c6a" target="_top" xlink:title=" ">
<polygon fill="white" stroke="black" points="560.5,-240.5 560.5,-259.5 649.5,-259.5 649.5,-240.5 560.5,-240.5"/>
<text text-anchor="middle" x="605" y="-247.5" font-family="Helvetica,sans-Serif" font-size="10.00">buckGPIO_Clear</text>
</a>
</g>
</g>
<!-- Node5&#45;&gt;Node6 -->
<g id="edge5" class="edge">
<title>Node5&#45;&gt;Node6</title>
<path fill="none" stroke="midnightblue" d="M456.64,-210.51C467.35,-213.49 479.18,-216.83 490,-220 506.06,-224.7 509.87,-226.57 526,-231 534.78,-233.41 544.17,-235.83 553.27,-238.09"/>
<polygon fill="midnightblue" stroke="midnightblue" points="552.45,-241.5 563,-240.48 554.12,-234.7 552.45,-241.5"/>
</g>
<!-- Node8 -->
<g id="node8" class="node">
<title>Node8</title>
<g id="a_node8"><a xlink:href="group__power-handler-function.html#ga3d3f91c0e40884874e7df3a67fff23f3" target="_top" xlink:title=" ">
<polygon fill="white" stroke="black" points="539.5,-202.5 539.5,-221.5 670.5,-221.5 670.5,-202.5 539.5,-202.5"/>
<text text-anchor="middle" x="605" y="-209.5" font-family="Helvetica,sans-Serif" font-size="10.00">buckGPIO_PrivateInitialize</text>
</a>
</g>
</g>
<!-- Node5&#45;&gt;Node8 -->
<g id="edge7" class="edge">
<title>Node5&#45;&gt;Node8</title>
<path fill="none" stroke="midnightblue" d="M472.21,-204.03C489.78,-205.1 509.91,-206.31 529.06,-207.47"/>
<polygon fill="midnightblue" stroke="midnightblue" points="529.08,-210.98 539.27,-208.09 529.5,-203.99 529.08,-210.98"/>
</g>
<!-- Node7 -->
<g id="node7" class="node">
<title>Node7</title>
<g id="a_node7"><a xlink:href="group__gpio.html#gae1bc534f11ac7cf278865cb73b601055" target="_top" xlink:title="Gets pointer to GPIO Instance SFR set.">
<polygon fill="white" stroke="black" points="720,-202.5 720,-221.5 871,-221.5 871,-202.5 720,-202.5"/>
<text text-anchor="middle" x="795.5" y="-209.5" font-family="Helvetica,sans-Serif" font-size="10.00">p33c_GpioInstance_GetHandle</text>
</a>
</g>
</g>
<!-- Node6&#45;&gt;Node7 -->
<g id="edge6" class="edge">
<title>Node6&#45;&gt;Node7</title>
<path fill="none" stroke="midnightblue" d="M649.72,-241.19C675.68,-235.95 708.9,-229.26 736.97,-223.6"/>
<polygon fill="midnightblue" stroke="midnightblue" points="737.94,-226.97 747.06,-221.56 736.56,-220.11 737.94,-226.97"/>
</g>
<!-- Node8&#45;&gt;Node7 -->
<g id="edge8" class="edge">
<title>Node8&#45;&gt;Node7</title>
<path fill="none" stroke="midnightblue" d="M670.61,-212C683.26,-212 696.71,-212 709.9,-212"/>
<polygon fill="midnightblue" stroke="midnightblue" points="709.92,-215.5 719.92,-212 709.92,-208.5 709.92,-215.5"/>
</g>
<!-- Node9&#45;&gt;Node7 -->
<g id="edge10" class="edge">
<title>Node9&#45;&gt;Node7</title>
<path fill="none" stroke="midnightblue" d="M471.85,-150.5C539.92,-163.48 661.79,-186.71 734.7,-200.6"/>
<polygon fill="midnightblue" stroke="midnightblue" points="734.17,-204.06 744.65,-202.5 735.48,-197.19 734.17,-204.06"/>
</g>
<!-- Node10 -->
<g id="node10" class="node">
<title>Node10</title>
<g id="a_node10"><a xlink:href="group__pwm.html#ga2de389951f418d4fcd9a5237f39a11a1" target="_top" xlink:title="Disposes a given PWM generator by resetting all its registers to default.">
<polygon fill="white" stroke="black" points="535,-115 535,-145 675,-145 675,-115 535,-115"/>
<text text-anchor="start" x="543" y="-133" font-family="Helvetica,sans-Serif" font-size="10.00">p33c_PwmGenerator_Config</text>
<text text-anchor="middle" x="605" y="-122" font-family="Helvetica,sans-Serif" font-size="10.00">Write</text>
</a>
</g>
</g>
<!-- Node9&#45;&gt;Node10 -->
<g id="edge11" class="edge">
<title>Node9&#45;&gt;Node10</title>
<path fill="none" stroke="midnightblue" d="M490.03,-136.89C501.35,-136.2 513.18,-135.49 524.76,-134.79"/>
<polygon fill="midnightblue" stroke="midnightblue" points="525.07,-138.28 534.84,-134.18 524.65,-131.29 525.07,-138.28"/>
</g>
<!-- Node11 -->
<g id="node11" class="node">
<title>Node11</title>
<g id="a_node11"><a xlink:href="group__pwm.html#ga8aa18df01ada60e1faac049c5eb34700" target="_top" xlink:title="Returns the PWM generator index.">
<polygon fill="white" stroke="black" points="526,-76.5 526,-95.5 684,-95.5 684,-76.5 526,-76.5"/>
<text text-anchor="middle" x="605" y="-83.5" font-family="Helvetica,sans-Serif" font-size="10.00">p33c_PwmGenerator_GetHandle</text>
</a>
</g>
</g>
<!-- Node9&#45;&gt;Node11 -->
<g id="edge12" class="edge">
<title>Node9&#45;&gt;Node11</title>
<path fill="none" stroke="midnightblue" d="M448.76,-131.39C469.67,-124.03 499.51,-113.84 526,-106 535.25,-103.26 545.19,-100.54 554.76,-98.04"/>
<polygon fill="midnightblue" stroke="midnightblue" points="555.76,-101.4 564.56,-95.51 554.01,-94.62 555.76,-101.4"/>
</g>
<!-- Node13 -->
<g id="node13" class="node">
<title>Node13</title>
<g id="a_node13"><a xlink:href="group__pwm.html#ga68493af214377a7329daa5f60825fac5" target="_top" xlink:title="Writes a user&#45;defined configuration to the PWM base module registers.">
<polygon fill="white" stroke="black" points="529,-38.5 529,-57.5 681,-57.5 681,-38.5 529,-38.5"/>
<text text-anchor="middle" x="605" y="-45.5" font-family="Helvetica,sans-Serif" font-size="10.00">p33c_PwmModule_ConfigWrite</text>
</a>
</g>
</g>
<!-- Node12&#45;&gt;Node13 -->
<g id="edge14" class="edge">
<title>Node12&#45;&gt;Node13</title>
<path fill="none" stroke="midnightblue" d="M488.22,-48C498.13,-48 508.46,-48 518.7,-48"/>
<polygon fill="midnightblue" stroke="midnightblue" points="518.89,-51.5 528.89,-48 518.89,-44.5 518.89,-51.5"/>
</g>
<!-- Node14 -->
<g id="node14" class="node">
<title>Node14</title>
<g id="a_node14"><a xlink:href="group__pwm.html#ga02fe57798710b1b54904a4920c181453" target="_top" xlink:title="Gets pointer to PWM module SFR set.">
<polygon fill="white" stroke="black" points="531.5,-0.5 531.5,-19.5 678.5,-19.5 678.5,-0.5 531.5,-0.5"/>
<text text-anchor="middle" x="605" y="-7.5" font-family="Helvetica,sans-Serif" font-size="10.00">p33c_PwmModule_GetHandle</text>
</a>
</g>
</g>
<!-- Node12&#45;&gt;Node14 -->
<g id="edge15" class="edge">
<title>Node12&#45;&gt;Node14</title>
<path fill="none" stroke="midnightblue" d="M467.93,-38.41C492.38,-33.31 522.63,-26.99 548.4,-21.61"/>
<polygon fill="midnightblue" stroke="midnightblue" points="549.33,-24.99 558.4,-19.52 547.9,-18.14 549.33,-24.99"/>
</g>
</g>
</svg>
