<?xml version="1.0" encoding="UTF-8" standalone="no"?>
<!DOCTYPE svg PUBLIC "-//W3C//DTD SVG 1.1//EN"
 "http://www.w3.org/Graphics/SVG/1.1/DTD/svg11.dtd">
<!-- Generated by graphviz version 2.44.1 (20200629.0846)
 -->
<!-- Title: PPS_RemapOutput Pages: 1 -->
<svg width="684pt" height="78pt"
 viewBox="0.00 0.00 684.00 77.50" xmlns="http://www.w3.org/2000/svg" xmlns:xlink="http://www.w3.org/1999/xlink">
<g id="graph0" class="graph" transform="scale(1 1) rotate(0) translate(4 73.5)">
<title>PPS_RemapOutput</title>
<polygon fill="white" stroke="transparent" points="-4,4 -4,-73.5 680,-73.5 680,4 -4,4"/>
<!-- Node1 -->
<g id="node1" class="node">
<title>Node1</title>
<g id="a_node1"><a xlink:title="Assigns a digital function output to a pin.">
<polygon fill="#bfbfbf" stroke="black" points="574,-22.5 574,-41.5 676,-41.5 676,-22.5 574,-22.5"/>
<text text-anchor="middle" x="625" y="-29.5" font-family="Helvetica,sans-Serif" font-size="10.00">PPS_RemapOutput</text>
</a>
</g>
</g>
<!-- Node2 -->
<g id="node2" class="node">
<title>Node2</title>
<g id="a_node2"><a xlink:href="group__power-handler-function.html#ga0b26acfec74d1804384b4ba1a3cffab4" target="_top" xlink:title=" ">
<polygon fill="white" stroke="black" points="395,-39 395,-69 538,-69 538,-39 395,-39"/>
<text text-anchor="start" x="403" y="-57" font-family="Helvetica,sans-Serif" font-size="10.00">appPowerSupply_Peripherals</text>
<text text-anchor="middle" x="466.5" y="-46" font-family="Helvetica,sans-Serif" font-size="10.00">Initialize</text>
</a>
</g>
</g>
<!-- Node1&#45;&gt;Node2 -->
<g id="edge1" class="edge">
<title>Node1&#45;&gt;Node2</title>
<path fill="none" stroke="midnightblue" d="M563.58,-40.49C555.21,-41.67 546.56,-42.89 538.02,-44.09"/>
<polygon fill="midnightblue" stroke="midnightblue" points="564.21,-43.94 573.62,-39.08 563.23,-37.01 564.21,-43.94"/>
</g>
<!-- Node6 -->
<g id="node6" class="node">
<title>Node6</title>
<g id="a_node6"><a xlink:href="group__pps.html#ga066d78deec4c0a2cf81032fb077d124c" target="_top" xlink:title="Disconnects a pin from a digital function output.">
<polygon fill="white" stroke="black" points="415.5,-0.5 415.5,-19.5 517.5,-19.5 517.5,-0.5 415.5,-0.5"/>
<text text-anchor="middle" x="466.5" y="-7.5" font-family="Helvetica,sans-Serif" font-size="10.00">PPS_UnmapOutput</text>
</a>
</g>
</g>
<!-- Node1&#45;&gt;Node6 -->
<g id="edge5" class="edge">
<title>Node1&#45;&gt;Node6</title>
<path fill="none" stroke="midnightblue" d="M563.31,-23.47C548.16,-21.34 532.08,-19.08 517.52,-17.03"/>
<polygon fill="midnightblue" stroke="midnightblue" points="563.23,-26.99 573.62,-24.92 564.21,-20.06 563.23,-26.99"/>
</g>
<!-- Node3 -->
<g id="node3" class="node">
<title>Node3</title>
<g id="a_node3"><a xlink:href="group__device-start-up.html#ga7a4cf6371d09457539f96a74b2809ca0" target="_top" xlink:title=" ">
<polygon fill="white" stroke="black" points="229,-44.5 229,-63.5 359,-63.5 359,-44.5 229,-44.5"/>
<text text-anchor="middle" x="294" y="-51.5" font-family="Helvetica,sans-Serif" font-size="10.00">appPowerSupply_Initialize</text>
</a>
</g>
</g>
<!-- Node2&#45;&gt;Node3 -->
<g id="edge2" class="edge">
<title>Node2&#45;&gt;Node3</title>
<path fill="none" stroke="midnightblue" d="M384.65,-54C376.06,-54 367.42,-54 359.07,-54"/>
<polygon fill="midnightblue" stroke="midnightblue" points="384.67,-57.5 394.67,-54 384.67,-50.5 384.67,-57.5"/>
</g>
<!-- Node4 -->
<g id="node4" class="node">
<title>Node4</title>
<g id="a_node4"><a xlink:href="group__system-initialization.html#ga2be64f5f0b9a2c0c6713f5a69d793e05" target="_top" xlink:title="Initializes the user&#45;defined tasks and chip resources.">
<polygon fill="white" stroke="black" points="74,-44.5 74,-63.5 193,-63.5 193,-44.5 74,-44.5"/>
<text text-anchor="middle" x="133.5" y="-51.5" font-family="Helvetica,sans-Serif" font-size="10.00">sysUserTasks_Initialize</text>
</a>
</g>
</g>
<!-- Node3&#45;&gt;Node4 -->
<g id="edge3" class="edge">
<title>Node3&#45;&gt;Node4</title>
<path fill="none" stroke="midnightblue" d="M218.9,-54C210.25,-54 201.52,-54 193.12,-54"/>
<polygon fill="midnightblue" stroke="midnightblue" points="218.99,-57.5 228.99,-54 218.99,-50.5 218.99,-57.5"/>
</g>
<!-- Node5 -->
<g id="node5" class="node">
<title>Node5</title>
<g id="a_node5"><a xlink:href="group__firmware-flow.html#ga840291bc02cba5474a4cb46a9b9566fe" target="_top" xlink:title="Application main function executed after device comes out of RESET.">
<polygon fill="white" stroke="black" points="0,-44.5 0,-63.5 38,-63.5 38,-44.5 0,-44.5"/>
<text text-anchor="middle" x="19" y="-51.5" font-family="Helvetica,sans-Serif" font-size="10.00">main</text>
</a>
</g>
</g>
<!-- Node4&#45;&gt;Node5 -->
<g id="edge4" class="edge">
<title>Node4&#45;&gt;Node5</title>
<path fill="none" stroke="midnightblue" d="M63.65,-54C54.29,-54 45.43,-54 38.16,-54"/>
<polygon fill="midnightblue" stroke="midnightblue" points="63.94,-57.5 73.94,-54 63.94,-50.5 63.94,-57.5"/>
</g>
</g>
</svg>
