<?xml version="1.0" encoding="UTF-8" standalone="no"?>
<!DOCTYPE svg PUBLIC "-//W3C//DTD SVG 1.1//EN"
 "http://www.w3.org/Graphics/SVG/1.1/DTD/svg11.dtd">
<!-- Generated by graphviz version 2.44.1 (20200629.0846)
 -->
<!-- Title: Startup Timing Settings Pages: 1 -->
<svg width="426pt" height="64pt"
 viewBox="0.00 0.00 426.00 64.00" xmlns="http://www.w3.org/2000/svg" xmlns:xlink="http://www.w3.org/1999/xlink">
<g id="graph0" class="graph" transform="scale(1 1) rotate(0) translate(4 60)">
<title>Startup Timing Settings</title>
<polygon fill="white" stroke="transparent" points="-4,4 -4,-60 422,-60 422,4 -4,4"/>
<!-- Node1 -->
<g id="node1" class="node">
<title>Node1</title>
<g id="a_node1"><a xlink:title="Declaration of startup timing periods.">
<polygon fill="#bfbfbf" stroke="black" points="283,-37 164,-37 164,-18 283,-18 283,-37"/>
<text text-anchor="middle" x="223.5" y="-25" font-family="Helvetica,sans-Serif" font-size="10.00">Startup Timing Settings</text>
</a>
</g>
</g>
<!-- Node3 -->
<g id="node3" class="node">
<title>Node3</title>
<g id="a_node3"><a xlink:href="group__startup-timing-settings.html" target="_top" xlink:title="User&#45;declaration of startup timing periods using physical quantities.">
<polygon fill="white" stroke="black" points="406.5,-56 330.5,-56 330.5,-37 406.5,-37 406.5,-56"/>
<text text-anchor="middle" x="368.5" y="-44" font-family="Helvetica,sans-Serif" font-size="10.00">User Settings</text>
</a>
</g>
</g>
<!-- Node1&#45;&gt;Node3 -->
<g id="edge2" class="edge">
<title>Node1&#45;&gt;Node3</title>
<path fill="none" stroke="black" d="M293.22,-36.63C305.93,-38.32 318.77,-40.02 330.11,-41.53"/>
<polygon fill="black" stroke="black" points="293.45,-33.13 283.08,-35.28 292.53,-40.07 293.45,-33.13"/>
</g>
<!-- Node4 -->
<g id="node4" class="node">
<title>Node4</title>
<g id="a_node4"><a xlink:href="group__startup-timing-macros.html" target="_top" xlink:title="Conversion macros for user&#45;declarations of startup timing periods.">
<polygon fill="white" stroke="black" points="418,-19 319,-19 319,0 418,0 418,-19"/>
<text text-anchor="middle" x="368.5" y="-7" font-family="Helvetica,sans-Serif" font-size="10.00">Conversion Macros</text>
</a>
</g>
</g>
<!-- Node1&#45;&gt;Node4 -->
<g id="edge3" class="edge">
<title>Node1&#45;&gt;Node4</title>
<path fill="none" stroke="black" d="M293.18,-18.85C301.84,-17.76 310.56,-16.67 318.82,-15.63"/>
<polygon fill="black" stroke="black" points="292.56,-15.41 283.08,-20.13 293.44,-22.35 292.56,-15.41"/>
</g>
<!-- Node2 -->
<g id="node2" class="node">
<title>Node2</title>
<g id="a_node2"><a xlink:href="group__abstraction-layer.html" target="_top" xlink:title="Abstraction Layer Defines.">
<polygon fill="white" stroke="black" points="128,-37 0,-37 0,-18 128,-18 128,-37"/>
<text text-anchor="middle" x="64" y="-25" font-family="Helvetica,sans-Serif" font-size="10.00">Abstraction Layer Defines</text>
</a>
</g>
</g>
<!-- Node2&#45;&gt;Node1 -->
<g id="edge1" class="edge">
<title>Node2&#45;&gt;Node1</title>
<path fill="none" stroke="black" d="M138.21,-27.5C146.83,-27.5 155.54,-27.5 163.93,-27.5"/>
<polygon fill="black" stroke="black" points="138.15,-24 128.15,-27.5 138.15,-31 138.15,-24"/>
</g>
</g>
</svg>
