<?xml version="1.0" encoding="UTF-8" standalone="no"?>
<!DOCTYPE svg PUBLIC "-//W3C//DTD SVG 1.1//EN"
 "http://www.w3.org/Graphics/SVG/1.1/DTD/svg11.dtd">
<!-- Generated by graphviz version 2.44.1 (20200629.0846)
 -->
<!-- Title: buckGPIO_GetPinState Pages: 1 -->
<svg width="885pt" height="218pt"
 viewBox="0.00 0.00 885.00 218.00" xmlns="http://www.w3.org/2000/svg" xmlns:xlink="http://www.w3.org/1999/xlink">
<g id="graph0" class="graph" transform="scale(1 1) rotate(0) translate(4 214)">
<title>buckGPIO_GetPinState</title>
<polygon fill="white" stroke="transparent" points="-4,4 -4,-214 881,-214 881,4 -4,4"/>
<!-- Node1 -->
<g id="node1" class="node">
<title>Node1</title>
<g id="a_node1"><a xlink:title=" ">
<polygon fill="#bfbfbf" stroke="black" points="757,-152.5 757,-171.5 877,-171.5 877,-152.5 757,-152.5"/>
<text text-anchor="middle" x="817" y="-159.5" font-family="Helvetica,sans-Serif" font-size="10.00">buckGPIO_GetPinState</text>
</a>
</g>
</g>
<!-- Node2 -->
<g id="node2" class="node">
<title>Node2</title>
<g id="a_node2"><a xlink:href="group__power-handler-function.html#ga75498c59a10db0738113104a547d8d0d" target="_top" xlink:title="This function is the main buck converter state machine executing the most recent state.">
<polygon fill="white" stroke="black" points="583,-152.5 583,-171.5 721,-171.5 721,-152.5 583,-152.5"/>
<text text-anchor="middle" x="652" y="-159.5" font-family="Helvetica,sans-Serif" font-size="10.00">drv_BuckConverter_Execute</text>
</a>
</g>
</g>
<!-- Node1&#45;&gt;Node2 -->
<g id="edge1" class="edge">
<title>Node1&#45;&gt;Node2</title>
<path fill="none" stroke="midnightblue" d="M746.53,-162C738.11,-162 729.51,-162 721.11,-162"/>
<polygon fill="midnightblue" stroke="midnightblue" points="746.69,-165.5 756.69,-162 746.69,-158.5 746.69,-165.5"/>
</g>
<!-- Node3 -->
<g id="node3" class="node">
<title>Node3</title>
<g id="a_node3"><a xlink:href="group__main-loop.html#ga13094235dd6cc123d9299925359ca178" target="_top" xlink:title="This is the top&#45;level function call triggering the most recent state machine of all associated power ...">
<polygon fill="white" stroke="black" points="239,-190.5 239,-209.5 370,-209.5 370,-190.5 239,-190.5"/>
<text text-anchor="middle" x="304.5" y="-197.5" font-family="Helvetica,sans-Serif" font-size="10.00">appPowerSupply_Execute</text>
</a>
</g>
</g>
<!-- Node2&#45;&gt;Node3 -->
<g id="edge2" class="edge">
<title>Node2&#45;&gt;Node3</title>
<path fill="none" stroke="midnightblue" d="M594.66,-173.38C579.26,-176.19 562.53,-178.98 547,-181 487.26,-188.79 418.76,-193.81 370.01,-196.72"/>
<polygon fill="midnightblue" stroke="midnightblue" points="595.38,-176.8 604.57,-171.53 594.09,-169.92 595.38,-176.8"/>
</g>
<!-- Node5 -->
<g id="node5" class="node">
<title>Node5</title>
<g id="a_node5"><a xlink:href="group__power-handler-function.html#gaf73787b6b72bc61786a39b9c7e47f6c6" target="_top" xlink:title=" ">
<polygon fill="white" stroke="black" points="408,-152.5 408,-171.5 546,-171.5 546,-152.5 408,-152.5"/>
<text text-anchor="middle" x="477" y="-159.5" font-family="Helvetica,sans-Serif" font-size="10.00">drv_BuckConverter_Resume</text>
</a>
</g>
</g>
<!-- Node2&#45;&gt;Node5 -->
<g id="edge4" class="edge">
<title>Node2&#45;&gt;Node5</title>
<path fill="none" stroke="midnightblue" d="M572.41,-162C563.65,-162 554.78,-162 546.16,-162"/>
<polygon fill="midnightblue" stroke="midnightblue" points="572.63,-165.5 582.63,-162 572.63,-158.5 572.63,-165.5"/>
</g>
<!-- Node8 -->
<g id="node8" class="node">
<title>Node8</title>
<g id="a_node8"><a xlink:href="group__power-handler-function.html#ga3287d86e7c3eecaa97d4bdf590ed0a15" target="_top" xlink:title=" ">
<polygon fill="white" stroke="black" points="407,-95.5 407,-114.5 547,-114.5 547,-95.5 407,-95.5"/>
<text text-anchor="middle" x="477" y="-102.5" font-family="Helvetica,sans-Serif" font-size="10.00">drv_BuckConverter_Suspend</text>
</a>
</g>
</g>
<!-- Node2&#45;&gt;Node8 -->
<g id="edge8" class="edge">
<title>Node2&#45;&gt;Node8</title>
<path fill="none" stroke="midnightblue" d="M612.18,-149.21C580.31,-138.71 535.9,-124.08 507.05,-114.57"/>
<polygon fill="midnightblue" stroke="midnightblue" points="611.45,-152.65 622.04,-152.46 613.64,-146.01 611.45,-152.65"/>
</g>
<!-- Node4 -->
<g id="node4" class="node">
<title>Node4</title>
<g id="a_node4"><a xlink:href="group__firmware-flow.html#ga840291bc02cba5474a4cb46a9b9566fe" target="_top" xlink:title="Application main function executed after device comes out of RESET.">
<polygon fill="white" stroke="black" points="0,-171.5 0,-190.5 38,-190.5 38,-171.5 0,-171.5"/>
<text text-anchor="middle" x="19" y="-178.5" font-family="Helvetica,sans-Serif" font-size="10.00">main</text>
</a>
</g>
</g>
<!-- Node3&#45;&gt;Node4 -->
<g id="edge3" class="edge">
<title>Node3&#45;&gt;Node4</title>
<path fill="none" stroke="midnightblue" d="M228.68,-194.99C164.15,-190.66 75.62,-184.73 38.04,-182.21"/>
<polygon fill="midnightblue" stroke="midnightblue" points="228.6,-198.49 238.81,-195.66 229.07,-191.5 228.6,-198.49"/>
</g>
<!-- Node6 -->
<g id="node6" class="node">
<title>Node6</title>
<g id="a_node6"><a xlink:href="group__power-handler-function.html#ga3c7bf6b771bc1296401a270da4a95bff" target="_top" xlink:title=" ">
<polygon fill="white" stroke="black" points="239,-152.5 239,-171.5 370,-171.5 370,-152.5 239,-152.5"/>
<text text-anchor="middle" x="304.5" y="-159.5" font-family="Helvetica,sans-Serif" font-size="10.00">appPowerSupply_Resume</text>
</a>
</g>
</g>
<!-- Node5&#45;&gt;Node6 -->
<g id="edge5" class="edge">
<title>Node5&#45;&gt;Node6</title>
<path fill="none" stroke="midnightblue" d="M397.36,-162C388.2,-162 378.94,-162 370.01,-162"/>
<polygon fill="midnightblue" stroke="midnightblue" points="397.63,-165.5 407.63,-162 397.63,-158.5 397.63,-165.5"/>
</g>
<!-- Node7 -->
<g id="node7" class="node">
<title>Node7</title>
<g id="a_node7"><a xlink:href="group__main-loop.html#ga8842f6a41fe23f932a8864fc140c4b5b" target="_top" xlink:title="Application wide fault object monitoring routine.">
<polygon fill="white" stroke="black" points="74,-152.5 74,-171.5 202,-171.5 202,-152.5 74,-152.5"/>
<text text-anchor="middle" x="138" y="-159.5" font-family="Helvetica,sans-Serif" font-size="10.00">appFaultMonitor_Execute</text>
</a>
</g>
</g>
<!-- Node6&#45;&gt;Node7 -->
<g id="edge6" class="edge">
<title>Node6&#45;&gt;Node7</title>
<path fill="none" stroke="midnightblue" d="M228.89,-162C219.91,-162 210.8,-162 202.01,-162"/>
<polygon fill="midnightblue" stroke="midnightblue" points="228.96,-165.5 238.96,-162 228.96,-158.5 228.96,-165.5"/>
</g>
<!-- Node7&#45;&gt;Node4 -->
<g id="edge7" class="edge">
<title>Node7&#45;&gt;Node4</title>
<path fill="none" stroke="midnightblue" d="M67.97,-173.21C56.97,-175 46.5,-176.7 38.15,-178.05"/>
<polygon fill="midnightblue" stroke="midnightblue" points="68.85,-176.61 78.16,-171.56 67.73,-169.7 68.85,-176.61"/>
</g>
<!-- Node9 -->
<g id="node9" class="node">
<title>Node9</title>
<g id="a_node9"><a xlink:href="group__power-handler-function.html#gafa4e90d260e60cf20f06acee067c39cd" target="_top" xlink:title=" ">
<polygon fill="white" stroke="black" points="238,-76.5 238,-95.5 371,-95.5 371,-76.5 238,-76.5"/>
<text text-anchor="middle" x="304.5" y="-83.5" font-family="Helvetica,sans-Serif" font-size="10.00">appPowerSupply_Suspend</text>
</a>
</g>
</g>
<!-- Node8&#45;&gt;Node9 -->
<g id="edge9" class="edge">
<title>Node8&#45;&gt;Node9</title>
<path fill="none" stroke="midnightblue" d="M396.69,-96.16C388.16,-95.21 379.55,-94.25 371.21,-93.32"/>
<polygon fill="midnightblue" stroke="midnightblue" points="396.32,-99.64 406.65,-97.27 397.1,-92.69 396.32,-99.64"/>
</g>
<!-- Node10 -->
<g id="node10" class="node">
<title>Node10</title>
<g id="a_node10"><a xlink:href="group__fault-handler-function.html#ga54f9db91ea0782b08aa16ee77a57c5e5" target="_top" xlink:title="Initializes the user&#45;defined fault objects for overcurrent protection.">
<polygon fill="white" stroke="black" points="90.5,-114.5 90.5,-133.5 185.5,-133.5 185.5,-114.5 90.5,-114.5"/>
<text text-anchor="middle" x="138" y="-121.5" font-family="Helvetica,sans-Serif" font-size="10.00">ocp_FaultInitialize</text>
</a>
</g>
</g>
<!-- Node9&#45;&gt;Node10 -->
<g id="edge10" class="edge">
<title>Node9&#45;&gt;Node10</title>
<path fill="none" stroke="midnightblue" d="M252,-97.9C228.88,-103.24 201.97,-109.45 180.21,-114.48"/>
<polygon fill="midnightblue" stroke="midnightblue" points="253.03,-101.25 261.99,-95.59 251.46,-94.43 253.03,-101.25"/>
</g>
<!-- Node11 -->
<g id="node11" class="node">
<title>Node11</title>
<g id="a_node11"><a xlink:href="group__fault-handler-function.html#gade437244e8f6e5ff7c57a73442063350" target="_top" xlink:title="Initializes the user&#45;defined fault objects for overvoltage lockout.">
<polygon fill="white" stroke="black" points="90.5,-76.5 90.5,-95.5 185.5,-95.5 185.5,-76.5 90.5,-76.5"/>
<text text-anchor="middle" x="138" y="-83.5" font-family="Helvetica,sans-Serif" font-size="10.00">ovlo_FaultInitialize</text>
</a>
</g>
</g>
<!-- Node9&#45;&gt;Node11 -->
<g id="edge11" class="edge">
<title>Node9&#45;&gt;Node11</title>
<path fill="none" stroke="midnightblue" d="M227.29,-86C213.12,-86 198.71,-86 185.75,-86"/>
<polygon fill="midnightblue" stroke="midnightblue" points="227.54,-89.5 237.54,-86 227.54,-82.5 227.54,-89.5"/>
</g>
<!-- Node12 -->
<g id="node12" class="node">
<title>Node12</title>
<g id="a_node12"><a xlink:href="group__fault-handler-function.html#ga82dc317e3adac0308e5ac3f5ad321605" target="_top" xlink:title="Initializes the user&#45;defined fault objects for regulation error.">
<polygon fill="white" stroke="black" points="86,-38.5 86,-57.5 190,-57.5 190,-38.5 86,-38.5"/>
<text text-anchor="middle" x="138" y="-45.5" font-family="Helvetica,sans-Serif" font-size="10.00">regerr_FaultInitialize</text>
</a>
</g>
</g>
<!-- Node9&#45;&gt;Node12 -->
<g id="edge12" class="edge">
<title>Node9&#45;&gt;Node12</title>
<path fill="none" stroke="midnightblue" d="M252,-74.1C228.88,-68.76 201.97,-62.55 180.21,-57.52"/>
<polygon fill="midnightblue" stroke="midnightblue" points="251.46,-77.57 261.99,-76.41 253.03,-70.75 251.46,-77.57"/>
</g>
<!-- Node13 -->
<g id="node13" class="node">
<title>Node13</title>
<g id="a_node13"><a xlink:href="group__fault-handler-function.html#ga9441220f8a7d4a6805467d04b734e6b5" target="_top" xlink:title="Initializes the user&#45;defined fault objects for undervoltage lockout.">
<polygon fill="white" stroke="black" points="90.5,-0.5 90.5,-19.5 185.5,-19.5 185.5,-0.5 90.5,-0.5"/>
<text text-anchor="middle" x="138" y="-7.5" font-family="Helvetica,sans-Serif" font-size="10.00">uvlo_FaultInitialize</text>
</a>
</g>
</g>
<!-- Node9&#45;&gt;Node13 -->
<g id="edge13" class="edge">
<title>Node9&#45;&gt;Node13</title>
<path fill="none" stroke="midnightblue" d="M280.41,-71.1C260.3,-58.61 230.06,-40.94 202,-29 193.59,-25.42 184.28,-22.22 175.46,-19.52"/>
<polygon fill="midnightblue" stroke="midnightblue" points="278.56,-74.07 288.89,-76.44 282.29,-68.15 278.56,-74.07"/>
</g>
</g>
</svg>
