<?xml version="1.0" encoding="UTF-8" standalone="no"?>
<!DOCTYPE svg PUBLIC "-//W3C//DTD SVG 1.1//EN"
 "http://www.w3.org/Graphics/SVG/1.1/DTD/svg11.dtd">
<!-- Generated by graphviz version 2.44.1 (20200629.0846)
 -->
<!-- Title: Controller Declarations Pages: 1 -->
<svg width="287pt" height="76pt"
 viewBox="0.00 0.00 287.00 75.50" xmlns="http://www.w3.org/2000/svg" xmlns:xlink="http://www.w3.org/1999/xlink">
<g id="graph0" class="graph" transform="scale(1 1) rotate(0) translate(4 71.5)">
<title>Controller Declarations</title>
<polygon fill="white" stroke="transparent" points="-4,4 -4,-71.5 283,-71.5 283,4 -4,4"/>
<!-- Node2 -->
<g id="node1" class="node">
<title>Node2</title>
<g id="a_node1"><a xlink:href="group__abstraction-layer.html" target="_top" xlink:title="Abstraction Layer Defines.">
<polygon fill="white" stroke="black" points="128,-67.5 0,-67.5 0,-48.5 128,-48.5 128,-67.5"/>
<text text-anchor="middle" x="64" y="-55.5" font-family="Helvetica,sans-Serif" font-size="10.00">Abstraction Layer Defines</text>
</a>
</g>
</g>
<!-- Node1 -->
<g id="node3" class="node">
<title>Node1</title>
<g id="a_node3"><a xlink:title="Description">
<polygon fill="#bfbfbf" stroke="black" points="279,-45.5 164,-45.5 164,-26.5 279,-26.5 279,-45.5"/>
<text text-anchor="middle" x="221.5" y="-33.5" font-family="Helvetica,sans-Serif" font-size="10.00">Controller Declarations</text>
</a>
</g>
</g>
<!-- Node2&#45;&gt;Node1 -->
<g id="edge1" class="edge">
<title>Node2&#45;&gt;Node1</title>
<path fill="none" stroke="black" d="M138.26,-47.63C146.85,-46.42 155.5,-45.2 163.81,-44.02"/>
<polygon fill="black" stroke="black" points="137.66,-44.19 128.25,-49.05 138.64,-51.12 137.66,-44.19"/>
</g>
<!-- Node3 -->
<g id="node2" class="node">
<title>Node3</title>
<g id="a_node2"><a xlink:href="group__adaptive-control.html" target="_top" xlink:title="Description:">
<polygon fill="white" stroke="black" points="119,-30 9,-30 9,0 119,0 119,-30"/>
<text text-anchor="start" x="17" y="-18" font-family="Helvetica,sans-Serif" font-size="10.00">Adaptive Gain Control</text>
<text text-anchor="middle" x="64" y="-7" font-family="Helvetica,sans-Serif" font-size="10.00"> Feed Forward</text>
</a>
</g>
</g>
<!-- Node3&#45;&gt;Node1 -->
<g id="edge2" class="edge">
<title>Node3&#45;&gt;Node1</title>
<path fill="none" stroke="black" d="M129.3,-23.68C140.74,-25.23 152.57,-26.83 163.77,-28.34"/>
<polygon fill="black" stroke="black" points="129.76,-20.21 119.39,-22.34 128.83,-27.15 129.76,-20.21"/>
</g>
</g>
</svg>
