<?xml version="1.0" encoding="UTF-8" standalone="no"?>
<!DOCTYPE svg PUBLIC "-//W3C//DTD SVG 1.1//EN"
 "http://www.w3.org/Graphics/SVG/1.1/DTD/svg11.dtd">
<!-- Generated by graphviz version 2.44.1 (20200629.0846)
 -->
<!-- Title: Circuit Special Circuit Signals Pages: 1 -->
<svg width="452pt" height="64pt"
 viewBox="0.00 0.00 452.00 64.00" xmlns="http://www.w3.org/2000/svg" xmlns:xlink="http://www.w3.org/1999/xlink">
<g id="graph0" class="graph" transform="scale(1 1) rotate(0) translate(4 60)">
<title>Circuit Special Circuit Signals</title>
<polygon fill="white" stroke="transparent" points="-4,4 -4,-60 448,-60 448,4 -4,4"/>
<!-- Node2 -->
<g id="node1" class="node">
<title>Node2</title>
<g id="a_node1"><a xlink:href="group__abstraction-layer.html" target="_top" xlink:title="Hardware Abstraction Layer Declarations.">
<polygon fill="white" stroke="black" points="110,-42.5 0,-42.5 0,-12.5 110,-12.5 110,-42.5"/>
<text text-anchor="start" x="8" y="-30.5" font-family="Helvetica,sans-Serif" font-size="10.00">Hardware Abstraction</text>
<text text-anchor="middle" x="55" y="-19.5" font-family="Helvetica,sans-Serif" font-size="10.00"> Layer</text>
</a>
</g>
</g>
<!-- Node1 -->
<g id="node2" class="node">
<title>Node1</title>
<g id="a_node2"><a xlink:title=" ">
<polygon fill="#bfbfbf" stroke="black" points="256,-42.5 146,-42.5 146,-12.5 256,-12.5 256,-42.5"/>
<text text-anchor="start" x="154" y="-30.5" font-family="Helvetica,sans-Serif" font-size="10.00">Circuit Special Circuit</text>
<text text-anchor="middle" x="201" y="-19.5" font-family="Helvetica,sans-Serif" font-size="10.00"> Signals</text>
</a>
</g>
</g>
<!-- Node2&#45;&gt;Node1 -->
<g id="edge1" class="edge">
<title>Node2&#45;&gt;Node1</title>
<path fill="none" stroke="black" d="M120.27,-27.5C128.75,-27.5 137.38,-27.5 145.67,-27.5"/>
<polygon fill="black" stroke="black" points="120.03,-24 110.03,-27.5 120.03,-31 120.03,-24"/>
</g>
<!-- Node4 -->
<g id="node3" class="node">
<title>Node4</title>
<g id="a_node3"><a xlink:href="group__circuit-peripheral-mcal.html" target="_top" xlink:title="Assignment of microcontroller device specific chip&#45;resources to circuit functions and signals.">
<polygon fill="white" stroke="black" points="444,-56 292,-56 292,-37 444,-37 444,-56"/>
<text text-anchor="middle" x="368" y="-44" font-family="Helvetica,sans-Serif" font-size="10.00">Device Peripheral Assignments</text>
</a>
</g>
</g>
<!-- Node1&#45;&gt;Node4 -->
<g id="edge3" class="edge">
<title>Node1&#45;&gt;Node4</title>
<path fill="none" stroke="black" d="M266.15,-34.89C274.59,-35.86 283.29,-36.86 291.89,-37.85"/>
<polygon fill="black" stroke="black" points="266.36,-31.39 256.03,-33.72 265.56,-38.34 266.36,-31.39"/>
</g>
<!-- Node3 -->
<g id="node4" class="node">
<title>Node3</title>
<g id="a_node4"><a xlink:href="group__circuit-gpio-mcal.html" target="_top" xlink:title="Assignment of microcontroller device pins to circuit functions and signals.">
<polygon fill="white" stroke="black" points="434,-19 302,-19 302,0 434,0 434,-19"/>
<text text-anchor="middle" x="368" y="-7" font-family="Helvetica,sans-Serif" font-size="10.00">Device GPIO Assignments</text>
</a>
</g>
</g>
<!-- Node1&#45;&gt;Node3 -->
<g id="edge2" class="edge">
<title>Node1&#45;&gt;Node3</title>
<path fill="none" stroke="black" d="M266.18,-20.5C277.91,-19.22 290.16,-17.88 301.92,-16.6"/>
<polygon fill="black" stroke="black" points="265.59,-17.04 256.03,-21.61 266.35,-24 265.59,-17.04"/>
</g>
</g>
</svg>
