<?xml version="1.0" encoding="UTF-8" standalone="no"?>
<!DOCTYPE svg PUBLIC "-//W3C//DTD SVG 1.1//EN"
 "http://www.w3.org/Graphics/SVG/1.1/DTD/svg11.dtd">
<!-- Generated by graphviz version 2.44.1 (20200629.0846)
 -->
<!-- Title: Power Control Application Layer Pages: 1 -->
<svg width="365pt" height="101pt"
 viewBox="0.00 0.00 365.00 101.00" xmlns="http://www.w3.org/2000/svg" xmlns:xlink="http://www.w3.org/1999/xlink">
<g id="graph0" class="graph" transform="scale(1 1) rotate(0) translate(4 97)">
<title>Power Control Application Layer</title>
<polygon fill="white" stroke="transparent" points="-4,4 -4,-97 361,-97 361,4 -4,4"/>
<!-- Node3 -->
<g id="node1" class="node">
<title>Node3</title>
<g id="a_node1"><a xlink:href="group__power-control-app-layer-public.html" target="_top" xlink:title="Public functions of the Power Control Application Layer.">
<polygon fill="white" stroke="black" points="355.5,-93 266.5,-93 266.5,-74 355.5,-74 355.5,-93"/>
<text text-anchor="middle" x="311" y="-81" font-family="Helvetica,sans-Serif" font-size="10.00">Public Functions</text>
</a>
</g>
</g>
<!-- Node2 -->
<g id="node2" class="node">
<title>Node2</title>
<g id="a_node2"><a xlink:href="group__task-layer.html" target="_top" xlink:title="Task Layer.">
<polygon fill="white" stroke="black" points="65,-56 0,-56 0,-37 65,-37 65,-56"/>
<text text-anchor="middle" x="32.5" y="-44" font-family="Helvetica,sans-Serif" font-size="10.00">Task Layer</text>
</a>
</g>
</g>
<!-- Node1 -->
<g id="node5" class="node">
<title>Node1</title>
<g id="a_node5"><a xlink:title=" ">
<polygon fill="#bfbfbf" stroke="black" points="229,-61.5 101,-61.5 101,-31.5 229,-31.5 229,-61.5"/>
<text text-anchor="start" x="109" y="-49.5" font-family="Helvetica,sans-Serif" font-size="10.00">Power Control Application</text>
<text text-anchor="middle" x="165" y="-38.5" font-family="Helvetica,sans-Serif" font-size="10.00"> Layer</text>
</a>
</g>
</g>
<!-- Node2&#45;&gt;Node1 -->
<g id="edge1" class="edge">
<title>Node2&#45;&gt;Node1</title>
<path fill="none" stroke="black" d="M75.17,-46.5C83.41,-46.5 92.23,-46.5 101,-46.5"/>
<polygon fill="black" stroke="black" points="75.09,-43 65.09,-46.5 75.09,-50 75.09,-43"/>
</g>
<!-- Node5 -->
<g id="node3" class="node">
<title>Node5</title>
<g id="a_node3"><a xlink:href="group__power-control-app-layer-private-var.html" target="_top" xlink:title="Private variables of the Power Control Application Layer.">
<polygon fill="white" stroke="black" points="355.5,-56 266.5,-56 266.5,-37 355.5,-37 355.5,-56"/>
<text text-anchor="middle" x="311" y="-44" font-family="Helvetica,sans-Serif" font-size="10.00">Private Variables</text>
</a>
</g>
</g>
<!-- Node4 -->
<g id="node4" class="node">
<title>Node4</title>
<g id="a_node4"><a xlink:href="group__power-control-app-layer-private.html" target="_top" xlink:title="Private functions of the Power Control Application Layer.">
<polygon fill="white" stroke="black" points="357,-19 265,-19 265,0 357,0 357,-19"/>
<text text-anchor="middle" x="311" y="-7" font-family="Helvetica,sans-Serif" font-size="10.00">Private Functions</text>
</a>
</g>
</g>
<!-- Node1&#45;&gt;Node3 -->
<g id="edge2" class="edge">
<title>Node1&#45;&gt;Node3</title>
<path fill="none" stroke="black" d="M234.62,-64.13C247.85,-67.53 261.22,-70.97 272.96,-73.98"/>
<polygon fill="black" stroke="black" points="235.13,-60.65 224.57,-61.55 233.38,-67.43 235.13,-60.65"/>
</g>
<!-- Node1&#45;&gt;Node5 -->
<g id="edge4" class="edge">
<title>Node1&#45;&gt;Node5</title>
<path fill="none" stroke="black" d="M239.2,-46.5C248.48,-46.5 257.72,-46.5 266.33,-46.5"/>
<polygon fill="black" stroke="black" points="239.16,-43 229.16,-46.5 239.16,-50 239.16,-43"/>
</g>
<!-- Node1&#45;&gt;Node4 -->
<g id="edge3" class="edge">
<title>Node1&#45;&gt;Node4</title>
<path fill="none" stroke="black" d="M234.62,-28.87C247.85,-25.47 261.22,-22.03 272.96,-19.02"/>
<polygon fill="black" stroke="black" points="233.38,-25.57 224.57,-31.45 235.13,-32.35 233.38,-25.57"/>
</g>
</g>
</svg>
