<?xml version="1.0" encoding="UTF-8" standalone="no"?>
<!DOCTYPE svg PUBLIC "-//W3C//DTD SVG 1.1//EN"
 "http://www.w3.org/Graphics/SVG/1.1/DTD/svg11.dtd">
<!-- Generated by graphviz version 2.44.1 (20200629.0846)
 -->
<!-- Title: __attribute__ Pages: 1 -->
<svg width="248pt" height="66pt"
 viewBox="0.00 0.00 248.00 66.00" xmlns="http://www.w3.org/2000/svg" xmlns:xlink="http://www.w3.org/1999/xlink">
<g id="graph0" class="graph" transform="scale(1 1) rotate(0) translate(4 62)">
<title>__attribute__</title>
<polygon fill="white" stroke="transparent" points="-4,4 -4,-62 244,-62 244,4 -4,4"/>
<!-- Node1 -->
<g id="node1" class="node">
<title>Node1</title>
<g id="a_node1"><a xlink:title=" ">
<polygon fill="#bfbfbf" stroke="black" points="0,-19.5 0,-38.5 73,-38.5 73,-19.5 0,-19.5"/>
<text text-anchor="middle" x="36.5" y="-26.5" font-family="Helvetica,sans-Serif" font-size="10.00">__attribute__</text>
</a>
</g>
</g>
<!-- Node2 -->
<g id="node2" class="node">
<title>Node2</title>
<g id="a_node2"><a xlink:href="group__fault-handler-functions.html#ga8842f6a41fe23f932a8864fc140c4b5b" target="_top" xlink:title="Application wide fault object monitoring routine.">
<polygon fill="white" stroke="black" points="110.5,-38.5 110.5,-57.5 238.5,-57.5 238.5,-38.5 110.5,-38.5"/>
<text text-anchor="middle" x="174.5" y="-45.5" font-family="Helvetica,sans-Serif" font-size="10.00">appFaultMonitor_Execute</text>
</a>
</g>
</g>
<!-- Node1&#45;&gt;Node2 -->
<g id="edge1" class="edge">
<title>Node1&#45;&gt;Node2</title>
<path fill="none" stroke="midnightblue" d="M73.23,-33.99C81.61,-35.16 90.84,-36.45 100.21,-37.76"/>
<polygon fill="midnightblue" stroke="midnightblue" points="100,-41.27 110.39,-39.18 100.97,-34.33 100,-41.27"/>
</g>
<!-- Node3 -->
<g id="node3" class="node">
<title>Node3</title>
<g id="a_node3"><a xlink:href="group__power-control-app-layer-public.html#ga13094235dd6cc123d9299925359ca178" target="_top" xlink:title="This is the top&#45;level function call triggering the most recent state machine of all associated power ...">
<polygon fill="white" stroke="black" points="109,-0.5 109,-19.5 240,-19.5 240,-0.5 109,-0.5"/>
<text text-anchor="middle" x="174.5" y="-7.5" font-family="Helvetica,sans-Serif" font-size="10.00">appPowerSupply_Execute</text>
</a>
</g>
</g>
<!-- Node1&#45;&gt;Node3 -->
<g id="edge2" class="edge">
<title>Node1&#45;&gt;Node3</title>
<path fill="none" stroke="midnightblue" d="M73.23,-24.01C81.18,-22.9 89.89,-21.68 98.76,-20.44"/>
<polygon fill="midnightblue" stroke="midnightblue" points="99.39,-23.89 108.81,-19.04 98.42,-16.96 99.39,-23.89"/>
</g>
</g>
</svg>
