<?xml version="1.0" encoding="UTF-8" standalone="no"?>
<!DOCTYPE svg PUBLIC "-//W3C//DTD SVG 1.1//EN"
 "http://www.w3.org/Graphics/SVG/1.1/DTD/svg11.dtd">
<!-- Generated by graphviz version 2.44.1 (20200629.0846)
 -->
<!-- Title: Task Layer Pages: 1 -->
<svg width="374pt" height="124pt"
 viewBox="0.00 0.00 374.00 123.50" xmlns="http://www.w3.org/2000/svg" xmlns:xlink="http://www.w3.org/1999/xlink">
<g id="graph0" class="graph" transform="scale(1 1) rotate(0) translate(4 119.5)">
<title>Task Layer</title>
<polygon fill="white" stroke="transparent" points="-4,4 -4,-119.5 370,-119.5 370,4 -4,4"/>
<!-- Node5 -->
<g id="node1" class="node">
<title>Node5</title>
<g id="a_node1"><a xlink:href="group__fault-handler.html" target="_top" xlink:title="Generic fault handler supporting comparison of static and dynamic data with automated fault trip and ...">
<polygon fill="white" stroke="black" points="362.5,-115.5 241.5,-115.5 241.5,-96.5 362.5,-96.5 362.5,-115.5"/>
<text text-anchor="middle" x="302" y="-103.5" font-family="Helvetica,sans-Serif" font-size="10.00">Fault Handler Reference</text>
</a>
</g>
</g>
<!-- Node4 -->
<g id="node2" class="node">
<title>Node4</title>
<g id="a_node2"><a xlink:href="group__buck-state-machine.html" target="_top" xlink:title=" ">
<polygon fill="white" stroke="black" points="356.5,-78 247.5,-78 247.5,-48 356.5,-48 356.5,-78"/>
<text text-anchor="start" x="255.5" y="-66" font-family="Helvetica,sans-Serif" font-size="10.00">Buck Converter State</text>
<text text-anchor="middle" x="302" y="-55" font-family="Helvetica,sans-Serif" font-size="10.00"> Machine</text>
</a>
</g>
</g>
<!-- Node1 -->
<g id="node3" class="node">
<title>Node1</title>
<g id="a_node3"><a xlink:title="Task Layer.">
<polygon fill="#bfbfbf" stroke="black" points="202,-72.5 137,-72.5 137,-53.5 202,-53.5 202,-72.5"/>
<text text-anchor="middle" x="169.5" y="-60.5" font-family="Helvetica,sans-Serif" font-size="10.00">Task Layer</text>
</a>
</g>
</g>
<!-- Node1&#45;&gt;Node5 -->
<g id="edge4" class="edge">
<title>Node1&#45;&gt;Node5</title>
<path fill="none" stroke="black" d="M205.89,-75.95C216.21,-79.62 227.52,-83.56 238,-87 247.77,-90.21 258.46,-93.51 268.21,-96.44"/>
<polygon fill="black" stroke="black" points="206.96,-72.61 196.36,-72.53 204.59,-79.2 206.96,-72.61"/>
</g>
<!-- Node1&#45;&gt;Node4 -->
<g id="edge3" class="edge">
<title>Node1&#45;&gt;Node4</title>
<path fill="none" stroke="black" d="M212.38,-63C223.49,-63 235.65,-63 247.3,-63"/>
<polygon fill="black" stroke="black" points="212.09,-59.5 202.09,-63 212.09,-66.5 212.09,-59.5"/>
</g>
<!-- Node3 -->
<g id="node5" class="node">
<title>Node3</title>
<g id="a_node5"><a xlink:href="group__power-control-app-layer.html" target="_top" xlink:title=" ">
<polygon fill="white" stroke="black" points="366,-30 238,-30 238,0 366,0 366,-30"/>
<text text-anchor="start" x="246" y="-18" font-family="Helvetica,sans-Serif" font-size="10.00">Power Control Application</text>
<text text-anchor="middle" x="302" y="-7" font-family="Helvetica,sans-Serif" font-size="10.00"> Layer</text>
</a>
</g>
</g>
<!-- Node1&#45;&gt;Node3 -->
<g id="edge2" class="edge">
<title>Node1&#45;&gt;Node3</title>
<path fill="none" stroke="black" d="M206,-49.94C222.7,-43.8 242.71,-36.44 260.05,-30.06"/>
<polygon fill="black" stroke="black" points="204.77,-46.66 196.59,-53.4 207.19,-53.23 204.77,-46.66"/>
</g>
<!-- Node2 -->
<g id="node4" class="node">
<title>Node2</title>
<g id="a_node4"><a xlink:href="group__firmware-flow.html" target="_top" xlink:title="Firmware Flowchart.">
<polygon fill="white" stroke="black" points="101,-72.5 0,-72.5 0,-53.5 101,-53.5 101,-72.5"/>
<text text-anchor="middle" x="50.5" y="-60.5" font-family="Helvetica,sans-Serif" font-size="10.00">Firmware Flowchart</text>
</a>
</g>
</g>
<!-- Node2&#45;&gt;Node1 -->
<g id="edge1" class="edge">
<title>Node2&#45;&gt;Node1</title>
<path fill="none" stroke="black" d="M111.39,-63C120.16,-63 128.89,-63 136.79,-63"/>
<polygon fill="black" stroke="black" points="111.12,-59.5 101.12,-63 111.12,-66.5 111.12,-59.5"/>
</g>
</g>
</svg>
