<?xml version="1.0" encoding="UTF-8" standalone="no"?>
<!DOCTYPE svg PUBLIC "-//W3C//DTD SVG 1.1//EN"
 "http://www.w3.org/Graphics/SVG/1.1/DTD/svg11.dtd">
<!-- Generated by graphviz version 2.44.1 (20200629.0846)
 -->
<!-- Title: Peripheral Special Function Register Abstraction Drivers Pages: 1 -->
<svg width="490pt" height="467pt"
 viewBox="0.00 0.00 490.00 466.50" xmlns="http://www.w3.org/2000/svg" xmlns:xlink="http://www.w3.org/1999/xlink">
<g id="graph0" class="graph" transform="scale(1 1) rotate(0) translate(4 462.5)">
<title>Peripheral Special Function Register Abstraction Drivers</title>
<polygon fill="white" stroke="transparent" points="-4,4 -4,-462.5 486,-462.5 486,4 -4,4"/>
<!-- Node9 -->
<g id="node1" class="node">
<title>Node9</title>
<g id="a_node1"><a xlink:href="group__p33c-gpio-pral.html" target="_top" xlink:title="General Purpose Input/Output Special Function Register Abstraction Driver.">
<polygon fill="white" stroke="black" points="464,-458.5 351,-458.5 351,-428.5 464,-428.5 464,-458.5"/>
<text text-anchor="start" x="359" y="-446.5" font-family="Helvetica,sans-Serif" font-size="10.00">General Purpose Input</text>
<text text-anchor="middle" x="407.5" y="-435.5" font-family="Helvetica,sans-Serif" font-size="10.00">/Output</text>
</a>
</g>
</g>
<!-- Node11 -->
<g id="node2" class="node">
<title>Node11</title>
<g id="a_node2"><a xlink:href="group__p33c-osc-pral.html" target="_top" xlink:title="Oscillator Module Special Function Register Abstraction Driver.">
<polygon fill="white" stroke="black" points="453.5,-410 361.5,-410 361.5,-391 453.5,-391 453.5,-410"/>
<text text-anchor="middle" x="407.5" y="-398" font-family="Helvetica,sans-Serif" font-size="10.00">Oscillator Module</text>
</a>
</g>
</g>
<!-- Node4 -->
<g id="node3" class="node">
<title>Node4</title>
<g id="a_node3"><a xlink:href="group__p33c-devices-pral.html" target="_top" xlink:title="Generic dsPIC33C Abstraction Layer Files.">
<polygon fill="white" stroke="black" points="458.5,-373 356.5,-373 356.5,-354 458.5,-354 458.5,-373"/>
<text text-anchor="middle" x="407.5" y="-361" font-family="Helvetica,sans-Serif" font-size="10.00">Device Family Filter</text>
</a>
</g>
</g>
<!-- Node7 -->
<g id="node4" class="node">
<title>Node7</title>
<g id="a_node4"><a xlink:href="group__p33c-dac-pral.html" target="_top" xlink:title="Digital&#45;To&#45;Analog Converter Peripheral Module Special Function Register Abstraction Driver.">
<polygon fill="white" stroke="black" points="474.5,-335.5 340.5,-335.5 340.5,-305.5 474.5,-305.5 474.5,-335.5"/>
<text text-anchor="start" x="348.5" y="-323.5" font-family="Helvetica,sans-Serif" font-size="10.00">Digital&#45;To&#45;Analog Converter</text>
<text text-anchor="middle" x="407.5" y="-312.5" font-family="Helvetica,sans-Serif" font-size="10.00"> Module</text>
</a>
</g>
</g>
<!-- Node2 -->
<g id="node5" class="node">
<title>Node2</title>
<g id="a_node5"><a xlink:href="group__device-abstraction.html" target="_top" xlink:title="Declarations of fundamental microcontroller device parameters.">
<polygon fill="white" stroke="black" points="112,-249.5 0,-249.5 0,-219.5 112,-219.5 112,-249.5"/>
<text text-anchor="start" x="8" y="-237.5" font-family="Helvetica,sans-Serif" font-size="10.00">Microcontroller Device</text>
<text text-anchor="middle" x="56" y="-226.5" font-family="Helvetica,sans-Serif" font-size="10.00"> Abstraction</text>
</a>
</g>
</g>
<!-- Node1 -->
<g id="node13" class="node">
<title>Node1</title>
<g id="a_node13"><a xlink:title=" ">
<polygon fill="#bfbfbf" stroke="black" points="297,-255 148,-255 148,-214 297,-214 297,-255"/>
<text text-anchor="start" x="156" y="-243" font-family="Helvetica,sans-Serif" font-size="10.00">Peripheral Special</text>
<text text-anchor="start" x="156" y="-232" font-family="Helvetica,sans-Serif" font-size="10.00"> Function Register Abstraction</text>
<text text-anchor="middle" x="222.5" y="-221" font-family="Helvetica,sans-Serif" font-size="10.00"> Drivers</text>
</a>
</g>
</g>
<!-- Node2&#45;&gt;Node1 -->
<g id="edge1" class="edge">
<title>Node2&#45;&gt;Node1</title>
<path fill="none" stroke="black" d="M122.28,-234.5C130.63,-234.5 139.23,-234.5 147.71,-234.5"/>
<polygon fill="black" stroke="black" points="122.23,-231 112.23,-234.5 122.23,-238 122.23,-231"/>
</g>
<!-- Node6 -->
<g id="node6" class="node">
<title>Node6</title>
<g id="a_node6"><a xlink:href="group__p33c-ccp-pral.html" target="_top" xlink:title="Capture Compare Peripheral Module Special Function Register Abstraction Driver.">
<polygon fill="white" stroke="black" points="471,-287 344,-287 344,-268 471,-268 471,-287"/>
<text text-anchor="middle" x="407.5" y="-275" font-family="Helvetica,sans-Serif" font-size="10.00">Capture Compare Module</text>
</a>
</g>
</g>
<!-- Node8 -->
<g id="node7" class="node">
<title>Node8</title>
<g id="a_node7"><a xlink:href="group__p33c-dsp-pral.html" target="_top" xlink:title="Digital Signal Processor Special Function Register Abstraction Driver.">
<polygon fill="white" stroke="black" points="468,-249.5 347,-249.5 347,-219.5 468,-219.5 468,-249.5"/>
<text text-anchor="start" x="355" y="-237.5" font-family="Helvetica,sans-Serif" font-size="10.00">Digital Signal Processor</text>
<text text-anchor="middle" x="407.5" y="-226.5" font-family="Helvetica,sans-Serif" font-size="10.00"> Converter Module</text>
</a>
</g>
</g>
<!-- Node3 -->
<g id="node8" class="node">
<title>Node3</title>
<g id="a_node8"><a xlink:href="group__xc16-pral.html" target="_top" xlink:title="Generic dsPIC33C Peripheral Register Abstraction Layer Header File.">
<polygon fill="white" stroke="black" points="482,-201.5 333,-201.5 333,-171.5 482,-171.5 482,-201.5"/>
<text text-anchor="start" x="341" y="-189.5" font-family="Helvetica,sans-Serif" font-size="10.00">Peripheral Register</text>
<text text-anchor="middle" x="407.5" y="-178.5" font-family="Helvetica,sans-Serif" font-size="10.00"> Abstraction Layer Header File</text>
</a>
</g>
</g>
<!-- Node5 -->
<g id="node9" class="node">
<title>Node5</title>
<g id="a_node9"><a xlink:href="group__p33c-macros-pral.html" target="_top" xlink:title="Generic dsPIC33C CPU Instruction Macros.">
<polygon fill="white" stroke="black" points="447.5,-153 367.5,-153 367.5,-134 447.5,-134 447.5,-153"/>
<text text-anchor="middle" x="407.5" y="-141" font-family="Helvetica,sans-Serif" font-size="10.00">Device Macros</text>
</a>
</g>
</g>
<!-- Node10 -->
<g id="node10" class="node">
<title>Node10</title>
<g id="a_node10"><a xlink:href="group__p33c-opa-pral.html" target="_top" xlink:title="Operational Amplifier Peripheral Module Special Function Register Abstraction Driver.">
<polygon fill="white" stroke="black" points="461,-115.5 354,-115.5 354,-85.5 461,-85.5 461,-115.5"/>
<text text-anchor="start" x="362" y="-103.5" font-family="Helvetica,sans-Serif" font-size="10.00">Operational Amplifier</text>
<text text-anchor="middle" x="407.5" y="-92.5" font-family="Helvetica,sans-Serif" font-size="10.00"> Module</text>
</a>
</g>
</g>
<!-- Node12 -->
<g id="node11" class="node">
<title>Node12</title>
<g id="a_node11"><a xlink:href="group__p33c-pps-pral.html" target="_top" xlink:title="Peripheral Pin Select Module Special Function Register Abstraction Driver.">
<polygon fill="white" stroke="black" points="461.5,-67.5 353.5,-67.5 353.5,-37.5 461.5,-37.5 461.5,-67.5"/>
<text text-anchor="start" x="361.5" y="-55.5" font-family="Helvetica,sans-Serif" font-size="10.00">Peripheral Pin Select</text>
<text text-anchor="middle" x="407.5" y="-44.5" font-family="Helvetica,sans-Serif" font-size="10.00"> Module</text>
</a>
</g>
</g>
<!-- Node13 -->
<g id="node12" class="node">
<title>Node13</title>
<g id="a_node12"><a xlink:href="group__p33c-pwm-pral.html" target="_top" xlink:title="High&#45;Speed PWM Module Special Function Register Abstraction Driver.">
<polygon fill="white" stroke="black" points="472,-19 343,-19 343,0 472,0 472,-19"/>
<text text-anchor="middle" x="407.5" y="-7" font-family="Helvetica,sans-Serif" font-size="10.00">High&#45;Speed PWM Module</text>
</a>
</g>
</g>
<!-- Node1&#45;&gt;Node9 -->
<g id="edge8" class="edge">
<title>Node1&#45;&gt;Node9</title>
<path fill="none" stroke="black" d="M233.65,-264.73C248.88,-305.62 281.49,-378.19 333,-419.5 338.34,-423.78 344.47,-427.31 350.86,-430.22"/>
<polygon fill="black" stroke="black" points="236.93,-263.51 230.23,-255.3 230.34,-265.89 236.93,-263.51"/>
</g>
<!-- Node1&#45;&gt;Node11 -->
<g id="edge10" class="edge">
<title>Node1&#45;&gt;Node11</title>
<path fill="none" stroke="black" d="M237.37,-264.01C254.85,-297.9 288.12,-352.65 333,-382.5 341.42,-388.1 351.43,-391.96 361.3,-394.62"/>
<polygon fill="black" stroke="black" points="240.48,-262.41 232.86,-255.04 234.23,-265.55 240.48,-262.41"/>
</g>
<!-- Node1&#45;&gt;Node4 -->
<g id="edge3" class="edge">
<title>Node1&#45;&gt;Node4</title>
<path fill="none" stroke="black" d="M244.79,-263.33C264.84,-288.42 297.08,-323.92 333,-344.5 340.2,-348.63 348.31,-351.88 356.45,-354.42"/>
<polygon fill="black" stroke="black" points="247.39,-260.97 238.48,-255.25 241.88,-265.28 247.39,-260.97"/>
</g>
<!-- Node1&#45;&gt;Node7 -->
<g id="edge6" class="edge">
<title>Node1&#45;&gt;Node7</title>
<path fill="none" stroke="black" d="M264.75,-260.45C284.85,-272.41 309.67,-286.21 333,-296.5 340.25,-299.7 348.06,-302.69 355.79,-305.41"/>
<polygon fill="black" stroke="black" points="266.53,-257.43 256.15,-255.27 262.92,-263.43 266.53,-257.43"/>
</g>
<!-- Node1&#45;&gt;Node6 -->
<g id="edge5" class="edge">
<title>Node1&#45;&gt;Node6</title>
<path fill="none" stroke="black" d="M307.11,-254.15C327.53,-258.95 348.49,-263.87 365.86,-267.95"/>
<polygon fill="black" stroke="black" points="307.68,-250.68 297.14,-251.8 306.08,-257.5 307.68,-250.68"/>
</g>
<!-- Node1&#45;&gt;Node8 -->
<g id="edge7" class="edge">
<title>Node1&#45;&gt;Node8</title>
<path fill="none" stroke="black" d="M307.27,-234.5C320.59,-234.5 334.14,-234.5 346.76,-234.5"/>
<polygon fill="black" stroke="black" points="307.14,-231 297.14,-234.5 307.14,-238 307.14,-231"/>
</g>
<!-- Node1&#45;&gt;Node3 -->
<g id="edge2" class="edge">
<title>Node1&#45;&gt;Node3</title>
<path fill="none" stroke="black" d="M306.94,-212.61C321.18,-208.88 335.67,-205.08 349.04,-201.57"/>
<polygon fill="black" stroke="black" points="305.93,-209.26 297.14,-215.18 307.7,-216.03 305.93,-209.26"/>
</g>
<!-- Node1&#45;&gt;Node5 -->
<g id="edge4" class="edge">
<title>Node1&#45;&gt;Node5</title>
<path fill="none" stroke="black" d="M257.7,-207.77C278.49,-192.64 306.13,-174.41 333,-162.5 343.72,-157.75 355.87,-154 367.16,-151.14"/>
<polygon fill="black" stroke="black" points="255.48,-205.07 249.52,-213.83 259.64,-210.69 255.48,-205.07"/>
</g>
<!-- Node1&#45;&gt;Node10 -->
<g id="edge9" class="edge">
<title>Node1&#45;&gt;Node10</title>
<path fill="none" stroke="black" d="M245.47,-205.77C265.75,-181.06 297.95,-146.07 333,-124.5 339.4,-120.56 346.52,-117.2 353.74,-114.34"/>
<polygon fill="black" stroke="black" points="242.61,-203.74 239.06,-213.73 248.06,-208.13 242.61,-203.74"/>
</g>
<!-- Node1&#45;&gt;Node12 -->
<g id="edge11" class="edge">
<title>Node1&#45;&gt;Node12</title>
<path fill="none" stroke="black" d="M236.86,-204.47C254.14,-168.96 287.49,-110.39 333,-76.5 339.14,-71.93 346.18,-68.2 353.43,-65.18"/>
<polygon fill="black" stroke="black" points="233.54,-203.3 232.42,-213.84 239.87,-206.3 233.54,-203.3"/>
</g>
<!-- Node1&#45;&gt;Node13 -->
<g id="edge12" class="edge">
<title>Node1&#45;&gt;Node13</title>
<path fill="none" stroke="black" d="M231.18,-204.13C244.24,-158.85 275.16,-74.1 333,-28.5 337.86,-24.66 343.42,-21.6 349.25,-19.15"/>
<polygon fill="black" stroke="black" points="227.76,-203.38 228.45,-213.96 234.5,-205.26 227.76,-203.38"/>
</g>
</g>
</svg>
