<?xml version="1.0" encoding="UTF-8" standalone="no"?>
<!DOCTYPE svg PUBLIC "-//W3C//DTD SVG 1.1//EN"
 "http://www.w3.org/Graphics/SVG/1.1/DTD/svg11.dtd">
<!-- Generated by graphviz version 2.44.1 (20200629.0846)
 -->
<!-- Title: appPowerSupply_Stop Pages: 1 -->
<svg width="786pt" height="66pt"
 viewBox="0.00 0.00 786.00 66.00" xmlns="http://www.w3.org/2000/svg" xmlns:xlink="http://www.w3.org/1999/xlink">
<g id="graph0" class="graph" transform="scale(1 1) rotate(0) translate(4 62)">
<title>appPowerSupply_Stop</title>
<polygon fill="white" stroke="transparent" points="-4,4 -4,-62 782,-62 782,4 -4,4"/>
<!-- Node1 -->
<g id="node1" class="node">
<title>Node1</title>
<g id="a_node1"><a xlink:title="Description">
<polygon fill="#bfbfbf" stroke="black" points="0,-19.5 0,-38.5 115,-38.5 115,-19.5 0,-19.5"/>
<text text-anchor="middle" x="57.5" y="-26.5" font-family="Helvetica,sans-Serif" font-size="10.00">appPowerSupply_Stop</text>
</a>
</g>
</g>
<!-- Node2 -->
<g id="node2" class="node">
<title>Node2</title>
<g id="a_node2"><a xlink:href="group__power-handler-function.html#gaa865d025fb1e5ae1e16e0c519c6ba9a2" target="_top" xlink:title="Description">
<polygon fill="white" stroke="black" points="151,-19.5 151,-38.5 273,-38.5 273,-19.5 151,-19.5"/>
<text text-anchor="middle" x="212" y="-26.5" font-family="Helvetica,sans-Serif" font-size="10.00">drv_BuckConverter_Stop</text>
</a>
</g>
</g>
<!-- Node1&#45;&gt;Node2 -->
<g id="edge1" class="edge">
<title>Node1&#45;&gt;Node2</title>
<path fill="none" stroke="midnightblue" d="M115.29,-29C123.53,-29 132.11,-29 140.58,-29"/>
<polygon fill="midnightblue" stroke="midnightblue" points="140.85,-32.5 150.85,-29 140.85,-25.5 140.85,-32.5"/>
</g>
<!-- Node3 -->
<g id="node3" class="node">
<title>Node3</title>
<g id="a_node3"><a xlink:href="group__power-handler-function.html#gaf5c603256fc12118fe63eb285676d95f" target="_top" xlink:title="Description">
<polygon fill="white" stroke="black" points="309,-19.5 309,-38.5 397,-38.5 397,-19.5 309,-19.5"/>
<text text-anchor="middle" x="353" y="-26.5" font-family="Helvetica,sans-Serif" font-size="10.00">buckPWM_Stop</text>
</a>
</g>
</g>
<!-- Node2&#45;&gt;Node3 -->
<g id="edge2" class="edge">
<title>Node2&#45;&gt;Node3</title>
<path fill="none" stroke="midnightblue" d="M273.16,-29C281.71,-29 290.46,-29 298.87,-29"/>
<polygon fill="midnightblue" stroke="midnightblue" points="298.92,-32.5 308.92,-29 298.92,-25.5 298.92,-32.5"/>
</g>
<!-- Node4 -->
<g id="node4" class="node">
<title>Node4</title>
<g id="a_node4"><a xlink:href="group__power-handler-function.html#ga649bb2f18322be1a303d05931adb2c6a" target="_top" xlink:title="Description">
<polygon fill="white" stroke="black" points="467.5,-38.5 467.5,-57.5 556.5,-57.5 556.5,-38.5 467.5,-38.5"/>
<text text-anchor="middle" x="512" y="-45.5" font-family="Helvetica,sans-Serif" font-size="10.00">buckGPIO_Clear</text>
</a>
</g>
</g>
<!-- Node3&#45;&gt;Node4 -->
<g id="edge3" class="edge">
<title>Node3&#45;&gt;Node4</title>
<path fill="none" stroke="midnightblue" d="M397.32,-34.24C415.87,-36.49 437.72,-39.13 457.29,-41.5"/>
<polygon fill="midnightblue" stroke="midnightblue" points="456.93,-44.98 467.28,-42.71 457.77,-38.03 456.93,-44.98"/>
</g>
<!-- Node6 -->
<g id="node6" class="node">
<title>Node6</title>
<g id="a_node6"><a xlink:href="group__pwm.html#ga8aa18df01ada60e1faac049c5eb34700" target="_top" xlink:title="Returns the PWM generator index.">
<polygon fill="white" stroke="black" points="433,-0.5 433,-19.5 591,-19.5 591,-0.5 433,-0.5"/>
<text text-anchor="middle" x="512" y="-7.5" font-family="Helvetica,sans-Serif" font-size="10.00">p33c_PwmGenerator_GetHandle</text>
</a>
</g>
</g>
<!-- Node3&#45;&gt;Node6 -->
<g id="edge5" class="edge">
<title>Node3&#45;&gt;Node6</title>
<path fill="none" stroke="midnightblue" d="M397.32,-23.76C405.36,-22.78 414.03,-21.74 422.86,-20.67"/>
<polygon fill="midnightblue" stroke="midnightblue" points="423.37,-24.13 432.88,-19.45 422.53,-17.18 423.37,-24.13"/>
</g>
<!-- Node5 -->
<g id="node5" class="node">
<title>Node5</title>
<g id="a_node5"><a xlink:href="group__gpio.html#gae1bc534f11ac7cf278865cb73b601055" target="_top" xlink:title="Gets pointer to GPIO Instance SFR set.">
<polygon fill="white" stroke="black" points="627,-38.5 627,-57.5 778,-57.5 778,-38.5 627,-38.5"/>
<text text-anchor="middle" x="702.5" y="-45.5" font-family="Helvetica,sans-Serif" font-size="10.00">p33c_GpioInstance_GetHandle</text>
</a>
</g>
</g>
<!-- Node4&#45;&gt;Node5 -->
<g id="edge4" class="edge">
<title>Node4&#45;&gt;Node5</title>
<path fill="none" stroke="midnightblue" d="M556.72,-48C574.66,-48 596.08,-48 616.86,-48"/>
<polygon fill="midnightblue" stroke="midnightblue" points="617,-51.5 627,-48 617,-44.5 617,-51.5"/>
</g>
</g>
</svg>
