<?xml version="1.0" encoding="UTF-8" standalone="no"?>
<!DOCTYPE svg PUBLIC "-//W3C//DTD SVG 1.1//EN"
 "http://www.w3.org/Graphics/SVG/1.1/DTD/svg11.dtd">
<!-- Generated by graphviz version 2.44.1 (20200629.0846)
 -->
<!-- Title: Startup Behavior Pages: 1 -->
<svg width="260pt" height="76pt"
 viewBox="0.00 0.00 260.00 75.50" xmlns="http://www.w3.org/2000/svg" xmlns:xlink="http://www.w3.org/1999/xlink">
<g id="graph0" class="graph" transform="scale(1 1) rotate(0) translate(4 71.5)">
<title>Startup Behavior</title>
<polygon fill="white" stroke="transparent" points="-4,4 -4,-71.5 256,-71.5 256,4 -4,4"/>
<!-- Node2 -->
<g id="node1" class="node">
<title>Node2</title>
<g id="a_node1"><a xlink:href="group__abstraction-layer.html" target="_top" xlink:title="Abstraction Layer Defines.">
<polygon fill="white" stroke="black" points="128,-67.5 0,-67.5 0,-48.5 128,-48.5 128,-67.5"/>
<text text-anchor="middle" x="64" y="-55.5" font-family="Helvetica,sans-Serif" font-size="10.00">Abstraction Layer Defines</text>
</a>
</g>
</g>
<!-- Node1 -->
<g id="node2" class="node">
<title>Node1</title>
<g id="a_node2"><a xlink:title="Global defines for soft&#45;start specific parameters.">
<polygon fill="#bfbfbf" stroke="black" points="252,-45.5 164,-45.5 164,-26.5 252,-26.5 252,-45.5"/>
<text text-anchor="middle" x="208" y="-33.5" font-family="Helvetica,sans-Serif" font-size="10.00">Startup Behavior</text>
</a>
</g>
</g>
<!-- Node2&#45;&gt;Node1 -->
<g id="edge1" class="edge">
<title>Node2&#45;&gt;Node1</title>
<path fill="none" stroke="black" d="M136.55,-46.92C145.87,-45.47 155.18,-44.03 163.84,-42.69"/>
<polygon fill="black" stroke="black" points="135.8,-43.49 126.46,-48.48 136.88,-50.41 135.8,-43.49"/>
</g>
<!-- Node3 -->
<g id="node3" class="node">
<title>Node3</title>
<g id="a_node3"><a xlink:href="group__adaptive-control.html" target="_top" xlink:title="Description:">
<polygon fill="white" stroke="black" points="119,-30 9,-30 9,0 119,0 119,-30"/>
<text text-anchor="start" x="17" y="-18" font-family="Helvetica,sans-Serif" font-size="10.00">Adaptive Gain Control</text>
<text text-anchor="middle" x="64" y="-7" font-family="Helvetica,sans-Serif" font-size="10.00"> Feed Forward</text>
</a>
</g>
</g>
<!-- Node3&#45;&gt;Node1 -->
<g id="edge2" class="edge">
<title>Node3&#45;&gt;Node1</title>
<path fill="none" stroke="black" d="M129.23,-24.5C140.88,-26.22 152.77,-27.98 163.64,-29.59"/>
<polygon fill="black" stroke="black" points="129.49,-21 119.09,-23 128.47,-27.92 129.49,-21"/>
</g>
</g>
</svg>
