<?xml version="1.0" encoding="UTF-8" standalone="no"?>
<!DOCTYPE svg PUBLIC "-//W3C//DTD SVG 1.1//EN"
 "http://www.w3.org/Graphics/SVG/1.1/DTD/svg11.dtd">
<!-- Generated by graphviz version 2.44.1 (20200629.0846)
 -->
<!-- Title: Private Properties Pages: 1 -->
<svg width="426pt" height="101pt"
 viewBox="0.00 0.00 426.00 101.00" xmlns="http://www.w3.org/2000/svg" xmlns:xlink="http://www.w3.org/1999/xlink">
<g id="graph0" class="graph" transform="scale(1 1) rotate(0) translate(4 97)">
<title>Private Properties</title>
<polygon fill="white" stroke="transparent" points="-4,4 -4,-97 422,-97 422,4 -4,4"/>
<!-- Node1 -->
<g id="node1" class="node">
<title>Node1</title>
<g id="a_node1"><a xlink:title="Public properties of the second library layer.">
<polygon fill="#bfbfbf" stroke="black" points="279,-56 186,-56 186,-37 279,-37 279,-56"/>
<text text-anchor="middle" x="232.5" y="-44" font-family="Helvetica,sans-Serif" font-size="10.00">Private Properties</text>
</a>
</g>
</g>
<!-- Node5 -->
<g id="node2" class="node">
<title>Node5</title>
<g id="a_node2"><a xlink:href="group__lib-layer-buck-config-properties-private-defines.html" target="_top" xlink:title=" ">
<polygon fill="white" stroke="black" points="418,-93 315,-93 315,-74 418,-74 418,-93"/>
<text text-anchor="middle" x="366.5" y="-81" font-family="Helvetica,sans-Serif" font-size="10.00">Defines and Macros</text>
</a>
</g>
</g>
<!-- Node1&#45;&gt;Node5 -->
<g id="edge4" class="edge">
<title>Node1&#45;&gt;Node5</title>
<path fill="none" stroke="black" d="M277.47,-58.83C294.96,-63.73 314.77,-69.28 331.16,-73.88"/>
<polygon fill="black" stroke="black" points="278.07,-55.36 267.49,-56.03 276.18,-62.1 278.07,-55.36"/>
</g>
<!-- Node4 -->
<g id="node4" class="node">
<title>Node4</title>
<g id="a_node4"><a xlink:href="group__lib-layer-buck-config-properties-private-data-types.html" target="_top" xlink:title=" ">
<polygon fill="white" stroke="black" points="399.5,-56 333.5,-56 333.5,-37 399.5,-37 399.5,-56"/>
<text text-anchor="middle" x="366.5" y="-44" font-family="Helvetica,sans-Serif" font-size="10.00">Data Types</text>
</a>
</g>
</g>
<!-- Node1&#45;&gt;Node4 -->
<g id="edge3" class="edge">
<title>Node1&#45;&gt;Node4</title>
<path fill="none" stroke="black" d="M289.54,-46.5C304.56,-46.5 320.28,-46.5 333.49,-46.5"/>
<polygon fill="black" stroke="black" points="289.3,-43 279.3,-46.5 289.3,-50 289.3,-43"/>
</g>
<!-- Node3 -->
<g id="node5" class="node">
<title>Node3</title>
<g id="a_node5"><a xlink:href="group__lib-layer-buck-config-properties-private-variables.html" target="_top" xlink:title=" ">
<polygon fill="white" stroke="black" points="395,-19 338,-19 338,0 395,0 395,-19"/>
<text text-anchor="middle" x="366.5" y="-7" font-family="Helvetica,sans-Serif" font-size="10.00">Variables</text>
</a>
</g>
</g>
<!-- Node1&#45;&gt;Node3 -->
<g id="edge2" class="edge">
<title>Node1&#45;&gt;Node3</title>
<path fill="none" stroke="black" d="M277.31,-34.22C297.28,-28.62 320.32,-22.16 337.84,-17.25"/>
<polygon fill="black" stroke="black" points="276.18,-30.9 267.49,-36.97 278.07,-37.64 276.18,-30.9"/>
</g>
<!-- Node2 -->
<g id="node3" class="node">
<title>Node2</title>
<g id="a_node3"><a xlink:href="group__lib-layer-buck-config.html" target="_top" xlink:title=" ">
<polygon fill="white" stroke="black" points="150,-56 0,-56 0,-37 150,-37 150,-56"/>
<text text-anchor="middle" x="75" y="-44" font-family="Helvetica,sans-Serif" font-size="10.00">Buck Peripheral Configurations</text>
</a>
</g>
</g>
<!-- Node2&#45;&gt;Node1 -->
<g id="edge1" class="edge">
<title>Node2&#45;&gt;Node1</title>
<path fill="none" stroke="black" d="M160.12,-46.5C168.97,-46.5 177.71,-46.5 185.87,-46.5"/>
<polygon fill="black" stroke="black" points="160.11,-43 150.11,-46.5 160.11,-50 160.11,-43"/>
</g>
</g>
</svg>
