<?xml version="1.0" encoding="UTF-8" standalone="no"?>
<!DOCTYPE svg PUBLIC "-//W3C//DTD SVG 1.1//EN"
 "http://www.w3.org/Graphics/SVG/1.1/DTD/svg11.dtd">
<!-- Generated by graphviz version 2.44.1 (20200629.0846)
 -->
<!-- Title: SYSTEM_Initialize Pages: 1 -->
<!--zoomable 257 -->
<svg id="main" version="1.1" xmlns="http://www.w3.org/2000/svg" xmlns:xlink="http://www.w3.org/1999/xlink" xml:space="preserve" onload="init(evt)">
<style type="text/css"><![CDATA[
.edge:hover path { stroke: red; }
.edge:hover polygon { stroke: red; fill: red; }
]]></style>
<script type="text/javascript"><![CDATA[
var edges = document.getElementsByTagName('g');
if (edges && edges.length) {
  for (var i=0;i<edges.length;i++) {
    if (edges[i].id.substr(0,4)=='edge') {
      edges[i].setAttribute('class','edge');
    }
  }
}
]]></script>
        <defs>
                <circle id="rim" cx="0" cy="0" r="7"/>
                <circle id="rim2" cx="0" cy="0" r="3.5"/>
                <g id="zoomPlus">
                        <use xlink:href="#rim" fill="#404040">
                                <set attributeName="fill" to="#808080" begin="zoomplus.mouseover" end="zoomplus.mouseout"/>
                        </use>
                        <path d="M-4,0h8M0,-4v8" fill="none" stroke="white" stroke-width="1.5" pointer-events="none"/>
                </g>
                <g id="zoomMin">
                        <use xlink:href="#rim" fill="#404040">
                                <set attributeName="fill" to="#808080" begin="zoomminus.mouseover" end="zoomminus.mouseout"/>
                        </use>
                        <path d="M-4,0h8" fill="none" stroke="white" stroke-width="1.5" pointer-events="none"/>
                </g>
                <g id="dirArrow">
                        <path fill="none" stroke="white" stroke-width="1.5" d="M0,-3.0v7 M-2.5,-0.5L0,-3.0L2.5,-0.5"/>
                </g>
               <g id="resetDef">
                       <use xlink:href="#rim2" fill="#404040">
                               <set attributeName="fill" to="#808080" begin="reset.mouseover" end="reset.mouseout"/>
                       </use>
               </g>
        </defs>

<script type="text/javascript">
var viewWidth = 965;
var viewHeight = 257;
var sectionId = 'dynsection-4';
</script>
<script xlink:href="svgpan.js"/>
<svg id="graph" class="graph">
<g id="viewport">
<title>SYSTEM_Initialize</title>
<polygon fill="white" stroke="transparent" points="-4,4 -4,-252.5 961,-252.5 961,4 -4,4"/>
<!-- Node1 -->
<g id="node1" class="node">
<title>Node1</title>
<g id="a_node1"><a xlink:title=" ">
<polygon fill="#bfbfbf" stroke="black" points="0,-168.5 0,-187.5 98,-187.5 98,-168.5 0,-168.5"/>
<text text-anchor="middle" x="49" y="-175.5" font-family="Helvetica,sans-Serif" font-size="10.00">SYSTEM_Initialize</text>
</a>
</g>
</g>
<!-- Node2 -->
<g id="node2" class="node">
<title>Node2</title>
<g id="a_node2"><a xlink:href="group__device-start-up.html#ga830e5c7087a8e5ee8ea39b7e3df94b68" target="_top" xlink:title="Initialization of user&#45;defined fault objects.">
<polygon fill="white" stroke="black" points="135.5,-187.5 135.5,-206.5 262.5,-206.5 262.5,-187.5 135.5,-187.5"/>
<text text-anchor="middle" x="199" y="-194.5" font-family="Helvetica,sans-Serif" font-size="10.00">appFaultMonitor_Initialize</text>
</a>
</g>
</g>
<!-- Node1&#45;&gt;Node2 -->
<g id="edge1" class="edge">
<title>Node1&#45;&gt;Node2</title>
<path fill="none" stroke="midnightblue" d="M98.05,-184.17C106.79,-185.29 116.08,-186.48 125.35,-187.67"/>
<polygon fill="midnightblue" stroke="midnightblue" points="125,-191.16 135.36,-188.96 125.89,-184.21 125,-191.16"/>
</g>
<!-- Node3 -->
<g id="node3" class="node">
<title>Node3</title>
<g id="a_node3"><a xlink:href="group__device-start-up.html#ga7a4cf6371d09457539f96a74b2809ca0" target="_top" xlink:title="Description">
<polygon fill="white" stroke="black" points="134,-149.5 134,-168.5 264,-168.5 264,-149.5 134,-149.5"/>
<text text-anchor="middle" x="199" y="-156.5" font-family="Helvetica,sans-Serif" font-size="10.00">appPowerSupply_Initialize</text>
</a>
</g>
</g>
<!-- Node1&#45;&gt;Node3 -->
<g id="edge2" class="edge">
<title>Node1&#45;&gt;Node3</title>
<path fill="none" stroke="midnightblue" d="M98.05,-171.83C106.24,-170.78 114.92,-169.67 123.6,-168.55"/>
<polygon fill="midnightblue" stroke="midnightblue" points="124.29,-171.99 133.77,-167.25 123.4,-165.05 124.29,-171.99"/>
</g>
<!-- Node4 -->
<g id="node4" class="node">
<title>Node4</title>
<g id="a_node4"><a xlink:href="group__power-handler-function.html#ga0b4cabdb02c8c9ea94ea1dfa39de3764" target="_top" xlink:title="Description">
<polygon fill="white" stroke="black" points="303.5,-218 303.5,-248 439.5,-248 439.5,-218 303.5,-218"/>
<text text-anchor="start" x="311.5" y="-236" font-family="Helvetica,sans-Serif" font-size="10.00">appPowerSupply_Controller</text>
<text text-anchor="middle" x="371.5" y="-225" font-family="Helvetica,sans-Serif" font-size="10.00">Initialize</text>
</a>
</g>
</g>
<!-- Node3&#45;&gt;Node4 -->
<g id="edge3" class="edge">
<title>Node3&#45;&gt;Node4</title>
<path fill="none" stroke="midnightblue" d="M241.66,-168.58C249.32,-171.11 257.08,-174.22 264,-178 282.53,-188.12 281.67,-198.52 300,-209 303.01,-210.72 306.16,-212.34 309.39,-213.87"/>
<polygon fill="midnightblue" stroke="midnightblue" points="308.1,-217.13 318.66,-217.93 310.9,-210.71 308.1,-217.13"/>
</g>
<!-- Node5 -->
<g id="node5" class="node">
<title>Node5</title>
<g id="a_node5"><a xlink:href="group__power-handler-function.html#gad0f6ff4894bf23722884c60bbcdcacd0" target="_top" xlink:title="Description">
<polygon fill="white" stroke="black" points="304,-169 304,-199 439,-199 439,-169 304,-169"/>
<text text-anchor="start" x="312" y="-187" font-family="Helvetica,sans-Serif" font-size="10.00">appPowerSupply_Converter</text>
<text text-anchor="middle" x="371.5" y="-176" font-family="Helvetica,sans-Serif" font-size="10.00">ObjectInitialize</text>
</a>
</g>
</g>
<!-- Node3&#45;&gt;Node5 -->
<g id="edge4" class="edge">
<title>Node3&#45;&gt;Node5</title>
<path fill="none" stroke="midnightblue" d="M264.46,-168.45C274.05,-169.86 284.01,-171.32 293.82,-172.76"/>
<polygon fill="midnightblue" stroke="midnightblue" points="293.56,-176.26 303.96,-174.24 294.58,-169.33 293.56,-176.26"/>
</g>
<!-- Node6 -->
<g id="node6" class="node">
<title>Node6</title>
<g id="a_node6"><a xlink:href="group__power-handler-function.html#ga0b26acfec74d1804384b4ba1a3cffab4" target="_top" xlink:title="Description">
<polygon fill="white" stroke="black" points="300,-120 300,-150 443,-150 443,-120 300,-120"/>
<text text-anchor="start" x="308" y="-138" font-family="Helvetica,sans-Serif" font-size="10.00">appPowerSupply_Peripherals</text>
<text text-anchor="middle" x="371.5" y="-127" font-family="Helvetica,sans-Serif" font-size="10.00">Initialize</text>
</a>
</g>
</g>
<!-- Node3&#45;&gt;Node6 -->
<g id="edge5" class="edge">
<title>Node3&#45;&gt;Node6</title>
<path fill="none" stroke="midnightblue" d="M264.46,-149.93C272.8,-148.75 281.42,-147.54 289.97,-146.34"/>
<polygon fill="midnightblue" stroke="midnightblue" points="290.55,-149.79 299.96,-144.93 289.57,-142.86 290.55,-149.79"/>
</g>
<!-- Node15 -->
<g id="node15" class="node">
<title>Node15</title>
<g id="a_node15"><a xlink:href="group__power-handler-function.html#ga9210070749c2ed49abd8a30b27f64151" target="_top" xlink:title="Description">
<polygon fill="white" stroke="black" points="313.5,-65.5 313.5,-84.5 429.5,-84.5 429.5,-65.5 313.5,-65.5"/>
<text text-anchor="middle" x="371.5" y="-72.5" font-family="Helvetica,sans-Serif" font-size="10.00">appPowerSupply_Start</text>
</a>
</g>
</g>
<!-- Node3&#45;&gt;Node15 -->
<g id="edge14" class="edge">
<title>Node3&#45;&gt;Node15</title>
<path fill="none" stroke="midnightblue" d="M219.56,-149.36C249.62,-134.55 307.34,-106.12 342.04,-89.02"/>
<polygon fill="midnightblue" stroke="midnightblue" points="343.75,-92.08 351.17,-84.52 340.65,-85.8 343.75,-92.08"/>
</g>
<!-- Node7 -->
<g id="node7" class="node">
<title>Node7</title>
<g id="a_node7"><a xlink:href="group__power-handler-function.html#ga97eb8bdd17b9c2e169f0634ebabb5d19" target="_top" xlink:title="This function initializes all peripheral modules and their instances used by the power controller.">
<polygon fill="white" stroke="black" points="479,-133.5 479,-152.5 616,-152.5 616,-133.5 479,-133.5"/>
<text text-anchor="middle" x="547.5" y="-140.5" font-family="Helvetica,sans-Serif" font-size="10.00">drv_BuckConverter_Initialize</text>
</a>
</g>
</g>
<!-- Node6&#45;&gt;Node7 -->
<g id="edge6" class="edge">
<title>Node6&#45;&gt;Node7</title>
<path fill="none" stroke="midnightblue" d="M443.02,-138.24C451.55,-138.63 460.3,-139.04 468.93,-139.43"/>
<polygon fill="midnightblue" stroke="midnightblue" points="468.83,-142.93 478.98,-139.9 469.15,-135.94 468.83,-142.93"/>
</g>
<!-- Node8 -->
<g id="node8" class="node">
<title>Node8</title>
<g id="a_node8"><a xlink:href="group__power-handler-function.html#gab889ae485e95010864ca04500457861a" target="_top" xlink:title="Description">
<polygon fill="white" stroke="black" points="654,-228.5 654,-247.5 788,-247.5 788,-228.5 654,-228.5"/>
<text text-anchor="middle" x="721" y="-235.5" font-family="Helvetica,sans-Serif" font-size="10.00">buckADC_ChannelInitialize</text>
</a>
</g>
</g>
<!-- Node7&#45;&gt;Node8 -->
<g id="edge7" class="edge">
<title>Node7&#45;&gt;Node8</title>
<path fill="none" stroke="midnightblue" d="M558.83,-152.61C576.57,-168.61 614.52,-200.76 652,-219 656.7,-221.29 661.72,-223.34 666.83,-225.17"/>
<polygon fill="midnightblue" stroke="midnightblue" points="666.1,-228.62 676.69,-228.43 668.29,-221.97 666.1,-228.62"/>
</g>
<!-- Node9 -->
<g id="node9" class="node">
<title>Node9</title>
<g id="a_node9"><a xlink:href="group__power-handler-function.html#ga086bc1e4304b2ce7a435bf2a9799d078" target="_top" xlink:title="Description">
<polygon fill="white" stroke="black" points="656,-190.5 656,-209.5 786,-209.5 786,-190.5 656,-190.5"/>
<text text-anchor="middle" x="721" y="-197.5" font-family="Helvetica,sans-Serif" font-size="10.00">buckADC_ModuleInitialize</text>
</a>
</g>
</g>
<!-- Node7&#45;&gt;Node9 -->
<g id="edge8" class="edge">
<title>Node7&#45;&gt;Node9</title>
<path fill="none" stroke="midnightblue" d="M572.99,-152.61C593.84,-160.65 624.68,-172.18 652,-181 659.14,-183.3 666.75,-185.59 674.2,-187.74"/>
<polygon fill="midnightblue" stroke="midnightblue" points="673.27,-191.11 683.84,-190.47 675.18,-184.38 673.27,-191.11"/>
</g>
<!-- Node10 -->
<g id="node10" class="node">
<title>Node10</title>
<g id="a_node10"><a xlink:href="group__power-handler-function.html#ga984f623275f9e1da2e11be2e9ff8221c" target="_top" xlink:title="Description">
<polygon fill="white" stroke="black" points="670,-152.5 670,-171.5 772,-171.5 772,-152.5 670,-152.5"/>
<text text-anchor="middle" x="721" y="-159.5" font-family="Helvetica,sans-Serif" font-size="10.00">buckGPIO_Initialize</text>
</a>
</g>
</g>
<!-- Node7&#45;&gt;Node10 -->
<g id="edge9" class="edge">
<title>Node7&#45;&gt;Node10</title>
<path fill="none" stroke="midnightblue" d="M616.28,-150.51C630.67,-152.1 645.77,-153.78 659.85,-155.34"/>
<polygon fill="midnightblue" stroke="midnightblue" points="659.58,-158.83 669.9,-156.45 660.35,-151.87 659.58,-158.83"/>
</g>
<!-- Node13 -->
<g id="node13" class="node">
<title>Node13</title>
<g id="a_node13"><a xlink:href="group__power-handler-function.html#ga283487111ea685224a2caf350540daad" target="_top" xlink:title="Description">
<polygon fill="white" stroke="black" points="652,-114.5 652,-133.5 790,-133.5 790,-114.5 652,-114.5"/>
<text text-anchor="middle" x="721" y="-121.5" font-family="Helvetica,sans-Serif" font-size="10.00">buckPWM_ChannelInitialize</text>
</a>
</g>
</g>
<!-- Node7&#45;&gt;Node13 -->
<g id="edge12" class="edge">
<title>Node7&#45;&gt;Node13</title>
<path fill="none" stroke="midnightblue" d="M616.28,-135.49C624.69,-134.56 633.35,-133.6 641.9,-132.65"/>
<polygon fill="midnightblue" stroke="midnightblue" points="642.31,-136.13 651.87,-131.55 641.54,-129.17 642.31,-136.13"/>
</g>
<!-- Node14 -->
<g id="node14" class="node">
<title>Node14</title>
<g id="a_node14"><a xlink:href="group__power-handler-function.html#ga1dedc10502a96efea6da9207f3416219" target="_top" xlink:title="Description">
<polygon fill="white" stroke="black" points="654,-76.5 654,-95.5 788,-95.5 788,-76.5 654,-76.5"/>
<text text-anchor="middle" x="721" y="-83.5" font-family="Helvetica,sans-Serif" font-size="10.00">buckPWM_ModuleInitialize</text>
</a>
</g>
</g>
<!-- Node7&#45;&gt;Node14 -->
<g id="edge13" class="edge">
<title>Node7&#45;&gt;Node14</title>
<path fill="none" stroke="midnightblue" d="M572.99,-133.39C593.84,-125.35 624.68,-113.82 652,-105 659.14,-102.7 666.75,-100.41 674.2,-98.26"/>
<polygon fill="midnightblue" stroke="midnightblue" points="675.18,-101.62 683.84,-95.53 673.27,-94.89 675.18,-101.62"/>
</g>
<!-- Node11 -->
<g id="node11" class="node">
<title>Node11</title>
<g id="a_node11"><a xlink:href="group__power-handler-function.html#ga649bb2f18322be1a303d05931adb2c6a" target="_top" xlink:title="Description">
<polygon fill="white" stroke="black" points="847,-171.5 847,-190.5 936,-190.5 936,-171.5 847,-171.5"/>
<text text-anchor="middle" x="891.5" y="-178.5" font-family="Helvetica,sans-Serif" font-size="10.00">buckGPIO_Clear</text>
</a>
</g>
</g>
<!-- Node10&#45;&gt;Node11 -->
<g id="edge10" class="edge">
<title>Node10&#45;&gt;Node11</title>
<path fill="none" stroke="midnightblue" d="M772.1,-167.65C792.43,-169.94 815.96,-172.59 836.66,-174.93"/>
<polygon fill="midnightblue" stroke="midnightblue" points="836.55,-178.44 846.88,-176.08 837.33,-171.48 836.55,-178.44"/>
</g>
<!-- Node12 -->
<g id="node12" class="node">
<title>Node12</title>
<g id="a_node12"><a xlink:href="group__power-handler-function.html#ga3d3f91c0e40884874e7df3a67fff23f3" target="_top" xlink:title="Description">
<polygon fill="white" stroke="black" points="826,-133.5 826,-152.5 957,-152.5 957,-133.5 826,-133.5"/>
<text text-anchor="middle" x="891.5" y="-140.5" font-family="Helvetica,sans-Serif" font-size="10.00">buckGPIO_PrivateInitialize</text>
</a>
</g>
</g>
<!-- Node10&#45;&gt;Node12 -->
<g id="edge11" class="edge">
<title>Node10&#45;&gt;Node12</title>
<path fill="none" stroke="midnightblue" d="M772.1,-156.35C785.81,-154.8 800.98,-153.09 815.76,-151.43"/>
<polygon fill="midnightblue" stroke="midnightblue" points="816.35,-154.88 825.9,-150.28 815.57,-147.93 816.35,-154.88"/>
</g>
<!-- Node16 -->
<g id="node16" class="node">
<title>Node16</title>
<g id="a_node16"><a xlink:href="group__power-handler-function.html#ga8c05ea0ee077172e4025d8b7a36f5c9f" target="_top" xlink:title="Description">
<polygon fill="white" stroke="black" points="486,-38.5 486,-57.5 609,-57.5 609,-38.5 486,-38.5"/>
<text text-anchor="middle" x="547.5" y="-45.5" font-family="Helvetica,sans-Serif" font-size="10.00">drv_BuckConverter_Start</text>
</a>
</g>
</g>
<!-- Node15&#45;&gt;Node16 -->
<g id="edge15" class="edge">
<title>Node15&#45;&gt;Node16</title>
<path fill="none" stroke="midnightblue" d="M429.96,-66.08C444.65,-63.8 460.63,-61.32 475.9,-58.95"/>
<polygon fill="midnightblue" stroke="midnightblue" points="476.47,-62.41 485.82,-57.42 475.4,-55.49 476.47,-62.41"/>
</g>
<!-- Node17 -->
<g id="node17" class="node">
<title>Node17</title>
<g id="a_node17"><a xlink:href="group__power-handler-function.html#gae12da3618a5d9e82920992df80b67b47" target="_top" xlink:title="Description">
<polygon fill="white" stroke="black" points="679,-38.5 679,-57.5 763,-57.5 763,-38.5 679,-38.5"/>
<text text-anchor="middle" x="721" y="-45.5" font-family="Helvetica,sans-Serif" font-size="10.00">buckADC_Start</text>
</a>
</g>
</g>
<!-- Node16&#45;&gt;Node17 -->
<g id="edge16" class="edge">
<title>Node16&#45;&gt;Node17</title>
<path fill="none" stroke="midnightblue" d="M609.45,-48C628.86,-48 650.13,-48 668.79,-48"/>
<polygon fill="midnightblue" stroke="midnightblue" points="668.85,-51.5 678.85,-48 668.85,-44.5 668.85,-51.5"/>
</g>
<!-- Node18 -->
<g id="node18" class="node">
<title>Node18</title>
<g id="a_node18"><a xlink:href="group__power-handler-function.html#gae6c3c54562df6c9d941bab2bc98b2bf2" target="_top" xlink:title="Description">
<polygon fill="white" stroke="black" points="676.5,-0.5 676.5,-19.5 765.5,-19.5 765.5,-0.5 676.5,-0.5"/>
<text text-anchor="middle" x="721" y="-7.5" font-family="Helvetica,sans-Serif" font-size="10.00">buckPWM_Start</text>
</a>
</g>
</g>
<!-- Node16&#45;&gt;Node18 -->
<g id="edge17" class="edge">
<title>Node16&#45;&gt;Node18</title>
<path fill="none" stroke="midnightblue" d="M591.78,-38.41C614.61,-33.35 642.82,-27.1 666.96,-21.75"/>
<polygon fill="midnightblue" stroke="midnightblue" points="668.03,-25.1 677.03,-19.52 666.51,-18.27 668.03,-25.1"/>
</g>
</g>
</svg>
        <g id="navigator" transform="translate(0 0)" fill="#404254">
                <rect fill="#f2f5e9" fill-opacity="0.5" stroke="#606060" stroke-width=".5" x="0" y="0" width="60" height="60"/>
                <use id="zoomplus" xlink:href="#zoomPlus" x="17" y="9" onmousedown="handleZoom(evt,'in')"/>
                <use id="zoomminus" xlink:href="#zoomMin" x="42" y="9" onmousedown="handleZoom(evt,'out')"/>
                <use id="reset" xlink:href="#resetDef" x="30" y="36" onmousedown="handleReset()"/>
                <g id="arrowUp" xlink:href="#dirArrow" transform="translate(30 24)" onmousedown="handlePan(0,-1)">
                  <use xlink:href="#rim" fill="#404040">
                        <set attributeName="fill" to="#808080" begin="arrowUp.mouseover" end="arrowUp.mouseout"/>
                  </use>
                  <path fill="none" stroke="white" stroke-width="1.5" d="M0,-3.0v7 M-2.5,-0.5L0,-3.0L2.5,-0.5"/>
                </g>
                <g id="arrowRight" xlink:href="#dirArrow" transform="rotate(90) translate(36 -43)" onmousedown="handlePan(1,0)">
                  <use xlink:href="#rim" fill="#404040">
                        <set attributeName="fill" to="#808080" begin="arrowRight.mouseover" end="arrowRight.mouseout"/>
                  </use>
                  <path fill="none" stroke="white" stroke-width="1.5" d="M0,-3.0v7 M-2.5,-0.5L0,-3.0L2.5,-0.5"/>
                </g>
                <g id="arrowDown" xlink:href="#dirArrow" transform="rotate(180) translate(-30 -48)" onmousedown="handlePan(0,1)">
                  <use xlink:href="#rim" fill="#404040">
                        <set attributeName="fill" to="#808080" begin="arrowDown.mouseover" end="arrowDown.mouseout"/>
                  </use>
                  <path fill="none" stroke="white" stroke-width="1.5" d="M0,-3.0v7 M-2.5,-0.5L0,-3.0L2.5,-0.5"/>
                </g>
                <g id="arrowLeft" xlink:href="#dirArrow" transform="rotate(270) translate(-36 17)" onmousedown="handlePan(-1,0)">
                  <use xlink:href="#rim" fill="#404040">
                        <set attributeName="fill" to="#808080" begin="arrowLeft.mouseover" end="arrowLeft.mouseout"/>
                  </use>
                  <path fill="none" stroke="white" stroke-width="1.5" d="M0,-3.0v7 M-2.5,-0.5L0,-3.0L2.5,-0.5"/>
                </g>
        </g>
        <svg viewBox="0 0 15 15" width="100%" height="30px" preserveAspectRatio="xMaxYMin meet">
         <g id="arrow_out" transform="scale(0.3 0.3)">
          <a xlink:href="group__device-start-up_ga5630229f9308951b78658dc1af6b10e3_cgraph_org.svg" target="_base">
           <rect id="button" ry="5" rx="5" y="6" x="6" height="38" width="38"
                fill="#f2f5e9" fill-opacity="0.5" stroke="#606060" stroke-width="1.0"/>
           <path id="arrow"
             d="M 11.500037,31.436501 C 11.940474,20.09759 22.043105,11.32322 32.158766,21.979434 L 37.068811,17.246167 C 37.068811,17.246167 37.088388,32 37.088388,32 L 22.160133,31.978069 C 22.160133,31.978069 26.997745,27.140456 26.997745,27.140456 C 18.528582,18.264221 13.291696,25.230495 11.500037,31.436501 z"
             style="fill:#404040;"/>
          </a>
         </g>
        </svg>
</svg>
