<?xml version="1.0" encoding="UTF-8" standalone="no"?>
<!DOCTYPE svg PUBLIC "-//W3C//DTD SVG 1.1//EN"
 "http://www.w3.org/Graphics/SVG/1.1/DTD/svg11.dtd">
<!-- Generated by graphviz version 2.44.1 (20200629.0846)
 -->
<!-- Title: Hardware Abstraction Layer Pages: 1 -->
<svg width="286pt" height="468pt"
 viewBox="0.00 0.00 286.00 468.00" xmlns="http://www.w3.org/2000/svg" xmlns:xlink="http://www.w3.org/1999/xlink">
<g id="graph0" class="graph" transform="scale(1 1) rotate(0) translate(4 464)">
<title>Hardware Abstraction Layer</title>
<polygon fill="white" stroke="transparent" points="-4,4 -4,-464 282,-464 282,4 -4,4"/>
<!-- Node4 -->
<g id="node1" class="node">
<title>Node4</title>
<g id="a_node1"><a xlink:href="group__startup-timing.html" target="_top" xlink:title="Declaration of startup timing periods.">
<polygon fill="white" stroke="black" points="271.5,-460 152.5,-460 152.5,-441 271.5,-441 271.5,-460"/>
<text text-anchor="middle" x="212" y="-448" font-family="Helvetica,sans-Serif" font-size="10.00">Startup Timing Settings</text>
</a>
</g>
</g>
<!-- Node1 -->
<g id="node2" class="node">
<title>Node1</title>
<g id="a_node2"><a xlink:title="Hardware Abstraction Layer Declarations.">
<polygon fill="#bfbfbf" stroke="black" points="110,-261.5 0,-261.5 0,-231.5 110,-231.5 110,-261.5"/>
<text text-anchor="start" x="8" y="-249.5" font-family="Helvetica,sans-Serif" font-size="10.00">Hardware Abstraction</text>
<text text-anchor="middle" x="55" y="-238.5" font-family="Helvetica,sans-Serif" font-size="10.00"> Layer</text>
</a>
</g>
</g>
<!-- Node1&#45;&gt;Node4 -->
<g id="edge3" class="edge">
<title>Node1&#45;&gt;Node4</title>
<path fill="none" stroke="black" d="M61.1,-271.4C70.62,-311.42 94.92,-389.89 146,-432.5 150.14,-435.95 154.89,-438.74 159.89,-441"/>
<polygon fill="black" stroke="black" points="64.51,-270.62 58.9,-261.64 57.69,-272.17 64.51,-270.62"/>
</g>
<!-- Node6 -->
<g id="node3" class="node">
<title>Node6</title>
<g id="a_node3"><a xlink:href="group__device-gpio-mcal.html" target="_top" xlink:title="Global abstraction labels for device pin assignments.">
<polygon fill="white" stroke="black" points="278,-423 146,-423 146,-404 278,-404 278,-423"/>
<text text-anchor="middle" x="212" y="-411" font-family="Helvetica,sans-Serif" font-size="10.00">Device GPIO Assignments</text>
</a>
</g>
</g>
<!-- Node1&#45;&gt;Node6 -->
<g id="edge5" class="edge">
<title>Node1&#45;&gt;Node6</title>
<path fill="none" stroke="black" d="M64.3,-271.24C76.76,-304.51 103.45,-363.23 146,-395.5 150.48,-398.9 155.56,-401.65 160.87,-403.89"/>
<polygon fill="black" stroke="black" points="67.58,-270 60.9,-261.78 61,-272.38 67.58,-270"/>
</g>
<!-- Node8 -->
<g id="node4" class="node">
<title>Node8</title>
<g id="a_node4"><a xlink:href="group__input-voltage-feedback.html" target="_top" xlink:title="Declaration of input voltage feedback parameters.">
<polygon fill="white" stroke="black" points="271.5,-386 152.5,-386 152.5,-367 271.5,-367 271.5,-386"/>
<text text-anchor="middle" x="212" y="-374" font-family="Helvetica,sans-Serif" font-size="10.00">Input Voltage Feedback</text>
</a>
</g>
</g>
<!-- Node1&#45;&gt;Node8 -->
<g id="edge7" class="edge">
<title>Node1&#45;&gt;Node8</title>
<path fill="none" stroke="black" d="M69.06,-270.43C84.25,-296 111.67,-335.91 146,-358.5 151.18,-361.91 157.01,-364.68 162.98,-366.93"/>
<polygon fill="black" stroke="black" points="72.06,-268.62 64.03,-261.71 66,-272.12 72.06,-268.62"/>
</g>
<!-- Node3 -->
<g id="node5" class="node">
<title>Node3</title>
<g id="a_node5"><a xlink:href="group__state-machine.html" target="_top" xlink:title="Declaration of global state&#45;machine parameters.">
<polygon fill="white" stroke="black" points="271.5,-349 152.5,-349 152.5,-330 271.5,-330 271.5,-349"/>
<text text-anchor="middle" x="212" y="-337" font-family="Helvetica,sans-Serif" font-size="10.00">State Machine Settings</text>
</a>
</g>
</g>
<!-- Node1&#45;&gt;Node3 -->
<g id="edge2" class="edge">
<title>Node1&#45;&gt;Node3</title>
<path fill="none" stroke="black" d="M77.42,-268.92C94.53,-285.63 119.91,-307.83 146,-321.5 152.43,-324.87 159.56,-327.66 166.67,-329.96"/>
<polygon fill="black" stroke="black" points="79.71,-266.26 70.16,-261.68 74.77,-271.22 79.71,-266.26"/>
</g>
<!-- Node10 -->
<g id="node6" class="node">
<title>Node10</title>
<g id="a_node6"><a xlink:href="group__phase-current-feedback.html" target="_top" xlink:title="Declaration of phase current feedback parameters.">
<polygon fill="white" stroke="black" points="274.5,-312 149.5,-312 149.5,-293 274.5,-293 274.5,-312"/>
<text text-anchor="middle" x="212" y="-300" font-family="Helvetica,sans-Serif" font-size="10.00">Phase Current Feedback</text>
</a>
</g>
</g>
<!-- Node1&#45;&gt;Node10 -->
<g id="edge9" class="edge">
<title>Node1&#45;&gt;Node10</title>
<path fill="none" stroke="black" d="M98.39,-265.73C113.28,-272.13 130.23,-279.01 146,-284.5 154.74,-287.54 164.27,-290.42 173.28,-292.94"/>
<polygon fill="black" stroke="black" points="99.5,-262.4 88.94,-261.62 96.71,-268.82 99.5,-262.4"/>
</g>
<!-- Node5 -->
<g id="node7" class="node">
<title>Node5</title>
<g id="a_node7"><a xlink:href="group__fault-response.html" target="_top" xlink:title="Declaration of fault object trip and recovery delays.">
<polygon fill="white" stroke="black" points="274,-275 150,-275 150,-256 274,-256 274,-275"/>
<text text-anchor="middle" x="212" y="-263" font-family="Helvetica,sans-Serif" font-size="10.00">Fault Response Settings</text>
</a>
</g>
</g>
<!-- Node1&#45;&gt;Node5 -->
<g id="edge4" class="edge">
<title>Node1&#45;&gt;Node5</title>
<path fill="none" stroke="black" d="M120.3,-254.38C130.1,-255.58 140.2,-256.82 149.93,-258.01"/>
<polygon fill="black" stroke="black" points="120.56,-250.89 110.21,-253.15 119.71,-257.84 120.56,-250.89"/>
</g>
<!-- Node13 -->
<g id="node8" class="node">
<title>Node13</title>
<g id="a_node8"><a xlink:href="group__special-options.html" target="_top" xlink:title="Global defines used to enable/disable special firmware options.">
<polygon fill="white" stroke="black" points="276,-238 148,-238 148,-219 276,-219 276,-238"/>
<text text-anchor="middle" x="212" y="-226" font-family="Helvetica,sans-Serif" font-size="10.00">Special Firmware Options</text>
</a>
</g>
</g>
<!-- Node1&#45;&gt;Node13 -->
<g id="edge12" class="edge">
<title>Node1&#45;&gt;Node13</title>
<path fill="none" stroke="black" d="M120.33,-239.03C129.4,-237.98 138.73,-236.89 147.78,-235.84"/>
<polygon fill="black" stroke="black" points="119.74,-235.57 110.21,-240.2 120.55,-242.53 119.74,-235.57"/>
</g>
<!-- Node2 -->
<g id="node9" class="node">
<title>Node2</title>
<g id="a_node9"><a xlink:href="group__device-abstraction.html" target="_top" xlink:title="Declarations of fundamental microcontroller device parameters.">
<polygon fill="white" stroke="black" points="268,-200.5 156,-200.5 156,-170.5 268,-170.5 268,-200.5"/>
<text text-anchor="start" x="164" y="-188.5" font-family="Helvetica,sans-Serif" font-size="10.00">Microcontroller Device</text>
<text text-anchor="middle" x="212" y="-177.5" font-family="Helvetica,sans-Serif" font-size="10.00"> Abstraction</text>
</a>
</g>
</g>
<!-- Node1&#45;&gt;Node2 -->
<g id="edge1" class="edge">
<title>Node1&#45;&gt;Node2</title>
<path fill="none" stroke="black" d="M102.96,-227.58C116.8,-222.04 132,-215.99 146,-210.5 154.22,-207.28 163.03,-203.86 171.44,-200.62"/>
<polygon fill="black" stroke="black" points="101.59,-224.36 93.61,-231.32 104.2,-230.85 101.59,-224.36"/>
</g>
<!-- Node11 -->
<g id="node10" class="node">
<title>Node11</title>
<g id="a_node10"><a xlink:href="group__adaptive-control.html" target="_top" xlink:title="Declaration of macros calculating additional parameters for Adaptive Gain Modulation.">
<polygon fill="white" stroke="black" points="267,-152.5 157,-152.5 157,-122.5 267,-122.5 267,-152.5"/>
<text text-anchor="start" x="165" y="-140.5" font-family="Helvetica,sans-Serif" font-size="10.00">Adaptive Gain Control</text>
<text text-anchor="middle" x="212" y="-129.5" font-family="Helvetica,sans-Serif" font-size="10.00"> Feed Forward</text>
</a>
</g>
</g>
<!-- Node1&#45;&gt;Node11 -->
<g id="edge10" class="edge">
<title>Node1&#45;&gt;Node11</title>
<path fill="none" stroke="black" d="M75.25,-223.78C92.24,-204.93 118.51,-178.55 146,-161.5 151.32,-158.2 157.15,-155.25 163.08,-152.65"/>
<polygon fill="black" stroke="black" points="72.56,-221.53 68.56,-231.35 77.81,-226.17 72.56,-221.53"/>
</g>
<!-- Node12 -->
<g id="node11" class="node">
<title>Node12</title>
<g id="a_node11"><a xlink:href="group__control-interrupt-vector-declarations.html" target="_top" xlink:title="Control loop Interrupt Vector Settings.">
<polygon fill="white" stroke="black" points="270.5,-104.5 153.5,-104.5 153.5,-74.5 270.5,-74.5 270.5,-104.5"/>
<text text-anchor="start" x="161.5" y="-92.5" font-family="Helvetica,sans-Serif" font-size="10.00">Control Interrutp Vector</text>
<text text-anchor="middle" x="212" y="-81.5" font-family="Helvetica,sans-Serif" font-size="10.00"> Declarations</text>
</a>
</g>
</g>
<!-- Node1&#45;&gt;Node12 -->
<g id="edge11" class="edge">
<title>Node1&#45;&gt;Node12</title>
<path fill="none" stroke="black" d="M66.62,-222.29C80.73,-192.72 108.35,-143.01 146,-113.5 150.36,-110.09 155.24,-107.12 160.33,-104.56"/>
<polygon fill="black" stroke="black" points="63.39,-220.94 62.35,-231.48 69.74,-223.88 63.39,-220.94"/>
</g>
<!-- Node7 -->
<g id="node12" class="node">
<title>Node7</title>
<g id="a_node12"><a xlink:href="group__pwm-fundamentals.html" target="_top" xlink:title="Declaration of fundamental PWM parameters.">
<polygon fill="white" stroke="black" points="252,-56 172,-56 172,-37 252,-37 252,-56"/>
<text text-anchor="middle" x="212" y="-44" font-family="Helvetica,sans-Serif" font-size="10.00">PWM Settings</text>
</a>
</g>
</g>
<!-- Node1&#45;&gt;Node7 -->
<g id="edge6" class="edge">
<title>Node1&#45;&gt;Node7</title>
<path fill="none" stroke="black" d="M61.58,-221.51C71.62,-182.41 96.45,-106.97 146,-65.5 153.39,-59.31 162.72,-55.14 171.98,-52.33"/>
<polygon fill="black" stroke="black" points="58.17,-220.75 59.19,-231.3 64.97,-222.41 58.17,-220.75"/>
</g>
<!-- Node9 -->
<g id="node13" class="node">
<title>Node9</title>
<g id="a_node13"><a xlink:href="group__output-voltage-feedback.html" target="_top" xlink:title="Declaration of output voltage feedback parameters.">
<polygon fill="white" stroke="black" points="276,-19 148,-19 148,0 276,0 276,-19"/>
<text text-anchor="middle" x="212" y="-7" font-family="Helvetica,sans-Serif" font-size="10.00">Output Voltage Feedback</text>
</a>
</g>
</g>
<!-- Node1&#45;&gt;Node9 -->
<g id="edge8" class="edge">
<title>Node1&#45;&gt;Node9</title>
<path fill="none" stroke="black" d="M59.29,-221.09C66.51,-175.7 88.03,-80.57 146,-28.5 150.29,-24.65 155.31,-21.58 160.64,-19.13"/>
<polygon fill="black" stroke="black" points="55.78,-220.85 57.78,-231.25 62.71,-221.87 55.78,-220.85"/>
</g>
</g>
</svg>
