<?xml version="1.0" encoding="UTF-8" standalone="no"?>
<!DOCTYPE svg PUBLIC "-//W3C//DTD SVG 1.1//EN"
 "http://www.w3.org/Graphics/SVG/1.1/DTD/svg11.dtd">
<!-- Generated by graphviz version 2.44.1 (20200629.0846)
 -->
<!-- Title: Abstraction Layer Defines Pages: 1 -->
<svg width="312pt" height="458pt"
 viewBox="0.00 0.00 312.00 458.00" xmlns="http://www.w3.org/2000/svg" xmlns:xlink="http://www.w3.org/1999/xlink">
<g id="graph0" class="graph" transform="scale(1 1) rotate(0) translate(4 454)">
<title>Abstraction Layer Defines</title>
<polygon fill="white" stroke="transparent" points="-4,4 -4,-454 308,-454 308,4 -4,4"/>
<!-- Node10 -->
<g id="node1" class="node">
<title>Node10</title>
<g id="a_node1"><a xlink:href="group__startup-timing.html" target="_top" xlink:title="Declaration of startup timing periods.">
<polygon fill="white" stroke="black" points="293.5,-450 174.5,-450 174.5,-431 293.5,-431 293.5,-450"/>
<text text-anchor="middle" x="234" y="-438" font-family="Helvetica,sans-Serif" font-size="10.00">Startup Timing Settings</text>
</a>
</g>
</g>
<!-- Node1 -->
<g id="node2" class="node">
<title>Node1</title>
<g id="a_node2"><a xlink:title="Abstraction Layer Defines.">
<polygon fill="#bfbfbf" stroke="black" points="128,-243 0,-243 0,-224 128,-224 128,-243"/>
<text text-anchor="middle" x="64" y="-231" font-family="Helvetica,sans-Serif" font-size="10.00">Abstraction Layer Defines</text>
</a>
</g>
</g>
<!-- Node1&#45;&gt;Node10 -->
<g id="edge9" class="edge">
<title>Node1&#45;&gt;Node10</title>
<path fill="none" stroke="black" d="M69.59,-253.06C79.68,-291.62 107.53,-377.6 164,-422.5 168.26,-425.89 173.1,-428.65 178.19,-430.89"/>
<polygon fill="black" stroke="black" points="72.92,-251.97 67.11,-243.11 66.13,-253.66 72.92,-251.97"/>
</g>
<!-- Node6 -->
<g id="node3" class="node">
<title>Node6</title>
<g id="a_node3"><a xlink:href="group__input-voltage-feedback.html" target="_top" xlink:title="Declaration of input voltage feedback properties.">
<polygon fill="white" stroke="black" points="293.5,-413 174.5,-413 174.5,-394 293.5,-394 293.5,-413"/>
<text text-anchor="middle" x="234" y="-401" font-family="Helvetica,sans-Serif" font-size="10.00">Input Voltage Feedback</text>
</a>
</g>
</g>
<!-- Node1&#45;&gt;Node6 -->
<g id="edge5" class="edge">
<title>Node1&#45;&gt;Node6</title>
<path fill="none" stroke="black" d="M72.12,-252.77C85.16,-285.3 116.02,-350.93 164,-385.5 168.72,-388.9 174.03,-391.66 179.56,-393.9"/>
<polygon fill="black" stroke="black" points="75.26,-251.16 68.39,-243.1 68.73,-253.69 75.26,-251.16"/>
</g>
<!-- Node3 -->
<g id="node4" class="node">
<title>Node3</title>
<g id="a_node4"><a xlink:href="group__state-machine-settings.html" target="_top" xlink:title="Global defines for state&#45;machine specific parameters.">
<polygon fill="white" stroke="black" points="293.5,-376 174.5,-376 174.5,-357 293.5,-357 293.5,-376"/>
<text text-anchor="middle" x="234" y="-364" font-family="Helvetica,sans-Serif" font-size="10.00">State Machine Settings</text>
</a>
</g>
</g>
<!-- Node1&#45;&gt;Node3 -->
<g id="edge2" class="edge">
<title>Node1&#45;&gt;Node3</title>
<path fill="none" stroke="black" d="M75.83,-252.01C91.81,-277.66 124.16,-323.65 164,-348.5 169.46,-351.91 175.55,-354.67 181.79,-356.92"/>
<polygon fill="black" stroke="black" points="78.7,-250 70.52,-243.26 72.72,-253.63 78.7,-250"/>
</g>
<!-- Node8 -->
<g id="node5" class="node">
<title>Node8</title>
<g id="a_node5"><a xlink:href="group__phase-current-feedback.html" target="_top" xlink:title="Declaration of phase current feedback parameters.">
<polygon fill="white" stroke="black" points="296.5,-339 171.5,-339 171.5,-320 296.5,-320 296.5,-339"/>
<text text-anchor="middle" x="234" y="-327" font-family="Helvetica,sans-Serif" font-size="10.00">Phase Current Feedback</text>
</a>
</g>
</g>
<!-- Node1&#45;&gt;Node8 -->
<g id="edge7" class="edge">
<title>Node1&#45;&gt;Node8</title>
<path fill="none" stroke="black" d="M81.8,-250.37C100.36,-268.09 131.91,-295.55 164,-311.5 170.76,-314.86 178.22,-317.64 185.66,-319.93"/>
<polygon fill="black" stroke="black" points="84.05,-247.68 74.45,-243.21 79.17,-252.7 84.05,-247.68"/>
</g>
<!-- Node5 -->
<g id="node6" class="node">
<title>Node5</title>
<g id="a_node6"><a xlink:href="group__fundamental-pwm-settings.html" target="_top" xlink:title="Global defines for PWM settings of DV330101.">
<polygon fill="white" stroke="black" points="304,-302 164,-302 164,-283 304,-283 304,-302"/>
<text text-anchor="middle" x="234" y="-290" font-family="Helvetica,sans-Serif" font-size="10.00">Fundamental PWM Settings</text>
</a>
</g>
</g>
<!-- Node1&#45;&gt;Node5 -->
<g id="edge4" class="edge">
<title>Node1&#45;&gt;Node5</title>
<path fill="none" stroke="black" d="M95.16,-247.26C114.56,-255.79 140.46,-266.6 164,-274.5 173.15,-277.57 183.14,-280.44 192.59,-282.95"/>
<polygon fill="black" stroke="black" points="96.48,-244.02 85.92,-243.15 93.64,-250.41 96.48,-244.02"/>
</g>
<!-- Node13 -->
<g id="node7" class="node">
<title>Node13</title>
<g id="a_node7"><a xlink:href="group__custom-options.html" target="_top" xlink:title=" ">
<polygon fill="white" stroke="black" points="277,-265 191,-265 191,-246 277,-246 277,-265"/>
<text text-anchor="middle" x="234" y="-253" font-family="Helvetica,sans-Serif" font-size="10.00">Special Options</text>
</a>
</g>
</g>
<!-- Node1&#45;&gt;Node13 -->
<g id="edge12" class="edge">
<title>Node1&#45;&gt;Node13</title>
<path fill="none" stroke="black" d="M137.97,-243.06C156.02,-245.42 174.76,-247.87 190.78,-249.97"/>
<polygon fill="black" stroke="black" points="138.4,-239.58 128.03,-241.75 137.5,-246.52 138.4,-239.58"/>
</g>
<!-- Node9 -->
<g id="node8" class="node">
<title>Node9</title>
<g id="a_node8"><a xlink:href="group__adaptive-control.html" target="_top" xlink:title="Declaration of macros calculating additional parameters for Adaptive Gain Modulation.">
<polygon fill="white" stroke="black" points="289,-227.5 179,-227.5 179,-197.5 289,-197.5 289,-227.5"/>
<text text-anchor="start" x="187" y="-215.5" font-family="Helvetica,sans-Serif" font-size="10.00">Adaptive Gain Control</text>
<text text-anchor="middle" x="234" y="-204.5" font-family="Helvetica,sans-Serif" font-size="10.00"> Feed Forward</text>
</a>
</g>
</g>
<!-- Node1&#45;&gt;Node9 -->
<g id="edge8" class="edge">
<title>Node1&#45;&gt;Node9</title>
<path fill="none" stroke="black" d="M137.97,-224.38C151.74,-222.66 165.91,-220.89 178.97,-219.25"/>
<polygon fill="black" stroke="black" points="137.52,-220.91 128.03,-225.62 138.39,-227.85 137.52,-220.91"/>
</g>
<!-- Node2 -->
<g id="node9" class="node">
<title>Node2</title>
<g id="a_node9"><a xlink:href="group__microcontroller-abstraction.html" target="_top" xlink:title="Global abstraction labels for device pin assignments of control signals.">
<polygon fill="white" stroke="black" points="300.5,-179 167.5,-179 167.5,-160 300.5,-160 300.5,-179"/>
<text text-anchor="middle" x="234" y="-167" font-family="Helvetica,sans-Serif" font-size="10.00">Microcontroller Abstraction</text>
</a>
</g>
</g>
<!-- Node1&#45;&gt;Node2 -->
<g id="edge1" class="edge">
<title>Node1&#45;&gt;Node2</title>
<path fill="none" stroke="black" d="M92.58,-219.54C112.18,-209.98 139.29,-197.46 164,-188.5 173.58,-185.03 184.1,-181.83 193.98,-179.09"/>
<polygon fill="black" stroke="black" points="91.03,-216.4 83.61,-223.97 94.13,-222.68 91.03,-216.4"/>
</g>
<!-- Node11 -->
<g id="node10" class="node">
<title>Node11</title>
<g id="a_node10"><a xlink:href="group__fault-objects-settings.html" target="_top" xlink:title="Declaration of fault object trip and recovery delays.">
<polygon fill="white" stroke="black" points="288.5,-142 179.5,-142 179.5,-123 288.5,-123 288.5,-142"/>
<text text-anchor="middle" x="234" y="-130" font-family="Helvetica,sans-Serif" font-size="10.00">Fault Object Settings</text>
</a>
</g>
</g>
<!-- Node1&#45;&gt;Node11 -->
<g id="edge10" class="edge">
<title>Node1&#45;&gt;Node11</title>
<path fill="none" stroke="black" d="M80.84,-216.65C99.17,-198.1 131.09,-168.64 164,-151.5 171.27,-147.71 179.38,-144.61 187.41,-142.1"/>
<polygon fill="black" stroke="black" points="78.29,-214.25 73.85,-223.87 83.32,-219.12 78.29,-214.25"/>
</g>
<!-- Node4 -->
<g id="node11" class="node">
<title>Node4</title>
<g id="a_node11"><a xlink:href="group__power-parameter.html" target="_top" xlink:title="Global defines for Buck Converter Power Control parameters.">
<polygon fill="white" stroke="black" points="296.5,-104.5 171.5,-104.5 171.5,-74.5 296.5,-74.5 296.5,-104.5"/>
<text text-anchor="start" x="179.5" y="-92.5" font-family="Helvetica,sans-Serif" font-size="10.00">Power Control Parameter</text>
<text text-anchor="middle" x="234" y="-81.5" font-family="Helvetica,sans-Serif" font-size="10.00"> Declaration</text>
</a>
</g>
</g>
<!-- Node1&#45;&gt;Node4 -->
<g id="edge3" class="edge">
<title>Node1&#45;&gt;Node4</title>
<path fill="none" stroke="black" d="M76.01,-214.85C92.2,-188.91 124.8,-142.03 164,-114.5 169.42,-110.69 175.49,-107.4 181.71,-104.57"/>
<polygon fill="black" stroke="black" points="72.84,-213.32 70.62,-223.68 78.82,-216.96 72.84,-213.32"/>
</g>
<!-- Node12 -->
<g id="node12" class="node">
<title>Node12</title>
<g id="a_node12"><a xlink:href="group__controller-declarations.html" target="_top" xlink:title="Description">
<polygon fill="white" stroke="black" points="291.5,-56 176.5,-56 176.5,-37 291.5,-37 291.5,-56"/>
<text text-anchor="middle" x="234" y="-44" font-family="Helvetica,sans-Serif" font-size="10.00">Controller Declarations</text>
</a>
</g>
</g>
<!-- Node1&#45;&gt;Node12 -->
<g id="edge11" class="edge">
<title>Node1&#45;&gt;Node12</title>
<path fill="none" stroke="black" d="M70.94,-214.23C82.75,-179.15 112.6,-104.86 164,-65.5 169.03,-61.65 174.8,-58.58 180.8,-56.13"/>
<polygon fill="black" stroke="black" points="67.6,-213.19 67.84,-223.78 74.26,-215.34 67.6,-213.19"/>
</g>
<!-- Node7 -->
<g id="node13" class="node">
<title>Node7</title>
<g id="a_node13"><a xlink:href="group__output-voltage-feedback.html" target="_top" xlink:title="Declaration of phase current feedback parameters.">
<polygon fill="white" stroke="black" points="298,-19 170,-19 170,0 298,0 298,-19"/>
<text text-anchor="middle" x="234" y="-7" font-family="Helvetica,sans-Serif" font-size="10.00">Output Voltage Feedback</text>
</a>
</g>
</g>
<!-- Node1&#45;&gt;Node7 -->
<g id="edge6" class="edge">
<title>Node1&#45;&gt;Node7</title>
<path fill="none" stroke="black" d="M68.83,-213.76C77.82,-172.82 104.21,-78.33 164,-28.5 168.68,-24.6 174.09,-21.5 179.79,-19.03"/>
<polygon fill="black" stroke="black" points="65.39,-213.09 66.78,-223.6 72.25,-214.52 65.39,-213.09"/>
</g>
</g>
</svg>
