<?xml version="1.0" encoding="UTF-8" standalone="no"?>
<!DOCTYPE svg PUBLIC "-//W3C//DTD SVG 1.1//EN"
 "http://www.w3.org/Graphics/SVG/1.1/DTD/svg11.dtd">
<!-- Generated by graphviz version 2.44.1 (20200629.0846)
 -->
<!-- Title: main Pages: 1 -->
<svg width="1311pt" height="369pt"
 viewBox="0.00 0.00 1311.00 369.00" xmlns="http://www.w3.org/2000/svg" xmlns:xlink="http://www.w3.org/1999/xlink">
<g id="graph0" class="graph" transform="scale(1 1) rotate(0) translate(4 365)">
<title>main</title>
<polygon fill="white" stroke="transparent" points="-4,4 -4,-365 1307,-365 1307,4 -4,4"/>
<!-- Node1 -->
<g id="node1" class="node">
<title>Node1</title>
<g id="a_node1"><a xlink:title="Application main function executed after device comes out of RESET.">
<polygon fill="#bfbfbf" stroke="black" points="0,-227.5 0,-246.5 38,-246.5 38,-227.5 0,-227.5"/>
<text text-anchor="middle" x="19" y="-234.5" font-family="Helvetica,sans-Serif" font-size="10.00">main</text>
</a>
</g>
</g>
<!-- Node2 -->
<g id="node2" class="node">
<title>Node2</title>
<g id="a_node2"><a xlink:href="group__main-loop.html#ga8842f6a41fe23f932a8864fc140c4b5b" target="_top" xlink:title="Application wide fault object monitoring routine.">
<polygon fill="white" stroke="black" points="75.5,-303.5 75.5,-322.5 203.5,-322.5 203.5,-303.5 75.5,-303.5"/>
<text text-anchor="middle" x="139.5" y="-310.5" font-family="Helvetica,sans-Serif" font-size="10.00">appFaultMonitor_Execute</text>
</a>
</g>
</g>
<!-- Node1&#45;&gt;Node2 -->
<g id="edge1" class="edge">
<title>Node1&#45;&gt;Node2</title>
<path fill="none" stroke="midnightblue" d="M26.53,-246.55C35.69,-259.23 53.54,-281.47 74,-294 77.43,-296.1 81.1,-297.98 84.9,-299.66"/>
<polygon fill="midnightblue" stroke="midnightblue" points="83.9,-303.03 94.49,-303.43 86.47,-296.52 83.9,-303.03"/>
</g>
<!-- Node9 -->
<g id="node9" class="node">
<title>Node9</title>
<g id="a_node9"><a xlink:href="group__main-loop.html#ga13094235dd6cc123d9299925359ca178" target="_top" xlink:title="This is the top&#45;level function call triggering the most recent state machine of all associated power ...">
<polygon fill="white" stroke="black" points="74,-265.5 74,-284.5 205,-284.5 205,-265.5 74,-265.5"/>
<text text-anchor="middle" x="139.5" y="-272.5" font-family="Helvetica,sans-Serif" font-size="10.00">appPowerSupply_Execute</text>
</a>
</g>
</g>
<!-- Node1&#45;&gt;Node9 -->
<g id="edge8" class="edge">
<title>Node1&#45;&gt;Node9</title>
<path fill="none" stroke="midnightblue" d="M38.41,-243.75C48.82,-247.49 62.08,-252.15 74,-256 80.72,-258.17 87.86,-260.37 94.85,-262.48"/>
<polygon fill="midnightblue" stroke="midnightblue" points="94.34,-265.98 104.92,-265.47 96.33,-259.26 94.34,-265.98"/>
</g>
<!-- Node11 -->
<g id="node11" class="node">
<title>Node11</title>
<g id="a_node11"><a xlink:href="group__system-initialization.html#ga5630229f9308951b78658dc1af6b10e3" target="_top" xlink:title="Initializes essential chip resources and application task.">
<polygon fill="white" stroke="black" points="90.5,-227.5 90.5,-246.5 188.5,-246.5 188.5,-227.5 90.5,-227.5"/>
<text text-anchor="middle" x="139.5" y="-234.5" font-family="Helvetica,sans-Serif" font-size="10.00">SYSTEM_Initialize</text>
</a>
</g>
</g>
<!-- Node1&#45;&gt;Node11 -->
<g id="edge11" class="edge">
<title>Node1&#45;&gt;Node11</title>
<path fill="none" stroke="midnightblue" d="M38.26,-237C49.54,-237 64.73,-237 79.86,-237"/>
<polygon fill="midnightblue" stroke="midnightblue" points="80.27,-240.5 90.27,-237 80.27,-233.5 80.27,-240.5"/>
</g>
<!-- Node12 -->
<g id="node12" class="node">
<title>Node12</title>
<g id="a_node12"><a xlink:href="group__system-initialization.html#ga70c5cba054e38a4e8c8285a187ff61fa" target="_top" xlink:title="Initializes the user&#45;defined tasks and chip resources.">
<polygon fill="white" stroke="black" points="89,-178 89,-208 190,-208 190,-178 89,-178"/>
<text text-anchor="start" x="97" y="-196" font-family="Helvetica,sans-Serif" font-size="10.00">sysUserPeriperhals</text>
<text text-anchor="middle" x="139.5" y="-185" font-family="Helvetica,sans-Serif" font-size="10.00">_Initialize</text>
</a>
</g>
</g>
<!-- Node1&#45;&gt;Node12 -->
<g id="edge12" class="edge">
<title>Node1&#45;&gt;Node12</title>
<path fill="none" stroke="midnightblue" d="M38.26,-230.22C51.62,-225.26 70.45,-218.27 88.18,-211.68"/>
<polygon fill="midnightblue" stroke="midnightblue" points="89.72,-214.85 97.88,-208.08 87.28,-208.28 89.72,-214.85"/>
</g>
<!-- Node13 -->
<g id="node13" class="node">
<title>Node13</title>
<g id="a_node13"><a xlink:href="group__system-initialization.html#ga2be64f5f0b9a2c0c6713f5a69d793e05" target="_top" xlink:title="Initializes the user&#45;defined tasks and chip resources.">
<polygon fill="white" stroke="black" points="80,-139.5 80,-158.5 199,-158.5 199,-139.5 80,-139.5"/>
<text text-anchor="middle" x="139.5" y="-146.5" font-family="Helvetica,sans-Serif" font-size="10.00">sysUserTasks_Initialize</text>
</a>
</g>
</g>
<!-- Node1&#45;&gt;Node13 -->
<g id="edge13" class="edge">
<title>Node1&#45;&gt;Node13</title>
<path fill="none" stroke="midnightblue" d="M24.92,-227.43C33.08,-212.49 50.85,-183.73 74,-168 76.94,-166 80.09,-164.22 83.36,-162.61"/>
<polygon fill="midnightblue" stroke="midnightblue" points="85,-165.71 92.82,-158.56 82.25,-159.28 85,-165.71"/>
</g>
<!-- Node3 -->
<g id="node3" class="node">
<title>Node3</title>
<g id="a_node3"><a xlink:href="group__power-handler-function.html#ga3c7bf6b771bc1296401a270da4a95bff" target="_top" xlink:title=" ">
<polygon fill="white" stroke="black" points="252.5,-341.5 252.5,-360.5 383.5,-360.5 383.5,-341.5 252.5,-341.5"/>
<text text-anchor="middle" x="318" y="-348.5" font-family="Helvetica,sans-Serif" font-size="10.00">appPowerSupply_Resume</text>
</a>
</g>
</g>
<!-- Node2&#45;&gt;Node3 -->
<g id="edge2" class="edge">
<title>Node2&#45;&gt;Node3</title>
<path fill="none" stroke="midnightblue" d="M185.04,-322.59C208.64,-327.67 237.83,-333.96 262.75,-339.32"/>
<polygon fill="midnightblue" stroke="midnightblue" points="262.27,-342.8 272.78,-341.48 263.74,-335.95 262.27,-342.8"/>
</g>
<!-- Node8 -->
<g id="node8" class="node">
<title>Node8</title>
<g id="a_node8"><a xlink:href="group__fault-handler-function.html#ga47606594b5bc56b85a3ff49bd4f3d1ad" target="_top" xlink:title="Check current fault status of a user&#45;defined fault object.">
<polygon fill="white" stroke="black" points="276.5,-303.5 276.5,-322.5 359.5,-322.5 359.5,-303.5 276.5,-303.5"/>
<text text-anchor="middle" x="318" y="-310.5" font-family="Helvetica,sans-Serif" font-size="10.00">drv_FaultCheck</text>
</a>
</g>
</g>
<!-- Node2&#45;&gt;Node8 -->
<g id="edge7" class="edge">
<title>Node2&#45;&gt;Node8</title>
<path fill="none" stroke="midnightblue" d="M203.72,-313C224.26,-313 246.78,-313 266.29,-313"/>
<polygon fill="midnightblue" stroke="midnightblue" points="266.48,-316.5 276.48,-313 266.48,-309.5 266.48,-316.5"/>
</g>
<!-- Node4 -->
<g id="node4" class="node">
<title>Node4</title>
<g id="a_node4"><a xlink:href="group__power-handler-function.html#gaf73787b6b72bc61786a39b9c7e47f6c6" target="_top" xlink:title=" ">
<polygon fill="white" stroke="black" points="433.5,-322.5 433.5,-341.5 571.5,-341.5 571.5,-322.5 433.5,-322.5"/>
<text text-anchor="middle" x="502.5" y="-329.5" font-family="Helvetica,sans-Serif" font-size="10.00">drv_BuckConverter_Resume</text>
</a>
</g>
</g>
<!-- Node3&#45;&gt;Node4 -->
<g id="edge3" class="edge">
<title>Node3&#45;&gt;Node4</title>
<path fill="none" stroke="midnightblue" d="M383.6,-344.27C396.43,-342.94 410.03,-341.52 423.25,-340.15"/>
<polygon fill="midnightblue" stroke="midnightblue" points="423.69,-343.62 433.28,-339.1 422.97,-336.66 423.69,-343.62"/>
</g>
<!-- Node5 -->
<g id="node5" class="node">
<title>Node5</title>
<g id="a_node5"><a xlink:href="group__power-handler-function.html#ga75498c59a10db0738113104a547d8d0d" target="_top" xlink:title="This function is the main buck converter state machine executing the most recent state.">
<polygon fill="white" stroke="black" points="610,-297.5 610,-316.5 748,-316.5 748,-297.5 610,-297.5"/>
<text text-anchor="middle" x="679" y="-304.5" font-family="Helvetica,sans-Serif" font-size="10.00">drv_BuckConverter_Execute</text>
</a>
</g>
</g>
<!-- Node4&#45;&gt;Node5 -->
<g id="edge4" class="edge">
<title>Node4&#45;&gt;Node5</title>
<path fill="none" stroke="midnightblue" d="M569.97,-322.48C580.26,-321 590.96,-319.47 601.45,-317.97"/>
<polygon fill="midnightblue" stroke="midnightblue" points="602.02,-321.42 611.43,-316.54 601.03,-314.49 602.02,-321.42"/>
</g>
<!-- Node6 -->
<g id="node6" class="node">
<title>Node6</title>
<g id="a_node6"><a xlink:href="group__power-handler-function.html#gad4e9d780ae858d4417887f13b1619346" target="_top" xlink:title=" ">
<polygon fill="white" stroke="black" points="977,-291.5 977,-310.5 1097,-310.5 1097,-291.5 977,-291.5"/>
<text text-anchor="middle" x="1037" y="-298.5" font-family="Helvetica,sans-Serif" font-size="10.00">buckGPIO_GetPinState</text>
</a>
</g>
</g>
<!-- Node5&#45;&gt;Node6 -->
<g id="edge5" class="edge">
<title>Node5&#45;&gt;Node6</title>
<path fill="none" stroke="midnightblue" d="M748.22,-305.85C810.95,-304.79 903.52,-303.23 966.62,-302.17"/>
<polygon fill="midnightblue" stroke="midnightblue" points="966.93,-305.66 976.87,-302 966.81,-298.67 966.93,-305.66"/>
</g>
<!-- Node7 -->
<g id="node7" class="node">
<title>Node7</title>
<g id="a_node7"><a xlink:href="group__gpio.html#gae1bc534f11ac7cf278865cb73b601055" target="_top" xlink:title="Gets pointer to GPIO Instance SFR set.">
<polygon fill="white" stroke="black" points="1152,-145.5 1152,-164.5 1303,-164.5 1303,-145.5 1152,-145.5"/>
<text text-anchor="middle" x="1227.5" y="-152.5" font-family="Helvetica,sans-Serif" font-size="10.00">p33c_GpioInstance_GetHandle</text>
</a>
</g>
</g>
<!-- Node6&#45;&gt;Node7 -->
<g id="edge6" class="edge">
<title>Node6&#45;&gt;Node7</title>
<path fill="none" stroke="midnightblue" d="M1069.47,-291.43C1084.31,-286.11 1101.82,-278.6 1116,-269 1156.66,-241.47 1194.23,-197.06 1213.33,-172.59"/>
<polygon fill="midnightblue" stroke="midnightblue" points="1216.19,-174.61 1219.5,-164.54 1210.64,-170.35 1216.19,-174.61"/>
</g>
<!-- Node9&#45;&gt;Node5 -->
<g id="edge10" class="edge">
<title>Node9&#45;&gt;Node5</title>
<path fill="none" stroke="midnightblue" d="M205.07,-278.84C304.1,-284.74 493.21,-296 599.84,-302.35"/>
<polygon fill="midnightblue" stroke="midnightblue" points="599.71,-305.84 609.9,-302.95 600.12,-298.86 599.71,-305.84"/>
</g>
<!-- Node10 -->
<g id="node10" class="node">
<title>Node10</title>
<g id="a_node10"><a xlink:href="group__power-handler-function.html#gab80ac65aae45f7f9d9fd4ef6f8c56111" target="_top" xlink:title=" ">
<polygon fill="white" stroke="black" points="241,-216 241,-246 395,-246 395,-216 241,-216"/>
<text text-anchor="start" x="249" y="-234" font-family="Helvetica,sans-Serif" font-size="10.00">appPowerSupply_CurrentSense</text>
<text text-anchor="middle" x="318" y="-223" font-family="Helvetica,sans-Serif" font-size="10.00">Calibration</text>
</a>
</g>
</g>
<!-- Node9&#45;&gt;Node10 -->
<g id="edge9" class="edge">
<title>Node9&#45;&gt;Node10</title>
<path fill="none" stroke="midnightblue" d="M178.8,-265.45C198.67,-260.5 223.58,-254.29 246.76,-248.51"/>
<polygon fill="midnightblue" stroke="midnightblue" points="247.71,-251.88 256.57,-246.07 246.02,-245.09 247.71,-251.88"/>
</g>
<!-- Node14 -->
<g id="node14" class="node">
<title>Node14</title>
<g id="a_node14"><a xlink:href="group__device-start-up.html#ga830e5c7087a8e5ee8ea39b7e3df94b68" target="_top" xlink:title="Initialization of user&#45;defined fault objects.">
<polygon fill="white" stroke="black" points="254.5,-161.5 254.5,-180.5 381.5,-180.5 381.5,-161.5 254.5,-161.5"/>
<text text-anchor="middle" x="318" y="-168.5" font-family="Helvetica,sans-Serif" font-size="10.00">appFaultMonitor_Initialize</text>
</a>
</g>
</g>
<!-- Node13&#45;&gt;Node14 -->
<g id="edge14" class="edge">
<title>Node13&#45;&gt;Node14</title>
<path fill="none" stroke="midnightblue" d="M199.27,-156.33C213.61,-158.11 229.13,-160.05 244.04,-161.91"/>
<polygon fill="midnightblue" stroke="midnightblue" points="243.89,-165.41 254.24,-163.18 244.75,-158.47 243.89,-165.41"/>
</g>
<!-- Node15 -->
<g id="node15" class="node">
<title>Node15</title>
<g id="a_node15"><a xlink:href="group__device-start-up.html#ga7a4cf6371d09457539f96a74b2809ca0" target="_top" xlink:title=" ">
<polygon fill="white" stroke="black" points="253,-123.5 253,-142.5 383,-142.5 383,-123.5 253,-123.5"/>
<text text-anchor="middle" x="318" y="-130.5" font-family="Helvetica,sans-Serif" font-size="10.00">appPowerSupply_Initialize</text>
</a>
</g>
</g>
<!-- Node13&#45;&gt;Node15 -->
<g id="edge15" class="edge">
<title>Node13&#45;&gt;Node15</title>
<path fill="none" stroke="midnightblue" d="M199.27,-143.67C213.07,-142.42 227.96,-141.07 242.35,-139.77"/>
<polygon fill="midnightblue" stroke="midnightblue" points="243.07,-143.22 252.72,-138.83 242.44,-136.24 243.07,-143.22"/>
</g>
<!-- Node16 -->
<g id="node16" class="node">
<title>Node16</title>
<g id="a_node16"><a xlink:href="group__power-handler-function.html#ga0b4cabdb02c8c9ea94ea1dfa39de3764" target="_top" xlink:title=" ">
<polygon fill="white" stroke="black" points="434.5,-200 434.5,-230 570.5,-230 570.5,-200 434.5,-200"/>
<text text-anchor="start" x="442.5" y="-218" font-family="Helvetica,sans-Serif" font-size="10.00">appPowerSupply_Controller</text>
<text text-anchor="middle" x="502.5" y="-207" font-family="Helvetica,sans-Serif" font-size="10.00">Initialize</text>
</a>
</g>
</g>
<!-- Node15&#45;&gt;Node16 -->
<g id="edge16" class="edge">
<title>Node15&#45;&gt;Node16</title>
<path fill="none" stroke="midnightblue" d="M373.24,-142.51C380.83,-144.98 388.31,-148.09 395,-152 415.09,-163.73 411.5,-177.32 431,-190 434.07,-191.99 437.31,-193.85 440.66,-195.58"/>
<polygon fill="midnightblue" stroke="midnightblue" points="439.16,-198.74 449.7,-199.85 442.15,-192.41 439.16,-198.74"/>
</g>
<!-- Node17 -->
<g id="node17" class="node">
<title>Node17</title>
<g id="a_node17"><a xlink:href="group__power-handler-function.html#gad0f6ff4894bf23722884c60bbcdcacd0" target="_top" xlink:title=" ">
<polygon fill="white" stroke="black" points="435,-151 435,-181 570,-181 570,-151 435,-151"/>
<text text-anchor="start" x="443" y="-169" font-family="Helvetica,sans-Serif" font-size="10.00">appPowerSupply_Converter</text>
<text text-anchor="middle" x="502.5" y="-158" font-family="Helvetica,sans-Serif" font-size="10.00">ObjectInitialize</text>
</a>
</g>
</g>
<!-- Node15&#45;&gt;Node17 -->
<g id="edge17" class="edge">
<title>Node15&#45;&gt;Node17</title>
<path fill="none" stroke="midnightblue" d="M371.79,-142.54C388.4,-145.55 407.09,-148.93 425,-152.17"/>
<polygon fill="midnightblue" stroke="midnightblue" points="424.39,-155.61 434.85,-153.95 425.64,-148.73 424.39,-155.61"/>
</g>
<!-- Node18 -->
<g id="node18" class="node">
<title>Node18</title>
<g id="a_node18"><a xlink:href="group__power-handler-function.html#ga0b26acfec74d1804384b4ba1a3cffab4" target="_top" xlink:title=" ">
<polygon fill="white" stroke="black" points="431,-102 431,-132 574,-132 574,-102 431,-102"/>
<text text-anchor="start" x="439" y="-120" font-family="Helvetica,sans-Serif" font-size="10.00">appPowerSupply_Peripherals</text>
<text text-anchor="middle" x="502.5" y="-109" font-family="Helvetica,sans-Serif" font-size="10.00">Initialize</text>
</a>
</g>
</g>
<!-- Node15&#45;&gt;Node18 -->
<g id="edge18" class="edge">
<title>Node15&#45;&gt;Node18</title>
<path fill="none" stroke="midnightblue" d="M383.09,-127.38C395.24,-126.32 408.11,-125.19 420.7,-124.08"/>
<polygon fill="midnightblue" stroke="midnightblue" points="421.07,-127.56 430.73,-123.2 420.46,-120.59 421.07,-127.56"/>
</g>
<!-- Node34 -->
<g id="node34" class="node">
<title>Node34</title>
<g id="a_node34"><a xlink:href="group__power-handler-function.html#ga9210070749c2ed49abd8a30b27f64151" target="_top" xlink:title=" ">
<polygon fill="white" stroke="black" points="444.5,-47.5 444.5,-66.5 560.5,-66.5 560.5,-47.5 444.5,-47.5"/>
<text text-anchor="middle" x="502.5" y="-54.5" font-family="Helvetica,sans-Serif" font-size="10.00">appPowerSupply_Start</text>
</a>
</g>
</g>
<!-- Node15&#45;&gt;Node34 -->
<g id="edge37" class="edge">
<title>Node15&#45;&gt;Node34</title>
<path fill="none" stroke="midnightblue" d="M342.11,-123.37C374.2,-110.01 432.41,-85.77 468.9,-70.58"/>
<polygon fill="midnightblue" stroke="midnightblue" points="470.69,-73.62 478.57,-66.55 468,-67.16 470.69,-73.62"/>
</g>
<!-- Node19 -->
<g id="node19" class="node">
<title>Node19</title>
<g id="a_node19"><a xlink:href="group__power-handler-function.html#ga97eb8bdd17b9c2e169f0634ebabb5d19" target="_top" xlink:title="This function initializes all peripheral modules and their instances used by the power controller.">
<polygon fill="white" stroke="black" points="610.5,-183.5 610.5,-202.5 747.5,-202.5 747.5,-183.5 610.5,-183.5"/>
<text text-anchor="middle" x="679" y="-190.5" font-family="Helvetica,sans-Serif" font-size="10.00">drv_BuckConverter_Initialize</text>
</a>
</g>
</g>
<!-- Node18&#45;&gt;Node19 -->
<g id="edge19" class="edge">
<title>Node18&#45;&gt;Node19</title>
<path fill="none" stroke="midnightblue" d="M555.81,-132.05C562.12,-134.66 568.33,-137.64 574,-141 592.67,-152.07 591.03,-163.46 610,-174 613.96,-176.2 618.2,-178.17 622.55,-179.91"/>
<polygon fill="midnightblue" stroke="midnightblue" points="621.6,-183.29 632.2,-183.4 623.98,-176.71 621.6,-183.29"/>
</g>
<!-- Node31 -->
<g id="node31" class="node">
<title>Node31</title>
<g id="a_node31"><a xlink:href="group__pps.html#ga46aebc06e62c1484f9e95190711067dd" target="_top" xlink:title="Locks the Peripheral Pin Select Configuration registers against accidental changes.">
<polygon fill="white" stroke="black" points="642.5,-145.5 642.5,-164.5 715.5,-164.5 715.5,-145.5 642.5,-145.5"/>
<text text-anchor="middle" x="679" y="-152.5" font-family="Helvetica,sans-Serif" font-size="10.00">PPS_LockIO</text>
</a>
</g>
</g>
<!-- Node18&#45;&gt;Node31 -->
<g id="edge34" class="edge">
<title>Node18&#45;&gt;Node31</title>
<path fill="none" stroke="midnightblue" d="M572.47,-132.02C592.56,-136.39 614.01,-141.07 632.29,-145.05"/>
<polygon fill="midnightblue" stroke="midnightblue" points="631.57,-148.47 642.09,-147.18 633.06,-141.63 631.57,-148.47"/>
</g>
<!-- Node32 -->
<g id="node32" class="node">
<title>Node32</title>
<g id="a_node32"><a xlink:href="group__pps.html#ga1ac2bc53484e4e452fd3b4c027037ebf" target="_top" xlink:title="Assigns a digital function output to a pin.">
<polygon fill="white" stroke="black" points="628,-107.5 628,-126.5 730,-126.5 730,-107.5 628,-107.5"/>
<text text-anchor="middle" x="679" y="-114.5" font-family="Helvetica,sans-Serif" font-size="10.00">PPS_RemapOutput</text>
</a>
</g>
</g>
<!-- Node18&#45;&gt;Node32 -->
<g id="edge35" class="edge">
<title>Node18&#45;&gt;Node32</title>
<path fill="none" stroke="midnightblue" d="M574.22,-117C588.67,-117 603.74,-117 617.78,-117"/>
<polygon fill="midnightblue" stroke="midnightblue" points="617.79,-120.5 627.79,-117 617.79,-113.5 617.79,-120.5"/>
</g>
<!-- Node33 -->
<g id="node33" class="node">
<title>Node33</title>
<g id="a_node33"><a xlink:href="group__pps.html#ga3fa51d1be870c73331607df4455a30f8" target="_top" xlink:title="Unlocks the Peripheral Pin Select Configuration registers to enable changes.">
<polygon fill="white" stroke="black" points="638,-69.5 638,-88.5 720,-88.5 720,-69.5 638,-69.5"/>
<text text-anchor="middle" x="679" y="-76.5" font-family="Helvetica,sans-Serif" font-size="10.00">PPS_UnlockIO</text>
</a>
</g>
</g>
<!-- Node18&#45;&gt;Node33 -->
<g id="edge36" class="edge">
<title>Node18&#45;&gt;Node33</title>
<path fill="none" stroke="midnightblue" d="M572.47,-101.98C590.94,-97.96 610.56,-93.69 627.81,-89.93"/>
<polygon fill="midnightblue" stroke="midnightblue" points="628.64,-93.33 637.66,-87.78 627.15,-86.49 628.64,-93.33"/>
</g>
<!-- Node20 -->
<g id="node20" class="node">
<title>Node20</title>
<g id="a_node20"><a xlink:href="group__power-handler-function.html#gab889ae485e95010864ca04500457861a" target="_top" xlink:title=" ">
<polygon fill="white" stroke="black" points="786,-259.5 786,-278.5 920,-278.5 920,-259.5 786,-259.5"/>
<text text-anchor="middle" x="853" y="-266.5" font-family="Helvetica,sans-Serif" font-size="10.00">buckADC_ChannelInitialize</text>
</a>
</g>
</g>
<!-- Node19&#45;&gt;Node20 -->
<g id="edge20" class="edge">
<title>Node19&#45;&gt;Node20</title>
<path fill="none" stroke="midnightblue" d="M694.96,-202.64C714.7,-215.01 750.82,-236.48 784,-250 789.81,-252.37 796.02,-254.55 802.23,-256.52"/>
<polygon fill="midnightblue" stroke="midnightblue" points="801.35,-259.91 811.93,-259.45 803.37,-253.21 801.35,-259.91"/>
</g>
<!-- Node21 -->
<g id="node21" class="node">
<title>Node21</title>
<g id="a_node21"><a xlink:href="group__power-handler-function.html#ga086bc1e4304b2ce7a435bf2a9799d078" target="_top" xlink:title=" ">
<polygon fill="white" stroke="black" points="788,-221.5 788,-240.5 918,-240.5 918,-221.5 788,-221.5"/>
<text text-anchor="middle" x="853" y="-228.5" font-family="Helvetica,sans-Serif" font-size="10.00">buckADC_ModuleInitialize</text>
</a>
</g>
</g>
<!-- Node19&#45;&gt;Node21 -->
<g id="edge21" class="edge">
<title>Node19&#45;&gt;Node21</title>
<path fill="none" stroke="midnightblue" d="M723.4,-202.59C746.41,-207.67 774.85,-213.96 799.13,-219.32"/>
<polygon fill="midnightblue" stroke="midnightblue" points="798.39,-222.74 808.91,-221.48 799.9,-215.91 798.39,-222.74"/>
</g>
<!-- Node22 -->
<g id="node22" class="node">
<title>Node22</title>
<g id="a_node22"><a xlink:href="group__power-handler-function.html#ga984f623275f9e1da2e11be2e9ff8221c" target="_top" xlink:title=" ">
<polygon fill="white" stroke="black" points="802,-145.5 802,-164.5 904,-164.5 904,-145.5 802,-145.5"/>
<text text-anchor="middle" x="853" y="-152.5" font-family="Helvetica,sans-Serif" font-size="10.00">buckGPIO_Initialize</text>
</a>
</g>
</g>
<!-- Node19&#45;&gt;Node22 -->
<g id="edge22" class="edge">
<title>Node19&#45;&gt;Node22</title>
<path fill="none" stroke="midnightblue" d="M723.4,-183.41C746.41,-178.33 774.85,-172.04 799.13,-166.68"/>
<polygon fill="midnightblue" stroke="midnightblue" points="799.9,-170.09 808.91,-164.52 798.39,-163.26 799.9,-170.09"/>
</g>
<!-- Node25 -->
<g id="node25" class="node">
<title>Node25</title>
<g id="a_node25"><a xlink:href="group__power-handler-function.html#ga283487111ea685224a2caf350540daad" target="_top" xlink:title=" ">
<polygon fill="white" stroke="black" points="784,-82.5 784,-101.5 922,-101.5 922,-82.5 784,-82.5"/>
<text text-anchor="middle" x="853" y="-89.5" font-family="Helvetica,sans-Serif" font-size="10.00">buckPWM_ChannelInitialize</text>
</a>
</g>
</g>
<!-- Node19&#45;&gt;Node25 -->
<g id="edge27" class="edge">
<title>Node19&#45;&gt;Node25</title>
<path fill="none" stroke="midnightblue" d="M727.11,-183.44C734.38,-180.96 741.6,-177.86 748,-174 767.92,-161.99 766.11,-150.87 784,-136 796.97,-125.22 812.7,-114.89 825.77,-106.95"/>
<polygon fill="midnightblue" stroke="midnightblue" points="827.93,-109.74 834.74,-101.62 824.35,-103.72 827.93,-109.74"/>
</g>
<!-- Node28 -->
<g id="node28" class="node">
<title>Node28</title>
<g id="a_node28"><a xlink:href="group__power-handler-function.html#ga1dedc10502a96efea6da9207f3416219" target="_top" xlink:title=" ">
<polygon fill="white" stroke="black" points="786,-183.5 786,-202.5 920,-202.5 920,-183.5 786,-183.5"/>
<text text-anchor="middle" x="853" y="-190.5" font-family="Helvetica,sans-Serif" font-size="10.00">buckPWM_ModuleInitialize</text>
</a>
</g>
</g>
<!-- Node19&#45;&gt;Node28 -->
<g id="edge31" class="edge">
<title>Node19&#45;&gt;Node28</title>
<path fill="none" stroke="midnightblue" d="M747.98,-193C757.15,-193 766.61,-193 775.91,-193"/>
<polygon fill="midnightblue" stroke="midnightblue" points="775.92,-196.5 785.92,-193 775.92,-189.5 775.92,-196.5"/>
</g>
<!-- Node23 -->
<g id="node23" class="node">
<title>Node23</title>
<g id="a_node23"><a xlink:href="group__power-handler-function.html#ga649bb2f18322be1a303d05931adb2c6a" target="_top" xlink:title=" ">
<polygon fill="white" stroke="black" points="992.5,-164.5 992.5,-183.5 1081.5,-183.5 1081.5,-164.5 992.5,-164.5"/>
<text text-anchor="middle" x="1037" y="-171.5" font-family="Helvetica,sans-Serif" font-size="10.00">buckGPIO_Clear</text>
</a>
</g>
</g>
<!-- Node22&#45;&gt;Node23 -->
<g id="edge23" class="edge">
<title>Node22&#45;&gt;Node23</title>
<path fill="none" stroke="midnightblue" d="M904.21,-160.24C928.54,-162.78 957.76,-165.83 982.5,-168.41"/>
<polygon fill="midnightblue" stroke="midnightblue" points="982.13,-171.9 992.44,-169.45 982.86,-164.93 982.13,-171.9"/>
</g>
<!-- Node24 -->
<g id="node24" class="node">
<title>Node24</title>
<g id="a_node24"><a xlink:href="group__power-handler-function.html#ga3d3f91c0e40884874e7df3a67fff23f3" target="_top" xlink:title=" ">
<polygon fill="white" stroke="black" points="971.5,-126.5 971.5,-145.5 1102.5,-145.5 1102.5,-126.5 971.5,-126.5"/>
<text text-anchor="middle" x="1037" y="-133.5" font-family="Helvetica,sans-Serif" font-size="10.00">buckGPIO_PrivateInitialize</text>
</a>
</g>
</g>
<!-- Node22&#45;&gt;Node24 -->
<g id="edge25" class="edge">
<title>Node22&#45;&gt;Node24</title>
<path fill="none" stroke="midnightblue" d="M904.21,-149.76C921.78,-147.92 941.91,-145.82 961.06,-143.82"/>
<polygon fill="midnightblue" stroke="midnightblue" points="961.69,-147.28 971.27,-142.76 960.96,-140.32 961.69,-147.28"/>
</g>
<!-- Node23&#45;&gt;Node7 -->
<g id="edge24" class="edge">
<title>Node23&#45;&gt;Node7</title>
<path fill="none" stroke="midnightblue" d="M1081.72,-169.59C1099.66,-167.78 1121.08,-165.63 1141.86,-163.53"/>
<polygon fill="midnightblue" stroke="midnightblue" points="1142.4,-166.99 1152,-162.51 1141.7,-160.03 1142.4,-166.99"/>
</g>
<!-- Node24&#45;&gt;Node7 -->
<g id="edge26" class="edge">
<title>Node24&#45;&gt;Node7</title>
<path fill="none" stroke="midnightblue" d="M1102.61,-142.51C1115.26,-143.79 1128.71,-145.14 1141.9,-146.47"/>
<polygon fill="midnightblue" stroke="midnightblue" points="1141.62,-149.96 1151.92,-147.48 1142.33,-143 1141.62,-149.96"/>
</g>
<!-- Node25&#45;&gt;Node7 -->
<g id="edge28" class="edge">
<title>Node25&#45;&gt;Node7</title>
<path fill="none" stroke="midnightblue" d="M922.26,-94.1C975.53,-96.8 1051.13,-102.96 1116,-117 1142.99,-122.84 1172.53,-133.22 1194.27,-141.65"/>
<polygon fill="midnightblue" stroke="midnightblue" points="1193.08,-144.95 1203.67,-145.37 1195.66,-138.44 1193.08,-144.95"/>
</g>
<!-- Node26 -->
<g id="node26" class="node">
<title>Node26</title>
<g id="a_node26"><a xlink:href="group__pwm.html#ga2de389951f418d4fcd9a5237f39a11a1" target="_top" xlink:title="Disposes a given PWM generator by resetting all its registers to default.">
<polygon fill="white" stroke="black" points="967,-39 967,-69 1107,-69 1107,-39 967,-39"/>
<text text-anchor="start" x="975" y="-57" font-family="Helvetica,sans-Serif" font-size="10.00">p33c_PwmGenerator_Config</text>
<text text-anchor="middle" x="1037" y="-46" font-family="Helvetica,sans-Serif" font-size="10.00">Write</text>
</a>
</g>
</g>
<!-- Node25&#45;&gt;Node26 -->
<g id="edge29" class="edge">
<title>Node25&#45;&gt;Node26</title>
<path fill="none" stroke="midnightblue" d="M899.93,-82.41C917.14,-78.82 937.24,-74.62 956.62,-70.57"/>
<polygon fill="midnightblue" stroke="midnightblue" points="957.6,-73.94 966.67,-68.47 956.17,-67.09 957.6,-73.94"/>
</g>
<!-- Node27 -->
<g id="node27" class="node">
<title>Node27</title>
<g id="a_node27"><a xlink:href="group__pwm.html#ga8aa18df01ada60e1faac049c5eb34700" target="_top" xlink:title="Returns the PWM generator index.">
<polygon fill="white" stroke="black" points="958,-0.5 958,-19.5 1116,-19.5 1116,-0.5 958,-0.5"/>
<text text-anchor="middle" x="1037" y="-7.5" font-family="Helvetica,sans-Serif" font-size="10.00">p33c_PwmGenerator_GetHandle</text>
</a>
</g>
</g>
<!-- Node25&#45;&gt;Node27 -->
<g id="edge30" class="edge">
<title>Node25&#45;&gt;Node27</title>
<path fill="none" stroke="midnightblue" d="M889.37,-82.45C900.33,-78.6 912.13,-73.5 922,-67 941.43,-54.2 937.88,-40.67 958,-29 961.73,-26.84 965.7,-24.92 969.79,-23.22"/>
<polygon fill="midnightblue" stroke="midnightblue" points="971.34,-26.37 979.52,-19.63 968.92,-19.81 971.34,-26.37"/>
</g>
<!-- Node29 -->
<g id="node29" class="node">
<title>Node29</title>
<g id="a_node29"><a xlink:href="group__pwm.html#ga68493af214377a7329daa5f60825fac5" target="_top" xlink:title="Writes a user&#45;defined configuration to the PWM base module registers.">
<polygon fill="white" stroke="black" points="961,-240.5 961,-259.5 1113,-259.5 1113,-240.5 961,-240.5"/>
<text text-anchor="middle" x="1037" y="-247.5" font-family="Helvetica,sans-Serif" font-size="10.00">p33c_PwmModule_ConfigWrite</text>
</a>
</g>
</g>
<!-- Node28&#45;&gt;Node29 -->
<g id="edge32" class="edge">
<title>Node28&#45;&gt;Node29</title>
<path fill="none" stroke="midnightblue" d="M893.67,-202.55C903.08,-205.24 913,-208.42 922,-212 938.81,-218.69 941.08,-224.59 958,-231 964.72,-233.55 971.9,-235.84 979.08,-237.87"/>
<polygon fill="midnightblue" stroke="midnightblue" points="978.25,-241.28 988.82,-240.49 980.07,-234.52 978.25,-241.28"/>
</g>
<!-- Node30 -->
<g id="node30" class="node">
<title>Node30</title>
<g id="a_node30"><a xlink:href="group__pwm.html#ga02fe57798710b1b54904a4920c181453" target="_top" xlink:title="Gets pointer to PWM module SFR set.">
<polygon fill="white" stroke="black" points="963.5,-202.5 963.5,-221.5 1110.5,-221.5 1110.5,-202.5 963.5,-202.5"/>
<text text-anchor="middle" x="1037" y="-209.5" font-family="Helvetica,sans-Serif" font-size="10.00">p33c_PwmModule_GetHandle</text>
</a>
</g>
</g>
<!-- Node28&#45;&gt;Node30 -->
<g id="edge33" class="edge">
<title>Node28&#45;&gt;Node30</title>
<path fill="none" stroke="midnightblue" d="M920.22,-199.91C930.96,-201.03 942.2,-202.21 953.27,-203.36"/>
<polygon fill="midnightblue" stroke="midnightblue" points="953.06,-206.86 963.37,-204.42 953.79,-199.9 953.06,-206.86"/>
</g>
<!-- Node35 -->
<g id="node35" class="node">
<title>Node35</title>
<g id="a_node35"><a xlink:href="group__power-handler-function.html#ga8c05ea0ee077172e4025d8b7a36f5c9f" target="_top" xlink:title=" ">
<polygon fill="white" stroke="black" points="617.5,-31.5 617.5,-50.5 740.5,-50.5 740.5,-31.5 617.5,-31.5"/>
<text text-anchor="middle" x="679" y="-38.5" font-family="Helvetica,sans-Serif" font-size="10.00">drv_BuckConverter_Start</text>
</a>
</g>
</g>
<!-- Node34&#45;&gt;Node35 -->
<g id="edge38" class="edge">
<title>Node34&#45;&gt;Node35</title>
<path fill="none" stroke="midnightblue" d="M560.64,-51.76C575.56,-50.39 591.82,-48.9 607.35,-47.48"/>
<polygon fill="midnightblue" stroke="midnightblue" points="607.79,-50.95 617.43,-46.55 607.15,-43.98 607.79,-50.95"/>
</g>
<!-- Node36 -->
<g id="node36" class="node">
<title>Node36</title>
<g id="a_node36"><a xlink:href="group__power-handler-function.html#gae12da3618a5d9e82920992df80b67b47" target="_top" xlink:title=" ">
<polygon fill="white" stroke="black" points="811,-38.5 811,-57.5 895,-57.5 895,-38.5 811,-38.5"/>
<text text-anchor="middle" x="853" y="-45.5" font-family="Helvetica,sans-Serif" font-size="10.00">buckADC_Start</text>
</a>
</g>
</g>
<!-- Node35&#45;&gt;Node36 -->
<g id="edge39" class="edge">
<title>Node35&#45;&gt;Node36</title>
<path fill="none" stroke="midnightblue" d="M740.64,-43.47C760.23,-44.27 781.74,-45.14 800.59,-45.91"/>
<polygon fill="midnightblue" stroke="midnightblue" points="800.63,-49.41 810.76,-46.32 800.91,-42.42 800.63,-49.41"/>
</g>
<!-- Node37 -->
<g id="node37" class="node">
<title>Node37</title>
<g id="a_node37"><a xlink:href="group__power-handler-function.html#gae6c3c54562df6c9d941bab2bc98b2bf2" target="_top" xlink:title=" ">
<polygon fill="white" stroke="black" points="808.5,-0.5 808.5,-19.5 897.5,-19.5 897.5,-0.5 808.5,-0.5"/>
<text text-anchor="middle" x="853" y="-7.5" font-family="Helvetica,sans-Serif" font-size="10.00">buckPWM_Start</text>
</a>
</g>
</g>
<!-- Node35&#45;&gt;Node37 -->
<g id="edge40" class="edge">
<title>Node35&#45;&gt;Node37</title>
<path fill="none" stroke="midnightblue" d="M733.01,-31.45C753.79,-27.7 777.6,-23.41 798.44,-19.65"/>
<polygon fill="midnightblue" stroke="midnightblue" points="799.18,-23.08 808.4,-17.86 797.94,-16.19 799.18,-23.08"/>
</g>
<!-- Node37&#45;&gt;Node27 -->
<g id="edge41" class="edge">
<title>Node37&#45;&gt;Node27</title>
<path fill="none" stroke="midnightblue" d="M897.59,-10C912.71,-10 930.26,-10 947.67,-10"/>
<polygon fill="midnightblue" stroke="midnightblue" points="947.89,-13.5 957.89,-10 947.89,-6.5 947.89,-13.5"/>
</g>
</g>
</svg>
