<?xml version="1.0" encoding="UTF-8" standalone="no"?>
<!DOCTYPE svg PUBLIC "-//W3C//DTD SVG 1.1//EN"
 "http://www.w3.org/Graphics/SVG/1.1/DTD/svg11.dtd">
<!-- Generated by graphviz version 2.44.1 (20200629.0846)
 -->
<!-- Title: Abstraction Layer Defines Pages: 1 -->
<!--zoomable 495 -->
<svg id="main" version="1.1" xmlns="http://www.w3.org/2000/svg" xmlns:xlink="http://www.w3.org/1999/xlink" xml:space="preserve" onload="init(evt)">
<style type="text/css"><![CDATA[
.edge:hover path { stroke: red; }
.edge:hover polygon { stroke: red; fill: red; }
]]></style>
<script type="text/javascript"><![CDATA[
var edges = document.getElementsByTagName('g');
if (edges && edges.length) {
  for (var i=0;i<edges.length;i++) {
    if (edges[i].id.substr(0,4)=='edge') {
      edges[i].setAttribute('class','edge');
    }
  }
}
]]></script>
        <defs>
                <circle id="rim" cx="0" cy="0" r="7"/>
                <circle id="rim2" cx="0" cy="0" r="3.5"/>
                <g id="zoomPlus">
                        <use xlink:href="#rim" fill="#404040">
                                <set attributeName="fill" to="#808080" begin="zoomplus.mouseover" end="zoomplus.mouseout"/>
                        </use>
                        <path d="M-4,0h8M0,-4v8" fill="none" stroke="white" stroke-width="1.5" pointer-events="none"/>
                </g>
                <g id="zoomMin">
                        <use xlink:href="#rim" fill="#404040">
                                <set attributeName="fill" to="#808080" begin="zoomminus.mouseover" end="zoomminus.mouseout"/>
                        </use>
                        <path d="M-4,0h8" fill="none" stroke="white" stroke-width="1.5" pointer-events="none"/>
                </g>
                <g id="dirArrow">
                        <path fill="none" stroke="white" stroke-width="1.5" d="M0,-3.0v7 M-2.5,-0.5L0,-3.0L2.5,-0.5"/>
                </g>
               <g id="resetDef">
                       <use xlink:href="#rim2" fill="#404040">
                               <set attributeName="fill" to="#808080" begin="reset.mouseover" end="reset.mouseout"/>
                       </use>
               </g>
        </defs>

<script type="text/javascript">
var viewWidth = 312;
var viewHeight = 495;
var sectionId = 'dynsection-0';
</script>
<script xlink:href="svgpan.js"/>
<svg id="graph" class="graph">
<g id="viewport">
<title>Abstraction Layer Defines</title>
<polygon fill="white" stroke="transparent" points="-4,4 -4,-491 308,-491 308,4 -4,4"/>
<!-- Node1 -->
<g id="node1" class="node">
<title>Node1</title>
<g id="a_node1"><a xlink:title="Abstraction Layer Defines.">
<polygon fill="#bfbfbf" stroke="black" points="128,-259 0,-259 0,-240 128,-240 128,-259"/>
<text text-anchor="middle" x="64" y="-247" font-family="Helvetica,sans-Serif" font-size="10.00">Abstraction Layer Defines</text>
</a>
</g>
</g>
<!-- Node9 -->
<g id="node2" class="node">
<title>Node9</title>
<g id="a_node2"><a xlink:href="group__ideal-duty-cycle.html" target="_top" xlink:title="Description">
<polygon fill="white" stroke="black" points="278,-487 190,-487 190,-468 278,-468 278,-487"/>
<text text-anchor="middle" x="234" y="-475" font-family="Helvetica,sans-Serif" font-size="10.00">Ideal Duty Cycle</text>
</a>
</g>
</g>
<!-- Node1&#45;&gt;Node9 -->
<g id="edge8" class="edge">
<title>Node1&#45;&gt;Node9</title>
<path fill="none" stroke="black" d="M68.5,-269.19C76.99,-310.92 102.63,-408.57 164,-459.5 171.34,-465.59 180.5,-469.64 189.73,-472.33"/>
<polygon fill="black" stroke="black" points="71.91,-268.37 66.59,-259.21 65.03,-269.69 71.91,-268.37"/>
</g>
<!-- Node7 -->
<g id="node3" class="node">
<title>Node7</title>
<g id="a_node3"><a xlink:href="group__input-voltage-feedback.html" target="_top" xlink:title="Declaration of input voltage limits, feedback gain and scaling and nominal operating points.">
<polygon fill="white" stroke="black" points="293.5,-450 174.5,-450 174.5,-431 293.5,-431 293.5,-450"/>
<text text-anchor="middle" x="234" y="-438" font-family="Helvetica,sans-Serif" font-size="10.00">Input Voltage Feedback</text>
</a>
</g>
</g>
<!-- Node1&#45;&gt;Node7 -->
<g id="edge6" class="edge">
<title>Node1&#45;&gt;Node7</title>
<path fill="none" stroke="black" d="M70.55,-268.89C81.89,-304.9 111.2,-382.1 164,-422.5 168.42,-425.89 173.43,-428.64 178.66,-430.87"/>
<polygon fill="black" stroke="black" points="73.85,-267.69 67.6,-259.12 67.14,-269.71 73.85,-267.69"/>
</g>
<!-- Node3 -->
<g id="node4" class="node">
<title>Node3</title>
<g id="a_node4"><a xlink:href="group__state-machine-settings.html" target="_top" xlink:title="Global defines for state&#45;machine specific parameters.">
<polygon fill="white" stroke="black" points="293.5,-413 174.5,-413 174.5,-394 293.5,-394 293.5,-413"/>
<text text-anchor="middle" x="234" y="-401" font-family="Helvetica,sans-Serif" font-size="10.00">State Machine Settings</text>
</a>
</g>
</g>
<!-- Node1&#45;&gt;Node3 -->
<g id="edge2" class="edge">
<title>Node1&#45;&gt;Node3</title>
<path fill="none" stroke="black" d="M73.49,-268.41C87.79,-298.05 119.53,-355.19 164,-385.5 169.01,-388.92 174.63,-391.69 180.45,-393.93"/>
<polygon fill="black" stroke="black" points="76.57,-266.74 69.17,-259.16 70.23,-269.7 76.57,-266.74"/>
</g>
<!-- Node10 -->
<g id="node5" class="node">
<title>Node10</title>
<g id="a_node5"><a xlink:href="group__phase-current-feedback.html" target="_top" xlink:title="Description">
<polygon fill="white" stroke="black" points="296.5,-376 171.5,-376 171.5,-357 296.5,-357 296.5,-376"/>
<text text-anchor="middle" x="234" y="-364" font-family="Helvetica,sans-Serif" font-size="10.00">Phase Current Feedback</text>
</a>
</g>
</g>
<!-- Node1&#45;&gt;Node10 -->
<g id="edge9" class="edge">
<title>Node1&#45;&gt;Node10</title>
<path fill="none" stroke="black" d="M77.92,-267.32C95.08,-289.67 127.48,-327.58 164,-348.5 169.91,-351.88 176.46,-354.65 183.11,-356.9"/>
<polygon fill="black" stroke="black" points="80.53,-264.96 71.73,-259.06 74.93,-269.16 80.53,-264.96"/>
</g>
<!-- Node12 -->
<g id="node6" class="node">
<title>Node12</title>
<g id="a_node6"><a xlink:href="group__startup-behavior.html" target="_top" xlink:title="Global defines for soft&#45;start specific parameters.">
<polygon fill="white" stroke="black" points="278,-339 190,-339 190,-320 278,-320 278,-339"/>
<text text-anchor="middle" x="234" y="-327" font-family="Helvetica,sans-Serif" font-size="10.00">Startup Behavior</text>
</a>
</g>
</g>
<!-- Node1&#45;&gt;Node12 -->
<g id="edge11" class="edge">
<title>Node1&#45;&gt;Node12</title>
<path fill="none" stroke="black" d="M85.51,-264.96C104.85,-278.89 135.1,-299.03 164,-311.5 172.18,-315.03 181.22,-318 189.99,-320.44"/>
<polygon fill="black" stroke="black" points="87.57,-262.13 77.44,-259.05 83.44,-267.78 87.57,-262.13"/>
</g>
<!-- Node6 -->
<g id="node7" class="node">
<title>Node6</title>
<g id="a_node7"><a xlink:href="group__fundamental-pwm-settings.html" target="_top" xlink:title="Global defines for PWM settings of DV330101.">
<polygon fill="white" stroke="black" points="304,-302 164,-302 164,-283 304,-283 304,-302"/>
<text text-anchor="middle" x="234" y="-290" font-family="Helvetica,sans-Serif" font-size="10.00">Fundamental PWM Settings</text>
</a>
</g>
</g>
<!-- Node1&#45;&gt;Node6 -->
<g id="edge5" class="edge">
<title>Node1&#45;&gt;Node6</title>
<path fill="none" stroke="black" d="M112.1,-261.56C138.58,-268.33 171.16,-276.67 195.82,-282.98"/>
<polygon fill="black" stroke="black" points="112.84,-258.13 102.28,-259.04 111.1,-264.91 112.84,-258.13"/>
</g>
<!-- Node11 -->
<g id="node8" class="node">
<title>Node11</title>
<g id="a_node8"><a xlink:href="group__adaptive-control.html" target="_top" xlink:title="Description:">
<polygon fill="white" stroke="black" points="289,-264.5 179,-264.5 179,-234.5 289,-234.5 289,-264.5"/>
<text text-anchor="start" x="187" y="-252.5" font-family="Helvetica,sans-Serif" font-size="10.00">Adaptive Gain Control</text>
<text text-anchor="middle" x="234" y="-241.5" font-family="Helvetica,sans-Serif" font-size="10.00"> Feed Forward</text>
</a>
</g>
</g>
<!-- Node1&#45;&gt;Node11 -->
<g id="edge10" class="edge">
<title>Node1&#45;&gt;Node11</title>
<path fill="none" stroke="black" d="M138.37,-249.5C152.01,-249.5 166.04,-249.5 178.97,-249.5"/>
<polygon fill="black" stroke="black" points="138.04,-246 128.03,-249.5 138.03,-253 138.04,-246"/>
</g>
<!-- Node2 -->
<g id="node9" class="node">
<title>Node2</title>
<g id="a_node9"><a xlink:href="group__microcontroller-abstraction.html" target="_top" xlink:title=" ">
<polygon fill="white" stroke="black" points="300.5,-216 167.5,-216 167.5,-197 300.5,-197 300.5,-216"/>
<text text-anchor="middle" x="234" y="-204" font-family="Helvetica,sans-Serif" font-size="10.00">Microcontroller Abstraction</text>
</a>
</g>
</g>
<!-- Node1&#45;&gt;Node2 -->
<g id="edge1" class="edge">
<title>Node1&#45;&gt;Node2</title>
<path fill="none" stroke="black" d="M112.1,-237.44C138.58,-230.67 171.16,-222.33 195.82,-216.02"/>
<polygon fill="black" stroke="black" points="111.1,-234.09 102.28,-239.96 112.84,-240.87 111.1,-234.09"/>
</g>
<!-- Node5 -->
<g id="node10" class="node">
<title>Node5</title>
<g id="a_node10"><a xlink:href="group__power-parameter.html" target="_top" xlink:title="Global defines for Buck Converter Power Control parameters.">
<polygon fill="white" stroke="black" points="296.5,-178.5 171.5,-178.5 171.5,-148.5 296.5,-148.5 296.5,-178.5"/>
<text text-anchor="start" x="179.5" y="-166.5" font-family="Helvetica,sans-Serif" font-size="10.00">Power Control Parameter</text>
<text text-anchor="middle" x="234" y="-155.5" font-family="Helvetica,sans-Serif" font-size="10.00"> Declaration</text>
</a>
</g>
</g>
<!-- Node1&#45;&gt;Node5 -->
<g id="edge4" class="edge">
<title>Node1&#45;&gt;Node5</title>
<path fill="none" stroke="black" d="M87.08,-234.07C106.67,-220.83 136.38,-201.84 164,-188.5 171.34,-184.95 179.33,-181.62 187.17,-178.61"/>
<polygon fill="black" stroke="black" points="84.87,-231.35 78.59,-239.88 88.82,-237.12 84.87,-231.35"/>
</g>
<!-- Node4 -->
<g id="node11" class="node">
<title>Node4</title>
<g id="a_node11"><a xlink:href="group__hardware-abstraction.html" target="_top" xlink:title="Global defines for hardware specific parameters.">
<polygon fill="white" stroke="black" points="289,-130 179,-130 179,-111 289,-111 289,-130"/>
<text text-anchor="middle" x="234" y="-118" font-family="Helvetica,sans-Serif" font-size="10.00">Hardware Abstraction</text>
</a>
</g>
</g>
<!-- Node1&#45;&gt;Node4 -->
<g id="edge3" class="edge">
<title>Node1&#45;&gt;Node4</title>
<path fill="none" stroke="black" d="M76.53,-231.18C92.96,-206.62 125.41,-163.34 164,-139.5 170.24,-135.65 177.26,-132.56 184.39,-130.09"/>
<polygon fill="black" stroke="black" points="73.39,-229.6 70.86,-239.89 79.25,-233.42 73.39,-229.6"/>
</g>
<!-- Node14 -->
<g id="node12" class="node">
<title>Node14</title>
<g id="a_node12"><a xlink:href="group__controller-declarations.html" target="_top" xlink:title="Description">
<polygon fill="white" stroke="black" points="291.5,-93 176.5,-93 176.5,-74 291.5,-74 291.5,-93"/>
<text text-anchor="middle" x="234" y="-81" font-family="Helvetica,sans-Serif" font-size="10.00">Controller Declarations</text>
</a>
</g>
</g>
<!-- Node1&#45;&gt;Node14 -->
<g id="edge13" class="edge">
<title>Node1&#45;&gt;Node14</title>
<path fill="none" stroke="black" d="M72.55,-230.48C86.03,-198.96 117.32,-136.07 164,-102.5 169.45,-98.58 175.67,-95.47 182.09,-93"/>
<polygon fill="black" stroke="black" points="69.25,-229.3 68.66,-239.87 75.71,-231.97 69.25,-229.3"/>
</g>
<!-- Node8 -->
<g id="node13" class="node">
<title>Node8</title>
<g id="a_node13"><a xlink:href="group__output-voltage-feedback.html" target="_top" xlink:title="Description">
<polygon fill="white" stroke="black" points="298,-56 170,-56 170,-37 298,-37 298,-56"/>
<text text-anchor="middle" x="234" y="-44" font-family="Helvetica,sans-Serif" font-size="10.00">Output Voltage Feedback</text>
</a>
</g>
</g>
<!-- Node1&#45;&gt;Node8 -->
<g id="edge7" class="edge">
<title>Node1&#45;&gt;Node8</title>
<path fill="none" stroke="black" d="M69.95,-229.99C80.53,-192.3 109.01,-109.33 164,-65.5 168.86,-61.63 174.45,-58.54 180.31,-56.09"/>
<polygon fill="black" stroke="black" points="66.54,-229.18 67.33,-239.75 73.3,-231 66.54,-229.18"/>
</g>
<!-- Node13 -->
<g id="node14" class="node">
<title>Node13</title>
<g id="a_node14"><a xlink:href="group__fault-object-declarations.html" target="_top" xlink:title="Global defines for fault&#45;monitor related parameters.">
<polygon fill="white" stroke="black" points="297.5,-19 170.5,-19 170.5,0 297.5,0 297.5,-19"/>
<text text-anchor="middle" x="234" y="-7" font-family="Helvetica,sans-Serif" font-size="10.00">Fault Object Declarations</text>
</a>
</g>
</g>
<!-- Node1&#45;&gt;Node13 -->
<g id="edge12" class="edge">
<title>Node1&#45;&gt;Node13</title>
<path fill="none" stroke="black" d="M68.07,-229.74C75.85,-186.51 100.44,-83.04 164,-28.5 168.53,-24.62 173.78,-21.52 179.33,-19.05"/>
<polygon fill="black" stroke="black" points="64.59,-229.37 66.37,-239.81 71.49,-230.53 64.59,-229.37"/>
</g>
</g>
</svg>
        <g id="navigator" transform="translate(0 0)" fill="#404254">
                <rect fill="#f2f5e9" fill-opacity="0.5" stroke="#606060" stroke-width=".5" x="0" y="0" width="60" height="60"/>
                <use id="zoomplus" xlink:href="#zoomPlus" x="17" y="9" onmousedown="handleZoom(evt,'in')"/>
                <use id="zoomminus" xlink:href="#zoomMin" x="42" y="9" onmousedown="handleZoom(evt,'out')"/>
                <use id="reset" xlink:href="#resetDef" x="30" y="36" onmousedown="handleReset()"/>
                <g id="arrowUp" xlink:href="#dirArrow" transform="translate(30 24)" onmousedown="handlePan(0,-1)">
                  <use xlink:href="#rim" fill="#404040">
                        <set attributeName="fill" to="#808080" begin="arrowUp.mouseover" end="arrowUp.mouseout"/>
                  </use>
                  <path fill="none" stroke="white" stroke-width="1.5" d="M0,-3.0v7 M-2.5,-0.5L0,-3.0L2.5,-0.5"/>
                </g>
                <g id="arrowRight" xlink:href="#dirArrow" transform="rotate(90) translate(36 -43)" onmousedown="handlePan(1,0)">
                  <use xlink:href="#rim" fill="#404040">
                        <set attributeName="fill" to="#808080" begin="arrowRight.mouseover" end="arrowRight.mouseout"/>
                  </use>
                  <path fill="none" stroke="white" stroke-width="1.5" d="M0,-3.0v7 M-2.5,-0.5L0,-3.0L2.5,-0.5"/>
                </g>
                <g id="arrowDown" xlink:href="#dirArrow" transform="rotate(180) translate(-30 -48)" onmousedown="handlePan(0,1)">
                  <use xlink:href="#rim" fill="#404040">
                        <set attributeName="fill" to="#808080" begin="arrowDown.mouseover" end="arrowDown.mouseout"/>
                  </use>
                  <path fill="none" stroke="white" stroke-width="1.5" d="M0,-3.0v7 M-2.5,-0.5L0,-3.0L2.5,-0.5"/>
                </g>
                <g id="arrowLeft" xlink:href="#dirArrow" transform="rotate(270) translate(-36 17)" onmousedown="handlePan(-1,0)">
                  <use xlink:href="#rim" fill="#404040">
                        <set attributeName="fill" to="#808080" begin="arrowLeft.mouseover" end="arrowLeft.mouseout"/>
                  </use>
                  <path fill="none" stroke="white" stroke-width="1.5" d="M0,-3.0v7 M-2.5,-0.5L0,-3.0L2.5,-0.5"/>
                </g>
        </g>
        <svg viewBox="0 0 15 15" width="100%" height="30px" preserveAspectRatio="xMaxYMin meet">
         <g id="arrow_out" transform="scale(0.3 0.3)">
          <a xlink:href="group__abstraction-layer_org.svg" target="_base">
           <rect id="button" ry="5" rx="5" y="6" x="6" height="38" width="38"
                fill="#f2f5e9" fill-opacity="0.5" stroke="#606060" stroke-width="1.0"/>
           <path id="arrow"
             d="M 11.500037,31.436501 C 11.940474,20.09759 22.043105,11.32322 32.158766,21.979434 L 37.068811,17.246167 C 37.068811,17.246167 37.088388,32 37.088388,32 L 22.160133,31.978069 C 22.160133,31.978069 26.997745,27.140456 26.997745,27.140456 C 18.528582,18.264221 13.291696,25.230495 11.500037,31.436501 z"
             style="fill:#404040;"/>
          </a>
         </g>
        </svg>
</svg>
