<?xml version="1.0" encoding="UTF-8" standalone="no"?>
<!DOCTYPE svg PUBLIC "-//W3C//DTD SVG 1.1//EN"
 "http://www.w3.org/Graphics/SVG/1.1/DTD/svg11.dtd">
<!-- Generated by graphviz version 2.44.1 (20200629.0846)
 -->
<!-- Title: Peripheral Special Function Register Abstraction Drivers Pages: 1 -->
<svg width="475pt" height="344pt"
 viewBox="0.00 0.00 475.00 343.50" xmlns="http://www.w3.org/2000/svg" xmlns:xlink="http://www.w3.org/1999/xlink">
<g id="graph0" class="graph" transform="scale(1 1) rotate(0) translate(4 339.5)">
<title>Peripheral Special Function Register Abstraction Drivers</title>
<polygon fill="white" stroke="transparent" points="-4,4 -4,-339.5 471,-339.5 471,4 -4,4"/>
<!-- Node6 -->
<g id="node1" class="node">
<title>Node6</title>
<g id="a_node1"><a xlink:href="group__p33c-gpio-pral.html" target="_top" xlink:title="General Purpose Input/Output Special Function Register Abstraction Driver.">
<polygon fill="white" stroke="black" points="456.5,-335.5 343.5,-335.5 343.5,-305.5 456.5,-305.5 456.5,-335.5"/>
<text text-anchor="start" x="351.5" y="-323.5" font-family="Helvetica,sans-Serif" font-size="10.00">General Purpose Input</text>
<text text-anchor="middle" x="400" y="-312.5" font-family="Helvetica,sans-Serif" font-size="10.00">/Output</text>
</a>
</g>
</g>
<!-- Node8 -->
<g id="node2" class="node">
<title>Node8</title>
<g id="a_node2"><a xlink:href="group__p33c-osc-pral.html" target="_top" xlink:title="Oscillator Module Special Function Register Abstraction Driver.">
<polygon fill="white" stroke="black" points="446,-287 354,-287 354,-268 446,-268 446,-287"/>
<text text-anchor="middle" x="400" y="-275" font-family="Helvetica,sans-Serif" font-size="10.00">Oscillator Module</text>
</a>
</g>
</g>
<!-- Node4 -->
<g id="node3" class="node">
<title>Node4</title>
<g id="a_node3"><a xlink:href="group__p33c-dac-pral.html" target="_top" xlink:title="Digital&#45;To&#45;Analog Converter Peripheral Module Special Function Register Abstraction Driver.">
<polygon fill="white" stroke="black" points="467,-249.5 333,-249.5 333,-219.5 467,-219.5 467,-249.5"/>
<text text-anchor="start" x="341" y="-237.5" font-family="Helvetica,sans-Serif" font-size="10.00">Digital&#45;To&#45;Analog Converter</text>
<text text-anchor="middle" x="400" y="-226.5" font-family="Helvetica,sans-Serif" font-size="10.00"> Module</text>
</a>
</g>
</g>
<!-- Node2 -->
<g id="node4" class="node">
<title>Node2</title>
<g id="a_node4"><a xlink:href="group__device-abstraction.html" target="_top" xlink:title="Declarations of fundamental microcontroller device parameters.">
<polygon fill="white" stroke="black" points="112,-184.5 0,-184.5 0,-154.5 112,-154.5 112,-184.5"/>
<text text-anchor="start" x="8" y="-172.5" font-family="Helvetica,sans-Serif" font-size="10.00">Microcontroller Device</text>
<text text-anchor="middle" x="56" y="-161.5" font-family="Helvetica,sans-Serif" font-size="10.00"> Abstraction</text>
</a>
</g>
</g>
<!-- Node1 -->
<g id="node10" class="node">
<title>Node1</title>
<g id="a_node10"><a xlink:title=" ">
<polygon fill="#bfbfbf" stroke="black" points="297,-190 148,-190 148,-149 297,-149 297,-190"/>
<text text-anchor="start" x="156" y="-178" font-family="Helvetica,sans-Serif" font-size="10.00">Peripheral Special</text>
<text text-anchor="start" x="156" y="-167" font-family="Helvetica,sans-Serif" font-size="10.00"> Function Register Abstraction</text>
<text text-anchor="middle" x="222.5" y="-156" font-family="Helvetica,sans-Serif" font-size="10.00"> Drivers</text>
</a>
</g>
</g>
<!-- Node2&#45;&gt;Node1 -->
<g id="edge1" class="edge">
<title>Node2&#45;&gt;Node1</title>
<path fill="none" stroke="black" d="M122.28,-169.5C130.63,-169.5 139.23,-169.5 147.71,-169.5"/>
<polygon fill="black" stroke="black" points="122.23,-166 112.23,-169.5 122.23,-173 122.23,-166"/>
</g>
<!-- Node3 -->
<g id="node5" class="node">
<title>Node3</title>
<g id="a_node5"><a xlink:href="group__p33c-ccp-pral.html" target="_top" xlink:title="Capture Compare Peripheral Module Special Function Register Abstraction Driver.">
<polygon fill="white" stroke="black" points="463.5,-201 336.5,-201 336.5,-182 463.5,-182 463.5,-201"/>
<text text-anchor="middle" x="400" y="-189" font-family="Helvetica,sans-Serif" font-size="10.00">Capture Compare Module</text>
</a>
</g>
</g>
<!-- Node5 -->
<g id="node6" class="node">
<title>Node5</title>
<g id="a_node6"><a xlink:href="group__p33c-dsp-pral.html" target="_top" xlink:title="Digital Signal Processor Special Function Register Abstraction Driver.">
<polygon fill="white" stroke="black" points="460.5,-163.5 339.5,-163.5 339.5,-133.5 460.5,-133.5 460.5,-163.5"/>
<text text-anchor="start" x="347.5" y="-151.5" font-family="Helvetica,sans-Serif" font-size="10.00">Digital Signal Processor</text>
<text text-anchor="middle" x="400" y="-140.5" font-family="Helvetica,sans-Serif" font-size="10.00"> Converter Module</text>
</a>
</g>
</g>
<!-- Node7 -->
<g id="node7" class="node">
<title>Node7</title>
<g id="a_node7"><a xlink:href="group__p33c-opa-pral.html" target="_top" xlink:title="Operational Amplifier Peripheral Module Special Function Register Abstraction Driver.">
<polygon fill="white" stroke="black" points="453.5,-115.5 346.5,-115.5 346.5,-85.5 453.5,-85.5 453.5,-115.5"/>
<text text-anchor="start" x="354.5" y="-103.5" font-family="Helvetica,sans-Serif" font-size="10.00">Operational Amplifier</text>
<text text-anchor="middle" x="400" y="-92.5" font-family="Helvetica,sans-Serif" font-size="10.00"> Module</text>
</a>
</g>
</g>
<!-- Node9 -->
<g id="node8" class="node">
<title>Node9</title>
<g id="a_node8"><a xlink:href="group__p33c-pps-pral.html" target="_top" xlink:title="Peripheral Pin Select Module Special Function Register Abstraction Driver.">
<polygon fill="white" stroke="black" points="454,-67.5 346,-67.5 346,-37.5 454,-37.5 454,-67.5"/>
<text text-anchor="start" x="354" y="-55.5" font-family="Helvetica,sans-Serif" font-size="10.00">Peripheral Pin Select</text>
<text text-anchor="middle" x="400" y="-44.5" font-family="Helvetica,sans-Serif" font-size="10.00"> Module</text>
</a>
</g>
</g>
<!-- Node10 -->
<g id="node9" class="node">
<title>Node10</title>
<g id="a_node9"><a xlink:href="group__p33c-pwm-pral.html" target="_top" xlink:title="High&#45;Speed PWM Module Special Function Register Abstraction Driver.">
<polygon fill="white" stroke="black" points="464.5,-19 335.5,-19 335.5,0 464.5,0 464.5,-19"/>
<text text-anchor="middle" x="400" y="-7" font-family="Helvetica,sans-Serif" font-size="10.00">High&#45;Speed PWM Module</text>
</a>
</g>
</g>
<!-- Node1&#45;&gt;Node6 -->
<g id="edge5" class="edge">
<title>Node1&#45;&gt;Node6</title>
<path fill="none" stroke="black" d="M242.16,-198.79C261.68,-227.32 294.78,-270.13 333,-296.5 337.92,-299.89 343.37,-302.87 348.97,-305.46"/>
<polygon fill="black" stroke="black" points="245.02,-196.78 236.54,-190.43 239.21,-200.68 245.02,-196.78"/>
</g>
<!-- Node1&#45;&gt;Node8 -->
<g id="edge7" class="edge">
<title>Node1&#45;&gt;Node8</title>
<path fill="none" stroke="black" d="M250.74,-196.94C271.63,-216.59 302.06,-242.34 333,-258.5 340.29,-262.31 348.45,-265.45 356.47,-267.99"/>
<polygon fill="black" stroke="black" points="253.14,-194.39 243.49,-190 248.3,-199.45 253.14,-194.39"/>
</g>
<!-- Node1&#45;&gt;Node4 -->
<g id="edge3" class="edge">
<title>Node1&#45;&gt;Node4</title>
<path fill="none" stroke="black" d="M287.67,-193.64C302.54,-199.21 318.32,-205.08 333,-210.5 340.89,-213.41 349.33,-216.5 357.43,-219.45"/>
<polygon fill="black" stroke="black" points="288.64,-190.27 278.05,-190.04 286.18,-196.82 288.64,-190.27"/>
</g>
<!-- Node1&#45;&gt;Node3 -->
<g id="edge2" class="edge">
<title>Node1&#45;&gt;Node3</title>
<path fill="none" stroke="black" d="M307.31,-180.01C317.1,-181.23 326.94,-182.47 336.37,-183.65"/>
<polygon fill="black" stroke="black" points="307.52,-176.51 297.16,-178.73 306.65,-183.45 307.52,-176.51"/>
</g>
<!-- Node1&#45;&gt;Node5 -->
<g id="edge4" class="edge">
<title>Node1&#45;&gt;Node5</title>
<path fill="none" stroke="black" d="M307.12,-159.49C318.01,-158.19 328.98,-156.88 339.37,-155.64"/>
<polygon fill="black" stroke="black" points="306.68,-156.02 297.16,-160.69 307.51,-162.97 306.68,-156.02"/>
</g>
<!-- Node1&#45;&gt;Node7 -->
<g id="edge6" class="edge">
<title>Node1&#45;&gt;Node7</title>
<path fill="none" stroke="black" d="M281.89,-144.98C298.36,-138.21 316.34,-130.95 333,-124.5 340.62,-121.55 348.77,-118.5 356.65,-115.61"/>
<polygon fill="black" stroke="black" points="280.29,-141.86 272.39,-148.91 282.96,-148.33 280.29,-141.86"/>
</g>
<!-- Node1&#45;&gt;Node9 -->
<g id="edge8" class="edge">
<title>Node1&#45;&gt;Node9</title>
<path fill="none" stroke="black" d="M250.47,-141.78C271.44,-121.49 302.08,-94.47 333,-76.5 338.69,-73.19 344.92,-70.21 351.2,-67.57"/>
<polygon fill="black" stroke="black" points="247.88,-139.41 243.2,-148.92 252.79,-144.41 247.88,-139.41"/>
</g>
<!-- Node1&#45;&gt;Node10 -->
<g id="edge9" class="edge">
<title>Node1&#45;&gt;Node10</title>
<path fill="none" stroke="black" d="M238.91,-139.97C257.15,-107.86 290.49,-57.29 333,-28.5 338.73,-24.62 345.24,-21.53 351.9,-19.06"/>
<polygon fill="black" stroke="black" points="235.74,-138.45 233.95,-148.9 241.86,-141.85 235.74,-138.45"/>
</g>
</g>
</svg>
