<?xml version="1.0" encoding="UTF-8" standalone="no"?>
<!DOCTYPE svg PUBLIC "-//W3C//DTD SVG 1.1//EN"
 "http://www.w3.org/Graphics/SVG/1.1/DTD/svg11.dtd">
<!-- Generated by graphviz version 2.44.1 (20200629.0846)
 -->
<!-- Title: Public Properties Pages: 1 -->
<svg width="379pt" height="101pt"
 viewBox="0.00 0.00 379.00 101.00" xmlns="http://www.w3.org/2000/svg" xmlns:xlink="http://www.w3.org/1999/xlink">
<g id="graph0" class="graph" transform="scale(1 1) rotate(0) translate(4 97)">
<title>Public Properties</title>
<polygon fill="white" stroke="transparent" points="-4,4 -4,-97 375,-97 375,4 -4,4"/>
<!-- Node4 -->
<g id="node1" class="node">
<title>Node4</title>
<g id="a_node1"><a xlink:href="group__lib-layer-buck-states-properties-public-data-types.html" target="_top" xlink:title="Public data types of the buck converter state machine.">
<polygon fill="white" stroke="black" points="352.5,-93 286.5,-93 286.5,-74 352.5,-74 352.5,-93"/>
<text text-anchor="middle" x="319.5" y="-81" font-family="Helvetica,sans-Serif" font-size="10.00">Data Types</text>
</a>
</g>
</g>
<!-- Node5 -->
<g id="node2" class="node">
<title>Node5</title>
<g id="a_node2"><a xlink:href="group__lib-layer-buck-states-properties-public-defines.html" target="_top" xlink:title="Public defines and macros of the buck converter state machine.">
<polygon fill="white" stroke="black" points="371,-56 268,-56 268,-37 371,-37 371,-56"/>
<text text-anchor="middle" x="319.5" y="-44" font-family="Helvetica,sans-Serif" font-size="10.00">Defines and Macros</text>
</a>
</g>
</g>
<!-- Node2 -->
<g id="node3" class="node">
<title>Node2</title>
<g id="a_node3"><a xlink:href="group__lib-layer-buck-states.html" target="_top" xlink:title=" ">
<polygon fill="white" stroke="black" points="105,-56 0,-56 0,-37 105,-37 105,-56"/>
<text text-anchor="middle" x="52.5" y="-44" font-family="Helvetica,sans-Serif" font-size="10.00">Buck State Machine</text>
</a>
</g>
</g>
<!-- Node1 -->
<g id="node5" class="node">
<title>Node1</title>
<g id="a_node5"><a xlink:title="Public properties of the second library layer.">
<polygon fill="#bfbfbf" stroke="black" points="232,-56 141,-56 141,-37 232,-37 232,-56"/>
<text text-anchor="middle" x="186.5" y="-44" font-family="Helvetica,sans-Serif" font-size="10.00">Public Properties</text>
</a>
</g>
</g>
<!-- Node2&#45;&gt;Node1 -->
<g id="edge1" class="edge">
<title>Node2&#45;&gt;Node1</title>
<path fill="none" stroke="black" d="M115.56,-46.5C124.04,-46.5 132.61,-46.5 140.7,-46.5"/>
<polygon fill="black" stroke="black" points="115.29,-43 105.29,-46.5 115.29,-50 115.29,-43"/>
</g>
<!-- Node3 -->
<g id="node4" class="node">
<title>Node3</title>
<g id="a_node4"><a xlink:href="group__lib-layer-buck-states-properties-public-variables.html" target="_top" xlink:title="Public valiables of the buck converter state machine.">
<polygon fill="white" stroke="black" points="348,-19 291,-19 291,0 348,0 348,-19"/>
<text text-anchor="middle" x="319.5" y="-7" font-family="Helvetica,sans-Serif" font-size="10.00">Variables</text>
</a>
</g>
</g>
<!-- Node1&#45;&gt;Node4 -->
<g id="edge3" class="edge">
<title>Node1&#45;&gt;Node4</title>
<path fill="none" stroke="black" d="M230.96,-58.77C249,-63.87 269.57,-69.68 286.23,-74.39"/>
<polygon fill="black" stroke="black" points="231.81,-55.38 221.24,-56.03 229.91,-62.11 231.81,-55.38"/>
</g>
<!-- Node1&#45;&gt;Node5 -->
<g id="edge4" class="edge">
<title>Node1&#45;&gt;Node5</title>
<path fill="none" stroke="black" d="M242.31,-46.5C250.72,-46.5 259.37,-46.5 267.68,-46.5"/>
<polygon fill="black" stroke="black" points="242.22,-43 232.22,-46.5 242.22,-50 242.22,-43"/>
</g>
<!-- Node1&#45;&gt;Node3 -->
<g id="edge2" class="edge">
<title>Node1&#45;&gt;Node3</title>
<path fill="none" stroke="black" d="M230.91,-34.24C250.58,-28.68 273.27,-22.28 290.62,-17.37"/>
<polygon fill="black" stroke="black" points="229.91,-30.89 221.24,-36.97 231.81,-37.62 229.91,-30.89"/>
</g>
</g>
</svg>
