<?xml version="1.0" encoding="UTF-8" standalone="no"?>
<!DOCTYPE svg PUBLIC "-//W3C//DTD SVG 1.1//EN"
 "http://www.w3.org/Graphics/SVG/1.1/DTD/svg11.dtd">
<!-- Generated by graphviz version 2.44.1 (20200629.0846)
 -->
<!-- Title: PPS_RemapOutput Pages: 1 -->
<svg width="610pt" height="78pt"
 viewBox="0.00 0.00 610.00 77.50" xmlns="http://www.w3.org/2000/svg" xmlns:xlink="http://www.w3.org/1999/xlink">
<g id="graph0" class="graph" transform="scale(1 1) rotate(0) translate(4 73.5)">
<title>PPS_RemapOutput</title>
<polygon fill="white" stroke="transparent" points="-4,4 -4,-73.5 606,-73.5 606,4 -4,4"/>
<!-- Node1 -->
<g id="node1" class="node">
<title>Node1</title>
<g id="a_node1"><a xlink:title="Assigns a digital function output to a pin.">
<polygon fill="#bfbfbf" stroke="black" points="500,-22.5 500,-41.5 602,-41.5 602,-22.5 500,-22.5"/>
<text text-anchor="middle" x="551" y="-29.5" font-family="Helvetica,sans-Serif" font-size="10.00">PPS_RemapOutput</text>
</a>
</g>
</g>
<!-- Node2 -->
<g id="node2" class="node">
<title>Node2</title>
<g id="a_node2"><a xlink:href="group__app-layer-power-control-functions-private_ga0b26acfec74d1804384b4ba1a3cffab4.html#ga0b26acfec74d1804384b4ba1a3cffab4" target="_top" xlink:title="This function is used to load peripheral configuration templates from the power controller device dri...">
<polygon fill="white" stroke="black" points="321,-39 321,-69 464,-69 464,-39 321,-39"/>
<text text-anchor="start" x="329" y="-57" font-family="Helvetica,sans-Serif" font-size="10.00">appPowerSupply_Peripherals</text>
<text text-anchor="middle" x="392.5" y="-46" font-family="Helvetica,sans-Serif" font-size="10.00">Initialize</text>
</a>
</g>
</g>
<!-- Node1&#45;&gt;Node2 -->
<g id="edge1" class="edge">
<title>Node1&#45;&gt;Node2</title>
<path fill="none" stroke="midnightblue" d="M489.58,-40.49C481.21,-41.67 472.56,-42.89 464.02,-44.09"/>
<polygon fill="midnightblue" stroke="midnightblue" points="490.21,-43.94 499.62,-39.08 489.23,-37.01 490.21,-43.94"/>
</g>
<!-- Node5 -->
<g id="node5" class="node">
<title>Node5</title>
<g id="a_node5"><a xlink:href="group__lib-layer-pral-functions-public-pps_gac40d40430a5237549eaafb4aa6ab3a24.html#gac40d40430a5237549eaafb4aa6ab3a24" target="_top" xlink:title="Disconnects a pin from a digital function output.">
<polygon fill="white" stroke="black" points="341.5,-0.5 341.5,-19.5 443.5,-19.5 443.5,-0.5 341.5,-0.5"/>
<text text-anchor="middle" x="392.5" y="-7.5" font-family="Helvetica,sans-Serif" font-size="10.00">PPS_UnmapOutput</text>
</a>
</g>
</g>
<!-- Node1&#45;&gt;Node5 -->
<g id="edge4" class="edge">
<title>Node1&#45;&gt;Node5</title>
<path fill="none" stroke="midnightblue" d="M489.31,-23.47C474.16,-21.34 458.08,-19.08 443.52,-17.03"/>
<polygon fill="midnightblue" stroke="midnightblue" points="489.23,-26.99 499.62,-24.92 490.21,-20.06 489.23,-26.99"/>
</g>
<!-- Node3 -->
<g id="node3" class="node">
<title>Node3</title>
<g id="a_node3"><a xlink:href="group__app-layer-power-control-functions-public_ga7a4cf6371d09457539f96a74b2809ca0.html#ga7a4cf6371d09457539f96a74b2809ca0" target="_top" xlink:title="Calls the application layer power controller initialization.">
<polygon fill="white" stroke="black" points="155,-44.5 155,-63.5 285,-63.5 285,-44.5 155,-44.5"/>
<text text-anchor="middle" x="220" y="-51.5" font-family="Helvetica,sans-Serif" font-size="10.00">appPowerSupply_Initialize</text>
</a>
</g>
</g>
<!-- Node2&#45;&gt;Node3 -->
<g id="edge2" class="edge">
<title>Node2&#45;&gt;Node3</title>
<path fill="none" stroke="midnightblue" d="M310.65,-54C302.06,-54 293.42,-54 285.07,-54"/>
<polygon fill="midnightblue" stroke="midnightblue" points="310.67,-57.5 320.67,-54 310.67,-50.5 310.67,-57.5"/>
</g>
<!-- Node4 -->
<g id="node4" class="node">
<title>Node4</title>
<g id="a_node4"><a xlink:href="group__user-task-initialization_ga2be64f5f0b9a2c0c6713f5a69d793e05.html#ga2be64f5f0b9a2c0c6713f5a69d793e05" target="_top" xlink:title="Initializes the user&#45;defined tasks.">
<polygon fill="white" stroke="black" points="0,-44.5 0,-63.5 119,-63.5 119,-44.5 0,-44.5"/>
<text text-anchor="middle" x="59.5" y="-51.5" font-family="Helvetica,sans-Serif" font-size="10.00">sysUserTasks_Initialize</text>
</a>
</g>
</g>
<!-- Node3&#45;&gt;Node4 -->
<g id="edge3" class="edge">
<title>Node3&#45;&gt;Node4</title>
<path fill="none" stroke="midnightblue" d="M144.9,-54C136.25,-54 127.52,-54 119.12,-54"/>
<polygon fill="midnightblue" stroke="midnightblue" points="144.99,-57.5 154.99,-54 144.99,-50.5 144.99,-57.5"/>
</g>
</g>
</svg>
