<?xml version="1.0" encoding="UTF-8" standalone="no"?>
<!DOCTYPE svg PUBLIC "-//W3C//DTD SVG 1.1//EN"
 "http://www.w3.org/Graphics/SVG/1.1/DTD/svg11.dtd">
<!-- Generated by graphviz version 2.44.1 (20200629.0846)
 -->
<!-- Title: appPowerSupply_PeripheralsInitialize Pages: 1 -->
<svg width="665pt" height="180pt"
 viewBox="0.00 0.00 665.00 180.00" xmlns="http://www.w3.org/2000/svg" xmlns:xlink="http://www.w3.org/1999/xlink">
<g id="graph0" class="graph" transform="scale(1 1) rotate(0) translate(4 176)">
<title>appPowerSupply_PeripheralsInitialize</title>
<polygon fill="white" stroke="transparent" points="-4,4 -4,-176 661,-176 661,4 -4,4"/>
<!-- Node1 -->
<g id="node1" class="node">
<title>Node1</title>
<g id="a_node1"><a xlink:title="Description">
<polygon fill="#bfbfbf" stroke="black" points="0,-71 0,-101 143,-101 143,-71 0,-71"/>
<text text-anchor="start" x="8" y="-89" font-family="Helvetica,sans-Serif" font-size="10.00">appPowerSupply_Peripherals</text>
<text text-anchor="middle" x="71.5" y="-78" font-family="Helvetica,sans-Serif" font-size="10.00">Initialize</text>
</a>
</g>
</g>
<!-- Node2 -->
<g id="node2" class="node">
<title>Node2</title>
<g id="a_node2"><a xlink:href="group__power-handler-function.html#ga97eb8bdd17b9c2e169f0634ebabb5d19" target="_top" xlink:title="This function initializes all peripheral modules and their instances used by the power controller.">
<polygon fill="white" stroke="black" points="179,-76.5 179,-95.5 316,-95.5 316,-76.5 179,-76.5"/>
<text text-anchor="middle" x="247.5" y="-83.5" font-family="Helvetica,sans-Serif" font-size="10.00">drv_BuckConverter_Initialize</text>
</a>
</g>
</g>
<!-- Node1&#45;&gt;Node2 -->
<g id="edge1" class="edge">
<title>Node1&#45;&gt;Node2</title>
<path fill="none" stroke="midnightblue" d="M143.02,-86C151.55,-86 160.3,-86 168.93,-86"/>
<polygon fill="midnightblue" stroke="midnightblue" points="168.98,-89.5 178.98,-86 168.98,-82.5 168.98,-89.5"/>
</g>
<!-- Node3 -->
<g id="node3" class="node">
<title>Node3</title>
<g id="a_node3"><a xlink:href="group__power-handler-function.html#gab889ae485e95010864ca04500457861a" target="_top" xlink:title="Description">
<polygon fill="white" stroke="black" points="354,-152.5 354,-171.5 488,-171.5 488,-152.5 354,-152.5"/>
<text text-anchor="middle" x="421" y="-159.5" font-family="Helvetica,sans-Serif" font-size="10.00">buckADC_ChannelInitialize</text>
</a>
</g>
</g>
<!-- Node2&#45;&gt;Node3 -->
<g id="edge2" class="edge">
<title>Node2&#45;&gt;Node3</title>
<path fill="none" stroke="midnightblue" d="M263.38,-95.64C283.02,-108.02 318.96,-129.5 352,-143 357.81,-145.37 364.01,-147.56 370.22,-149.53"/>
<polygon fill="midnightblue" stroke="midnightblue" points="369.34,-152.92 379.93,-152.46 371.37,-146.22 369.34,-152.92"/>
</g>
<!-- Node4 -->
<g id="node4" class="node">
<title>Node4</title>
<g id="a_node4"><a xlink:href="group__power-handler-function.html#ga086bc1e4304b2ce7a435bf2a9799d078" target="_top" xlink:title="Description">
<polygon fill="white" stroke="black" points="356,-114.5 356,-133.5 486,-133.5 486,-114.5 356,-114.5"/>
<text text-anchor="middle" x="421" y="-121.5" font-family="Helvetica,sans-Serif" font-size="10.00">buckADC_ModuleInitialize</text>
</a>
</g>
</g>
<!-- Node2&#45;&gt;Node4 -->
<g id="edge3" class="edge">
<title>Node2&#45;&gt;Node4</title>
<path fill="none" stroke="midnightblue" d="M291.78,-95.59C314.61,-100.65 342.82,-106.9 366.96,-112.25"/>
<polygon fill="midnightblue" stroke="midnightblue" points="366.51,-115.73 377.03,-114.48 368.03,-108.9 366.51,-115.73"/>
</g>
<!-- Node5 -->
<g id="node5" class="node">
<title>Node5</title>
<g id="a_node5"><a xlink:href="group__power-handler-function.html#ga984f623275f9e1da2e11be2e9ff8221c" target="_top" xlink:title="Description">
<polygon fill="white" stroke="black" points="370,-76.5 370,-95.5 472,-95.5 472,-76.5 370,-76.5"/>
<text text-anchor="middle" x="421" y="-83.5" font-family="Helvetica,sans-Serif" font-size="10.00">buckGPIO_Initialize</text>
</a>
</g>
</g>
<!-- Node2&#45;&gt;Node5 -->
<g id="edge4" class="edge">
<title>Node2&#45;&gt;Node5</title>
<path fill="none" stroke="midnightblue" d="M316.28,-86C330.67,-86 345.77,-86 359.85,-86"/>
<polygon fill="midnightblue" stroke="midnightblue" points="359.9,-89.5 369.9,-86 359.9,-82.5 359.9,-89.5"/>
</g>
<!-- Node8 -->
<g id="node8" class="node">
<title>Node8</title>
<g id="a_node8"><a xlink:href="group__power-handler-function.html#ga283487111ea685224a2caf350540daad" target="_top" xlink:title="Description">
<polygon fill="white" stroke="black" points="352,-38.5 352,-57.5 490,-57.5 490,-38.5 352,-38.5"/>
<text text-anchor="middle" x="421" y="-45.5" font-family="Helvetica,sans-Serif" font-size="10.00">buckPWM_ChannelInitialize</text>
</a>
</g>
</g>
<!-- Node2&#45;&gt;Node8 -->
<g id="edge7" class="edge">
<title>Node2&#45;&gt;Node8</title>
<path fill="none" stroke="midnightblue" d="M291.78,-76.41C314.61,-71.35 342.82,-65.1 366.96,-59.75"/>
<polygon fill="midnightblue" stroke="midnightblue" points="368.03,-63.1 377.03,-57.52 366.51,-56.27 368.03,-63.1"/>
</g>
<!-- Node9 -->
<g id="node9" class="node">
<title>Node9</title>
<g id="a_node9"><a xlink:href="group__power-handler-function.html#ga1dedc10502a96efea6da9207f3416219" target="_top" xlink:title="Description">
<polygon fill="white" stroke="black" points="354,-0.5 354,-19.5 488,-19.5 488,-0.5 354,-0.5"/>
<text text-anchor="middle" x="421" y="-7.5" font-family="Helvetica,sans-Serif" font-size="10.00">buckPWM_ModuleInitialize</text>
</a>
</g>
</g>
<!-- Node2&#45;&gt;Node9 -->
<g id="edge8" class="edge">
<title>Node2&#45;&gt;Node9</title>
<path fill="none" stroke="midnightblue" d="M263.38,-76.36C283.02,-63.98 318.96,-42.5 352,-29 357.81,-26.63 364.01,-24.44 370.22,-22.47"/>
<polygon fill="midnightblue" stroke="midnightblue" points="371.37,-25.78 379.93,-19.54 369.34,-19.08 371.37,-25.78"/>
</g>
<!-- Node6 -->
<g id="node6" class="node">
<title>Node6</title>
<g id="a_node6"><a xlink:href="group__power-handler-function.html#ga649bb2f18322be1a303d05931adb2c6a" target="_top" xlink:title="Description">
<polygon fill="white" stroke="black" points="547,-95.5 547,-114.5 636,-114.5 636,-95.5 547,-95.5"/>
<text text-anchor="middle" x="591.5" y="-102.5" font-family="Helvetica,sans-Serif" font-size="10.00">buckGPIO_Clear</text>
</a>
</g>
</g>
<!-- Node5&#45;&gt;Node6 -->
<g id="edge5" class="edge">
<title>Node5&#45;&gt;Node6</title>
<path fill="none" stroke="midnightblue" d="M472.1,-91.65C492.43,-93.94 515.96,-96.59 536.66,-98.93"/>
<polygon fill="midnightblue" stroke="midnightblue" points="536.55,-102.44 546.88,-100.08 537.33,-95.48 536.55,-102.44"/>
</g>
<!-- Node7 -->
<g id="node7" class="node">
<title>Node7</title>
<g id="a_node7"><a xlink:href="group__power-handler-function.html#ga3d3f91c0e40884874e7df3a67fff23f3" target="_top" xlink:title="Description">
<polygon fill="white" stroke="black" points="526,-57.5 526,-76.5 657,-76.5 657,-57.5 526,-57.5"/>
<text text-anchor="middle" x="591.5" y="-64.5" font-family="Helvetica,sans-Serif" font-size="10.00">buckGPIO_PrivateInitialize</text>
</a>
</g>
</g>
<!-- Node5&#45;&gt;Node7 -->
<g id="edge6" class="edge">
<title>Node5&#45;&gt;Node7</title>
<path fill="none" stroke="midnightblue" d="M472.1,-80.35C485.81,-78.8 500.98,-77.09 515.76,-75.43"/>
<polygon fill="midnightblue" stroke="midnightblue" points="516.35,-78.88 525.9,-74.28 515.57,-71.93 516.35,-78.88"/>
</g>
</g>
</svg>
