<?xml version="1.0" encoding="UTF-8" standalone="no"?>
<!DOCTYPE svg PUBLIC "-//W3C//DTD SVG 1.1//EN"
 "http://www.w3.org/Graphics/SVG/1.1/DTD/svg11.dtd">
<!-- Generated by graphviz version 2.44.1 (20200629.0846)
 -->
<!-- Title: Power Control Handler Reference Pages: 1 -->
<svg width="270pt" height="182pt"
 viewBox="0.00 0.00 270.00 182.00" xmlns="http://www.w3.org/2000/svg" xmlns:xlink="http://www.w3.org/1999/xlink">
<g id="graph0" class="graph" transform="scale(1 1) rotate(0) translate(4 178)">
<title>Power Control Handler Reference</title>
<polygon fill="white" stroke="transparent" points="-4,4 -4,-178 266,-178 266,4 -4,4"/>
<!-- Node2 -->
<g id="node1" class="node">
<title>Node2</title>
<g id="a_node1"><a xlink:href="group__power-handler-function.html" target="_top" xlink:title="Power Control Handler Functions.">
<polygon fill="white" stroke="black" points="262,-174 149,-174 149,-144 262,-144 262,-174"/>
<text text-anchor="start" x="157" y="-162" font-family="Helvetica,sans-Serif" font-size="10.00">Power Control Handler</text>
<text text-anchor="middle" x="205.5" y="-151" font-family="Helvetica,sans-Serif" font-size="10.00"> Functions</text>
</a>
</g>
</g>
<!-- Node3 -->
<g id="node2" class="node">
<title>Node3</title>
<g id="a_node2"><a xlink:href="group__power-handler-struct.html" target="_top" xlink:title="Power Handler Data Structures.">
<polygon fill="white" stroke="black" points="257,-126 154,-126 154,-96 257,-96 257,-126"/>
<text text-anchor="start" x="162" y="-114" font-family="Helvetica,sans-Serif" font-size="10.00">Power Handler Data</text>
<text text-anchor="middle" x="205.5" y="-103" font-family="Helvetica,sans-Serif" font-size="10.00"> Structures</text>
</a>
</g>
</g>
<!-- Node1 -->
<g id="node3" class="node">
<title>Node1</title>
<g id="a_node3"><a xlink:title="Power Control Handler Reference.">
<polygon fill="#bfbfbf" stroke="black" points="113,-102 0,-102 0,-72 113,-72 113,-102"/>
<text text-anchor="start" x="8" y="-90" font-family="Helvetica,sans-Serif" font-size="10.00">Power Control Handler</text>
<text text-anchor="middle" x="56.5" y="-79" font-family="Helvetica,sans-Serif" font-size="10.00"> Reference</text>
</a>
</g>
</g>
<!-- Node1&#45;&gt;Node2 -->
<g id="edge1" class="edge">
<title>Node1&#45;&gt;Node2</title>
<path fill="none" stroke="black" d="M93.73,-106.81C110.42,-115.72 130.56,-126.19 149,-135 155.25,-137.99 161.97,-141.03 168.5,-143.9"/>
<polygon fill="black" stroke="black" points="95.32,-103.69 84.86,-102.04 92.01,-109.85 95.32,-103.69"/>
</g>
<!-- Node1&#45;&gt;Node3 -->
<g id="edge2" class="edge">
<title>Node1&#45;&gt;Node3</title>
<path fill="none" stroke="black" d="M123.2,-97.73C133.43,-99.4 143.86,-101.1 153.69,-102.7"/>
<polygon fill="black" stroke="black" points="123.51,-94.23 113.07,-96.07 122.38,-101.14 123.51,-94.23"/>
</g>
<!-- Node4 -->
<g id="node4" class="node">
<title>Node4</title>
<g id="a_node4"><a xlink:href="group__power-handler-enum.html" target="_top" xlink:title="This enumeration is listing all defined states supported by the power controller state&#45;machine....">
<polygon fill="white" stroke="black" points="262,-78 149,-78 149,-48 262,-48 262,-78"/>
<text text-anchor="start" x="157" y="-66" font-family="Helvetica,sans-Serif" font-size="10.00">Power Control Handler</text>
<text text-anchor="middle" x="205.5" y="-55" font-family="Helvetica,sans-Serif" font-size="10.00"> Enumerations</text>
</a>
</g>
</g>
<!-- Node1&#45;&gt;Node4 -->
<g id="edge3" class="edge">
<title>Node1&#45;&gt;Node4</title>
<path fill="none" stroke="black" d="M123.08,-76.29C131.68,-74.89 140.43,-73.46 148.85,-72.09"/>
<polygon fill="black" stroke="black" points="122.38,-72.86 113.07,-77.93 123.51,-79.77 122.38,-72.86"/>
</g>
<!-- Node5 -->
<g id="node5" class="node">
<title>Node5</title>
<g id="a_node5"><a xlink:href="group__power-handler-variable.html" target="_top" xlink:title="Power Control Handler Variables.">
<polygon fill="white" stroke="black" points="262,-30 149,-30 149,0 262,0 262,-30"/>
<text text-anchor="start" x="157" y="-18" font-family="Helvetica,sans-Serif" font-size="10.00">Power Control Handler</text>
<text text-anchor="middle" x="205.5" y="-7" font-family="Helvetica,sans-Serif" font-size="10.00"> Variables</text>
</a>
</g>
</g>
<!-- Node1&#45;&gt;Node5 -->
<g id="edge4" class="edge">
<title>Node1&#45;&gt;Node5</title>
<path fill="none" stroke="black" d="M93.73,-67.19C110.42,-58.28 130.56,-47.81 149,-39 155.25,-36.01 161.97,-32.97 168.5,-30.1"/>
<polygon fill="black" stroke="black" points="92.01,-64.15 84.86,-71.96 95.32,-70.31 92.01,-64.15"/>
</g>
</g>
</svg>
