<?xml version="1.0" encoding="UTF-8" standalone="no"?>
<!DOCTYPE svg PUBLIC "-//W3C//DTD SVG 1.1//EN"
 "http://www.w3.org/Graphics/SVG/1.1/DTD/svg11.dtd">
<!-- Generated by graphviz version 2.44.1 (20200629.0846)
 -->
<!-- Title: Fault Object Settings Pages: 1 -->
<svg width="452pt" height="86pt"
 viewBox="0.00 0.00 452.00 86.00" xmlns="http://www.w3.org/2000/svg" xmlns:xlink="http://www.w3.org/1999/xlink">
<g id="graph0" class="graph" transform="scale(1 1) rotate(0) translate(4 82)">
<title>Fault Object Settings</title>
<polygon fill="white" stroke="transparent" points="-4,4 -4,-82 448,-82 448,4 -4,4"/>
<!-- Node2 -->
<g id="node1" class="node">
<title>Node2</title>
<g id="a_node1"><a xlink:href="group__abstraction-layer.html" target="_top" xlink:title="Abstraction Layer Defines.">
<polygon fill="white" stroke="black" points="128,-48.5 0,-48.5 0,-29.5 128,-29.5 128,-48.5"/>
<text text-anchor="middle" x="64" y="-36.5" font-family="Helvetica,sans-Serif" font-size="10.00">Abstraction Layer Defines</text>
</a>
</g>
</g>
<!-- Node1 -->
<g id="node4" class="node">
<title>Node1</title>
<g id="a_node4"><a xlink:title="Declaration of fault object trip and recovery delays.">
<polygon fill="#bfbfbf" stroke="black" points="273,-48.5 164,-48.5 164,-29.5 273,-29.5 273,-48.5"/>
<text text-anchor="middle" x="218.5" y="-36.5" font-family="Helvetica,sans-Serif" font-size="10.00">Fault Object Settings</text>
</a>
</g>
</g>
<!-- Node2&#45;&gt;Node1 -->
<g id="edge1" class="edge">
<title>Node2&#45;&gt;Node1</title>
<path fill="none" stroke="black" d="M138.37,-39C146.94,-39 155.56,-39 163.8,-39"/>
<polygon fill="black" stroke="black" points="138.35,-35.5 128.35,-39 138.35,-42.5 138.35,-35.5"/>
</g>
<!-- Node3 -->
<g id="node2" class="node">
<title>Node3</title>
<g id="a_node2"><a xlink:href="group__fault-response-settings.html" target="_top" xlink:title="User&#45;declaration of fault object trip and recovery delays using physical quantities.">
<polygon fill="white" stroke="black" points="430.5,-78 322.5,-78 322.5,-48 430.5,-48 430.5,-78"/>
<text text-anchor="start" x="330.5" y="-66" font-family="Helvetica,sans-Serif" font-size="10.00">Fault Response User</text>
<text text-anchor="middle" x="376.5" y="-55" font-family="Helvetica,sans-Serif" font-size="10.00"> Settings</text>
</a>
</g>
</g>
<!-- Node4 -->
<g id="node3" class="node">
<title>Node4</title>
<g id="a_node3"><a xlink:href="group__fault-response-macros.html" target="_top" xlink:title="Conversion macros for user declarations of fault object trip and recovery delays.">
<polygon fill="white" stroke="black" points="444,-30 309,-30 309,0 444,0 444,-30"/>
<text text-anchor="start" x="317" y="-18" font-family="Helvetica,sans-Serif" font-size="10.00">Fault Response Conversion</text>
<text text-anchor="middle" x="376.5" y="-7" font-family="Helvetica,sans-Serif" font-size="10.00"> Macros</text>
</a>
</g>
</g>
<!-- Node1&#45;&gt;Node3 -->
<g id="edge2" class="edge">
<title>Node1&#45;&gt;Node3</title>
<path fill="none" stroke="black" d="M283.4,-48.83C296.3,-50.82 309.75,-52.88 322.24,-54.81"/>
<polygon fill="black" stroke="black" points="283.6,-45.32 273.19,-47.26 282.54,-52.24 283.6,-45.32"/>
</g>
<!-- Node1&#45;&gt;Node4 -->
<g id="edge3" class="edge">
<title>Node1&#45;&gt;Node4</title>
<path fill="none" stroke="black" d="M283.29,-29.19C291.69,-27.89 300.31,-26.57 308.76,-25.27"/>
<polygon fill="black" stroke="black" points="282.54,-25.76 273.19,-30.74 283.6,-32.68 282.54,-25.76"/>
</g>
</g>
</svg>
