<?xml version="1.0" encoding="UTF-8" standalone="no"?>
<!DOCTYPE svg PUBLIC "-//W3C//DTD SVG 1.1//EN"
 "http://www.w3.org/Graphics/SVG/1.1/DTD/svg11.dtd">
<!-- Generated by graphviz version 2.44.1 (20200629.0846)
 -->
<!-- Title: Output Voltage Feedback Pages: 1 -->
<svg width="469pt" height="101pt"
 viewBox="0.00 0.00 469.00 101.00" xmlns="http://www.w3.org/2000/svg" xmlns:xlink="http://www.w3.org/1999/xlink">
<g id="graph0" class="graph" transform="scale(1 1) rotate(0) translate(4 97)">
<title>Output Voltage Feedback</title>
<polygon fill="white" stroke="transparent" points="-4,4 -4,-97 465,-97 465,4 -4,4"/>
<!-- Node2 -->
<g id="node1" class="node">
<title>Node2</title>
<g id="a_node1"><a xlink:href="group__abstraction-layer.html" target="_top" xlink:title="Abstraction Layer Defines.">
<polygon fill="white" stroke="black" points="128,-56 0,-56 0,-37 128,-37 128,-56"/>
<text text-anchor="middle" x="64" y="-44" font-family="Helvetica,sans-Serif" font-size="10.00">Abstraction Layer Defines</text>
</a>
</g>
</g>
<!-- Node1 -->
<g id="node5" class="node">
<title>Node1</title>
<g id="a_node5"><a xlink:title="Declaration of phase current feedback parameters.">
<polygon fill="#bfbfbf" stroke="black" points="292,-56 164,-56 164,-37 292,-37 292,-56"/>
<text text-anchor="middle" x="228" y="-44" font-family="Helvetica,sans-Serif" font-size="10.00">Output Voltage Feedback</text>
</a>
</g>
</g>
<!-- Node2&#45;&gt;Node1 -->
<g id="edge1" class="edge">
<title>Node2&#45;&gt;Node1</title>
<path fill="none" stroke="black" d="M138.37,-46.5C146.86,-46.5 155.47,-46.5 163.81,-46.5"/>
<polygon fill="black" stroke="black" points="138.1,-43 128.1,-46.5 138.1,-50 138.1,-43"/>
</g>
<!-- Node5 -->
<g id="node2" class="node">
<title>Node5</title>
<g id="a_node2"><a xlink:href="group__output-voltage-feedback-mcal.html" target="_top" xlink:title="Device analog input pin, register and interupt vector assignments of output voltage feedback signal(s...">
<polygon fill="white" stroke="black" points="461,-93 328,-93 328,-74 461,-74 461,-93"/>
<text text-anchor="middle" x="394.5" y="-81" font-family="Helvetica,sans-Serif" font-size="10.00">Microcontroller Abstraction</text>
</a>
</g>
</g>
<!-- Node4 -->
<g id="node3" class="node">
<title>Node4</title>
<g id="a_node3"><a xlink:href="group__output-voltage-feedback-macros.html" target="_top" xlink:title="Conversion macros for user&#45;declarations of output voltage feedback parameters.">
<polygon fill="white" stroke="black" points="444,-56 345,-56 345,-37 444,-37 444,-56"/>
<text text-anchor="middle" x="394.5" y="-44" font-family="Helvetica,sans-Serif" font-size="10.00">Conversion Macros</text>
</a>
</g>
</g>
<!-- Node3 -->
<g id="node4" class="node">
<title>Node3</title>
<g id="a_node4"><a xlink:href="group__output-voltage-feedback-settings.html" target="_top" xlink:title="User&#45;declaration of output voltage feedback parameters using physical quantities.">
<polygon fill="white" stroke="black" points="432.5,-19 356.5,-19 356.5,0 432.5,0 432.5,-19"/>
<text text-anchor="middle" x="394.5" y="-7" font-family="Helvetica,sans-Serif" font-size="10.00">User Settings</text>
</a>
</g>
</g>
<!-- Node1&#45;&gt;Node5 -->
<g id="edge4" class="edge">
<title>Node1&#45;&gt;Node5</title>
<path fill="none" stroke="black" d="M281.41,-58.29C303.87,-63.34 329.76,-69.16 351,-73.94"/>
<polygon fill="black" stroke="black" points="281.89,-54.81 271.36,-56.03 280.35,-61.64 281.89,-54.81"/>
</g>
<!-- Node1&#45;&gt;Node4 -->
<g id="edge3" class="edge">
<title>Node1&#45;&gt;Node4</title>
<path fill="none" stroke="black" d="M302.49,-46.5C316.84,-46.5 331.55,-46.5 344.85,-46.5"/>
<polygon fill="black" stroke="black" points="302.13,-43 292.13,-46.5 302.13,-50 302.13,-43"/>
</g>
<!-- Node1&#45;&gt;Node3 -->
<g id="edge2" class="edge">
<title>Node1&#45;&gt;Node3</title>
<path fill="none" stroke="black" d="M281.2,-34.76C305.62,-29.27 334.13,-22.85 356.32,-17.86"/>
<polygon fill="black" stroke="black" points="280.35,-31.36 271.36,-36.97 281.89,-38.19 280.35,-31.36"/>
</g>
</g>
</svg>
