<?xml version="1.0" encoding="UTF-8" standalone="no"?>
<!DOCTYPE svg PUBLIC "-//W3C//DTD SVG 1.1//EN"
 "http://www.w3.org/Graphics/SVG/1.1/DTD/svg11.dtd">
<!-- Generated by graphviz version 2.44.1 (20200629.0846)
 -->
<!-- Title: Buck Peripheral Configurations Pages: 1 -->
<svg width="438pt" height="138pt"
 viewBox="0.00 0.00 438.00 138.00" xmlns="http://www.w3.org/2000/svg" xmlns:xlink="http://www.w3.org/1999/xlink">
<g id="graph0" class="graph" transform="scale(1 1) rotate(0) translate(4 134)">
<title>Buck Peripheral Configurations</title>
<polygon fill="white" stroke="transparent" points="-4,4 -4,-134 434,-134 434,4 -4,4"/>
<!-- Node3 -->
<g id="node1" class="node">
<title>Node3</title>
<g id="a_node1"><a xlink:href="group__lib-layer-buck-config-functions-public.html" target="_top" xlink:title="Public functions of the second library layer.">
<polygon fill="white" stroke="black" points="428,-130 339,-130 339,-111 428,-111 428,-130"/>
<text text-anchor="middle" x="383.5" y="-118" font-family="Helvetica,sans-Serif" font-size="10.00">Public Functions</text>
</a>
</g>
</g>
<!-- Node6 -->
<g id="node2" class="node">
<title>Node6</title>
<g id="a_node2"><a xlink:href="group__lib-layer-buck-config-properties-private.html" target="_top" xlink:title="Public properties of the second library layer.">
<polygon fill="white" stroke="black" points="430,-93 337,-93 337,-74 430,-74 430,-93"/>
<text text-anchor="middle" x="383.5" y="-81" font-family="Helvetica,sans-Serif" font-size="10.00">Private Properties</text>
</a>
</g>
</g>
<!-- Node1 -->
<g id="node3" class="node">
<title>Node1</title>
<g id="a_node3"><a xlink:title=" ">
<polygon fill="#bfbfbf" stroke="black" points="301,-74 151,-74 151,-55 301,-55 301,-74"/>
<text text-anchor="middle" x="226" y="-62" font-family="Helvetica,sans-Serif" font-size="10.00">Buck Peripheral Configurations</text>
</a>
</g>
</g>
<!-- Node1&#45;&gt;Node3 -->
<g id="edge2" class="edge">
<title>Node1&#45;&gt;Node3</title>
<path fill="none" stroke="black" d="M263.31,-77.58C291.74,-87.81 330.6,-101.81 356.12,-111"/>
<polygon fill="black" stroke="black" points="264.33,-74.22 253.73,-74.13 261.95,-80.81 264.33,-74.22"/>
</g>
<!-- Node1&#45;&gt;Node6 -->
<g id="edge5" class="edge">
<title>Node1&#45;&gt;Node6</title>
<path fill="none" stroke="black" d="M311.12,-74.78C319.97,-75.86 328.71,-76.93 336.87,-77.92"/>
<polygon fill="black" stroke="black" points="311.46,-71.29 301.11,-73.55 310.61,-78.24 311.46,-71.29"/>
</g>
<!-- Node4 -->
<g id="node4" class="node">
<title>Node4</title>
<g id="a_node4"><a xlink:href="group__lib-layer-buck-config-properties-public.html" target="_top" xlink:title="Public properties of the second library layer.">
<polygon fill="white" stroke="black" points="429,-56 338,-56 338,-37 429,-37 429,-56"/>
<text text-anchor="middle" x="383.5" y="-44" font-family="Helvetica,sans-Serif" font-size="10.00">Public Properties</text>
</a>
</g>
</g>
<!-- Node1&#45;&gt;Node4 -->
<g id="edge3" class="edge">
<title>Node1&#45;&gt;Node4</title>
<path fill="none" stroke="black" d="M311.08,-54.77C320.26,-53.71 329.31,-52.66 337.73,-51.68"/>
<polygon fill="black" stroke="black" points="310.64,-51.29 301.11,-55.92 311.44,-58.25 310.64,-51.29"/>
</g>
<!-- Node5 -->
<g id="node6" class="node">
<title>Node5</title>
<g id="a_node6"><a xlink:href="group__lib-layer-buck-config-functions-private.html" target="_top" xlink:title="Private functions of the second library layer.">
<polygon fill="white" stroke="black" points="429.5,-19 337.5,-19 337.5,0 429.5,0 429.5,-19"/>
<text text-anchor="middle" x="383.5" y="-7" font-family="Helvetica,sans-Serif" font-size="10.00">Private Functions</text>
</a>
</g>
</g>
<!-- Node1&#45;&gt;Node5 -->
<g id="edge4" class="edge">
<title>Node1&#45;&gt;Node5</title>
<path fill="none" stroke="black" d="M263.59,-51.56C291.75,-41.6 330.03,-28.06 355.46,-19.06"/>
<polygon fill="black" stroke="black" points="262.35,-48.29 254.09,-54.92 264.68,-54.88 262.35,-48.29"/>
</g>
<!-- Node2 -->
<g id="node5" class="node">
<title>Node2</title>
<g id="a_node5"><a xlink:href="group__lib-layer-buck.html" target="_top" xlink:title=" ">
<polygon fill="white" stroke="black" points="115,-74 0,-74 0,-55 115,-55 115,-74"/>
<text text-anchor="middle" x="57.5" y="-62" font-family="Helvetica,sans-Serif" font-size="10.00">Buck Converter Library</text>
</a>
</g>
</g>
<!-- Node2&#45;&gt;Node1 -->
<g id="edge1" class="edge">
<title>Node2&#45;&gt;Node1</title>
<path fill="none" stroke="black" d="M125.38,-64.5C133.73,-64.5 142.31,-64.5 150.76,-64.5"/>
<polygon fill="black" stroke="black" points="125.33,-61 115.33,-64.5 125.33,-68 125.33,-61"/>
</g>
</g>
</svg>
