<?xml version="1.0" encoding="UTF-8" standalone="no"?>
<!DOCTYPE svg PUBLIC "-//W3C//DTD SVG 1.1//EN"
 "http://www.w3.org/Graphics/SVG/1.1/DTD/svg11.dtd">
<!-- Generated by graphviz version 2.44.1 (20200629.0846)
 -->
<!-- Title: sysDacModule_Initialize Pages: 1 -->
<svg width="492pt" height="85pt"
 viewBox="0.00 0.00 492.00 85.00" xmlns="http://www.w3.org/2000/svg" xmlns:xlink="http://www.w3.org/1999/xlink">
<g id="graph0" class="graph" transform="scale(1 1) rotate(0) translate(4 81)">
<title>sysDacModule_Initialize</title>
<polygon fill="white" stroke="transparent" points="-4,4 -4,-81 488,-81 488,4 -4,4"/>
<!-- Node1 -->
<g id="node1" class="node">
<title>Node1</title>
<g id="a_node1"><a xlink:title="DAC Module Base Register Initialization.">
<polygon fill="#bfbfbf" stroke="black" points="0,-38.5 0,-57.5 122,-57.5 122,-38.5 0,-38.5"/>
<text text-anchor="middle" x="61" y="-45.5" font-family="Helvetica,sans-Serif" font-size="10.00">sysDacModule_Initialize</text>
</a>
</g>
</g>
<!-- Node2 -->
<g id="node2" class="node">
<title>Node2</title>
<g id="a_node2"><a xlink:href="group__lib-layer-pral-functions-public-dac_ga297f3b625d51d1dfbdea0c88ef281f63.html#ga297f3b625d51d1dfbdea0c88ef281f63" target="_top" xlink:title="Writes a user&#45;defined configuration to the DAC module base registers.">
<polygon fill="white" stroke="black" points="337,-57.5 337,-76.5 484,-76.5 484,-57.5 337,-57.5"/>
<text text-anchor="middle" x="410.5" y="-64.5" font-family="Helvetica,sans-Serif" font-size="10.00">p33c_DacModule_ConfigWrite</text>
</a>
</g>
</g>
<!-- Node1&#45;&gt;Node2 -->
<g id="edge1" class="edge">
<title>Node1&#45;&gt;Node2</title>
<path fill="none" stroke="midnightblue" d="M100.98,-57.51C118.32,-61.28 139.06,-65.14 158,-67 214.09,-72.5 277.55,-72.45 326.69,-71.05"/>
<polygon fill="midnightblue" stroke="midnightblue" points="327.07,-74.54 336.95,-70.74 326.85,-67.55 327.07,-74.54"/>
</g>
<!-- Node3 -->
<g id="node3" class="node">
<title>Node3</title>
<g id="a_node3"><a xlink:href="group__lib-layer-pral-functions-public-dac_ga69650432cc58a87cc19ac5837f1e5cf9.html#ga69650432cc58a87cc19ac5837f1e5cf9" target="_top" xlink:title="Resets all DAC Module registers to their RESET default values.">
<polygon fill="white" stroke="black" points="163.5,-38.5 163.5,-57.5 295.5,-57.5 295.5,-38.5 163.5,-38.5"/>
<text text-anchor="middle" x="229.5" y="-45.5" font-family="Helvetica,sans-Serif" font-size="10.00">p33c_DacModule_Dispose</text>
</a>
</g>
</g>
<!-- Node1&#45;&gt;Node3 -->
<g id="edge2" class="edge">
<title>Node1&#45;&gt;Node3</title>
<path fill="none" stroke="midnightblue" d="M122.11,-48C132.17,-48 142.72,-48 153.11,-48"/>
<polygon fill="midnightblue" stroke="midnightblue" points="153.41,-51.5 163.41,-48 153.41,-44.5 153.41,-51.5"/>
</g>
<!-- Node4 -->
<g id="node4" class="node">
<title>Node4</title>
<g id="a_node4"><a xlink:href="group__lib-layer-pral-functions-public-dac_ga53de75da823cd978cbe5693ae8d2204a.html#ga53de75da823cd978cbe5693ae8d2204a" target="_top" xlink:title="Gets pointer to DAC Module SFR set.">
<polygon fill="white" stroke="black" points="158,-0.5 158,-19.5 301,-19.5 301,-0.5 158,-0.5"/>
<text text-anchor="middle" x="229.5" y="-7.5" font-family="Helvetica,sans-Serif" font-size="10.00">p33c_DacModule_GetHandle</text>
</a>
</g>
</g>
<!-- Node1&#45;&gt;Node4 -->
<g id="edge4" class="edge">
<title>Node1&#45;&gt;Node4</title>
<path fill="none" stroke="midnightblue" d="M104.01,-38.41C126.18,-33.35 153.57,-27.1 177.01,-21.75"/>
<polygon fill="midnightblue" stroke="midnightblue" points="177.82,-25.16 186.79,-19.52 176.26,-18.33 177.82,-25.16"/>
</g>
<!-- Node3&#45;&gt;Node2 -->
<g id="edge3" class="edge">
<title>Node3&#45;&gt;Node2</title>
<path fill="none" stroke="midnightblue" d="M295.63,-54.91C305.78,-55.99 316.38,-57.12 326.86,-58.23"/>
<polygon fill="midnightblue" stroke="midnightblue" points="326.54,-61.71 336.85,-59.29 327.27,-54.75 326.54,-61.71"/>
</g>
</g>
</svg>
