<?xml version="1.0" encoding="UTF-8" standalone="no"?>
<!DOCTYPE svg PUBLIC "-//W3C//DTD SVG 1.1//EN"
 "http://www.w3.org/Graphics/SVG/1.1/DTD/svg11.dtd">
<!-- Generated by graphviz version 2.44.1 (20200629.0846)
 -->
<!-- Title: High&#45;Speed PWM Module Pages: 1 -->
<svg width="322pt" height="49pt"
 viewBox="0.00 0.00 322.00 49.00" xmlns="http://www.w3.org/2000/svg" xmlns:xlink="http://www.w3.org/1999/xlink">
<g id="graph0" class="graph" transform="scale(1 1) rotate(0) translate(4 45)">
<title>High&#45;Speed PWM Module</title>
<polygon fill="white" stroke="transparent" points="-4,4 -4,-45 318,-45 318,4 -4,4"/>
<!-- Node1 -->
<g id="node1" class="node">
<title>Node1</title>
<g id="a_node1"><a xlink:title="High&#45;Speed PWM Module Special Function Register Abstraction Driver.">
<polygon fill="#bfbfbf" stroke="black" points="314,-30 185,-30 185,-11 314,-11 314,-30"/>
<text text-anchor="middle" x="249.5" y="-18" font-family="Helvetica,sans-Serif" font-size="10.00">High&#45;Speed PWM Module</text>
</a>
</g>
</g>
<!-- Node2 -->
<g id="node2" class="node">
<title>Node2</title>
<g id="a_node2"><a xlink:href="group__device-abstraction-pral.html" target="_top" xlink:title=" ">
<polygon fill="white" stroke="black" points="149,-41 0,-41 0,0 149,0 149,-41"/>
<text text-anchor="start" x="8" y="-29" font-family="Helvetica,sans-Serif" font-size="10.00">Peripheral Special</text>
<text text-anchor="start" x="8" y="-18" font-family="Helvetica,sans-Serif" font-size="10.00"> Function Register Abstraction</text>
<text text-anchor="middle" x="74.5" y="-7" font-family="Helvetica,sans-Serif" font-size="10.00"> Drivers</text>
</a>
</g>
</g>
<!-- Node2&#45;&gt;Node1 -->
<g id="edge1" class="edge">
<title>Node2&#45;&gt;Node1</title>
<path fill="none" stroke="black" d="M159.19,-20.5C167.79,-20.5 176.44,-20.5 184.78,-20.5"/>
<polygon fill="black" stroke="black" points="159.12,-17 149.12,-20.5 159.12,-24 159.12,-17"/>
</g>
</g>
</svg>
