<?xml version="1.0" encoding="UTF-8" standalone="no"?>
<!DOCTYPE svg PUBLIC "-//W3C//DTD SVG 1.1//EN"
 "http://www.w3.org/Graphics/SVG/1.1/DTD/svg11.dtd">
<!-- Generated by graphviz version 2.44.1 (20200629.0846)
 -->
<!-- Title: appPowerSupply_Execute Pages: 1 -->
<svg width="485pt" height="78pt"
 viewBox="0.00 0.00 485.00 77.50" xmlns="http://www.w3.org/2000/svg" xmlns:xlink="http://www.w3.org/1999/xlink">
<g id="graph0" class="graph" transform="scale(1 1) rotate(0) translate(4 73.5)">
<title>appPowerSupply_Execute</title>
<polygon fill="white" stroke="transparent" points="-4,4 -4,-73.5 481,-73.5 481,4 -4,4"/>
<!-- Node1 -->
<g id="node1" class="node">
<title>Node1</title>
<g id="a_node1"><a xlink:title="This is the top&#45;level function call triggering the most recent state machine of all associated power ...">
<polygon fill="#bfbfbf" stroke="black" points="0,-22.5 0,-41.5 131,-41.5 131,-22.5 0,-22.5"/>
<text text-anchor="middle" x="65.5" y="-29.5" font-family="Helvetica,sans-Serif" font-size="10.00">appPowerSupply_Execute</text>
</a>
</g>
</g>
<!-- Node2 -->
<g id="node2" class="node">
<title>Node2</title>
<g id="a_node2"><a xlink:href="group__power-handler-function.html#gab80ac65aae45f7f9d9fd4ef6f8c56111" target="_top" xlink:title="Description">
<polygon fill="white" stroke="black" points="167,-39 167,-69 321,-69 321,-39 167,-39"/>
<text text-anchor="start" x="175" y="-57" font-family="Helvetica,sans-Serif" font-size="10.00">appPowerSupply_CurrentSense</text>
<text text-anchor="middle" x="244" y="-46" font-family="Helvetica,sans-Serif" font-size="10.00">Calibration</text>
</a>
</g>
</g>
<!-- Node1&#45;&gt;Node2 -->
<g id="edge1" class="edge">
<title>Node1&#45;&gt;Node2</title>
<path fill="none" stroke="midnightblue" d="M131.22,-40.07C139.56,-41.11 148.21,-42.18 156.83,-43.26"/>
<polygon fill="midnightblue" stroke="midnightblue" points="156.56,-46.75 166.92,-44.52 157.43,-39.81 156.56,-46.75"/>
</g>
<!-- Node3 -->
<g id="node3" class="node">
<title>Node3</title>
<g id="a_node3"><a xlink:href="group__power-handler-function.html#ga75498c59a10db0738113104a547d8d0d" target="_top" xlink:title="This function is the main buck converter state machine executing the most recent state.">
<polygon fill="white" stroke="black" points="175,-0.5 175,-19.5 313,-19.5 313,-0.5 175,-0.5"/>
<text text-anchor="middle" x="244" y="-7.5" font-family="Helvetica,sans-Serif" font-size="10.00">drv_BuckConverter_Execute</text>
</a>
</g>
</g>
<!-- Node1&#45;&gt;Node3 -->
<g id="edge2" class="edge">
<title>Node1&#45;&gt;Node3</title>
<path fill="none" stroke="midnightblue" d="M131.22,-23.93C142.07,-22.58 153.43,-21.17 164.57,-19.78"/>
<polygon fill="midnightblue" stroke="midnightblue" points="165.24,-23.22 174.73,-18.51 164.37,-16.27 165.24,-23.22"/>
</g>
<!-- Node4 -->
<g id="node4" class="node">
<title>Node4</title>
<g id="a_node4"><a xlink:href="group__power-handler-function.html#gad4e9d780ae858d4417887f13b1619346" target="_top" xlink:title="Description">
<polygon fill="white" stroke="black" points="357,-0.5 357,-19.5 477,-19.5 477,-0.5 357,-0.5"/>
<text text-anchor="middle" x="417" y="-7.5" font-family="Helvetica,sans-Serif" font-size="10.00">buckGPIO_GetPinState</text>
</a>
</g>
</g>
<!-- Node3&#45;&gt;Node4 -->
<g id="edge3" class="edge">
<title>Node3&#45;&gt;Node4</title>
<path fill="none" stroke="midnightblue" d="M313.08,-10C324.2,-10 335.73,-10 346.88,-10"/>
<polygon fill="midnightblue" stroke="midnightblue" points="346.99,-13.5 356.99,-10 346.99,-6.5 346.99,-13.5"/>
</g>
</g>
</svg>
