<?xml version="1.0" encoding="UTF-8" standalone="no"?>
<!DOCTYPE svg PUBLIC "-//W3C//DTD SVG 1.1//EN"
 "http://www.w3.org/Graphics/SVG/1.1/DTD/svg11.dtd">
<!-- Generated by graphviz version 2.44.1 (20200629.0846)
 -->
<!-- Title: p33c_DacModule_ConfigWrite Pages: 1 -->
<svg width="692pt" height="53pt"
 viewBox="0.00 0.00 692.00 52.50" xmlns="http://www.w3.org/2000/svg" xmlns:xlink="http://www.w3.org/1999/xlink">
<g id="graph0" class="graph" transform="scale(1 1) rotate(0) translate(4 48.5)">
<title>p33c_DacModule_ConfigWrite</title>
<polygon fill="white" stroke="transparent" points="-4,4 -4,-48.5 688,-48.5 688,4 -4,4"/>
<!-- Node1 -->
<g id="node1" class="node">
<title>Node1</title>
<g id="a_node1"><a xlink:title="Writes a user&#45;defined configuration to the DAC module base registers.">
<polygon fill="#bfbfbf" stroke="black" points="537,-6 537,-25 684,-25 684,-6 537,-6"/>
<text text-anchor="middle" x="610.5" y="-13" font-family="Helvetica,sans-Serif" font-size="10.00">p33c_DacModule_ConfigWrite</text>
</a>
</g>
</g>
<!-- Node2 -->
<g id="node2" class="node">
<title>Node2</title>
<g id="a_node2"><a xlink:href="group__dac.html#gaf0ea62728fde73f2119e47f67baf2ff0" target="_top" xlink:title="Resets all DAC Module registers to their RESET default values.">
<polygon fill="white" stroke="black" points="369,-25 369,-44 501,-44 501,-25 369,-25"/>
<text text-anchor="middle" x="435" y="-32" font-family="Helvetica,sans-Serif" font-size="10.00">p33c_DacModule_Dispose</text>
</a>
</g>
</g>
<!-- Node1&#45;&gt;Node2 -->
<g id="edge1" class="edge">
<title>Node1&#45;&gt;Node2</title>
<path fill="none" stroke="midnightblue" d="M526.83,-24.55C518.19,-25.5 509.5,-26.45 501.1,-27.37"/>
<polygon fill="midnightblue" stroke="midnightblue" points="527.37,-28.02 536.93,-23.45 526.6,-21.06 527.37,-28.02"/>
</g>
<!-- Node3 -->
<g id="node3" class="node">
<title>Node3</title>
<g id="a_node3"><a xlink:href="group__dac-initialization.html#gab420e63336f317e197b1cb8861561c3f" target="_top" xlink:title="DAC Module Base Register Initialization.">
<polygon fill="white" stroke="black" points="211,-6 211,-25 333,-25 333,-6 211,-6"/>
<text text-anchor="middle" x="272" y="-13" font-family="Helvetica,sans-Serif" font-size="10.00">sysDacModule_Initialize</text>
</a>
</g>
</g>
<!-- Node1&#45;&gt;Node3 -->
<g id="edge5" class="edge">
<title>Node1&#45;&gt;Node3</title>
<path fill="none" stroke="midnightblue" d="M526.7,-15.5C466.73,-15.5 387.06,-15.5 333.11,-15.5"/>
<polygon fill="midnightblue" stroke="midnightblue" points="526.9,-19 536.9,-15.5 526.9,-12 526.9,-19"/>
</g>
<!-- Node2&#45;&gt;Node3 -->
<g id="edge2" class="edge">
<title>Node2&#45;&gt;Node3</title>
<path fill="none" stroke="midnightblue" d="M358.88,-25.63C350.22,-24.61 341.48,-23.58 333.06,-22.59"/>
<polygon fill="midnightblue" stroke="midnightblue" points="358.64,-29.13 368.98,-26.83 359.46,-22.18 358.64,-29.13"/>
</g>
<!-- Node4 -->
<g id="node4" class="node">
<title>Node4</title>
<g id="a_node4"><a xlink:href="group__system-initialization-user-peripherals.html#ga70c5cba054e38a4e8c8285a187ff61fa" target="_top" xlink:title="Initializes the user&#45;defined chip resources.">
<polygon fill="white" stroke="black" points="74,-0.5 74,-30.5 175,-30.5 175,-0.5 74,-0.5"/>
<text text-anchor="start" x="82" y="-18.5" font-family="Helvetica,sans-Serif" font-size="10.00">sysUserPeriperhals</text>
<text text-anchor="middle" x="124.5" y="-7.5" font-family="Helvetica,sans-Serif" font-size="10.00">_Initialize</text>
</a>
</g>
</g>
<!-- Node3&#45;&gt;Node4 -->
<g id="edge3" class="edge">
<title>Node3&#45;&gt;Node4</title>
<path fill="none" stroke="midnightblue" d="M200.86,-15.5C192.19,-15.5 183.48,-15.5 175.2,-15.5"/>
<polygon fill="midnightblue" stroke="midnightblue" points="200.98,-19 210.98,-15.5 200.98,-12 200.98,-19"/>
</g>
<!-- Node5 -->
<g id="node5" class="node">
<title>Node5</title>
<g id="a_node5"><a xlink:href="group__firmware-flow.html#ga840291bc02cba5474a4cb46a9b9566fe" target="_top" xlink:title="Application main function executed after device comes out of RESET.">
<polygon fill="white" stroke="black" points="0,-6 0,-25 38,-25 38,-6 0,-6"/>
<text text-anchor="middle" x="19" y="-13" font-family="Helvetica,sans-Serif" font-size="10.00">main</text>
</a>
</g>
</g>
<!-- Node4&#45;&gt;Node5 -->
<g id="edge4" class="edge">
<title>Node4&#45;&gt;Node5</title>
<path fill="none" stroke="midnightblue" d="M63.81,-15.5C54.6,-15.5 45.74,-15.5 38.42,-15.5"/>
<polygon fill="midnightblue" stroke="midnightblue" points="63.87,-19 73.87,-15.5 63.87,-12 63.87,-19"/>
</g>
</g>
</svg>
