<?xml version="1.0" encoding="UTF-8" standalone="no"?>
<!DOCTYPE svg PUBLIC "-//W3C//DTD SVG 1.1//EN"
 "http://www.w3.org/Graphics/SVG/1.1/DTD/svg11.dtd">
<!-- Generated by graphviz version 2.44.1 (20200629.0846)
 -->
<!-- Title: sysUserTasks_Initialize Pages: 1 -->
<!--zoomable 406 -->
<svg id="main" version="1.1" xmlns="http://www.w3.org/2000/svg" xmlns:xlink="http://www.w3.org/1999/xlink" xml:space="preserve" onload="init(evt)">
<style type="text/css"><![CDATA[
.edge:hover path { stroke: red; }
.edge:hover polygon { stroke: red; fill: red; }
]]></style>
<script type="text/javascript"><![CDATA[
var edges = document.getElementsByTagName('g');
if (edges && edges.length) {
  for (var i=0;i<edges.length;i++) {
    if (edges[i].id.substr(0,4)=='edge') {
      edges[i].setAttribute('class','edge');
    }
  }
}
]]></script>
        <defs>
                <circle id="rim" cx="0" cy="0" r="7"/>
                <circle id="rim2" cx="0" cy="0" r="3.5"/>
                <g id="zoomPlus">
                        <use xlink:href="#rim" fill="#404040">
                                <set attributeName="fill" to="#808080" begin="zoomplus.mouseover" end="zoomplus.mouseout"/>
                        </use>
                        <path d="M-4,0h8M0,-4v8" fill="none" stroke="white" stroke-width="1.5" pointer-events="none"/>
                </g>
                <g id="zoomMin">
                        <use xlink:href="#rim" fill="#404040">
                                <set attributeName="fill" to="#808080" begin="zoomminus.mouseover" end="zoomminus.mouseout"/>
                        </use>
                        <path d="M-4,0h8" fill="none" stroke="white" stroke-width="1.5" pointer-events="none"/>
                </g>
                <g id="dirArrow">
                        <path fill="none" stroke="white" stroke-width="1.5" d="M0,-3.0v7 M-2.5,-0.5L0,-3.0L2.5,-0.5"/>
                </g>
               <g id="resetDef">
                       <use xlink:href="#rim2" fill="#404040">
                               <set attributeName="fill" to="#808080" begin="reset.mouseover" end="reset.mouseout"/>
                       </use>
               </g>
        </defs>

<script type="text/javascript">
var viewWidth = 1366;
var viewHeight = 406;
var sectionId = 'dynsection-0';
</script>
<script xlink:href="svgpan.js"/>
<svg id="graph" class="graph">
<g id="viewport">
<title>sysUserTasks_Initialize</title>
<polygon fill="white" stroke="transparent" points="-4,4 -4,-402 1362,-402 1362,4 -4,4"/>
<!-- Node1 -->
<g id="node1" class="node">
<title>Node1</title>
<g id="a_node1"><a xlink:title="Initializes the user&#45;defined tasks.">
<polygon fill="#bfbfbf" stroke="black" points="0,-245.5 0,-264.5 119,-264.5 119,-245.5 0,-245.5"/>
<text text-anchor="middle" x="59.5" y="-252.5" font-family="Helvetica,sans-Serif" font-size="10.00">sysUserTasks_Initialize</text>
</a>
</g>
</g>
<!-- Node2 -->
<g id="node2" class="node">
<title>Node2</title>
<g id="a_node2"><a xlink:href="group__app-layer-fault-handler-functions-public_ga0f8fb0fadf90485a834e15ecdd93216e.html#ga0f8fb0fadf90485a834e15ecdd93216e" target="_top" xlink:title="Initialization of user&#45;defined fault objects.">
<polygon fill="white" stroke="black" points="155,-302.5 155,-321.5 282,-321.5 282,-302.5 155,-302.5"/>
<text text-anchor="middle" x="218.5" y="-309.5" font-family="Helvetica,sans-Serif" font-size="10.00">appFaultMonitor_Initialize</text>
</a>
</g>
</g>
<!-- Node1&#45;&gt;Node2 -->
<g id="edge1" class="edge">
<title>Node1&#45;&gt;Node2</title>
<path fill="none" stroke="midnightblue" d="M86.78,-264.54C112.7,-273.95 152.53,-288.41 181.42,-298.9"/>
<polygon fill="midnightblue" stroke="midnightblue" points="180.54,-302.31 191.14,-302.43 182.93,-295.73 180.54,-302.31"/>
</g>
<!-- Node12 -->
<g id="node12" class="node">
<title>Node12</title>
<g id="a_node12"><a xlink:href="group__app-layer-power-control-functions-public_ga7a4cf6371d09457539f96a74b2809ca0.html#ga7a4cf6371d09457539f96a74b2809ca0" target="_top" xlink:title="Calls the application layer power controller initialization.">
<polygon fill="white" stroke="black" points="318,-226.5 318,-245.5 448,-245.5 448,-226.5 318,-226.5"/>
<text text-anchor="middle" x="383" y="-233.5" font-family="Helvetica,sans-Serif" font-size="10.00">appPowerSupply_Initialize</text>
</a>
</g>
</g>
<!-- Node1&#45;&gt;Node12 -->
<g id="edge14" class="edge">
<title>Node1&#45;&gt;Node12</title>
<path fill="none" stroke="midnightblue" d="M119.09,-251.54C172.06,-248.41 250.29,-243.78 307.65,-240.39"/>
<polygon fill="midnightblue" stroke="midnightblue" points="307.96,-243.88 317.74,-239.8 307.55,-236.89 307.96,-243.88"/>
</g>
<!-- Node35 -->
<g id="node35" class="node">
<title>Node35</title>
<g id="a_node35"><a xlink:href="group__os-timer-initialization_ga8e89a1a4ee5bf8c794bd29163b92bf49.html#ga8e89a1a4ee5bf8c794bd29163b92bf49" target="_top" xlink:title="Initializes the timer used as timebase for the task scheduler.">
<polygon fill="white" stroke="black" points="163.5,-207.5 163.5,-226.5 273.5,-226.5 273.5,-207.5 163.5,-207.5"/>
<text text-anchor="middle" x="218.5" y="-214.5" font-family="Helvetica,sans-Serif" font-size="10.00">sysOsTimer_Initialize</text>
</a>
</g>
</g>
<!-- Node1&#45;&gt;Node35 -->
<g id="edge41" class="edge">
<title>Node1&#45;&gt;Node35</title>
<path fill="none" stroke="midnightblue" d="M100.12,-245.41C120.84,-240.4 146.39,-234.21 168.36,-228.89"/>
<polygon fill="midnightblue" stroke="midnightblue" points="169.27,-232.27 178.17,-226.52 167.62,-225.47 169.27,-232.27"/>
</g>
<!-- Node3 -->
<g id="node3" class="node">
<title>Node3</title>
<g id="a_node3"><a xlink:href="group__app-layer-fault-monitor-functions-private_gac53e3bdc6df0dbea20258fc53991185f.html#gac53e3bdc6df0dbea20258fc53991185f" target="_top" xlink:title="Initializes the user&#45;defined fault objects for overcurrent protection.">
<polygon fill="white" stroke="black" points="335.5,-264.5 335.5,-283.5 430.5,-283.5 430.5,-264.5 335.5,-264.5"/>
<text text-anchor="middle" x="383" y="-271.5" font-family="Helvetica,sans-Serif" font-size="10.00">ocp_FaultInitialize</text>
</a>
</g>
</g>
<!-- Node2&#45;&gt;Node3 -->
<g id="edge2" class="edge">
<title>Node2&#45;&gt;Node3</title>
<path fill="none" stroke="midnightblue" d="M260.51,-302.41C282.05,-297.37 308.63,-291.16 331.44,-285.82"/>
<polygon fill="midnightblue" stroke="midnightblue" points="332.35,-289.21 341.29,-283.52 330.75,-282.39 332.35,-289.21"/>
</g>
<!-- Node9 -->
<g id="node9" class="node">
<title>Node9</title>
<g id="a_node9"><a xlink:href="group__app-layer-fault-monitor-functions-private_ga1c1a8e73e88a0fc1b9fd6ebc6cf16524.html#ga1c1a8e73e88a0fc1b9fd6ebc6cf16524" target="_top" xlink:title="Initializes the user&#45;defined fault objects for overvoltage lockout.">
<polygon fill="white" stroke="black" points="335.5,-378.5 335.5,-397.5 430.5,-397.5 430.5,-378.5 335.5,-378.5"/>
<text text-anchor="middle" x="383" y="-385.5" font-family="Helvetica,sans-Serif" font-size="10.00">ovlo_FaultInitialize</text>
</a>
</g>
</g>
<!-- Node2&#45;&gt;Node9 -->
<g id="edge8" class="edge">
<title>Node2&#45;&gt;Node9</title>
<path fill="none" stroke="midnightblue" d="M233.63,-321.61C252.27,-333.96 286.42,-355.4 318,-369 323.32,-371.29 329,-373.41 334.7,-375.34"/>
<polygon fill="midnightblue" stroke="midnightblue" points="333.66,-378.68 344.25,-378.4 335.79,-372.02 333.66,-378.68"/>
</g>
<!-- Node10 -->
<g id="node10" class="node">
<title>Node10</title>
<g id="a_node10"><a xlink:href="group__app-layer-fault-monitor-functions-private_ga30112272eb63176a17614933e950688b.html#ga30112272eb63176a17614933e950688b" target="_top" xlink:title="Initializes the user&#45;defined fault objects for regulation error.">
<polygon fill="white" stroke="black" points="331,-340.5 331,-359.5 435,-359.5 435,-340.5 331,-340.5"/>
<text text-anchor="middle" x="383" y="-347.5" font-family="Helvetica,sans-Serif" font-size="10.00">regerr_FaultInitialize</text>
</a>
</g>
</g>
<!-- Node2&#45;&gt;Node10 -->
<g id="edge10" class="edge">
<title>Node2&#45;&gt;Node10</title>
<path fill="none" stroke="midnightblue" d="M260.51,-321.59C282.05,-326.63 308.63,-332.84 331.44,-338.18"/>
<polygon fill="midnightblue" stroke="midnightblue" points="330.75,-341.61 341.29,-340.48 332.35,-334.79 330.75,-341.61"/>
</g>
<!-- Node11 -->
<g id="node11" class="node">
<title>Node11</title>
<g id="a_node11"><a xlink:href="group__app-layer-fault-monitor-functions-private_gab1c6de31b4c981fb3afdb301a00f6e96.html#gab1c6de31b4c981fb3afdb301a00f6e96" target="_top" xlink:title="Initializes the user&#45;defined fault objects for under&#45;voltage lockout.">
<polygon fill="white" stroke="black" points="335.5,-302.5 335.5,-321.5 430.5,-321.5 430.5,-302.5 335.5,-302.5"/>
<text text-anchor="middle" x="383" y="-309.5" font-family="Helvetica,sans-Serif" font-size="10.00">uvlo_FaultInitialize</text>
</a>
</g>
</g>
<!-- Node2&#45;&gt;Node11 -->
<g id="edge12" class="edge">
<title>Node2&#45;&gt;Node11</title>
<path fill="none" stroke="midnightblue" d="M282.33,-312C296.42,-312 311.29,-312 325.12,-312"/>
<polygon fill="midnightblue" stroke="midnightblue" points="325.47,-315.5 335.47,-312 325.47,-308.5 325.47,-315.5"/>
</g>
<!-- Node4 -->
<g id="node4" class="node">
<title>Node4</title>
<g id="a_node4"><a xlink:href="group__app-layer-power-control-functions-public_gafa4e90d260e60cf20f06acee067c39cd.html#gafa4e90d260e60cf20f06acee067c39cd" target="_top" xlink:title="This function stops the power supply operation.">
<polygon fill="white" stroke="black" points="489,-330.5 489,-349.5 622,-349.5 622,-330.5 489,-330.5"/>
<text text-anchor="middle" x="555.5" y="-337.5" font-family="Helvetica,sans-Serif" font-size="10.00">appPowerSupply_Suspend</text>
</a>
</g>
</g>
<!-- Node3&#45;&gt;Node4 -->
<g id="edge3" class="edge">
<title>Node3&#45;&gt;Node4</title>
<path fill="none" stroke="midnightblue" d="M424.11,-283.52C432.22,-286.11 440.54,-289.25 448,-293 465.87,-301.99 466.08,-311.12 484,-320 489.61,-322.78 495.67,-325.23 501.8,-327.37"/>
<polygon fill="midnightblue" stroke="midnightblue" points="500.84,-330.74 511.43,-330.5 503,-324.08 500.84,-330.74"/>
</g>
<!-- Node5 -->
<g id="node5" class="node">
<title>Node5</title>
<g id="a_node5"><a xlink:href="group__lib-layer-buck-converter-functions-public_ga3287d86e7c3eecaa97d4bdf590ed0a15.html#ga3287d86e7c3eecaa97d4bdf590ed0a15" target="_top" xlink:title="This function suspends the operation of the buck converter.">
<polygon fill="white" stroke="black" points="663,-326.5 663,-345.5 803,-345.5 803,-326.5 663,-326.5"/>
<text text-anchor="middle" x="733" y="-333.5" font-family="Helvetica,sans-Serif" font-size="10.00">drv_BuckConverter_Suspend</text>
</a>
</g>
</g>
<!-- Node4&#45;&gt;Node5 -->
<g id="edge4" class="edge">
<title>Node4&#45;&gt;Node5</title>
<path fill="none" stroke="midnightblue" d="M622.35,-338.5C632.27,-338.27 642.59,-338.04 652.76,-337.81"/>
<polygon fill="midnightblue" stroke="midnightblue" points="652.93,-341.3 662.85,-337.58 652.77,-334.3 652.93,-341.3"/>
</g>
<!-- Node6 -->
<g id="node6" class="node">
<title>Node6</title>
<g id="a_node6"><a xlink:href="group__lib-layer-buck-converter-functions-public_ga75498c59a10db0738113104a547d8d0d.html#ga75498c59a10db0738113104a547d8d0d" target="_top" xlink:title="This function is the main buck converter state machine executing the most recent state.">
<polygon fill="white" stroke="black" points="839,-324.5 839,-343.5 977,-343.5 977,-324.5 839,-324.5"/>
<text text-anchor="middle" x="908" y="-331.5" font-family="Helvetica,sans-Serif" font-size="10.00">drv_BuckConverter_Execute</text>
</a>
</g>
</g>
<!-- Node5&#45;&gt;Node6 -->
<g id="edge5" class="edge">
<title>Node5&#45;&gt;Node6</title>
<path fill="none" stroke="midnightblue" d="M803.37,-335.2C811.66,-335.1 820.16,-335 828.56,-334.91"/>
<polygon fill="midnightblue" stroke="midnightblue" points="828.78,-338.4 838.74,-334.79 828.7,-331.41 828.78,-338.4"/>
</g>
<!-- Node7 -->
<g id="node7" class="node">
<title>Node7</title>
<g id="a_node7"><a xlink:href="group__lib-layer-buck-config-functions-public_ga8e2253c136f05033e774d09032b283a1.html#ga8e2253c136f05033e774d09032b283a1" target="_top" xlink:title="This function gets the state of the selected pin.">
<polygon fill="white" stroke="black" points="1032,-301.5 1032,-320.5 1152,-320.5 1152,-301.5 1032,-301.5"/>
<text text-anchor="middle" x="1092" y="-308.5" font-family="Helvetica,sans-Serif" font-size="10.00">buckGPIO_GetPinState</text>
</a>
</g>
</g>
<!-- Node6&#45;&gt;Node7 -->
<g id="edge6" class="edge">
<title>Node6&#45;&gt;Node7</title>
<path fill="none" stroke="midnightblue" d="M977.03,-325.4C991.63,-323.56 1007.08,-321.61 1021.73,-319.75"/>
<polygon fill="midnightblue" stroke="midnightblue" points="1022.24,-323.22 1031.72,-318.49 1021.36,-316.27 1022.24,-323.22"/>
</g>
<!-- Node8 -->
<g id="node8" class="node">
<title>Node8</title>
<g id="a_node8"><a xlink:href="group__lib-layer-pral-functions-public-gpio_ga4d67af688d8f7f911d79107974e11e6b.html#ga4d67af688d8f7f911d79107974e11e6b" target="_top" xlink:title="Gets pointer to GPIO Instance SFR set.">
<polygon fill="white" stroke="black" points="1207,-95.5 1207,-114.5 1358,-114.5 1358,-95.5 1207,-95.5"/>
<text text-anchor="middle" x="1282.5" y="-102.5" font-family="Helvetica,sans-Serif" font-size="10.00">p33c_GpioInstance_GetHandle</text>
</a>
</g>
</g>
<!-- Node7&#45;&gt;Node8 -->
<g id="edge7" class="edge">
<title>Node7&#45;&gt;Node8</title>
<path fill="none" stroke="midnightblue" d="M1117.77,-301.38C1134.14,-294.18 1155.38,-283.14 1171,-269 1218.99,-225.54 1256.24,-157.11 1272.53,-124.08"/>
<polygon fill="midnightblue" stroke="midnightblue" points="1275.88,-125.21 1277.07,-114.68 1269.57,-122.17 1275.88,-125.21"/>
</g>
<!-- Node9&#45;&gt;Node4 -->
<g id="edge9" class="edge">
<title>Node9&#45;&gt;Node4</title>
<path fill="none" stroke="midnightblue" d="M418.09,-378.4C444.69,-370.91 481.84,-360.46 510.65,-352.34"/>
<polygon fill="midnightblue" stroke="midnightblue" points="511.79,-355.66 520.47,-349.58 509.89,-348.92 511.79,-355.66"/>
</g>
<!-- Node10&#45;&gt;Node4 -->
<g id="edge11" class="edge">
<title>Node10&#45;&gt;Node4</title>
<path fill="none" stroke="midnightblue" d="M435.16,-347C448.86,-346.2 463.98,-345.31 478.71,-344.44"/>
<polygon fill="midnightblue" stroke="midnightblue" points="479.05,-347.93 488.83,-343.85 478.64,-340.94 479.05,-347.93"/>
</g>
<!-- Node11&#45;&gt;Node4 -->
<g id="edge13" class="edge">
<title>Node11&#45;&gt;Node4</title>
<path fill="none" stroke="midnightblue" d="M430.59,-319.65C447.81,-322.48 467.69,-325.74 486.42,-328.82"/>
<polygon fill="midnightblue" stroke="midnightblue" points="485.95,-332.29 496.39,-330.46 487.09,-325.38 485.95,-332.29"/>
</g>
<!-- Node13 -->
<g id="node13" class="node">
<title>Node13</title>
<g id="a_node13"><a xlink:href="group__app-layer-power-control-functions-private_ga0b4cabdb02c8c9ea94ea1dfa39de3764.html#ga0b4cabdb02c8c9ea94ea1dfa39de3764" target="_top" xlink:title="This function initializes the control system feedback loop objects.">
<polygon fill="white" stroke="black" points="487.5,-281 487.5,-311 623.5,-311 623.5,-281 487.5,-281"/>
<text text-anchor="start" x="495.5" y="-299" font-family="Helvetica,sans-Serif" font-size="10.00">appPowerSupply_Controller</text>
<text text-anchor="middle" x="555.5" y="-288" font-family="Helvetica,sans-Serif" font-size="10.00">Initialize</text>
</a>
</g>
</g>
<!-- Node12&#45;&gt;Node13 -->
<g id="edge15" class="edge">
<title>Node12&#45;&gt;Node13</title>
<path fill="none" stroke="midnightblue" d="M419.15,-245.54C428.6,-248.35 438.76,-251.59 448,-255 464.43,-261.06 467.74,-264.51 484,-271 489.41,-273.16 495.09,-275.33 500.77,-277.44"/>
<polygon fill="midnightblue" stroke="midnightblue" points="499.71,-280.77 510.3,-280.92 502.11,-274.2 499.71,-280.77"/>
</g>
<!-- Node14 -->
<g id="node14" class="node">
<title>Node14</title>
<g id="a_node14"><a xlink:href="group__app-layer-power-control-functions-private_gad0f6ff4894bf23722884c60bbcdcacd0.html#gad0f6ff4894bf23722884c60bbcdcacd0" target="_top" xlink:title="This function initializes the buck converter device driver instance.">
<polygon fill="white" stroke="black" points="488,-232 488,-262 623,-262 623,-232 488,-232"/>
<text text-anchor="start" x="496" y="-250" font-family="Helvetica,sans-Serif" font-size="10.00">appPowerSupply_Converter</text>
<text text-anchor="middle" x="555.5" y="-239" font-family="Helvetica,sans-Serif" font-size="10.00">ObjectInitialize</text>
</a>
</g>
</g>
<!-- Node12&#45;&gt;Node14 -->
<g id="edge16" class="edge">
<title>Node12&#45;&gt;Node14</title>
<path fill="none" stroke="midnightblue" d="M448.46,-240.16C458.05,-240.78 468.01,-241.42 477.82,-242.05"/>
<polygon fill="midnightblue" stroke="midnightblue" points="477.76,-245.56 487.96,-242.71 478.21,-238.57 477.76,-245.56"/>
</g>
<!-- Node15 -->
<g id="node15" class="node">
<title>Node15</title>
<g id="a_node15"><a xlink:href="group__app-layer-power-control-functions-private_ga0b26acfec74d1804384b4ba1a3cffab4.html#ga0b26acfec74d1804384b4ba1a3cffab4" target="_top" xlink:title="This function is used to load peripheral configuration templates from the power controller device dri...">
<polygon fill="white" stroke="black" points="484,-144 484,-174 627,-174 627,-144 484,-144"/>
<text text-anchor="start" x="492" y="-162" font-family="Helvetica,sans-Serif" font-size="10.00">appPowerSupply_Peripherals</text>
<text text-anchor="middle" x="555.5" y="-151" font-family="Helvetica,sans-Serif" font-size="10.00">Initialize</text>
</a>
</g>
</g>
<!-- Node12&#45;&gt;Node15 -->
<g id="edge17" class="edge">
<title>Node12&#45;&gt;Node15</title>
<path fill="none" stroke="midnightblue" d="M400.64,-226.44C420.21,-215.41 453.85,-197.11 484,-184 488.99,-181.83 494.23,-179.7 499.51,-177.66"/>
<polygon fill="midnightblue" stroke="midnightblue" points="500.88,-180.88 509.01,-174.09 498.41,-174.33 500.88,-180.88"/>
</g>
<!-- Node31 -->
<g id="node31" class="node">
<title>Node31</title>
<g id="a_node31"><a xlink:href="group__app-layer-power-control-functions-public_ga9210070749c2ed49abd8a30b27f64151.html#ga9210070749c2ed49abd8a30b27f64151" target="_top" xlink:title="This function calls the buck converter device driver function starting the power supply.">
<polygon fill="white" stroke="black" points="497.5,-193.5 497.5,-212.5 613.5,-212.5 613.5,-193.5 497.5,-193.5"/>
<text text-anchor="middle" x="555.5" y="-200.5" font-family="Helvetica,sans-Serif" font-size="10.00">appPowerSupply_Start</text>
</a>
</g>
</g>
<!-- Node12&#45;&gt;Node31 -->
<g id="edge36" class="edge">
<title>Node12&#45;&gt;Node31</title>
<path fill="none" stroke="midnightblue" d="M433.32,-226.46C452.67,-222.71 475.04,-218.38 495.26,-214.47"/>
<polygon fill="midnightblue" stroke="midnightblue" points="496.14,-217.86 505.3,-212.52 494.81,-210.99 496.14,-217.86"/>
</g>
<!-- Node16 -->
<g id="node16" class="node">
<title>Node16</title>
<g id="a_node16"><a xlink:href="group__lib-layer-buck-converter-functions-public_ga97eb8bdd17b9c2e169f0634ebabb5d19.html#ga97eb8bdd17b9c2e169f0634ebabb5d19" target="_top" xlink:title="This function initializes all peripheral modules and their instances used by the power controller.">
<polygon fill="white" stroke="black" points="664.5,-76.5 664.5,-95.5 801.5,-95.5 801.5,-76.5 664.5,-76.5"/>
<text text-anchor="middle" x="733" y="-83.5" font-family="Helvetica,sans-Serif" font-size="10.00">drv_BuckConverter_Initialize</text>
</a>
</g>
</g>
<!-- Node15&#45;&gt;Node16 -->
<g id="edge18" class="edge">
<title>Node15&#45;&gt;Node16</title>
<path fill="none" stroke="midnightblue" d="M582.52,-143.95C603.68,-132.16 634.58,-115.99 663,-105 669.23,-102.59 675.88,-100.36 682.51,-98.33"/>
<polygon fill="midnightblue" stroke="midnightblue" points="683.53,-101.68 692.15,-95.51 681.57,-94.96 683.53,-101.68"/>
</g>
<!-- Node28 -->
<g id="node28" class="node">
<title>Node28</title>
<g id="a_node28"><a xlink:href="group__lib-layer-pral-functions-public-pps_gaa09c4349fd01cc9b6b01d435bd022b56.html#gaa09c4349fd01cc9b6b01d435bd022b56" target="_top" xlink:title="Locks the Peripheral Pin Select Configuration registers against accidental changes.">
<polygon fill="white" stroke="black" points="696.5,-152.5 696.5,-171.5 769.5,-171.5 769.5,-152.5 696.5,-152.5"/>
<text text-anchor="middle" x="733" y="-159.5" font-family="Helvetica,sans-Serif" font-size="10.00">PPS_LockIO</text>
</a>
</g>
</g>
<!-- Node15&#45;&gt;Node28 -->
<g id="edge33" class="edge">
<title>Node15&#45;&gt;Node28</title>
<path fill="none" stroke="midnightblue" d="M627.12,-160.21C647.03,-160.55 668.16,-160.91 686.19,-161.22"/>
<polygon fill="midnightblue" stroke="midnightblue" points="686.37,-164.72 696.42,-161.39 686.49,-157.72 686.37,-164.72"/>
</g>
<!-- Node29 -->
<g id="node29" class="node">
<title>Node29</title>
<g id="a_node29"><a xlink:href="group__lib-layer-pral-functions-public-pps_ga592e485a9574eeebc2e1dc6993de1f55.html#ga592e485a9574eeebc2e1dc6993de1f55" target="_top" xlink:title="Assigns a digital function output to a pin.">
<polygon fill="white" stroke="black" points="682,-114.5 682,-133.5 784,-133.5 784,-114.5 682,-114.5"/>
<text text-anchor="middle" x="733" y="-121.5" font-family="Helvetica,sans-Serif" font-size="10.00">PPS_RemapOutput</text>
</a>
</g>
</g>
<!-- Node15&#45;&gt;Node29 -->
<g id="edge34" class="edge">
<title>Node15&#45;&gt;Node29</title>
<path fill="none" stroke="midnightblue" d="M627.12,-144.92C642.68,-141.81 658.98,-138.56 673.97,-135.57"/>
<polygon fill="midnightblue" stroke="midnightblue" points="674.99,-138.94 684.11,-133.55 673.62,-132.07 674.99,-138.94"/>
</g>
<!-- Node30 -->
<g id="node30" class="node">
<title>Node30</title>
<g id="a_node30"><a xlink:href="group__lib-layer-pral-functions-public-pps_ga64624ae359fb9dd170bb9a3f85dd81f2.html#ga64624ae359fb9dd170bb9a3f85dd81f2" target="_top" xlink:title="Unlocks the Peripheral Pin Select Configuration registers to enable changes.">
<polygon fill="white" stroke="black" points="692,-190.5 692,-209.5 774,-209.5 774,-190.5 692,-190.5"/>
<text text-anchor="middle" x="733" y="-197.5" font-family="Helvetica,sans-Serif" font-size="10.00">PPS_UnlockIO</text>
</a>
</g>
</g>
<!-- Node15&#45;&gt;Node30 -->
<g id="edge35" class="edge">
<title>Node15&#45;&gt;Node30</title>
<path fill="none" stroke="midnightblue" d="M620.85,-174.03C641,-178.74 662.93,-183.86 681.94,-188.31"/>
<polygon fill="midnightblue" stroke="midnightblue" points="681.35,-191.76 691.88,-190.63 682.94,-184.94 681.35,-191.76"/>
</g>
<!-- Node17 -->
<g id="node17" class="node">
<title>Node17</title>
<g id="a_node17"><a xlink:href="group__lib-layer-buck-config-functions-public_gac2bfd6c3ccd9ec11b8e91322ea9354d2.html#gac2bfd6c3ccd9ec11b8e91322ea9354d2" target="_top" xlink:title="This function initializes the settings for the ADC channel.">
<polygon fill="white" stroke="black" points="841,-114.5 841,-133.5 975,-133.5 975,-114.5 841,-114.5"/>
<text text-anchor="middle" x="908" y="-121.5" font-family="Helvetica,sans-Serif" font-size="10.00">buckADC_ChannelInitialize</text>
</a>
</g>
</g>
<!-- Node16&#45;&gt;Node17 -->
<g id="edge19" class="edge">
<title>Node16&#45;&gt;Node17</title>
<path fill="none" stroke="midnightblue" d="M777.66,-95.59C800.79,-100.67 829.4,-106.96 853.83,-112.32"/>
<polygon fill="midnightblue" stroke="midnightblue" points="853.14,-115.75 863.66,-114.48 854.64,-108.92 853.14,-115.75"/>
</g>
<!-- Node18 -->
<g id="node18" class="node">
<title>Node18</title>
<g id="a_node18"><a xlink:href="group__lib-layer-buck-config-functions-public_ga44f537d9ad5dcb0e744480802cfbf170.html#ga44f537d9ad5dcb0e744480802cfbf170" target="_top" xlink:title="This fucntion initializes the buck by resetting all its registers to default.">
<polygon fill="white" stroke="black" points="843,-0.5 843,-19.5 973,-19.5 973,-0.5 843,-0.5"/>
<text text-anchor="middle" x="908" y="-7.5" font-family="Helvetica,sans-Serif" font-size="10.00">buckADC_ModuleInitialize</text>
</a>
</g>
</g>
<!-- Node16&#45;&gt;Node18 -->
<g id="edge20" class="edge">
<title>Node16&#45;&gt;Node18</title>
<path fill="none" stroke="midnightblue" d="M749.12,-76.37C769.06,-64.01 805.55,-42.55 839,-29 844.82,-26.64 851.02,-24.47 857.24,-22.5"/>
<polygon fill="midnightblue" stroke="midnightblue" points="858.38,-25.81 866.94,-19.58 856.36,-19.11 858.38,-25.81"/>
</g>
<!-- Node19 -->
<g id="node19" class="node">
<title>Node19</title>
<g id="a_node19"><a xlink:href="group__lib-layer-buck-config-functions-public_ga91d7498ed6191a32a87353d999c56589.html#ga91d7498ed6191a32a87353d999c56589" target="_top" xlink:title="This function initializes the buck input pins.">
<polygon fill="white" stroke="black" points="857,-38.5 857,-57.5 959,-57.5 959,-38.5 857,-38.5"/>
<text text-anchor="middle" x="908" y="-45.5" font-family="Helvetica,sans-Serif" font-size="10.00">buckGPIO_Initialize</text>
</a>
</g>
</g>
<!-- Node16&#45;&gt;Node19 -->
<g id="edge21" class="edge">
<title>Node16&#45;&gt;Node19</title>
<path fill="none" stroke="midnightblue" d="M777.66,-76.41C800.79,-71.33 829.4,-65.04 853.83,-59.68"/>
<polygon fill="midnightblue" stroke="midnightblue" points="854.64,-63.08 863.66,-57.52 853.14,-56.25 854.64,-63.08"/>
</g>
<!-- Node22 -->
<g id="node22" class="node">
<title>Node22</title>
<g id="a_node22"><a xlink:href="group__lib-layer-buck-config-functions-public_ga6db1f45d724b91db22ed0d17b868a8f9.html#ga6db1f45d724b91db22ed0d17b868a8f9" target="_top" xlink:title="This function initializes the output pins for the PWM output and the default buck PWM settings.">
<polygon fill="white" stroke="black" points="839,-171.5 839,-190.5 977,-190.5 977,-171.5 839,-171.5"/>
<text text-anchor="middle" x="908" y="-178.5" font-family="Helvetica,sans-Serif" font-size="10.00">buckPWM_ChannelInitialize</text>
</a>
</g>
</g>
<!-- Node16&#45;&gt;Node22 -->
<g id="edge26" class="edge">
<title>Node16&#45;&gt;Node22</title>
<path fill="none" stroke="midnightblue" d="M782.17,-95.61C789.42,-98.08 796.61,-101.16 803,-105 822.95,-116.97 820.64,-128.72 839,-143 850.65,-152.06 864.74,-160.31 877.05,-166.78"/>
<polygon fill="midnightblue" stroke="midnightblue" points="875.56,-169.95 886.06,-171.37 878.74,-163.71 875.56,-169.95"/>
</g>
<!-- Node25 -->
<g id="node25" class="node">
<title>Node25</title>
<g id="a_node25"><a xlink:href="group__lib-layer-buck-config-functions-public_gab075da4956344ef5784a55311dccf5ef.html#gab075da4956344ef5784a55311dccf5ef" target="_top" xlink:title="Initializes the buck PWM module by resetting its registers to default.">
<polygon fill="white" stroke="black" points="841,-76.5 841,-95.5 975,-95.5 975,-76.5 841,-76.5"/>
<text text-anchor="middle" x="908" y="-83.5" font-family="Helvetica,sans-Serif" font-size="10.00">buckPWM_ModuleInitialize</text>
</a>
</g>
</g>
<!-- Node16&#45;&gt;Node25 -->
<g id="edge30" class="edge">
<title>Node16&#45;&gt;Node25</title>
<path fill="none" stroke="midnightblue" d="M801.88,-86C811.26,-86 820.95,-86 830.48,-86"/>
<polygon fill="midnightblue" stroke="midnightblue" points="830.73,-89.5 840.73,-86 830.73,-82.5 830.73,-89.5"/>
</g>
<!-- Node20 -->
<g id="node20" class="node">
<title>Node20</title>
<g id="a_node20"><a xlink:href="group__lib-layer-buck-config-functions-public_ga7f1d554e08d756b8677b572216908a3a.html#ga7f1d554e08d756b8677b572216908a3a" target="_top" xlink:title="This function clears the selected general purpose input/output pin.">
<polygon fill="white" stroke="black" points="1047.5,-38.5 1047.5,-57.5 1136.5,-57.5 1136.5,-38.5 1047.5,-38.5"/>
<text text-anchor="middle" x="1092" y="-45.5" font-family="Helvetica,sans-Serif" font-size="10.00">buckGPIO_Clear</text>
</a>
</g>
</g>
<!-- Node19&#45;&gt;Node20 -->
<g id="edge22" class="edge">
<title>Node19&#45;&gt;Node20</title>
<path fill="none" stroke="midnightblue" d="M959.21,-48C983.43,-48 1012.5,-48 1037.17,-48"/>
<polygon fill="midnightblue" stroke="midnightblue" points="1037.44,-51.5 1047.44,-48 1037.44,-44.5 1037.44,-51.5"/>
</g>
<!-- Node21 -->
<g id="node21" class="node">
<title>Node21</title>
<g id="a_node21"><a xlink:href="group__lib-layer-buck-config-functions-private_ga3d3f91c0e40884874e7df3a67fff23f3.html#ga3d3f91c0e40884874e7df3a67fff23f3" target="_top" xlink:title="This function sets the pin as input or output.">
<polygon fill="white" stroke="black" points="1026.5,-0.5 1026.5,-19.5 1157.5,-19.5 1157.5,-0.5 1026.5,-0.5"/>
<text text-anchor="middle" x="1092" y="-7.5" font-family="Helvetica,sans-Serif" font-size="10.00">buckGPIO_PrivateInitialize</text>
</a>
</g>
</g>
<!-- Node19&#45;&gt;Node21 -->
<g id="edge24" class="edge">
<title>Node19&#45;&gt;Node21</title>
<path fill="none" stroke="midnightblue" d="M954.93,-38.41C979.38,-33.31 1009.63,-26.99 1035.4,-21.61"/>
<polygon fill="midnightblue" stroke="midnightblue" points="1036.33,-24.99 1045.4,-19.52 1034.9,-18.14 1036.33,-24.99"/>
</g>
<!-- Node20&#45;&gt;Node8 -->
<g id="edge23" class="edge">
<title>Node20&#45;&gt;Node8</title>
<path fill="none" stroke="midnightblue" d="M1135.29,-57.55C1146.92,-60.38 1159.5,-63.63 1171,-67 1196.49,-74.47 1224.82,-84.24 1246.41,-92"/>
<polygon fill="midnightblue" stroke="midnightblue" points="1245.22,-95.3 1255.82,-95.41 1247.61,-88.72 1245.22,-95.3"/>
</g>
<!-- Node21&#45;&gt;Node8 -->
<g id="edge25" class="edge">
<title>Node21&#45;&gt;Node8</title>
<path fill="none" stroke="midnightblue" d="M1143.83,-19.54C1153.07,-22.07 1162.48,-25.19 1171,-29 1205.93,-44.63 1241.56,-71.52 1262.59,-88.76"/>
<polygon fill="midnightblue" stroke="midnightblue" points="1260.49,-91.57 1270.41,-95.29 1264.97,-86.19 1260.49,-91.57"/>
</g>
<!-- Node22&#45;&gt;Node8 -->
<g id="edge27" class="edge">
<title>Node22&#45;&gt;Node8</title>
<path fill="none" stroke="midnightblue" d="M977.25,-174.64C1030.52,-168.83 1106.12,-158.72 1171,-143 1197.5,-136.58 1226.64,-126.43 1248.33,-118.23"/>
<polygon fill="midnightblue" stroke="midnightblue" points="1249.66,-121.47 1257.74,-114.62 1247.15,-114.93 1249.66,-121.47"/>
</g>
<!-- Node23 -->
<g id="node23" class="node">
<title>Node23</title>
<g id="a_node23"><a xlink:href="group__lib-layer-pral-functions-public-pwm_gab66f225bac6b132d1418a4c808e3babb.html#gab66f225bac6b132d1418a4c808e3babb" target="_top" xlink:title="Disposes a given PWM generator by resetting all its registers to default.">
<polygon fill="white" stroke="black" points="1022,-191 1022,-221 1162,-221 1162,-191 1022,-191"/>
<text text-anchor="start" x="1030" y="-209" font-family="Helvetica,sans-Serif" font-size="10.00">p33c_PwmGenerator_Config</text>
<text text-anchor="middle" x="1092" y="-198" font-family="Helvetica,sans-Serif" font-size="10.00">Write</text>
</a>
</g>
</g>
<!-- Node22&#45;&gt;Node23 -->
<g id="edge28" class="edge">
<title>Node22&#45;&gt;Node23</title>
<path fill="none" stroke="midnightblue" d="M977.03,-190.34C988.35,-191.9 1000.18,-193.53 1011.76,-195.11"/>
<polygon fill="midnightblue" stroke="midnightblue" points="1011.46,-198.61 1021.84,-196.5 1012.41,-191.67 1011.46,-198.61"/>
</g>
<!-- Node24 -->
<g id="node24" class="node">
<title>Node24</title>
<g id="a_node24"><a xlink:href="group__lib-layer-pral-functions-public-pwm_ga55e525c7ac54a365ab6dad558ec17f0b.html#ga55e525c7ac54a365ab6dad558ec17f0b" target="_top" xlink:title="Returns the PWM generator index.">
<polygon fill="white" stroke="black" points="1013,-240.5 1013,-259.5 1171,-259.5 1171,-240.5 1013,-240.5"/>
<text text-anchor="middle" x="1092" y="-247.5" font-family="Helvetica,sans-Serif" font-size="10.00">p33c_PwmGenerator_GetHandle</text>
</a>
</g>
</g>
<!-- Node22&#45;&gt;Node24 -->
<g id="edge29" class="edge">
<title>Node22&#45;&gt;Node24</title>
<path fill="none" stroke="midnightblue" d="M926.6,-190.55C946.94,-201.3 981.64,-218.71 1013,-230 1020.94,-232.86 1029.47,-235.48 1037.88,-237.82"/>
<polygon fill="midnightblue" stroke="midnightblue" points="1037.08,-241.23 1047.65,-240.43 1038.89,-234.47 1037.08,-241.23"/>
</g>
<!-- Node26 -->
<g id="node26" class="node">
<title>Node26</title>
<g id="a_node26"><a xlink:href="group__lib-layer-pral-functions-public-pwm_ga8075fd40f867be8f42bb806622bd91bd.html#ga8075fd40f867be8f42bb806622bd91bd" target="_top" xlink:title="Writes a user&#45;defined configuration to the PWM base module registers.">
<polygon fill="white" stroke="black" points="1016,-76.5 1016,-95.5 1168,-95.5 1168,-76.5 1016,-76.5"/>
<text text-anchor="middle" x="1092" y="-83.5" font-family="Helvetica,sans-Serif" font-size="10.00">p33c_PwmModule_ConfigWrite</text>
</a>
</g>
</g>
<!-- Node25&#45;&gt;Node26 -->
<g id="edge31" class="edge">
<title>Node25&#45;&gt;Node26</title>
<path fill="none" stroke="midnightblue" d="M975.22,-86C985.13,-86 995.46,-86 1005.7,-86"/>
<polygon fill="midnightblue" stroke="midnightblue" points="1005.89,-89.5 1015.89,-86 1005.89,-82.5 1005.89,-89.5"/>
</g>
<!-- Node27 -->
<g id="node27" class="node">
<title>Node27</title>
<g id="a_node27"><a xlink:href="group__lib-layer-pral-functions-public-pwm_ga3ed5f08051a70f5cb426b8254119845f.html#ga3ed5f08051a70f5cb426b8254119845f" target="_top" xlink:title="Gets pointer to PWM module SFR set.">
<polygon fill="white" stroke="black" points="1018.5,-114.5 1018.5,-133.5 1165.5,-133.5 1165.5,-114.5 1018.5,-114.5"/>
<text text-anchor="middle" x="1092" y="-121.5" font-family="Helvetica,sans-Serif" font-size="10.00">p33c_PwmModule_GetHandle</text>
</a>
</g>
</g>
<!-- Node25&#45;&gt;Node27 -->
<g id="edge32" class="edge">
<title>Node25&#45;&gt;Node27</title>
<path fill="none" stroke="midnightblue" d="M954.93,-95.59C979.38,-100.69 1009.63,-107.01 1035.4,-112.39"/>
<polygon fill="midnightblue" stroke="midnightblue" points="1034.9,-115.86 1045.4,-114.48 1036.33,-109.01 1034.9,-115.86"/>
</g>
<!-- Node32 -->
<g id="node32" class="node">
<title>Node32</title>
<g id="a_node32"><a xlink:href="group__lib-layer-buck-converter-functions-public_ga8c05ea0ee077172e4025d8b7a36f5c9f.html#ga8c05ea0ee077172e4025d8b7a36f5c9f" target="_top" xlink:title="This function starts the buck converter.">
<polygon fill="white" stroke="black" points="671.5,-234.5 671.5,-253.5 794.5,-253.5 794.5,-234.5 671.5,-234.5"/>
<text text-anchor="middle" x="733" y="-241.5" font-family="Helvetica,sans-Serif" font-size="10.00">drv_BuckConverter_Start</text>
</a>
</g>
</g>
<!-- Node31&#45;&gt;Node32 -->
<g id="edge37" class="edge">
<title>Node31&#45;&gt;Node32</title>
<path fill="none" stroke="midnightblue" d="M597.2,-212.51C622.26,-218.36 654.57,-225.91 681.28,-232.15"/>
<polygon fill="midnightblue" stroke="midnightblue" points="680.68,-235.6 691.21,-234.47 682.27,-228.79 680.68,-235.6"/>
</g>
<!-- Node33 -->
<g id="node33" class="node">
<title>Node33</title>
<g id="a_node33"><a xlink:href="group__lib-layer-buck-config-functions-public_gab089e35bcd5d68072aa53298ee276959.html#gab089e35bcd5d68072aa53298ee276959" target="_top" xlink:title="This function enables the ADC module and starts the ADC cores analog inputs for the required input si...">
<polygon fill="white" stroke="black" points="866,-272.5 866,-291.5 950,-291.5 950,-272.5 866,-272.5"/>
<text text-anchor="middle" x="908" y="-279.5" font-family="Helvetica,sans-Serif" font-size="10.00">buckADC_Start</text>
</a>
</g>
</g>
<!-- Node32&#45;&gt;Node33 -->
<g id="edge38" class="edge">
<title>Node32&#45;&gt;Node33</title>
<path fill="none" stroke="midnightblue" d="M777.66,-253.59C801.41,-258.81 830.93,-265.29 855.77,-270.75"/>
<polygon fill="midnightblue" stroke="midnightblue" points="855.22,-274.21 865.74,-272.94 856.72,-267.37 855.22,-274.21"/>
</g>
<!-- Node34 -->
<g id="node34" class="node">
<title>Node34</title>
<g id="a_node34"><a xlink:href="group__lib-layer-buck-config-functions-public_gab7e23719696d2148f9336ca604486db3.html#gab7e23719696d2148f9336ca604486db3" target="_top" xlink:title="This function enables the buck PWM operation.">
<polygon fill="white" stroke="black" points="863.5,-234.5 863.5,-253.5 952.5,-253.5 952.5,-234.5 863.5,-234.5"/>
<text text-anchor="middle" x="908" y="-241.5" font-family="Helvetica,sans-Serif" font-size="10.00">buckPWM_Start</text>
</a>
</g>
</g>
<!-- Node32&#45;&gt;Node34 -->
<g id="edge39" class="edge">
<title>Node32&#45;&gt;Node34</title>
<path fill="none" stroke="midnightblue" d="M794.51,-244C813.66,-244 834.69,-244 853.33,-244"/>
<polygon fill="midnightblue" stroke="midnightblue" points="853.42,-247.5 863.42,-244 853.42,-240.5 853.42,-247.5"/>
</g>
<!-- Node34&#45;&gt;Node24 -->
<g id="edge40" class="edge">
<title>Node34&#45;&gt;Node24</title>
<path fill="none" stroke="midnightblue" d="M952.59,-245.44C967.71,-245.94 985.26,-246.51 1002.67,-247.09"/>
<polygon fill="midnightblue" stroke="midnightblue" points="1002.78,-250.59 1012.89,-247.42 1003.01,-243.6 1002.78,-250.59"/>
</g>
</g>
</svg>
        <g id="navigator" transform="translate(0 0)" fill="#404254">
                <rect fill="#f2f5e9" fill-opacity="0.5" stroke="#606060" stroke-width=".5" x="0" y="0" width="60" height="60"/>
                <use id="zoomplus" xlink:href="#zoomPlus" x="17" y="9" onmousedown="handleZoom(evt,'in')"/>
                <use id="zoomminus" xlink:href="#zoomMin" x="42" y="9" onmousedown="handleZoom(evt,'out')"/>
                <use id="reset" xlink:href="#resetDef" x="30" y="36" onmousedown="handleReset()"/>
                <g id="arrowUp" xlink:href="#dirArrow" transform="translate(30 24)" onmousedown="handlePan(0,-1)">
                  <use xlink:href="#rim" fill="#404040">
                        <set attributeName="fill" to="#808080" begin="arrowUp.mouseover" end="arrowUp.mouseout"/>
                  </use>
                  <path fill="none" stroke="white" stroke-width="1.5" d="M0,-3.0v7 M-2.5,-0.5L0,-3.0L2.5,-0.5"/>
                </g>
                <g id="arrowRight" xlink:href="#dirArrow" transform="rotate(90) translate(36 -43)" onmousedown="handlePan(1,0)">
                  <use xlink:href="#rim" fill="#404040">
                        <set attributeName="fill" to="#808080" begin="arrowRight.mouseover" end="arrowRight.mouseout"/>
                  </use>
                  <path fill="none" stroke="white" stroke-width="1.5" d="M0,-3.0v7 M-2.5,-0.5L0,-3.0L2.5,-0.5"/>
                </g>
                <g id="arrowDown" xlink:href="#dirArrow" transform="rotate(180) translate(-30 -48)" onmousedown="handlePan(0,1)">
                  <use xlink:href="#rim" fill="#404040">
                        <set attributeName="fill" to="#808080" begin="arrowDown.mouseover" end="arrowDown.mouseout"/>
                  </use>
                  <path fill="none" stroke="white" stroke-width="1.5" d="M0,-3.0v7 M-2.5,-0.5L0,-3.0L2.5,-0.5"/>
                </g>
                <g id="arrowLeft" xlink:href="#dirArrow" transform="rotate(270) translate(-36 17)" onmousedown="handlePan(-1,0)">
                  <use xlink:href="#rim" fill="#404040">
                        <set attributeName="fill" to="#808080" begin="arrowLeft.mouseover" end="arrowLeft.mouseout"/>
                  </use>
                  <path fill="none" stroke="white" stroke-width="1.5" d="M0,-3.0v7 M-2.5,-0.5L0,-3.0L2.5,-0.5"/>
                </g>
        </g>
        <svg viewBox="0 0 15 15" width="100%" height="30px" preserveAspectRatio="xMaxYMin meet">
         <g id="arrow_out" transform="scale(0.3 0.3)">
          <a xlink:href="group__user-task-initialization_ga2be64f5f0b9a2c0c6713f5a69d793e05_ga2be64f5f0b9a2c0c6713f5a69d793e05_cgraph_org.svg" target="_base">
           <rect id="button" ry="5" rx="5" y="6" x="6" height="38" width="38"
                fill="#f2f5e9" fill-opacity="0.5" stroke="#606060" stroke-width="1.0"/>
           <path id="arrow"
             d="M 11.500037,31.436501 C 11.940474,20.09759 22.043105,11.32322 32.158766,21.979434 L 37.068811,17.246167 C 37.068811,17.246167 37.088388,32 37.088388,32 L 22.160133,31.978069 C 22.160133,31.978069 26.997745,27.140456 26.997745,27.140456 C 18.528582,18.264221 13.291696,25.230495 11.500037,31.436501 z"
             style="fill:#404040;"/>
          </a>
         </g>
        </svg>
</svg>
