<?xml version="1.0" encoding="UTF-8" standalone="no"?>
<!DOCTYPE svg PUBLIC "-//W3C//DTD SVG 1.1//EN"
 "http://www.w3.org/Graphics/SVG/1.1/DTD/svg11.dtd">
<!-- Generated by graphviz version 2.44.1 (20200629.0846)
 -->
<!-- Title: SYSTEM_Initialize Pages: 1 -->
<svg width="605pt" height="104pt"
 viewBox="0.00 0.00 605.00 104.00" xmlns="http://www.w3.org/2000/svg" xmlns:xlink="http://www.w3.org/1999/xlink">
<g id="graph0" class="graph" transform="scale(1 1) rotate(0) translate(4 100)">
<title>SYSTEM_Initialize</title>
<polygon fill="white" stroke="transparent" points="-4,4 -4,-100 601,-100 601,4 -4,4"/>
<!-- Node1 -->
<g id="node1" class="node">
<title>Node1</title>
<g id="a_node1"><a xlink:title="Initializes essential chip resources.">
<polygon fill="#bfbfbf" stroke="black" points="0,-38.5 0,-57.5 98,-57.5 98,-38.5 0,-38.5"/>
<text text-anchor="middle" x="49" y="-45.5" font-family="Helvetica,sans-Serif" font-size="10.00">SYSTEM_Initialize</text>
</a>
</g>
</g>
<!-- Node2 -->
<g id="node2" class="node">
<title>Node2</title>
<g id="a_node2"><a xlink:href="group__clock-initialization.html#ga3f3f3c22c6c2b95518271fae8f58b03f" target="_top" xlink:title="Initializes the auxiliary clock of the device.">
<polygon fill="white" stroke="black" points="135.5,-76.5 135.5,-95.5 227.5,-95.5 227.5,-76.5 135.5,-76.5"/>
<text text-anchor="middle" x="181.5" y="-83.5" font-family="Helvetica,sans-Serif" font-size="10.00">sysAclk_Initialize</text>
</a>
</g>
</g>
<!-- Node1&#45;&gt;Node2 -->
<g id="edge1" class="edge">
<title>Node1&#45;&gt;Node2</title>
<path fill="none" stroke="midnightblue" d="M82.93,-57.59C99.62,-62.45 120.09,-68.41 137.96,-73.61"/>
<polygon fill="midnightblue" stroke="midnightblue" points="137,-76.98 147.58,-76.41 138.96,-70.26 137,-76.98"/>
</g>
<!-- Node5 -->
<g id="node5" class="node">
<title>Node5</title>
<g id="a_node5"><a xlink:href="group__clock-initialization.html#ga40d0188218fbc4f682cbddffff9e1269" target="_top" xlink:title="System oscillator initialization.">
<polygon fill="white" stroke="black" points="134,-38.5 134,-57.5 229,-57.5 229,-38.5 134,-38.5"/>
<text text-anchor="middle" x="181.5" y="-45.5" font-family="Helvetica,sans-Serif" font-size="10.00">sysFosc_Initialize</text>
</a>
</g>
</g>
<!-- Node1&#45;&gt;Node5 -->
<g id="edge4" class="edge">
<title>Node1&#45;&gt;Node5</title>
<path fill="none" stroke="midnightblue" d="M98.22,-48C106.48,-48 115.13,-48 123.59,-48"/>
<polygon fill="midnightblue" stroke="midnightblue" points="123.78,-51.5 133.78,-48 123.78,-44.5 123.78,-51.5"/>
</g>
<!-- Node8 -->
<g id="node8" class="node">
<title>Node8</title>
<g id="a_node8"><a xlink:href="group__gpio-initialization.html#ga991f10b100fedefc5a11ae679a5a7ea4" target="_top" xlink:title=" ">
<polygon fill="white" stroke="black" points="135,-0.5 135,-19.5 228,-19.5 228,-0.5 135,-0.5"/>
<text text-anchor="middle" x="181.5" y="-7.5" font-family="Helvetica,sans-Serif" font-size="10.00">sysGpio_Initialize</text>
</a>
</g>
</g>
<!-- Node1&#45;&gt;Node8 -->
<g id="edge7" class="edge">
<title>Node1&#45;&gt;Node8</title>
<path fill="none" stroke="midnightblue" d="M82.93,-38.41C99.62,-33.55 120.09,-27.59 137.96,-22.39"/>
<polygon fill="midnightblue" stroke="midnightblue" points="138.96,-25.74 147.58,-19.59 137,-19.02 138.96,-25.74"/>
</g>
<!-- Node3 -->
<g id="node3" class="node">
<title>Node3</title>
<g id="a_node3"><a xlink:href="group__p33c-osc-pral.html#ga810a57935922e0256770d958616a896e" target="_top" xlink:title="Initializes the auxiliary clock and its PLL module step by step in software. Each step is tested and ...">
<polygon fill="white" stroke="black" points="265,-76.5 265,-95.5 428,-95.5 428,-76.5 265,-76.5"/>
<text text-anchor="middle" x="346.5" y="-83.5" font-family="Helvetica,sans-Serif" font-size="10.00">p33c_OscAuxClk_DefaultInitialize</text>
</a>
</g>
</g>
<!-- Node2&#45;&gt;Node3 -->
<g id="edge2" class="edge">
<title>Node2&#45;&gt;Node3</title>
<path fill="none" stroke="midnightblue" d="M227.9,-86C236.34,-86 245.43,-86 254.68,-86"/>
<polygon fill="midnightblue" stroke="midnightblue" points="254.76,-89.5 264.76,-86 254.76,-82.5 254.76,-89.5"/>
</g>
<!-- Node4 -->
<g id="node4" class="node">
<title>Node4</title>
<g id="a_node4"><a xlink:href="group__p33c-osc-pral.html#ga800afc634cac0ccd87c0c74778f53e16" target="_top" xlink:title="Initializes the auxiliary clock and its PLL module step by step in software. Each step is tested and ...">
<polygon fill="white" stroke="black" points="464,-76.5 464,-95.5 597,-95.5 597,-76.5 464,-76.5"/>
<text text-anchor="middle" x="530.5" y="-83.5" font-family="Helvetica,sans-Serif" font-size="10.00">p33c_OscAuxClk_Initialize</text>
</a>
</g>
</g>
<!-- Node3&#45;&gt;Node4 -->
<g id="edge3" class="edge">
<title>Node3&#45;&gt;Node4</title>
<path fill="none" stroke="midnightblue" d="M428.12,-86C436.64,-86 445.28,-86 453.74,-86"/>
<polygon fill="midnightblue" stroke="midnightblue" points="453.95,-89.5 463.95,-86 453.95,-82.5 453.95,-89.5"/>
</g>
<!-- Node6 -->
<g id="node6" class="node">
<title>Node6</title>
<g id="a_node6"><a xlink:href="group__p33c-osc-pral.html#ga40b19dfe32a3ebbb784dddd1ba1b31f9" target="_top" xlink:title="Initializes the major oscillator and the PLL module step by step by using clock switching in software...">
<polygon fill="white" stroke="black" points="273.5,-38.5 273.5,-57.5 419.5,-57.5 419.5,-38.5 273.5,-38.5"/>
<text text-anchor="middle" x="346.5" y="-45.5" font-family="Helvetica,sans-Serif" font-size="10.00">p33c_OscFrc_DefaultInitialize</text>
</a>
</g>
</g>
<!-- Node5&#45;&gt;Node6 -->
<g id="edge5" class="edge">
<title>Node5&#45;&gt;Node6</title>
<path fill="none" stroke="midnightblue" d="M229.21,-48C239.83,-48 251.43,-48 263.05,-48"/>
<polygon fill="midnightblue" stroke="midnightblue" points="263.24,-51.5 273.24,-48 263.24,-44.5 263.24,-51.5"/>
</g>
<!-- Node7 -->
<g id="node7" class="node">
<title>Node7</title>
<g id="a_node7"><a xlink:href="group__p33c-osc-pral.html#ga61cf7c84efc865c104d5e292866131c4" target="_top" xlink:title="Initializes the major oscillator and the PLL module step by step by using clock switching in software...">
<polygon fill="white" stroke="black" points="480,-38.5 480,-57.5 581,-57.5 581,-38.5 480,-38.5"/>
<text text-anchor="middle" x="530.5" y="-45.5" font-family="Helvetica,sans-Serif" font-size="10.00">p33c_Osc_Initialize</text>
</a>
</g>
</g>
<!-- Node6&#45;&gt;Node7 -->
<g id="edge6" class="edge">
<title>Node6&#45;&gt;Node7</title>
<path fill="none" stroke="midnightblue" d="M419.69,-48C436.22,-48 453.61,-48 469.56,-48"/>
<polygon fill="midnightblue" stroke="midnightblue" points="469.8,-51.5 479.8,-48 469.8,-44.5 469.8,-51.5"/>
</g>
</g>
</svg>
