<?xml version="1.0" encoding="UTF-8" standalone="no"?>
<!DOCTYPE svg PUBLIC "-//W3C//DTD SVG 1.1//EN"
 "http://www.w3.org/Graphics/SVG/1.1/DTD/svg11.dtd">
<!-- Generated by graphviz version 2.44.1 (20200629.0846)
 -->
<!-- Title: Buck Converter Pages: 1 -->
<svg width="371pt" height="101pt"
 viewBox="0.00 0.00 371.00 101.00" xmlns="http://www.w3.org/2000/svg" xmlns:xlink="http://www.w3.org/1999/xlink">
<g id="graph0" class="graph" transform="scale(1 1) rotate(0) translate(4 97)">
<title>Buck Converter</title>
<polygon fill="white" stroke="transparent" points="-4,4 -4,-97 367,-97 367,4 -4,4"/>
<!-- Node1 -->
<g id="node1" class="node">
<title>Node1</title>
<g id="a_node1"><a xlink:title=" ">
<polygon fill="#bfbfbf" stroke="black" points="234,-56 151,-56 151,-37 234,-37 234,-56"/>
<text text-anchor="middle" x="192.5" y="-44" font-family="Helvetica,sans-Serif" font-size="10.00">Buck Converter</text>
</a>
</g>
</g>
<!-- Node4 -->
<g id="node2" class="node">
<title>Node4</title>
<g id="a_node2"><a xlink:href="group__lib-layer-buck-converter-properties-public.html" target="_top" xlink:title="Public properties of the second library layer.">
<polygon fill="white" stroke="black" points="362,-93 271,-93 271,-74 362,-74 362,-93"/>
<text text-anchor="middle" x="316.5" y="-81" font-family="Helvetica,sans-Serif" font-size="10.00">Public Properties</text>
</a>
</g>
</g>
<!-- Node1&#45;&gt;Node4 -->
<g id="edge3" class="edge">
<title>Node1&#45;&gt;Node4</title>
<path fill="none" stroke="black" d="M234.6,-58.96C250.64,-63.83 268.75,-69.32 283.76,-73.88"/>
<polygon fill="black" stroke="black" points="235.5,-55.58 224.92,-56.03 233.47,-62.28 235.5,-55.58"/>
</g>
<!-- Node3 -->
<g id="node3" class="node">
<title>Node3</title>
<g id="a_node3"><a xlink:href="group__lib-layer-buck-converter-functions-public.html" target="_top" xlink:title="Public functions of the second library layer.">
<polygon fill="white" stroke="black" points="361,-56 272,-56 272,-37 361,-37 361,-56"/>
<text text-anchor="middle" x="316.5" y="-44" font-family="Helvetica,sans-Serif" font-size="10.00">Public Functions</text>
</a>
</g>
</g>
<!-- Node1&#45;&gt;Node3 -->
<g id="edge2" class="edge">
<title>Node1&#45;&gt;Node3</title>
<path fill="none" stroke="black" d="M244.24,-46.5C253.36,-46.5 262.8,-46.5 271.7,-46.5"/>
<polygon fill="black" stroke="black" points="244.12,-43 234.12,-46.5 244.12,-50 244.12,-43"/>
</g>
<!-- Node5 -->
<g id="node4" class="node">
<title>Node5</title>
<g id="a_node4"><a xlink:href="group__lib-layer-buck-converter-properties-private.html" target="_top" xlink:title="Public properties of the second library layer.">
<polygon fill="white" stroke="black" points="363,-19 270,-19 270,0 363,0 363,-19"/>
<text text-anchor="middle" x="316.5" y="-7" font-family="Helvetica,sans-Serif" font-size="10.00">Private Properties</text>
</a>
</g>
</g>
<!-- Node1&#45;&gt;Node5 -->
<g id="edge4" class="edge">
<title>Node1&#45;&gt;Node5</title>
<path fill="none" stroke="black" d="M234.6,-34.04C250.64,-29.17 268.75,-23.68 283.76,-19.12"/>
<polygon fill="black" stroke="black" points="233.47,-30.72 224.92,-36.97 235.5,-37.42 233.47,-30.72"/>
</g>
<!-- Node2 -->
<g id="node5" class="node">
<title>Node2</title>
<g id="a_node5"><a xlink:href="group__lib-layer-buck.html" target="_top" xlink:title=" ">
<polygon fill="white" stroke="black" points="115,-56 0,-56 0,-37 115,-37 115,-56"/>
<text text-anchor="middle" x="57.5" y="-44" font-family="Helvetica,sans-Serif" font-size="10.00">Buck Converter Library</text>
</a>
</g>
</g>
<!-- Node2&#45;&gt;Node1 -->
<g id="edge1" class="edge">
<title>Node2&#45;&gt;Node1</title>
<path fill="none" stroke="black" d="M125.48,-46.5C134.19,-46.5 142.89,-46.5 150.98,-46.5"/>
<polygon fill="black" stroke="black" points="125.29,-43 115.29,-46.5 125.29,-50 125.29,-43"/>
</g>
</g>
</svg>
