<?xml version="1.0" encoding="UTF-8" standalone="no"?>
<!DOCTYPE svg PUBLIC "-//W3C//DTD SVG 1.1//EN"
 "http://www.w3.org/Graphics/SVG/1.1/DTD/svg11.dtd">
<!-- Generated by graphviz version 2.44.1 (20200629.0846)
 -->
<!-- Title: Device Start Up Pages: 1 -->
<svg width="399pt" height="113pt"
 viewBox="0.00 0.00 399.00 112.50" xmlns="http://www.w3.org/2000/svg" xmlns:xlink="http://www.w3.org/1999/xlink">
<g id="graph0" class="graph" transform="scale(1 1) rotate(0) translate(4 108.5)">
<title>Device Start Up</title>
<polygon fill="white" stroke="transparent" points="-4,4 -4,-108.5 395,-108.5 395,4 -4,4"/>
<!-- Node3 -->
<g id="node1" class="node">
<title>Node3</title>
<g id="a_node1"><a xlink:href="group__system-initialization-mcu.html" target="_top" xlink:title=" ">
<polygon fill="white" stroke="black" points="388.5,-104.5 259.5,-104.5 259.5,-85.5 388.5,-85.5 388.5,-104.5"/>
<text text-anchor="middle" x="324" y="-92.5" font-family="Helvetica,sans-Serif" font-size="10.00">Essential Chip Resources</text>
</a>
</g>
</g>
<!-- Node5 -->
<g id="node2" class="node">
<title>Node5</title>
<g id="a_node2"><a xlink:href="group__system-initialization-user-tasks.html" target="_top" xlink:title=" ">
<polygon fill="white" stroke="black" points="391,-67.5 257,-67.5 257,-48.5 391,-48.5 391,-67.5"/>
<text text-anchor="middle" x="324" y="-55.5" font-family="Helvetica,sans-Serif" font-size="10.00">Firmware Task Initialization</text>
</a>
</g>
</g>
<!-- Node4 -->
<g id="node3" class="node">
<title>Node4</title>
<g id="a_node3"><a xlink:href="group__system-initialization-user-peripherals.html" target="_top" xlink:title=" ">
<polygon fill="white" stroke="black" points="382.5,-30 265.5,-30 265.5,0 382.5,0 382.5,-30"/>
<text text-anchor="start" x="273.5" y="-18" font-family="Helvetica,sans-Serif" font-size="10.00">Hardware&#45;Specific Chip</text>
<text text-anchor="middle" x="324" y="-7" font-family="Helvetica,sans-Serif" font-size="10.00"> Resources</text>
</a>
</g>
</g>
<!-- Node2 -->
<g id="node4" class="node">
<title>Node2</title>
<g id="a_node4"><a xlink:href="group__firmware-flow.html" target="_top" xlink:title="Firmware Flowchart.">
<polygon fill="white" stroke="black" points="101,-67.5 0,-67.5 0,-48.5 101,-48.5 101,-67.5"/>
<text text-anchor="middle" x="50.5" y="-55.5" font-family="Helvetica,sans-Serif" font-size="10.00">Firmware Flowchart</text>
</a>
</g>
</g>
<!-- Node1 -->
<g id="node5" class="node">
<title>Node1</title>
<g id="a_node5"><a xlink:title="Device Start Up.">
<polygon fill="#bfbfbf" stroke="black" points="221,-67.5 137,-67.5 137,-48.5 221,-48.5 221,-67.5"/>
<text text-anchor="middle" x="179" y="-55.5" font-family="Helvetica,sans-Serif" font-size="10.00">Device Start Up</text>
</a>
</g>
</g>
<!-- Node2&#45;&gt;Node1 -->
<g id="edge1" class="edge">
<title>Node2&#45;&gt;Node1</title>
<path fill="none" stroke="black" d="M111.18,-58C119.81,-58 128.52,-58 136.68,-58"/>
<polygon fill="black" stroke="black" points="111.13,-54.5 101.13,-58 111.13,-61.5 111.13,-54.5"/>
</g>
<!-- Node1&#45;&gt;Node3 -->
<g id="edge2" class="edge">
<title>Node1&#45;&gt;Node3</title>
<path fill="none" stroke="black" d="M226.58,-70.05C245.77,-75.02 267.71,-80.69 285.8,-85.38"/>
<polygon fill="black" stroke="black" points="227.38,-66.64 216.83,-67.53 225.63,-73.42 227.38,-66.64"/>
</g>
<!-- Node1&#45;&gt;Node5 -->
<g id="edge4" class="edge">
<title>Node1&#45;&gt;Node5</title>
<path fill="none" stroke="black" d="M231.56,-58C239.8,-58 248.42,-58 256.95,-58"/>
<polygon fill="black" stroke="black" points="231.36,-54.5 221.36,-58 231.36,-61.5 231.36,-54.5"/>
</g>
<!-- Node1&#45;&gt;Node4 -->
<g id="edge3" class="edge">
<title>Node1&#45;&gt;Node4</title>
<path fill="none" stroke="black" d="M221.43,-45.54C237.57,-40.69 256.22,-35.08 273.1,-30.01"/>
<polygon fill="black" stroke="black" points="220.3,-42.23 211.74,-48.46 222.32,-48.93 220.3,-42.23"/>
</g>
</g>
</svg>
