<?xml version="1.0" encoding="UTF-8" standalone="no"?>
<!DOCTYPE svg PUBLIC "-//W3C//DTD SVG 1.1//EN"
 "http://www.w3.org/Graphics/SVG/1.1/DTD/svg11.dtd">
<!-- Generated by graphviz version 2.44.1 (20200629.0846)
 -->
<!-- Title: Firmware Architecture Pages: 1 -->
<svg width="240pt" height="101pt"
 viewBox="0.00 0.00 240.00 101.00" xmlns="http://www.w3.org/2000/svg" xmlns:xlink="http://www.w3.org/1999/xlink">
<g id="graph0" class="graph" transform="scale(1 1) rotate(0) translate(4 97)">
<title>Firmware Architecture</title>
<polygon fill="white" stroke="transparent" points="-4,4 -4,-97 236,-97 236,4 -4,4"/>
<!-- Node3 -->
<g id="node1" class="node">
<title>Node3</title>
<g id="a_node1"><a xlink:href="group__main-loop.html" target="_top" xlink:title="Main Loop.">
<polygon fill="white" stroke="black" points="221,-93 159,-93 159,-74 221,-74 221,-93"/>
<text text-anchor="middle" x="190" y="-81" font-family="Helvetica,sans-Serif" font-size="10.00">Main Loop</text>
</a>
</g>
</g>
<!-- Node4 -->
<g id="node2" class="node">
<title>Node4</title>
<g id="a_node2"><a xlink:href="group__task-layer.html" target="_top" xlink:title="Task Layer.">
<polygon fill="white" stroke="black" points="222.5,-56 157.5,-56 157.5,-37 222.5,-37 222.5,-56"/>
<text text-anchor="middle" x="190" y="-44" font-family="Helvetica,sans-Serif" font-size="10.00">Task Layer</text>
</a>
</g>
</g>
<!-- Node1 -->
<g id="node3" class="node">
<title>Node1</title>
<g id="a_node3"><a xlink:title="Firmware Flowchart.">
<polygon fill="#bfbfbf" stroke="black" points="112,-56 0,-56 0,-37 112,-37 112,-56"/>
<text text-anchor="middle" x="56" y="-44" font-family="Helvetica,sans-Serif" font-size="10.00">Firmware Architecture</text>
</a>
</g>
</g>
<!-- Node1&#45;&gt;Node3 -->
<g id="edge2" class="edge">
<title>Node1&#45;&gt;Node3</title>
<path fill="none" stroke="black" d="M100.65,-58.73C119.68,-64.07 141.52,-70.19 158.72,-75.01"/>
<polygon fill="black" stroke="black" points="101.57,-55.36 90.99,-56.03 99.68,-62.1 101.57,-55.36"/>
</g>
<!-- Node1&#45;&gt;Node4 -->
<g id="edge3" class="edge">
<title>Node1&#45;&gt;Node4</title>
<path fill="none" stroke="black" d="M122.4,-46.5C134.58,-46.5 146.78,-46.5 157.36,-46.5"/>
<polygon fill="black" stroke="black" points="122.22,-43 112.22,-46.5 122.22,-50 122.22,-43"/>
</g>
<!-- Node2 -->
<g id="node4" class="node">
<title>Node2</title>
<g id="a_node4"><a xlink:href="group__device-start-up.html" target="_top" xlink:title="Device Start Up.">
<polygon fill="white" stroke="black" points="232,-19 148,-19 148,0 232,0 232,-19"/>
<text text-anchor="middle" x="190" y="-7" font-family="Helvetica,sans-Serif" font-size="10.00">Device Start Up</text>
</a>
</g>
</g>
<!-- Node1&#45;&gt;Node2 -->
<g id="edge1" class="edge">
<title>Node1&#45;&gt;Node2</title>
<path fill="none" stroke="black" d="M100.97,-34.17C118.46,-29.27 138.27,-23.72 154.66,-19.12"/>
<polygon fill="black" stroke="black" points="99.68,-30.9 90.99,-36.97 101.57,-37.64 99.68,-30.9"/>
</g>
</g>
</svg>
