<?xml version="1.0" encoding="UTF-8" standalone="no"?>
<!DOCTYPE svg PUBLIC "-//W3C//DTD SVG 1.1//EN"
 "http://www.w3.org/Graphics/SVG/1.1/DTD/svg11.dtd">
<!-- Generated by graphviz version 2.44.1 (20200629.0846)
 -->
<!-- Title: p33c_DacInstance_GetHandle Pages: 1 -->
<svg width="522pt" height="104pt"
 viewBox="0.00 0.00 522.00 104.00" xmlns="http://www.w3.org/2000/svg" xmlns:xlink="http://www.w3.org/1999/xlink">
<g id="graph0" class="graph" transform="scale(1 1) rotate(0) translate(4 100)">
<title>p33c_DacInstance_GetHandle</title>
<polygon fill="white" stroke="transparent" points="-4,4 -4,-100 518,-100 518,4 -4,4"/>
<!-- Node1 -->
<g id="node1" class="node">
<title>Node1</title>
<g id="a_node1"><a xlink:title="Gets pointer to DAC Instance SFR set.">
<polygon fill="#bfbfbf" stroke="black" points="366,-38.5 366,-57.5 514,-57.5 514,-38.5 366,-38.5"/>
<text text-anchor="middle" x="440" y="-45.5" font-family="Helvetica,sans-Serif" font-size="10.00">p33c_DacInstance_GetHandle</text>
</a>
</g>
</g>
<!-- Node2 -->
<g id="node2" class="node">
<title>Node2</title>
<g id="a_node2"><a xlink:href="group__dac-initialization.html#gae4c70ecb7b13f328f1458f5f2cfbe48a" target="_top" xlink:title=" ">
<polygon fill="white" stroke="black" points="212.5,-76.5 212.5,-95.5 328.5,-95.5 328.5,-76.5 212.5,-76.5"/>
<text text-anchor="middle" x="270.5" y="-83.5" font-family="Helvetica,sans-Serif" font-size="10.00">sysDacOutput_Disable</text>
</a>
</g>
</g>
<!-- Node1&#45;&gt;Node2 -->
<g id="edge1" class="edge">
<title>Node1&#45;&gt;Node2</title>
<path fill="none" stroke="midnightblue" d="M386.88,-59.82C363.27,-65.18 335.72,-71.43 313.46,-76.48"/>
<polygon fill="midnightblue" stroke="midnightblue" points="387.75,-63.21 396.73,-57.59 386.21,-56.39 387.75,-63.21"/>
</g>
<!-- Node3 -->
<g id="node3" class="node">
<title>Node3</title>
<g id="a_node3"><a xlink:href="group__dac-initialization.html#ga2f97c3082e0d6f724cea482c10c2d08f" target="_top" xlink:title=" ">
<polygon fill="white" stroke="black" points="213.5,-38.5 213.5,-57.5 327.5,-57.5 327.5,-38.5 213.5,-38.5"/>
<text text-anchor="middle" x="270.5" y="-45.5" font-family="Helvetica,sans-Serif" font-size="10.00">sysDacOutput_Enable</text>
</a>
</g>
</g>
<!-- Node1&#45;&gt;Node3 -->
<g id="edge2" class="edge">
<title>Node1&#45;&gt;Node3</title>
<path fill="none" stroke="midnightblue" d="M355.33,-48C345.91,-48 336.48,-48 327.53,-48"/>
<polygon fill="midnightblue" stroke="midnightblue" points="355.53,-51.5 365.53,-48 355.53,-44.5 355.53,-51.5"/>
</g>
<!-- Node6 -->
<g id="node6" class="node">
<title>Node6</title>
<g id="a_node6"><a xlink:href="group__dac-initialization.html#gab022a57f46162ce2bb840b556261133d" target="_top" xlink:title=" ">
<polygon fill="white" stroke="black" points="211,-0.5 211,-19.5 330,-19.5 330,-0.5 211,-0.5"/>
<text text-anchor="middle" x="270.5" y="-7.5" font-family="Helvetica,sans-Serif" font-size="10.00">sysDacOutput_Initialize</text>
</a>
</g>
</g>
<!-- Node1&#45;&gt;Node6 -->
<g id="edge5" class="edge">
<title>Node1&#45;&gt;Node6</title>
<path fill="none" stroke="midnightblue" d="M386.88,-36.18C363.27,-30.82 335.72,-24.57 313.46,-19.52"/>
<polygon fill="midnightblue" stroke="midnightblue" points="386.21,-39.61 396.73,-38.41 387.75,-32.79 386.21,-39.61"/>
</g>
<!-- Node4 -->
<g id="node4" class="node">
<title>Node4</title>
<g id="a_node4"><a xlink:href="group__system-initialization-user-peripherals.html#ga70c5cba054e38a4e8c8285a187ff61fa" target="_top" xlink:title="Initializes the user&#45;defined chip resources.">
<polygon fill="white" stroke="black" points="74,-14 74,-44 175,-44 175,-14 74,-14"/>
<text text-anchor="start" x="82" y="-32" font-family="Helvetica,sans-Serif" font-size="10.00">sysUserPeriperhals</text>
<text text-anchor="middle" x="124.5" y="-21" font-family="Helvetica,sans-Serif" font-size="10.00">_Initialize</text>
</a>
</g>
</g>
<!-- Node3&#45;&gt;Node4 -->
<g id="edge3" class="edge">
<title>Node3&#45;&gt;Node4</title>
<path fill="none" stroke="midnightblue" d="M203.23,-39.26C193.77,-38.01 184.17,-36.74 175.11,-35.55"/>
<polygon fill="midnightblue" stroke="midnightblue" points="203.04,-42.76 213.41,-40.6 203.96,-35.82 203.04,-42.76"/>
</g>
<!-- Node5 -->
<g id="node5" class="node">
<title>Node5</title>
<g id="a_node5"><a xlink:href="group__firmware-flow.html#ga840291bc02cba5474a4cb46a9b9566fe" target="_top" xlink:title="Application main function executed after device comes out of RESET.">
<polygon fill="white" stroke="black" points="0,-19.5 0,-38.5 38,-38.5 38,-19.5 0,-19.5"/>
<text text-anchor="middle" x="19" y="-26.5" font-family="Helvetica,sans-Serif" font-size="10.00">main</text>
</a>
</g>
</g>
<!-- Node4&#45;&gt;Node5 -->
<g id="edge4" class="edge">
<title>Node4&#45;&gt;Node5</title>
<path fill="none" stroke="midnightblue" d="M63.81,-29C54.6,-29 45.74,-29 38.42,-29"/>
<polygon fill="midnightblue" stroke="midnightblue" points="63.87,-32.5 73.87,-29 63.87,-25.5 63.87,-32.5"/>
</g>
<!-- Node6&#45;&gt;Node4 -->
<g id="edge6" class="edge">
<title>Node6&#45;&gt;Node4</title>
<path fill="none" stroke="midnightblue" d="M200.85,-19.06C192.22,-20.2 183.52,-21.34 175.26,-22.43"/>
<polygon fill="midnightblue" stroke="midnightblue" points="201.47,-22.51 210.93,-17.73 200.56,-15.57 201.47,-22.51"/>
</g>
</g>
</svg>
