<?xml version="1.0" encoding="UTF-8" standalone="no"?>
<!DOCTYPE svg PUBLIC "-//W3C//DTD SVG 1.1//EN"
 "http://www.w3.org/Graphics/SVG/1.1/DTD/svg11.dtd">
<!-- Generated by graphviz version 2.44.1 (20200629.0846)
 -->
<!-- Title: Hardware&#45;Specific Chip Resources Pages: 1 -->
<svg width="412pt" height="76pt"
 viewBox="0.00 0.00 412.00 75.50" xmlns="http://www.w3.org/2000/svg" xmlns:xlink="http://www.w3.org/1999/xlink">
<g id="graph0" class="graph" transform="scale(1 1) rotate(0) translate(4 71.5)">
<title>Hardware&#45;Specific Chip Resources</title>
<polygon fill="white" stroke="transparent" points="-4,4 -4,-71.5 408,-71.5 408,4 -4,4"/>
<!-- Node3 -->
<g id="node1" class="node">
<title>Node3</title>
<g id="a_node1"><a xlink:href="group__dac-initialization.html" target="_top" xlink:title=" ">
<polygon fill="white" stroke="black" points="404,-67.5 273,-67.5 273,-48.5 404,-48.5 404,-67.5"/>
<text text-anchor="middle" x="338.5" y="-55.5" font-family="Helvetica,sans-Serif" font-size="10.00">Digital&#45;to&#45;Analog Converter</text>
</a>
</g>
</g>
<!-- Node1 -->
<g id="node2" class="node">
<title>Node1</title>
<g id="a_node2"><a xlink:title=" ">
<polygon fill="#bfbfbf" stroke="black" points="237,-51 120,-51 120,-21 237,-21 237,-51"/>
<text text-anchor="start" x="128" y="-39" font-family="Helvetica,sans-Serif" font-size="10.00">Hardware&#45;Specific Chip</text>
<text text-anchor="middle" x="178.5" y="-28" font-family="Helvetica,sans-Serif" font-size="10.00"> Resources</text>
</a>
</g>
</g>
<!-- Node1&#45;&gt;Node3 -->
<g id="edge2" class="edge">
<title>Node1&#45;&gt;Node3</title>
<path fill="none" stroke="black" d="M247.58,-45.48C255.98,-46.65 264.55,-47.84 272.9,-49.01"/>
<polygon fill="black" stroke="black" points="247.82,-41.98 237.44,-44.07 246.86,-48.91 247.82,-41.98"/>
</g>
<!-- Node4 -->
<g id="node3" class="node">
<title>Node4</title>
<g id="a_node3"><a xlink:href="group__op-amp-initialization.html" target="_top" xlink:title=" ">
<polygon fill="white" stroke="black" points="392,-30 285,-30 285,0 392,0 392,-30"/>
<text text-anchor="start" x="293" y="-18" font-family="Helvetica,sans-Serif" font-size="10.00">Operational Amplifier</text>
<text text-anchor="middle" x="338.5" y="-7" font-family="Helvetica,sans-Serif" font-size="10.00"> Configuration</text>
</a>
</g>
</g>
<!-- Node1&#45;&gt;Node4 -->
<g id="edge3" class="edge">
<title>Node1&#45;&gt;Node4</title>
<path fill="none" stroke="black" d="M247.38,-26.98C259.9,-25.31 272.81,-23.6 284.81,-22"/>
<polygon fill="black" stroke="black" points="246.89,-23.51 237.44,-28.3 247.81,-30.45 246.89,-23.51"/>
</g>
<!-- Node2 -->
<g id="node4" class="node">
<title>Node2</title>
<g id="a_node4"><a xlink:href="group__device-start-up.html" target="_top" xlink:title="Device Start Up.">
<polygon fill="white" stroke="black" points="84,-45.5 0,-45.5 0,-26.5 84,-26.5 84,-45.5"/>
<text text-anchor="middle" x="42" y="-33.5" font-family="Helvetica,sans-Serif" font-size="10.00">Device Start Up</text>
</a>
</g>
</g>
<!-- Node2&#45;&gt;Node1 -->
<g id="edge1" class="edge">
<title>Node2&#45;&gt;Node1</title>
<path fill="none" stroke="black" d="M94.12,-36C102.52,-36 111.28,-36 119.83,-36"/>
<polygon fill="black" stroke="black" points="94.09,-32.5 84.09,-36 94.09,-39.5 94.09,-32.5"/>
</g>
</g>
</svg>
