<?xml version="1.0" encoding="UTF-8" standalone="no"?>
<!DOCTYPE svg PUBLIC "-//W3C//DTD SVG 1.1//EN"
 "http://www.w3.org/Graphics/SVG/1.1/DTD/svg11.dtd">
<!-- Generated by graphviz version 2.44.1 (20200629.0846)
 -->
<!-- Title: State_Reset Pages: 1 -->
<svg width="346pt" height="28pt"
 viewBox="0.00 0.00 346.00 28.00" xmlns="http://www.w3.org/2000/svg" xmlns:xlink="http://www.w3.org/1999/xlink">
<g id="graph0" class="graph" transform="scale(1 1) rotate(0) translate(4 24)">
<title>State_Reset</title>
<polygon fill="white" stroke="transparent" points="-4,4 -4,-24 342,-24 342,4 -4,4"/>
<!-- Node1 -->
<g id="node1" class="node">
<title>Node1</title>
<g id="a_node1"><a xlink:title="Description After successful initialization or after an externally triggered state machine reset,...">
<polygon fill="#bfbfbf" stroke="black" points="0,-0.5 0,-19.5 71,-19.5 71,-0.5 0,-0.5"/>
<text text-anchor="middle" x="35.5" y="-7.5" font-family="Helvetica,sans-Serif" font-size="10.00">State_Reset</text>
</a>
</g>
</g>
<!-- Node2 -->
<g id="node2" class="node">
<title>Node2</title>
<g id="a_node2"><a xlink:href="group__power-handler-function.html#gadd0533ee810246f6b84c7c31d9372835" target="_top" xlink:title="Description">
<polygon fill="white" stroke="black" points="107,-0.5 107,-19.5 213,-19.5 213,-0.5 107,-0.5"/>
<text text-anchor="middle" x="160" y="-7.5" font-family="Helvetica,sans-Serif" font-size="10.00">buckPWM_Suspend</text>
</a>
</g>
</g>
<!-- Node1&#45;&gt;Node2 -->
<g id="edge1" class="edge">
<title>Node1&#45;&gt;Node2</title>
<path fill="none" stroke="midnightblue" d="M71.28,-10C79.21,-10 87.87,-10 96.57,-10"/>
<polygon fill="midnightblue" stroke="midnightblue" points="96.75,-13.5 106.75,-10 96.75,-6.5 96.75,-13.5"/>
</g>
<!-- Node3 -->
<g id="node3" class="node">
<title>Node3</title>
<g id="a_node3"><a xlink:href="group__power-handler-function.html#ga649bb2f18322be1a303d05931adb2c6a" target="_top" xlink:title="Description">
<polygon fill="white" stroke="black" points="249,-0.5 249,-19.5 338,-19.5 338,-0.5 249,-0.5"/>
<text text-anchor="middle" x="293.5" y="-7.5" font-family="Helvetica,sans-Serif" font-size="10.00">buckGPIO_Clear</text>
</a>
</g>
</g>
<!-- Node2&#45;&gt;Node3 -->
<g id="edge2" class="edge">
<title>Node2&#45;&gt;Node3</title>
<path fill="none" stroke="midnightblue" d="M213.35,-10C221.7,-10 230.35,-10 238.74,-10"/>
<polygon fill="midnightblue" stroke="midnightblue" points="238.79,-13.5 248.79,-10 238.79,-6.5 238.79,-13.5"/>
</g>
</g>
</svg>
