<?xml version="1.0" encoding="UTF-8" standalone="no"?>
<!DOCTYPE svg PUBLIC "-//W3C//DTD SVG 1.1//EN"
 "http://www.w3.org/Graphics/SVG/1.1/DTD/svg11.dtd">
<!-- Generated by graphviz version 2.44.1 (20200629.0846)
 -->
<!-- Title: Firmware Flowchart Pages: 1 -->
<svg width="229pt" height="101pt"
 viewBox="0.00 0.00 229.00 101.00" xmlns="http://www.w3.org/2000/svg" xmlns:xlink="http://www.w3.org/1999/xlink">
<g id="graph0" class="graph" transform="scale(1 1) rotate(0) translate(4 97)">
<title>Firmware Flowchart</title>
<polygon fill="white" stroke="transparent" points="-4,4 -4,-97 225,-97 225,4 -4,4"/>
<!-- Node3 -->
<g id="node1" class="node">
<title>Node3</title>
<g id="a_node1"><a xlink:href="group__main-loop.html" target="_top" xlink:title="Main Loop.">
<polygon fill="white" stroke="black" points="210,-93 148,-93 148,-74 210,-74 210,-93"/>
<text text-anchor="middle" x="179" y="-81" font-family="Helvetica,sans-Serif" font-size="10.00">Main Loop</text>
</a>
</g>
</g>
<!-- Node4 -->
<g id="node2" class="node">
<title>Node4</title>
<g id="a_node2"><a xlink:href="group__buck-state-machine.html" target="_top" xlink:title="Task Layer.">
<polygon fill="white" stroke="black" points="211.5,-56 146.5,-56 146.5,-37 211.5,-37 211.5,-56"/>
<text text-anchor="middle" x="179" y="-44" font-family="Helvetica,sans-Serif" font-size="10.00">Task Layer</text>
</a>
</g>
</g>
<!-- Node1 -->
<g id="node3" class="node">
<title>Node1</title>
<g id="a_node3"><a xlink:title="Firmware Flowchart.">
<polygon fill="#bfbfbf" stroke="black" points="101,-56 0,-56 0,-37 101,-37 101,-56"/>
<text text-anchor="middle" x="50.5" y="-44" font-family="Helvetica,sans-Serif" font-size="10.00">Firmware Flowchart</text>
</a>
</g>
</g>
<!-- Node1&#45;&gt;Node3 -->
<g id="edge2" class="edge">
<title>Node1&#45;&gt;Node3</title>
<path fill="none" stroke="black" d="M94.1,-58.96C111.69,-64.1 131.66,-69.95 147.71,-74.64"/>
<polygon fill="black" stroke="black" points="94.66,-55.48 84.08,-56.03 92.69,-62.2 94.66,-55.48"/>
</g>
<!-- Node1&#45;&gt;Node4 -->
<g id="edge3" class="edge">
<title>Node1&#45;&gt;Node4</title>
<path fill="none" stroke="black" d="M111.25,-46.5C123.38,-46.5 135.69,-46.5 146.37,-46.5"/>
<polygon fill="black" stroke="black" points="111.13,-43 101.13,-46.5 111.13,-50 111.13,-43"/>
</g>
<!-- Node2 -->
<g id="node4" class="node">
<title>Node2</title>
<g id="a_node4"><a xlink:href="group__device-start-up.html" target="_top" xlink:title="Device Start Up.">
<polygon fill="white" stroke="black" points="221,-19 137,-19 137,0 221,0 221,-19"/>
<text text-anchor="middle" x="179" y="-7" font-family="Helvetica,sans-Serif" font-size="10.00">Device Start Up</text>
</a>
</g>
</g>
<!-- Node1&#45;&gt;Node2 -->
<g id="edge1" class="edge">
<title>Node1&#45;&gt;Node2</title>
<path fill="none" stroke="black" d="M94.11,-34.04C110.75,-29.17 129.53,-23.68 145.09,-19.12"/>
<polygon fill="black" stroke="black" points="92.69,-30.8 84.08,-36.97 94.66,-37.52 92.69,-30.8"/>
</g>
</g>
</svg>
