<?xml version="1.0" encoding="UTF-8" standalone="no"?>
<!DOCTYPE svg PUBLIC "-//W3C//DTD SVG 1.1//EN"
 "http://www.w3.org/Graphics/SVG/1.1/DTD/svg11.dtd">
<!-- Generated by graphviz version 2.44.1 (20200629.0846)
 -->
<!-- Title: Private Variables Pages: 1 -->
<svg width="552pt" height="38pt"
 viewBox="0.00 0.00 552.00 38.00" xmlns="http://www.w3.org/2000/svg" xmlns:xlink="http://www.w3.org/1999/xlink">
<g id="graph0" class="graph" transform="scale(1 1) rotate(0) translate(4 34)">
<title>Private Variables</title>
<polygon fill="white" stroke="transparent" points="-4,4 -4,-34 548,-34 548,4 -4,4"/>
<!-- Node3 -->
<g id="node1" class="node">
<title>Node3</title>
<g id="a_node1"><a xlink:href="group__power-handler-struct.html" target="_top" xlink:title="Power Handler Data Structures.">
<polygon fill="white" stroke="black" points="544,-30 441,-30 441,0 544,0 544,-30"/>
<text text-anchor="start" x="449" y="-18" font-family="Helvetica,sans-Serif" font-size="10.00">Power Handler Data</text>
<text text-anchor="middle" x="492.5" y="-7" font-family="Helvetica,sans-Serif" font-size="10.00"> Structures</text>
</a>
</g>
</g>
<!-- Node1 -->
<g id="node2" class="node">
<title>Node1</title>
<g id="a_node2"><a xlink:title="Private variables of the Power Control Application Layer.">
<polygon fill="#bfbfbf" stroke="black" points="254,-24.5 165,-24.5 165,-5.5 254,-5.5 254,-24.5"/>
<text text-anchor="middle" x="209.5" y="-12.5" font-family="Helvetica,sans-Serif" font-size="10.00">Private Variables</text>
</a>
</g>
</g>
<!-- Node1&#45;&gt;Node3 -->
<g id="edge2" class="edge">
<title>Node1&#45;&gt;Node3</title>
<path fill="none" stroke="orange" stroke-dasharray="5,2" d="M254.1,-15C304.51,-15 387.36,-15 440.66,-15"/>
<text text-anchor="middle" x="347.5" y="-18" font-family="Helvetica,sans-Serif" font-size="10.00">BUCK_POWER_CONTROLLER_s</text>
</g>
<!-- Node2 -->
<g id="node3" class="node">
<title>Node2</title>
<g id="a_node3"><a xlink:href="group__power-control-app-layer.html" target="_top" xlink:title=" ">
<polygon fill="white" stroke="black" points="128,-30 0,-30 0,0 128,0 128,-30"/>
<text text-anchor="start" x="8" y="-18" font-family="Helvetica,sans-Serif" font-size="10.00">Power Control Application</text>
<text text-anchor="middle" x="64" y="-7" font-family="Helvetica,sans-Serif" font-size="10.00"> Layer</text>
</a>
</g>
</g>
<!-- Node2&#45;&gt;Node1 -->
<g id="edge1" class="edge">
<title>Node2&#45;&gt;Node1</title>
<path fill="none" stroke="black" d="M138.5,-15C147.5,-15 156.47,-15 164.82,-15"/>
<polygon fill="black" stroke="black" points="138.36,-11.5 128.36,-15 138.36,-18.5 138.36,-11.5"/>
</g>
</g>
</svg>
