<?xml version="1.0" encoding="UTF-8" standalone="no"?>
<!DOCTYPE svg PUBLIC "-//W3C//DTD SVG 1.1//EN"
 "http://www.w3.org/Graphics/SVG/1.1/DTD/svg11.dtd">
<!-- Generated by graphviz version 2.44.1 (20200629.0846)
 -->
<!-- Title: Peripheral Register Abstraction Layer (PRAL) Library Pages: 1 -->
<svg width="417pt" height="364pt"
 viewBox="0.00 0.00 417.00 364.00" xmlns="http://www.w3.org/2000/svg" xmlns:xlink="http://www.w3.org/1999/xlink">
<g id="graph0" class="graph" transform="scale(1 1) rotate(0) translate(4 360)">
<title>Peripheral Register Abstraction Layer (PRAL) Library</title>
<polygon fill="white" stroke="transparent" points="-4,4 -4,-360 413,-360 413,4 -4,4"/>
<!-- Node6 -->
<g id="node1" class="node">
<title>Node6</title>
<g id="a_node1"><a xlink:href="group__p33c-gpio-pral.html" target="_top" xlink:title="General Purpose Input/Output Special Function Register Abstraction Driver.">
<polygon fill="white" stroke="black" points="398.5,-356 285.5,-356 285.5,-326 398.5,-326 398.5,-356"/>
<text text-anchor="start" x="293.5" y="-344" font-family="Helvetica,sans-Serif" font-size="10.00">General Purpose Input</text>
<text text-anchor="middle" x="342" y="-333" font-family="Helvetica,sans-Serif" font-size="10.00">/Output (GPIO)</text>
</a>
</g>
</g>
<!-- Node8 -->
<g id="node2" class="node">
<title>Node8</title>
<g id="a_node2"><a xlink:href="group__p33c-osc-pral.html" target="_top" xlink:title="Oscillator Module Special Function Register Abstraction Driver.">
<polygon fill="white" stroke="black" points="403,-307.5 281,-307.5 281,-288.5 403,-288.5 403,-307.5"/>
<text text-anchor="middle" x="342" y="-295.5" font-family="Helvetica,sans-Serif" font-size="10.00">Oscillator Module (OSC)</text>
</a>
</g>
</g>
<!-- Node4 -->
<g id="node3" class="node">
<title>Node4</title>
<g id="a_node3"><a xlink:href="group__p33c-dac-pral.html" target="_top" xlink:title="Digital&#45;To&#45;Analog Converter Peripheral Module Special Function Register Abstraction Driver.">
<polygon fill="white" stroke="black" points="409,-270 275,-270 275,-240 409,-240 409,-270"/>
<text text-anchor="start" x="283" y="-258" font-family="Helvetica,sans-Serif" font-size="10.00">Digital&#45;To&#45;Analog Converter</text>
<text text-anchor="middle" x="342" y="-247" font-family="Helvetica,sans-Serif" font-size="10.00"> Module (DAC)</text>
</a>
</g>
</g>
<!-- Node3 -->
<g id="node4" class="node">
<title>Node3</title>
<g id="a_node4"><a xlink:href="group__p33c-ccp-pral.html" target="_top" xlink:title="Capture Compare Peripheral Module Special Function Register Abstraction Driver.">
<polygon fill="white" stroke="black" points="405.5,-222 278.5,-222 278.5,-192 405.5,-192 405.5,-222"/>
<text text-anchor="start" x="286.5" y="-210" font-family="Helvetica,sans-Serif" font-size="10.00">Capture Compare Module</text>
<text text-anchor="middle" x="342" y="-199" font-family="Helvetica,sans-Serif" font-size="10.00"> (SCCP/MCCP)</text>
</a>
</g>
</g>
<!-- Node5 -->
<g id="node5" class="node">
<title>Node5</title>
<g id="a_node5"><a xlink:href="group__p33c-dsp-pral.html" target="_top" xlink:title="Digital Signal Processor Special Function Register Abstraction Driver.">
<polygon fill="white" stroke="black" points="404,-174 280,-174 280,-144 404,-144 404,-174"/>
<text text-anchor="start" x="288" y="-162" font-family="Helvetica,sans-Serif" font-size="10.00">Digital Signal Processor</text>
<text text-anchor="middle" x="342" y="-151" font-family="Helvetica,sans-Serif" font-size="10.00"> Converter Module (DSP)</text>
</a>
</g>
</g>
<!-- Node7 -->
<g id="node6" class="node">
<title>Node7</title>
<g id="a_node6"><a xlink:href="group__p33c-opa-pral.html" target="_top" xlink:title="Operational Amplifier Peripheral Module Special Function Register Abstraction Driver.">
<polygon fill="white" stroke="black" points="395.5,-126 288.5,-126 288.5,-96 395.5,-96 395.5,-126"/>
<text text-anchor="start" x="296.5" y="-114" font-family="Helvetica,sans-Serif" font-size="10.00">Operational Amplifier</text>
<text text-anchor="middle" x="342" y="-103" font-family="Helvetica,sans-Serif" font-size="10.00"> Module (AMP)</text>
</a>
</g>
</g>
<!-- Node9 -->
<g id="node7" class="node">
<title>Node9</title>
<g id="a_node7"><a xlink:href="group__p33c-pps-pral.html" target="_top" xlink:title="Peripheral Pin Select Module Special Function Register Abstraction Driver.">
<polygon fill="white" stroke="black" points="396,-78 288,-78 288,-48 396,-48 396,-78"/>
<text text-anchor="start" x="296" y="-66" font-family="Helvetica,sans-Serif" font-size="10.00">Peripheral Pin Select</text>
<text text-anchor="middle" x="342" y="-55" font-family="Helvetica,sans-Serif" font-size="10.00"> Module (PPS)</text>
</a>
</g>
</g>
<!-- Node10 -->
<g id="node8" class="node">
<title>Node10</title>
<g id="a_node8"><a xlink:href="group__p33c-pwm-pral.html" target="_top" xlink:title="High&#45;Speed PWM Module Special Function Register Abstraction Driver.">
<polygon fill="white" stroke="black" points="406.5,-30 277.5,-30 277.5,0 406.5,0 406.5,-30"/>
<text text-anchor="start" x="285.5" y="-18" font-family="Helvetica,sans-Serif" font-size="10.00">High&#45;Speed PWM Module</text>
<text text-anchor="middle" x="342" y="-7" font-family="Helvetica,sans-Serif" font-size="10.00"> (HSPWM)</text>
</a>
</g>
</g>
<!-- Node1 -->
<g id="node9" class="node">
<title>Node1</title>
<g id="a_node9"><a xlink:title=" ">
<polygon fill="#bfbfbf" stroke="black" points="239,-203.5 140,-203.5 140,-162.5 239,-162.5 239,-203.5"/>
<text text-anchor="start" x="148" y="-191.5" font-family="Helvetica,sans-Serif" font-size="10.00">Peripheral Register</text>
<text text-anchor="start" x="148" y="-180.5" font-family="Helvetica,sans-Serif" font-size="10.00"> Abstraction Layer </text>
<text text-anchor="middle" x="189.5" y="-169.5" font-family="Helvetica,sans-Serif" font-size="10.00">(PRAL) Library</text>
</a>
</g>
</g>
<!-- Node1&#45;&gt;Node6 -->
<g id="edge5" class="edge">
<title>Node1&#45;&gt;Node6</title>
<path fill="none" stroke="black" d="M202.4,-212.89C215.83,-243.08 240.42,-289.12 275,-317 279.27,-320.44 284.08,-323.42 289.11,-325.98"/>
<polygon fill="black" stroke="black" points="205.61,-211.49 198.43,-203.69 199.18,-214.26 205.61,-211.49"/>
</g>
<!-- Node1&#45;&gt;Node8 -->
<g id="edge7" class="edge">
<title>Node1&#45;&gt;Node8</title>
<path fill="none" stroke="black" d="M209.32,-212.16C224.58,-233.6 247.96,-261.87 275,-279 281.14,-282.89 288.11,-286.01 295.15,-288.5"/>
<polygon fill="black" stroke="black" points="212.05,-209.96 203.48,-203.73 206.3,-213.95 212.05,-209.96"/>
</g>
<!-- Node1&#45;&gt;Node4 -->
<g id="edge3" class="edge">
<title>Node1&#45;&gt;Node4</title>
<path fill="none" stroke="black" d="M232.84,-208.89C246.09,-216.49 260.94,-224.5 275,-231 281.75,-234.12 289.03,-237.11 296.21,-239.87"/>
<polygon fill="black" stroke="black" points="234.34,-205.72 223.94,-203.72 230.82,-211.77 234.34,-205.72"/>
</g>
<!-- Node1&#45;&gt;Node3 -->
<g id="edge2" class="edge">
<title>Node1&#45;&gt;Node3</title>
<path fill="none" stroke="black" d="M249.48,-192.41C258.97,-193.92 268.82,-195.49 278.38,-197.01"/>
<polygon fill="black" stroke="black" points="249.79,-188.91 239.36,-190.79 248.69,-195.82 249.79,-188.91"/>
</g>
<!-- Node1&#45;&gt;Node5 -->
<g id="edge4" class="edge">
<title>Node1&#45;&gt;Node5</title>
<path fill="none" stroke="black" d="M249.28,-173.63C259.36,-172.02 269.86,-170.34 280,-168.73"/>
<polygon fill="black" stroke="black" points="248.69,-170.18 239.36,-175.21 249.79,-177.09 248.69,-170.18"/>
</g>
<!-- Node1&#45;&gt;Node7 -->
<g id="edge6" class="edge">
<title>Node1&#45;&gt;Node7</title>
<path fill="none" stroke="black" d="M232.84,-157.11C246.09,-149.51 260.94,-141.5 275,-135 281.75,-131.88 289.03,-128.89 296.21,-126.13"/>
<polygon fill="black" stroke="black" points="230.82,-154.23 223.94,-162.28 234.34,-160.28 230.82,-154.23"/>
</g>
<!-- Node1&#45;&gt;Node9 -->
<g id="edge8" class="edge">
<title>Node1&#45;&gt;Node9</title>
<path fill="none" stroke="black" d="M209.94,-153.98C225.4,-132.86 248.73,-104.93 275,-87 279.93,-83.63 285.4,-80.67 291.01,-78.09"/>
<polygon fill="black" stroke="black" points="206.98,-152.1 204.02,-162.27 212.68,-156.17 206.98,-152.1"/>
</g>
<!-- Node1&#45;&gt;Node10 -->
<g id="edge9" class="edge">
<title>Node1&#45;&gt;Node10</title>
<path fill="none" stroke="black" d="M201.02,-152.92C213.79,-120.54 238.26,-69.6 275,-39 279.12,-35.57 283.78,-32.6 288.66,-30.05"/>
<polygon fill="black" stroke="black" points="197.73,-151.73 197.44,-162.32 204.27,-154.22 197.73,-151.73"/>
</g>
<!-- Node2 -->
<g id="node10" class="node">
<title>Node2</title>
<g id="a_node10"><a xlink:href="group__lib-layer.html" target="_top" xlink:title="Generic Device Driver Layer.">
<polygon fill="white" stroke="black" points="104,-198 0,-198 0,-168 104,-168 104,-198"/>
<text text-anchor="start" x="8" y="-186" font-family="Helvetica,sans-Serif" font-size="10.00">Device Driver Library</text>
<text text-anchor="middle" x="52" y="-175" font-family="Helvetica,sans-Serif" font-size="10.00"> Layer</text>
</a>
</g>
</g>
<!-- Node2&#45;&gt;Node1 -->
<g id="edge1" class="edge">
<title>Node2&#45;&gt;Node1</title>
<path fill="none" stroke="black" d="M114.5,-183C123.01,-183 131.66,-183 139.89,-183"/>
<polygon fill="black" stroke="black" points="114.23,-179.5 104.23,-183 114.23,-186.5 114.23,-179.5"/>
</g>
</g>
</svg>
