<?xml version="1.0" encoding="UTF-8" standalone="no"?>
<!DOCTYPE svg PUBLIC "-//W3C//DTD SVG 1.1//EN"
 "http://www.w3.org/Graphics/SVG/1.1/DTD/svg11.dtd">
<!-- Generated by graphviz version 2.44.1 (20200629.0846)
 -->
<!-- Title: drv_BuckConverter_Suspend Pages: 1 -->
<svg width="665pt" height="28pt"
 viewBox="0.00 0.00 665.00 28.00" xmlns="http://www.w3.org/2000/svg" xmlns:xlink="http://www.w3.org/1999/xlink">
<g id="graph0" class="graph" transform="scale(1 1) rotate(0) translate(4 24)">
<title>drv_BuckConverter_Suspend</title>
<polygon fill="white" stroke="transparent" points="-4,4 -4,-24 661,-24 661,4 -4,4"/>
<!-- Node1 -->
<g id="node1" class="node">
<title>Node1</title>
<g id="a_node1"><a xlink:title=" ">
<polygon fill="#bfbfbf" stroke="black" points="0,-0.5 0,-19.5 140,-19.5 140,-0.5 0,-0.5"/>
<text text-anchor="middle" x="70" y="-7.5" font-family="Helvetica,sans-Serif" font-size="10.00">drv_BuckConverter_Suspend</text>
</a>
</g>
</g>
<!-- Node2 -->
<g id="node2" class="node">
<title>Node2</title>
<g id="a_node2"><a xlink:href="group__power-handler-function.html#ga75498c59a10db0738113104a547d8d0d" target="_top" xlink:title="This function is the main buck converter state machine executing the most recent state.">
<polygon fill="white" stroke="black" points="176,-0.5 176,-19.5 314,-19.5 314,-0.5 176,-0.5"/>
<text text-anchor="middle" x="245" y="-7.5" font-family="Helvetica,sans-Serif" font-size="10.00">drv_BuckConverter_Execute</text>
</a>
</g>
</g>
<!-- Node1&#45;&gt;Node2 -->
<g id="edge1" class="edge">
<title>Node1&#45;&gt;Node2</title>
<path fill="none" stroke="midnightblue" d="M140.37,-10C148.66,-10 157.16,-10 165.56,-10"/>
<polygon fill="midnightblue" stroke="midnightblue" points="165.74,-13.5 175.74,-10 165.74,-6.5 165.74,-13.5"/>
</g>
<!-- Node3 -->
<g id="node3" class="node">
<title>Node3</title>
<g id="a_node3"><a xlink:href="group__power-handler-function.html#gad4e9d780ae858d4417887f13b1619346" target="_top" xlink:title=" ">
<polygon fill="white" stroke="black" points="350,-0.5 350,-19.5 470,-19.5 470,-0.5 350,-0.5"/>
<text text-anchor="middle" x="410" y="-7.5" font-family="Helvetica,sans-Serif" font-size="10.00">buckGPIO_GetPinState</text>
</a>
</g>
</g>
<!-- Node2&#45;&gt;Node3 -->
<g id="edge2" class="edge">
<title>Node2&#45;&gt;Node3</title>
<path fill="none" stroke="midnightblue" d="M314.18,-10C322.62,-10 331.25,-10 339.7,-10"/>
<polygon fill="midnightblue" stroke="midnightblue" points="339.89,-13.5 349.89,-10 339.89,-6.5 339.89,-13.5"/>
</g>
<!-- Node4 -->
<g id="node4" class="node">
<title>Node4</title>
<g id="a_node4"><a xlink:href="group__gpio.html#gae1bc534f11ac7cf278865cb73b601055" target="_top" xlink:title="Gets pointer to GPIO Instance SFR set.">
<polygon fill="white" stroke="black" points="506,-0.5 506,-19.5 657,-19.5 657,-0.5 506,-0.5"/>
<text text-anchor="middle" x="581.5" y="-7.5" font-family="Helvetica,sans-Serif" font-size="10.00">p33c_GpioInstance_GetHandle</text>
</a>
</g>
</g>
<!-- Node3&#45;&gt;Node4 -->
<g id="edge3" class="edge">
<title>Node3&#45;&gt;Node4</title>
<path fill="none" stroke="midnightblue" d="M470.28,-10C478.52,-10 487.1,-10 495.69,-10"/>
<polygon fill="midnightblue" stroke="midnightblue" points="495.75,-13.5 505.75,-10 495.75,-6.5 495.75,-13.5"/>
</g>
</g>
</svg>
