<?xml version="1.0" encoding="UTF-8" standalone="no"?>
<!DOCTYPE svg PUBLIC "-//W3C//DTD SVG 1.1//EN"
 "http://www.w3.org/Graphics/SVG/1.1/DTD/svg11.dtd">
<!-- Generated by graphviz version 2.44.1 (20200629.0846)
 -->
<!-- Title: BUCK_SWITCH_NODE_SETTINGS_s Pages: 1 -->
<svg width="190pt" height="347pt"
 viewBox="0.00 0.00 190.00 347.00" xmlns="http://www.w3.org/2000/svg" xmlns:xlink="http://www.w3.org/1999/xlink">
<g id="graph0" class="graph" transform="scale(1 1) rotate(0) translate(4 343)">
<title>BUCK_SWITCH_NODE_SETTINGS_s</title>
<polygon fill="white" stroke="transparent" points="-4,4 -4,-343 186,-343 186,4 -4,4"/>
<!-- Node1 -->
<g id="node1" class="node">
<title>Node1</title>
<g id="a_node1"><a xlink:title="Generic power converter switch&#45;node specifications.">
<polygon fill="#bfbfbf" stroke="black" points="0,-0.5 0,-112.5 182,-112.5 182,-0.5 0,-0.5"/>
<text text-anchor="middle" x="91" y="-100.5" font-family="Helvetica,sans-Serif" font-size="10.00">BUCK_SWITCH_NODE_SETTINGS_s</text>
<polyline fill="none" stroke="black" points="0,-93.5 182,-93.5 "/>
<text text-anchor="start" x="8" y="-81.5" font-family="Helvetica,sans-Serif" font-size="10.00">+ pwm_instance</text>
<text text-anchor="start" x="8" y="-70.5" font-family="Helvetica,sans-Serif" font-size="10.00">+ master_period_enable</text>
<text text-anchor="start" x="8" y="-59.5" font-family="Helvetica,sans-Serif" font-size="10.00">+ period</text>
<text text-anchor="start" x="8" y="-48.5" font-family="Helvetica,sans-Serif" font-size="10.00">+ phase</text>
<text text-anchor="start" x="8" y="-37.5" font-family="Helvetica,sans-Serif" font-size="10.00">+ trigger_scaler</text>
<text text-anchor="start" x="8" y="-26.5" font-family="Helvetica,sans-Serif" font-size="10.00">+ trigger_offset</text>
<polyline fill="none" stroke="black" points="0,-19.5 182,-19.5 "/>
<text text-anchor="middle" x="91" y="-7.5" font-family="Helvetica,sans-Serif" font-size="10.00"> </text>
</a>
</g>
</g>
<!-- Node2 -->
<g id="node2" class="node">
<title>Node2</title>
<g id="a_node2"><a xlink:href="structvolatile.html" target="_top" xlink:title="Description">
<polygon fill="white" stroke="black" points="68,-281.5 68,-338.5 114,-338.5 114,-281.5 68,-281.5"/>
<text text-anchor="middle" x="91" y="-326.5" font-family="Helvetica,sans-Serif" font-size="10.00">volatile</text>
<polyline fill="none" stroke="black" points="68,-319.5 114,-319.5 "/>
<text text-anchor="middle" x="91" y="-307.5" font-family="Helvetica,sans-Serif" font-size="10.00"> </text>
<polyline fill="none" stroke="black" points="68,-300.5 114,-300.5 "/>
<text text-anchor="middle" x="91" y="-288.5" font-family="Helvetica,sans-Serif" font-size="10.00"> </text>
</a>
</g>
</g>
<!-- Node2&#45;&gt;Node1 -->
<g id="edge1" class="edge">
<title>Node2&#45;&gt;Node1</title>
<path fill="none" stroke="#404040" d="M91,-281.12C91,-243.79 91,-176.33 91,-125.23"/>
<polygon fill="none" stroke="#404040" points="91,-124.96 87,-118.96 91,-112.96 95,-118.96 91,-124.96"/>
<text text-anchor="middle" x="133.5" y="-255" font-family="Helvetica,sans-Serif" font-size="10.00"> +dead_time_falling</text>
<text text-anchor="middle" x="133.5" y="-244" font-family="Helvetica,sans-Serif" font-size="10.00">+dead_time_rising</text>
<text text-anchor="middle" x="133.5" y="-233" font-family="Helvetica,sans-Serif" font-size="10.00">+duty_ratio_init</text>
<text text-anchor="middle" x="133.5" y="-222" font-family="Helvetica,sans-Serif" font-size="10.00">+duty_ratio_max</text>
<text text-anchor="middle" x="133.5" y="-211" font-family="Helvetica,sans-Serif" font-size="10.00">+duty_ratio_min</text>
<text text-anchor="middle" x="133.5" y="-200" font-family="Helvetica,sans-Serif" font-size="10.00">+gpio_high</text>
<text text-anchor="middle" x="133.5" y="-189" font-family="Helvetica,sans-Serif" font-size="10.00">+gpio_instance</text>
<text text-anchor="middle" x="133.5" y="-178" font-family="Helvetica,sans-Serif" font-size="10.00">+gpio_low</text>
<text text-anchor="start" x="91" y="-167" font-family="Helvetica,sans-Serif" font-size="10.00">+high_resolution</text>
<text text-anchor="middle" x="133.5" y="-156" font-family="Helvetica,sans-Serif" font-size="10.00">_enable</text>
<text text-anchor="middle" x="133.5" y="-145" font-family="Helvetica,sans-Serif" font-size="10.00">+leb_period</text>
<text text-anchor="middle" x="133.5" y="-134" font-family="Helvetica,sans-Serif" font-size="10.00">...</text>
</g>
</g>
</svg>
