<?xml version="1.0" encoding="UTF-8" standalone="no"?>
<!DOCTYPE svg PUBLIC "-//W3C//DTD SVG 1.1//EN"
 "http://www.w3.org/Graphics/SVG/1.1/DTD/svg11.dtd">
<!-- Generated by graphviz version 2.44.1 (20200629.0846)
 -->
<!-- Title: NPNZ16b_s Pages: 1 -->
<svg width="132pt" height="259pt"
 viewBox="0.00 0.00 132.00 259.00" xmlns="http://www.w3.org/2000/svg" xmlns:xlink="http://www.w3.org/1999/xlink">
<g id="graph0" class="graph" transform="scale(1 1) rotate(0) translate(4 255)">
<title>NPNZ16b_s</title>
<polygon fill="white" stroke="transparent" points="-4,4 -4,-255 128,-255 128,4 -4,4"/>
<!-- Node1 -->
<g id="node1" class="node">
<title>Node1</title>
<g id="a_node1"><a xlink:title=" ">
<polygon fill="#bfbfbf" stroke="black" points="0,-0.5 0,-57.5 68,-57.5 68,-0.5 0,-0.5"/>
<text text-anchor="middle" x="34" y="-45.5" font-family="Helvetica,sans-Serif" font-size="10.00">NPNZ16b_s</text>
<polyline fill="none" stroke="black" points="0,-38.5 68,-38.5 "/>
<text text-anchor="middle" x="34" y="-26.5" font-family="Helvetica,sans-Serif" font-size="10.00"> </text>
<polyline fill="none" stroke="black" points="0,-19.5 68,-19.5 "/>
<text text-anchor="middle" x="34" y="-7.5" font-family="Helvetica,sans-Serif" font-size="10.00"> </text>
</a>
</g>
</g>
<!-- Node2 -->
<g id="node2" class="node">
<title>Node2</title>
<g id="a_node2"><a xlink:href="structvolatile.html" target="_top" xlink:title="Description">
<polygon fill="white" stroke="black" points="11,-193.5 11,-250.5 57,-250.5 57,-193.5 11,-193.5"/>
<text text-anchor="middle" x="34" y="-238.5" font-family="Helvetica,sans-Serif" font-size="10.00">volatile</text>
<polyline fill="none" stroke="black" points="11,-231.5 57,-231.5 "/>
<text text-anchor="middle" x="34" y="-219.5" font-family="Helvetica,sans-Serif" font-size="10.00"> </text>
<polyline fill="none" stroke="black" points="11,-212.5 57,-212.5 "/>
<text text-anchor="middle" x="34" y="-200.5" font-family="Helvetica,sans-Serif" font-size="10.00"> </text>
</a>
</g>
</g>
<!-- Node2&#45;&gt;Node1 -->
<g id="edge1" class="edge">
<title>Node2&#45;&gt;Node1</title>
<path fill="none" stroke="#404040" d="M34,-193.23C34,-160.83 34,-107.02 34,-70.1"/>
<polygon fill="none" stroke="#404040" points="34,-69.81 30,-63.81 34,-57.81 38,-63.81 34,-69.81"/>
<text text-anchor="middle" x="79" y="-167" font-family="Helvetica,sans-Serif" font-size="10.00"> +ADCTriggerControl</text>
<text text-anchor="middle" x="79" y="-156" font-family="Helvetica,sans-Serif" font-size="10.00">+Advanced</text>
<text text-anchor="middle" x="79" y="-145" font-family="Helvetica,sans-Serif" font-size="10.00">+CascadeTrigger</text>
<text text-anchor="middle" x="79" y="-134" font-family="Helvetica,sans-Serif" font-size="10.00">+DataProviders</text>
<text text-anchor="middle" x="79" y="-123" font-family="Helvetica,sans-Serif" font-size="10.00">+Filter</text>
<text text-anchor="middle" x="79" y="-112" font-family="Helvetica,sans-Serif" font-size="10.00">+GainControl</text>
<text text-anchor="middle" x="79" y="-101" font-family="Helvetica,sans-Serif" font-size="10.00">+Limits</text>
<text text-anchor="middle" x="79" y="-90" font-family="Helvetica,sans-Serif" font-size="10.00">+Ports</text>
<text text-anchor="middle" x="79" y="-79" font-family="Helvetica,sans-Serif" font-size="10.00">+status</text>
</g>
</g>
</svg>
