<?xml version="1.0" encoding="UTF-8" standalone="no"?>
<!DOCTYPE svg PUBLIC "-//W3C//DTD SVG 1.1//EN"
 "http://www.w3.org/Graphics/SVG/1.1/DTD/svg11.dtd">
<!-- Generated by graphviz version 2.44.1 (20200629.0846)
 -->
<!-- Title: NPNZ_GAIN_CONTROL_s Pages: 1 -->
<svg width="185pt" height="204pt"
 viewBox="0.00 0.00 185.00 204.00" xmlns="http://www.w3.org/2000/svg" xmlns:xlink="http://www.w3.org/1999/xlink">
<g id="graph0" class="graph" transform="scale(1 1) rotate(0) translate(4 200)">
<title>NPNZ_GAIN_CONTROL_s</title>
<polygon fill="white" stroke="transparent" points="-4,4 -4,-200 181,-200 181,4 -4,4"/>
<!-- Node1 -->
<g id="node1" class="node">
<title>Node1</title>
<g id="a_node1"><a xlink:title=" ">
<polygon fill="#bfbfbf" stroke="black" points="0,-0.5 0,-57.5 132,-57.5 132,-0.5 0,-0.5"/>
<text text-anchor="middle" x="66" y="-45.5" font-family="Helvetica,sans-Serif" font-size="10.00">NPNZ_GAIN_CONTROL_s</text>
<polyline fill="none" stroke="black" points="0,-38.5 132,-38.5 "/>
<text text-anchor="middle" x="66" y="-26.5" font-family="Helvetica,sans-Serif" font-size="10.00"> </text>
<polyline fill="none" stroke="black" points="0,-19.5 132,-19.5 "/>
<text text-anchor="middle" x="66" y="-7.5" font-family="Helvetica,sans-Serif" font-size="10.00"> </text>
</a>
</g>
</g>
<!-- Node2 -->
<g id="node2" class="node">
<title>Node2</title>
<g id="a_node2"><a xlink:href="structvolatile.html" target="_top" xlink:title="Description">
<polygon fill="white" stroke="black" points="43,-138.5 43,-195.5 89,-195.5 89,-138.5 43,-138.5"/>
<text text-anchor="middle" x="66" y="-183.5" font-family="Helvetica,sans-Serif" font-size="10.00">volatile</text>
<polyline fill="none" stroke="black" points="43,-176.5 89,-176.5 "/>
<text text-anchor="middle" x="66" y="-164.5" font-family="Helvetica,sans-Serif" font-size="10.00"> </text>
<polyline fill="none" stroke="black" points="43,-157.5 89,-157.5 "/>
<text text-anchor="middle" x="66" y="-145.5" font-family="Helvetica,sans-Serif" font-size="10.00"> </text>
</a>
</g>
</g>
<!-- Node2&#45;&gt;Node1 -->
<g id="edge1" class="edge">
<title>Node2&#45;&gt;Node1</title>
<path fill="none" stroke="#404040" d="M66,-138.48C66,-118.79 66,-91.99 66,-69.95"/>
<polygon fill="none" stroke="#404040" points="66,-69.95 62,-63.95 66,-57.95 70,-63.95 66,-69.95"/>
<text text-anchor="middle" x="121.5" y="-112" font-family="Helvetica,sans-Serif" font-size="10.00"> +AgcFactor</text>
<text text-anchor="middle" x="121.5" y="-101" font-family="Helvetica,sans-Serif" font-size="10.00">+AgcMedian</text>
<text text-anchor="middle" x="121.5" y="-90" font-family="Helvetica,sans-Serif" font-size="10.00">+AgcScaler</text>
<text text-anchor="middle" x="121.5" y="-79" font-family="Helvetica,sans-Serif" font-size="10.00">+ptrAgcObserverFunction</text>
</g>
</g>
</svg>
