<?xml version="1.0" encoding="UTF-8" standalone="no"?>
<!DOCTYPE svg PUBLIC "-//W3C//DTD SVG 1.1//EN"
 "http://www.w3.org/Graphics/SVG/1.1/DTD/svg11.dtd">
<!-- Generated by graphviz version 2.44.1 (20200629.0846)
 -->
<!-- Title: NPNZ_FILTER_PARAMS_s Pages: 1 -->
<svg width="188pt" height="314pt"
 viewBox="0.00 0.00 187.50 314.00" xmlns="http://www.w3.org/2000/svg" xmlns:xlink="http://www.w3.org/1999/xlink">
<g id="graph0" class="graph" transform="scale(1 1) rotate(0) translate(4 310)">
<title>NPNZ_FILTER_PARAMS_s</title>
<polygon fill="white" stroke="transparent" points="-4,4 -4,-310 183.5,-310 183.5,4 -4,4"/>
<!-- Node1 -->
<g id="node1" class="node">
<title>Node1</title>
<g id="a_node1"><a xlink:title=" ">
<polygon fill="#bfbfbf" stroke="black" points="0,-0.5 0,-90.5 137,-90.5 137,-0.5 0,-0.5"/>
<text text-anchor="middle" x="68.5" y="-78.5" font-family="Helvetica,sans-Serif" font-size="10.00">NPNZ_FILTER_PARAMS_s</text>
<polyline fill="none" stroke="black" points="0,-71.5 137,-71.5 "/>
<text text-anchor="start" x="8" y="-59.5" font-family="Helvetica,sans-Serif" font-size="10.00">+ ptrACoefficients</text>
<text text-anchor="start" x="8" y="-48.5" font-family="Helvetica,sans-Serif" font-size="10.00">+ ptrBCoefficients</text>
<text text-anchor="start" x="8" y="-37.5" font-family="Helvetica,sans-Serif" font-size="10.00">+ ptrControlHistory</text>
<text text-anchor="start" x="8" y="-26.5" font-family="Helvetica,sans-Serif" font-size="10.00">+ ptrErrorHistory</text>
<polyline fill="none" stroke="black" points="0,-19.5 137,-19.5 "/>
<text text-anchor="middle" x="68.5" y="-7.5" font-family="Helvetica,sans-Serif" font-size="10.00"> </text>
</a>
</g>
</g>
<!-- Node2 -->
<g id="node2" class="node">
<title>Node2</title>
<g id="a_node2"><a xlink:href="structvolatile.html" target="_top" xlink:title="Description">
<polygon fill="white" stroke="black" points="45.5,-248.5 45.5,-305.5 91.5,-305.5 91.5,-248.5 45.5,-248.5"/>
<text text-anchor="middle" x="68.5" y="-293.5" font-family="Helvetica,sans-Serif" font-size="10.00">volatile</text>
<polyline fill="none" stroke="black" points="45.5,-286.5 91.5,-286.5 "/>
<text text-anchor="middle" x="68.5" y="-274.5" font-family="Helvetica,sans-Serif" font-size="10.00"> </text>
<polyline fill="none" stroke="black" points="45.5,-267.5 91.5,-267.5 "/>
<text text-anchor="middle" x="68.5" y="-255.5" font-family="Helvetica,sans-Serif" font-size="10.00"> </text>
</a>
</g>
</g>
<!-- Node2&#45;&gt;Node1 -->
<g id="edge1" class="edge">
<title>Node2&#45;&gt;Node1</title>
<path fill="none" stroke="#404040" d="M68.5,-248.32C68.5,-212.5 68.5,-149.22 68.5,-103.04"/>
<polygon fill="none" stroke="#404040" points="68.5,-102.81 64.5,-96.81 68.5,-90.81 72.5,-96.81 68.5,-102.81"/>
<text text-anchor="middle" x="124" y="-222" font-family="Helvetica,sans-Serif" font-size="10.00"> +ACoefficientsArraySize</text>
<text text-anchor="middle" x="124" y="-211" font-family="Helvetica,sans-Serif" font-size="10.00">+BCoefficientsArraySize</text>
<text text-anchor="middle" x="124" y="-200" font-family="Helvetica,sans-Serif" font-size="10.00">+ControlHistoryArraySize</text>
<text text-anchor="middle" x="124" y="-189" font-family="Helvetica,sans-Serif" font-size="10.00">+ErrorHistoryArraySize</text>
<text text-anchor="middle" x="124" y="-178" font-family="Helvetica,sans-Serif" font-size="10.00">+PTermFactor</text>
<text text-anchor="middle" x="124" y="-167" font-family="Helvetica,sans-Serif" font-size="10.00">+PTermScaler</text>
<text text-anchor="middle" x="124" y="-156" font-family="Helvetica,sans-Serif" font-size="10.00">+normPostScaler</text>
<text text-anchor="middle" x="124" y="-145" font-family="Helvetica,sans-Serif" font-size="10.00">+normPostShiftA</text>
<text text-anchor="middle" x="124" y="-134" font-family="Helvetica,sans-Serif" font-size="10.00">+normPostShiftB</text>
<text text-anchor="middle" x="124" y="-123" font-family="Helvetica,sans-Serif" font-size="10.00">+normPreShift</text>
<text text-anchor="middle" x="124" y="-112" font-family="Helvetica,sans-Serif" font-size="10.00">...</text>
</g>
</g>
</svg>
