<?xml version="1.0" encoding="UTF-8" standalone="no"?>
<!DOCTYPE svg PUBLIC "-//W3C//DTD SVG 1.1//EN"
 "http://www.w3.org/Graphics/SVG/1.1/DTD/svg11.dtd">
<!-- Generated by graphviz version 2.44.1 (20200629.0846)
 -->
<!-- Title: BUCK_POWER_CONTROLLER_s Pages: 1 -->
<svg width="2018pt" height="992pt"
 viewBox="0.00 0.00 2017.50 992.00" xmlns="http://www.w3.org/2000/svg" xmlns:xlink="http://www.w3.org/1999/xlink">
<g id="graph0" class="graph" transform="scale(1 1) rotate(0) translate(4 988)">
<title>BUCK_POWER_CONTROLLER_s</title>
<polygon fill="white" stroke="transparent" points="-4,4 -4,-988 2013.5,-988 2013.5,4 -4,4"/>
<!-- Node1 -->
<g id="node1" class="node">
<title>Node1</title>
<g id="a_node1"><a xlink:title=" ">
<polygon fill="#bfbfbf" stroke="black" points="1187,-0.5 1187,-57.5 1354,-57.5 1354,-0.5 1187,-0.5"/>
<text text-anchor="middle" x="1270.5" y="-45.5" font-family="Helvetica,sans-Serif" font-size="10.00">BUCK_POWER_CONTROLLER_s</text>
<polyline fill="none" stroke="black" points="1187,-38.5 1354,-38.5 "/>
<text text-anchor="middle" x="1270.5" y="-26.5" font-family="Helvetica,sans-Serif" font-size="10.00"> </text>
<polyline fill="none" stroke="black" points="1187,-19.5 1354,-19.5 "/>
<text text-anchor="middle" x="1270.5" y="-7.5" font-family="Helvetica,sans-Serif" font-size="10.00"> </text>
</a>
</g>
</g>
<!-- Node2 -->
<g id="node2" class="node">
<title>Node2</title>
<g id="a_node2"><a xlink:href="struct_b_u_c_k___c_o_n_v_e_r_t_e_r___s_t_a_t_u_s__s.html" target="_top" xlink:title="Generic power controller status word.">
<polygon fill="white" stroke="black" points="482.5,-116.5 482.5,-316.5 644.5,-316.5 644.5,-116.5 482.5,-116.5"/>
<text text-anchor="middle" x="563.5" y="-304.5" font-family="Helvetica,sans-Serif" font-size="10.00">BUCK_CONVERTER_STATUS_s</text>
<polyline fill="none" stroke="black" points="482.5,-297.5 644.5,-297.5 "/>
<text text-anchor="start" x="490.5" y="-285.5" font-family="Helvetica,sans-Serif" font-size="10.00">+ ready</text>
<text text-anchor="start" x="490.5" y="-274.5" font-family="Helvetica,sans-Serif" font-size="10.00">+ adc_active</text>
<text text-anchor="start" x="490.5" y="-263.5" font-family="Helvetica,sans-Serif" font-size="10.00">+ pwm_active</text>
<text text-anchor="start" x="490.5" y="-252.5" font-family="Helvetica,sans-Serif" font-size="10.00">+ unsigned</text>
<text text-anchor="start" x="490.5" y="-241.5" font-family="Helvetica,sans-Serif" font-size="10.00">+ cs_calib_complete</text>
<text text-anchor="start" x="490.5" y="-230.5" font-family="Helvetica,sans-Serif" font-size="10.00">+ fault_active</text>
<text text-anchor="start" x="490.5" y="-219.5" font-family="Helvetica,sans-Serif" font-size="10.00">+ busy</text>
<text text-anchor="start" x="490.5" y="-208.5" font-family="Helvetica,sans-Serif" font-size="10.00">+ cs_calib_enable</text>
<text text-anchor="start" x="490.5" y="-197.5" font-family="Helvetica,sans-Serif" font-size="10.00">+ suspend</text>
<text text-anchor="start" x="490.5" y="-186.5" font-family="Helvetica,sans-Serif" font-size="10.00">+ GO</text>
<text text-anchor="start" x="490.5" y="-175.5" font-family="Helvetica,sans-Serif" font-size="10.00">+ autorun</text>
<text text-anchor="start" x="490.5" y="-164.5" font-family="Helvetica,sans-Serif" font-size="10.00">+ enabled</text>
<text text-anchor="start" x="490.5" y="-153.5" font-family="Helvetica,sans-Serif" font-size="10.00">+ value</text>
<text text-anchor="start" x="490.5" y="-142.5" font-family="Helvetica,sans-Serif" font-size="10.00">+ @1</text>
<polyline fill="none" stroke="black" points="482.5,-135.5 644.5,-135.5 "/>
<text text-anchor="middle" x="563.5" y="-123.5" font-family="Helvetica,sans-Serif" font-size="10.00"> </text>
</a>
</g>
</g>
<!-- Node2&#45;&gt;Node1 -->
<g id="edge1" class="edge">
<title>Node2&#45;&gt;Node1</title>
<path fill="none" stroke="#404040" d="M644.58,-121.66C647.51,-119.65 650.48,-117.76 653.5,-116 739.96,-65.61 1023.81,-43.13 1174.51,-34.55"/>
<polygon fill="none" stroke="#404040" points="1174.91,-34.52 1180.68,-30.19 1186.9,-33.85 1181.13,-38.18 1174.91,-34.52"/>
<text text-anchor="middle" x="797" y="-84.5" font-family="Helvetica,sans-Serif" font-size="10.00"> +status</text>
</g>
<!-- Node3 -->
<g id="node3" class="node">
<title>Node3</title>
<g id="a_node3"><a xlink:href="struct_b_u_c_k___c_o_n_v_e_r_t_e_r___d_a_t_a__s.html" target="_top" xlink:title=" ">
<polygon fill="white" stroke="black" points="662.5,-149.5 662.5,-283.5 812.5,-283.5 812.5,-149.5 662.5,-149.5"/>
<text text-anchor="middle" x="737.5" y="-271.5" font-family="Helvetica,sans-Serif" font-size="10.00">BUCK_CONVERTER_DATA_s</text>
<polyline fill="none" stroke="black" points="662.5,-264.5 812.5,-264.5 "/>
<text text-anchor="start" x="670.5" y="-252.5" font-family="Helvetica,sans-Serif" font-size="10.00">+ i_sns</text>
<text text-anchor="start" x="670.5" y="-241.5" font-family="Helvetica,sans-Serif" font-size="10.00">+ i_out</text>
<text text-anchor="start" x="670.5" y="-230.5" font-family="Helvetica,sans-Serif" font-size="10.00">+ v_in</text>
<text text-anchor="start" x="670.5" y="-219.5" font-family="Helvetica,sans-Serif" font-size="10.00">+ v_out</text>
<text text-anchor="start" x="670.5" y="-208.5" font-family="Helvetica,sans-Serif" font-size="10.00">+ temp</text>
<text text-anchor="start" x="670.5" y="-197.5" font-family="Helvetica,sans-Serif" font-size="10.00">+ control_input</text>
<text text-anchor="start" x="670.5" y="-186.5" font-family="Helvetica,sans-Serif" font-size="10.00">+ control_error</text>
<text text-anchor="start" x="670.5" y="-175.5" font-family="Helvetica,sans-Serif" font-size="10.00">+ control_output</text>
<polyline fill="none" stroke="black" points="662.5,-168.5 812.5,-168.5 "/>
<text text-anchor="middle" x="737.5" y="-156.5" font-family="Helvetica,sans-Serif" font-size="10.00"> </text>
</a>
</g>
</g>
<!-- Node3&#45;&gt;Node1 -->
<g id="edge2" class="edge">
<title>Node3&#45;&gt;Node1</title>
<path fill="none" stroke="#404040" d="M782.17,-149.49C793.61,-136.68 806.88,-124.58 821.5,-116 880.11,-81.6 1061.25,-54.74 1174.74,-40.72"/>
<polygon fill="none" stroke="#404040" points="1174.96,-40.7 1180.43,-36 1186.87,-39.24 1181.4,-43.94 1174.96,-40.7"/>
<text text-anchor="middle" x="960.5" y="-84.5" font-family="Helvetica,sans-Serif" font-size="10.00"> +data</text>
</g>
<!-- Node4 -->
<g id="node4" class="node">
<title>Node4</title>
<g id="a_node4"><a xlink:href="struct_b_u_c_k___s_w_i_t_c_h___n_o_d_e___s_e_t_t_i_n_g_s__s.html" target="_top" xlink:title="Generic power converter switch&#45;node specifications.">
<polygon fill="white" stroke="black" points="830.5,-133 830.5,-300 1012.5,-300 1012.5,-133 830.5,-133"/>
<text text-anchor="middle" x="921.5" y="-288" font-family="Helvetica,sans-Serif" font-size="10.00">BUCK_SWITCH_NODE_SETTINGS_s</text>
<polyline fill="none" stroke="black" points="830.5,-281 1012.5,-281 "/>
<text text-anchor="start" x="838.5" y="-269" font-family="Helvetica,sans-Serif" font-size="10.00">+ pwm_instance</text>
<text text-anchor="start" x="838.5" y="-258" font-family="Helvetica,sans-Serif" font-size="10.00">+ gpio_instance</text>
<text text-anchor="start" x="838.5" y="-247" font-family="Helvetica,sans-Serif" font-size="10.00">+ gpio_high</text>
<text text-anchor="start" x="838.5" y="-236" font-family="Helvetica,sans-Serif" font-size="10.00">+ gpio_low</text>
<text text-anchor="start" x="838.5" y="-225" font-family="Helvetica,sans-Serif" font-size="10.00">+ master_period_enable</text>
<text text-anchor="start" x="838.5" y="-214" font-family="Helvetica,sans-Serif" font-size="10.00">+ high_resolution_enable</text>
<text text-anchor="start" x="838.5" y="-203" font-family="Helvetica,sans-Serif" font-size="10.00">+ period</text>
<text text-anchor="start" x="838.5" y="-192" font-family="Helvetica,sans-Serif" font-size="10.00">+ phase</text>
<text text-anchor="start" x="838.5" y="-181" font-family="Helvetica,sans-Serif" font-size="10.00">+ duty_ratio_init</text>
<text text-anchor="start" x="838.5" y="-170" font-family="Helvetica,sans-Serif" font-size="10.00">+ duty_ratio_min</text>
<text text-anchor="start" x="838.5" y="-159" font-family="Helvetica,sans-Serif" font-size="10.00">and 6 more...</text>
<polyline fill="none" stroke="black" points="830.5,-152 1012.5,-152 "/>
<text text-anchor="middle" x="921.5" y="-140" font-family="Helvetica,sans-Serif" font-size="10.00"> </text>
</a>
</g>
</g>
<!-- Node4&#45;&gt;Node1 -->
<g id="edge3" class="edge">
<title>Node4&#45;&gt;Node1</title>
<path fill="none" stroke="#404040" d="M998.07,-132.88C1005.64,-126.73 1013.5,-120.99 1021.5,-116 1068.46,-86.71 1126.67,-65.89 1174.99,-52.08"/>
<polygon fill="none" stroke="#404040" points="1175.18,-52.03 1179.88,-46.57 1186.74,-48.81 1182.03,-54.27 1175.18,-52.03"/>
<text text-anchor="middle" x="1123.5" y="-84.5" font-family="Helvetica,sans-Serif" font-size="10.00"> +sw_node</text>
</g>
<!-- Node5 -->
<g id="node5" class="node">
<title>Node5</title>
<g id="a_node5"><a xlink:href="struct_b_u_c_k___l_o_o_p___s_e_t_t_i_n_g_s__s.html" target="_top" xlink:title="Buck converter main settings">
<polygon fill="white" stroke="black" points="1031,-144 1031,-289 1170,-289 1170,-144 1031,-144"/>
<text text-anchor="middle" x="1100.5" y="-277" font-family="Helvetica,sans-Serif" font-size="10.00">BUCK_LOOP_SETTINGS_s</text>
<polyline fill="none" stroke="black" points="1031,-270 1170,-270 "/>
<text text-anchor="start" x="1039" y="-258" font-family="Helvetica,sans-Serif" font-size="10.00">+ reference</text>
<text text-anchor="start" x="1039" y="-247" font-family="Helvetica,sans-Serif" font-size="10.00">+ feedback_offset</text>
<text text-anchor="start" x="1039" y="-236" font-family="Helvetica,sans-Serif" font-size="10.00">+ trigger_offset</text>
<text text-anchor="start" x="1039" y="-225" font-family="Helvetica,sans-Serif" font-size="10.00">+ minimum</text>
<text text-anchor="start" x="1039" y="-214" font-family="Helvetica,sans-Serif" font-size="10.00">+ maximum</text>
<text text-anchor="start" x="1039" y="-203" font-family="Helvetica,sans-Serif" font-size="10.00">+ ctrl_Initialize</text>
<text text-anchor="start" x="1039" y="-192" font-family="Helvetica,sans-Serif" font-size="10.00">+ ctrl_Reset</text>
<text text-anchor="start" x="1039" y="-181" font-family="Helvetica,sans-Serif" font-size="10.00">+ ctrl_Update</text>
<text text-anchor="start" x="1039" y="-170" font-family="Helvetica,sans-Serif" font-size="10.00">+ ctrl_Precharge</text>
<polyline fill="none" stroke="black" points="1031,-163 1170,-163 "/>
<text text-anchor="middle" x="1100.5" y="-151" font-family="Helvetica,sans-Serif" font-size="10.00"> </text>
</a>
</g>
</g>
<!-- Node5&#45;&gt;Node1 -->
<g id="edge4" class="edge">
<title>Node5&#45;&gt;Node1</title>
<path fill="none" stroke="#404040" d="M1154.38,-144C1162.24,-134.39 1170.42,-124.82 1178.5,-116 1194.31,-98.76 1212.97,-80.9 1229.35,-65.96"/>
<polygon fill="none" stroke="#404040" points="1229.78,-65.57 1231.55,-58.58 1238.68,-57.53 1236.91,-64.52 1229.78,-65.57"/>
<text text-anchor="middle" x="1236" y="-90" font-family="Helvetica,sans-Serif" font-size="10.00"> +i_loop</text>
<text text-anchor="middle" x="1236" y="-79" font-family="Helvetica,sans-Serif" font-size="10.00">+v_loop</text>
</g>
<!-- Node6 -->
<g id="node6" class="node">
<title>Node6</title>
<g id="a_node6"><a xlink:href="struct_n_p_n_z16b__s.html" target="_top" xlink:title=" ">
<polygon fill="white" stroke="black" points="709.5,-452.5 709.5,-509.5 777.5,-509.5 777.5,-452.5 709.5,-452.5"/>
<text text-anchor="middle" x="743.5" y="-497.5" font-family="Helvetica,sans-Serif" font-size="10.00">NPNZ16b_s</text>
<polyline fill="none" stroke="black" points="709.5,-490.5 777.5,-490.5 "/>
<text text-anchor="middle" x="743.5" y="-478.5" font-family="Helvetica,sans-Serif" font-size="10.00"> </text>
<polyline fill="none" stroke="black" points="709.5,-471.5 777.5,-471.5 "/>
<text text-anchor="middle" x="743.5" y="-459.5" font-family="Helvetica,sans-Serif" font-size="10.00"> </text>
</a>
</g>
</g>
<!-- Node6&#45;&gt;Node5 -->
<g id="edge5" class="edge">
<title>Node6&#45;&gt;Node5</title>
<path fill="none" stroke="#404040" d="M777.76,-465C832.97,-439.77 943.35,-384.86 1021.5,-317 1028.08,-311.28 1034.52,-304.96 1040.69,-298.35"/>
<polygon fill="none" stroke="#404040" points="1040.91,-298.11 1041.95,-290.98 1048.94,-289.2 1047.9,-296.33 1040.91,-298.11"/>
<text text-anchor="middle" x="1019" y="-354.5" font-family="Helvetica,sans-Serif" font-size="10.00"> +controller</text>
</g>
<!-- Node7 -->
<g id="node7" class="node">
<title>Node7</title>
<g id="a_node7"><a xlink:href="struct_n_p_n_z___a_d_c___t_r_g_c_t_r_l__s.html" target="_top" xlink:title=" ">
<polygon fill="white" stroke="black" points="0,-667.5 0,-757.5 129,-757.5 129,-667.5 0,-667.5"/>
<text text-anchor="middle" x="64.5" y="-745.5" font-family="Helvetica,sans-Serif" font-size="10.00">NPNZ_ADC_TRGCTRL_s</text>
<polyline fill="none" stroke="black" points="0,-738.5 129,-738.5 "/>
<text text-anchor="start" x="8" y="-726.5" font-family="Helvetica,sans-Serif" font-size="10.00">+ ptrADCTriggerARegister</text>
<text text-anchor="start" x="8" y="-715.5" font-family="Helvetica,sans-Serif" font-size="10.00">+ ADCTriggerAOffset</text>
<text text-anchor="start" x="8" y="-704.5" font-family="Helvetica,sans-Serif" font-size="10.00">+ ptrADCTriggerBRegister</text>
<text text-anchor="start" x="8" y="-693.5" font-family="Helvetica,sans-Serif" font-size="10.00">+ ADCTriggerBOffset</text>
<polyline fill="none" stroke="black" points="0,-686.5 129,-686.5 "/>
<text text-anchor="middle" x="64.5" y="-674.5" font-family="Helvetica,sans-Serif" font-size="10.00"> </text>
</a>
</g>
</g>
<!-- Node7&#45;&gt;Node6 -->
<g id="edge6" class="edge">
<title>Node7&#45;&gt;Node6</title>
<path fill="none" stroke="#404040" d="M88.87,-667.41C101.48,-648.07 118.45,-626.52 138.5,-612 228.95,-546.53 571.38,-501.67 696.96,-487.12"/>
<polygon fill="none" stroke="#404040" points="697.19,-487.09 702.7,-482.43 709.11,-485.72 703.61,-490.38 697.19,-487.09"/>
<text text-anchor="middle" x="239.5" y="-586" font-family="Helvetica,sans-Serif" font-size="10.00"> +ADCTriggerControl</text>
</g>
<!-- Node8 -->
<g id="node8" class="node">
<title>Node8</title>
<g id="a_node8"><a xlink:href="struct_n_p_n_z___g_a_i_n___c_o_n_t_r_o_l__s.html" target="_top" xlink:title=" ">
<polygon fill="white" stroke="black" points="147.5,-667.5 147.5,-757.5 279.5,-757.5 279.5,-667.5 147.5,-667.5"/>
<text text-anchor="middle" x="213.5" y="-745.5" font-family="Helvetica,sans-Serif" font-size="10.00">NPNZ_GAIN_CONTROL_s</text>
<polyline fill="none" stroke="black" points="147.5,-738.5 279.5,-738.5 "/>
<text text-anchor="start" x="155.5" y="-726.5" font-family="Helvetica,sans-Serif" font-size="10.00">+ AgcScaler</text>
<text text-anchor="start" x="155.5" y="-715.5" font-family="Helvetica,sans-Serif" font-size="10.00">+ AgcFactor</text>
<text text-anchor="start" x="155.5" y="-704.5" font-family="Helvetica,sans-Serif" font-size="10.00">+ AgcMedian</text>
<text text-anchor="start" x="155.5" y="-693.5" font-family="Helvetica,sans-Serif" font-size="10.00">+ ptrAgcObserverFunction</text>
<polyline fill="none" stroke="black" points="147.5,-686.5 279.5,-686.5 "/>
<text text-anchor="middle" x="213.5" y="-674.5" font-family="Helvetica,sans-Serif" font-size="10.00"> </text>
</a>
</g>
</g>
<!-- Node8&#45;&gt;Node6 -->
<g id="edge7" class="edge">
<title>Node8&#45;&gt;Node6</title>
<path fill="none" stroke="#404040" d="M239.66,-667.29C252.52,-648.39 269.37,-627.22 288.5,-612 412.69,-513.15 608.59,-489.46 697.22,-483.79"/>
<polygon fill="none" stroke="#404040" points="697.26,-483.78 703.02,-479.44 709.24,-483.09 703.49,-487.43 697.26,-483.78"/>
<text text-anchor="middle" x="361" y="-586" font-family="Helvetica,sans-Serif" font-size="10.00"> +GainControl</text>
</g>
<!-- Node9 -->
<g id="node9" class="node">
<title>Node9</title>
<g id="a_node9"><a xlink:href="struct_n_p_n_z___l_i_m_i_t_s__s.html" target="_top" xlink:title=" ">
<polygon fill="white" stroke="black" points="297.5,-667.5 297.5,-757.5 385.5,-757.5 385.5,-667.5 297.5,-667.5"/>
<text text-anchor="middle" x="341.5" y="-745.5" font-family="Helvetica,sans-Serif" font-size="10.00">NPNZ_LIMITS_s</text>
<polyline fill="none" stroke="black" points="297.5,-738.5 385.5,-738.5 "/>
<text text-anchor="start" x="305.5" y="-726.5" font-family="Helvetica,sans-Serif" font-size="10.00">+ MinOutput</text>
<text text-anchor="start" x="305.5" y="-715.5" font-family="Helvetica,sans-Serif" font-size="10.00">+ MaxOutput</text>
<text text-anchor="start" x="305.5" y="-704.5" font-family="Helvetica,sans-Serif" font-size="10.00">+ AltMinOutput</text>
<text text-anchor="start" x="305.5" y="-693.5" font-family="Helvetica,sans-Serif" font-size="10.00">+ AltMaxOutput</text>
<polyline fill="none" stroke="black" points="297.5,-686.5 385.5,-686.5 "/>
<text text-anchor="middle" x="341.5" y="-674.5" font-family="Helvetica,sans-Serif" font-size="10.00"> </text>
</a>
</g>
</g>
<!-- Node9&#45;&gt;Node6 -->
<g id="edge8" class="edge">
<title>Node9&#45;&gt;Node6</title>
<path fill="none" stroke="#404040" d="M356.72,-667.44C365.26,-648.22 377.64,-626.76 394.5,-612 483.89,-533.77 624.72,-500.87 697.12,-488.53"/>
<polygon fill="none" stroke="#404040" points="697.55,-488.46 702.83,-483.54 709.4,-486.52 704.12,-491.44 697.55,-488.46"/>
<text text-anchor="middle" x="444.5" y="-586" font-family="Helvetica,sans-Serif" font-size="10.00"> +Limits</text>
</g>
<!-- Node10 -->
<g id="node10" class="node">
<title>Node10</title>
<g id="a_node10"><a xlink:href="struct_n_p_n_z___u_s_e_r___d_a_t_a___b_u_f_f_e_r__s.html" target="_top" xlink:title=" ">
<polygon fill="white" stroke="black" points="403.5,-667.5 403.5,-757.5 563.5,-757.5 563.5,-667.5 403.5,-667.5"/>
<text text-anchor="middle" x="483.5" y="-745.5" font-family="Helvetica,sans-Serif" font-size="10.00">NPNZ_USER_DATA_BUFFER_s</text>
<polyline fill="none" stroke="black" points="403.5,-738.5 563.5,-738.5 "/>
<text text-anchor="start" x="411.5" y="-726.5" font-family="Helvetica,sans-Serif" font-size="10.00">+ usrParam1</text>
<text text-anchor="start" x="411.5" y="-715.5" font-family="Helvetica,sans-Serif" font-size="10.00">+ usrParam2</text>
<text text-anchor="start" x="411.5" y="-704.5" font-family="Helvetica,sans-Serif" font-size="10.00">+ usrParam3</text>
<text text-anchor="start" x="411.5" y="-693.5" font-family="Helvetica,sans-Serif" font-size="10.00">+ usrParam4</text>
<polyline fill="none" stroke="black" points="403.5,-686.5 563.5,-686.5 "/>
<text text-anchor="middle" x="483.5" y="-674.5" font-family="Helvetica,sans-Serif" font-size="10.00"> </text>
</a>
</g>
</g>
<!-- Node10&#45;&gt;Node6 -->
<g id="edge9" class="edge">
<title>Node10&#45;&gt;Node6</title>
<path fill="none" stroke="#404040" d="M519.9,-667.21C535.4,-649.34 554.11,-628.98 572.5,-612 612.9,-574.7 663.49,-537.24 699.13,-512.18"/>
<polygon fill="none" stroke="#404040" points="699.38,-512 702.01,-505.29 709.22,-505.13 706.59,-511.85 699.38,-512"/>
<text text-anchor="middle" x="629.5" y="-586" font-family="Helvetica,sans-Serif" font-size="10.00"> +Advanced</text>
</g>
<!-- Node11 -->
<g id="node11" class="node">
<title>Node11</title>
<g id="a_node11"><a xlink:href="struct_n_p_n_z___p_o_r_t_s__s.html" target="_top" xlink:title=" ">
<polygon fill="white" stroke="black" points="582,-684 582,-741 693,-741 693,-684 582,-684"/>
<text text-anchor="middle" x="637.5" y="-729" font-family="Helvetica,sans-Serif" font-size="10.00">NPNZ_PORTS_s</text>
<polyline fill="none" stroke="black" points="582,-722 693,-722 "/>
<text text-anchor="start" x="590" y="-710" font-family="Helvetica,sans-Serif" font-size="10.00">+ ptrControlReference</text>
<polyline fill="none" stroke="black" points="582,-703 693,-703 "/>
<text text-anchor="middle" x="637.5" y="-691" font-family="Helvetica,sans-Serif" font-size="10.00"> </text>
</a>
</g>
</g>
<!-- Node11&#45;&gt;Node6 -->
<g id="edge10" class="edge">
<title>Node11&#45;&gt;Node6</title>
<path fill="none" stroke="#404040" d="M650.29,-683.82C669.07,-643.15 704.2,-567.1 725.55,-520.86"/>
<polygon fill="none" stroke="#404040" points="725.64,-520.68 724.52,-513.55 730.67,-509.78 731.78,-516.91 725.64,-520.68"/>
<text text-anchor="middle" x="714" y="-586" font-family="Helvetica,sans-Serif" font-size="10.00"> +Ports</text>
</g>
<!-- Node12 -->
<g id="node12" class="node">
<title>Node12</title>
<g id="a_node12"><a xlink:href="struct_n_p_n_z___p_o_r_t__s.html" target="_top" xlink:title=" ">
<polygon fill="white" stroke="black" points="595.5,-893.5 595.5,-983.5 679.5,-983.5 679.5,-893.5 595.5,-893.5"/>
<text text-anchor="middle" x="637.5" y="-971.5" font-family="Helvetica,sans-Serif" font-size="10.00">NPNZ_PORT_s</text>
<polyline fill="none" stroke="black" points="595.5,-964.5 679.5,-964.5 "/>
<text text-anchor="start" x="603.5" y="-952.5" font-family="Helvetica,sans-Serif" font-size="10.00">+ ptrAddress</text>
<text text-anchor="start" x="603.5" y="-941.5" font-family="Helvetica,sans-Serif" font-size="10.00">+ NormScaler</text>
<text text-anchor="start" x="603.5" y="-930.5" font-family="Helvetica,sans-Serif" font-size="10.00">+ NormFactor</text>
<text text-anchor="start" x="603.5" y="-919.5" font-family="Helvetica,sans-Serif" font-size="10.00">+ Offset</text>
<polyline fill="none" stroke="black" points="595.5,-912.5 679.5,-912.5 "/>
<text text-anchor="middle" x="637.5" y="-900.5" font-family="Helvetica,sans-Serif" font-size="10.00"> </text>
</a>
</g>
</g>
<!-- Node12&#45;&gt;Node11 -->
<g id="edge11" class="edge">
<title>Node12&#45;&gt;Node11</title>
<path fill="none" stroke="#404040" d="M637.5,-893.24C637.5,-852.49 637.5,-792.57 637.5,-753.29"/>
<polygon fill="none" stroke="#404040" points="637.5,-753.07 633.5,-747.07 637.5,-741.07 641.5,-747.07 637.5,-753.07"/>
<text text-anchor="middle" x="663.5" y="-867" font-family="Helvetica,sans-Serif" font-size="10.00"> +AltSource</text>
<text text-anchor="middle" x="663.5" y="-856" font-family="Helvetica,sans-Serif" font-size="10.00">+AltTarget</text>
<text text-anchor="middle" x="663.5" y="-845" font-family="Helvetica,sans-Serif" font-size="10.00">+Source</text>
<text text-anchor="middle" x="663.5" y="-834" font-family="Helvetica,sans-Serif" font-size="10.00">+Target</text>
</g>
<!-- Node13 -->
<g id="node13" class="node">
<title>Node13</title>
<g id="a_node13"><a xlink:href="struct_n_p_n_z___f_i_l_t_e_r___p_a_r_a_m_s__s.html" target="_top" xlink:title=" ">
<polygon fill="white" stroke="black" points="711,-612.5 711,-812.5 848,-812.5 848,-612.5 711,-612.5"/>
<text text-anchor="middle" x="779.5" y="-800.5" font-family="Helvetica,sans-Serif" font-size="10.00">NPNZ_FILTER_PARAMS_s</text>
<polyline fill="none" stroke="black" points="711,-793.5 848,-793.5 "/>
<text text-anchor="start" x="719" y="-781.5" font-family="Helvetica,sans-Serif" font-size="10.00">+ ptrACoefficients</text>
<text text-anchor="start" x="719" y="-770.5" font-family="Helvetica,sans-Serif" font-size="10.00">+ ptrBCoefficients</text>
<text text-anchor="start" x="719" y="-759.5" font-family="Helvetica,sans-Serif" font-size="10.00">+ ptrControlHistory</text>
<text text-anchor="start" x="719" y="-748.5" font-family="Helvetica,sans-Serif" font-size="10.00">+ ptrErrorHistory</text>
<text text-anchor="start" x="719" y="-737.5" font-family="Helvetica,sans-Serif" font-size="10.00">+ ACoefficientsArraySize</text>
<text text-anchor="start" x="719" y="-726.5" font-family="Helvetica,sans-Serif" font-size="10.00">+ BCoefficientsArraySize</text>
<text text-anchor="start" x="719" y="-715.5" font-family="Helvetica,sans-Serif" font-size="10.00">+ ControlHistoryArraySize</text>
<text text-anchor="start" x="719" y="-704.5" font-family="Helvetica,sans-Serif" font-size="10.00">+ ErrorHistoryArraySize</text>
<text text-anchor="start" x="719" y="-693.5" font-family="Helvetica,sans-Serif" font-size="10.00">+ normPreShift</text>
<text text-anchor="start" x="719" y="-682.5" font-family="Helvetica,sans-Serif" font-size="10.00">+ normPostShiftA</text>
<text text-anchor="start" x="719" y="-671.5" font-family="Helvetica,sans-Serif" font-size="10.00">+ normPostShiftB</text>
<text text-anchor="start" x="719" y="-660.5" font-family="Helvetica,sans-Serif" font-size="10.00">+ normPostScaler</text>
<text text-anchor="start" x="719" y="-649.5" font-family="Helvetica,sans-Serif" font-size="10.00">+ PTermScaler</text>
<text text-anchor="start" x="719" y="-638.5" font-family="Helvetica,sans-Serif" font-size="10.00">+ PTermFactor</text>
<polyline fill="none" stroke="black" points="711,-631.5 848,-631.5 "/>
<text text-anchor="middle" x="779.5" y="-619.5" font-family="Helvetica,sans-Serif" font-size="10.00"> </text>
</a>
</g>
</g>
<!-- Node13&#45;&gt;Node6 -->
<g id="edge12" class="edge">
<title>Node13&#45;&gt;Node6</title>
<path fill="none" stroke="#404040" d="M763.92,-612.17C758.91,-580.25 753.65,-546.71 749.72,-521.67"/>
<polygon fill="none" stroke="#404040" points="749.71,-521.61 744.83,-516.31 747.85,-509.76 752.74,-515.07 749.71,-521.61"/>
<text text-anchor="middle" x="776" y="-586" font-family="Helvetica,sans-Serif" font-size="10.00"> +Filter</text>
</g>
<!-- Node14 -->
<g id="node14" class="node">
<title>Node14</title>
<g id="a_node14"><a xlink:href="struct_n_p_n_z___c_a_s_c_a_d_e___t_r_g__s.html" target="_top" xlink:title=" ">
<polygon fill="white" stroke="black" points="866,-678.5 866,-746.5 1001,-746.5 1001,-678.5 866,-678.5"/>
<text text-anchor="middle" x="933.5" y="-734.5" font-family="Helvetica,sans-Serif" font-size="10.00">NPNZ_CASCADE_TRG_s</text>
<polyline fill="none" stroke="black" points="866,-727.5 1001,-727.5 "/>
<text text-anchor="start" x="874" y="-715.5" font-family="Helvetica,sans-Serif" font-size="10.00">+ ptrCascadedFunction</text>
<text text-anchor="start" x="874" y="-704.5" font-family="Helvetica,sans-Serif" font-size="10.00">+ CascadedFunctionParam</text>
<polyline fill="none" stroke="black" points="866,-697.5 1001,-697.5 "/>
<text text-anchor="middle" x="933.5" y="-685.5" font-family="Helvetica,sans-Serif" font-size="10.00"> </text>
</a>
</g>
</g>
<!-- Node14&#45;&gt;Node6 -->
<g id="edge13" class="edge">
<title>Node14&#45;&gt;Node6</title>
<path fill="none" stroke="#404040" d="M908.65,-678.42C893.78,-658.88 874.37,-633.78 856.5,-612 830.15,-579.88 799.11,-544.33 776.24,-518.54"/>
<polygon fill="none" stroke="#404040" points="776.18,-518.47 769.21,-516.64 768.21,-509.5 775.19,-511.33 776.18,-518.47"/>
<text text-anchor="middle" x="881" y="-586" font-family="Helvetica,sans-Serif" font-size="10.00"> +CascadeTrigger</text>
</g>
<!-- Node15 -->
<g id="node15" class="node">
<title>Node15</title>
<g id="a_node15"><a xlink:href="struct_n_p_n_z___d_a_t_a___p_r_o_v_i_d_e_r_s__s.html" target="_top" xlink:title=" ">
<polygon fill="white" stroke="black" points="1019.5,-667.5 1019.5,-757.5 1193.5,-757.5 1193.5,-667.5 1019.5,-667.5"/>
<text text-anchor="middle" x="1106.5" y="-745.5" font-family="Helvetica,sans-Serif" font-size="10.00">NPNZ_DATA_PROVIDERS_s</text>
<polyline fill="none" stroke="black" points="1019.5,-738.5 1193.5,-738.5 "/>
<text text-anchor="start" x="1027.5" y="-726.5" font-family="Helvetica,sans-Serif" font-size="10.00">+ ptrDProvControlInput</text>
<text text-anchor="start" x="1027.5" y="-715.5" font-family="Helvetica,sans-Serif" font-size="10.00">+ ptrDProvControlInputCompensated</text>
<text text-anchor="start" x="1027.5" y="-704.5" font-family="Helvetica,sans-Serif" font-size="10.00">+ ptrDProvControlError</text>
<text text-anchor="start" x="1027.5" y="-693.5" font-family="Helvetica,sans-Serif" font-size="10.00">+ ptrDProvControlOutput</text>
<polyline fill="none" stroke="black" points="1019.5,-686.5 1193.5,-686.5 "/>
<text text-anchor="middle" x="1106.5" y="-674.5" font-family="Helvetica,sans-Serif" font-size="10.00"> </text>
</a>
</g>
</g>
<!-- Node15&#45;&gt;Node6 -->
<g id="edge14" class="edge">
<title>Node15&#45;&gt;Node6</title>
<path fill="none" stroke="#404040" d="M1069.5,-667.26C1052.5,-648.68 1031.29,-627.77 1009.5,-612 938.7,-560.77 844.61,-520.25 789.4,-498.8"/>
<polygon fill="none" stroke="#404040" points="789.1,-498.69 782.07,-500.28 777.9,-494.4 784.93,-492.81 789.1,-498.69"/>
<text text-anchor="middle" x="1018.5" y="-586" font-family="Helvetica,sans-Serif" font-size="10.00"> +DataProviders</text>
</g>
<!-- Node16 -->
<g id="node16" class="node">
<title>Node16</title>
<g id="a_node16"><a xlink:href="struct_n_p_n_z___s_t_a_t_u_s__s.html" target="_top" xlink:title=" ">
<polygon fill="white" stroke="black" points="1212,-640 1212,-785 1337,-785 1337,-640 1212,-640"/>
<text text-anchor="middle" x="1274.5" y="-773" font-family="Helvetica,sans-Serif" font-size="10.00">NPNZ_STATUS_s</text>
<polyline fill="none" stroke="black" points="1212,-766 1337,-766 "/>
<text text-anchor="start" x="1220" y="-754" font-family="Helvetica,sans-Serif" font-size="10.00">+ lower_saturation_event</text>
<text text-anchor="start" x="1220" y="-743" font-family="Helvetica,sans-Serif" font-size="10.00">+ upper_saturation_event</text>
<text text-anchor="start" x="1220" y="-732" font-family="Helvetica,sans-Serif" font-size="10.00">+ unsigned</text>
<text text-anchor="start" x="1220" y="-721" font-family="Helvetica,sans-Serif" font-size="10.00">+ agc_enabled</text>
<text text-anchor="start" x="1220" y="-710" font-family="Helvetica,sans-Serif" font-size="10.00">+ swap_target</text>
<text text-anchor="start" x="1220" y="-699" font-family="Helvetica,sans-Serif" font-size="10.00">+ swap_source</text>
<text text-anchor="start" x="1220" y="-688" font-family="Helvetica,sans-Serif" font-size="10.00">+ invert_input</text>
<text text-anchor="start" x="1220" y="-677" font-family="Helvetica,sans-Serif" font-size="10.00">+ enabled</text>
<text text-anchor="start" x="1220" y="-666" font-family="Helvetica,sans-Serif" font-size="10.00">+ value</text>
<polyline fill="none" stroke="black" points="1212,-659 1337,-659 "/>
<text text-anchor="middle" x="1274.5" y="-647" font-family="Helvetica,sans-Serif" font-size="10.00"> </text>
</a>
</g>
</g>
<!-- Node16&#45;&gt;Node6 -->
<g id="edge15" class="edge">
<title>Node16&#45;&gt;Node6</title>
<path fill="none" stroke="#404040" d="M1232,-639.98C1223.3,-629.47 1213.42,-619.64 1202.5,-612 1071.66,-520.51 877.6,-493.09 789.73,-485.13"/>
<polygon fill="none" stroke="#404040" points="789.51,-485.11 783.19,-488.59 777.55,-484.09 783.87,-480.62 789.51,-485.11"/>
<text text-anchor="middle" x="1189" y="-586" font-family="Helvetica,sans-Serif" font-size="10.00"> +status</text>
</g>
<!-- Node17 -->
<g id="node17" class="node">
<title>Node17</title>
<g id="a_node17"><a xlink:href="struct_b_u_c_k___f_e_e_d_b_a_c_k___s_e_t_t_i_n_g_s__s.html" target="_top" xlink:title=" ">
<polygon fill="white" stroke="black" points="1188,-188 1188,-245 1353,-245 1353,-188 1188,-188"/>
<text text-anchor="middle" x="1270.5" y="-233" font-family="Helvetica,sans-Serif" font-size="10.00">BUCK_FEEDBACK_SETTINGS_s</text>
<polyline fill="none" stroke="black" points="1188,-226 1353,-226 "/>
<text text-anchor="middle" x="1270.5" y="-214" font-family="Helvetica,sans-Serif" font-size="10.00"> </text>
<polyline fill="none" stroke="black" points="1188,-207 1353,-207 "/>
<text text-anchor="middle" x="1270.5" y="-195" font-family="Helvetica,sans-Serif" font-size="10.00"> </text>
</a>
</g>
</g>
<!-- Node17&#45;&gt;Node1 -->
<g id="edge16" class="edge">
<title>Node17&#45;&gt;Node1</title>
<path fill="none" stroke="#404040" d="M1270.5,-187.73C1270.5,-156.49 1270.5,-105.5 1270.5,-69.98"/>
<polygon fill="none" stroke="#404040" points="1270.5,-69.66 1266.5,-63.66 1270.5,-57.66 1274.5,-63.66 1270.5,-69.66"/>
<text text-anchor="middle" x="1295" y="-84.5" font-family="Helvetica,sans-Serif" font-size="10.00"> +feedback</text>
</g>
<!-- Node18 -->
<g id="node18" class="node">
<title>Node18</title>
<g id="a_node18"><a xlink:href="struct_b_u_c_k___a_d_c___i_n_p_u_t___s_e_t_t_i_n_g_s__s.html" target="_top" xlink:title="Generic power converter ADC input channel configuration.">
<polygon fill="white" stroke="black" points="1249,-397.5 1249,-564.5 1414,-564.5 1414,-397.5 1249,-397.5"/>
<text text-anchor="middle" x="1331.5" y="-552.5" font-family="Helvetica,sans-Serif" font-size="10.00">BUCK_ADC_INPUT_SETTINGS_s</text>
<polyline fill="none" stroke="black" points="1249,-545.5 1414,-545.5 "/>
<text text-anchor="start" x="1257" y="-533.5" font-family="Helvetica,sans-Serif" font-size="10.00">+ enabled</text>
<text text-anchor="start" x="1257" y="-522.5" font-family="Helvetica,sans-Serif" font-size="10.00">+ adc_buffer</text>
<text text-anchor="start" x="1257" y="-511.5" font-family="Helvetica,sans-Serif" font-size="10.00">+ gpio_instance</text>
<text text-anchor="start" x="1257" y="-500.5" font-family="Helvetica,sans-Serif" font-size="10.00">+ adc_input</text>
<text text-anchor="start" x="1257" y="-489.5" font-family="Helvetica,sans-Serif" font-size="10.00">+ adc_core</text>
<text text-anchor="start" x="1257" y="-478.5" font-family="Helvetica,sans-Serif" font-size="10.00">+ trigger_source</text>
<text text-anchor="start" x="1257" y="-467.5" font-family="Helvetica,sans-Serif" font-size="10.00">+ interrupt_enable</text>
<text text-anchor="start" x="1257" y="-456.5" font-family="Helvetica,sans-Serif" font-size="10.00">+ early_interrupt_enable</text>
<text text-anchor="start" x="1257" y="-445.5" font-family="Helvetica,sans-Serif" font-size="10.00">+ differential_input</text>
<text text-anchor="start" x="1257" y="-434.5" font-family="Helvetica,sans-Serif" font-size="10.00">+ signed_result</text>
<text text-anchor="start" x="1257" y="-423.5" font-family="Helvetica,sans-Serif" font-size="10.00">+ level_trigger</text>
<polyline fill="none" stroke="black" points="1249,-416.5 1414,-416.5 "/>
<text text-anchor="middle" x="1331.5" y="-404.5" font-family="Helvetica,sans-Serif" font-size="10.00"> </text>
</a>
</g>
</g>
<!-- Node18&#45;&gt;Node17 -->
<g id="edge17" class="edge">
<title>Node18&#45;&gt;Node17</title>
<path fill="none" stroke="#404040" d="M1312.28,-397.3C1301.4,-350.45 1288.28,-293.99 1279.68,-257"/>
<polygon fill="none" stroke="#404040" points="1279.66,-256.93 1274.41,-251.99 1276.95,-245.24 1282.2,-250.18 1279.66,-256.93"/>
<text text-anchor="middle" x="1328.5" y="-371" font-family="Helvetica,sans-Serif" font-size="10.00"> +ad_isns</text>
<text text-anchor="middle" x="1328.5" y="-360" font-family="Helvetica,sans-Serif" font-size="10.00">+ad_temp</text>
<text text-anchor="middle" x="1328.5" y="-349" font-family="Helvetica,sans-Serif" font-size="10.00">+ad_vin</text>
<text text-anchor="middle" x="1328.5" y="-338" font-family="Helvetica,sans-Serif" font-size="10.00">+ad_vout</text>
</g>
<!-- Node19 -->
<g id="node19" class="node">
<title>Node19</title>
<g id="a_node19"><a xlink:href="struct_b_u_c_k___a_d_c___i_n_p_u_t___s_c_a_l_i_n_g__s.html" target="_top" xlink:title="Generic power converter feedback specifications.">
<polygon fill="white" stroke="black" points="1355.5,-673 1355.5,-752 1515.5,-752 1515.5,-673 1355.5,-673"/>
<text text-anchor="middle" x="1435.5" y="-740" font-family="Helvetica,sans-Serif" font-size="10.00">BUCK_ADC_INPUT_SCALING_s</text>
<polyline fill="none" stroke="black" points="1355.5,-733 1515.5,-733 "/>
<text text-anchor="start" x="1363.5" y="-721" font-family="Helvetica,sans-Serif" font-size="10.00">+ factor</text>
<text text-anchor="start" x="1363.5" y="-710" font-family="Helvetica,sans-Serif" font-size="10.00">+ scaler</text>
<text text-anchor="start" x="1363.5" y="-699" font-family="Helvetica,sans-Serif" font-size="10.00">+ offset</text>
<polyline fill="none" stroke="black" points="1355.5,-692 1515.5,-692 "/>
<text text-anchor="middle" x="1435.5" y="-680" font-family="Helvetica,sans-Serif" font-size="10.00"> </text>
</a>
</g>
</g>
<!-- Node19&#45;&gt;Node18 -->
<g id="edge18" class="edge">
<title>Node19&#45;&gt;Node18</title>
<path fill="none" stroke="#404040" d="M1417.98,-672.83C1405.91,-646.2 1389.33,-609.63 1373.92,-575.62"/>
<polygon fill="none" stroke="#404040" points="1373.92,-575.61 1367.8,-571.8 1368.97,-564.68 1375.09,-568.49 1373.92,-575.61"/>
<text text-anchor="middle" x="1400.5" y="-586" font-family="Helvetica,sans-Serif" font-size="10.00"> +scaling</text>
</g>
<!-- Node20 -->
<g id="node20" class="node">
<title>Node20</title>
<g id="a_node20"><a xlink:href="struct_b_u_c_k___s_t_a_t_e___i_d__s.html" target="_top" xlink:title="data structure for the buck statement ID for sub&#45;operating and operating states">
<polygon fill="white" stroke="black" points="1371.5,-171.5 1371.5,-261.5 1475.5,-261.5 1475.5,-171.5 1371.5,-171.5"/>
<text text-anchor="middle" x="1423.5" y="-249.5" font-family="Helvetica,sans-Serif" font-size="10.00">BUCK_STATE_ID_s</text>
<polyline fill="none" stroke="black" points="1371.5,-242.5 1475.5,-242.5 "/>
<text text-anchor="start" x="1379.5" y="-230.5" font-family="Helvetica,sans-Serif" font-size="10.00">+ opstate_id</text>
<text text-anchor="start" x="1379.5" y="-219.5" font-family="Helvetica,sans-Serif" font-size="10.00">+ substate_id</text>
<text text-anchor="start" x="1379.5" y="-208.5" font-family="Helvetica,sans-Serif" font-size="10.00">+ bits</text>
<text text-anchor="start" x="1379.5" y="-197.5" font-family="Helvetica,sans-Serif" font-size="10.00">+ value</text>
<polyline fill="none" stroke="black" points="1371.5,-190.5 1475.5,-190.5 "/>
<text text-anchor="middle" x="1423.5" y="-178.5" font-family="Helvetica,sans-Serif" font-size="10.00"> </text>
</a>
</g>
</g>
<!-- Node20&#45;&gt;Node1 -->
<g id="edge19" class="edge">
<title>Node20&#45;&gt;Node1</title>
<path fill="none" stroke="#404040" d="M1398.48,-171.12C1387.84,-153.43 1374.83,-133.22 1361.5,-116 1346.49,-96.61 1341.22,-92.94 1323.5,-76 1320.03,-72.68 1316.38,-69.3 1312.68,-65.95"/>
<polygon fill="none" stroke="#404040" points="1312.42,-65.72 1305.27,-64.71 1303.45,-57.74 1310.6,-58.74 1312.42,-65.72"/>
<text text-anchor="middle" x="1368.5" y="-84.5" font-family="Helvetica,sans-Serif" font-size="10.00"> +state_id</text>
</g>
<!-- Node21 -->
<g id="node21" class="node">
<title>Node21</title>
<g id="a_node21"><a xlink:href="struct_b_u_c_k___g_p_i_o___s_e_t_t_i_n_g_s__s.html" target="_top" xlink:title="Generic power converter GPIO specifications.">
<polygon fill="white" stroke="black" points="1493.5,-188 1493.5,-245 1629.5,-245 1629.5,-188 1493.5,-188"/>
<text text-anchor="middle" x="1561.5" y="-233" font-family="Helvetica,sans-Serif" font-size="10.00">BUCK_GPIO_SETTINGS_s</text>
<polyline fill="none" stroke="black" points="1493.5,-226 1629.5,-226 "/>
<text text-anchor="middle" x="1561.5" y="-214" font-family="Helvetica,sans-Serif" font-size="10.00"> </text>
<polyline fill="none" stroke="black" points="1493.5,-207 1629.5,-207 "/>
<text text-anchor="middle" x="1561.5" y="-195" font-family="Helvetica,sans-Serif" font-size="10.00"> </text>
</a>
</g>
</g>
<!-- Node21&#45;&gt;Node1 -->
<g id="edge20" class="edge">
<title>Node21&#45;&gt;Node1</title>
<path fill="none" stroke="#404040" d="M1545.53,-187.97C1531.7,-166.09 1509.93,-135.95 1484.5,-116 1449.73,-88.73 1405.17,-68.99 1365.72,-55.35"/>
<polygon fill="none" stroke="#404040" points="1365.58,-55.3 1358.62,-57.19 1354.21,-51.49 1361.17,-49.61 1365.58,-55.3"/>
<text text-anchor="middle" x="1468.5" y="-84.5" font-family="Helvetica,sans-Serif" font-size="10.00"> +gpio</text>
</g>
<!-- Node22 -->
<g id="node22" class="node">
<title>Node22</title>
<g id="a_node22"><a xlink:href="struct_b_u_c_k___g_p_i_o___i_n_s_t_a_n_c_e__s.html" target="_top" xlink:title=" ">
<polygon fill="white" stroke="black" points="1493,-430.5 1493,-531.5 1630,-531.5 1630,-430.5 1493,-430.5"/>
<text text-anchor="middle" x="1561.5" y="-519.5" font-family="Helvetica,sans-Serif" font-size="10.00">BUCK_GPIO_INSTANCE_s</text>
<polyline fill="none" stroke="black" points="1493,-512.5 1630,-512.5 "/>
<text text-anchor="start" x="1501" y="-500.5" font-family="Helvetica,sans-Serif" font-size="10.00">+ enabled</text>
<text text-anchor="start" x="1501" y="-489.5" font-family="Helvetica,sans-Serif" font-size="10.00">+ port</text>
<text text-anchor="start" x="1501" y="-478.5" font-family="Helvetica,sans-Serif" font-size="10.00">+ pin</text>
<text text-anchor="start" x="1501" y="-467.5" font-family="Helvetica,sans-Serif" font-size="10.00">+ polarity</text>
<text text-anchor="start" x="1501" y="-456.5" font-family="Helvetica,sans-Serif" font-size="10.00">+ io_type</text>
<polyline fill="none" stroke="black" points="1493,-449.5 1630,-449.5 "/>
<text text-anchor="middle" x="1561.5" y="-437.5" font-family="Helvetica,sans-Serif" font-size="10.00"> </text>
</a>
</g>
</g>
<!-- Node22&#45;&gt;Node21 -->
<g id="edge21" class="edge">
<title>Node22&#45;&gt;Node21</title>
<path fill="none" stroke="#404040" d="M1561.5,-430.32C1561.5,-380.18 1561.5,-303.75 1561.5,-257.42"/>
<polygon fill="none" stroke="#404040" points="1561.5,-257.19 1557.5,-251.2 1561.5,-245.19 1565.5,-251.19 1561.5,-257.19"/>
<text text-anchor="middle" x="1592" y="-360" font-family="Helvetica,sans-Serif" font-size="10.00"> +EnableInput</text>
<text text-anchor="middle" x="1592" y="-349" font-family="Helvetica,sans-Serif" font-size="10.00">+PowerGood</text>
</g>
<!-- Node23 -->
<g id="node23" class="node">
<title>Node23</title>
<g id="a_node23"><a xlink:href="struct_b_u_c_k___c_o_n_v_e_r_t_e_r___s_e_t_t_i_n_g_s__s.html" target="_top" xlink:title=" ">
<polygon fill="white" stroke="black" points="1647.5,-171.5 1647.5,-261.5 1819.5,-261.5 1819.5,-171.5 1647.5,-171.5"/>
<text text-anchor="middle" x="1733.5" y="-249.5" font-family="Helvetica,sans-Serif" font-size="10.00">BUCK_CONVERTER_SETTINGS_s</text>
<polyline fill="none" stroke="black" points="1647.5,-242.5 1819.5,-242.5 "/>
<text text-anchor="start" x="1655.5" y="-230.5" font-family="Helvetica,sans-Serif" font-size="10.00">+ control_mode</text>
<text text-anchor="start" x="1655.5" y="-219.5" font-family="Helvetica,sans-Serif" font-size="10.00">+ no_of_phases</text>
<text text-anchor="start" x="1655.5" y="-208.5" font-family="Helvetica,sans-Serif" font-size="10.00">+ v_ref</text>
<text text-anchor="start" x="1655.5" y="-197.5" font-family="Helvetica,sans-Serif" font-size="10.00">+ i_ref</text>
<polyline fill="none" stroke="black" points="1647.5,-190.5 1819.5,-190.5 "/>
<text text-anchor="middle" x="1733.5" y="-178.5" font-family="Helvetica,sans-Serif" font-size="10.00"> </text>
</a>
</g>
</g>
<!-- Node23&#45;&gt;Node1 -->
<g id="edge22" class="edge">
<title>Node23&#45;&gt;Node1</title>
<path fill="none" stroke="#404040" d="M1700.75,-171.4C1684.11,-151.82 1662.36,-130.08 1638.5,-116 1554.68,-66.56 1444.47,-45.54 1366.57,-36.61"/>
<polygon fill="none" stroke="#404040" points="1366.29,-36.57 1359.89,-39.9 1354.36,-35.27 1360.76,-31.95 1366.29,-36.57"/>
<text text-anchor="middle" x="1630" y="-84.5" font-family="Helvetica,sans-Serif" font-size="10.00"> +set_values</text>
</g>
<!-- Node24 -->
<g id="node24" class="node">
<title>Node24</title>
<g id="a_node24"><a xlink:href="struct_b_u_c_k___c_o_n_v_e_r_t_e_r___s_t_a_r_t_u_p__s.html" target="_top" xlink:title=" ">
<polygon fill="white" stroke="black" points="1838,-188 1838,-245 2007,-245 2007,-188 1838,-188"/>
<text text-anchor="middle" x="1922.5" y="-233" font-family="Helvetica,sans-Serif" font-size="10.00">BUCK_CONVERTER_STARTUP_s</text>
<polyline fill="none" stroke="black" points="1838,-226 2007,-226 "/>
<text text-anchor="middle" x="1922.5" y="-214" font-family="Helvetica,sans-Serif" font-size="10.00"> </text>
<polyline fill="none" stroke="black" points="1838,-207 2007,-207 "/>
<text text-anchor="middle" x="1922.5" y="-195" font-family="Helvetica,sans-Serif" font-size="10.00"> </text>
</a>
</g>
</g>
<!-- Node24&#45;&gt;Node1 -->
<g id="edge23" class="edge">
<title>Node24&#45;&gt;Node1</title>
<path fill="none" stroke="#404040" d="M1903.37,-187.63C1886.32,-164.94 1859.36,-133.85 1828.5,-116 1751.7,-71.57 1504.47,-46.97 1366.26,-36.38"/>
<polygon fill="none" stroke="#404040" points="1366.02,-36.36 1359.74,-39.89 1354.06,-35.45 1360.34,-31.92 1366.02,-36.36"/>
<text text-anchor="middle" x="1796.5" y="-84.5" font-family="Helvetica,sans-Serif" font-size="10.00"> +startup</text>
</g>
<!-- Node25 -->
<g id="node25" class="node">
<title>Node25</title>
<g id="a_node25"><a xlink:href="struct_b_u_c_k___s_t_a_r_t_u_p___p_e_r_i_o_d___h_a_n_d_l_e_r__s.html" target="_top" xlink:title=" ">
<polygon fill="white" stroke="black" points="1855,-430.5 1855,-531.5 1990,-531.5 1990,-430.5 1855,-430.5"/>
<text text-anchor="start" x="1863" y="-519.5" font-family="Helvetica,sans-Serif" font-size="10.00">BUCK_STARTUP_PERIOD</text>
<text text-anchor="middle" x="1922.5" y="-508.5" font-family="Helvetica,sans-Serif" font-size="10.00">_HANDLER_s</text>
<polyline fill="none" stroke="black" points="1855,-501.5 1990,-501.5 "/>
<text text-anchor="start" x="1863" y="-489.5" font-family="Helvetica,sans-Serif" font-size="10.00">+ counter</text>
<text text-anchor="start" x="1863" y="-478.5" font-family="Helvetica,sans-Serif" font-size="10.00">+ period</text>
<text text-anchor="start" x="1863" y="-467.5" font-family="Helvetica,sans-Serif" font-size="10.00">+ reference</text>
<text text-anchor="start" x="1863" y="-456.5" font-family="Helvetica,sans-Serif" font-size="10.00">+ ref_inc_step</text>
<polyline fill="none" stroke="black" points="1855,-449.5 1990,-449.5 "/>
<text text-anchor="middle" x="1922.5" y="-437.5" font-family="Helvetica,sans-Serif" font-size="10.00"> </text>
</a>
</g>
</g>
<!-- Node25&#45;&gt;Node24 -->
<g id="edge24" class="edge">
<title>Node25&#45;&gt;Node24</title>
<path fill="none" stroke="#404040" d="M1922.5,-430.32C1922.5,-380.18 1922.5,-303.75 1922.5,-257.42"/>
<polygon fill="none" stroke="#404040" points="1922.5,-257.19 1918.5,-251.2 1922.5,-245.19 1926.5,-251.19 1922.5,-257.19"/>
<text text-anchor="middle" x="1966" y="-371" font-family="Helvetica,sans-Serif" font-size="10.00"> +i_ramp</text>
<text text-anchor="middle" x="1966" y="-360" font-family="Helvetica,sans-Serif" font-size="10.00">+power_good_delay</text>
<text text-anchor="middle" x="1966" y="-349" font-family="Helvetica,sans-Serif" font-size="10.00">+power_on_delay</text>
<text text-anchor="middle" x="1966" y="-338" font-family="Helvetica,sans-Serif" font-size="10.00">+v_ramp</text>
</g>
</g>
</svg>
