<?xml version="1.0" encoding="UTF-8" standalone="no"?>
<!DOCTYPE svg PUBLIC "-//W3C//DTD SVG 1.1//EN"
 "http://www.w3.org/Graphics/SVG/1.1/DTD/svg11.dtd">
<!-- Generated by graphviz version 2.44.1 (20200629.0846)
 -->
<!-- Title: V_LOOP_CONTROL_LOOP_HISTORIES_s Pages: 1 -->
<svg width="149pt" height="193pt"
 viewBox="0.00 0.00 148.50 193.00" xmlns="http://www.w3.org/2000/svg" xmlns:xlink="http://www.w3.org/1999/xlink">
<g id="graph0" class="graph" transform="scale(1 1) rotate(0) translate(4 189)">
<title>V_LOOP_CONTROL_LOOP_HISTORIES_s</title>
<polygon fill="white" stroke="transparent" points="-4,4 -4,-189 144.5,-189 144.5,4 -4,4"/>
<!-- Node1 -->
<g id="node1" class="node">
<title>Node1</title>
<g id="a_node1"><a xlink:title=" ">
<polygon fill="#bfbfbf" stroke="black" points="0,-0.5 0,-68.5 139,-68.5 139,-0.5 0,-0.5"/>
<text text-anchor="start" x="8" y="-56.5" font-family="Helvetica,sans-Serif" font-size="10.00">V_LOOP_CONTROL_LOOP</text>
<text text-anchor="middle" x="69.5" y="-45.5" font-family="Helvetica,sans-Serif" font-size="10.00">_HISTORIES_s</text>
<polyline fill="none" stroke="black" points="0,-38.5 139,-38.5 "/>
<text text-anchor="middle" x="69.5" y="-26.5" font-family="Helvetica,sans-Serif" font-size="10.00"> </text>
<polyline fill="none" stroke="black" points="0,-19.5 139,-19.5 "/>
<text text-anchor="middle" x="69.5" y="-7.5" font-family="Helvetica,sans-Serif" font-size="10.00"> </text>
</a>
</g>
</g>
<!-- Node2 -->
<g id="node2" class="node">
<title>Node2</title>
<g id="a_node2"><a xlink:href="structvolatile.html" target="_top" xlink:title="Description">
<polygon fill="white" stroke="black" points="46.5,-127.5 46.5,-184.5 92.5,-184.5 92.5,-127.5 46.5,-127.5"/>
<text text-anchor="middle" x="69.5" y="-172.5" font-family="Helvetica,sans-Serif" font-size="10.00">volatile</text>
<polyline fill="none" stroke="black" points="46.5,-165.5 92.5,-165.5 "/>
<text text-anchor="middle" x="69.5" y="-153.5" font-family="Helvetica,sans-Serif" font-size="10.00"> </text>
<polyline fill="none" stroke="black" points="46.5,-146.5 92.5,-146.5 "/>
<text text-anchor="middle" x="69.5" y="-134.5" font-family="Helvetica,sans-Serif" font-size="10.00"> </text>
</a>
</g>
</g>
<!-- Node2&#45;&gt;Node1 -->
<g id="edge1" class="edge">
<title>Node2&#45;&gt;Node1</title>
<path fill="none" stroke="#404040" d="M69.5,-127.28C69.5,-113.47 69.5,-96.4 69.5,-80.75"/>
<polygon fill="none" stroke="#404040" points="69.5,-80.59 65.5,-74.59 69.5,-68.59 73.5,-74.59 69.5,-80.59"/>
<text text-anchor="middle" x="105" y="-101" font-family="Helvetica,sans-Serif" font-size="10.00"> +ControlHistory</text>
<text text-anchor="middle" x="105" y="-90" font-family="Helvetica,sans-Serif" font-size="10.00">+ErrorHistory</text>
</g>
</g>
</svg>
