<?xml version="1.0" encoding="UTF-8" standalone="no"?>
<!DOCTYPE svg PUBLIC "-//W3C//DTD SVG 1.1//EN"
 "http://www.w3.org/Graphics/SVG/1.1/DTD/svg11.dtd">
<!-- Generated by graphviz version 2.44.1 (20200629.0846)
 -->
<!-- Title: FLT_COMPARE_OBJECT_s Pages: 1 -->
<svg width="220pt" height="321pt"
 viewBox="0.00 0.00 219.50 321.00" xmlns="http://www.w3.org/2000/svg" xmlns:xlink="http://www.w3.org/1999/xlink">
<g id="graph0" class="graph" transform="scale(1 1) rotate(0) translate(4 317)">
<title>FLT_COMPARE_OBJECT_s</title>
<polygon fill="white" stroke="transparent" points="-4,4 -4,-317 215.5,-317 215.5,4 -4,4"/>
<!-- Node1 -->
<g id="node1" class="node">
<title>Node1</title>
<g id="a_node1"><a xlink:title="This data structure defines the fault compare status.">
<polygon fill="#bfbfbf" stroke="black" points="0,-0.5 0,-57.5 141,-57.5 141,-0.5 0,-0.5"/>
<text text-anchor="middle" x="70.5" y="-45.5" font-family="Helvetica,sans-Serif" font-size="10.00">FLT_COMPARE_OBJECT_s</text>
<polyline fill="none" stroke="black" points="0,-38.5 141,-38.5 "/>
<text text-anchor="middle" x="70.5" y="-26.5" font-family="Helvetica,sans-Serif" font-size="10.00"> </text>
<polyline fill="none" stroke="black" points="0,-19.5 141,-19.5 "/>
<text text-anchor="middle" x="70.5" y="-7.5" font-family="Helvetica,sans-Serif" font-size="10.00"> </text>
</a>
</g>
</g>
<!-- Node2 -->
<g id="node2" class="node">
<title>Node2</title>
<g id="a_node2"><a xlink:href="struct_f_a_u_l_t___o_b_j_e_c_t__s.html" target="_top" xlink:title="Pre&#45;initialized data structure object of a default fault object.">
<polygon fill="white" stroke="black" points="100.5,-95.5 100.5,-152.5 200.5,-152.5 200.5,-95.5 100.5,-95.5"/>
<text text-anchor="middle" x="150.5" y="-140.5" font-family="Helvetica,sans-Serif" font-size="10.00">FAULT_OBJECT_s</text>
<polyline fill="none" stroke="black" points="100.5,-133.5 200.5,-133.5 "/>
<text text-anchor="middle" x="150.5" y="-121.5" font-family="Helvetica,sans-Serif" font-size="10.00"> </text>
<polyline fill="none" stroke="black" points="100.5,-114.5 200.5,-114.5 "/>
<text text-anchor="middle" x="150.5" y="-102.5" font-family="Helvetica,sans-Serif" font-size="10.00"> </text>
</a>
</g>
</g>
<!-- Node2&#45;&gt;Node1 -->
<g id="edge1" class="edge">
<title>Node2&#45;&gt;Node1</title>
<path fill="none" stroke="midnightblue" d="M120.05,-87.6C111.53,-77.7 102.4,-67.09 94.33,-57.71"/>
<polygon fill="none" stroke="midnightblue" points="117.54,-90.05 126.71,-95.35 122.85,-85.49 117.54,-90.05"/>
</g>
<!-- Node3 -->
<g id="node3" class="node">
<title>Node3</title>
<g id="a_node3"><a xlink:href="structvolatile.html" target="_top" xlink:title="Description">
<polygon fill="white" stroke="black" points="29.5,-255.5 29.5,-312.5 75.5,-312.5 75.5,-255.5 29.5,-255.5"/>
<text text-anchor="middle" x="52.5" y="-300.5" font-family="Helvetica,sans-Serif" font-size="10.00">volatile</text>
<polyline fill="none" stroke="black" points="29.5,-293.5 75.5,-293.5 "/>
<text text-anchor="middle" x="52.5" y="-281.5" font-family="Helvetica,sans-Serif" font-size="10.00"> </text>
<polyline fill="none" stroke="black" points="29.5,-274.5 75.5,-274.5 "/>
<text text-anchor="middle" x="52.5" y="-262.5" font-family="Helvetica,sans-Serif" font-size="10.00"> </text>
</a>
</g>
</g>
<!-- Node3&#45;&gt;Node1 -->
<g id="edge3" class="edge">
<title>Node3&#45;&gt;Node1</title>
<path fill="none" stroke="#404040" d="M47.71,-255.32C42.17,-218.41 35.07,-151.2 45.5,-95 47.09,-86.44 49.77,-77.54 52.79,-69.19"/>
<polygon fill="none" stroke="#404040" points="52.86,-69 51.31,-61.96 57.22,-57.82 58.77,-64.86 52.86,-69"/>
<text text-anchor="middle" x="68.5" y="-127" font-family="Helvetica,sans-Serif" font-size="10.00"> +bitMask</text>
<text text-anchor="middle" x="68.5" y="-116" font-family="Helvetica,sans-Serif" font-size="10.00">+ptrObject</text>
</g>
<!-- Node3&#45;&gt;Node2 -->
<g id="edge2" class="edge">
<title>Node3&#45;&gt;Node2</title>
<path fill="none" stroke="#404040" d="M69.57,-255.48C85.42,-229.92 109.17,-191.63 126.85,-163.13"/>
<polygon fill="none" stroke="#404040" points="126.97,-162.93 126.73,-155.73 133.3,-152.74 133.53,-159.94 126.97,-162.93"/>
<text text-anchor="middle" x="166.5" y="-229" font-family="Helvetica,sans-Serif" font-size="10.00"> +Counter</text>
<text text-anchor="middle" x="166.5" y="-218" font-family="Helvetica,sans-Serif" font-size="10.00">+RecoveryResponse</text>
<text text-anchor="middle" x="166.5" y="-207" font-family="Helvetica,sans-Serif" font-size="10.00">+ReferenceObject</text>
<text text-anchor="middle" x="166.5" y="-196" font-family="Helvetica,sans-Serif" font-size="10.00">+SourceObject</text>
<text text-anchor="middle" x="166.5" y="-185" font-family="Helvetica,sans-Serif" font-size="10.00">+Status</text>
<text text-anchor="middle" x="166.5" y="-174" font-family="Helvetica,sans-Serif" font-size="10.00">+TripResponse</text>
</g>
</g>
</svg>
