<?xml version="1.0" encoding="UTF-8" standalone="no"?>
<!DOCTYPE svg PUBLIC "-//W3C//DTD SVG 1.1//EN"
 "http://www.w3.org/Graphics/SVG/1.1/DTD/svg11.dtd">
<!-- Generated by graphviz version 2.44.1 (20200629.0846)
 -->
<!-- Title: BUCK_GPIO_SETTINGS_s Pages: 1 -->
<svg width="145pt" height="226pt"
 viewBox="0.00 0.00 145.00 226.00" xmlns="http://www.w3.org/2000/svg" xmlns:xlink="http://www.w3.org/1999/xlink">
<g id="graph0" class="graph" transform="scale(1 1) rotate(0) translate(4 222)">
<title>BUCK_GPIO_SETTINGS_s</title>
<polygon fill="white" stroke="transparent" points="-4,4 -4,-222 141,-222 141,4 -4,4"/>
<!-- Node1 -->
<g id="node1" class="node">
<title>Node1</title>
<g id="a_node1"><a xlink:title="Generic power converter GPIO specifications.">
<polygon fill="#bfbfbf" stroke="black" points="0.5,-0.5 0.5,-57.5 136.5,-57.5 136.5,-0.5 0.5,-0.5"/>
<text text-anchor="middle" x="68.5" y="-45.5" font-family="Helvetica,sans-Serif" font-size="10.00">BUCK_GPIO_SETTINGS_s</text>
<polyline fill="none" stroke="black" points="0.5,-38.5 136.5,-38.5 "/>
<text text-anchor="middle" x="68.5" y="-26.5" font-family="Helvetica,sans-Serif" font-size="10.00"> </text>
<polyline fill="none" stroke="black" points="0.5,-19.5 136.5,-19.5 "/>
<text text-anchor="middle" x="68.5" y="-7.5" font-family="Helvetica,sans-Serif" font-size="10.00"> </text>
</a>
</g>
</g>
<!-- Node2 -->
<g id="node2" class="node">
<title>Node2</title>
<g id="a_node2"><a xlink:href="struct_b_u_c_k___g_p_i_o___i_n_s_t_a_n_c_e__s.html" target="_top" xlink:title=" ">
<polygon fill="white" stroke="black" points="0,-116.5 0,-217.5 137,-217.5 137,-116.5 0,-116.5"/>
<text text-anchor="middle" x="68.5" y="-205.5" font-family="Helvetica,sans-Serif" font-size="10.00">BUCK_GPIO_INSTANCE_s</text>
<polyline fill="none" stroke="black" points="0,-198.5 137,-198.5 "/>
<text text-anchor="start" x="8" y="-186.5" font-family="Helvetica,sans-Serif" font-size="10.00">+ enabled</text>
<text text-anchor="start" x="8" y="-175.5" font-family="Helvetica,sans-Serif" font-size="10.00">+ port</text>
<text text-anchor="start" x="8" y="-164.5" font-family="Helvetica,sans-Serif" font-size="10.00">+ pin</text>
<text text-anchor="start" x="8" y="-153.5" font-family="Helvetica,sans-Serif" font-size="10.00">+ polarity</text>
<text text-anchor="start" x="8" y="-142.5" font-family="Helvetica,sans-Serif" font-size="10.00">+ io_type</text>
<polyline fill="none" stroke="black" points="0,-135.5 137,-135.5 "/>
<text text-anchor="middle" x="68.5" y="-123.5" font-family="Helvetica,sans-Serif" font-size="10.00"> </text>
</a>
</g>
</g>
<!-- Node2&#45;&gt;Node1 -->
<g id="edge1" class="edge">
<title>Node2&#45;&gt;Node1</title>
<path fill="none" stroke="#404040" d="M68.5,-116.13C68.5,-100.89 68.5,-84.33 68.5,-69.84"/>
<polygon fill="none" stroke="#404040" points="68.5,-69.73 64.5,-63.73 68.5,-57.73 72.5,-63.73 68.5,-69.73"/>
<text text-anchor="middle" x="99" y="-90" font-family="Helvetica,sans-Serif" font-size="10.00"> +EnableInput</text>
<text text-anchor="middle" x="99" y="-79" font-family="Helvetica,sans-Serif" font-size="10.00">+PowerGood</text>
</g>
</g>
</svg>
