<?xml version="1.0" encoding="UTF-8" standalone="no"?>
<!DOCTYPE svg PUBLIC "-//W3C//DTD SVG 1.1//EN"
 "http://www.w3.org/Graphics/SVG/1.1/DTD/svg11.dtd">
<!-- Generated by graphviz version 2.44.1 (20200629.0846)
 -->
<!-- Title: DSP_CONFIG_s Pages: 1 -->
<svg width="102pt" height="325pt"
 viewBox="0.00 0.00 101.50 325.00" xmlns="http://www.w3.org/2000/svg" xmlns:xlink="http://www.w3.org/1999/xlink">
<g id="graph0" class="graph" transform="scale(1 1) rotate(0) translate(4 321)">
<title>DSP_CONFIG_s</title>
<polygon fill="white" stroke="transparent" points="-4,4 -4,-321 97.5,-321 97.5,4 -4,4"/>
<!-- Node1 -->
<g id="node1" class="node">
<title>Node1</title>
<g id="a_node1"><a xlink:title=" ">
<polygon fill="#bfbfbf" stroke="black" points="0,-0.5 0,-101.5 89,-101.5 89,-0.5 0,-0.5"/>
<text text-anchor="middle" x="44.5" y="-89.5" font-family="Helvetica,sans-Serif" font-size="10.00">DSP_CONFIG_s</text>
<polyline fill="none" stroke="black" points="0,-82.5 89,-82.5 "/>
<text text-anchor="start" x="8" y="-70.5" font-family="Helvetica,sans-Serif" font-size="10.00">+ US</text>
<text text-anchor="start" x="8" y="-59.5" font-family="Helvetica,sans-Serif" font-size="10.00">+ unsigned</text>
<text text-anchor="start" x="8" y="-48.5" font-family="Helvetica,sans-Serif" font-size="10.00">+ VAR</text>
<text text-anchor="start" x="8" y="-37.5" font-family="Helvetica,sans-Serif" font-size="10.00">+ value</text>
<text text-anchor="start" x="8" y="-26.5" font-family="Helvetica,sans-Serif" font-size="10.00">+ @1</text>
<polyline fill="none" stroke="black" points="0,-19.5 89,-19.5 "/>
<text text-anchor="middle" x="44.5" y="-7.5" font-family="Helvetica,sans-Serif" font-size="10.00"> </text>
</a>
</g>
</g>
<!-- Node2 -->
<g id="node2" class="node">
<title>Node2</title>
<g id="a_node2"><a xlink:href="structvolatile.html" target="_top" xlink:title="Description">
<polygon fill="white" stroke="black" points="21.5,-259.5 21.5,-316.5 67.5,-316.5 67.5,-259.5 21.5,-259.5"/>
<text text-anchor="middle" x="44.5" y="-304.5" font-family="Helvetica,sans-Serif" font-size="10.00">volatile</text>
<polyline fill="none" stroke="black" points="21.5,-297.5 67.5,-297.5 "/>
<text text-anchor="middle" x="44.5" y="-285.5" font-family="Helvetica,sans-Serif" font-size="10.00"> </text>
<polyline fill="none" stroke="black" points="21.5,-278.5 67.5,-278.5 "/>
<text text-anchor="middle" x="44.5" y="-266.5" font-family="Helvetica,sans-Serif" font-size="10.00"> </text>
</a>
</g>
</g>
<!-- Node2&#45;&gt;Node1 -->
<g id="edge1" class="edge">
<title>Node2&#45;&gt;Node1</title>
<path fill="none" stroke="#404040" d="M44.5,-259.12C44.5,-223.52 44.5,-160.89 44.5,-113.79"/>
<polygon fill="none" stroke="#404040" points="44.5,-113.57 40.5,-107.57 44.5,-101.57 48.5,-107.57 44.5,-113.57"/>
<text text-anchor="middle" x="69" y="-233" font-family="Helvetica,sans-Serif" font-size="10.00"> +ACCSAT</text>
<text text-anchor="middle" x="69" y="-222" font-family="Helvetica,sans-Serif" font-size="10.00">+DL</text>
<text text-anchor="middle" x="69" y="-211" font-family="Helvetica,sans-Serif" font-size="10.00">+EDT</text>
<text text-anchor="middle" x="69" y="-200" font-family="Helvetica,sans-Serif" font-size="10.00">+IF</text>
<text text-anchor="middle" x="69" y="-189" font-family="Helvetica,sans-Serif" font-size="10.00">+IPL3</text>
<text text-anchor="middle" x="69" y="-178" font-family="Helvetica,sans-Serif" font-size="10.00">+RND</text>
<text text-anchor="middle" x="69" y="-167" font-family="Helvetica,sans-Serif" font-size="10.00">+SATA</text>
<text text-anchor="middle" x="69" y="-156" font-family="Helvetica,sans-Serif" font-size="10.00">+SATB</text>
<text text-anchor="middle" x="69" y="-145" font-family="Helvetica,sans-Serif" font-size="10.00">+SATDW</text>
<text text-anchor="middle" x="69" y="-134" font-family="Helvetica,sans-Serif" font-size="10.00">+SFA</text>
<text text-anchor="middle" x="69" y="-123" font-family="Helvetica,sans-Serif" font-size="10.00">...</text>
</g>
</g>
</svg>
