<?xml version="1.0" encoding="UTF-8" standalone="no"?>
<!DOCTYPE svg PUBLIC "-//W3C//DTD SVG 1.1//EN"
 "http://www.w3.org/Graphics/SVG/1.1/DTD/svg11.dtd">
<!-- Generated by graphviz version 2.44.1 (20200629.0846)
 -->
<!-- Title: TRAP_LOGGER_s Pages: 1 -->
<svg width="540pt" height="303pt"
 viewBox="0.00 0.00 540.00 303.00" xmlns="http://www.w3.org/2000/svg" xmlns:xlink="http://www.w3.org/1999/xlink">
<g id="graph0" class="graph" transform="scale(1 1) rotate(0) translate(4 299)">
<title>TRAP_LOGGER_s</title>
<polygon fill="white" stroke="transparent" points="-4,4 -4,-299 536,-299 536,4 -4,4"/>
<!-- Node1 -->
<g id="node1" class="node">
<title>Node1</title>
<g id="a_node1"><a xlink:title="Global data structure for trap event capturing.">
<polygon fill="#bfbfbf" stroke="black" points="196.5,-0.5 196.5,-79.5 295.5,-79.5 295.5,-0.5 196.5,-0.5"/>
<text text-anchor="middle" x="246" y="-67.5" font-family="Helvetica,sans-Serif" font-size="10.00">TRAP_LOGGER_s</text>
<polyline fill="none" stroke="black" points="196.5,-60.5 295.5,-60.5 "/>
<text text-anchor="start" x="204.5" y="-48.5" font-family="Helvetica,sans-Serif" font-size="10.00">+ reset_count</text>
<text text-anchor="start" x="204.5" y="-37.5" font-family="Helvetica,sans-Serif" font-size="10.00">+ trap_id</text>
<text text-anchor="start" x="204.5" y="-26.5" font-family="Helvetica,sans-Serif" font-size="10.00">+ trap_count</text>
<polyline fill="none" stroke="black" points="196.5,-19.5 295.5,-19.5 "/>
<text text-anchor="middle" x="246" y="-7.5" font-family="Helvetica,sans-Serif" font-size="10.00"> </text>
</a>
</g>
</g>
<!-- Node2 -->
<g id="node2" class="node">
<title>Node2</title>
<g id="a_node2"><a xlink:href="struct_t_a_s_k___i_n_f_o__s.html" target="_top" xlink:title="provides information for executed task, fault event and operating mode ID of task manager">
<polygon fill="white" stroke="black" points="0,-171.5 0,-250.5 80,-250.5 80,-171.5 0,-171.5"/>
<text text-anchor="middle" x="40" y="-238.5" font-family="Helvetica,sans-Serif" font-size="10.00">TASK_INFO_s</text>
<polyline fill="none" stroke="black" points="0,-231.5 80,-231.5 "/>
<text text-anchor="start" x="8" y="-219.5" font-family="Helvetica,sans-Serif" font-size="10.00">+ task_id</text>
<text text-anchor="start" x="8" y="-208.5" font-family="Helvetica,sans-Serif" font-size="10.00">+ fault_id</text>
<text text-anchor="start" x="8" y="-197.5" font-family="Helvetica,sans-Serif" font-size="10.00">+ op_mode</text>
<polyline fill="none" stroke="black" points="0,-190.5 80,-190.5 "/>
<text text-anchor="middle" x="40" y="-178.5" font-family="Helvetica,sans-Serif" font-size="10.00"> </text>
</a>
</g>
</g>
<!-- Node2&#45;&gt;Node1 -->
<g id="edge1" class="edge">
<title>Node2&#45;&gt;Node1</title>
<path fill="none" stroke="#404040" d="M56.83,-171.34C69.31,-146.98 88.55,-116.69 114,-98 135.35,-82.32 161.69,-69.84 185.21,-60.61"/>
<polygon fill="none" stroke="#404040" points="185.27,-60.59 189.46,-54.72 196.49,-56.34 192.29,-62.2 185.27,-60.59"/>
<text text-anchor="middle" x="147" y="-101" font-family="Helvetica,sans-Serif" font-size="10.00"> +task_capture</text>
</g>
<!-- Node3 -->
<g id="node3" class="node">
<title>Node3</title>
<g id="a_node3"><a xlink:href="struct_t_r_a_p___f_l_a_g_s__s.html" target="_top" xlink:title="defining the trap Flag for primary and secondary vectors">
<polygon fill="white" stroke="black" points="98,-127.5 98,-294.5 188,-294.5 188,-127.5 98,-127.5"/>
<text text-anchor="middle" x="143" y="-282.5" font-family="Helvetica,sans-Serif" font-size="10.00">TRAP_FLAGS_s</text>
<polyline fill="none" stroke="black" points="98,-275.5 188,-275.5 "/>
<text text-anchor="start" x="106" y="-263.5" font-family="Helvetica,sans-Serif" font-size="10.00">+ OVAERR</text>
<text text-anchor="start" x="106" y="-252.5" font-family="Helvetica,sans-Serif" font-size="10.00">+ OVBERR</text>
<text text-anchor="start" x="106" y="-241.5" font-family="Helvetica,sans-Serif" font-size="10.00">+ COVAERR</text>
<text text-anchor="start" x="106" y="-230.5" font-family="Helvetica,sans-Serif" font-size="10.00">+ COVBERR</text>
<text text-anchor="start" x="106" y="-219.5" font-family="Helvetica,sans-Serif" font-size="10.00">+ SFTACERR</text>
<text text-anchor="start" x="106" y="-208.5" font-family="Helvetica,sans-Serif" font-size="10.00">+ DIV0ERR</text>
<text text-anchor="start" x="106" y="-197.5" font-family="Helvetica,sans-Serif" font-size="10.00">+ MATHERR</text>
<text text-anchor="start" x="106" y="-186.5" font-family="Helvetica,sans-Serif" font-size="10.00">+ ADDRERR</text>
<text text-anchor="start" x="106" y="-175.5" font-family="Helvetica,sans-Serif" font-size="10.00">+ STKERR</text>
<text text-anchor="start" x="106" y="-164.5" font-family="Helvetica,sans-Serif" font-size="10.00">+ OSCFAIL</text>
<text text-anchor="start" x="106" y="-153.5" font-family="Helvetica,sans-Serif" font-size="10.00">and 12 more...</text>
<polyline fill="none" stroke="black" points="98,-146.5 188,-146.5 "/>
<text text-anchor="middle" x="143" y="-134.5" font-family="Helvetica,sans-Serif" font-size="10.00"> </text>
</a>
</g>
</g>
<!-- Node3&#45;&gt;Node1 -->
<g id="edge2" class="edge">
<title>Node3&#45;&gt;Node1</title>
<path fill="none" stroke="#404040" d="M173.4,-127.38C178.38,-117.17 183.93,-107.13 190,-98 191.94,-95.08 194.05,-92.17 196.27,-89.32"/>
<polygon fill="none" stroke="#404040" points="196.5,-89.04 197.26,-81.87 204.17,-79.81 203.41,-86.98 196.5,-89.04"/>
<text text-anchor="middle" x="216" y="-101" font-family="Helvetica,sans-Serif" font-size="10.00"> +trap_flags</text>
</g>
<!-- Node4 -->
<g id="node4" class="node">
<title>Node4</title>
<g id="a_node4"><a xlink:href="struct_c_p_u___r_c_o_n__s.html" target="_top" xlink:title="Data structure for RCON status capturing.">
<polygon fill="white" stroke="black" points="206,-127.5 206,-294.5 286,-294.5 286,-127.5 206,-127.5"/>
<text text-anchor="middle" x="246" y="-282.5" font-family="Helvetica,sans-Serif" font-size="10.00">CPU_RCON_s</text>
<polyline fill="none" stroke="black" points="206,-275.5 286,-275.5 "/>
<text text-anchor="start" x="214" y="-263.5" font-family="Helvetica,sans-Serif" font-size="10.00">+ por</text>
<text text-anchor="start" x="214" y="-252.5" font-family="Helvetica,sans-Serif" font-size="10.00">+ bor</text>
<text text-anchor="start" x="214" y="-241.5" font-family="Helvetica,sans-Serif" font-size="10.00">+ idle</text>
<text text-anchor="start" x="214" y="-230.5" font-family="Helvetica,sans-Serif" font-size="10.00">+ sleep</text>
<text text-anchor="start" x="214" y="-219.5" font-family="Helvetica,sans-Serif" font-size="10.00">+ wdto</text>
<text text-anchor="start" x="214" y="-208.5" font-family="Helvetica,sans-Serif" font-size="10.00">+ swdten</text>
<text text-anchor="start" x="214" y="-197.5" font-family="Helvetica,sans-Serif" font-size="10.00">+ swr</text>
<text text-anchor="start" x="214" y="-186.5" font-family="Helvetica,sans-Serif" font-size="10.00">+ extr</text>
<text text-anchor="start" x="214" y="-175.5" font-family="Helvetica,sans-Serif" font-size="10.00">+ vregs</text>
<text text-anchor="start" x="214" y="-164.5" font-family="Helvetica,sans-Serif" font-size="10.00">+ cm</text>
<text text-anchor="start" x="214" y="-153.5" font-family="Helvetica,sans-Serif" font-size="10.00">and 6 more...</text>
<polyline fill="none" stroke="black" points="206,-146.5 286,-146.5 "/>
<text text-anchor="middle" x="246" y="-134.5" font-family="Helvetica,sans-Serif" font-size="10.00"> </text>
</a>
</g>
</g>
<!-- Node4&#45;&gt;Node1 -->
<g id="edge3" class="edge">
<title>Node4&#45;&gt;Node1</title>
<path fill="none" stroke="#404040" d="M246,-127.48C246,-115.3 246,-103.07 246,-91.8"/>
<polygon fill="none" stroke="#404040" points="246,-91.53 242,-85.53 246,-79.53 250,-85.53 246,-91.53"/>
<text text-anchor="middle" x="269.5" y="-101" font-family="Helvetica,sans-Serif" font-size="10.00"> +rcon_reg</text>
</g>
<!-- Node5 -->
<g id="node5" class="node">
<title>Node5</title>
<g id="a_node5"><a xlink:href="struct_c_p_u___i_n_t_t_r_e_g__s.html" target="_top" xlink:title="defining the CPU interrupt for primary and secondary vectors">
<polygon fill="white" stroke="black" points="304.5,-155 304.5,-267 397.5,-267 397.5,-155 304.5,-155"/>
<text text-anchor="middle" x="351" y="-255" font-family="Helvetica,sans-Serif" font-size="10.00">CPU_INTTREG_s</text>
<polyline fill="none" stroke="black" points="304.5,-248 397.5,-248 "/>
<text text-anchor="start" x="312.5" y="-236" font-family="Helvetica,sans-Serif" font-size="10.00">+ VECNUM</text>
<text text-anchor="start" x="312.5" y="-225" font-family="Helvetica,sans-Serif" font-size="10.00">+ ILR</text>
<text text-anchor="start" x="312.5" y="-214" font-family="Helvetica,sans-Serif" font-size="10.00">+ unsigned</text>
<text text-anchor="start" x="312.5" y="-203" font-family="Helvetica,sans-Serif" font-size="10.00">+ VHOLD</text>
<text text-anchor="start" x="312.5" y="-192" font-family="Helvetica,sans-Serif" font-size="10.00">+ value</text>
<text text-anchor="start" x="312.5" y="-181" font-family="Helvetica,sans-Serif" font-size="10.00">+ __attribute__</text>
<polyline fill="none" stroke="black" points="304.5,-174 397.5,-174 "/>
<text text-anchor="middle" x="351" y="-162" font-family="Helvetica,sans-Serif" font-size="10.00"> </text>
</a>
</g>
</g>
<!-- Node5&#45;&gt;Node1 -->
<g id="edge4" class="edge">
<title>Node5&#45;&gt;Node1</title>
<path fill="none" stroke="#404040" d="M328.12,-154.77C319.43,-136.12 308.76,-115.58 297,-98 295.06,-95.1 292.99,-92.2 290.82,-89.32"/>
<polygon fill="none" stroke="#404040" points="290.64,-89.09 283.77,-86.88 283.18,-79.69 290.04,-81.91 290.64,-89.09"/>
<text text-anchor="middle" x="320.5" y="-101" font-family="Helvetica,sans-Serif" font-size="10.00"> +inttreg</text>
</g>
<!-- Node6 -->
<g id="node6" class="node">
<title>Node6</title>
<g id="a_node6"><a xlink:href="struct_t_r_a_p_l_o_g___s_t_a_t_u_s__s.html" target="_top" xlink:title="Data structure for RCON status capturing.">
<polygon fill="white" stroke="black" points="416,-160.5 416,-261.5 532,-261.5 532,-160.5 416,-160.5"/>
<text text-anchor="middle" x="474" y="-249.5" font-family="Helvetica,sans-Serif" font-size="10.00">TRAPLOG_STATUS_s</text>
<polyline fill="none" stroke="black" points="416,-242.5 532,-242.5 "/>
<text text-anchor="start" x="424" y="-230.5" font-family="Helvetica,sans-Serif" font-size="10.00">+ cpu_reset_trigger</text>
<text text-anchor="start" x="424" y="-219.5" font-family="Helvetica,sans-Serif" font-size="10.00">+ unsigned</text>
<text text-anchor="start" x="424" y="-208.5" font-family="Helvetica,sans-Serif" font-size="10.00">+ sw_reset</text>
<text text-anchor="start" x="424" y="-197.5" font-family="Helvetica,sans-Serif" font-size="10.00">+ value</text>
<text text-anchor="start" x="424" y="-186.5" font-family="Helvetica,sans-Serif" font-size="10.00">+ __attribute__</text>
<polyline fill="none" stroke="black" points="416,-179.5 532,-179.5 "/>
<text text-anchor="middle" x="474" y="-167.5" font-family="Helvetica,sans-Serif" font-size="10.00"> </text>
</a>
</g>
</g>
<!-- Node6&#45;&gt;Node1 -->
<g id="edge5" class="edge">
<title>Node6&#45;&gt;Node1</title>
<path fill="none" stroke="#404040" d="M439.08,-160.07C429.51,-148.38 418.56,-136.56 407,-127 376.86,-102.07 338.35,-81.18 306.55,-66.24"/>
<polygon fill="none" stroke="#404040" points="306.51,-66.22 299.39,-67.35 295.61,-61.2 302.73,-60.08 306.51,-66.22"/>
<text text-anchor="middle" x="396.5" y="-101" font-family="Helvetica,sans-Serif" font-size="10.00"> +status</text>
</g>
</g>
</svg>
