<?xml version="1.0" encoding="UTF-8" standalone="no"?>
<!DOCTYPE svg PUBLIC "-//W3C//DTD SVG 1.1//EN"
 "http://www.w3.org/Graphics/SVG/1.1/DTD/svg11.dtd">
<!-- Generated by graphviz version 2.44.1 (20200629.0846)
 -->
<!-- Title: BUCK_CONVERTER_STATUS_s Pages: 1 -->
<svg width="177pt" height="314pt"
 viewBox="0.00 0.00 177.00 314.00" xmlns="http://www.w3.org/2000/svg" xmlns:xlink="http://www.w3.org/1999/xlink">
<g id="graph0" class="graph" transform="scale(1 1) rotate(0) translate(4 310)">
<title>BUCK_CONVERTER_STATUS_s</title>
<polygon fill="white" stroke="transparent" points="-4,4 -4,-310 173,-310 173,4 -4,4"/>
<!-- Node1 -->
<g id="node1" class="node">
<title>Node1</title>
<g id="a_node1"><a xlink:title="Generic power controller status word.">
<polygon fill="#bfbfbf" stroke="black" points="0,-0.5 0,-90.5 162,-90.5 162,-0.5 0,-0.5"/>
<text text-anchor="middle" x="81" y="-78.5" font-family="Helvetica,sans-Serif" font-size="10.00">BUCK_CONVERTER_STATUS_s</text>
<polyline fill="none" stroke="black" points="0,-71.5 162,-71.5 "/>
<text text-anchor="start" x="8" y="-59.5" font-family="Helvetica,sans-Serif" font-size="10.00">+ unsigned</text>
<text text-anchor="start" x="8" y="-48.5" font-family="Helvetica,sans-Serif" font-size="10.00">+ suspend</text>
<text text-anchor="start" x="8" y="-37.5" font-family="Helvetica,sans-Serif" font-size="10.00">+ value</text>
<text text-anchor="start" x="8" y="-26.5" font-family="Helvetica,sans-Serif" font-size="10.00">+ @1</text>
<polyline fill="none" stroke="black" points="0,-19.5 162,-19.5 "/>
<text text-anchor="middle" x="81" y="-7.5" font-family="Helvetica,sans-Serif" font-size="10.00"> </text>
</a>
</g>
</g>
<!-- Node2 -->
<g id="node2" class="node">
<title>Node2</title>
<g id="a_node2"><a xlink:href="structvolatile.html" target="_top" xlink:title="Description">
<polygon fill="white" stroke="black" points="58,-248.5 58,-305.5 104,-305.5 104,-248.5 58,-248.5"/>
<text text-anchor="middle" x="81" y="-293.5" font-family="Helvetica,sans-Serif" font-size="10.00">volatile</text>
<polyline fill="none" stroke="black" points="58,-286.5 104,-286.5 "/>
<text text-anchor="middle" x="81" y="-274.5" font-family="Helvetica,sans-Serif" font-size="10.00"> </text>
<polyline fill="none" stroke="black" points="58,-267.5 104,-267.5 "/>
<text text-anchor="middle" x="81" y="-255.5" font-family="Helvetica,sans-Serif" font-size="10.00"> </text>
</a>
</g>
</g>
<!-- Node2&#45;&gt;Node1 -->
<g id="edge1" class="edge">
<title>Node2&#45;&gt;Node1</title>
<path fill="none" stroke="#404040" d="M81,-248.32C81,-212.5 81,-149.22 81,-103.04"/>
<polygon fill="none" stroke="#404040" points="81,-102.81 77,-96.81 81,-90.81 85,-96.81 81,-102.81"/>
<text text-anchor="middle" x="125" y="-222" font-family="Helvetica,sans-Serif" font-size="10.00"> +GO</text>
<text text-anchor="middle" x="125" y="-211" font-family="Helvetica,sans-Serif" font-size="10.00">+adc_active</text>
<text text-anchor="middle" x="125" y="-200" font-family="Helvetica,sans-Serif" font-size="10.00">+autorun</text>
<text text-anchor="middle" x="125" y="-189" font-family="Helvetica,sans-Serif" font-size="10.00">+busy</text>
<text text-anchor="middle" x="125" y="-178" font-family="Helvetica,sans-Serif" font-size="10.00">+cs_calib_complete</text>
<text text-anchor="middle" x="125" y="-167" font-family="Helvetica,sans-Serif" font-size="10.00">+cs_calib_enable</text>
<text text-anchor="middle" x="125" y="-156" font-family="Helvetica,sans-Serif" font-size="10.00">+enabled</text>
<text text-anchor="middle" x="125" y="-145" font-family="Helvetica,sans-Serif" font-size="10.00">+fault_active</text>
<text text-anchor="middle" x="125" y="-134" font-family="Helvetica,sans-Serif" font-size="10.00">+pwm_active</text>
<text text-anchor="middle" x="125" y="-123" font-family="Helvetica,sans-Serif" font-size="10.00">+ready</text>
<text text-anchor="middle" x="125" y="-112" font-family="Helvetica,sans-Serif" font-size="10.00">...</text>
</g>
</g>
</svg>
