<?xml version="1.0" encoding="UTF-8" standalone="no"?>
<!DOCTYPE svg PUBLIC "-//W3C//DTD SVG 1.1//EN"
 "http://www.w3.org/Graphics/SVG/1.1/DTD/svg11.dtd">
<!-- Generated by graphviz version 2.44.1 (20200629.0846)
 -->
<!-- Title: NPNZ_PORT_s Pages: 1 -->
<svg width="111pt" height="204pt"
 viewBox="0.00 0.00 111.00 204.00" xmlns="http://www.w3.org/2000/svg" xmlns:xlink="http://www.w3.org/1999/xlink">
<g id="graph0" class="graph" transform="scale(1 1) rotate(0) translate(4 200)">
<title>NPNZ_PORT_s</title>
<polygon fill="white" stroke="transparent" points="-4,4 -4,-200 107,-200 107,4 -4,4"/>
<!-- Node1 -->
<g id="node1" class="node">
<title>Node1</title>
<g id="a_node1"><a xlink:title=" ">
<polygon fill="#bfbfbf" stroke="black" points="0,-0.5 0,-57.5 84,-57.5 84,-0.5 0,-0.5"/>
<text text-anchor="middle" x="42" y="-45.5" font-family="Helvetica,sans-Serif" font-size="10.00">NPNZ_PORT_s</text>
<polyline fill="none" stroke="black" points="0,-38.5 84,-38.5 "/>
<text text-anchor="middle" x="42" y="-26.5" font-family="Helvetica,sans-Serif" font-size="10.00"> </text>
<polyline fill="none" stroke="black" points="0,-19.5 84,-19.5 "/>
<text text-anchor="middle" x="42" y="-7.5" font-family="Helvetica,sans-Serif" font-size="10.00"> </text>
</a>
</g>
</g>
<!-- Node2 -->
<g id="node2" class="node">
<title>Node2</title>
<g id="a_node2"><a xlink:href="structvolatile.html" target="_top" xlink:title="Description">
<polygon fill="white" stroke="black" points="19,-138.5 19,-195.5 65,-195.5 65,-138.5 19,-138.5"/>
<text text-anchor="middle" x="42" y="-183.5" font-family="Helvetica,sans-Serif" font-size="10.00">volatile</text>
<polyline fill="none" stroke="black" points="19,-176.5 65,-176.5 "/>
<text text-anchor="middle" x="42" y="-164.5" font-family="Helvetica,sans-Serif" font-size="10.00"> </text>
<polyline fill="none" stroke="black" points="19,-157.5 65,-157.5 "/>
<text text-anchor="middle" x="42" y="-145.5" font-family="Helvetica,sans-Serif" font-size="10.00"> </text>
</a>
</g>
</g>
<!-- Node2&#45;&gt;Node1 -->
<g id="edge1" class="edge">
<title>Node2&#45;&gt;Node1</title>
<path fill="none" stroke="#404040" d="M42,-138.48C42,-118.79 42,-91.99 42,-69.95"/>
<polygon fill="none" stroke="#404040" points="42,-69.95 38,-63.95 42,-57.95 46,-63.95 42,-69.95"/>
<text text-anchor="middle" x="72.5" y="-112" font-family="Helvetica,sans-Serif" font-size="10.00"> +NormFactor</text>
<text text-anchor="middle" x="72.5" y="-101" font-family="Helvetica,sans-Serif" font-size="10.00">+NormScaler</text>
<text text-anchor="middle" x="72.5" y="-90" font-family="Helvetica,sans-Serif" font-size="10.00">+Offset</text>
<text text-anchor="middle" x="72.5" y="-79" font-family="Helvetica,sans-Serif" font-size="10.00">+ptrAddress</text>
</g>
</g>
</svg>
