<?xml version="1.0" encoding="UTF-8" standalone="no"?>
<!DOCTYPE svg PUBLIC "-//W3C//DTD SVG 1.1//EN"
 "http://www.w3.org/Graphics/SVG/1.1/DTD/svg11.dtd">
<!-- Generated by graphviz version 2.44.1 (20200629.0846)
 -->
<!-- Title: BUCK_CONVERTER_DATA_s Pages: 1 -->
<svg width="158pt" height="248pt"
 viewBox="0.00 0.00 158.00 248.00" xmlns="http://www.w3.org/2000/svg" xmlns:xlink="http://www.w3.org/1999/xlink">
<g id="graph0" class="graph" transform="scale(1 1) rotate(0) translate(4 244)">
<title>BUCK_CONVERTER_DATA_s</title>
<polygon fill="white" stroke="transparent" points="-4,4 -4,-244 154,-244 154,4 -4,4"/>
<!-- Node1 -->
<g id="node1" class="node">
<title>Node1</title>
<g id="a_node1"><a xlink:title="Description:">
<polygon fill="#bfbfbf" stroke="black" points="0,-0.5 0,-57.5 150,-57.5 150,-0.5 0,-0.5"/>
<text text-anchor="middle" x="75" y="-45.5" font-family="Helvetica,sans-Serif" font-size="10.00">BUCK_CONVERTER_DATA_s</text>
<polyline fill="none" stroke="black" points="0,-38.5 150,-38.5 "/>
<text text-anchor="middle" x="75" y="-26.5" font-family="Helvetica,sans-Serif" font-size="10.00"> </text>
<polyline fill="none" stroke="black" points="0,-19.5 150,-19.5 "/>
<text text-anchor="middle" x="75" y="-7.5" font-family="Helvetica,sans-Serif" font-size="10.00"> </text>
</a>
</g>
</g>
<!-- Node2 -->
<g id="node2" class="node">
<title>Node2</title>
<g id="a_node2"><a xlink:href="structvolatile.html" target="_top" xlink:title="Description">
<polygon fill="white" stroke="black" points="52,-182.5 52,-239.5 98,-239.5 98,-182.5 52,-182.5"/>
<text text-anchor="middle" x="75" y="-227.5" font-family="Helvetica,sans-Serif" font-size="10.00">volatile</text>
<polyline fill="none" stroke="black" points="52,-220.5 98,-220.5 "/>
<text text-anchor="middle" x="75" y="-208.5" font-family="Helvetica,sans-Serif" font-size="10.00"> </text>
<polyline fill="none" stroke="black" points="52,-201.5 98,-201.5 "/>
<text text-anchor="middle" x="75" y="-189.5" font-family="Helvetica,sans-Serif" font-size="10.00"> </text>
</a>
</g>
</g>
<!-- Node2&#45;&gt;Node1 -->
<g id="edge1" class="edge">
<title>Node2&#45;&gt;Node1</title>
<path fill="none" stroke="#404040" d="M75,-182.27C75,-152.28 75,-104.18 75,-70.08"/>
<polygon fill="none" stroke="#404040" points="75,-69.76 71,-63.76 75,-57.76 79,-63.76 75,-69.76"/>
<text text-anchor="middle" x="109" y="-156" font-family="Helvetica,sans-Serif" font-size="10.00"> +control_error</text>
<text text-anchor="middle" x="109" y="-145" font-family="Helvetica,sans-Serif" font-size="10.00">+control_input</text>
<text text-anchor="middle" x="109" y="-134" font-family="Helvetica,sans-Serif" font-size="10.00">+control_output</text>
<text text-anchor="middle" x="109" y="-123" font-family="Helvetica,sans-Serif" font-size="10.00">+i_out</text>
<text text-anchor="middle" x="109" y="-112" font-family="Helvetica,sans-Serif" font-size="10.00">+i_sns</text>
<text text-anchor="middle" x="109" y="-101" font-family="Helvetica,sans-Serif" font-size="10.00">+temp</text>
<text text-anchor="middle" x="109" y="-90" font-family="Helvetica,sans-Serif" font-size="10.00">+v_in</text>
<text text-anchor="middle" x="109" y="-79" font-family="Helvetica,sans-Serif" font-size="10.00">+v_out</text>
</g>
</g>
</svg>
