<?xml version="1.0" encoding="UTF-8" standalone="no"?>
<!DOCTYPE svg PUBLIC "-//W3C//DTD SVG 1.1//EN"
 "http://www.w3.org/Graphics/SVG/1.1/DTD/svg11.dtd">
<!-- Generated by graphviz version 2.44.1 (20200629.0846)
 -->
<!-- Title: FLT_EVENT_RESPONSE_s Pages: 1 -->
<svg width="248pt" height="321pt"
 viewBox="0.00 0.00 247.50 321.00" xmlns="http://www.w3.org/2000/svg" xmlns:xlink="http://www.w3.org/1999/xlink">
<g id="graph0" class="graph" transform="scale(1 1) rotate(0) translate(4 317)">
<title>FLT_EVENT_RESPONSE_s</title>
<polygon fill="white" stroke="transparent" points="-4,4 -4,-317 243.5,-317 243.5,4 -4,4"/>
<!-- Node1 -->
<g id="node1" class="node">
<title>Node1</title>
<g id="a_node1"><a xlink:title="This data structure defines the fault monitor event response object.">
<polygon fill="#bfbfbf" stroke="black" points="0,-0.5 0,-57.5 141,-57.5 141,-0.5 0,-0.5"/>
<text text-anchor="middle" x="70.5" y="-45.5" font-family="Helvetica,sans-Serif" font-size="10.00">FLT_EVENT_RESPONSE_s</text>
<polyline fill="none" stroke="black" points="0,-38.5 141,-38.5 "/>
<text text-anchor="middle" x="70.5" y="-26.5" font-family="Helvetica,sans-Serif" font-size="10.00"> </text>
<polyline fill="none" stroke="black" points="0,-19.5 141,-19.5 "/>
<text text-anchor="middle" x="70.5" y="-7.5" font-family="Helvetica,sans-Serif" font-size="10.00"> </text>
</a>
</g>
</g>
<!-- Node2 -->
<g id="node2" class="node">
<title>Node2</title>
<g id="a_node2"><a xlink:href="struct_f_a_u_l_t___o_b_j_e_c_t__s.html" target="_top" xlink:title="Pre&#45;initialized data structure object of a default fault object.">
<polygon fill="white" stroke="black" points="139.5,-95.5 139.5,-152.5 239.5,-152.5 239.5,-95.5 139.5,-95.5"/>
<text text-anchor="middle" x="189.5" y="-140.5" font-family="Helvetica,sans-Serif" font-size="10.00">FAULT_OBJECT_s</text>
<polyline fill="none" stroke="black" points="139.5,-133.5 239.5,-133.5 "/>
<text text-anchor="middle" x="189.5" y="-121.5" font-family="Helvetica,sans-Serif" font-size="10.00"> </text>
<polyline fill="none" stroke="black" points="139.5,-114.5 239.5,-114.5 "/>
<text text-anchor="middle" x="189.5" y="-102.5" font-family="Helvetica,sans-Serif" font-size="10.00"> </text>
</a>
</g>
</g>
<!-- Node2&#45;&gt;Node1 -->
<g id="edge1" class="edge">
<title>Node2&#45;&gt;Node1</title>
<path fill="none" stroke="midnightblue" d="M146.08,-89.06C132.88,-78.75 118.55,-67.55 105.95,-57.71"/>
<polygon fill="none" stroke="midnightblue" points="144.08,-91.95 154.12,-95.35 148.39,-86.43 144.08,-91.95"/>
</g>
<!-- Node3 -->
<g id="node3" class="node">
<title>Node3</title>
<g id="a_node3"><a xlink:href="structvolatile.html" target="_top" xlink:title="Description">
<polygon fill="white" stroke="black" points="15.5,-255.5 15.5,-312.5 61.5,-312.5 61.5,-255.5 15.5,-255.5"/>
<text text-anchor="middle" x="38.5" y="-300.5" font-family="Helvetica,sans-Serif" font-size="10.00">volatile</text>
<polyline fill="none" stroke="black" points="15.5,-293.5 61.5,-293.5 "/>
<text text-anchor="middle" x="38.5" y="-281.5" font-family="Helvetica,sans-Serif" font-size="10.00"> </text>
<polyline fill="none" stroke="black" points="15.5,-274.5 61.5,-274.5 "/>
<text text-anchor="middle" x="38.5" y="-262.5" font-family="Helvetica,sans-Serif" font-size="10.00"> </text>
</a>
</g>
</g>
<!-- Node3&#45;&gt;Node1 -->
<g id="edge3" class="edge">
<title>Node3&#45;&gt;Node1</title>
<path fill="none" stroke="#404040" d="M32.32,-255.31C25.17,-218.1 16.2,-150.24 31.5,-95 34.07,-85.73 38.35,-76.45 43.16,-67.92"/>
<polygon fill="none" stroke="#404040" points="43.21,-67.84 42.91,-60.63 49.44,-57.58 49.75,-64.79 43.21,-67.84"/>
<text text-anchor="middle" x="81" y="-132.5" font-family="Helvetica,sans-Serif" font-size="10.00"> +compareThreshold</text>
<text text-anchor="middle" x="81" y="-121.5" font-family="Helvetica,sans-Serif" font-size="10.00">+eventThreshold</text>
<text text-anchor="middle" x="81" y="-110.5" font-family="Helvetica,sans-Serif" font-size="10.00">+ptrResponseFunction</text>
</g>
<!-- Node3&#45;&gt;Node2 -->
<g id="edge2" class="edge">
<title>Node3&#45;&gt;Node2</title>
<path fill="none" stroke="#404040" d="M61.76,-258.66C86.58,-232.69 126.16,-191.27 154.69,-161.42"/>
<polygon fill="none" stroke="#404040" points="154.87,-161.23 156.12,-154.13 163.16,-152.56 161.91,-159.66 154.87,-161.23"/>
<text text-anchor="middle" x="189.5" y="-229" font-family="Helvetica,sans-Serif" font-size="10.00"> +Counter</text>
<text text-anchor="middle" x="189.5" y="-218" font-family="Helvetica,sans-Serif" font-size="10.00">+RecoveryResponse</text>
<text text-anchor="middle" x="189.5" y="-207" font-family="Helvetica,sans-Serif" font-size="10.00">+ReferenceObject</text>
<text text-anchor="middle" x="189.5" y="-196" font-family="Helvetica,sans-Serif" font-size="10.00">+SourceObject</text>
<text text-anchor="middle" x="189.5" y="-185" font-family="Helvetica,sans-Serif" font-size="10.00">+Status</text>
<text text-anchor="middle" x="189.5" y="-174" font-family="Helvetica,sans-Serif" font-size="10.00">+TripResponse</text>
</g>
</g>
</svg>
