<?xml version="1.0" encoding="UTF-8" standalone="no"?>
<!DOCTYPE svg PUBLIC "-//W3C//DTD SVG 1.1//EN"
 "http://www.w3.org/Graphics/SVG/1.1/DTD/svg11.dtd">
<!-- Generated by graphviz version 2.44.1 (20200629.0846)
 -->
<!-- Title: BUCK_STARTUP_PERIOD_HANDLER_s Pages: 1 -->
<svg width="143pt" height="215pt"
 viewBox="0.00 0.00 143.00 215.00" xmlns="http://www.w3.org/2000/svg" xmlns:xlink="http://www.w3.org/1999/xlink">
<g id="graph0" class="graph" transform="scale(1 1) rotate(0) translate(4 211)">
<title>BUCK_STARTUP_PERIOD_HANDLER_s</title>
<polygon fill="white" stroke="transparent" points="-4,4 -4,-211 139,-211 139,4 -4,4"/>
<!-- Node1 -->
<g id="node1" class="node">
<title>Node1</title>
<g id="a_node1"><a xlink:title=" ">
<polygon fill="#bfbfbf" stroke="black" points="0,-0.5 0,-68.5 135,-68.5 135,-0.5 0,-0.5"/>
<text text-anchor="start" x="8" y="-56.5" font-family="Helvetica,sans-Serif" font-size="10.00">BUCK_STARTUP_PERIOD</text>
<text text-anchor="middle" x="67.5" y="-45.5" font-family="Helvetica,sans-Serif" font-size="10.00">_HANDLER_s</text>
<polyline fill="none" stroke="black" points="0,-38.5 135,-38.5 "/>
<text text-anchor="middle" x="67.5" y="-26.5" font-family="Helvetica,sans-Serif" font-size="10.00"> </text>
<polyline fill="none" stroke="black" points="0,-19.5 135,-19.5 "/>
<text text-anchor="middle" x="67.5" y="-7.5" font-family="Helvetica,sans-Serif" font-size="10.00"> </text>
</a>
</g>
</g>
<!-- Node2 -->
<g id="node2" class="node">
<title>Node2</title>
<g id="a_node2"><a xlink:href="structvolatile.html" target="_top" xlink:title="Description">
<polygon fill="white" stroke="black" points="44.5,-149.5 44.5,-206.5 90.5,-206.5 90.5,-149.5 44.5,-149.5"/>
<text text-anchor="middle" x="67.5" y="-194.5" font-family="Helvetica,sans-Serif" font-size="10.00">volatile</text>
<polyline fill="none" stroke="black" points="44.5,-187.5 90.5,-187.5 "/>
<text text-anchor="middle" x="67.5" y="-175.5" font-family="Helvetica,sans-Serif" font-size="10.00"> </text>
<polyline fill="none" stroke="black" points="44.5,-168.5 90.5,-168.5 "/>
<text text-anchor="middle" x="67.5" y="-156.5" font-family="Helvetica,sans-Serif" font-size="10.00"> </text>
</a>
</g>
</g>
<!-- Node2&#45;&gt;Node1 -->
<g id="edge1" class="edge">
<title>Node2&#45;&gt;Node1</title>
<path fill="none" stroke="#404040" d="M67.5,-149.38C67.5,-129.84 67.5,-103.19 67.5,-80.59"/>
<polygon fill="none" stroke="#404040" points="67.5,-80.52 63.5,-74.52 67.5,-68.52 71.5,-74.52 67.5,-80.52"/>
<text text-anchor="middle" x="97" y="-123" font-family="Helvetica,sans-Serif" font-size="10.00"> +counter</text>
<text text-anchor="middle" x="97" y="-112" font-family="Helvetica,sans-Serif" font-size="10.00">+period</text>
<text text-anchor="middle" x="97" y="-101" font-family="Helvetica,sans-Serif" font-size="10.00">+ref_inc_step</text>
<text text-anchor="middle" x="97" y="-90" font-family="Helvetica,sans-Serif" font-size="10.00">+reference</text>
</g>
</g>
</svg>
