<?xml version="1.0" encoding="UTF-8" standalone="no"?>
<!DOCTYPE svg PUBLIC "-//W3C//DTD SVG 1.1//EN"
 "http://www.w3.org/Graphics/SVG/1.1/DTD/svg11.dtd">
<!-- Generated by graphviz version 2.44.1 (20200629.0846)
 -->
<!-- Title: __attribute__ Pages: 1 -->
<svg width="87pt" height="237pt"
 viewBox="0.00 0.00 87.00 237.00" xmlns="http://www.w3.org/2000/svg" xmlns:xlink="http://www.w3.org/1999/xlink">
<g id="graph0" class="graph" transform="scale(1 1) rotate(0) translate(4 233)">
<title>__attribute__</title>
<polygon fill="white" stroke="transparent" points="-4,4 -4,-233 83,-233 83,4 -4,4"/>
<!-- Node1 -->
<g id="node1" class="node">
<title>Node1</title>
<g id="a_node1"><a xlink:title=" ">
<polygon fill="#bfbfbf" stroke="black" points="0,-0.5 0,-112.5 79,-112.5 79,-0.5 0,-0.5"/>
<text text-anchor="middle" x="39.5" y="-100.5" font-family="Helvetica,sans-Serif" font-size="10.00">__attribute__</text>
<polyline fill="none" stroke="black" points="0,-93.5 79,-93.5 "/>
<text text-anchor="start" x="8" y="-81.5" font-family="Helvetica,sans-Serif" font-size="10.00">+ DACxCONL</text>
<text text-anchor="start" x="8" y="-70.5" font-family="Helvetica,sans-Serif" font-size="10.00">+ DACxCONH</text>
<text text-anchor="start" x="8" y="-59.5" font-family="Helvetica,sans-Serif" font-size="10.00">+ DACxDATL</text>
<text text-anchor="start" x="8" y="-48.5" font-family="Helvetica,sans-Serif" font-size="10.00">+ DACxDATH</text>
<text text-anchor="start" x="8" y="-37.5" font-family="Helvetica,sans-Serif" font-size="10.00">+ SLPxCONL</text>
<text text-anchor="start" x="8" y="-26.5" font-family="Helvetica,sans-Serif" font-size="10.00">+ SLPxCONH</text>
<polyline fill="none" stroke="black" points="0,-19.5 79,-19.5 "/>
<text text-anchor="middle" x="39.5" y="-7.5" font-family="Helvetica,sans-Serif" font-size="10.00"> </text>
</a>
</g>
</g>
<!-- Node2 -->
<g id="node2" class="node">
<title>Node2</title>
<g id="a_node2"><a xlink:href="structvolatile.html" target="_top" xlink:title="Description">
<polygon fill="white" stroke="black" points="16.5,-171.5 16.5,-228.5 62.5,-228.5 62.5,-171.5 16.5,-171.5"/>
<text text-anchor="middle" x="39.5" y="-216.5" font-family="Helvetica,sans-Serif" font-size="10.00">volatile</text>
<polyline fill="none" stroke="black" points="16.5,-209.5 62.5,-209.5 "/>
<text text-anchor="middle" x="39.5" y="-197.5" font-family="Helvetica,sans-Serif" font-size="10.00"> </text>
<polyline fill="none" stroke="black" points="16.5,-190.5 62.5,-190.5 "/>
<text text-anchor="middle" x="39.5" y="-178.5" font-family="Helvetica,sans-Serif" font-size="10.00"> </text>
</a>
</g>
</g>
<!-- Node2&#45;&gt;Node1 -->
<g id="edge1" class="edge">
<title>Node2&#45;&gt;Node1</title>
<path fill="none" stroke="#404040" d="M39.5,-171.38C39.5,-158.05 39.5,-141.42 39.5,-125.01"/>
<polygon fill="none" stroke="#404040" points="39.5,-124.57 35.5,-118.57 39.5,-112.57 43.5,-118.57 39.5,-124.57"/>
<text text-anchor="middle" x="53.5" y="-145" font-family="Helvetica,sans-Serif" font-size="10.00"> +bits</text>
<text text-anchor="middle" x="53.5" y="-134" font-family="Helvetica,sans-Serif" font-size="10.00">+value</text>
</g>
</g>
</svg>
