<?xml version="1.0" encoding="UTF-8" standalone="no"?>
<!DOCTYPE svg PUBLIC "-//W3C//DTD SVG 1.1//EN"
 "http://www.w3.org/Graphics/SVG/1.1/DTD/svg11.dtd">
<!-- Generated by graphviz version 2.44.1 (20200629.0846)
 -->
<!-- Title: FAULT_OBJECT_s Pages: 1 -->
<svg width="148pt" height="226pt"
 viewBox="0.00 0.00 148.00 226.00" xmlns="http://www.w3.org/2000/svg" xmlns:xlink="http://www.w3.org/1999/xlink">
<g id="graph0" class="graph" transform="scale(1 1) rotate(0) translate(4 222)">
<title>FAULT_OBJECT_s</title>
<polygon fill="white" stroke="transparent" points="-4,4 -4,-222 144,-222 144,4 -4,4"/>
<!-- Node1 -->
<g id="node1" class="node">
<title>Node1</title>
<g id="a_node1"><a xlink:title="Pre&#45;initialized data structure object of a default fault object.">
<polygon fill="#bfbfbf" stroke="black" points="0,-0.5 0,-57.5 100,-57.5 100,-0.5 0,-0.5"/>
<text text-anchor="middle" x="50" y="-45.5" font-family="Helvetica,sans-Serif" font-size="10.00">FAULT_OBJECT_s</text>
<polyline fill="none" stroke="black" points="0,-38.5 100,-38.5 "/>
<text text-anchor="middle" x="50" y="-26.5" font-family="Helvetica,sans-Serif" font-size="10.00"> </text>
<polyline fill="none" stroke="black" points="0,-19.5 100,-19.5 "/>
<text text-anchor="middle" x="50" y="-7.5" font-family="Helvetica,sans-Serif" font-size="10.00"> </text>
</a>
</g>
</g>
<!-- Node2 -->
<g id="node2" class="node">
<title>Node2</title>
<g id="a_node2"><a xlink:href="structvolatile.html" target="_top" xlink:title="Description">
<polygon fill="white" stroke="black" points="27,-160.5 27,-217.5 73,-217.5 73,-160.5 27,-160.5"/>
<text text-anchor="middle" x="50" y="-205.5" font-family="Helvetica,sans-Serif" font-size="10.00">volatile</text>
<polyline fill="none" stroke="black" points="27,-198.5 73,-198.5 "/>
<text text-anchor="middle" x="50" y="-186.5" font-family="Helvetica,sans-Serif" font-size="10.00"> </text>
<polyline fill="none" stroke="black" points="27,-179.5 73,-179.5 "/>
<text text-anchor="middle" x="50" y="-167.5" font-family="Helvetica,sans-Serif" font-size="10.00"> </text>
</a>
</g>
</g>
<!-- Node2&#45;&gt;Node1 -->
<g id="edge1" class="edge">
<title>Node2&#45;&gt;Node1</title>
<path fill="none" stroke="#404040" d="M50,-160.48C50,-135.48 50,-98.31 50,-70.03"/>
<polygon fill="none" stroke="#404040" points="50,-69.74 46,-63.74 50,-57.74 54,-63.74 50,-69.74"/>
<text text-anchor="middle" x="95" y="-134" font-family="Helvetica,sans-Serif" font-size="10.00"> +Counter</text>
<text text-anchor="middle" x="95" y="-123" font-family="Helvetica,sans-Serif" font-size="10.00">+RecoveryResponse</text>
<text text-anchor="middle" x="95" y="-112" font-family="Helvetica,sans-Serif" font-size="10.00">+ReferenceObject</text>
<text text-anchor="middle" x="95" y="-101" font-family="Helvetica,sans-Serif" font-size="10.00">+SourceObject</text>
<text text-anchor="middle" x="95" y="-90" font-family="Helvetica,sans-Serif" font-size="10.00">+Status</text>
<text text-anchor="middle" x="95" y="-79" font-family="Helvetica,sans-Serif" font-size="10.00">+TripResponse</text>
</g>
</g>
</svg>
