<?xml version="1.0" encoding="UTF-8" standalone="no"?>
<!DOCTYPE svg PUBLIC "-//W3C//DTD SVG 1.1//EN"
 "http://www.w3.org/Graphics/SVG/1.1/DTD/svg11.dtd">
<!-- Generated by graphviz version 2.44.1 (20200629.0846)
 -->
<!-- Title: NPNZ_STATUS_s Pages: 1 -->
<svg width="135pt" height="281pt"
 viewBox="0.00 0.00 134.50 281.00" xmlns="http://www.w3.org/2000/svg" xmlns:xlink="http://www.w3.org/1999/xlink">
<g id="graph0" class="graph" transform="scale(1 1) rotate(0) translate(4 277)">
<title>NPNZ_STATUS_s</title>
<polygon fill="white" stroke="transparent" points="-4,4 -4,-277 130.5,-277 130.5,4 -4,4"/>
<!-- Node1 -->
<g id="node1" class="node">
<title>Node1</title>
<g id="a_node1"><a xlink:title=" ">
<polygon fill="#bfbfbf" stroke="black" points="0,-0.5 0,-57.5 95,-57.5 95,-0.5 0,-0.5"/>
<text text-anchor="middle" x="47.5" y="-45.5" font-family="Helvetica,sans-Serif" font-size="10.00">NPNZ_STATUS_s</text>
<polyline fill="none" stroke="black" points="0,-38.5 95,-38.5 "/>
<text text-anchor="start" x="8" y="-26.5" font-family="Helvetica,sans-Serif" font-size="10.00">+ __attribute__</text>
<polyline fill="none" stroke="black" points="0,-19.5 95,-19.5 "/>
<text text-anchor="middle" x="47.5" y="-7.5" font-family="Helvetica,sans-Serif" font-size="10.00"> </text>
</a>
</g>
</g>
<!-- Node2 -->
<g id="node2" class="node">
<title>Node2</title>
<g id="a_node2"><a xlink:href="structvolatile.html" target="_top" xlink:title="Description">
<polygon fill="white" stroke="black" points="24.5,-215.5 24.5,-272.5 70.5,-272.5 70.5,-215.5 24.5,-215.5"/>
<text text-anchor="middle" x="47.5" y="-260.5" font-family="Helvetica,sans-Serif" font-size="10.00">volatile</text>
<polyline fill="none" stroke="black" points="24.5,-253.5 70.5,-253.5 "/>
<text text-anchor="middle" x="47.5" y="-241.5" font-family="Helvetica,sans-Serif" font-size="10.00"> </text>
<polyline fill="none" stroke="black" points="24.5,-234.5 70.5,-234.5 "/>
<text text-anchor="middle" x="47.5" y="-222.5" font-family="Helvetica,sans-Serif" font-size="10.00"> </text>
</a>
</g>
</g>
<!-- Node2&#45;&gt;Node1 -->
<g id="edge1" class="edge">
<title>Node2&#45;&gt;Node1</title>
<path fill="none" stroke="#404040" d="M47.5,-215.15C47.5,-177.98 47.5,-111.91 47.5,-69.57"/>
<polygon fill="none" stroke="#404040" points="47.5,-69.52 43.5,-63.52 47.5,-57.52 51.5,-63.52 47.5,-69.52"/>
<text text-anchor="middle" x="87" y="-189" font-family="Helvetica,sans-Serif" font-size="10.00"> +agc_enabled</text>
<text text-anchor="middle" x="87" y="-178" font-family="Helvetica,sans-Serif" font-size="10.00">+enabled</text>
<text text-anchor="middle" x="87" y="-167" font-family="Helvetica,sans-Serif" font-size="10.00">+invert_input</text>
<text text-anchor="start" x="47.5" y="-156" font-family="Helvetica,sans-Serif" font-size="10.00">+lower_saturation</text>
<text text-anchor="middle" x="87" y="-145" font-family="Helvetica,sans-Serif" font-size="10.00">_event</text>
<text text-anchor="middle" x="87" y="-134" font-family="Helvetica,sans-Serif" font-size="10.00">+swap_source</text>
<text text-anchor="middle" x="87" y="-123" font-family="Helvetica,sans-Serif" font-size="10.00">+swap_target</text>
<text text-anchor="middle" x="87" y="-112" font-family="Helvetica,sans-Serif" font-size="10.00">+unsigned</text>
<text text-anchor="start" x="47.5" y="-101" font-family="Helvetica,sans-Serif" font-size="10.00">+upper_saturation</text>
<text text-anchor="middle" x="87" y="-90" font-family="Helvetica,sans-Serif" font-size="10.00">_event</text>
<text text-anchor="middle" x="87" y="-79" font-family="Helvetica,sans-Serif" font-size="10.00">+value</text>
</g>
</g>
</svg>
