<?xml version="1.0" encoding="UTF-8" standalone="no"?>
<!DOCTYPE svg PUBLIC "-//W3C//DTD SVG 1.1//EN"
 "http://www.w3.org/Graphics/SVG/1.1/DTD/svg11.dtd">
<!-- Generated by graphviz version 2.44.1 (20200629.0846)
 -->
<!-- Title: BUCK_LOOP_SETTINGS_s Pages: 1 -->
<svg width="152pt" height="259pt"
 viewBox="0.00 0.00 151.50 259.00" xmlns="http://www.w3.org/2000/svg" xmlns:xlink="http://www.w3.org/1999/xlink">
<g id="graph0" class="graph" transform="scale(1 1) rotate(0) translate(4 255)">
<title>BUCK_LOOP_SETTINGS_s</title>
<polygon fill="white" stroke="transparent" points="-4,4 -4,-255 147.5,-255 147.5,4 -4,4"/>
<!-- Node1 -->
<g id="node1" class="node">
<title>Node1</title>
<g id="a_node1"><a xlink:title="Buck converter main settings">
<polygon fill="#bfbfbf" stroke="black" points="0,-0.5 0,-79.5 139,-79.5 139,-0.5 0,-0.5"/>
<text text-anchor="middle" x="69.5" y="-67.5" font-family="Helvetica,sans-Serif" font-size="10.00">BUCK_LOOP_SETTINGS_s</text>
<polyline fill="none" stroke="black" points="0,-60.5 139,-60.5 "/>
<text text-anchor="start" x="8" y="-48.5" font-family="Helvetica,sans-Serif" font-size="10.00">+ ctrl_Reset</text>
<text text-anchor="start" x="8" y="-37.5" font-family="Helvetica,sans-Serif" font-size="10.00">+ ctrl_Update</text>
<text text-anchor="start" x="8" y="-26.5" font-family="Helvetica,sans-Serif" font-size="10.00">+ ctrl_Precharge</text>
<polyline fill="none" stroke="black" points="0,-19.5 139,-19.5 "/>
<text text-anchor="middle" x="69.5" y="-7.5" font-family="Helvetica,sans-Serif" font-size="10.00"> </text>
</a>
</g>
</g>
<!-- Node2 -->
<g id="node2" class="node">
<title>Node2</title>
<g id="a_node2"><a xlink:href="structvolatile.html" target="_top" xlink:title="Description">
<polygon fill="white" stroke="black" points="46.5,-193.5 46.5,-250.5 92.5,-250.5 92.5,-193.5 46.5,-193.5"/>
<text text-anchor="middle" x="69.5" y="-238.5" font-family="Helvetica,sans-Serif" font-size="10.00">volatile</text>
<polyline fill="none" stroke="black" points="46.5,-231.5 92.5,-231.5 "/>
<text text-anchor="middle" x="69.5" y="-219.5" font-family="Helvetica,sans-Serif" font-size="10.00"> </text>
<polyline fill="none" stroke="black" points="46.5,-212.5 92.5,-212.5 "/>
<text text-anchor="middle" x="69.5" y="-200.5" font-family="Helvetica,sans-Serif" font-size="10.00"> </text>
</a>
</g>
</g>
<!-- Node2&#45;&gt;Node1 -->
<g id="edge1" class="edge">
<title>Node2&#45;&gt;Node1</title>
<path fill="none" stroke="#404040" d="M69.5,-193.27C69.5,-166.34 69.5,-124.81 69.5,-91.92"/>
<polygon fill="none" stroke="#404040" points="69.5,-91.79 65.5,-85.79 69.5,-79.79 73.5,-85.79 69.5,-91.79"/>
<text text-anchor="middle" x="106.5" y="-167" font-family="Helvetica,sans-Serif" font-size="10.00"> +controller</text>
<text text-anchor="middle" x="106.5" y="-156" font-family="Helvetica,sans-Serif" font-size="10.00">+ctrl_Initialize</text>
<text text-anchor="middle" x="106.5" y="-145" font-family="Helvetica,sans-Serif" font-size="10.00">+feedback_offset</text>
<text text-anchor="middle" x="106.5" y="-134" font-family="Helvetica,sans-Serif" font-size="10.00">+maximum</text>
<text text-anchor="middle" x="106.5" y="-123" font-family="Helvetica,sans-Serif" font-size="10.00">+minimum</text>
<text text-anchor="middle" x="106.5" y="-112" font-family="Helvetica,sans-Serif" font-size="10.00">+reference</text>
<text text-anchor="middle" x="106.5" y="-101" font-family="Helvetica,sans-Serif" font-size="10.00">+trigger_offset</text>
</g>
</g>
</svg>
