<?xml version="1.0" encoding="UTF-8" standalone="no"?>
<!DOCTYPE svg PUBLIC "-//W3C//DTD SVG 1.1//EN"
 "http://www.w3.org/Graphics/SVG/1.1/DTD/svg11.dtd">
<!-- Generated by graphviz version 2.44.1 (20200629.0846)
 -->
<!-- Title: BUCK_GPIO_INSTANCE_s Pages: 1 -->
<svg width="145pt" height="215pt"
 viewBox="0.00 0.00 145.00 215.00" xmlns="http://www.w3.org/2000/svg" xmlns:xlink="http://www.w3.org/1999/xlink">
<g id="graph0" class="graph" transform="scale(1 1) rotate(0) translate(4 211)">
<title>BUCK_GPIO_INSTANCE_s</title>
<polygon fill="white" stroke="transparent" points="-4,4 -4,-211 141,-211 141,4 -4,4"/>
<!-- Node1 -->
<g id="node1" class="node">
<title>Node1</title>
<g id="a_node1"><a xlink:title=" ">
<polygon fill="#bfbfbf" stroke="black" points="0,-0.5 0,-57.5 137,-57.5 137,-0.5 0,-0.5"/>
<text text-anchor="middle" x="68.5" y="-45.5" font-family="Helvetica,sans-Serif" font-size="10.00">BUCK_GPIO_INSTANCE_s</text>
<polyline fill="none" stroke="black" points="0,-38.5 137,-38.5 "/>
<text text-anchor="middle" x="68.5" y="-26.5" font-family="Helvetica,sans-Serif" font-size="10.00"> </text>
<polyline fill="none" stroke="black" points="0,-19.5 137,-19.5 "/>
<text text-anchor="middle" x="68.5" y="-7.5" font-family="Helvetica,sans-Serif" font-size="10.00"> </text>
</a>
</g>
</g>
<!-- Node2 -->
<g id="node2" class="node">
<title>Node2</title>
<g id="a_node2"><a xlink:href="structvolatile.html" target="_top" xlink:title="Description">
<polygon fill="white" stroke="black" points="45.5,-149.5 45.5,-206.5 91.5,-206.5 91.5,-149.5 45.5,-149.5"/>
<text text-anchor="middle" x="68.5" y="-194.5" font-family="Helvetica,sans-Serif" font-size="10.00">volatile</text>
<polyline fill="none" stroke="black" points="45.5,-187.5 91.5,-187.5 "/>
<text text-anchor="middle" x="68.5" y="-175.5" font-family="Helvetica,sans-Serif" font-size="10.00"> </text>
<polyline fill="none" stroke="black" points="45.5,-168.5 91.5,-168.5 "/>
<text text-anchor="middle" x="68.5" y="-156.5" font-family="Helvetica,sans-Serif" font-size="10.00"> </text>
</a>
</g>
</g>
<!-- Node2&#45;&gt;Node1 -->
<g id="edge1" class="edge">
<title>Node2&#45;&gt;Node1</title>
<path fill="none" stroke="#404040" d="M68.5,-149.35C68.5,-126.87 68.5,-94.85 68.5,-69.64"/>
<polygon fill="none" stroke="#404040" points="68.5,-69.53 64.5,-63.53 68.5,-57.53 72.5,-63.53 68.5,-69.53"/>
<text text-anchor="middle" x="90" y="-123" font-family="Helvetica,sans-Serif" font-size="10.00"> +enabled</text>
<text text-anchor="middle" x="90" y="-112" font-family="Helvetica,sans-Serif" font-size="10.00">+io_type</text>
<text text-anchor="middle" x="90" y="-101" font-family="Helvetica,sans-Serif" font-size="10.00">+pin</text>
<text text-anchor="middle" x="90" y="-90" font-family="Helvetica,sans-Serif" font-size="10.00">+polarity</text>
<text text-anchor="middle" x="90" y="-79" font-family="Helvetica,sans-Serif" font-size="10.00">+port</text>
</g>
</g>
</svg>
