<?xml version="1.0" encoding="UTF-8" standalone="no"?>
<!DOCTYPE svg PUBLIC "-//W3C//DTD SVG 1.1//EN"
 "http://www.w3.org/Graphics/SVG/1.1/DTD/svg11.dtd">
<!-- Generated by graphviz version 2.44.1 (20200629.0846)
 -->
<!-- Title: NPNZ_PORTS_s Pages: 1 -->
<svg width="119pt" height="237pt"
 viewBox="0.00 0.00 119.00 237.00" xmlns="http://www.w3.org/2000/svg" xmlns:xlink="http://www.w3.org/1999/xlink">
<g id="graph0" class="graph" transform="scale(1 1) rotate(0) translate(4 233)">
<title>NPNZ_PORTS_s</title>
<polygon fill="white" stroke="transparent" points="-4,4 -4,-233 115,-233 115,4 -4,4"/>
<!-- Node1 -->
<g id="node1" class="node">
<title>Node1</title>
<g id="a_node1"><a xlink:title=" ">
<polygon fill="#bfbfbf" stroke="black" points="0,-0.5 0,-57.5 111,-57.5 111,-0.5 0,-0.5"/>
<text text-anchor="middle" x="55.5" y="-45.5" font-family="Helvetica,sans-Serif" font-size="10.00">NPNZ_PORTS_s</text>
<polyline fill="none" stroke="black" points="0,-38.5 111,-38.5 "/>
<text text-anchor="start" x="8" y="-26.5" font-family="Helvetica,sans-Serif" font-size="10.00">+ ptrControlReference</text>
<polyline fill="none" stroke="black" points="0,-19.5 111,-19.5 "/>
<text text-anchor="middle" x="55.5" y="-7.5" font-family="Helvetica,sans-Serif" font-size="10.00"> </text>
</a>
</g>
</g>
<!-- Node2 -->
<g id="node2" class="node">
<title>Node2</title>
<g id="a_node2"><a xlink:href="struct_n_p_n_z___p_o_r_t__s.html" target="_top" xlink:title=" ">
<polygon fill="white" stroke="black" points="13.5,-138.5 13.5,-228.5 97.5,-228.5 97.5,-138.5 13.5,-138.5"/>
<text text-anchor="middle" x="55.5" y="-216.5" font-family="Helvetica,sans-Serif" font-size="10.00">NPNZ_PORT_s</text>
<polyline fill="none" stroke="black" points="13.5,-209.5 97.5,-209.5 "/>
<text text-anchor="start" x="21.5" y="-197.5" font-family="Helvetica,sans-Serif" font-size="10.00">+ ptrAddress</text>
<text text-anchor="start" x="21.5" y="-186.5" font-family="Helvetica,sans-Serif" font-size="10.00">+ NormScaler</text>
<text text-anchor="start" x="21.5" y="-175.5" font-family="Helvetica,sans-Serif" font-size="10.00">+ NormFactor</text>
<text text-anchor="start" x="21.5" y="-164.5" font-family="Helvetica,sans-Serif" font-size="10.00">+ Offset</text>
<polyline fill="none" stroke="black" points="13.5,-157.5 97.5,-157.5 "/>
<text text-anchor="middle" x="55.5" y="-145.5" font-family="Helvetica,sans-Serif" font-size="10.00"> </text>
</a>
</g>
</g>
<!-- Node2&#45;&gt;Node1 -->
<g id="edge1" class="edge">
<title>Node2&#45;&gt;Node1</title>
<path fill="none" stroke="#404040" d="M55.5,-138.39C55.5,-116.73 55.5,-90.82 55.5,-69.77"/>
<polygon fill="none" stroke="#404040" points="55.5,-69.69 51.5,-63.69 55.5,-57.69 59.5,-63.69 55.5,-69.69"/>
<text text-anchor="middle" x="81.5" y="-112" font-family="Helvetica,sans-Serif" font-size="10.00"> +AltSource</text>
<text text-anchor="middle" x="81.5" y="-101" font-family="Helvetica,sans-Serif" font-size="10.00">+AltTarget</text>
<text text-anchor="middle" x="81.5" y="-90" font-family="Helvetica,sans-Serif" font-size="10.00">+Source</text>
<text text-anchor="middle" x="81.5" y="-79" font-family="Helvetica,sans-Serif" font-size="10.00">+Target</text>
</g>
</g>
</svg>
