<?xml version="1.0" encoding="UTF-8" standalone="no"?>
<!DOCTYPE svg PUBLIC "-//W3C//DTD SVG 1.1//EN"
 "http://www.w3.org/Graphics/SVG/1.1/DTD/svg11.dtd">
<!-- Generated by graphviz version 2.44.1 (20200629.0846)
 -->
<!-- Title: BUCK_POWER_CONTROLLER_s Pages: 1 -->
<svg width="175pt" height="281pt"
 viewBox="0.00 0.00 175.00 281.00" xmlns="http://www.w3.org/2000/svg" xmlns:xlink="http://www.w3.org/1999/xlink">
<g id="graph0" class="graph" transform="scale(1 1) rotate(0) translate(4 277)">
<title>BUCK_POWER_CONTROLLER_s</title>
<polygon fill="white" stroke="transparent" points="-4,4 -4,-277 171,-277 171,4 -4,4"/>
<!-- Node1 -->
<g id="node1" class="node">
<title>Node1</title>
<g id="a_node1"><a xlink:title="Global data object for a BUCK CONVERTER.">
<polygon fill="#bfbfbf" stroke="black" points="0,-0.5 0,-57.5 167,-57.5 167,-0.5 0,-0.5"/>
<text text-anchor="middle" x="83.5" y="-45.5" font-family="Helvetica,sans-Serif" font-size="10.00">BUCK_POWER_CONTROLLER_s</text>
<polyline fill="none" stroke="black" points="0,-38.5 167,-38.5 "/>
<text text-anchor="middle" x="83.5" y="-26.5" font-family="Helvetica,sans-Serif" font-size="10.00"> </text>
<polyline fill="none" stroke="black" points="0,-19.5 167,-19.5 "/>
<text text-anchor="middle" x="83.5" y="-7.5" font-family="Helvetica,sans-Serif" font-size="10.00"> </text>
</a>
</g>
</g>
<!-- Node2 -->
<g id="node2" class="node">
<title>Node2</title>
<g id="a_node2"><a xlink:href="structvolatile.html" target="_top" xlink:title="Description">
<polygon fill="white" stroke="black" points="60.5,-215.5 60.5,-272.5 106.5,-272.5 106.5,-215.5 60.5,-215.5"/>
<text text-anchor="middle" x="83.5" y="-260.5" font-family="Helvetica,sans-Serif" font-size="10.00">volatile</text>
<polyline fill="none" stroke="black" points="60.5,-253.5 106.5,-253.5 "/>
<text text-anchor="middle" x="83.5" y="-241.5" font-family="Helvetica,sans-Serif" font-size="10.00"> </text>
<polyline fill="none" stroke="black" points="60.5,-234.5 106.5,-234.5 "/>
<text text-anchor="middle" x="83.5" y="-222.5" font-family="Helvetica,sans-Serif" font-size="10.00"> </text>
</a>
</g>
</g>
<!-- Node2&#45;&gt;Node1 -->
<g id="edge1" class="edge">
<title>Node2&#45;&gt;Node1</title>
<path fill="none" stroke="#404040" d="M83.5,-215.15C83.5,-177.98 83.5,-111.91 83.5,-69.57"/>
<polygon fill="none" stroke="#404040" points="83.5,-69.52 79.5,-63.52 83.5,-57.52 87.5,-63.52 83.5,-69.52"/>
<text text-anchor="middle" x="109.5" y="-189" font-family="Helvetica,sans-Serif" font-size="10.00"> +data</text>
<text text-anchor="middle" x="109.5" y="-178" font-family="Helvetica,sans-Serif" font-size="10.00">+feedback</text>
<text text-anchor="middle" x="109.5" y="-167" font-family="Helvetica,sans-Serif" font-size="10.00">+gpio</text>
<text text-anchor="middle" x="109.5" y="-156" font-family="Helvetica,sans-Serif" font-size="10.00">+i_loop</text>
<text text-anchor="middle" x="109.5" y="-145" font-family="Helvetica,sans-Serif" font-size="10.00">+set_values</text>
<text text-anchor="middle" x="109.5" y="-134" font-family="Helvetica,sans-Serif" font-size="10.00">+startup</text>
<text text-anchor="middle" x="109.5" y="-123" font-family="Helvetica,sans-Serif" font-size="10.00">+state_id</text>
<text text-anchor="middle" x="109.5" y="-112" font-family="Helvetica,sans-Serif" font-size="10.00">+status</text>
<text text-anchor="middle" x="109.5" y="-101" font-family="Helvetica,sans-Serif" font-size="10.00">+sw_node</text>
<text text-anchor="middle" x="109.5" y="-90" font-family="Helvetica,sans-Serif" font-size="10.00">+v_loop</text>
<text text-anchor="middle" x="109.5" y="-79" font-family="Helvetica,sans-Serif" font-size="10.00">...</text>
</g>
</g>
</svg>
