<?xml version="1.0" encoding="UTF-8" standalone="no"?>
<!DOCTYPE svg PUBLIC "-//W3C//DTD SVG 1.1//EN"
 "http://www.w3.org/Graphics/SVG/1.1/DTD/svg11.dtd">
<!-- Generated by graphviz version 2.44.1 (20200629.0846)
 -->
<!-- Title: BUCK_FEEDBACK_SETTINGS_s Pages: 1 -->
<svg width="173pt" height="441pt"
 viewBox="0.00 0.00 173.00 441.00" xmlns="http://www.w3.org/2000/svg" xmlns:xlink="http://www.w3.org/1999/xlink">
<g id="graph0" class="graph" transform="scale(1 1) rotate(0) translate(4 437)">
<title>BUCK_FEEDBACK_SETTINGS_s</title>
<polygon fill="white" stroke="transparent" points="-4,4 -4,-437 169,-437 169,4 -4,4"/>
<!-- Node1 -->
<g id="node1" class="node">
<title>Node1</title>
<g id="a_node1"><a xlink:title="Description:">
<polygon fill="#bfbfbf" stroke="black" points="0,-0.5 0,-57.5 165,-57.5 165,-0.5 0,-0.5"/>
<text text-anchor="middle" x="82.5" y="-45.5" font-family="Helvetica,sans-Serif" font-size="10.00">BUCK_FEEDBACK_SETTINGS_s</text>
<polyline fill="none" stroke="black" points="0,-38.5 165,-38.5 "/>
<text text-anchor="middle" x="82.5" y="-26.5" font-family="Helvetica,sans-Serif" font-size="10.00"> </text>
<polyline fill="none" stroke="black" points="0,-19.5 165,-19.5 "/>
<text text-anchor="middle" x="82.5" y="-7.5" font-family="Helvetica,sans-Serif" font-size="10.00"> </text>
</a>
</g>
</g>
<!-- Node2 -->
<g id="node2" class="node">
<title>Node2</title>
<g id="a_node2"><a xlink:href="struct_b_u_c_k___a_d_c___i_n_p_u_t___s_e_t_t_i_n_g_s__s.html" target="_top" xlink:title="Generic power converter ADC input channel configuration.">
<polygon fill="white" stroke="black" points="0,-138.5 0,-305.5 165,-305.5 165,-138.5 0,-138.5"/>
<text text-anchor="middle" x="82.5" y="-293.5" font-family="Helvetica,sans-Serif" font-size="10.00">BUCK_ADC_INPUT_SETTINGS_s</text>
<polyline fill="none" stroke="black" points="0,-286.5 165,-286.5 "/>
<text text-anchor="start" x="8" y="-274.5" font-family="Helvetica,sans-Serif" font-size="10.00">+ enabled</text>
<text text-anchor="start" x="8" y="-263.5" font-family="Helvetica,sans-Serif" font-size="10.00">+ adc_buffer</text>
<text text-anchor="start" x="8" y="-252.5" font-family="Helvetica,sans-Serif" font-size="10.00">+ gpio_instance</text>
<text text-anchor="start" x="8" y="-241.5" font-family="Helvetica,sans-Serif" font-size="10.00">+ adc_input</text>
<text text-anchor="start" x="8" y="-230.5" font-family="Helvetica,sans-Serif" font-size="10.00">+ adc_core</text>
<text text-anchor="start" x="8" y="-219.5" font-family="Helvetica,sans-Serif" font-size="10.00">+ trigger_source</text>
<text text-anchor="start" x="8" y="-208.5" font-family="Helvetica,sans-Serif" font-size="10.00">+ interrupt_enable</text>
<text text-anchor="start" x="8" y="-197.5" font-family="Helvetica,sans-Serif" font-size="10.00">+ early_interrupt_enable</text>
<text text-anchor="start" x="8" y="-186.5" font-family="Helvetica,sans-Serif" font-size="10.00">+ differential_input</text>
<text text-anchor="start" x="8" y="-175.5" font-family="Helvetica,sans-Serif" font-size="10.00">+ signed_result</text>
<text text-anchor="start" x="8" y="-164.5" font-family="Helvetica,sans-Serif" font-size="10.00">+ level_trigger</text>
<polyline fill="none" stroke="black" points="0,-157.5 165,-157.5 "/>
<text text-anchor="middle" x="82.5" y="-145.5" font-family="Helvetica,sans-Serif" font-size="10.00"> </text>
</a>
</g>
</g>
<!-- Node2&#45;&gt;Node1 -->
<g id="edge1" class="edge">
<title>Node2&#45;&gt;Node1</title>
<path fill="none" stroke="#404040" d="M82.5,-138.34C82.5,-114.68 82.5,-89.96 82.5,-70.11"/>
<polygon fill="none" stroke="#404040" points="82.5,-69.84 78.5,-63.84 82.5,-57.84 86.5,-63.84 82.5,-69.84"/>
<text text-anchor="middle" x="104.5" y="-112" font-family="Helvetica,sans-Serif" font-size="10.00"> +ad_isns</text>
<text text-anchor="middle" x="104.5" y="-101" font-family="Helvetica,sans-Serif" font-size="10.00">+ad_temp</text>
<text text-anchor="middle" x="104.5" y="-90" font-family="Helvetica,sans-Serif" font-size="10.00">+ad_vin</text>
<text text-anchor="middle" x="104.5" y="-79" font-family="Helvetica,sans-Serif" font-size="10.00">+ad_vout</text>
</g>
<!-- Node3 -->
<g id="node3" class="node">
<title>Node3</title>
<g id="a_node3"><a xlink:href="struct_b_u_c_k___a_d_c___i_n_p_u_t___s_c_a_l_i_n_g__s.html" target="_top" xlink:title="Generic power converter feedback specifications.">
<polygon fill="white" stroke="black" points="2.5,-353.5 2.5,-432.5 162.5,-432.5 162.5,-353.5 2.5,-353.5"/>
<text text-anchor="middle" x="82.5" y="-420.5" font-family="Helvetica,sans-Serif" font-size="10.00">BUCK_ADC_INPUT_SCALING_s</text>
<polyline fill="none" stroke="black" points="2.5,-413.5 162.5,-413.5 "/>
<text text-anchor="start" x="10.5" y="-401.5" font-family="Helvetica,sans-Serif" font-size="10.00">+ factor</text>
<text text-anchor="start" x="10.5" y="-390.5" font-family="Helvetica,sans-Serif" font-size="10.00">+ scaler</text>
<text text-anchor="start" x="10.5" y="-379.5" font-family="Helvetica,sans-Serif" font-size="10.00">+ offset</text>
<polyline fill="none" stroke="black" points="2.5,-372.5 162.5,-372.5 "/>
<text text-anchor="middle" x="82.5" y="-360.5" font-family="Helvetica,sans-Serif" font-size="10.00"> </text>
</a>
</g>
</g>
<!-- Node3&#45;&gt;Node2 -->
<g id="edge2" class="edge">
<title>Node3&#45;&gt;Node2</title>
<path fill="none" stroke="#404040" d="M82.5,-353.23C82.5,-342.45 82.5,-330.24 82.5,-317.74"/>
<polygon fill="none" stroke="#404040" points="82.5,-317.69 78.5,-311.69 82.5,-305.69 86.5,-311.69 82.5,-317.69"/>
<text text-anchor="middle" x="102.5" y="-327" font-family="Helvetica,sans-Serif" font-size="10.00"> +scaling</text>
</g>
</g>
</svg>
