<?xml version="1.0" encoding="UTF-8" standalone="no"?>
<!DOCTYPE svg PUBLIC "-//W3C//DTD SVG 1.1//EN"
 "http://www.w3.org/Graphics/SVG/1.1/DTD/svg11.dtd">
<!-- Generated by graphviz version 2.44.1 (20200629.0846)
 -->
<!-- Title: NPNZ16b_s Pages: 1 -->
<!--zoomable 485 -->
<svg id="main" version="1.1" xmlns="http://www.w3.org/2000/svg" xmlns:xlink="http://www.w3.org/1999/xlink" xml:space="preserve" onload="init(evt)">
<style type="text/css"><![CDATA[
.edge:hover path { stroke: red; }
.edge:hover polygon { stroke: red; fill: red; }
]]></style>
<script type="text/javascript"><![CDATA[
var edges = document.getElementsByTagName('g');
if (edges && edges.length) {
  for (var i=0;i<edges.length;i++) {
    if (edges[i].id.substr(0,4)=='edge') {
      edges[i].setAttribute('class','edge');
    }
  }
}
]]></script>
        <defs>
                <circle id="rim" cx="0" cy="0" r="7"/>
                <circle id="rim2" cx="0" cy="0" r="3.5"/>
                <g id="zoomPlus">
                        <use xlink:href="#rim" fill="#404040">
                                <set attributeName="fill" to="#808080" begin="zoomplus.mouseover" end="zoomplus.mouseout"/>
                        </use>
                        <path d="M-4,0h8M0,-4v8" fill="none" stroke="white" stroke-width="1.5" pointer-events="none"/>
                </g>
                <g id="zoomMin">
                        <use xlink:href="#rim" fill="#404040">
                                <set attributeName="fill" to="#808080" begin="zoomminus.mouseover" end="zoomminus.mouseout"/>
                        </use>
                        <path d="M-4,0h8" fill="none" stroke="white" stroke-width="1.5" pointer-events="none"/>
                </g>
                <g id="dirArrow">
                        <path fill="none" stroke="white" stroke-width="1.5" d="M0,-3.0v7 M-2.5,-0.5L0,-3.0L2.5,-0.5"/>
                </g>
               <g id="resetDef">
                       <use xlink:href="#rim2" fill="#404040">
                               <set attributeName="fill" to="#808080" begin="reset.mouseover" end="reset.mouseout"/>
                       </use>
               </g>
        </defs>

<script type="text/javascript">
var viewWidth = 1345;
var viewHeight = 485;
var sectionId = 'dynsection-0';
</script>
<script xlink:href="svgpan.js"/>
<svg id="graph" class="graph">
<g id="viewport">
<title>NPNZ16b_s</title>
<polygon fill="white" stroke="transparent" points="-4,4 -4,-481 1341,-481 1341,4 -4,4"/>
<!-- Node1 -->
<g id="node1" class="node">
<title>Node1</title>
<g id="a_node1"><a xlink:title=" ">
<polygon fill="#bfbfbf" stroke="black" points="603.5,-0.5 603.5,-57.5 671.5,-57.5 671.5,-0.5 603.5,-0.5"/>
<text text-anchor="middle" x="637.5" y="-45.5" font-family="Helvetica,sans-Serif" font-size="10.00">NPNZ16b_s</text>
<polyline fill="none" stroke="black" points="603.5,-38.5 671.5,-38.5 "/>
<text text-anchor="middle" x="637.5" y="-26.5" font-family="Helvetica,sans-Serif" font-size="10.00"> </text>
<polyline fill="none" stroke="black" points="603.5,-19.5 671.5,-19.5 "/>
<text text-anchor="middle" x="637.5" y="-7.5" font-family="Helvetica,sans-Serif" font-size="10.00"> </text>
</a>
</g>
</g>
<!-- Node2 -->
<g id="node2" class="node">
<title>Node2</title>
<g id="a_node2"><a xlink:href="struct_n_p_n_z___a_d_c___t_r_g_c_t_r_l__s.html" target="_top" xlink:title=" ">
<polygon fill="white" stroke="black" points="0,-160.5 0,-250.5 129,-250.5 129,-160.5 0,-160.5"/>
<text text-anchor="middle" x="64.5" y="-238.5" font-family="Helvetica,sans-Serif" font-size="10.00">NPNZ_ADC_TRGCTRL_s</text>
<polyline fill="none" stroke="black" points="0,-231.5 129,-231.5 "/>
<text text-anchor="start" x="8" y="-219.5" font-family="Helvetica,sans-Serif" font-size="10.00">+ ptrADCTriggerARegister</text>
<text text-anchor="start" x="8" y="-208.5" font-family="Helvetica,sans-Serif" font-size="10.00">+ ADCTriggerAOffset</text>
<text text-anchor="start" x="8" y="-197.5" font-family="Helvetica,sans-Serif" font-size="10.00">+ ptrADCTriggerBRegister</text>
<text text-anchor="start" x="8" y="-186.5" font-family="Helvetica,sans-Serif" font-size="10.00">+ ADCTriggerBOffset</text>
<polyline fill="none" stroke="black" points="0,-179.5 129,-179.5 "/>
<text text-anchor="middle" x="64.5" y="-167.5" font-family="Helvetica,sans-Serif" font-size="10.00"> </text>
</a>
</g>
</g>
<!-- Node2&#45;&gt;Node1 -->
<g id="edge1" class="edge">
<title>Node2&#45;&gt;Node1</title>
<path fill="none" stroke="#404040" d="M88.54,-160.43C101.13,-140.97 118.17,-119.32 138.5,-105 211.09,-53.85 481.63,-36.68 591.09,-31.75"/>
<polygon fill="none" stroke="#404040" points="591.32,-31.74 597.15,-27.48 603.31,-31.22 597.49,-35.47 591.32,-31.74"/>
<text text-anchor="middle" x="249.5" y="-79" font-family="Helvetica,sans-Serif" font-size="10.00"> +ADCTriggerControl</text>
</g>
<!-- Node3 -->
<g id="node3" class="node">
<title>Node3</title>
<g id="a_node3"><a xlink:href="struct_n_p_n_z___g_a_i_n___c_o_n_t_r_o_l__s.html" target="_top" xlink:title=" ">
<polygon fill="white" stroke="black" points="147.5,-160.5 147.5,-250.5 279.5,-250.5 279.5,-160.5 147.5,-160.5"/>
<text text-anchor="middle" x="213.5" y="-238.5" font-family="Helvetica,sans-Serif" font-size="10.00">NPNZ_GAIN_CONTROL_s</text>
<polyline fill="none" stroke="black" points="147.5,-231.5 279.5,-231.5 "/>
<text text-anchor="start" x="155.5" y="-219.5" font-family="Helvetica,sans-Serif" font-size="10.00">+ AgcScaler</text>
<text text-anchor="start" x="155.5" y="-208.5" font-family="Helvetica,sans-Serif" font-size="10.00">+ AgcFactor</text>
<text text-anchor="start" x="155.5" y="-197.5" font-family="Helvetica,sans-Serif" font-size="10.00">+ AgcMedian</text>
<text text-anchor="start" x="155.5" y="-186.5" font-family="Helvetica,sans-Serif" font-size="10.00">+ ptrAgcObserverFunction</text>
<polyline fill="none" stroke="black" points="147.5,-179.5 279.5,-179.5 "/>
<text text-anchor="middle" x="213.5" y="-167.5" font-family="Helvetica,sans-Serif" font-size="10.00"> </text>
</a>
</g>
</g>
<!-- Node3&#45;&gt;Node1 -->
<g id="edge2" class="edge">
<title>Node3&#45;&gt;Node1</title>
<path fill="none" stroke="#404040" d="M239.33,-160.35C252.19,-141.35 269.12,-120.08 288.5,-105 335.37,-68.52 507.68,-44.63 591.33,-34.92"/>
<polygon fill="none" stroke="#404040" points="591.56,-34.89 597.07,-30.24 603.48,-33.54 597.97,-38.19 591.56,-34.89"/>
<text text-anchor="middle" x="388" y="-79" font-family="Helvetica,sans-Serif" font-size="10.00"> +GainControl</text>
</g>
<!-- Node4 -->
<g id="node4" class="node">
<title>Node4</title>
<g id="a_node4"><a xlink:href="struct_n_p_n_z___l_i_m_i_t_s__s.html" target="_top" xlink:title=" ">
<polygon fill="white" stroke="black" points="297.5,-160.5 297.5,-250.5 385.5,-250.5 385.5,-160.5 297.5,-160.5"/>
<text text-anchor="middle" x="341.5" y="-238.5" font-family="Helvetica,sans-Serif" font-size="10.00">NPNZ_LIMITS_s</text>
<polyline fill="none" stroke="black" points="297.5,-231.5 385.5,-231.5 "/>
<text text-anchor="start" x="305.5" y="-219.5" font-family="Helvetica,sans-Serif" font-size="10.00">+ MinOutput</text>
<text text-anchor="start" x="305.5" y="-208.5" font-family="Helvetica,sans-Serif" font-size="10.00">+ MaxOutput</text>
<text text-anchor="start" x="305.5" y="-197.5" font-family="Helvetica,sans-Serif" font-size="10.00">+ AltMinOutput</text>
<text text-anchor="start" x="305.5" y="-186.5" font-family="Helvetica,sans-Serif" font-size="10.00">+ AltMaxOutput</text>
<polyline fill="none" stroke="black" points="297.5,-179.5 385.5,-179.5 "/>
<text text-anchor="middle" x="341.5" y="-167.5" font-family="Helvetica,sans-Serif" font-size="10.00"> </text>
</a>
</g>
</g>
<!-- Node4&#45;&gt;Node1 -->
<g id="edge3" class="edge">
<title>Node4&#45;&gt;Node1</title>
<path fill="none" stroke="#404040" d="M356.12,-160.49C364.58,-141.06 377.07,-119.4 394.5,-105 451.7,-57.76 538.5,-40.22 591.4,-33.75"/>
<polygon fill="none" stroke="#404040" points="591.51,-33.73 597.03,-29.09 603.44,-32.39 597.92,-37.04 591.51,-33.73"/>
<text text-anchor="middle" x="453.5" y="-79" font-family="Helvetica,sans-Serif" font-size="10.00"> +Limits</text>
</g>
<!-- Node5 -->
<g id="node5" class="node">
<title>Node5</title>
<g id="a_node5"><a xlink:href="struct_n_p_n_z___u_s_e_r___d_a_t_a___b_u_f_f_e_r__s.html" target="_top" xlink:title=" ">
<polygon fill="white" stroke="black" points="403.5,-160.5 403.5,-250.5 563.5,-250.5 563.5,-160.5 403.5,-160.5"/>
<text text-anchor="middle" x="483.5" y="-238.5" font-family="Helvetica,sans-Serif" font-size="10.00">NPNZ_USER_DATA_BUFFER_s</text>
<polyline fill="none" stroke="black" points="403.5,-231.5 563.5,-231.5 "/>
<text text-anchor="start" x="411.5" y="-219.5" font-family="Helvetica,sans-Serif" font-size="10.00">+ usrParam1</text>
<text text-anchor="start" x="411.5" y="-208.5" font-family="Helvetica,sans-Serif" font-size="10.00">+ usrParam2</text>
<text text-anchor="start" x="411.5" y="-197.5" font-family="Helvetica,sans-Serif" font-size="10.00">+ usrParam3</text>
<text text-anchor="start" x="411.5" y="-186.5" font-family="Helvetica,sans-Serif" font-size="10.00">+ usrParam4</text>
<polyline fill="none" stroke="black" points="403.5,-179.5 563.5,-179.5 "/>
<text text-anchor="middle" x="483.5" y="-167.5" font-family="Helvetica,sans-Serif" font-size="10.00"> </text>
</a>
</g>
</g>
<!-- Node5&#45;&gt;Node1 -->
<g id="edge4" class="edge">
<title>Node5&#45;&gt;Node1</title>
<path fill="none" stroke="#404040" d="M513.37,-160.24C531.69,-134.48 556.37,-102.05 581.5,-76 585.44,-71.91 589.73,-67.84 594.13,-63.9"/>
<polygon fill="none" stroke="#404040" points="594.14,-63.89 596.07,-56.94 603.22,-56.04 601.3,-62.99 594.14,-63.89"/>
<text text-anchor="middle" x="607.5" y="-79" font-family="Helvetica,sans-Serif" font-size="10.00"> +Advanced</text>
</g>
<!-- Node6 -->
<g id="node6" class="node">
<title>Node6</title>
<g id="a_node6"><a xlink:href="struct_n_p_n_z___p_o_r_t_s__s.html" target="_top" xlink:title=" ">
<polygon fill="white" stroke="black" points="582,-177 582,-234 693,-234 693,-177 582,-177"/>
<text text-anchor="middle" x="637.5" y="-222" font-family="Helvetica,sans-Serif" font-size="10.00">NPNZ_PORTS_s</text>
<polyline fill="none" stroke="black" points="582,-215 693,-215 "/>
<text text-anchor="start" x="590" y="-203" font-family="Helvetica,sans-Serif" font-size="10.00">+ ptrControlReference</text>
<polyline fill="none" stroke="black" points="582,-196 693,-196 "/>
<text text-anchor="middle" x="637.5" y="-184" font-family="Helvetica,sans-Serif" font-size="10.00"> </text>
</a>
</g>
</g>
<!-- Node6&#45;&gt;Node1 -->
<g id="edge5" class="edge">
<title>Node6&#45;&gt;Node1</title>
<path fill="none" stroke="#404040" d="M637.5,-176.85C637.5,-148 637.5,-102.51 637.5,-69.8"/>
<polygon fill="none" stroke="#404040" points="637.5,-69.52 633.5,-63.52 637.5,-57.52 641.5,-63.52 637.5,-69.52"/>
<text text-anchor="middle" x="654" y="-79" font-family="Helvetica,sans-Serif" font-size="10.00"> +Ports</text>
</g>
<!-- Node7 -->
<g id="node7" class="node">
<title>Node7</title>
<g id="a_node7"><a xlink:href="struct_n_p_n_z___p_o_r_t__s.html" target="_top" xlink:title=" ">
<polygon fill="white" stroke="black" points="595.5,-386.5 595.5,-476.5 679.5,-476.5 679.5,-386.5 595.5,-386.5"/>
<text text-anchor="middle" x="637.5" y="-464.5" font-family="Helvetica,sans-Serif" font-size="10.00">NPNZ_PORT_s</text>
<polyline fill="none" stroke="black" points="595.5,-457.5 679.5,-457.5 "/>
<text text-anchor="start" x="603.5" y="-445.5" font-family="Helvetica,sans-Serif" font-size="10.00">+ ptrAddress</text>
<text text-anchor="start" x="603.5" y="-434.5" font-family="Helvetica,sans-Serif" font-size="10.00">+ NormScaler</text>
<text text-anchor="start" x="603.5" y="-423.5" font-family="Helvetica,sans-Serif" font-size="10.00">+ NormFactor</text>
<text text-anchor="start" x="603.5" y="-412.5" font-family="Helvetica,sans-Serif" font-size="10.00">+ Offset</text>
<polyline fill="none" stroke="black" points="595.5,-405.5 679.5,-405.5 "/>
<text text-anchor="middle" x="637.5" y="-393.5" font-family="Helvetica,sans-Serif" font-size="10.00"> </text>
</a>
</g>
</g>
<!-- Node7&#45;&gt;Node6 -->
<g id="edge6" class="edge">
<title>Node7&#45;&gt;Node6</title>
<path fill="none" stroke="#404040" d="M637.5,-386.24C637.5,-345.49 637.5,-285.57 637.5,-246.29"/>
<polygon fill="none" stroke="#404040" points="637.5,-246.07 633.5,-240.07 637.5,-234.07 641.5,-240.07 637.5,-246.07"/>
<text text-anchor="middle" x="663.5" y="-360" font-family="Helvetica,sans-Serif" font-size="10.00"> +AltSource</text>
<text text-anchor="middle" x="663.5" y="-349" font-family="Helvetica,sans-Serif" font-size="10.00">+AltTarget</text>
<text text-anchor="middle" x="663.5" y="-338" font-family="Helvetica,sans-Serif" font-size="10.00">+Source</text>
<text text-anchor="middle" x="663.5" y="-327" font-family="Helvetica,sans-Serif" font-size="10.00">+Target</text>
</g>
<!-- Node8 -->
<g id="node8" class="node">
<title>Node8</title>
<g id="a_node8"><a xlink:href="struct_n_p_n_z___f_i_l_t_e_r___p_a_r_a_m_s__s.html" target="_top" xlink:title=" ">
<polygon fill="white" stroke="black" points="711,-105.5 711,-305.5 848,-305.5 848,-105.5 711,-105.5"/>
<text text-anchor="middle" x="779.5" y="-293.5" font-family="Helvetica,sans-Serif" font-size="10.00">NPNZ_FILTER_PARAMS_s</text>
<polyline fill="none" stroke="black" points="711,-286.5 848,-286.5 "/>
<text text-anchor="start" x="719" y="-274.5" font-family="Helvetica,sans-Serif" font-size="10.00">+ ptrACoefficients</text>
<text text-anchor="start" x="719" y="-263.5" font-family="Helvetica,sans-Serif" font-size="10.00">+ ptrBCoefficients</text>
<text text-anchor="start" x="719" y="-252.5" font-family="Helvetica,sans-Serif" font-size="10.00">+ ptrControlHistory</text>
<text text-anchor="start" x="719" y="-241.5" font-family="Helvetica,sans-Serif" font-size="10.00">+ ptrErrorHistory</text>
<text text-anchor="start" x="719" y="-230.5" font-family="Helvetica,sans-Serif" font-size="10.00">+ ACoefficientsArraySize</text>
<text text-anchor="start" x="719" y="-219.5" font-family="Helvetica,sans-Serif" font-size="10.00">+ BCoefficientsArraySize</text>
<text text-anchor="start" x="719" y="-208.5" font-family="Helvetica,sans-Serif" font-size="10.00">+ ControlHistoryArraySize</text>
<text text-anchor="start" x="719" y="-197.5" font-family="Helvetica,sans-Serif" font-size="10.00">+ ErrorHistoryArraySize</text>
<text text-anchor="start" x="719" y="-186.5" font-family="Helvetica,sans-Serif" font-size="10.00">+ normPreShift</text>
<text text-anchor="start" x="719" y="-175.5" font-family="Helvetica,sans-Serif" font-size="10.00">+ normPostShiftA</text>
<text text-anchor="start" x="719" y="-164.5" font-family="Helvetica,sans-Serif" font-size="10.00">+ normPostShiftB</text>
<text text-anchor="start" x="719" y="-153.5" font-family="Helvetica,sans-Serif" font-size="10.00">+ normPostScaler</text>
<text text-anchor="start" x="719" y="-142.5" font-family="Helvetica,sans-Serif" font-size="10.00">+ PTermScaler</text>
<text text-anchor="start" x="719" y="-131.5" font-family="Helvetica,sans-Serif" font-size="10.00">+ PTermFactor</text>
<polyline fill="none" stroke="black" points="711,-124.5 848,-124.5 "/>
<text text-anchor="middle" x="779.5" y="-112.5" font-family="Helvetica,sans-Serif" font-size="10.00"> </text>
</a>
</g>
</g>
<!-- Node8&#45;&gt;Node1 -->
<g id="edge7" class="edge">
<title>Node8&#45;&gt;Node1</title>
<path fill="none" stroke="#404040" d="M710.89,-115.34C708.07,-111.84 705.27,-108.38 702.5,-105 692.25,-92.48 680.77,-79.06 670.35,-67.08"/>
<polygon fill="none" stroke="#404040" points="670.15,-66.86 663.19,-64.97 662.26,-57.82 669.22,-59.71 670.15,-66.86"/>
<text text-anchor="middle" x="702" y="-79" font-family="Helvetica,sans-Serif" font-size="10.00"> +Filter</text>
</g>
<!-- Node9 -->
<g id="node9" class="node">
<title>Node9</title>
<g id="a_node9"><a xlink:href="struct_n_p_n_z___c_a_s_c_a_d_e___t_r_g__s.html" target="_top" xlink:title=" ">
<polygon fill="white" stroke="black" points="866,-171.5 866,-239.5 1001,-239.5 1001,-171.5 866,-171.5"/>
<text text-anchor="middle" x="933.5" y="-227.5" font-family="Helvetica,sans-Serif" font-size="10.00">NPNZ_CASCADE_TRG_s</text>
<polyline fill="none" stroke="black" points="866,-220.5 1001,-220.5 "/>
<text text-anchor="start" x="874" y="-208.5" font-family="Helvetica,sans-Serif" font-size="10.00">+ ptrCascadedFunction</text>
<text text-anchor="start" x="874" y="-197.5" font-family="Helvetica,sans-Serif" font-size="10.00">+ CascadedFunctionParam</text>
<polyline fill="none" stroke="black" points="866,-190.5 1001,-190.5 "/>
<text text-anchor="middle" x="933.5" y="-178.5" font-family="Helvetica,sans-Serif" font-size="10.00"> </text>
</a>
</g>
</g>
<!-- Node9&#45;&gt;Node1 -->
<g id="edge8" class="edge">
<title>Node9&#45;&gt;Node1</title>
<path fill="none" stroke="#404040" d="M915.17,-171.26C901.74,-149.66 881.68,-122.39 857.5,-105 804.57,-66.93 730.83,-47.04 683.62,-37.55"/>
<polygon fill="none" stroke="#404040" points="683.42,-37.51 676.77,-40.31 671.63,-35.25 678.28,-32.45 683.42,-37.51"/>
<text text-anchor="middle" x="863" y="-79" font-family="Helvetica,sans-Serif" font-size="10.00"> +CascadeTrigger</text>
</g>
<!-- Node10 -->
<g id="node10" class="node">
<title>Node10</title>
<g id="a_node10"><a xlink:href="struct_n_p_n_z___d_a_t_a___p_r_o_v_i_d_e_r_s__s.html" target="_top" xlink:title=" ">
<polygon fill="white" stroke="black" points="1019.5,-160.5 1019.5,-250.5 1193.5,-250.5 1193.5,-160.5 1019.5,-160.5"/>
<text text-anchor="middle" x="1106.5" y="-238.5" font-family="Helvetica,sans-Serif" font-size="10.00">NPNZ_DATA_PROVIDERS_s</text>
<polyline fill="none" stroke="black" points="1019.5,-231.5 1193.5,-231.5 "/>
<text text-anchor="start" x="1027.5" y="-219.5" font-family="Helvetica,sans-Serif" font-size="10.00">+ ptrDProvControlInput</text>
<text text-anchor="start" x="1027.5" y="-208.5" font-family="Helvetica,sans-Serif" font-size="10.00">+ ptrDProvControlInputCompensated</text>
<text text-anchor="start" x="1027.5" y="-197.5" font-family="Helvetica,sans-Serif" font-size="10.00">+ ptrDProvControlError</text>
<text text-anchor="start" x="1027.5" y="-186.5" font-family="Helvetica,sans-Serif" font-size="10.00">+ ptrDProvControlOutput</text>
<polyline fill="none" stroke="black" points="1019.5,-179.5 1193.5,-179.5 "/>
<text text-anchor="middle" x="1106.5" y="-167.5" font-family="Helvetica,sans-Serif" font-size="10.00"> </text>
</a>
</g>
</g>
<!-- Node10&#45;&gt;Node1 -->
<g id="edge9" class="edge">
<title>Node10&#45;&gt;Node1</title>
<path fill="none" stroke="#404040" d="M1073.03,-160.29C1056.2,-140.81 1034.33,-119.17 1010.5,-105 905.57,-42.62 757.75,-31.22 683.65,-29.7"/>
<polygon fill="none" stroke="#404040" points="683.55,-29.7 677.5,-33.61 671.55,-29.53 677.61,-25.62 683.55,-29.7"/>
<text text-anchor="middle" x="1008.5" y="-79" font-family="Helvetica,sans-Serif" font-size="10.00"> +DataProviders</text>
</g>
<!-- Node11 -->
<g id="node11" class="node">
<title>Node11</title>
<g id="a_node11"><a xlink:href="struct_n_p_n_z___s_t_a_t_u_s__s.html" target="_top" xlink:title=" ">
<polygon fill="white" stroke="black" points="1212,-127.5 1212,-283.5 1337,-283.5 1337,-127.5 1212,-127.5"/>
<text text-anchor="middle" x="1274.5" y="-271.5" font-family="Helvetica,sans-Serif" font-size="10.00">NPNZ_STATUS_s</text>
<polyline fill="none" stroke="black" points="1212,-264.5 1337,-264.5 "/>
<text text-anchor="start" x="1220" y="-252.5" font-family="Helvetica,sans-Serif" font-size="10.00">+ lower_saturation_event</text>
<text text-anchor="start" x="1220" y="-241.5" font-family="Helvetica,sans-Serif" font-size="10.00">+ upper_saturation_event</text>
<text text-anchor="start" x="1220" y="-230.5" font-family="Helvetica,sans-Serif" font-size="10.00">+ unsigned</text>
<text text-anchor="start" x="1220" y="-219.5" font-family="Helvetica,sans-Serif" font-size="10.00">+ agc_enabled</text>
<text text-anchor="start" x="1220" y="-208.5" font-family="Helvetica,sans-Serif" font-size="10.00">+ swap_target</text>
<text text-anchor="start" x="1220" y="-197.5" font-family="Helvetica,sans-Serif" font-size="10.00">+ swap_source</text>
<text text-anchor="start" x="1220" y="-186.5" font-family="Helvetica,sans-Serif" font-size="10.00">+ invert_input</text>
<text text-anchor="start" x="1220" y="-175.5" font-family="Helvetica,sans-Serif" font-size="10.00">+ enabled</text>
<text text-anchor="start" x="1220" y="-164.5" font-family="Helvetica,sans-Serif" font-size="10.00">+ value</text>
<text text-anchor="start" x="1220" y="-153.5" font-family="Helvetica,sans-Serif" font-size="10.00">+ __attribute__</text>
<polyline fill="none" stroke="black" points="1212,-146.5 1337,-146.5 "/>
<text text-anchor="middle" x="1274.5" y="-134.5" font-family="Helvetica,sans-Serif" font-size="10.00"> </text>
</a>
</g>
</g>
<!-- Node11&#45;&gt;Node1 -->
<g id="edge10" class="edge">
<title>Node11&#45;&gt;Node1</title>
<path fill="none" stroke="#404040" d="M1228.49,-127.44C1220.73,-118.86 1212.05,-111.05 1202.5,-105 1116.4,-50.46 803.04,-35.13 683.9,-31.22"/>
<polygon fill="none" stroke="#404040" points="683.66,-31.22 677.54,-35.03 671.67,-30.84 677.79,-27.03 683.66,-31.22"/>
<text text-anchor="middle" x="1179" y="-79" font-family="Helvetica,sans-Serif" font-size="10.00"> +status</text>
</g>
</g>
</svg>
        <g id="navigator" transform="translate(0 0)" fill="#404254">
                <rect fill="#f2f5e9" fill-opacity="0.5" stroke="#606060" stroke-width=".5" x="0" y="0" width="60" height="60"/>
                <use id="zoomplus" xlink:href="#zoomPlus" x="17" y="9" onmousedown="handleZoom(evt,'in')"/>
                <use id="zoomminus" xlink:href="#zoomMin" x="42" y="9" onmousedown="handleZoom(evt,'out')"/>
                <use id="reset" xlink:href="#resetDef" x="30" y="36" onmousedown="handleReset()"/>
                <g id="arrowUp" xlink:href="#dirArrow" transform="translate(30 24)" onmousedown="handlePan(0,-1)">
                  <use xlink:href="#rim" fill="#404040">
                        <set attributeName="fill" to="#808080" begin="arrowUp.mouseover" end="arrowUp.mouseout"/>
                  </use>
                  <path fill="none" stroke="white" stroke-width="1.5" d="M0,-3.0v7 M-2.5,-0.5L0,-3.0L2.5,-0.5"/>
                </g>
                <g id="arrowRight" xlink:href="#dirArrow" transform="rotate(90) translate(36 -43)" onmousedown="handlePan(1,0)">
                  <use xlink:href="#rim" fill="#404040">
                        <set attributeName="fill" to="#808080" begin="arrowRight.mouseover" end="arrowRight.mouseout"/>
                  </use>
                  <path fill="none" stroke="white" stroke-width="1.5" d="M0,-3.0v7 M-2.5,-0.5L0,-3.0L2.5,-0.5"/>
                </g>
                <g id="arrowDown" xlink:href="#dirArrow" transform="rotate(180) translate(-30 -48)" onmousedown="handlePan(0,1)">
                  <use xlink:href="#rim" fill="#404040">
                        <set attributeName="fill" to="#808080" begin="arrowDown.mouseover" end="arrowDown.mouseout"/>
                  </use>
                  <path fill="none" stroke="white" stroke-width="1.5" d="M0,-3.0v7 M-2.5,-0.5L0,-3.0L2.5,-0.5"/>
                </g>
                <g id="arrowLeft" xlink:href="#dirArrow" transform="rotate(270) translate(-36 17)" onmousedown="handlePan(-1,0)">
                  <use xlink:href="#rim" fill="#404040">
                        <set attributeName="fill" to="#808080" begin="arrowLeft.mouseover" end="arrowLeft.mouseout"/>
                  </use>
                  <path fill="none" stroke="white" stroke-width="1.5" d="M0,-3.0v7 M-2.5,-0.5L0,-3.0L2.5,-0.5"/>
                </g>
        </g>
        <svg viewBox="0 0 15 15" width="100%" height="30px" preserveAspectRatio="xMaxYMin meet">
         <g id="arrow_out" transform="scale(0.3 0.3)">
          <a xlink:href="struct_n_p_n_z16b__s__coll__graph_org.svg" target="_base">
           <rect id="button" ry="5" rx="5" y="6" x="6" height="38" width="38"
                fill="#f2f5e9" fill-opacity="0.5" stroke="#606060" stroke-width="1.0"/>
           <path id="arrow"
             d="M 11.500037,31.436501 C 11.940474,20.09759 22.043105,11.32322 32.158766,21.979434 L 37.068811,17.246167 C 37.068811,17.246167 37.088388,32 37.088388,32 L 22.160133,31.978069 C 22.160133,31.978069 26.997745,27.140456 26.997745,27.140456 C 18.528582,18.264221 13.291696,25.230495 11.500037,31.436501 z"
             style="fill:#404040;"/>
          </a>
         </g>
        </svg>
</svg>
