<?xml version="1.0" encoding="UTF-8" standalone="no"?>
<!DOCTYPE svg PUBLIC "-//W3C//DTD SVG 1.1//EN"
 "http://www.w3.org/Graphics/SVG/1.1/DTD/svg11.dtd">
<!-- Generated by graphviz version 2.44.1 (20200629.0846)
 -->
<!-- Title: FLT_OBJECT_STATUS_s Pages: 1 -->
<svg width="218pt" height="332pt"
 viewBox="0.00 0.00 217.50 332.00" xmlns="http://www.w3.org/2000/svg" xmlns:xlink="http://www.w3.org/1999/xlink">
<g id="graph0" class="graph" transform="scale(1 1) rotate(0) translate(4 328)">
<title>FLT_OBJECT_STATUS_s</title>
<polygon fill="white" stroke="transparent" points="-4,4 -4,-328 213.5,-328 213.5,4 -4,4"/>
<!-- Node1 -->
<g id="node1" class="node">
<title>Node1</title>
<g id="a_node1"><a xlink:title="This data structure defines the fault object status.">
<polygon fill="#bfbfbf" stroke="black" points="0,-0.5 0,-68.5 129,-68.5 129,-0.5 0,-0.5"/>
<text text-anchor="middle" x="64.5" y="-56.5" font-family="Helvetica,sans-Serif" font-size="10.00">FLT_OBJECT_STATUS_s</text>
<polyline fill="none" stroke="black" points="0,-49.5 129,-49.5 "/>
<text text-anchor="start" x="8" y="-37.5" font-family="Helvetica,sans-Serif" font-size="10.00">+ CompareType</text>
<text text-anchor="start" x="8" y="-26.5" font-family="Helvetica,sans-Serif" font-size="10.00">+ @1</text>
<polyline fill="none" stroke="black" points="0,-19.5 129,-19.5 "/>
<text text-anchor="middle" x="64.5" y="-7.5" font-family="Helvetica,sans-Serif" font-size="10.00"> </text>
</a>
</g>
</g>
<!-- Node2 -->
<g id="node2" class="node">
<title>Node2</title>
<g id="a_node2"><a xlink:href="struct_f_a_u_l_t___o_b_j_e_c_t__s.html" target="_top" xlink:title="Pre&#45;initialized data structure object of a default fault object.">
<polygon fill="white" stroke="black" points="102.5,-106.5 102.5,-163.5 202.5,-163.5 202.5,-106.5 102.5,-106.5"/>
<text text-anchor="middle" x="152.5" y="-151.5" font-family="Helvetica,sans-Serif" font-size="10.00">FAULT_OBJECT_s</text>
<polyline fill="none" stroke="black" points="102.5,-144.5 202.5,-144.5 "/>
<text text-anchor="middle" x="152.5" y="-132.5" font-family="Helvetica,sans-Serif" font-size="10.00"> </text>
<polyline fill="none" stroke="black" points="102.5,-125.5 202.5,-125.5 "/>
<text text-anchor="middle" x="152.5" y="-113.5" font-family="Helvetica,sans-Serif" font-size="10.00"> </text>
</a>
</g>
</g>
<!-- Node2&#45;&gt;Node1 -->
<g id="edge1" class="edge">
<title>Node2&#45;&gt;Node1</title>
<path fill="none" stroke="midnightblue" d="M120.91,-98.64C112.16,-88.84 102.69,-78.24 94.05,-68.58"/>
<polygon fill="none" stroke="midnightblue" points="118.48,-101.17 127.75,-106.3 123.7,-96.51 118.48,-101.17"/>
</g>
<!-- Node3 -->
<g id="node3" class="node">
<title>Node3</title>
<g id="a_node3"><a xlink:href="structvolatile.html" target="_top" xlink:title="Description">
<polygon fill="white" stroke="black" points="20.5,-266.5 20.5,-323.5 66.5,-323.5 66.5,-266.5 20.5,-266.5"/>
<text text-anchor="middle" x="43.5" y="-311.5" font-family="Helvetica,sans-Serif" font-size="10.00">volatile</text>
<polyline fill="none" stroke="black" points="20.5,-304.5 66.5,-304.5 "/>
<text text-anchor="middle" x="43.5" y="-292.5" font-family="Helvetica,sans-Serif" font-size="10.00"> </text>
<polyline fill="none" stroke="black" points="20.5,-285.5 66.5,-285.5 "/>
<text text-anchor="middle" x="43.5" y="-273.5" font-family="Helvetica,sans-Serif" font-size="10.00"> </text>
</a>
</g>
</g>
<!-- Node3&#45;&gt;Node1 -->
<g id="edge3" class="edge">
<title>Node3&#45;&gt;Node1</title>
<path fill="none" stroke="#404040" d="M38.62,-266.31C32.97,-229.38 25.76,-162.14 36.5,-106 38.15,-97.37 40.84,-88.46 43.92,-79.99"/>
<polygon fill="none" stroke="#404040" points="43.93,-79.96 42.38,-72.92 48.29,-68.79 49.84,-75.83 43.93,-79.96"/>
<text text-anchor="middle" x="65" y="-154.5" font-family="Helvetica,sans-Serif" font-size="10.00"> +Enabled</text>
<text text-anchor="middle" x="65" y="-143.5" font-family="Helvetica,sans-Serif" font-size="10.00">+FaultActive</text>
<text text-anchor="middle" x="65" y="-132.5" font-family="Helvetica,sans-Serif" font-size="10.00">+FaultStatus</text>
<text text-anchor="middle" x="65" y="-121.5" font-family="Helvetica,sans-Serif" font-size="10.00">+unsigned</text>
<text text-anchor="middle" x="65" y="-110.5" font-family="Helvetica,sans-Serif" font-size="10.00">+value</text>
</g>
<!-- Node3&#45;&gt;Node2 -->
<g id="edge2" class="edge">
<title>Node3&#45;&gt;Node2</title>
<path fill="none" stroke="#404040" d="M62.49,-266.48C80.2,-240.81 106.77,-202.29 126.45,-173.76"/>
<polygon fill="none" stroke="#404040" points="126.55,-173.61 126.67,-166.4 133.37,-163.74 133.25,-170.95 126.55,-173.61"/>
<text text-anchor="middle" x="164.5" y="-240" font-family="Helvetica,sans-Serif" font-size="10.00"> +Counter</text>
<text text-anchor="middle" x="164.5" y="-229" font-family="Helvetica,sans-Serif" font-size="10.00">+RecoveryResponse</text>
<text text-anchor="middle" x="164.5" y="-218" font-family="Helvetica,sans-Serif" font-size="10.00">+ReferenceObject</text>
<text text-anchor="middle" x="164.5" y="-207" font-family="Helvetica,sans-Serif" font-size="10.00">+SourceObject</text>
<text text-anchor="middle" x="164.5" y="-196" font-family="Helvetica,sans-Serif" font-size="10.00">+Status</text>
<text text-anchor="middle" x="164.5" y="-185" font-family="Helvetica,sans-Serif" font-size="10.00">+TripResponse</text>
</g>
</g>
</svg>
