<?xml version="1.0" encoding="UTF-8" standalone="no"?>
<!DOCTYPE svg PUBLIC "-//W3C//DTD SVG 1.1//EN"
 "http://www.w3.org/Graphics/SVG/1.1/DTD/svg11.dtd">
<!-- Generated by graphviz version 2.44.1 (20200629.0846)
 -->
<!-- Title: BUCK_CONVERTER_STARTUP_s Pages: 1 -->
<svg width="180pt" height="204pt"
 viewBox="0.00 0.00 179.50 204.00" xmlns="http://www.w3.org/2000/svg" xmlns:xlink="http://www.w3.org/1999/xlink">
<g id="graph0" class="graph" transform="scale(1 1) rotate(0) translate(4 200)">
<title>BUCK_CONVERTER_STARTUP_s</title>
<polygon fill="white" stroke="transparent" points="-4,4 -4,-200 175.5,-200 175.5,4 -4,4"/>
<!-- Node1 -->
<g id="node1" class="node">
<title>Node1</title>
<g id="a_node1"><a xlink:title="Description:">
<polygon fill="#bfbfbf" stroke="black" points="0,-0.5 0,-57.5 169,-57.5 169,-0.5 0,-0.5"/>
<text text-anchor="middle" x="84.5" y="-45.5" font-family="Helvetica,sans-Serif" font-size="10.00">BUCK_CONVERTER_STARTUP_s</text>
<polyline fill="none" stroke="black" points="0,-38.5 169,-38.5 "/>
<text text-anchor="middle" x="84.5" y="-26.5" font-family="Helvetica,sans-Serif" font-size="10.00"> </text>
<polyline fill="none" stroke="black" points="0,-19.5 169,-19.5 "/>
<text text-anchor="middle" x="84.5" y="-7.5" font-family="Helvetica,sans-Serif" font-size="10.00"> </text>
</a>
</g>
</g>
<!-- Node2 -->
<g id="node2" class="node">
<title>Node2</title>
<g id="a_node2"><a xlink:href="structvolatile.html" target="_top" xlink:title="Description">
<polygon fill="white" stroke="black" points="61.5,-138.5 61.5,-195.5 107.5,-195.5 107.5,-138.5 61.5,-138.5"/>
<text text-anchor="middle" x="84.5" y="-183.5" font-family="Helvetica,sans-Serif" font-size="10.00">volatile</text>
<polyline fill="none" stroke="black" points="61.5,-176.5 107.5,-176.5 "/>
<text text-anchor="middle" x="84.5" y="-164.5" font-family="Helvetica,sans-Serif" font-size="10.00"> </text>
<polyline fill="none" stroke="black" points="61.5,-157.5 107.5,-157.5 "/>
<text text-anchor="middle" x="84.5" y="-145.5" font-family="Helvetica,sans-Serif" font-size="10.00"> </text>
</a>
</g>
</g>
<!-- Node2&#45;&gt;Node1 -->
<g id="edge1" class="edge">
<title>Node2&#45;&gt;Node1</title>
<path fill="none" stroke="#404040" d="M84.5,-138.48C84.5,-118.79 84.5,-91.99 84.5,-69.95"/>
<polygon fill="none" stroke="#404040" points="84.5,-69.95 80.5,-63.95 84.5,-57.95 88.5,-63.95 84.5,-69.95"/>
<text text-anchor="middle" x="128" y="-112" font-family="Helvetica,sans-Serif" font-size="10.00"> +i_ramp</text>
<text text-anchor="middle" x="128" y="-101" font-family="Helvetica,sans-Serif" font-size="10.00">+power_good_delay</text>
<text text-anchor="middle" x="128" y="-90" font-family="Helvetica,sans-Serif" font-size="10.00">+power_on_delay</text>
<text text-anchor="middle" x="128" y="-79" font-family="Helvetica,sans-Serif" font-size="10.00">+v_ramp</text>
</g>
</g>
</svg>
