<?xml version="1.0" encoding="UTF-8" standalone="no"?>
<!DOCTYPE svg PUBLIC "-//W3C//DTD SVG 1.1//EN"
 "http://www.w3.org/Graphics/SVG/1.1/DTD/svg11.dtd">
<!-- Generated by graphviz version 2.44.1 (20200629.0846)
 -->
<!-- Title: P33C_DAC_INSTANCE_s Pages: 1 -->
<svg width="138pt" height="248pt"
 viewBox="0.00 0.00 138.00 248.00" xmlns="http://www.w3.org/2000/svg" xmlns:xlink="http://www.w3.org/1999/xlink">
<g id="graph0" class="graph" transform="scale(1 1) rotate(0) translate(4 244)">
<title>P33C_DAC_INSTANCE_s</title>
<polygon fill="white" stroke="transparent" points="-4,4 -4,-244 134,-244 134,4 -4,4"/>
<!-- Node1 -->
<g id="node1" class="node">
<title>Node1</title>
<g id="a_node1"><a xlink:title="Description:">
<polygon fill="#bfbfbf" stroke="black" points="0,-0.5 0,-123.5 130,-123.5 130,-0.5 0,-0.5"/>
<text text-anchor="middle" x="65" y="-111.5" font-family="Helvetica,sans-Serif" font-size="10.00">P33C_DAC_INSTANCE_s</text>
<polyline fill="none" stroke="black" points="0,-104.5 130,-104.5 "/>
<text text-anchor="start" x="8" y="-92.5" font-family="Helvetica,sans-Serif" font-size="10.00">+ DACxCONL</text>
<text text-anchor="start" x="8" y="-81.5" font-family="Helvetica,sans-Serif" font-size="10.00">+ DACxCONH</text>
<text text-anchor="start" x="8" y="-70.5" font-family="Helvetica,sans-Serif" font-size="10.00">+ DACxDATL</text>
<text text-anchor="start" x="8" y="-59.5" font-family="Helvetica,sans-Serif" font-size="10.00">+ DACxDATH</text>
<text text-anchor="start" x="8" y="-48.5" font-family="Helvetica,sans-Serif" font-size="10.00">+ SLPxCONL</text>
<text text-anchor="start" x="8" y="-37.5" font-family="Helvetica,sans-Serif" font-size="10.00">+ SLPxCONH</text>
<text text-anchor="start" x="8" y="-26.5" font-family="Helvetica,sans-Serif" font-size="10.00">+ SLPxDAT</text>
<polyline fill="none" stroke="black" points="0,-19.5 130,-19.5 "/>
<text text-anchor="middle" x="65" y="-7.5" font-family="Helvetica,sans-Serif" font-size="10.00"> </text>
</a>
</g>
</g>
<!-- Node2 -->
<g id="node2" class="node">
<title>Node2</title>
<g id="a_node2"><a xlink:href="structvolatile.html" target="_top" xlink:title="Description">
<polygon fill="white" stroke="black" points="42,-182.5 42,-239.5 88,-239.5 88,-182.5 42,-182.5"/>
<text text-anchor="middle" x="65" y="-227.5" font-family="Helvetica,sans-Serif" font-size="10.00">volatile</text>
<polyline fill="none" stroke="black" points="42,-220.5 88,-220.5 "/>
<text text-anchor="middle" x="65" y="-208.5" font-family="Helvetica,sans-Serif" font-size="10.00"> </text>
<polyline fill="none" stroke="black" points="42,-201.5 88,-201.5 "/>
<text text-anchor="middle" x="65" y="-189.5" font-family="Helvetica,sans-Serif" font-size="10.00"> </text>
</a>
</g>
</g>
<!-- Node2&#45;&gt;Node1 -->
<g id="edge1" class="edge">
<title>Node2&#45;&gt;Node1</title>
<path fill="none" stroke="#404040" d="M65,-182.35C65,-169.03 65,-152.37 65,-135.76"/>
<polygon fill="none" stroke="#404040" points="65,-135.72 61,-129.72 65,-123.72 69,-129.72 65,-135.72"/>
<text text-anchor="middle" x="79" y="-156" font-family="Helvetica,sans-Serif" font-size="10.00"> +bits</text>
<text text-anchor="middle" x="79" y="-145" font-family="Helvetica,sans-Serif" font-size="10.00">+value</text>
</g>
</g>
</svg>
