<?xml version="1.0" encoding="UTF-8" standalone="no"?>
<!DOCTYPE svg PUBLIC "-//W3C//DTD SVG 1.1//EN"
 "http://www.w3.org/Graphics/SVG/1.1/DTD/svg11.dtd">
<!-- Generated by graphviz version 2.44.1 (20200629.0846)
 -->
<!-- Title: TRAP_LOGGER_s Pages: 1 -->
<!--zoomable 347 -->
<svg id="main" version="1.1" xmlns="http://www.w3.org/2000/svg" xmlns:xlink="http://www.w3.org/1999/xlink" xml:space="preserve" onload="init(evt)">
<style type="text/css"><![CDATA[
.edge:hover path { stroke: red; }
.edge:hover polygon { stroke: red; fill: red; }
]]></style>
<script type="text/javascript"><![CDATA[
var edges = document.getElementsByTagName('g');
if (edges && edges.length) {
  for (var i=0;i<edges.length;i++) {
    if (edges[i].id.substr(0,4)=='edge') {
      edges[i].setAttribute('class','edge');
    }
  }
}
]]></script>
        <defs>
                <circle id="rim" cx="0" cy="0" r="7"/>
                <circle id="rim2" cx="0" cy="0" r="3.5"/>
                <g id="zoomPlus">
                        <use xlink:href="#rim" fill="#404040">
                                <set attributeName="fill" to="#808080" begin="zoomplus.mouseover" end="zoomplus.mouseout"/>
                        </use>
                        <path d="M-4,0h8M0,-4v8" fill="none" stroke="white" stroke-width="1.5" pointer-events="none"/>
                </g>
                <g id="zoomMin">
                        <use xlink:href="#rim" fill="#404040">
                                <set attributeName="fill" to="#808080" begin="zoomminus.mouseover" end="zoomminus.mouseout"/>
                        </use>
                        <path d="M-4,0h8" fill="none" stroke="white" stroke-width="1.5" pointer-events="none"/>
                </g>
                <g id="dirArrow">
                        <path fill="none" stroke="white" stroke-width="1.5" d="M0,-3.0v7 M-2.5,-0.5L0,-3.0L2.5,-0.5"/>
                </g>
               <g id="resetDef">
                       <use xlink:href="#rim2" fill="#404040">
                               <set attributeName="fill" to="#808080" begin="reset.mouseover" end="reset.mouseout"/>
                       </use>
               </g>
        </defs>

<script type="text/javascript">
var viewWidth = 540;
var viewHeight = 347;
var sectionId = 'dynsection-0';
</script>
<script xlink:href="svgpan.js"/>
<svg id="graph" class="graph">
<g id="viewport">
<title>TRAP_LOGGER_s</title>
<polygon fill="white" stroke="transparent" points="-4,4 -4,-343 536,-343 536,4 -4,4"/>
<!-- Node1 -->
<g id="node1" class="node">
<title>Node1</title>
<g id="a_node1"><a xlink:title="Global data structure for trap event capturing.">
<polygon fill="#bfbfbf" stroke="black" points="196.5,-0.5 196.5,-79.5 295.5,-79.5 295.5,-0.5 196.5,-0.5"/>
<text text-anchor="middle" x="246" y="-67.5" font-family="Helvetica,sans-Serif" font-size="10.00">TRAP_LOGGER_s</text>
<polyline fill="none" stroke="black" points="196.5,-60.5 295.5,-60.5 "/>
<text text-anchor="start" x="204.5" y="-48.5" font-family="Helvetica,sans-Serif" font-size="10.00">+ reset_count</text>
<text text-anchor="start" x="204.5" y="-37.5" font-family="Helvetica,sans-Serif" font-size="10.00">+ trap_id</text>
<text text-anchor="start" x="204.5" y="-26.5" font-family="Helvetica,sans-Serif" font-size="10.00">+ trap_count</text>
<polyline fill="none" stroke="black" points="196.5,-19.5 295.5,-19.5 "/>
<text text-anchor="middle" x="246" y="-7.5" font-family="Helvetica,sans-Serif" font-size="10.00"> </text>
</a>
</g>
</g>
<!-- Node2 -->
<g id="node2" class="node">
<title>Node2</title>
<g id="a_node2"><a xlink:href="struct_t_a_s_k___i_n_f_o__s.html" target="_top" xlink:title="provides information for executed task, fault event and operating mode ID of task manager">
<polygon fill="white" stroke="black" points="0,-193.5 0,-272.5 80,-272.5 80,-193.5 0,-193.5"/>
<text text-anchor="middle" x="40" y="-260.5" font-family="Helvetica,sans-Serif" font-size="10.00">TASK_INFO_s</text>
<polyline fill="none" stroke="black" points="0,-253.5 80,-253.5 "/>
<text text-anchor="start" x="8" y="-241.5" font-family="Helvetica,sans-Serif" font-size="10.00">+ task_id</text>
<text text-anchor="start" x="8" y="-230.5" font-family="Helvetica,sans-Serif" font-size="10.00">+ fault_id</text>
<text text-anchor="start" x="8" y="-219.5" font-family="Helvetica,sans-Serif" font-size="10.00">+ op_mode</text>
<polyline fill="none" stroke="black" points="0,-212.5 80,-212.5 "/>
<text text-anchor="middle" x="40" y="-200.5" font-family="Helvetica,sans-Serif" font-size="10.00"> </text>
</a>
</g>
</g>
<!-- Node2&#45;&gt;Node1 -->
<g id="edge1" class="edge">
<title>Node2&#45;&gt;Node1</title>
<path fill="none" stroke="#404040" d="M51.36,-193.32C62.39,-162.71 82.19,-121.36 114,-98 135.35,-82.32 161.69,-69.84 185.21,-60.61"/>
<polygon fill="none" stroke="#404040" points="185.27,-60.59 189.46,-54.72 196.49,-56.34 192.29,-62.2 185.27,-60.59"/>
<text text-anchor="middle" x="147" y="-101" font-family="Helvetica,sans-Serif" font-size="10.00"> +task_capture</text>
</g>
<!-- Node3 -->
<g id="node3" class="node">
<title>Node3</title>
<g id="a_node3"><a xlink:href="struct_t_r_a_p___f_l_a_g_s__s.html" target="_top" xlink:title="defining the trap Flag for primary and secondary vectors">
<polygon fill="white" stroke="black" points="98,-149.5 98,-316.5 188,-316.5 188,-149.5 98,-149.5"/>
<text text-anchor="middle" x="143" y="-304.5" font-family="Helvetica,sans-Serif" font-size="10.00">TRAP_FLAGS_s</text>
<polyline fill="none" stroke="black" points="98,-297.5 188,-297.5 "/>
<text text-anchor="start" x="106" y="-285.5" font-family="Helvetica,sans-Serif" font-size="10.00">+ OVAERR</text>
<text text-anchor="start" x="106" y="-274.5" font-family="Helvetica,sans-Serif" font-size="10.00">+ OVBERR</text>
<text text-anchor="start" x="106" y="-263.5" font-family="Helvetica,sans-Serif" font-size="10.00">+ COVAERR</text>
<text text-anchor="start" x="106" y="-252.5" font-family="Helvetica,sans-Serif" font-size="10.00">+ COVBERR</text>
<text text-anchor="start" x="106" y="-241.5" font-family="Helvetica,sans-Serif" font-size="10.00">+ SFTACERR</text>
<text text-anchor="start" x="106" y="-230.5" font-family="Helvetica,sans-Serif" font-size="10.00">+ DIV0ERR</text>
<text text-anchor="start" x="106" y="-219.5" font-family="Helvetica,sans-Serif" font-size="10.00">+ MATHERR</text>
<text text-anchor="start" x="106" y="-208.5" font-family="Helvetica,sans-Serif" font-size="10.00">+ ADDRERR</text>
<text text-anchor="start" x="106" y="-197.5" font-family="Helvetica,sans-Serif" font-size="10.00">+ STKERR</text>
<text text-anchor="start" x="106" y="-186.5" font-family="Helvetica,sans-Serif" font-size="10.00">+ OSCFAIL</text>
<text text-anchor="start" x="106" y="-175.5" font-family="Helvetica,sans-Serif" font-size="10.00">and 12 more...</text>
<polyline fill="none" stroke="black" points="98,-168.5 188,-168.5 "/>
<text text-anchor="middle" x="143" y="-156.5" font-family="Helvetica,sans-Serif" font-size="10.00"> </text>
</a>
</g>
</g>
<!-- Node3&#45;&gt;Node1 -->
<g id="edge2" class="edge">
<title>Node3&#45;&gt;Node1</title>
<path fill="none" stroke="#404040" d="M165.6,-149.3C172.15,-131.7 180.23,-113.7 190,-98 191.86,-95.02 193.89,-92.07 196.06,-89.18"/>
<polygon fill="none" stroke="#404040" points="196.27,-88.91 196.94,-81.73 203.82,-79.58 203.15,-86.76 196.27,-88.91"/>
<text text-anchor="middle" x="216" y="-101" font-family="Helvetica,sans-Serif" font-size="10.00"> +trap_flags</text>
</g>
<!-- Node4 -->
<g id="node4" class="node">
<title>Node4</title>
<g id="a_node4"><a xlink:href="struct_c_p_u___r_c_o_n__s.html" target="_top" xlink:title="Data structure for RCON status capturing.">
<polygon fill="white" stroke="black" points="206,-127.5 206,-338.5 286,-338.5 286,-127.5 206,-127.5"/>
<text text-anchor="middle" x="246" y="-326.5" font-family="Helvetica,sans-Serif" font-size="10.00">CPU_RCON_s</text>
<polyline fill="none" stroke="black" points="206,-319.5 286,-319.5 "/>
<text text-anchor="start" x="214" y="-307.5" font-family="Helvetica,sans-Serif" font-size="10.00">+ por</text>
<text text-anchor="start" x="214" y="-296.5" font-family="Helvetica,sans-Serif" font-size="10.00">+ bor</text>
<text text-anchor="start" x="214" y="-285.5" font-family="Helvetica,sans-Serif" font-size="10.00">+ idle</text>
<text text-anchor="start" x="214" y="-274.5" font-family="Helvetica,sans-Serif" font-size="10.00">+ sleep</text>
<text text-anchor="start" x="214" y="-263.5" font-family="Helvetica,sans-Serif" font-size="10.00">+ wdto</text>
<text text-anchor="start" x="214" y="-252.5" font-family="Helvetica,sans-Serif" font-size="10.00">+ swdten</text>
<text text-anchor="start" x="214" y="-241.5" font-family="Helvetica,sans-Serif" font-size="10.00">+ swr</text>
<text text-anchor="start" x="214" y="-230.5" font-family="Helvetica,sans-Serif" font-size="10.00">+ extr</text>
<text text-anchor="start" x="214" y="-219.5" font-family="Helvetica,sans-Serif" font-size="10.00">+ vregs</text>
<text text-anchor="start" x="214" y="-208.5" font-family="Helvetica,sans-Serif" font-size="10.00">+ cm</text>
<text text-anchor="start" x="214" y="-197.5" font-family="Helvetica,sans-Serif" font-size="10.00">+ unsigned</text>
<text text-anchor="start" x="214" y="-186.5" font-family="Helvetica,sans-Serif" font-size="10.00">+ vregsf</text>
<text text-anchor="start" x="214" y="-175.5" font-family="Helvetica,sans-Serif" font-size="10.00">+ iopuwr</text>
<text text-anchor="start" x="214" y="-164.5" font-family="Helvetica,sans-Serif" font-size="10.00">+ trapr</text>
<text text-anchor="start" x="214" y="-153.5" font-family="Helvetica,sans-Serif" font-size="10.00">+ value</text>
<polyline fill="none" stroke="black" points="206,-146.5 286,-146.5 "/>
<text text-anchor="middle" x="246" y="-134.5" font-family="Helvetica,sans-Serif" font-size="10.00"> </text>
</a>
</g>
</g>
<!-- Node4&#45;&gt;Node1 -->
<g id="edge3" class="edge">
<title>Node4&#45;&gt;Node1</title>
<path fill="none" stroke="#404040" d="M246,-127.28C246,-114.91 246,-102.74 246,-91.63"/>
<polygon fill="none" stroke="#404040" points="246,-91.57 242,-85.57 246,-79.57 250,-85.57 246,-91.57"/>
<text text-anchor="middle" x="269.5" y="-101" font-family="Helvetica,sans-Serif" font-size="10.00"> +rcon_reg</text>
</g>
<!-- Node5 -->
<g id="node5" class="node">
<title>Node5</title>
<g id="a_node5"><a xlink:href="struct_c_p_u___i_n_t_t_r_e_g__s.html" target="_top" xlink:title="defining the CPU interrupt for primary and secondary vectors">
<polygon fill="white" stroke="black" points="304.5,-182.5 304.5,-283.5 397.5,-283.5 397.5,-182.5 304.5,-182.5"/>
<text text-anchor="middle" x="351" y="-271.5" font-family="Helvetica,sans-Serif" font-size="10.00">CPU_INTTREG_s</text>
<polyline fill="none" stroke="black" points="304.5,-264.5 397.5,-264.5 "/>
<text text-anchor="start" x="312.5" y="-252.5" font-family="Helvetica,sans-Serif" font-size="10.00">+ VECNUM</text>
<text text-anchor="start" x="312.5" y="-241.5" font-family="Helvetica,sans-Serif" font-size="10.00">+ ILR</text>
<text text-anchor="start" x="312.5" y="-230.5" font-family="Helvetica,sans-Serif" font-size="10.00">+ unsigned</text>
<text text-anchor="start" x="312.5" y="-219.5" font-family="Helvetica,sans-Serif" font-size="10.00">+ VHOLD</text>
<text text-anchor="start" x="312.5" y="-208.5" font-family="Helvetica,sans-Serif" font-size="10.00">+ value</text>
<polyline fill="none" stroke="black" points="304.5,-201.5 397.5,-201.5 "/>
<text text-anchor="middle" x="351" y="-189.5" font-family="Helvetica,sans-Serif" font-size="10.00"> </text>
</a>
</g>
</g>
<!-- Node5&#45;&gt;Node1 -->
<g id="edge4" class="edge">
<title>Node5&#45;&gt;Node1</title>
<path fill="none" stroke="#404040" d="M335.61,-182.29C326.4,-156.15 313.3,-124.2 297,-98 295.19,-95.09 293.23,-92.19 291.17,-89.33"/>
<polygon fill="none" stroke="#404040" points="291.13,-89.28 284.3,-86.96 283.81,-79.77 290.64,-82.09 291.13,-89.28"/>
<text text-anchor="middle" x="320.5" y="-101" font-family="Helvetica,sans-Serif" font-size="10.00"> +inttreg</text>
</g>
<!-- Node6 -->
<g id="node6" class="node">
<title>Node6</title>
<g id="a_node6"><a xlink:href="struct_t_r_a_p_l_o_g___s_t_a_t_u_s__s.html" target="_top" xlink:title="Data structure for RCON status capturing.">
<polygon fill="white" stroke="black" points="416,-188 416,-278 532,-278 532,-188 416,-188"/>
<text text-anchor="middle" x="474" y="-266" font-family="Helvetica,sans-Serif" font-size="10.00">TRAPLOG_STATUS_s</text>
<polyline fill="none" stroke="black" points="416,-259 532,-259 "/>
<text text-anchor="start" x="424" y="-247" font-family="Helvetica,sans-Serif" font-size="10.00">+ cpu_reset_trigger</text>
<text text-anchor="start" x="424" y="-236" font-family="Helvetica,sans-Serif" font-size="10.00">+ unsigned</text>
<text text-anchor="start" x="424" y="-225" font-family="Helvetica,sans-Serif" font-size="10.00">+ sw_reset</text>
<text text-anchor="start" x="424" y="-214" font-family="Helvetica,sans-Serif" font-size="10.00">+ value</text>
<polyline fill="none" stroke="black" points="416,-207 532,-207 "/>
<text text-anchor="middle" x="474" y="-195" font-family="Helvetica,sans-Serif" font-size="10.00"> </text>
</a>
</g>
</g>
<!-- Node6&#45;&gt;Node1 -->
<g id="edge5" class="edge">
<title>Node6&#45;&gt;Node1</title>
<path fill="none" stroke="#404040" d="M452.62,-187.95C441.16,-167.59 425.57,-144.18 407,-127 377.98,-100.14 338.99,-79.03 306.66,-64.45"/>
<polygon fill="none" stroke="#404040" points="306.51,-64.39 299.41,-65.64 295.52,-59.57 302.62,-58.31 306.51,-64.39"/>
<text text-anchor="middle" x="402.5" y="-101" font-family="Helvetica,sans-Serif" font-size="10.00"> +status</text>
</g>
</g>
</svg>
        <g id="navigator" transform="translate(0 0)" fill="#404254">
                <rect fill="#f2f5e9" fill-opacity="0.5" stroke="#606060" stroke-width=".5" x="0" y="0" width="60" height="60"/>
                <use id="zoomplus" xlink:href="#zoomPlus" x="17" y="9" onmousedown="handleZoom(evt,'in')"/>
                <use id="zoomminus" xlink:href="#zoomMin" x="42" y="9" onmousedown="handleZoom(evt,'out')"/>
                <use id="reset" xlink:href="#resetDef" x="30" y="36" onmousedown="handleReset()"/>
                <g id="arrowUp" xlink:href="#dirArrow" transform="translate(30 24)" onmousedown="handlePan(0,-1)">
                  <use xlink:href="#rim" fill="#404040">
                        <set attributeName="fill" to="#808080" begin="arrowUp.mouseover" end="arrowUp.mouseout"/>
                  </use>
                  <path fill="none" stroke="white" stroke-width="1.5" d="M0,-3.0v7 M-2.5,-0.5L0,-3.0L2.5,-0.5"/>
                </g>
                <g id="arrowRight" xlink:href="#dirArrow" transform="rotate(90) translate(36 -43)" onmousedown="handlePan(1,0)">
                  <use xlink:href="#rim" fill="#404040">
                        <set attributeName="fill" to="#808080" begin="arrowRight.mouseover" end="arrowRight.mouseout"/>
                  </use>
                  <path fill="none" stroke="white" stroke-width="1.5" d="M0,-3.0v7 M-2.5,-0.5L0,-3.0L2.5,-0.5"/>
                </g>
                <g id="arrowDown" xlink:href="#dirArrow" transform="rotate(180) translate(-30 -48)" onmousedown="handlePan(0,1)">
                  <use xlink:href="#rim" fill="#404040">
                        <set attributeName="fill" to="#808080" begin="arrowDown.mouseover" end="arrowDown.mouseout"/>
                  </use>
                  <path fill="none" stroke="white" stroke-width="1.5" d="M0,-3.0v7 M-2.5,-0.5L0,-3.0L2.5,-0.5"/>
                </g>
                <g id="arrowLeft" xlink:href="#dirArrow" transform="rotate(270) translate(-36 17)" onmousedown="handlePan(-1,0)">
                  <use xlink:href="#rim" fill="#404040">
                        <set attributeName="fill" to="#808080" begin="arrowLeft.mouseover" end="arrowLeft.mouseout"/>
                  </use>
                  <path fill="none" stroke="white" stroke-width="1.5" d="M0,-3.0v7 M-2.5,-0.5L0,-3.0L2.5,-0.5"/>
                </g>
        </g>
        <svg viewBox="0 0 15 15" width="100%" height="30px" preserveAspectRatio="xMaxYMin meet">
         <g id="arrow_out" transform="scale(0.3 0.3)">
          <a xlink:href="struct_t_r_a_p___l_o_g_g_e_r__s__coll__graph_org.svg" target="_base">
           <rect id="button" ry="5" rx="5" y="6" x="6" height="38" width="38"
                fill="#f2f5e9" fill-opacity="0.5" stroke="#606060" stroke-width="1.0"/>
           <path id="arrow"
             d="M 11.500037,31.436501 C 11.940474,20.09759 22.043105,11.32322 32.158766,21.979434 L 37.068811,17.246167 C 37.068811,17.246167 37.088388,32 37.088388,32 L 22.160133,31.978069 C 22.160133,31.978069 26.997745,27.140456 26.997745,27.140456 C 18.528582,18.264221 13.291696,25.230495 11.500037,31.436501 z"
             style="fill:#404040;"/>
          </a>
         </g>
        </svg>
</svg>
