<?xml version="1.0" encoding="UTF-8" standalone="no"?>
<!DOCTYPE svg PUBLIC "-//W3C//DTD SVG 1.1//EN"
 "http://www.w3.org/Graphics/SVG/1.1/DTD/svg11.dtd">
<!-- Generated by graphviz version 2.44.1 (20200629.0846)
 -->
<!-- Title: BUCK_LOOP_SETTINGS_s Pages: 1 -->
<svg width="1345pt" height="678pt"
 viewBox="0.00 0.00 1345.00 678.00" xmlns="http://www.w3.org/2000/svg" xmlns:xlink="http://www.w3.org/1999/xlink">
<g id="graph0" class="graph" transform="scale(1 1) rotate(0) translate(4 674)">
<title>BUCK_LOOP_SETTINGS_s</title>
<polygon fill="white" stroke="transparent" points="-4,4 -4,-674 1341,-674 1341,4 -4,4"/>
<!-- Node1 -->
<g id="node1" class="node">
<title>Node1</title>
<g id="a_node1"><a xlink:title="Buck converter main settings">
<polygon fill="#bfbfbf" stroke="black" points="568,-0.5 568,-145.5 707,-145.5 707,-0.5 568,-0.5"/>
<text text-anchor="middle" x="637.5" y="-133.5" font-family="Helvetica,sans-Serif" font-size="10.00">BUCK_LOOP_SETTINGS_s</text>
<polyline fill="none" stroke="black" points="568,-126.5 707,-126.5 "/>
<text text-anchor="start" x="576" y="-114.5" font-family="Helvetica,sans-Serif" font-size="10.00">+ reference</text>
<text text-anchor="start" x="576" y="-103.5" font-family="Helvetica,sans-Serif" font-size="10.00">+ feedback_offset</text>
<text text-anchor="start" x="576" y="-92.5" font-family="Helvetica,sans-Serif" font-size="10.00">+ trigger_offset</text>
<text text-anchor="start" x="576" y="-81.5" font-family="Helvetica,sans-Serif" font-size="10.00">+ minimum</text>
<text text-anchor="start" x="576" y="-70.5" font-family="Helvetica,sans-Serif" font-size="10.00">+ maximum</text>
<text text-anchor="start" x="576" y="-59.5" font-family="Helvetica,sans-Serif" font-size="10.00">+ ctrl_Initialize</text>
<text text-anchor="start" x="576" y="-48.5" font-family="Helvetica,sans-Serif" font-size="10.00">+ ctrl_Reset</text>
<text text-anchor="start" x="576" y="-37.5" font-family="Helvetica,sans-Serif" font-size="10.00">+ ctrl_Update</text>
<text text-anchor="start" x="576" y="-26.5" font-family="Helvetica,sans-Serif" font-size="10.00">+ ctrl_Precharge</text>
<polyline fill="none" stroke="black" points="568,-19.5 707,-19.5 "/>
<text text-anchor="middle" x="637.5" y="-7.5" font-family="Helvetica,sans-Serif" font-size="10.00"> </text>
</a>
</g>
</g>
<!-- Node2 -->
<g id="node2" class="node">
<title>Node2</title>
<g id="a_node2"><a xlink:href="struct_n_p_n_z16b__s.html" target="_top" xlink:title=" ">
<polygon fill="white" stroke="black" points="603.5,-193.5 603.5,-250.5 671.5,-250.5 671.5,-193.5 603.5,-193.5"/>
<text text-anchor="middle" x="637.5" y="-238.5" font-family="Helvetica,sans-Serif" font-size="10.00">NPNZ16b_s</text>
<polyline fill="none" stroke="black" points="603.5,-231.5 671.5,-231.5 "/>
<text text-anchor="middle" x="637.5" y="-219.5" font-family="Helvetica,sans-Serif" font-size="10.00"> </text>
<polyline fill="none" stroke="black" points="603.5,-212.5 671.5,-212.5 "/>
<text text-anchor="middle" x="637.5" y="-200.5" font-family="Helvetica,sans-Serif" font-size="10.00"> </text>
</a>
</g>
</g>
<!-- Node2&#45;&gt;Node1 -->
<g id="edge1" class="edge">
<title>Node2&#45;&gt;Node1</title>
<path fill="none" stroke="#404040" d="M637.5,-193.35C637.5,-183.01 637.5,-170.66 637.5,-157.89"/>
<polygon fill="none" stroke="#404040" points="637.5,-157.56 633.5,-151.56 637.5,-145.56 641.5,-151.56 637.5,-157.56"/>
<text text-anchor="middle" x="662" y="-167" font-family="Helvetica,sans-Serif" font-size="10.00"> +controller</text>
</g>
<!-- Node3 -->
<g id="node3" class="node">
<title>Node3</title>
<g id="a_node3"><a xlink:href="struct_n_p_n_z___a_d_c___t_r_g_c_t_r_l__s.html" target="_top" xlink:title=" ">
<polygon fill="white" stroke="black" points="0,-353.5 0,-443.5 129,-443.5 129,-353.5 0,-353.5"/>
<text text-anchor="middle" x="64.5" y="-431.5" font-family="Helvetica,sans-Serif" font-size="10.00">NPNZ_ADC_TRGCTRL_s</text>
<polyline fill="none" stroke="black" points="0,-424.5 129,-424.5 "/>
<text text-anchor="start" x="8" y="-412.5" font-family="Helvetica,sans-Serif" font-size="10.00">+ ptrADCTriggerARegister</text>
<text text-anchor="start" x="8" y="-401.5" font-family="Helvetica,sans-Serif" font-size="10.00">+ ADCTriggerAOffset</text>
<text text-anchor="start" x="8" y="-390.5" font-family="Helvetica,sans-Serif" font-size="10.00">+ ptrADCTriggerBRegister</text>
<text text-anchor="start" x="8" y="-379.5" font-family="Helvetica,sans-Serif" font-size="10.00">+ ADCTriggerBOffset</text>
<polyline fill="none" stroke="black" points="0,-372.5 129,-372.5 "/>
<text text-anchor="middle" x="64.5" y="-360.5" font-family="Helvetica,sans-Serif" font-size="10.00"> </text>
</a>
</g>
</g>
<!-- Node3&#45;&gt;Node2 -->
<g id="edge2" class="edge">
<title>Node3&#45;&gt;Node2</title>
<path fill="none" stroke="#404040" d="M88.54,-353.43C101.13,-333.97 118.17,-312.32 138.5,-298 211.09,-246.85 481.63,-229.68 591.09,-224.75"/>
<polygon fill="none" stroke="#404040" points="591.32,-224.74 597.15,-220.48 603.31,-224.22 597.49,-228.47 591.32,-224.74"/>
<text text-anchor="middle" x="249.5" y="-272" font-family="Helvetica,sans-Serif" font-size="10.00"> +ADCTriggerControl</text>
</g>
<!-- Node4 -->
<g id="node4" class="node">
<title>Node4</title>
<g id="a_node4"><a xlink:href="struct_n_p_n_z___g_a_i_n___c_o_n_t_r_o_l__s.html" target="_top" xlink:title=" ">
<polygon fill="white" stroke="black" points="147.5,-353.5 147.5,-443.5 279.5,-443.5 279.5,-353.5 147.5,-353.5"/>
<text text-anchor="middle" x="213.5" y="-431.5" font-family="Helvetica,sans-Serif" font-size="10.00">NPNZ_GAIN_CONTROL_s</text>
<polyline fill="none" stroke="black" points="147.5,-424.5 279.5,-424.5 "/>
<text text-anchor="start" x="155.5" y="-412.5" font-family="Helvetica,sans-Serif" font-size="10.00">+ AgcScaler</text>
<text text-anchor="start" x="155.5" y="-401.5" font-family="Helvetica,sans-Serif" font-size="10.00">+ AgcFactor</text>
<text text-anchor="start" x="155.5" y="-390.5" font-family="Helvetica,sans-Serif" font-size="10.00">+ AgcMedian</text>
<text text-anchor="start" x="155.5" y="-379.5" font-family="Helvetica,sans-Serif" font-size="10.00">+ ptrAgcObserverFunction</text>
<polyline fill="none" stroke="black" points="147.5,-372.5 279.5,-372.5 "/>
<text text-anchor="middle" x="213.5" y="-360.5" font-family="Helvetica,sans-Serif" font-size="10.00"> </text>
</a>
</g>
</g>
<!-- Node4&#45;&gt;Node2 -->
<g id="edge3" class="edge">
<title>Node4&#45;&gt;Node2</title>
<path fill="none" stroke="#404040" d="M239.33,-353.35C252.19,-334.35 269.12,-313.08 288.5,-298 335.37,-261.52 507.68,-237.63 591.33,-227.92"/>
<polygon fill="none" stroke="#404040" points="591.56,-227.89 597.07,-223.24 603.48,-226.54 597.97,-231.19 591.56,-227.89"/>
<text text-anchor="middle" x="388" y="-272" font-family="Helvetica,sans-Serif" font-size="10.00"> +GainControl</text>
</g>
<!-- Node5 -->
<g id="node5" class="node">
<title>Node5</title>
<g id="a_node5"><a xlink:href="struct_n_p_n_z___l_i_m_i_t_s__s.html" target="_top" xlink:title=" ">
<polygon fill="white" stroke="black" points="297.5,-353.5 297.5,-443.5 385.5,-443.5 385.5,-353.5 297.5,-353.5"/>
<text text-anchor="middle" x="341.5" y="-431.5" font-family="Helvetica,sans-Serif" font-size="10.00">NPNZ_LIMITS_s</text>
<polyline fill="none" stroke="black" points="297.5,-424.5 385.5,-424.5 "/>
<text text-anchor="start" x="305.5" y="-412.5" font-family="Helvetica,sans-Serif" font-size="10.00">+ MinOutput</text>
<text text-anchor="start" x="305.5" y="-401.5" font-family="Helvetica,sans-Serif" font-size="10.00">+ MaxOutput</text>
<text text-anchor="start" x="305.5" y="-390.5" font-family="Helvetica,sans-Serif" font-size="10.00">+ AltMinOutput</text>
<text text-anchor="start" x="305.5" y="-379.5" font-family="Helvetica,sans-Serif" font-size="10.00">+ AltMaxOutput</text>
<polyline fill="none" stroke="black" points="297.5,-372.5 385.5,-372.5 "/>
<text text-anchor="middle" x="341.5" y="-360.5" font-family="Helvetica,sans-Serif" font-size="10.00"> </text>
</a>
</g>
</g>
<!-- Node5&#45;&gt;Node2 -->
<g id="edge4" class="edge">
<title>Node5&#45;&gt;Node2</title>
<path fill="none" stroke="#404040" d="M356.12,-353.49C364.58,-334.06 377.07,-312.4 394.5,-298 451.7,-250.76 538.5,-233.22 591.4,-226.75"/>
<polygon fill="none" stroke="#404040" points="591.51,-226.73 597.03,-222.09 603.44,-225.39 597.92,-230.04 591.51,-226.73"/>
<text text-anchor="middle" x="453.5" y="-272" font-family="Helvetica,sans-Serif" font-size="10.00"> +Limits</text>
</g>
<!-- Node6 -->
<g id="node6" class="node">
<title>Node6</title>
<g id="a_node6"><a xlink:href="struct_n_p_n_z___u_s_e_r___d_a_t_a___b_u_f_f_e_r__s.html" target="_top" xlink:title=" ">
<polygon fill="white" stroke="black" points="403.5,-353.5 403.5,-443.5 563.5,-443.5 563.5,-353.5 403.5,-353.5"/>
<text text-anchor="middle" x="483.5" y="-431.5" font-family="Helvetica,sans-Serif" font-size="10.00">NPNZ_USER_DATA_BUFFER_s</text>
<polyline fill="none" stroke="black" points="403.5,-424.5 563.5,-424.5 "/>
<text text-anchor="start" x="411.5" y="-412.5" font-family="Helvetica,sans-Serif" font-size="10.00">+ usrParam1</text>
<text text-anchor="start" x="411.5" y="-401.5" font-family="Helvetica,sans-Serif" font-size="10.00">+ usrParam2</text>
<text text-anchor="start" x="411.5" y="-390.5" font-family="Helvetica,sans-Serif" font-size="10.00">+ usrParam3</text>
<text text-anchor="start" x="411.5" y="-379.5" font-family="Helvetica,sans-Serif" font-size="10.00">+ usrParam4</text>
<polyline fill="none" stroke="black" points="403.5,-372.5 563.5,-372.5 "/>
<text text-anchor="middle" x="483.5" y="-360.5" font-family="Helvetica,sans-Serif" font-size="10.00"> </text>
</a>
</g>
</g>
<!-- Node6&#45;&gt;Node2 -->
<g id="edge5" class="edge">
<title>Node6&#45;&gt;Node2</title>
<path fill="none" stroke="#404040" d="M513.37,-353.24C531.69,-327.48 556.37,-295.05 581.5,-269 585.44,-264.91 589.73,-260.84 594.13,-256.9"/>
<polygon fill="none" stroke="#404040" points="594.14,-256.89 596.07,-249.94 603.22,-249.04 601.3,-255.99 594.14,-256.89"/>
<text text-anchor="middle" x="607.5" y="-272" font-family="Helvetica,sans-Serif" font-size="10.00"> +Advanced</text>
</g>
<!-- Node7 -->
<g id="node7" class="node">
<title>Node7</title>
<g id="a_node7"><a xlink:href="struct_n_p_n_z___p_o_r_t_s__s.html" target="_top" xlink:title=" ">
<polygon fill="white" stroke="black" points="582,-370 582,-427 693,-427 693,-370 582,-370"/>
<text text-anchor="middle" x="637.5" y="-415" font-family="Helvetica,sans-Serif" font-size="10.00">NPNZ_PORTS_s</text>
<polyline fill="none" stroke="black" points="582,-408 693,-408 "/>
<text text-anchor="start" x="590" y="-396" font-family="Helvetica,sans-Serif" font-size="10.00">+ ptrControlReference</text>
<polyline fill="none" stroke="black" points="582,-389 693,-389 "/>
<text text-anchor="middle" x="637.5" y="-377" font-family="Helvetica,sans-Serif" font-size="10.00"> </text>
</a>
</g>
</g>
<!-- Node7&#45;&gt;Node2 -->
<g id="edge6" class="edge">
<title>Node7&#45;&gt;Node2</title>
<path fill="none" stroke="#404040" d="M637.5,-369.85C637.5,-341 637.5,-295.51 637.5,-262.8"/>
<polygon fill="none" stroke="#404040" points="637.5,-262.52 633.5,-256.52 637.5,-250.52 641.5,-256.52 637.5,-262.52"/>
<text text-anchor="middle" x="654" y="-272" font-family="Helvetica,sans-Serif" font-size="10.00"> +Ports</text>
</g>
<!-- Node8 -->
<g id="node8" class="node">
<title>Node8</title>
<g id="a_node8"><a xlink:href="struct_n_p_n_z___p_o_r_t__s.html" target="_top" xlink:title=" ">
<polygon fill="white" stroke="black" points="595.5,-579.5 595.5,-669.5 679.5,-669.5 679.5,-579.5 595.5,-579.5"/>
<text text-anchor="middle" x="637.5" y="-657.5" font-family="Helvetica,sans-Serif" font-size="10.00">NPNZ_PORT_s</text>
<polyline fill="none" stroke="black" points="595.5,-650.5 679.5,-650.5 "/>
<text text-anchor="start" x="603.5" y="-638.5" font-family="Helvetica,sans-Serif" font-size="10.00">+ ptrAddress</text>
<text text-anchor="start" x="603.5" y="-627.5" font-family="Helvetica,sans-Serif" font-size="10.00">+ NormScaler</text>
<text text-anchor="start" x="603.5" y="-616.5" font-family="Helvetica,sans-Serif" font-size="10.00">+ NormFactor</text>
<text text-anchor="start" x="603.5" y="-605.5" font-family="Helvetica,sans-Serif" font-size="10.00">+ Offset</text>
<polyline fill="none" stroke="black" points="595.5,-598.5 679.5,-598.5 "/>
<text text-anchor="middle" x="637.5" y="-586.5" font-family="Helvetica,sans-Serif" font-size="10.00"> </text>
</a>
</g>
</g>
<!-- Node8&#45;&gt;Node7 -->
<g id="edge7" class="edge">
<title>Node8&#45;&gt;Node7</title>
<path fill="none" stroke="#404040" d="M637.5,-579.24C637.5,-538.49 637.5,-478.57 637.5,-439.29"/>
<polygon fill="none" stroke="#404040" points="637.5,-439.07 633.5,-433.07 637.5,-427.07 641.5,-433.07 637.5,-439.07"/>
<text text-anchor="middle" x="663.5" y="-553" font-family="Helvetica,sans-Serif" font-size="10.00"> +AltSource</text>
<text text-anchor="middle" x="663.5" y="-542" font-family="Helvetica,sans-Serif" font-size="10.00">+AltTarget</text>
<text text-anchor="middle" x="663.5" y="-531" font-family="Helvetica,sans-Serif" font-size="10.00">+Source</text>
<text text-anchor="middle" x="663.5" y="-520" font-family="Helvetica,sans-Serif" font-size="10.00">+Target</text>
</g>
<!-- Node9 -->
<g id="node9" class="node">
<title>Node9</title>
<g id="a_node9"><a xlink:href="struct_n_p_n_z___f_i_l_t_e_r___p_a_r_a_m_s__s.html" target="_top" xlink:title=" ">
<polygon fill="white" stroke="black" points="711,-298.5 711,-498.5 848,-498.5 848,-298.5 711,-298.5"/>
<text text-anchor="middle" x="779.5" y="-486.5" font-family="Helvetica,sans-Serif" font-size="10.00">NPNZ_FILTER_PARAMS_s</text>
<polyline fill="none" stroke="black" points="711,-479.5 848,-479.5 "/>
<text text-anchor="start" x="719" y="-467.5" font-family="Helvetica,sans-Serif" font-size="10.00">+ ptrACoefficients</text>
<text text-anchor="start" x="719" y="-456.5" font-family="Helvetica,sans-Serif" font-size="10.00">+ ptrBCoefficients</text>
<text text-anchor="start" x="719" y="-445.5" font-family="Helvetica,sans-Serif" font-size="10.00">+ ptrControlHistory</text>
<text text-anchor="start" x="719" y="-434.5" font-family="Helvetica,sans-Serif" font-size="10.00">+ ptrErrorHistory</text>
<text text-anchor="start" x="719" y="-423.5" font-family="Helvetica,sans-Serif" font-size="10.00">+ ACoefficientsArraySize</text>
<text text-anchor="start" x="719" y="-412.5" font-family="Helvetica,sans-Serif" font-size="10.00">+ BCoefficientsArraySize</text>
<text text-anchor="start" x="719" y="-401.5" font-family="Helvetica,sans-Serif" font-size="10.00">+ ControlHistoryArraySize</text>
<text text-anchor="start" x="719" y="-390.5" font-family="Helvetica,sans-Serif" font-size="10.00">+ ErrorHistoryArraySize</text>
<text text-anchor="start" x="719" y="-379.5" font-family="Helvetica,sans-Serif" font-size="10.00">+ normPreShift</text>
<text text-anchor="start" x="719" y="-368.5" font-family="Helvetica,sans-Serif" font-size="10.00">+ normPostShiftA</text>
<text text-anchor="start" x="719" y="-357.5" font-family="Helvetica,sans-Serif" font-size="10.00">+ normPostShiftB</text>
<text text-anchor="start" x="719" y="-346.5" font-family="Helvetica,sans-Serif" font-size="10.00">+ normPostScaler</text>
<text text-anchor="start" x="719" y="-335.5" font-family="Helvetica,sans-Serif" font-size="10.00">+ PTermScaler</text>
<text text-anchor="start" x="719" y="-324.5" font-family="Helvetica,sans-Serif" font-size="10.00">+ PTermFactor</text>
<polyline fill="none" stroke="black" points="711,-317.5 848,-317.5 "/>
<text text-anchor="middle" x="779.5" y="-305.5" font-family="Helvetica,sans-Serif" font-size="10.00"> </text>
</a>
</g>
</g>
<!-- Node9&#45;&gt;Node2 -->
<g id="edge8" class="edge">
<title>Node9&#45;&gt;Node2</title>
<path fill="none" stroke="#404040" d="M710.89,-308.34C708.07,-304.84 705.27,-301.38 702.5,-298 692.25,-285.48 680.77,-272.06 670.35,-260.08"/>
<polygon fill="none" stroke="#404040" points="670.15,-259.86 663.19,-257.97 662.26,-250.82 669.22,-252.71 670.15,-259.86"/>
<text text-anchor="middle" x="702" y="-272" font-family="Helvetica,sans-Serif" font-size="10.00"> +Filter</text>
</g>
<!-- Node10 -->
<g id="node10" class="node">
<title>Node10</title>
<g id="a_node10"><a xlink:href="struct_n_p_n_z___c_a_s_c_a_d_e___t_r_g__s.html" target="_top" xlink:title=" ">
<polygon fill="white" stroke="black" points="866,-364.5 866,-432.5 1001,-432.5 1001,-364.5 866,-364.5"/>
<text text-anchor="middle" x="933.5" y="-420.5" font-family="Helvetica,sans-Serif" font-size="10.00">NPNZ_CASCADE_TRG_s</text>
<polyline fill="none" stroke="black" points="866,-413.5 1001,-413.5 "/>
<text text-anchor="start" x="874" y="-401.5" font-family="Helvetica,sans-Serif" font-size="10.00">+ ptrCascadedFunction</text>
<text text-anchor="start" x="874" y="-390.5" font-family="Helvetica,sans-Serif" font-size="10.00">+ CascadedFunctionParam</text>
<polyline fill="none" stroke="black" points="866,-383.5 1001,-383.5 "/>
<text text-anchor="middle" x="933.5" y="-371.5" font-family="Helvetica,sans-Serif" font-size="10.00"> </text>
</a>
</g>
</g>
<!-- Node10&#45;&gt;Node2 -->
<g id="edge9" class="edge">
<title>Node10&#45;&gt;Node2</title>
<path fill="none" stroke="#404040" d="M915.17,-364.26C901.74,-342.66 881.68,-315.39 857.5,-298 804.57,-259.93 730.83,-240.04 683.62,-230.55"/>
<polygon fill="none" stroke="#404040" points="683.42,-230.51 676.77,-233.31 671.63,-228.25 678.28,-225.45 683.42,-230.51"/>
<text text-anchor="middle" x="863" y="-272" font-family="Helvetica,sans-Serif" font-size="10.00"> +CascadeTrigger</text>
</g>
<!-- Node11 -->
<g id="node11" class="node">
<title>Node11</title>
<g id="a_node11"><a xlink:href="struct_n_p_n_z___d_a_t_a___p_r_o_v_i_d_e_r_s__s.html" target="_top" xlink:title=" ">
<polygon fill="white" stroke="black" points="1019.5,-353.5 1019.5,-443.5 1193.5,-443.5 1193.5,-353.5 1019.5,-353.5"/>
<text text-anchor="middle" x="1106.5" y="-431.5" font-family="Helvetica,sans-Serif" font-size="10.00">NPNZ_DATA_PROVIDERS_s</text>
<polyline fill="none" stroke="black" points="1019.5,-424.5 1193.5,-424.5 "/>
<text text-anchor="start" x="1027.5" y="-412.5" font-family="Helvetica,sans-Serif" font-size="10.00">+ ptrDProvControlInput</text>
<text text-anchor="start" x="1027.5" y="-401.5" font-family="Helvetica,sans-Serif" font-size="10.00">+ ptrDProvControlInputCompensated</text>
<text text-anchor="start" x="1027.5" y="-390.5" font-family="Helvetica,sans-Serif" font-size="10.00">+ ptrDProvControlError</text>
<text text-anchor="start" x="1027.5" y="-379.5" font-family="Helvetica,sans-Serif" font-size="10.00">+ ptrDProvControlOutput</text>
<polyline fill="none" stroke="black" points="1019.5,-372.5 1193.5,-372.5 "/>
<text text-anchor="middle" x="1106.5" y="-360.5" font-family="Helvetica,sans-Serif" font-size="10.00"> </text>
</a>
</g>
</g>
<!-- Node11&#45;&gt;Node2 -->
<g id="edge10" class="edge">
<title>Node11&#45;&gt;Node2</title>
<path fill="none" stroke="#404040" d="M1073.03,-353.29C1056.2,-333.81 1034.33,-312.17 1010.5,-298 905.57,-235.62 757.75,-224.22 683.65,-222.7"/>
<polygon fill="none" stroke="#404040" points="683.55,-222.7 677.5,-226.61 671.55,-222.53 677.61,-218.62 683.55,-222.7"/>
<text text-anchor="middle" x="1008.5" y="-272" font-family="Helvetica,sans-Serif" font-size="10.00"> +DataProviders</text>
</g>
<!-- Node12 -->
<g id="node12" class="node">
<title>Node12</title>
<g id="a_node12"><a xlink:href="struct_n_p_n_z___s_t_a_t_u_s__s.html" target="_top" xlink:title=" ">
<polygon fill="white" stroke="black" points="1212,-320.5 1212,-476.5 1337,-476.5 1337,-320.5 1212,-320.5"/>
<text text-anchor="middle" x="1274.5" y="-464.5" font-family="Helvetica,sans-Serif" font-size="10.00">NPNZ_STATUS_s</text>
<polyline fill="none" stroke="black" points="1212,-457.5 1337,-457.5 "/>
<text text-anchor="start" x="1220" y="-445.5" font-family="Helvetica,sans-Serif" font-size="10.00">+ lower_saturation_event</text>
<text text-anchor="start" x="1220" y="-434.5" font-family="Helvetica,sans-Serif" font-size="10.00">+ upper_saturation_event</text>
<text text-anchor="start" x="1220" y="-423.5" font-family="Helvetica,sans-Serif" font-size="10.00">+ unsigned</text>
<text text-anchor="start" x="1220" y="-412.5" font-family="Helvetica,sans-Serif" font-size="10.00">+ agc_enabled</text>
<text text-anchor="start" x="1220" y="-401.5" font-family="Helvetica,sans-Serif" font-size="10.00">+ swap_target</text>
<text text-anchor="start" x="1220" y="-390.5" font-family="Helvetica,sans-Serif" font-size="10.00">+ swap_source</text>
<text text-anchor="start" x="1220" y="-379.5" font-family="Helvetica,sans-Serif" font-size="10.00">+ invert_input</text>
<text text-anchor="start" x="1220" y="-368.5" font-family="Helvetica,sans-Serif" font-size="10.00">+ enabled</text>
<text text-anchor="start" x="1220" y="-357.5" font-family="Helvetica,sans-Serif" font-size="10.00">+ value</text>
<text text-anchor="start" x="1220" y="-346.5" font-family="Helvetica,sans-Serif" font-size="10.00">+ __attribute__</text>
<polyline fill="none" stroke="black" points="1212,-339.5 1337,-339.5 "/>
<text text-anchor="middle" x="1274.5" y="-327.5" font-family="Helvetica,sans-Serif" font-size="10.00"> </text>
</a>
</g>
</g>
<!-- Node12&#45;&gt;Node2 -->
<g id="edge11" class="edge">
<title>Node12&#45;&gt;Node2</title>
<path fill="none" stroke="#404040" d="M1228.49,-320.44C1220.73,-311.86 1212.05,-304.05 1202.5,-298 1116.4,-243.46 803.04,-228.13 683.9,-224.22"/>
<polygon fill="none" stroke="#404040" points="683.66,-224.22 677.54,-228.03 671.67,-223.84 677.79,-220.03 683.66,-224.22"/>
<text text-anchor="middle" x="1179" y="-272" font-family="Helvetica,sans-Serif" font-size="10.00"> +status</text>
</g>
</g>
</svg>
