<?xml version="1.0" encoding="UTF-8" standalone="no"?>
<!DOCTYPE svg PUBLIC "-//W3C//DTD SVG 1.1//EN"
 "http://www.w3.org/Graphics/SVG/1.1/DTD/svg11.dtd">
<!-- Generated by graphviz version 2.44.1 (20200629.0846)
 -->
<!-- Title: BUCK_ADC_INPUT_SETTINGS_s Pages: 1 -->
<svg width="173pt" height="303pt"
 viewBox="0.00 0.00 173.00 303.00" xmlns="http://www.w3.org/2000/svg" xmlns:xlink="http://www.w3.org/1999/xlink">
<g id="graph0" class="graph" transform="scale(1 1) rotate(0) translate(4 299)">
<title>BUCK_ADC_INPUT_SETTINGS_s</title>
<polygon fill="white" stroke="transparent" points="-4,4 -4,-299 169,-299 169,4 -4,4"/>
<!-- Node1 -->
<g id="node1" class="node">
<title>Node1</title>
<g id="a_node1"><a xlink:title="Generic power converter ADC input channel configuration.">
<polygon fill="#bfbfbf" stroke="black" points="0,-0.5 0,-68.5 165,-68.5 165,-0.5 0,-0.5"/>
<text text-anchor="middle" x="82.5" y="-56.5" font-family="Helvetica,sans-Serif" font-size="10.00">BUCK_ADC_INPUT_SETTINGS_s</text>
<polyline fill="none" stroke="black" points="0,-49.5 165,-49.5 "/>
<text text-anchor="start" x="8" y="-37.5" font-family="Helvetica,sans-Serif" font-size="10.00">+ trigger_source</text>
<text text-anchor="start" x="8" y="-26.5" font-family="Helvetica,sans-Serif" font-size="10.00">+ signed_result</text>
<polyline fill="none" stroke="black" points="0,-19.5 165,-19.5 "/>
<text text-anchor="middle" x="82.5" y="-7.5" font-family="Helvetica,sans-Serif" font-size="10.00"> </text>
</a>
</g>
</g>
<!-- Node2 -->
<g id="node2" class="node">
<title>Node2</title>
<g id="a_node2"><a xlink:href="structvolatile.html" target="_top" xlink:title="Description">
<polygon fill="white" stroke="black" points="59.5,-237.5 59.5,-294.5 105.5,-294.5 105.5,-237.5 59.5,-237.5"/>
<text text-anchor="middle" x="82.5" y="-282.5" font-family="Helvetica,sans-Serif" font-size="10.00">volatile</text>
<polyline fill="none" stroke="black" points="59.5,-275.5 105.5,-275.5 "/>
<text text-anchor="middle" x="82.5" y="-263.5" font-family="Helvetica,sans-Serif" font-size="10.00"> </text>
<polyline fill="none" stroke="black" points="59.5,-256.5 105.5,-256.5 "/>
<text text-anchor="middle" x="82.5" y="-244.5" font-family="Helvetica,sans-Serif" font-size="10.00"> </text>
</a>
</g>
</g>
<!-- Node2&#45;&gt;Node1 -->
<g id="edge1" class="edge">
<title>Node2&#45;&gt;Node1</title>
<path fill="none" stroke="#404040" d="M82.5,-237.32C82.5,-198.55 82.5,-127.62 82.5,-81.01"/>
<polygon fill="none" stroke="#404040" points="82.5,-80.85 78.5,-74.85 82.5,-68.85 86.5,-74.85 82.5,-80.85"/>
<text text-anchor="middle" x="120.5" y="-211" font-family="Helvetica,sans-Serif" font-size="10.00"> +adc_buffer</text>
<text text-anchor="middle" x="120.5" y="-200" font-family="Helvetica,sans-Serif" font-size="10.00">+adc_core</text>
<text text-anchor="middle" x="120.5" y="-189" font-family="Helvetica,sans-Serif" font-size="10.00">+adc_input</text>
<text text-anchor="middle" x="120.5" y="-178" font-family="Helvetica,sans-Serif" font-size="10.00">+differential_input</text>
<text text-anchor="start" x="82.5" y="-167" font-family="Helvetica,sans-Serif" font-size="10.00">+early_interrupt</text>
<text text-anchor="middle" x="120.5" y="-156" font-family="Helvetica,sans-Serif" font-size="10.00">_enable</text>
<text text-anchor="middle" x="120.5" y="-145" font-family="Helvetica,sans-Serif" font-size="10.00">+enabled</text>
<text text-anchor="middle" x="120.5" y="-134" font-family="Helvetica,sans-Serif" font-size="10.00">+gpio_instance</text>
<text text-anchor="middle" x="120.5" y="-123" font-family="Helvetica,sans-Serif" font-size="10.00">+interrupt_enable</text>
<text text-anchor="middle" x="120.5" y="-112" font-family="Helvetica,sans-Serif" font-size="10.00">+level_trigger</text>
<text text-anchor="middle" x="120.5" y="-101" font-family="Helvetica,sans-Serif" font-size="10.00">+scaling</text>
<text text-anchor="middle" x="120.5" y="-90" font-family="Helvetica,sans-Serif" font-size="10.00">...</text>
</g>
</g>
</svg>
