<?xml version="1.0" encoding="UTF-8" standalone="no"?>
<!DOCTYPE svg PUBLIC "-//W3C//DTD SVG 1.1//EN"
 "http://www.w3.org/Graphics/SVG/1.1/DTD/svg11.dtd">
<!-- Generated by graphviz version 2.44.1 (20200629.0846)
 -->
<!-- Title: D:/Firmware/MCU16ASMPS_FirmwareProjects/epc9143&#45;power&#45;advanced&#45;voltage&#45;mode&#45;control/epc9143&#45;avmc.X/sources/common/p33c_pral/xc16_pral.h Pages: 1 -->
<!--zoomable 783 -->
<svg id="main" version="1.1" xmlns="http://www.w3.org/2000/svg" xmlns:xlink="http://www.w3.org/1999/xlink" xml:space="preserve" onload="init(evt)">
<style type="text/css"><![CDATA[
.edge:hover path { stroke: red; }
.edge:hover polygon { stroke: red; fill: red; }
]]></style>
<script type="text/javascript"><![CDATA[
var edges = document.getElementsByTagName('g');
if (edges && edges.length) {
  for (var i=0;i<edges.length;i++) {
    if (edges[i].id.substr(0,4)=='edge') {
      edges[i].setAttribute('class','edge');
    }
  }
}
]]></script>
        <defs>
                <circle id="rim" cx="0" cy="0" r="7"/>
                <circle id="rim2" cx="0" cy="0" r="3.5"/>
                <g id="zoomPlus">
                        <use xlink:href="#rim" fill="#404040">
                                <set attributeName="fill" to="#808080" begin="zoomplus.mouseover" end="zoomplus.mouseout"/>
                        </use>
                        <path d="M-4,0h8M0,-4v8" fill="none" stroke="white" stroke-width="1.5" pointer-events="none"/>
                </g>
                <g id="zoomMin">
                        <use xlink:href="#rim" fill="#404040">
                                <set attributeName="fill" to="#808080" begin="zoomminus.mouseover" end="zoomminus.mouseout"/>
                        </use>
                        <path d="M-4,0h8" fill="none" stroke="white" stroke-width="1.5" pointer-events="none"/>
                </g>
                <g id="dirArrow">
                        <path fill="none" stroke="white" stroke-width="1.5" d="M0,-3.0v7 M-2.5,-0.5L0,-3.0L2.5,-0.5"/>
                </g>
               <g id="resetDef">
                       <use xlink:href="#rim2" fill="#404040">
                               <set attributeName="fill" to="#808080" begin="reset.mouseover" end="reset.mouseout"/>
                       </use>
               </g>
        </defs>

<script type="text/javascript">
var viewWidth = 1683;
var viewHeight = 783;
var sectionId = 'dynsection-1';
</script>
<script xlink:href="svgpan.js"/>
<svg id="graph" class="graph">
<g id="viewport">
<title>D:/Firmware/MCU16ASMPS_FirmwareProjects/epc9143&#45;power&#45;advanced&#45;voltage&#45;mode&#45;control/epc9143&#45;avmc.X/sources/common/p33c_pral/xc16_pral.h</title>
<polygon fill="white" stroke="transparent" points="-4,4 -4,-779 1679,-779 1679,4 -4,4"/>
<!-- Node1 -->
<g id="node1" class="node">
<title>Node1</title>
<g id="a_node1"><a xlink:title="Includes generic peripheral special function register abstraction layer header files.">
<polygon fill="#bfbfbf" stroke="black" points="1124,-711.5 1124,-774.5 1284,-774.5 1284,-711.5 1124,-711.5"/>
<text text-anchor="start" x="1132" y="-762.5" font-family="Helvetica,sans-Serif" font-size="10.00">D:/Firmware/MCU16ASMPS</text>
<text text-anchor="start" x="1132" y="-751.5" font-family="Helvetica,sans-Serif" font-size="10.00">_FirmwareProjects/epc9143</text>
<text text-anchor="start" x="1132" y="-740.5" font-family="Helvetica,sans-Serif" font-size="10.00">&#45;power&#45;advanced&#45;voltage&#45;mode</text>
<text text-anchor="start" x="1132" y="-729.5" font-family="Helvetica,sans-Serif" font-size="10.00">&#45;control/epc9143&#45;avmc.X/sources</text>
<text text-anchor="middle" x="1204" y="-718.5" font-family="Helvetica,sans-Serif" font-size="10.00">/common/p33c_pral/xc16_pral.h</text>
</a>
</g>
</g>
<!-- Node2 -->
<g id="node2" class="node">
<title>Node2</title>
<g id="a_node2"><a xlink:href="hal_8h_source.html" target="_top" xlink:title=" ">
<polygon fill="white" stroke="black" points="618,-606 618,-669 778,-669 778,-606 618,-606"/>
<text text-anchor="start" x="626" y="-657" font-family="Helvetica,sans-Serif" font-size="10.00">D:/Firmware/MCU16ASMPS</text>
<text text-anchor="start" x="626" y="-646" font-family="Helvetica,sans-Serif" font-size="10.00">_FirmwareProjects/epc9143</text>
<text text-anchor="start" x="626" y="-635" font-family="Helvetica,sans-Serif" font-size="10.00">&#45;power&#45;advanced&#45;voltage&#45;mode</text>
<text text-anchor="start" x="626" y="-624" font-family="Helvetica,sans-Serif" font-size="10.00">&#45;control/epc9143&#45;avmc.X/sources</text>
<text text-anchor="middle" x="698" y="-613" font-family="Helvetica,sans-Serif" font-size="10.00">/config/hal.h</text>
</a>
</g>
</g>
<!-- Node1&#45;&gt;Node2 -->
<g id="edge1" class="edge">
<title>Node1&#45;&gt;Node2</title>
<path fill="none" stroke="midnightblue" d="M1113.91,-723.57C1018.6,-704.08 869.61,-673.6 778.22,-654.91"/>
<polygon fill="midnightblue" stroke="midnightblue" points="1113.32,-727.03 1123.82,-725.6 1114.73,-720.17 1113.32,-727.03"/>
</g>
<!-- Node22 -->
<g id="node22" class="node">
<title>Node22</title>
<g id="a_node22"><a xlink:href="dev__buck__templates_8h_source.html" target="_top" xlink:title=" ">
<polygon fill="white" stroke="black" points="1336,-500.5 1336,-563.5 1540,-563.5 1540,-500.5 1336,-500.5"/>
<text text-anchor="start" x="1344" y="-551.5" font-family="Helvetica,sans-Serif" font-size="10.00">D:/Firmware/MCU16ASMPS</text>
<text text-anchor="start" x="1344" y="-540.5" font-family="Helvetica,sans-Serif" font-size="10.00">_FirmwareProjects/epc9143</text>
<text text-anchor="start" x="1344" y="-529.5" font-family="Helvetica,sans-Serif" font-size="10.00">&#45;power&#45;advanced&#45;voltage&#45;mode</text>
<text text-anchor="start" x="1344" y="-518.5" font-family="Helvetica,sans-Serif" font-size="10.00">&#45;control/epc9143&#45;avmc.X/sources</text>
<text text-anchor="middle" x="1438" y="-507.5" font-family="Helvetica,sans-Serif" font-size="10.00">/pwr_control/devices/dev_buck_templates.h</text>
</a>
</g>
</g>
<!-- Node1&#45;&gt;Node22 -->
<g id="edge32" class="edge">
<title>Node1&#45;&gt;Node22</title>
<path fill="none" stroke="midnightblue" d="M1138.89,-704.74C1129.24,-696.25 1120.65,-686.33 1115,-675 1100.12,-645.17 1093.74,-625.67 1115,-600 1142.41,-566.91 1262.95,-572.88 1305,-564 1314.97,-561.89 1325.35,-559.62 1335.71,-557.3"/>
<polygon fill="midnightblue" stroke="midnightblue" points="1136.87,-707.61 1146.82,-711.24 1141.3,-702.2 1136.87,-707.61"/>
</g>
<!-- Node23 -->
<g id="node23" class="node">
<title>Node23</title>
<g id="a_node23"><a xlink:href="dev__buck__ptemp__adc_8c_source.html" target="_top" xlink:title=" ">
<polygon fill="white" stroke="black" points="1124,-600.5 1124,-674.5 1284,-674.5 1284,-600.5 1124,-600.5"/>
<text text-anchor="start" x="1132" y="-662.5" font-family="Helvetica,sans-Serif" font-size="10.00">D:/Firmware/MCU16ASMPS</text>
<text text-anchor="start" x="1132" y="-651.5" font-family="Helvetica,sans-Serif" font-size="10.00">_FirmwareProjects/epc9143</text>
<text text-anchor="start" x="1132" y="-640.5" font-family="Helvetica,sans-Serif" font-size="10.00">&#45;power&#45;advanced&#45;voltage&#45;mode</text>
<text text-anchor="start" x="1132" y="-629.5" font-family="Helvetica,sans-Serif" font-size="10.00">&#45;control/epc9143&#45;avmc.X/sources</text>
<text text-anchor="start" x="1132" y="-618.5" font-family="Helvetica,sans-Serif" font-size="10.00">/pwr_control/devices/templates</text>
<text text-anchor="middle" x="1204" y="-607.5" font-family="Helvetica,sans-Serif" font-size="10.00">/dev_buck_ptemp_adc.c</text>
</a>
</g>
</g>
<!-- Node1&#45;&gt;Node23 -->
<g id="edge34" class="edge">
<title>Node1&#45;&gt;Node23</title>
<path fill="none" stroke="midnightblue" d="M1204,-700.96C1204,-692.32 1204,-683.26 1204,-674.81"/>
<polygon fill="midnightblue" stroke="midnightblue" points="1200.5,-701.23 1204,-711.23 1207.5,-701.23 1200.5,-701.23"/>
</g>
<!-- Node24 -->
<g id="node24" class="node">
<title>Node24</title>
<g id="a_node24"><a xlink:href="dev__buck__ptemp__dac_8c_source.html" target="_top" xlink:title=" ">
<polygon fill="white" stroke="black" points="1302,-600.5 1302,-674.5 1462,-674.5 1462,-600.5 1302,-600.5"/>
<text text-anchor="start" x="1310" y="-662.5" font-family="Helvetica,sans-Serif" font-size="10.00">D:/Firmware/MCU16ASMPS</text>
<text text-anchor="start" x="1310" y="-651.5" font-family="Helvetica,sans-Serif" font-size="10.00">_FirmwareProjects/epc9143</text>
<text text-anchor="start" x="1310" y="-640.5" font-family="Helvetica,sans-Serif" font-size="10.00">&#45;power&#45;advanced&#45;voltage&#45;mode</text>
<text text-anchor="start" x="1310" y="-629.5" font-family="Helvetica,sans-Serif" font-size="10.00">&#45;control/epc9143&#45;avmc.X/sources</text>
<text text-anchor="start" x="1310" y="-618.5" font-family="Helvetica,sans-Serif" font-size="10.00">/pwr_control/devices/templates</text>
<text text-anchor="middle" x="1382" y="-607.5" font-family="Helvetica,sans-Serif" font-size="10.00">/dev_buck_ptemp_dac.c</text>
</a>
</g>
</g>
<!-- Node1&#45;&gt;Node24 -->
<g id="edge35" class="edge">
<title>Node1&#45;&gt;Node24</title>
<path fill="none" stroke="midnightblue" d="M1265.9,-706C1283.38,-695.85 1302.39,-684.79 1319.88,-674.62"/>
<polygon fill="midnightblue" stroke="midnightblue" points="1263.81,-703.17 1256.92,-711.23 1267.33,-709.23 1263.81,-703.17"/>
</g>
<!-- Node25 -->
<g id="node25" class="node">
<title>Node25</title>
<g id="a_node25"><a xlink:href="dev__buck__ptemp__pwm_8c_source.html" target="_top" xlink:title=" ">
<polygon fill="white" stroke="black" points="1480,-600.5 1480,-674.5 1640,-674.5 1640,-600.5 1480,-600.5"/>
<text text-anchor="start" x="1488" y="-662.5" font-family="Helvetica,sans-Serif" font-size="10.00">D:/Firmware/MCU16ASMPS</text>
<text text-anchor="start" x="1488" y="-651.5" font-family="Helvetica,sans-Serif" font-size="10.00">_FirmwareProjects/epc9143</text>
<text text-anchor="start" x="1488" y="-640.5" font-family="Helvetica,sans-Serif" font-size="10.00">&#45;power&#45;advanced&#45;voltage&#45;mode</text>
<text text-anchor="start" x="1488" y="-629.5" font-family="Helvetica,sans-Serif" font-size="10.00">&#45;control/epc9143&#45;avmc.X/sources</text>
<text text-anchor="start" x="1488" y="-618.5" font-family="Helvetica,sans-Serif" font-size="10.00">/pwr_control/devices/templates</text>
<text text-anchor="middle" x="1560" y="-607.5" font-family="Helvetica,sans-Serif" font-size="10.00">/dev_buck_ptemp_pwm.c</text>
</a>
</g>
</g>
<!-- Node1&#45;&gt;Node25 -->
<g id="edge36" class="edge">
<title>Node1&#45;&gt;Node25</title>
<path fill="none" stroke="midnightblue" d="M1293.91,-722.82C1346.13,-710.85 1412.88,-694.1 1471,-675 1473.86,-674.06 1476.75,-673.07 1479.66,-672.05"/>
<polygon fill="midnightblue" stroke="midnightblue" points="1292.98,-719.45 1284,-725.08 1294.53,-726.27 1292.98,-719.45"/>
</g>
<!-- Node3 -->
<g id="node3" class="node">
<title>Node3</title>
<g id="a_node3"><a xlink:href="init__dac_8c_source.html" target="_top" xlink:title=" ">
<polygon fill="white" stroke="black" points="1268,-400.5 1268,-463.5 1428,-463.5 1428,-400.5 1268,-400.5"/>
<text text-anchor="start" x="1276" y="-451.5" font-family="Helvetica,sans-Serif" font-size="10.00">D:/Firmware/MCU16ASMPS</text>
<text text-anchor="start" x="1276" y="-440.5" font-family="Helvetica,sans-Serif" font-size="10.00">_FirmwareProjects/epc9143</text>
<text text-anchor="start" x="1276" y="-429.5" font-family="Helvetica,sans-Serif" font-size="10.00">&#45;power&#45;advanced&#45;voltage&#45;mode</text>
<text text-anchor="start" x="1276" y="-418.5" font-family="Helvetica,sans-Serif" font-size="10.00">&#45;control/epc9143&#45;avmc.X/sources</text>
<text text-anchor="middle" x="1348" y="-407.5" font-family="Helvetica,sans-Serif" font-size="10.00">/config/init/init_dac.c</text>
</a>
</g>
</g>
<!-- Node2&#45;&gt;Node3 -->
<g id="edge2" class="edge">
<title>Node2&#45;&gt;Node3</title>
<path fill="none" stroke="midnightblue" d="M788.32,-627.97C931.76,-613.88 1199.45,-585.2 1238,-564 1280.15,-540.81 1313.01,-494.51 1331.45,-463.64"/>
<polygon fill="midnightblue" stroke="midnightblue" points="787.82,-624.5 778.21,-628.95 788.5,-631.46 787.82,-624.5"/>
</g>
<!-- Node4 -->
<g id="node4" class="node">
<title>Node4</title>
<g id="a_node4"><a xlink:href="init__timer1_8c_source.html" target="_top" xlink:title=" ">
<polygon fill="white" stroke="black" points="1069,-500.5 1069,-563.5 1229,-563.5 1229,-500.5 1069,-500.5"/>
<text text-anchor="start" x="1077" y="-551.5" font-family="Helvetica,sans-Serif" font-size="10.00">D:/Firmware/MCU16ASMPS</text>
<text text-anchor="start" x="1077" y="-540.5" font-family="Helvetica,sans-Serif" font-size="10.00">_FirmwareProjects/epc9143</text>
<text text-anchor="start" x="1077" y="-529.5" font-family="Helvetica,sans-Serif" font-size="10.00">&#45;power&#45;advanced&#45;voltage&#45;mode</text>
<text text-anchor="start" x="1077" y="-518.5" font-family="Helvetica,sans-Serif" font-size="10.00">&#45;control/epc9143&#45;avmc.X/sources</text>
<text text-anchor="middle" x="1149" y="-507.5" font-family="Helvetica,sans-Serif" font-size="10.00">/config/init/init_timer1.c</text>
</a>
</g>
</g>
<!-- Node2&#45;&gt;Node4 -->
<g id="edge3" class="edge">
<title>Node2&#45;&gt;Node4</title>
<path fill="none" stroke="midnightblue" d="M788.36,-621.96C862.08,-609.25 968.61,-588.94 1060,-564 1062.84,-563.22 1065.72,-562.41 1068.63,-561.55"/>
<polygon fill="midnightblue" stroke="midnightblue" points="787.45,-618.57 778.18,-623.7 788.63,-625.46 787.45,-618.57"/>
</g>
<!-- Node5 -->
<g id="node5" class="node">
<title>Node5</title>
<g id="a_node5"><a xlink:href="system_8c_source.html" target="_top" xlink:title=" ">
<polygon fill="white" stroke="black" points="0,-0.5 0,-63.5 160,-63.5 160,-0.5 0,-0.5"/>
<text text-anchor="start" x="8" y="-51.5" font-family="Helvetica,sans-Serif" font-size="10.00">D:/Firmware/MCU16ASMPS</text>
<text text-anchor="start" x="8" y="-40.5" font-family="Helvetica,sans-Serif" font-size="10.00">_FirmwareProjects/epc9143</text>
<text text-anchor="start" x="8" y="-29.5" font-family="Helvetica,sans-Serif" font-size="10.00">&#45;power&#45;advanced&#45;voltage&#45;mode</text>
<text text-anchor="start" x="8" y="-18.5" font-family="Helvetica,sans-Serif" font-size="10.00">&#45;control/epc9143&#45;avmc.X/sources</text>
<text text-anchor="middle" x="80" y="-7.5" font-family="Helvetica,sans-Serif" font-size="10.00">/config/system.c</text>
</a>
</g>
</g>
<!-- Node2&#45;&gt;Node5 -->
<g id="edge4" class="edge">
<title>Node2&#45;&gt;Node5</title>
<path fill="none" stroke="midnightblue" d="M607.78,-628.23C424.54,-608.94 26,-553.16 26,-433 26,-433 26,-433 26,-231 26,-169.89 50.23,-101.8 66.23,-63.5"/>
<polygon fill="midnightblue" stroke="midnightblue" points="607.63,-631.73 617.94,-629.29 608.36,-624.77 607.63,-631.73"/>
</g>
<!-- Node6 -->
<g id="node6" class="node">
<title>Node6</title>
<g id="a_node6"><a xlink:href="app__faults__monitor_8c_source.html" target="_top" xlink:title=" ">
<polygon fill="white" stroke="black" points="54.5,-300.5 54.5,-363.5 221.5,-363.5 221.5,-300.5 54.5,-300.5"/>
<text text-anchor="start" x="62.5" y="-351.5" font-family="Helvetica,sans-Serif" font-size="10.00">D:/Firmware/MCU16ASMPS</text>
<text text-anchor="start" x="62.5" y="-340.5" font-family="Helvetica,sans-Serif" font-size="10.00">_FirmwareProjects/epc9143</text>
<text text-anchor="start" x="62.5" y="-329.5" font-family="Helvetica,sans-Serif" font-size="10.00">&#45;power&#45;advanced&#45;voltage&#45;mode</text>
<text text-anchor="start" x="62.5" y="-318.5" font-family="Helvetica,sans-Serif" font-size="10.00">&#45;control/epc9143&#45;avmc.X/sources</text>
<text text-anchor="middle" x="138" y="-307.5" font-family="Helvetica,sans-Serif" font-size="10.00">/fault_handler/app_faults_monitor.c</text>
</a>
</g>
</g>
<!-- Node2&#45;&gt;Node6 -->
<g id="edge5" class="edge">
<title>Node2&#45;&gt;Node6</title>
<path fill="none" stroke="midnightblue" d="M607.84,-618.78C558.69,-607.1 497.72,-589.23 447,-564 336.06,-508.82 224.09,-412.75 170.52,-363.72"/>
<polygon fill="midnightblue" stroke="midnightblue" points="607.29,-622.25 617.83,-621.11 608.88,-615.43 607.29,-622.25"/>
</g>
<!-- Node7 -->
<g id="node7" class="node">
<title>Node7</title>
<g id="a_node7"><a xlink:href="main_8h_source.html" target="_top" xlink:title=" ">
<polygon fill="white" stroke="black" points="240,-306 240,-358 432,-358 432,-306 240,-306"/>
<text text-anchor="start" x="248" y="-346" font-family="Helvetica,sans-Serif" font-size="10.00">D:/Firmware/MCU16ASMPS</text>
<text text-anchor="start" x="248" y="-335" font-family="Helvetica,sans-Serif" font-size="10.00">_FirmwareProjects/epc9143</text>
<text text-anchor="start" x="248" y="-324" font-family="Helvetica,sans-Serif" font-size="10.00">&#45;power&#45;advanced&#45;voltage&#45;mode</text>
<text text-anchor="middle" x="336" y="-313" font-family="Helvetica,sans-Serif" font-size="10.00">&#45;control/epc9143&#45;avmc.X/sources/main.h</text>
</a>
</g>
</g>
<!-- Node2&#45;&gt;Node7 -->
<g id="edge6" class="edge">
<title>Node2&#45;&gt;Node7</title>
<path fill="none" stroke="midnightblue" d="M607.99,-610.37C577.93,-599.05 545.4,-583.77 519,-564 440.37,-505.11 376.75,-404.62 349.85,-358.05"/>
<polygon fill="midnightblue" stroke="midnightblue" points="607.06,-613.76 617.65,-613.91 609.47,-607.18 607.06,-613.76"/>
</g>
<!-- Node12 -->
<g id="node12" class="node">
<title>Node12</title>
<g id="a_node12"><a xlink:href="app__power__control_8c_source.html" target="_top" xlink:title="This file contains APIs to for the power control.">
<polygon fill="white" stroke="black" points="645.5,-300.5 645.5,-363.5 806.5,-363.5 806.5,-300.5 645.5,-300.5"/>
<text text-anchor="start" x="653.5" y="-351.5" font-family="Helvetica,sans-Serif" font-size="10.00">D:/Firmware/MCU16ASMPS</text>
<text text-anchor="start" x="653.5" y="-340.5" font-family="Helvetica,sans-Serif" font-size="10.00">_FirmwareProjects/epc9143</text>
<text text-anchor="start" x="653.5" y="-329.5" font-family="Helvetica,sans-Serif" font-size="10.00">&#45;power&#45;advanced&#45;voltage&#45;mode</text>
<text text-anchor="start" x="653.5" y="-318.5" font-family="Helvetica,sans-Serif" font-size="10.00">&#45;control/epc9143&#45;avmc.X/sources</text>
<text text-anchor="middle" x="726" y="-307.5" font-family="Helvetica,sans-Serif" font-size="10.00">/pwr_control/app_power_control.c</text>
</a>
</g>
</g>
<!-- Node2&#45;&gt;Node12 -->
<g id="edge13" class="edge">
<title>Node2&#45;&gt;Node12</title>
<path fill="none" stroke="midnightblue" d="M700.61,-595.71C703.79,-548.53 709.65,-468.54 717,-400 718.28,-388.1 719.96,-375.04 721.53,-363.64"/>
<polygon fill="midnightblue" stroke="midnightblue" points="697.11,-595.63 699.94,-605.84 704.1,-596.09 697.11,-595.63"/>
</g>
<!-- Node13 -->
<g id="node13" class="node">
<title>Node13</title>
<g id="a_node13"><a xlink:href="app__power__control__isr_8c_source.html" target="_top" xlink:title=" ">
<polygon fill="white" stroke="black" points="450.5,-300.5 450.5,-363.5 627.5,-363.5 627.5,-300.5 450.5,-300.5"/>
<text text-anchor="start" x="458.5" y="-351.5" font-family="Helvetica,sans-Serif" font-size="10.00">D:/Firmware/MCU16ASMPS</text>
<text text-anchor="start" x="458.5" y="-340.5" font-family="Helvetica,sans-Serif" font-size="10.00">_FirmwareProjects/epc9143</text>
<text text-anchor="start" x="458.5" y="-329.5" font-family="Helvetica,sans-Serif" font-size="10.00">&#45;power&#45;advanced&#45;voltage&#45;mode</text>
<text text-anchor="start" x="458.5" y="-318.5" font-family="Helvetica,sans-Serif" font-size="10.00">&#45;control/epc9143&#45;avmc.X/sources</text>
<text text-anchor="middle" x="539" y="-307.5" font-family="Helvetica,sans-Serif" font-size="10.00">/pwr_control/app_power_control_isr.c</text>
</a>
</g>
</g>
<!-- Node2&#45;&gt;Node13 -->
<g id="edge14" class="edge">
<title>Node2&#45;&gt;Node13</title>
<path fill="none" stroke="midnightblue" d="M632.66,-600.38C586.08,-570.58 527.11,-523.57 500,-464 488.22,-438.11 492.59,-427.46 500,-400 503.44,-387.27 509.96,-374.46 516.7,-363.51"/>
<polygon fill="midnightblue" stroke="midnightblue" points="630.87,-603.39 641.2,-605.74 634.59,-597.46 630.87,-603.39"/>
</g>
<!-- Node14 -->
<g id="node14" class="node">
<title>Node14</title>
<g id="a_node14"><a xlink:href="dev__buck__typedef_8h_source.html" target="_top" xlink:title="This file contains APIs to for the power control.">
<polygon fill="white" stroke="black" points="857.5,-500.5 857.5,-563.5 1050.5,-563.5 1050.5,-500.5 857.5,-500.5"/>
<text text-anchor="start" x="865.5" y="-551.5" font-family="Helvetica,sans-Serif" font-size="10.00">D:/Firmware/MCU16ASMPS</text>
<text text-anchor="start" x="865.5" y="-540.5" font-family="Helvetica,sans-Serif" font-size="10.00">_FirmwareProjects/epc9143</text>
<text text-anchor="start" x="865.5" y="-529.5" font-family="Helvetica,sans-Serif" font-size="10.00">&#45;power&#45;advanced&#45;voltage&#45;mode</text>
<text text-anchor="start" x="865.5" y="-518.5" font-family="Helvetica,sans-Serif" font-size="10.00">&#45;control/epc9143&#45;avmc.X/sources</text>
<text text-anchor="middle" x="954" y="-507.5" font-family="Helvetica,sans-Serif" font-size="10.00">/pwr_control/devices/dev_buck_typedef.h</text>
</a>
</g>
</g>
<!-- Node2&#45;&gt;Node14 -->
<g id="edge15" class="edge">
<title>Node2&#45;&gt;Node14</title>
<path fill="none" stroke="midnightblue" d="M783.2,-602.06C813.99,-589.61 848.52,-575.65 878.43,-563.55"/>
<polygon fill="midnightblue" stroke="midnightblue" points="781.73,-598.87 773.77,-605.87 784.35,-605.36 781.73,-598.87"/>
</g>
<!-- Node8 -->
<g id="node8" class="node">
<title>Node8</title>
<g id="a_node8"><a xlink:href="init__gpio_8h_source.html" target="_top" xlink:title=" ">
<polygon fill="white" stroke="black" points="411,-200.5 411,-263.5 571,-263.5 571,-200.5 411,-200.5"/>
<text text-anchor="start" x="419" y="-251.5" font-family="Helvetica,sans-Serif" font-size="10.00">D:/Firmware/MCU16ASMPS</text>
<text text-anchor="start" x="419" y="-240.5" font-family="Helvetica,sans-Serif" font-size="10.00">_FirmwareProjects/epc9143</text>
<text text-anchor="start" x="419" y="-229.5" font-family="Helvetica,sans-Serif" font-size="10.00">&#45;power&#45;advanced&#45;voltage&#45;mode</text>
<text text-anchor="start" x="419" y="-218.5" font-family="Helvetica,sans-Serif" font-size="10.00">&#45;control/epc9143&#45;avmc.X/sources</text>
<text text-anchor="middle" x="491" y="-207.5" font-family="Helvetica,sans-Serif" font-size="10.00">/config/init/init_gpio.h</text>
</a>
</g>
</g>
<!-- Node7&#45;&gt;Node8 -->
<g id="edge7" class="edge">
<title>Node7&#45;&gt;Node8</title>
<path fill="none" stroke="midnightblue" d="M384.5,-300.33C403.03,-288.62 424.14,-275.27 442.65,-263.57"/>
<polygon fill="midnightblue" stroke="midnightblue" points="382.5,-297.46 375.92,-305.76 386.24,-303.38 382.5,-297.46"/>
</g>
<!-- Node11 -->
<g id="node11" class="node">
<title>Node11</title>
<g id="a_node11"><a xlink:href="main_8c_source.html" target="_top" xlink:title=" ">
<polygon fill="white" stroke="black" points="201,-206 201,-258 393,-258 393,-206 201,-206"/>
<text text-anchor="start" x="209" y="-246" font-family="Helvetica,sans-Serif" font-size="10.00">D:/Firmware/MCU16ASMPS</text>
<text text-anchor="start" x="209" y="-235" font-family="Helvetica,sans-Serif" font-size="10.00">_FirmwareProjects/epc9143</text>
<text text-anchor="start" x="209" y="-224" font-family="Helvetica,sans-Serif" font-size="10.00">&#45;power&#45;advanced&#45;voltage&#45;mode</text>
<text text-anchor="middle" x="297" y="-213" font-family="Helvetica,sans-Serif" font-size="10.00">&#45;control/epc9143&#45;avmc.X/sources/main.c</text>
</a>
</g>
</g>
<!-- Node7&#45;&gt;Node11 -->
<g id="edge12" class="edge">
<title>Node7&#45;&gt;Node11</title>
<path fill="none" stroke="midnightblue" d="M322.25,-296.45C317.23,-283.83 311.64,-269.8 307.01,-258.15"/>
<polygon fill="midnightblue" stroke="midnightblue" points="319.01,-297.77 325.96,-305.76 325.51,-295.18 319.01,-297.77"/>
</g>
<!-- Node9 -->
<g id="node9" class="node">
<title>Node9</title>
<g id="a_node9"><a xlink:href="init__gpio_8c_source.html" target="_top" xlink:title=" ">
<polygon fill="white" stroke="black" points="411,-100.5 411,-163.5 571,-163.5 571,-100.5 411,-100.5"/>
<text text-anchor="start" x="419" y="-151.5" font-family="Helvetica,sans-Serif" font-size="10.00">D:/Firmware/MCU16ASMPS</text>
<text text-anchor="start" x="419" y="-140.5" font-family="Helvetica,sans-Serif" font-size="10.00">_FirmwareProjects/epc9143</text>
<text text-anchor="start" x="419" y="-129.5" font-family="Helvetica,sans-Serif" font-size="10.00">&#45;power&#45;advanced&#45;voltage&#45;mode</text>
<text text-anchor="start" x="419" y="-118.5" font-family="Helvetica,sans-Serif" font-size="10.00">&#45;control/epc9143&#45;avmc.X/sources</text>
<text text-anchor="middle" x="491" y="-107.5" font-family="Helvetica,sans-Serif" font-size="10.00">/config/init/init_gpio.c</text>
</a>
</g>
</g>
<!-- Node8&#45;&gt;Node9 -->
<g id="edge8" class="edge">
<title>Node8&#45;&gt;Node9</title>
<path fill="none" stroke="midnightblue" d="M491,-190.1C491,-181.24 491,-172.01 491,-163.63"/>
<polygon fill="midnightblue" stroke="midnightblue" points="487.5,-190.26 491,-200.26 494.5,-190.26 487.5,-190.26"/>
</g>
<!-- Node10 -->
<g id="node10" class="node">
<title>Node10</title>
<g id="a_node10"><a xlink:href="system_8h_source.html" target="_top" xlink:title=" ">
<polygon fill="white" stroke="black" points="93,-100.5 93,-163.5 253,-163.5 253,-100.5 93,-100.5"/>
<text text-anchor="start" x="101" y="-151.5" font-family="Helvetica,sans-Serif" font-size="10.00">D:/Firmware/MCU16ASMPS</text>
<text text-anchor="start" x="101" y="-140.5" font-family="Helvetica,sans-Serif" font-size="10.00">_FirmwareProjects/epc9143</text>
<text text-anchor="start" x="101" y="-129.5" font-family="Helvetica,sans-Serif" font-size="10.00">&#45;power&#45;advanced&#45;voltage&#45;mode</text>
<text text-anchor="start" x="101" y="-118.5" font-family="Helvetica,sans-Serif" font-size="10.00">&#45;control/epc9143&#45;avmc.X/sources</text>
<text text-anchor="middle" x="173" y="-107.5" font-family="Helvetica,sans-Serif" font-size="10.00">/config/system.h</text>
</a>
</g>
</g>
<!-- Node8&#45;&gt;Node10 -->
<g id="edge9" class="edge">
<title>Node8&#45;&gt;Node10</title>
<path fill="none" stroke="midnightblue" d="M400.74,-199.64C346.52,-182.4 294.66,-167.22 253.05,-155.35"/>
<polygon fill="midnightblue" stroke="midnightblue" points="399.94,-203.06 410.53,-202.77 402.07,-196.39 399.94,-203.06"/>
</g>
<!-- Node10&#45;&gt;Node5 -->
<g id="edge10" class="edge">
<title>Node10&#45;&gt;Node5</title>
<path fill="none" stroke="midnightblue" d="M136.91,-92.97C127.69,-83.25 117.89,-72.93 109.07,-63.63"/>
<polygon fill="midnightblue" stroke="midnightblue" points="134.41,-95.42 143.83,-100.26 139.48,-90.6 134.41,-95.42"/>
</g>
<!-- Node10&#45;&gt;Node7 -->
<g id="edge11" class="edge">
<title>Node10&#45;&gt;Node7</title>
<path fill="none" stroke="midnightblue" d="M169.33,-173.89C168.96,-201.84 172.9,-238.33 192,-264 205.74,-282.47 225.84,-296.02 246.69,-305.9"/>
<polygon fill="midnightblue" stroke="midnightblue" points="172.84,-173.74 169.66,-163.63 165.84,-173.52 172.84,-173.74"/>
</g>
<!-- Node14&#45;&gt;Node3 -->
<g id="edge16" class="edge">
<title>Node14&#45;&gt;Node3</title>
<path fill="none" stroke="midnightblue" d="M1060.64,-499.95C1147.1,-480.07 1172.12,-485 1254,-464 1258.58,-462.83 1263.26,-461.55 1267.96,-460.2"/>
<polygon fill="midnightblue" stroke="midnightblue" points="1059.59,-496.6 1050.66,-502.3 1061.19,-503.42 1059.59,-496.6"/>
</g>
<!-- Node15 -->
<g id="node15" class="node">
<title>Node15</title>
<g id="a_node15"><a xlink:href="app__power__control_8h_source.html" target="_top" xlink:title="This file contains APIs to for the power control.">
<polygon fill="white" stroke="black" points="508.5,-400.5 508.5,-463.5 669.5,-463.5 669.5,-400.5 508.5,-400.5"/>
<text text-anchor="start" x="516.5" y="-451.5" font-family="Helvetica,sans-Serif" font-size="10.00">D:/Firmware/MCU16ASMPS</text>
<text text-anchor="start" x="516.5" y="-440.5" font-family="Helvetica,sans-Serif" font-size="10.00">_FirmwareProjects/epc9143</text>
<text text-anchor="start" x="516.5" y="-429.5" font-family="Helvetica,sans-Serif" font-size="10.00">&#45;power&#45;advanced&#45;voltage&#45;mode</text>
<text text-anchor="start" x="516.5" y="-418.5" font-family="Helvetica,sans-Serif" font-size="10.00">&#45;control/epc9143&#45;avmc.X/sources</text>
<text text-anchor="middle" x="589" y="-407.5" font-family="Helvetica,sans-Serif" font-size="10.00">/pwr_control/app_power_control.h</text>
</a>
</g>
</g>
<!-- Node14&#45;&gt;Node15 -->
<g id="edge17" class="edge">
<title>Node14&#45;&gt;Node15</title>
<path fill="none" stroke="midnightblue" d="M847.42,-502.38C790.64,-487.14 721.93,-468.69 669.64,-454.65"/>
<polygon fill="midnightblue" stroke="midnightblue" points="846.58,-505.78 857.14,-505 848.39,-499.02 846.58,-505.78"/>
</g>
<!-- Node16 -->
<g id="node16" class="node">
<title>Node16</title>
<g id="a_node16"><a xlink:href="dev__buck__converter_8c_source.html" target="_top" xlink:title=" ">
<polygon fill="white" stroke="black" points="1047,-300.5 1047,-363.5 1247,-363.5 1247,-300.5 1047,-300.5"/>
<text text-anchor="start" x="1055" y="-351.5" font-family="Helvetica,sans-Serif" font-size="10.00">D:/Firmware/MCU16ASMPS</text>
<text text-anchor="start" x="1055" y="-340.5" font-family="Helvetica,sans-Serif" font-size="10.00">_FirmwareProjects/epc9143</text>
<text text-anchor="start" x="1055" y="-329.5" font-family="Helvetica,sans-Serif" font-size="10.00">&#45;power&#45;advanced&#45;voltage&#45;mode</text>
<text text-anchor="start" x="1055" y="-318.5" font-family="Helvetica,sans-Serif" font-size="10.00">&#45;control/epc9143&#45;avmc.X/sources</text>
<text text-anchor="middle" x="1147" y="-307.5" font-family="Helvetica,sans-Serif" font-size="10.00">/pwr_control/devices/dev_buck_converter.c</text>
</a>
</g>
</g>
<!-- Node14&#45;&gt;Node16 -->
<g id="edge22" class="edge">
<title>Node14&#45;&gt;Node16</title>
<path fill="none" stroke="midnightblue" d="M963.69,-490.33C972.18,-462.09 986.99,-425.18 1011,-400 1025.17,-385.14 1043.33,-373.12 1061.73,-363.58"/>
<polygon fill="midnightblue" stroke="midnightblue" points="960.23,-489.72 960.85,-500.3 966.96,-491.64 960.23,-489.72"/>
</g>
<!-- Node17 -->
<g id="node17" class="node">
<title>Node17</title>
<g id="a_node17"><a xlink:href="dev__buck__converter_8h_source.html" target="_top" xlink:title=" ">
<polygon fill="white" stroke="black" points="726,-400.5 726,-463.5 926,-463.5 926,-400.5 726,-400.5"/>
<text text-anchor="start" x="734" y="-451.5" font-family="Helvetica,sans-Serif" font-size="10.00">D:/Firmware/MCU16ASMPS</text>
<text text-anchor="start" x="734" y="-440.5" font-family="Helvetica,sans-Serif" font-size="10.00">_FirmwareProjects/epc9143</text>
<text text-anchor="start" x="734" y="-429.5" font-family="Helvetica,sans-Serif" font-size="10.00">&#45;power&#45;advanced&#45;voltage&#45;mode</text>
<text text-anchor="start" x="734" y="-418.5" font-family="Helvetica,sans-Serif" font-size="10.00">&#45;control/epc9143&#45;avmc.X/sources</text>
<text text-anchor="middle" x="826" y="-407.5" font-family="Helvetica,sans-Serif" font-size="10.00">/pwr_control/devices/dev_buck_converter.h</text>
</a>
</g>
</g>
<!-- Node14&#45;&gt;Node17 -->
<g id="edge23" class="edge">
<title>Node14&#45;&gt;Node17</title>
<path fill="none" stroke="midnightblue" d="M905.82,-494.11C892.7,-484.06 878.62,-473.29 866.01,-463.63"/>
<polygon fill="midnightblue" stroke="midnightblue" points="903.78,-496.96 913.85,-500.26 908.04,-491.4 903.78,-496.96"/>
</g>
<!-- Node18 -->
<g id="node18" class="node">
<title>Node18</title>
<g id="a_node18"><a xlink:href="dev__buck__opstates_8c_source.html" target="_top" xlink:title="Functions of the buck converter state machine operating states.">
<polygon fill="white" stroke="black" points="1265.5,-300.5 1265.5,-363.5 1464.5,-363.5 1464.5,-300.5 1265.5,-300.5"/>
<text text-anchor="start" x="1273.5" y="-351.5" font-family="Helvetica,sans-Serif" font-size="10.00">D:/Firmware/MCU16ASMPS</text>
<text text-anchor="start" x="1273.5" y="-340.5" font-family="Helvetica,sans-Serif" font-size="10.00">_FirmwareProjects/epc9143</text>
<text text-anchor="start" x="1273.5" y="-329.5" font-family="Helvetica,sans-Serif" font-size="10.00">&#45;power&#45;advanced&#45;voltage&#45;mode</text>
<text text-anchor="start" x="1273.5" y="-318.5" font-family="Helvetica,sans-Serif" font-size="10.00">&#45;control/epc9143&#45;avmc.X/sources</text>
<text text-anchor="middle" x="1365" y="-307.5" font-family="Helvetica,sans-Serif" font-size="10.00">/pwr_control/devices/dev_buck_opstates.c</text>
</a>
</g>
</g>
<!-- Node14&#45;&gt;Node18 -->
<g id="edge25" class="edge">
<title>Node14&#45;&gt;Node18</title>
<path fill="none" stroke="midnightblue" d="M1060.78,-500.02C1133.69,-483.75 1164.2,-505.2 1221,-464 1247.78,-444.58 1235.94,-423.72 1259,-400 1272.51,-386.11 1289.44,-373.78 1305.77,-363.6"/>
<polygon fill="midnightblue" stroke="midnightblue" points="1059.59,-496.7 1050.69,-502.44 1061.23,-503.51 1059.59,-496.7"/>
</g>
<!-- Node19 -->
<g id="node19" class="node">
<title>Node19</title>
<g id="a_node19"><a xlink:href="dev__buck__pconfig_8h_source.html" target="_top" xlink:title="This file contains APIs to for the power control.">
<polygon fill="white" stroke="black" points="1020,-400.5 1020,-463.5 1212,-463.5 1212,-400.5 1020,-400.5"/>
<text text-anchor="start" x="1028" y="-451.5" font-family="Helvetica,sans-Serif" font-size="10.00">D:/Firmware/MCU16ASMPS</text>
<text text-anchor="start" x="1028" y="-440.5" font-family="Helvetica,sans-Serif" font-size="10.00">_FirmwareProjects/epc9143</text>
<text text-anchor="start" x="1028" y="-429.5" font-family="Helvetica,sans-Serif" font-size="10.00">&#45;power&#45;advanced&#45;voltage&#45;mode</text>
<text text-anchor="start" x="1028" y="-418.5" font-family="Helvetica,sans-Serif" font-size="10.00">&#45;control/epc9143&#45;avmc.X/sources</text>
<text text-anchor="middle" x="1116" y="-407.5" font-family="Helvetica,sans-Serif" font-size="10.00">/pwr_control/devices/dev_buck_pconfig.h</text>
</a>
</g>
</g>
<!-- Node14&#45;&gt;Node19 -->
<g id="edge26" class="edge">
<title>Node14&#45;&gt;Node19</title>
<path fill="none" stroke="midnightblue" d="M1013.57,-494.97C1030.58,-484.68 1048.95,-473.56 1065.37,-463.63"/>
<polygon fill="midnightblue" stroke="midnightblue" points="1011.56,-492.09 1004.81,-500.26 1015.18,-498.08 1011.56,-492.09"/>
</g>
<!-- Node21 -->
<g id="node21" class="node">
<title>Node21</title>
<g id="a_node21"><a xlink:href="dev__buck__substates_8c_source.html" target="_top" xlink:title=" ">
<polygon fill="white" stroke="black" points="825,-300.5 825,-363.5 1029,-363.5 1029,-300.5 825,-300.5"/>
<text text-anchor="start" x="833" y="-351.5" font-family="Helvetica,sans-Serif" font-size="10.00">D:/Firmware/MCU16ASMPS</text>
<text text-anchor="start" x="833" y="-340.5" font-family="Helvetica,sans-Serif" font-size="10.00">_FirmwareProjects/epc9143</text>
<text text-anchor="start" x="833" y="-329.5" font-family="Helvetica,sans-Serif" font-size="10.00">&#45;power&#45;advanced&#45;voltage&#45;mode</text>
<text text-anchor="start" x="833" y="-318.5" font-family="Helvetica,sans-Serif" font-size="10.00">&#45;control/epc9143&#45;avmc.X/sources</text>
<text text-anchor="middle" x="927" y="-307.5" font-family="Helvetica,sans-Serif" font-size="10.00">/pwr_control/devices/dev_buck_substates.c</text>
</a>
</g>
</g>
<!-- Node14&#45;&gt;Node21 -->
<g id="edge31" class="edge">
<title>Node14&#45;&gt;Node21</title>
<path fill="none" stroke="midnightblue" d="M948.46,-490.37C943.33,-452.73 935.8,-397.56 931.16,-363.54"/>
<polygon fill="midnightblue" stroke="midnightblue" points="945.02,-491.06 949.84,-500.5 951.96,-490.12 945.02,-491.06"/>
</g>
<!-- Node15&#45;&gt;Node6 -->
<g id="edge18" class="edge">
<title>Node15&#45;&gt;Node6</title>
<path fill="none" stroke="midnightblue" d="M498.27,-417.54C425.45,-405.89 320.89,-387.28 231,-364 227.95,-363.21 224.86,-362.37 221.74,-361.5"/>
<polygon fill="midnightblue" stroke="midnightblue" points="497.9,-421.03 508.33,-419.14 499,-414.11 497.9,-421.03"/>
</g>
<!-- Node15&#45;&gt;Node7 -->
<g id="edge19" class="edge">
<title>Node15&#45;&gt;Node7</title>
<path fill="none" stroke="midnightblue" d="M500.4,-396.68C467.63,-383.99 431.13,-369.85 400.85,-358.12"/>
<polygon fill="midnightblue" stroke="midnightblue" points="499.4,-400.05 509.99,-400.4 501.93,-393.52 499.4,-400.05"/>
</g>
<!-- Node15&#45;&gt;Node12 -->
<g id="edge20" class="edge">
<title>Node15&#45;&gt;Node12</title>
<path fill="none" stroke="midnightblue" d="M640.17,-394.4C654.33,-384.27 669.55,-373.38 683.18,-363.63"/>
<polygon fill="midnightblue" stroke="midnightblue" points="638.07,-391.6 631.97,-400.26 642.14,-397.29 638.07,-391.6"/>
</g>
<!-- Node15&#45;&gt;Node13 -->
<g id="edge21" class="edge">
<title>Node15&#45;&gt;Node13</title>
<path fill="none" stroke="midnightblue" d="M568.72,-391.25C564.02,-382.04 559.09,-372.38 554.63,-363.63"/>
<polygon fill="midnightblue" stroke="midnightblue" points="565.65,-392.94 573.32,-400.26 571.89,-389.76 565.65,-392.94"/>
</g>
<!-- Node17&#45;&gt;Node12 -->
<g id="edge24" class="edge">
<title>Node17&#45;&gt;Node12</title>
<path fill="none" stroke="midnightblue" d="M787.49,-393.26C777.49,-383.46 766.83,-373.02 757.25,-363.63"/>
<polygon fill="midnightblue" stroke="midnightblue" points="785.04,-395.76 794.63,-400.26 789.94,-390.76 785.04,-395.76"/>
</g>
<!-- Node19&#45;&gt;Node16 -->
<g id="edge27" class="edge">
<title>Node19&#45;&gt;Node16</title>
<path fill="none" stroke="midnightblue" d="M1128.76,-390.68C1131.61,-381.64 1134.6,-372.2 1137.31,-363.63"/>
<polygon fill="midnightblue" stroke="midnightblue" points="1125.4,-389.67 1125.72,-400.26 1132.08,-391.78 1125.4,-389.67"/>
</g>
<!-- Node19&#45;&gt;Node18 -->
<g id="edge28" class="edge">
<title>Node19&#45;&gt;Node18</title>
<path fill="none" stroke="midnightblue" d="M1203.33,-396.63C1230.71,-385.85 1260.74,-374.04 1287.4,-363.54"/>
<polygon fill="midnightblue" stroke="midnightblue" points="1201.78,-393.48 1193.76,-400.4 1204.35,-399.99 1201.78,-393.48"/>
</g>
<!-- Node20 -->
<g id="node20" class="node">
<title>Node20</title>
<g id="a_node20"><a xlink:href="dev__buck__pconfig_8c_source.html" target="_top" xlink:title=" ">
<polygon fill="white" stroke="black" points="1483,-300.5 1483,-363.5 1675,-363.5 1675,-300.5 1483,-300.5"/>
<text text-anchor="start" x="1491" y="-351.5" font-family="Helvetica,sans-Serif" font-size="10.00">D:/Firmware/MCU16ASMPS</text>
<text text-anchor="start" x="1491" y="-340.5" font-family="Helvetica,sans-Serif" font-size="10.00">_FirmwareProjects/epc9143</text>
<text text-anchor="start" x="1491" y="-329.5" font-family="Helvetica,sans-Serif" font-size="10.00">&#45;power&#45;advanced&#45;voltage&#45;mode</text>
<text text-anchor="start" x="1491" y="-318.5" font-family="Helvetica,sans-Serif" font-size="10.00">&#45;control/epc9143&#45;avmc.X/sources</text>
<text text-anchor="middle" x="1579" y="-307.5" font-family="Helvetica,sans-Serif" font-size="10.00">/pwr_control/devices/dev_buck_pconfig.c</text>
</a>
</g>
</g>
<!-- Node19&#45;&gt;Node20 -->
<g id="edge29" class="edge">
<title>Node19&#45;&gt;Node20</title>
<path fill="none" stroke="midnightblue" d="M1221.98,-407.44C1234.44,-404.84 1246.99,-402.31 1259,-400 1354.15,-381.73 1379.59,-385.76 1474,-364 1476.96,-363.32 1479.97,-362.6 1482.99,-361.85"/>
<polygon fill="midnightblue" stroke="midnightblue" points="1221.09,-404.05 1212.02,-409.53 1222.53,-410.9 1221.09,-404.05"/>
</g>
<!-- Node19&#45;&gt;Node21 -->
<g id="edge30" class="edge">
<title>Node19&#45;&gt;Node21</title>
<path fill="none" stroke="midnightblue" d="M1048.08,-395.78C1027.74,-385.23 1005.61,-373.76 985.9,-363.54"/>
<polygon fill="midnightblue" stroke="midnightblue" points="1046.49,-398.9 1056.98,-400.4 1049.71,-392.68 1046.49,-398.9"/>
</g>
<!-- Node22&#45;&gt;Node20 -->
<g id="edge33" class="edge">
<title>Node22&#45;&gt;Node20</title>
<path fill="none" stroke="midnightblue" d="M1465.57,-492.29C1492.39,-454.62 1532.61,-398.14 1557.25,-363.54"/>
<polygon fill="midnightblue" stroke="midnightblue" points="1462.67,-490.32 1459.72,-500.5 1468.37,-494.38 1462.67,-490.32"/>
</g>
</g>
</svg>
        <g id="navigator" transform="translate(0 0)" fill="#404254">
                <rect fill="#f2f5e9" fill-opacity="0.5" stroke="#606060" stroke-width=".5" x="0" y="0" width="60" height="60"/>
                <use id="zoomplus" xlink:href="#zoomPlus" x="17" y="9" onmousedown="handleZoom(evt,'in')"/>
                <use id="zoomminus" xlink:href="#zoomMin" x="42" y="9" onmousedown="handleZoom(evt,'out')"/>
                <use id="reset" xlink:href="#resetDef" x="30" y="36" onmousedown="handleReset()"/>
                <g id="arrowUp" xlink:href="#dirArrow" transform="translate(30 24)" onmousedown="handlePan(0,-1)">
                  <use xlink:href="#rim" fill="#404040">
                        <set attributeName="fill" to="#808080" begin="arrowUp.mouseover" end="arrowUp.mouseout"/>
                  </use>
                  <path fill="none" stroke="white" stroke-width="1.5" d="M0,-3.0v7 M-2.5,-0.5L0,-3.0L2.5,-0.5"/>
                </g>
                <g id="arrowRight" xlink:href="#dirArrow" transform="rotate(90) translate(36 -43)" onmousedown="handlePan(1,0)">
                  <use xlink:href="#rim" fill="#404040">
                        <set attributeName="fill" to="#808080" begin="arrowRight.mouseover" end="arrowRight.mouseout"/>
                  </use>
                  <path fill="none" stroke="white" stroke-width="1.5" d="M0,-3.0v7 M-2.5,-0.5L0,-3.0L2.5,-0.5"/>
                </g>
                <g id="arrowDown" xlink:href="#dirArrow" transform="rotate(180) translate(-30 -48)" onmousedown="handlePan(0,1)">
                  <use xlink:href="#rim" fill="#404040">
                        <set attributeName="fill" to="#808080" begin="arrowDown.mouseover" end="arrowDown.mouseout"/>
                  </use>
                  <path fill="none" stroke="white" stroke-width="1.5" d="M0,-3.0v7 M-2.5,-0.5L0,-3.0L2.5,-0.5"/>
                </g>
                <g id="arrowLeft" xlink:href="#dirArrow" transform="rotate(270) translate(-36 17)" onmousedown="handlePan(-1,0)">
                  <use xlink:href="#rim" fill="#404040">
                        <set attributeName="fill" to="#808080" begin="arrowLeft.mouseover" end="arrowLeft.mouseout"/>
                  </use>
                  <path fill="none" stroke="white" stroke-width="1.5" d="M0,-3.0v7 M-2.5,-0.5L0,-3.0L2.5,-0.5"/>
                </g>
        </g>
        <svg viewBox="0 0 15 15" width="100%" height="30px" preserveAspectRatio="xMaxYMin meet">
         <g id="arrow_out" transform="scale(0.3 0.3)">
          <a xlink:href="xc16__pral_8h__dep__incl_org.svg" target="_base">
           <rect id="button" ry="5" rx="5" y="6" x="6" height="38" width="38"
                fill="#f2f5e9" fill-opacity="0.5" stroke="#606060" stroke-width="1.0"/>
           <path id="arrow"
             d="M 11.500037,31.436501 C 11.940474,20.09759 22.043105,11.32322 32.158766,21.979434 L 37.068811,17.246167 C 37.068811,17.246167 37.088388,32 37.088388,32 L 22.160133,31.978069 C 22.160133,31.978069 26.997745,27.140456 26.997745,27.140456 C 18.528582,18.264221 13.291696,25.230495 11.500037,31.436501 z"
             style="fill:#404040;"/>
          </a>
         </g>
        </svg>
</svg>
