<?xml version="1.0" encoding="UTF-8" standalone="no"?>
<!DOCTYPE svg PUBLIC "-//W3C//DTD SVG 1.1//EN"
 "http://www.w3.org/Graphics/SVG/1.1/DTD/svg11.dtd">
<!-- Generated by graphviz version 2.44.1 (20200629.0846)
 -->
<!-- Title: D:/Firmware/MCU16ASMPS_FirmwareProjects/epc9143&#45;power&#45;advanced&#45;voltage&#45;mode&#45;control/epc9143&#45;avmc.X/sources/common/p33c_pral/xc16_pral.h Pages: 1 -->
<svg width="337pt" height="184pt"
 viewBox="0.00 0.00 336.61 184.00" xmlns="http://www.w3.org/2000/svg" xmlns:xlink="http://www.w3.org/1999/xlink">
<g id="graph0" class="graph" transform="scale(1 1) rotate(0) translate(4 180)">
<title>D:/Firmware/MCU16ASMPS_FirmwareProjects/epc9143&#45;power&#45;advanced&#45;voltage&#45;mode&#45;control/epc9143&#45;avmc.X/sources/common/p33c_pral/xc16_pral.h</title>
<polygon fill="white" stroke="transparent" points="-4,4 -4,-180 332.61,-180 332.61,4 -4,4"/>
<!-- Node1 -->
<g id="node1" class="node">
<title>Node1</title>
<g id="a_node1"><a xlink:title="Includes generic peripheral special function register abstraction layer header files.">
<polygon fill="#bfbfbf" stroke="black" points="30.61,-112.5 30.61,-175.5 190.61,-175.5 190.61,-112.5 30.61,-112.5"/>
<text text-anchor="start" x="38.61" y="-163.5" font-family="Helvetica,sans-Serif" font-size="10.00">D:/Firmware/MCU16ASMPS</text>
<text text-anchor="start" x="38.61" y="-152.5" font-family="Helvetica,sans-Serif" font-size="10.00">_FirmwareProjects/epc9143</text>
<text text-anchor="start" x="38.61" y="-141.5" font-family="Helvetica,sans-Serif" font-size="10.00">&#45;power&#45;advanced&#45;voltage&#45;mode</text>
<text text-anchor="start" x="38.61" y="-130.5" font-family="Helvetica,sans-Serif" font-size="10.00">&#45;control/epc9143&#45;avmc.X/sources</text>
<text text-anchor="middle" x="110.61" y="-119.5" font-family="Helvetica,sans-Serif" font-size="10.00">/common/p33c_pral/xc16_pral.h</text>
</a>
</g>
</g>
<!-- Node2 -->
<g id="node2" class="node">
<title>Node2</title>
<g id="a_node2"><a xlink:title=" ">
<polygon fill="white" stroke="#bfbfbf" points="114.11,-0.5 114.11,-19.5 149.11,-19.5 149.11,-0.5 114.11,-0.5"/>
<text text-anchor="middle" x="131.61" y="-7.5" font-family="Helvetica,sans-Serif" font-size="10.00">xc.h</text>
</a>
</g>
</g>
<!-- Node1&#45;&gt;Node2 -->
<g id="edge1" class="edge">
<title>Node1&#45;&gt;Node2</title>
<path fill="none" stroke="midnightblue" d="M34.5,-112.36C8.85,-97.38 -9.8,-77.87 5.61,-56 27.78,-24.55 74.02,-14.96 103.89,-12.11"/>
<polygon fill="midnightblue" stroke="midnightblue" points="104.38,-15.58 114.08,-11.33 103.85,-8.6 104.38,-15.58"/>
</g>
<!-- Node3 -->
<g id="node3" class="node">
<title>Node3</title>
<g id="a_node3"><a xlink:title=" ">
<polygon fill="white" stroke="#bfbfbf" points="15.11,-56.5 15.11,-75.5 64.11,-75.5 64.11,-56.5 15.11,-56.5"/>
<text text-anchor="middle" x="39.61" y="-63.5" font-family="Helvetica,sans-Serif" font-size="10.00">stdint.h</text>
</a>
</g>
</g>
<!-- Node1&#45;&gt;Node3 -->
<g id="edge2" class="edge">
<title>Node1&#45;&gt;Node3</title>
<path fill="none" stroke="midnightblue" d="M81.73,-112.09C72.42,-102.12 62.48,-91.48 54.6,-83.04"/>
<polygon fill="midnightblue" stroke="midnightblue" points="57.14,-80.64 47.76,-75.72 52.03,-85.41 57.14,-80.64"/>
</g>
<!-- Node4 -->
<g id="node4" class="node">
<title>Node4</title>
<g id="a_node4"><a xlink:title=" ">
<polygon fill="white" stroke="#bfbfbf" points="82.61,-56.5 82.61,-75.5 138.61,-75.5 138.61,-56.5 82.61,-56.5"/>
<text text-anchor="middle" x="110.61" y="-63.5" font-family="Helvetica,sans-Serif" font-size="10.00">stdbool.h</text>
</a>
</g>
</g>
<!-- Node1&#45;&gt;Node4 -->
<g id="edge3" class="edge">
<title>Node1&#45;&gt;Node4</title>
<path fill="none" stroke="midnightblue" d="M110.61,-112.09C110.61,-103.15 110.61,-93.67 110.61,-85.72"/>
<polygon fill="midnightblue" stroke="midnightblue" points="114.11,-85.72 110.61,-75.72 107.11,-85.72 114.11,-85.72"/>
</g>
<!-- Node5 -->
<g id="node5" class="node">
<title>Node5</title>
<g id="a_node5"><a xlink:title=" ">
<polygon fill="white" stroke="#bfbfbf" points="157.11,-56.5 157.11,-75.5 208.11,-75.5 208.11,-56.5 157.11,-56.5"/>
<text text-anchor="middle" x="182.61" y="-63.5" font-family="Helvetica,sans-Serif" font-size="10.00">stddef.h</text>
</a>
</g>
</g>
<!-- Node1&#45;&gt;Node5 -->
<g id="edge4" class="edge">
<title>Node1&#45;&gt;Node5</title>
<path fill="none" stroke="midnightblue" d="M139.9,-112.09C149.34,-102.12 159.42,-91.48 167.41,-83.04"/>
<polygon fill="midnightblue" stroke="midnightblue" points="170.02,-85.38 174.35,-75.72 164.93,-80.57 170.02,-85.38"/>
</g>
<!-- Node6 -->
<g id="node6" class="node">
<title>Node6</title>
<g id="a_node6"><a xlink:href="p33smps__devices_8h_source.html" target="_top" xlink:title=" ">
<polygon fill="white" stroke="black" points="226.61,-56.5 226.61,-75.5 328.61,-75.5 328.61,-56.5 226.61,-56.5"/>
<text text-anchor="middle" x="277.61" y="-63.5" font-family="Helvetica,sans-Serif" font-size="10.00">p33smps_devices.h</text>
</a>
</g>
</g>
<!-- Node1&#45;&gt;Node6 -->
<g id="edge5" class="edge">
<title>Node1&#45;&gt;Node6</title>
<path fill="none" stroke="midnightblue" d="M178.06,-112.31C202.99,-100.96 229.91,-88.71 249.47,-79.81"/>
<polygon fill="midnightblue" stroke="midnightblue" points="251.05,-82.93 258.7,-75.61 248.15,-76.56 251.05,-82.93"/>
</g>
<!-- Node6&#45;&gt;Node2 -->
<g id="edge6" class="edge">
<title>Node6&#45;&gt;Node2</title>
<path fill="none" stroke="midnightblue" d="M254.48,-56.44C228.41,-46.8 186.09,-31.15 158.56,-20.97"/>
<polygon fill="midnightblue" stroke="midnightblue" points="159.73,-17.67 149.14,-17.48 157.3,-24.23 159.73,-17.67"/>
</g>
</g>
</svg>
